<?xml version="1.0" encoding="utf-8" standalone="no"?>
<!DOCTYPE svg PUBLIC "-//W3C//DTD SVG 1.1//EN"
  "http://www.w3.org/Graphics/SVG/1.1/DTD/svg11.dtd">
<svg xmlns:xlink="http://www.w3.org/1999/xlink" width="504pt" height="288pt" viewBox="0 0 504 288" xmlns="http://www.w3.org/2000/svg" version="1.1">
 <metadata>
  <rdf:RDF xmlns:dc="http://purl.org/dc/elements/1.1/" xmlns:cc="http://creativecommons.org/ns#" xmlns:rdf="http://www.w3.org/1999/02/22-rdf-syntax-ns#">
   <cc:Work>
    <dc:type rdf:resource="http://purl.org/dc/dcmitype/StillImage"/>
    <dc:date>2023-09-22T20:46:10.032636</dc:date>
    <dc:format>image/svg+xml</dc:format>
    <dc:creator>
     <cc:Agent>
      <dc:title>Matplotlib v3.5.3, https://matplotlib.org/</dc:title>
     </cc:Agent>
    </dc:creator>
   </cc:Work>
  </rdf:RDF>
 </metadata>
 <defs>
  <style type="text/css">*{stroke-linejoin: round; stroke-linecap: butt}</style>
 </defs>
 <g id="figure_1">
  <g id="patch_1">
   <path d="M 0 288 
L 504 288 
L 504 0 
L 0 0 
z
" style="fill: #ffffff"/>
  </g>
  <g id="axes_1">
   <g id="patch_2">
    <path d="M 63 256.32 
L 453.6 256.32 
L 453.6 34.56 
L 63 34.56 
z
" style="fill: #ffffff"/>
   </g>
   <g id="PolyCollection_1">
    <path d="M 80.754545 94.383966 
L 80.754545 134.17906 
L 82.141619 142.40063 
L 83.528693 144.837383 
L 84.915767 142.609046 
L 86.302841 139.217641 
L 87.689915 138.092176 
L 89.076989 140.135332 
L 90.464062 143.565598 
L 91.851136 145.664681 
L 93.23821 144.558263 
L 94.625284 140.114216 
L 96.012358 133.829716 
L 97.399432 127.77995 
L 98.786506 123.188419 
L 100.17358 119.836901 
L 101.560653 117.248983 
L 102.947727 116.045386 
L 104.334801 116.945345 
L 105.721875 118.918947 
L 107.108949 119.965935 
L 108.496023 118.911608 
L 109.883097 115.444567 
L 111.27017 110.276591 
L 112.657244 106.327624 
L 114.044318 107.157947 
L 115.431392 113.140078 
L 116.818466 120.884672 
L 118.20554 127.079759 
L 119.592614 131.06995 
L 120.979687 134.380922 
L 122.366761 138.852148 
L 123.753835 144.890219 
L 125.140909 150.448121 
L 126.527983 152.443896 
L 127.915057 149.680097 
L 129.302131 143.312265 
L 130.689205 134.544538 
L 132.076278 124.345412 
L 133.463352 114.123148 
L 134.850426 105.070835 
L 136.2375 98.316926 
L 137.624574 95.740173 
L 139.011648 98.946999 
L 140.398722 107.450343 
L 141.785795 118.503894 
L 143.172869 128.288725 
L 144.559943 134.176003 
L 145.947017 136.617563 
L 147.334091 137.868232 
L 148.721165 139.408529 
L 150.108239 141.106684 
L 151.495312 141.19207 
L 152.882386 138.024788 
L 154.26946 133.23618 
L 155.656534 130.744918 
L 157.043608 132.469669 
L 158.430682 137.466377 
L 159.817756 142.530597 
L 161.20483 142.316311 
L 162.591903 134.093247 
L 163.978977 121.347795 
L 165.366051 109.843313 
L 166.753125 103.047596 
L 168.140199 101.550046 
L 169.527273 103.538679 
L 170.914347 106.336992 
L 172.30142 108.708384 
L 173.688494 111.23687 
L 175.075568 114.733055 
L 176.462642 117.883921 
L 177.849716 117.33816 
L 179.23679 112.038881 
L 180.623864 105.821502 
L 182.010937 103.443549 
L 183.398011 105.944173 
L 184.785085 112.027086 
L 186.172159 118.589909 
L 187.559233 121.621324 
L 188.946307 119.797044 
L 190.333381 115.889102 
L 191.720455 114.46779 
L 193.107528 119.251264 
L 194.494602 130.653942 
L 195.881676 144.148258 
L 197.26875 153.483643 
L 198.655824 155.93044 
L 200.042898 153.052004 
L 201.429972 148.035269 
L 202.817045 144.460545 
L 204.204119 144.302963 
L 205.591193 145.533272 
L 206.978267 143.404321 
L 208.365341 135.510131 
L 209.752415 124.571629 
L 211.139489 115.361059 
L 212.526563 110.787132 
L 213.913636 111.780383 
L 215.30071 117.407625 
L 216.687784 124.962644 
L 218.074858 132.047825 
L 219.461932 138.061981 
L 220.849006 142.296283 
L 222.23608 142.779656 
L 223.623153 138.659543 
L 225.010227 132.026702 
L 226.397301 125.946775 
L 227.784375 122.894184 
L 229.171449 124.703163 
L 230.558523 131.173448 
L 231.945597 139.379383 
L 233.33267 145.743549 
L 234.719744 148.407219 
L 236.106818 147.453214 
L 237.493892 144.41586 
L 238.880966 141.731368 
L 240.26804 141.560009 
L 241.655114 144.650448 
L 243.042188 150.103425 
L 244.429261 155.849235 
L 245.816335 159.742145 
L 247.203409 160.980929 
L 248.590483 161.114692 
L 249.977557 162.968365 
L 251.364631 167.578405 
L 252.751705 172.58048 
L 254.138778 173.680735 
L 255.525852 167.901193 
L 256.912926 156.441283 
L 258.3 144.168656 
L 259.687074 135.397233 
L 261.074148 130.948014 
L 262.461222 129.05741 
L 263.848295 127.240616 
L 265.235369 124.593619 
L 266.622443 123.411023 
L 268.009517 126.162651 
L 269.396591 131.538178 
L 270.783665 136.333088 
L 272.170739 138.947351 
L 273.557813 139.714251 
L 274.944886 139.784943 
L 276.33196 140.558926 
L 277.719034 142.511199 
L 279.106108 144.732104 
L 280.493182 146.177839 
L 281.880256 146.989035 
L 283.26733 148.315491 
L 284.654403 151.233673 
L 286.041477 155.888451 
L 287.428551 161.148604 
L 288.815625 164.964884 
L 290.202699 166.085556 
L 291.589773 165.441642 
L 292.976847 165.256255 
L 294.36392 167.61217 
L 295.750994 174.110365 
L 297.138068 185.432696 
L 298.525142 200.413206 
L 299.912216 216.105229 
L 301.29929 229.28219 
L 302.686364 238.11195 
L 304.073438 242.833269 
L 305.460511 245.047738 
L 306.847585 246.190885 
L 308.234659 246.24 
L 309.621733 243.925544 
L 311.008807 238.965535 
L 312.395881 233.794032 
L 313.782955 232.039246 
L 315.170028 235.084956 
L 316.557102 240.417401 
L 317.944176 243.415973 
L 319.33125 240.889619 
L 320.718324 233.558814 
L 322.105398 225.722054 
L 323.492472 222.023854 
L 324.879545 223.458689 
L 326.266619 226.07537 
L 327.653693 223.896958 
L 329.040767 213.605143 
L 330.427841 197.101856 
L 331.814915 180.162361 
L 333.201989 168.265411 
L 334.589063 163.05002 
L 335.976136 162.19235 
L 337.36321 161.724013 
L 338.750284 158.8751 
L 340.137358 153.83012 
L 341.524432 148.40451 
L 342.911506 143.359401 
L 344.29858 137.870251 
L 345.685653 130.916351 
L 347.072727 122.362104 
L 348.459801 113.309134 
L 349.846875 105.686953 
L 351.233949 100.861819 
L 352.621023 98.536845 
L 354.008097 97.221331 
L 355.39517 95.827125 
L 356.782244 94.638751 
L 358.169318 94.605936 
L 359.556392 96.153646 
L 360.943466 99.014876 
L 362.33054 102.650745 
L 363.717614 106.308706 
L 365.104688 109.254682 
L 366.491761 111.377154 
L 367.878835 113.055859 
L 369.265909 114.897608 
L 370.652983 117.616202 
L 372.040057 121.050962 
L 373.427131 123.515914 
L 374.814205 122.946244 
L 376.201278 118.25059 
L 377.588352 110.305901 
L 378.975426 102.487234 
L 380.3625 98.651674 
L 381.749574 99.989788 
L 383.136648 104.837126 
L 384.523722 110.430884 
L 385.910795 114.035713 
L 387.297869 114.502426 
L 388.684943 113.767653 
L 390.072017 114.470876 
L 391.459091 116.457591 
L 392.846165 117.128733 
L 394.233239 114.26777 
L 395.620313 108.557374 
L 397.007386 104.14175 
L 398.39446 105.520369 
L 399.781534 113.157767 
L 401.168608 123.581042 
L 402.555682 132.802499 
L 403.942756 138.959854 
L 405.32983 143.168804 
L 406.716903 148.408459 
L 408.103977 156.913202 
L 409.491051 168.207753 
L 410.878125 179.377215 
L 412.265199 187.023134 
L 413.652273 189.413037 
L 415.039347 187.403335 
L 416.42642 183.533377 
L 417.813494 180.13968 
L 419.200568 178.043617 
L 420.587642 176.739546 
L 421.974716 175.701224 
L 423.36179 175.457883 
L 424.748864 177.241238 
L 426.135938 181.561222 
L 427.523011 187.518408 
L 428.910085 193.18727 
L 430.297159 195.990159 
L 431.684233 193.733532 
L 433.071307 186.47015 
L 434.458381 176.910753 
L 435.845455 168.890917 
L 435.845455 118.529279 
L 435.845455 118.529279 
L 434.458381 126.460767 
L 433.071307 136.32678 
L 431.684233 144.172672 
L 430.297159 146.873146 
L 428.910085 143.72243 
L 427.523011 136.42502 
L 426.135938 128.089681 
L 424.748864 121.239808 
L 423.36179 116.687981 
L 421.974716 114.253684 
L 420.587642 113.51661 
L 419.200568 113.861638 
L 417.813494 114.691614 
L 416.42642 115.772021 
L 415.039347 117.032819 
L 413.652273 117.867172 
L 412.265199 116.8496 
L 410.878125 112.631301 
L 409.491051 105.48417 
L 408.103977 97.818683 
L 406.716903 92.582177 
L 405.32983 90.755427 
L 403.942756 90.370258 
L 402.555682 88.117761 
L 401.168608 82.492199 
L 399.781534 75.612727 
L 398.39446 71.312047 
L 397.007386 71.439664 
L 395.620313 74.866427 
L 394.233239 78.994647 
L 392.846165 81.28161 
L 391.459091 81.165031 
L 390.072017 80.355403 
L 388.684943 80.419943 
L 387.297869 80.98065 
L 385.910795 80.224459 
L 384.523722 76.133143 
L 383.136648 68.805919 
L 381.749574 62.124155 
L 380.3625 60.657224 
L 378.975426 65.332787 
L 377.588352 73.416409 
L 376.201278 81.284327 
L 374.814205 86.15495 
L 373.427131 87.09139 
L 372.040057 85.140339 
L 370.652983 81.845839 
L 369.265909 78.322631 
L 367.878835 75.49679 
L 366.491761 73.614167 
L 365.104688 71.809612 
L 363.717614 68.78162 
L 362.33054 63.638954 
L 360.943466 56.715601 
L 359.556392 50.005531 
L 358.169318 45.775926 
L 356.782244 44.64 
L 355.39517 45.428744 
L 354.008097 46.670079 
L 352.621023 47.924468 
L 351.233949 50.0932 
L 349.846875 54.710027 
L 348.459801 62.523737 
L 347.072727 72.435327 
L 345.685653 81.96999 
L 344.29858 89.290633 
L 342.911506 94.884248 
L 341.524432 100.638487 
L 340.137358 107.415466 
L 338.750284 114.184416 
L 337.36321 119.053872 
L 335.976136 120.93282 
L 334.589063 121.24112 
L 333.201989 123.850132 
L 331.814915 131.841501 
L 330.427841 144.274395 
L 329.040767 156.21062 
L 327.653693 161.860646 
L 326.266619 158.861439 
L 324.879545 150.339285 
L 323.492472 142.748645 
L 322.105398 141.201874 
L 320.718324 145.833858 
L 319.33125 151.959078 
L 317.944176 154.137675 
L 316.557102 150.843854 
L 315.170028 145.527811 
L 313.782955 143.350299 
L 312.395881 147.081726 
L 311.008807 155.652953 
L 309.621733 165.601549 
L 308.234659 173.5137 
L 306.847585 177.842198 
L 305.460511 179.196825 
L 304.073438 178.718259 
L 302.686364 176.152752 
L 301.29929 170.054754 
L 299.912216 159.64283 
L 298.525142 146.095652 
L 297.138068 132.195588 
L 295.750994 121.002536 
L 294.36392 114.671653 
L 292.976847 113.542928 
L 291.589773 115.82774 
L 290.202699 118.693066 
L 288.815625 119.925905 
L 287.428551 118.559087 
L 286.041477 115.054687 
L 284.654403 111.613388 
L 283.26733 110.82658 
L 281.880256 113.123806 
L 280.493182 116.266096 
L 279.106108 117.50955 
L 277.719034 116.090258 
L 276.33196 113.694653 
L 274.944886 112.711529 
L 273.557813 113.702614 
L 272.170739 114.427781 
L 270.783665 112.245482 
L 269.396591 107.738484 
L 268.009517 104.019924 
L 266.622443 102.992937 
L 265.235369 104.263546 
L 263.848295 106.671603 
L 262.461222 108.741465 
L 261.074148 110.319173 
L 259.687074 114.023393 
L 258.3 122.223411 
L 256.912926 133.50107 
L 255.525852 143.664743 
L 254.138778 148.881087 
L 252.751705 148.165264 
L 251.364631 144.169579 
L 249.977557 140.898177 
L 248.590483 140.176797 
L 247.203409 140.645296 
L 245.816335 139.540346 
L 244.429261 135.178356 
L 243.042188 128.573704 
L 241.655114 122.602103 
L 240.26804 119.493036 
L 238.880966 119.39291 
L 237.493892 120.949043 
L 236.106818 122.572922 
L 234.719744 122.70995 
L 233.33267 119.878209 
L 231.945597 113.673809 
L 230.558523 105.596683 
L 229.171449 98.634294 
L 227.784375 96.26157 
L 226.397301 100.283875 
L 225.010227 108.463909 
L 223.623153 115.702566 
L 222.23608 118.848856 
L 220.849006 118.270193 
L 219.461932 115.089823 
L 218.074858 109.94449 
L 216.687784 103.624786 
L 215.30071 97.130145 
L 213.913636 91.844886 
L 212.526563 90.566185 
L 211.139489 95.829232 
L 209.752415 106.136055 
L 208.365341 116.277163 
L 206.978267 122.316838 
L 205.591193 123.859929 
L 204.204119 123.005736 
L 202.817045 123.081416 
L 201.429972 126.756668 
L 200.042898 133.098354 
L 198.655824 136.996151 
L 197.26875 133.565647 
L 195.881676 123.032718 
L 194.494602 109.49684 
L 193.107528 97.593529 
L 191.720455 91.013993 
L 190.333381 90.864087 
L 188.946307 94.120262 
L 187.559233 96.059191 
L 186.172159 93.987013 
L 184.785085 88.480996 
L 183.398011 83.029762 
L 182.010937 81.85348 
L 180.623864 85.359836 
L 179.23679 89.713399 
L 177.849716 92.312447 
L 176.462642 92.722431 
L 175.075568 91.083672 
L 173.688494 88.262963 
L 172.30142 85.761448 
L 170.914347 83.919872 
L 169.527273 81.966907 
L 168.140199 80.26715 
L 166.753125 81.387567 
L 165.366051 88.330147 
L 163.978977 100.623139 
L 162.591903 113.383459 
L 161.20483 121.547586 
L 159.817756 122.885911 
L 158.430682 118.156758 
L 157.043608 111.816555 
L 155.656534 109.329233 
L 154.26946 111.436279 
L 152.882386 114.96324 
L 151.495312 117.281034 
L 150.108239 117.384758 
L 148.721165 115.836036 
L 147.334091 114.297196 
L 145.947017 113.062386 
L 144.559943 110.21187 
L 143.172869 103.989002 
L 141.785795 94.419614 
L 140.398722 83.473764 
L 139.011648 74.492095 
L 137.624574 70.253776 
L 136.2375 71.560616 
L 134.850426 77.640117 
L 133.463352 86.838077 
L 132.076278 97.503844 
L 130.689205 108.692739 
L 129.302131 119.05911 
L 127.915057 125.854116 
L 126.527983 127.181185 
L 125.140909 124.030165 
L 123.753835 118.681835 
L 122.366761 113.09941 
L 120.979687 108.369643 
L 119.592614 104.178711 
L 118.20554 99.231131 
L 116.818466 93.218137 
L 115.431392 87.653337 
L 114.044318 84.501179 
L 112.657244 84.790394 
L 111.27017 88.730261 
L 109.883097 94.86986 
L 108.496023 99.730194 
L 107.108949 100.544917 
L 105.721875 98.173047 
L 104.334801 95.404232 
L 102.947727 93.630531 
L 101.560653 92.766014 
L 100.17358 92.791462 
L 98.786506 93.824181 
L 97.399432 95.833348 
L 96.012358 98.747468 
L 94.625284 101.975477 
L 93.23821 103.931125 
L 91.851136 103.002074 
L 90.464062 99.30792 
L 89.076989 95.171606 
L 87.689915 93.411137 
L 86.302841 95.044837 
L 84.915767 98.598723 
L 83.528693 101.14253 
L 82.141619 99.971113 
L 80.754545 94.383966 
z
" clip-path="url(#pa0dfb184d6)" style="fill: #1f77b4; fill-opacity: 0.2"/>
   </g>
   <g id="PolyCollection_2">
    <path d="M 80.754545 106.777295 
L 80.754545 125.389939 
L 82.141619 121.435297 
L 83.528693 117.940552 
L 84.915767 116.233519 
L 86.302841 116.306876 
L 87.689915 116.88355 
L 89.076989 116.513396 
L 90.464062 115.071294 
L 91.851136 113.828753 
L 93.23821 114.113458 
L 94.625284 116.062296 
L 96.012358 118.211792 
L 97.399432 117.998863 
L 98.786506 113.652019 
L 100.17358 106.140529 
L 101.560653 98.897029 
L 102.947727 95.389037 
L 104.334801 96.762225 
L 105.721875 101.270609 
L 107.108949 105.417919 
L 108.496023 106.297818 
L 109.883097 103.687753 
L 111.27017 100.087765 
L 112.657244 98.611363 
L 114.044318 100.820109 
L 115.431392 105.985462 
L 116.818466 111.650427 
L 118.20554 115.149621 
L 119.592614 115.287252 
L 120.979687 113.116998 
L 122.366761 111.073751 
L 123.753835 110.949625 
L 125.140909 112.631571 
L 126.527983 114.709586 
L 127.915057 115.789429 
L 129.302131 115.196521 
L 130.689205 113.591743 
L 132.076278 112.90146 
L 133.463352 114.658795 
L 134.850426 118.53167 
L 136.2375 122.78029 
L 137.624574 125.643932 
L 139.011648 126.103934 
L 140.398722 124.230761 
L 141.785795 121.098713 
L 143.172869 117.903078 
L 144.559943 115.187059 
L 145.947017 113.42359 
L 147.334091 113.848159 
L 148.721165 117.93187 
L 150.108239 125.771032 
L 151.495312 134.876486 
L 152.882386 141.284826 
L 154.26946 142.431572 
L 155.656534 138.990108 
L 157.043608 134.081702 
L 158.430682 130.878487 
L 159.817756 130.833173 
L 161.20483 133.249848 
L 162.591903 136.227843 
L 163.978977 138.381398 
L 165.366051 139.559635 
L 166.753125 139.939226 
L 168.140199 139.04465 
L 169.527273 135.998776 
L 170.914347 130.735808 
L 172.30142 124.82456 
L 173.688494 120.814024 
L 175.075568 120.629616 
L 176.462642 124.203421 
L 177.849716 129.406052 
L 179.23679 133.671278 
L 180.623864 135.953713 
L 182.010937 137.173367 
L 183.398011 138.800608 
L 184.785085 140.980165 
L 186.172159 142.18343 
L 187.559233 140.860315 
L 188.946307 137.193301 
L 190.333381 133.150989 
L 191.720455 130.930652 
L 193.107528 131.073889 
L 194.494602 131.791424 
L 195.881676 130.432522 
L 197.26875 126.067657 
L 198.655824 120.530953 
L 200.042898 116.847758 
L 201.429972 116.802958 
L 202.817045 119.903687 
L 204.204119 124.241251 
L 205.591193 128.307839 
L 206.978267 132.170182 
L 208.365341 136.82461 
L 209.752415 142.429162 
L 211.139489 147.355625 
L 212.526563 149.093031 
L 213.913636 146.235609 
L 215.30071 139.819928 
L 216.687784 132.686808 
L 218.074858 127.465679 
L 219.461932 125.234992 
L 220.849006 125.503553 
L 222.23608 126.669903 
L 223.623153 127.205555 
L 225.010227 126.997628 
L 226.397301 127.120064 
L 227.784375 128.580668 
L 229.171449 131.583048 
L 230.558523 135.568057 
L 231.945597 139.539012 
L 233.33267 142.790043 
L 234.719744 145.653757 
L 236.106818 149.258221 
L 237.493892 154.303298 
L 238.880966 160.159391 
L 240.26804 165.213179 
L 241.655114 167.993571 
L 243.042188 168.26099 
L 244.429261 167.206685 
L 245.816335 166.665048 
L 247.203409 167.825737 
L 248.590483 170.114759 
L 249.977557 171.517414 
L 251.364631 170.516076 
L 252.751705 167.525131 
L 254.138778 164.212361 
L 255.525852 161.900447 
L 256.912926 160.518828 
L 258.3 158.728824 
L 259.687074 155.216198 
L 261.074148 149.87303 
L 262.461222 144.041316 
L 263.848295 139.745034 
L 265.235369 137.940774 
L 266.622443 137.626682 
L 268.009517 137.090965 
L 269.396591 135.628539 
L 270.783665 134.024269 
L 272.170739 133.810193 
L 273.557813 135.936981 
L 274.944886 139.877501 
L 276.33196 143.907716 
L 277.719034 146.247706 
L 279.106108 146.336253 
L 280.493182 145.238143 
L 281.880256 144.494865 
L 283.26733 144.631671 
L 284.654403 145.326367 
L 286.041477 146.159245 
L 287.428551 146.602358 
L 288.815625 146.078311 
L 290.202699 144.405854 
L 291.589773 141.903699 
L 292.976847 139.30503 
L 294.36392 137.637454 
L 295.750994 137.902847 
L 297.138068 140.797771 
L 298.525142 146.355863 
L 299.912216 153.403252 
L 301.29929 159.777527 
L 302.686364 163.477566 
L 304.073438 163.583789 
L 305.460511 160.679886 
L 306.847585 156.658036 
L 308.234659 153.547935 
L 309.621733 152.226481 
L 311.008807 152.31533 
L 312.395881 153.068697 
L 313.782955 154.353816 
L 315.170028 156.929276 
L 316.557102 161.414321 
L 317.944176 166.925441 
L 319.33125 171.226182 
L 320.718324 172.396741 
L 322.105398 170.537994 
L 323.492472 168.191318 
L 324.879545 168.675522 
L 326.266619 173.199093 
L 327.653693 179.623265 
L 329.040767 184.255603 
L 330.427841 184.821588 
L 331.814915 182.27435 
L 333.201989 180.281456 
L 334.589063 182.55303 
L 335.976136 190.075627 
L 337.36321 200.748147 
L 338.750284 211.214106 
L 340.137358 218.892004 
L 341.524432 223.021934 
L 342.911506 224.449528 
L 344.29858 224.615173 
L 345.685653 224.744336 
L 347.072727 225.548767 
L 348.459801 226.933292 
L 349.846875 227.743872 
L 351.233949 226.172362 
L 352.621023 220.857715 
L 354.008097 212.051734 
L 355.39517 202.005768 
L 356.782244 193.976575 
L 358.169318 190.324693 
L 359.556392 191.15489 
L 360.943466 194.477569 
L 362.33054 197.581347 
L 363.717614 198.52572 
L 365.104688 196.812574 
L 366.491761 193.186841 
L 367.878835 189.115172 
L 369.265909 186.16101 
L 370.652983 185.233592 
L 372.040057 185.943986 
L 373.427131 186.491266 
L 374.814205 184.483694 
L 376.201278 178.494785 
L 377.588352 169.259763 
L 378.975426 159.54017 
L 380.3625 152.583655 
L 381.749574 149.939305 
L 383.136648 150.228408 
L 384.523722 150.140445 
L 385.910795 146.797336 
L 387.297869 139.586067 
L 388.684943 130.555763 
L 390.072017 123.070188 
L 391.459091 119.453286 
L 392.846165 119.658206 
L 394.233239 121.91456 
L 395.620313 124.337071 
L 397.007386 126.286427 
L 398.39446 128.541582 
L 399.781534 132.054668 
L 401.168608 136.752981 
L 402.555682 141.501286 
L 403.942756 144.847302 
L 405.32983 146.067327 
L 406.716903 145.880491 
L 408.103977 145.925939 
L 409.491051 147.41189 
L 410.878125 150.311931 
L 412.265199 153.434233 
L 413.652273 155.098652 
L 415.039347 154.241352 
L 416.42642 151.074205 
L 417.813494 146.692486 
L 419.200568 142.421994 
L 420.587642 139.610086 
L 421.974716 139.508447 
L 423.36179 142.845661 
L 424.748864 149.230149 
L 426.135938 156.949542 
L 427.523011 163.727778 
L 428.910085 168.151125 
L 430.297159 170.590748 
L 431.684233 172.676328 
L 433.071307 175.593908 
L 434.458381 178.70297 
L 435.845455 179.914703 
L 435.845455 118.246701 
L 435.845455 118.246701 
L 434.458381 117.620596 
L 433.071307 115.467038 
L 431.684233 113.327684 
L 430.297159 111.665429 
L 428.910085 109.607799 
L 427.523011 105.955242 
L 426.135938 100.446035 
L 424.748864 94.161536 
L 423.36179 88.871958 
L 421.974716 86.03903 
L 420.587642 86.212039 
L 419.200568 89.018235 
L 417.813494 93.440759 
L 416.42642 98.048891 
L 415.039347 101.3298 
L 413.652273 102.250307 
L 412.265199 100.692058 
L 410.878125 97.580764 
L 409.491051 94.60742 
L 408.103977 93.189628 
L 406.716903 93.315255 
L 405.32983 93.641221 
L 403.942756 92.71801 
L 402.555682 90.107122 
L 401.168608 86.760112 
L 399.781534 84.318529 
L 398.39446 83.610914 
L 397.007386 83.877676 
L 395.620313 83.591352 
L 394.233239 81.870644 
L 392.846165 79.424 
L 391.459091 78.469899 
L 390.072017 81.242225 
L 388.684943 88.155334 
L 387.297869 97.196673 
L 385.910795 104.884266 
L 384.523722 108.410496 
L 383.136648 107.770528 
L 381.749574 105.894595 
L 380.3625 106.471665 
L 378.975426 111.421137 
L 377.588352 119.680497 
L 376.201278 127.957118 
L 374.814205 133.053956 
L 373.427131 133.994443 
L 372.040057 132.317282 
L 370.652983 130.707081 
L 369.265909 131.224554 
L 367.878835 134.234309 
L 366.491761 138.476697 
L 365.104688 141.925217 
L 363.717614 142.824299 
L 362.33054 140.591184 
L 360.943466 136.257677 
L 359.556392 132.15267 
L 358.169318 130.902992 
L 356.782244 134.128429 
L 355.39517 141.498146 
L 354.008097 150.821069 
L 352.621023 159.184899 
L 351.233949 164.471538 
L 349.846875 166.33066 
L 348.459801 165.963789 
L 347.072727 165.03096 
L 345.685653 164.701395 
L 344.29858 165.300919 
L 342.911506 166.307878 
L 341.524432 166.590043 
L 340.137358 164.862595 
L 338.750284 160.293977 
L 337.36321 153.282654 
L 335.976136 145.885801 
L 334.589063 140.907728 
L 333.201989 139.93998 
L 331.814915 142.094748 
L 330.427841 144.425192 
L 329.040767 143.876915 
L 327.653693 139.733835 
L 326.266619 134.318972 
L 324.879545 130.937053 
L 323.492472 131.107488 
L 322.105398 133.584705 
L 320.718324 135.476522 
L 319.33125 134.507504 
L 317.944176 130.780001 
L 316.557102 126.317332 
L 315.170028 123.017006 
L 313.782955 121.366251 
L 312.395881 120.769244 
L 311.008807 120.594781 
L 309.621733 120.999271 
L 308.234659 122.715467 
L 306.847585 125.946612 
L 305.460511 129.782069 
L 304.073438 132.6564 
L 302.686364 133.130313 
L 301.29929 130.625459 
L 299.912216 125.744065 
L 298.525142 119.829313 
L 297.138068 114.447516 
L 295.750994 111.24734 
L 294.36392 111.350948 
L 292.976847 114.568889 
L 291.589773 119.493116 
L 290.202699 124.267379 
L 288.815625 127.452129 
L 287.428551 128.617109 
L 286.041477 128.218936 
L 284.654403 127.140776 
L 283.26733 126.437815 
L 281.880256 126.737659 
L 280.493182 127.647127 
L 279.106108 128.253547 
L 277.719034 127.860508 
L 276.33196 125.962734 
L 274.944886 122.597612 
L 273.557813 118.896178 
L 272.170739 116.574171 
L 270.783665 116.545619 
L 269.396591 118.134316 
L 268.009517 119.749631 
L 266.622443 120.545814 
L 265.235369 121.326007 
L 263.848295 123.625532 
L 262.461222 128.141729 
L 261.074148 133.923142 
L 259.687074 138.761181 
L 258.3 141.025975 
L 256.912926 141.454977 
L 255.525852 142.462579 
L 254.138778 145.712465 
L 252.751705 150.488084 
L 251.364631 154.306641 
L 249.977557 155.291395 
L 248.590483 153.748614 
L 247.203409 151.5587 
L 245.816335 150.623229 
L 244.429261 151.503133 
L 243.042188 152.947795 
L 241.655114 152.922443 
L 240.26804 150.353143 
L 238.880966 145.765077 
L 237.493892 140.478228 
L 236.106818 135.469061 
L 234.719744 130.921885 
L 233.33267 126.625961 
L 231.945597 122.34098 
L 230.558523 117.922786 
L 229.171449 113.587321 
L 227.784375 110.082085 
L 226.397301 108.176851 
L 225.010227 107.922684 
L 223.623153 108.643229 
L 222.23608 109.445468 
L 220.849006 109.78176 
L 219.461932 110.106131 
L 218.074858 112.047784 
L 216.687784 116.840536 
L 215.30071 123.539536 
L 213.913636 129.405693 
L 212.526563 131.769571 
L 211.139489 129.690705 
L 209.752415 124.457543 
L 208.365341 118.532092 
L 206.978267 113.698602 
L 205.591193 110.06725 
L 204.204119 106.728785 
L 202.817045 103.306076 
L 201.429972 100.872679 
L 200.042898 101.156729 
L 198.655824 104.62231 
L 197.26875 109.555015 
L 195.881676 113.273552 
L 194.494602 114.223341 
L 193.107528 113.133858 
L 191.720455 112.421191 
L 190.333381 114.184619 
L 188.946307 118.288034 
L 187.559233 122.478499 
L 186.172159 124.52935 
L 184.785085 124.061767 
L 183.398011 122.283115 
L 182.010937 120.388412 
L 180.623864 118.387992 
L 179.23679 115.335087 
L 177.849716 110.771397 
L 176.462642 105.910602 
L 175.075568 103.159364 
L 173.688494 104.28446 
L 172.30142 108.844313 
L 170.914347 114.422458 
L 169.527273 118.638257 
L 168.140199 120.814218 
L 166.753125 121.704738 
L 165.366051 122.055639 
L 163.978977 121.670318 
L 162.591903 119.944877 
L 161.20483 117.090756 
L 159.817756 114.60637 
L 158.430682 114.50436 
L 157.043608 117.573581 
L 155.656534 122.068917 
L 154.26946 124.660537 
L 152.882386 122.963453 
L 151.495312 117.020393 
L 150.108239 108.92629 
L 148.721165 101.469129 
L 147.334091 96.891796 
L 145.947017 96.031998 
L 144.559943 98.151961 
L 143.172869 101.7207 
L 141.785795 105.328698 
L 140.398722 108.217976 
L 139.011648 109.961746 
L 137.624574 109.789895 
L 136.2375 107.08273 
L 134.850426 102.577189 
L 133.463352 98.304615 
L 132.076278 96.074662 
L 130.689205 96.354284 
L 129.302131 98.093296 
L 127.915057 99.204168 
L 126.527983 98.028043 
L 125.140909 95.10403 
L 123.753835 92.816638 
L 122.366761 93.001593 
L 120.979687 95.424628 
L 119.592614 98.083356 
L 118.20554 98.536706 
L 116.818466 95.524294 
L 115.431392 90.081249 
L 114.044318 85.074472 
L 112.657244 83.174891 
L 111.27017 84.800724 
L 109.883097 87.812338 
L 108.496023 89.327353 
L 107.108949 87.81133 
L 105.721875 83.951021 
L 104.334801 80.261016 
L 102.947727 79.569601 
L 101.560653 83.061784 
L 100.17358 89.417072 
L 98.786506 95.880182 
L 97.399432 99.95666 
L 96.012358 100.569556 
L 94.625284 98.496024 
L 93.23821 95.937244 
L 91.851136 94.921829 
L 90.464062 95.793294 
L 89.076989 97.50136 
L 87.689915 98.878217 
L 86.302841 99.489194 
L 84.915767 99.87217 
L 83.528693 101.167455 
L 82.141619 103.847155 
L 80.754545 106.777295 
z
" clip-path="url(#pa0dfb184d6)" style="fill: #ff7f0e; fill-opacity: 0.2"/>
   </g>
   <g id="matplotlib.axis_1">
    <g id="xtick_1">
     <g id="line2d_1">
      <defs>
       <path id="me102611d9c" d="M 0 0 
L 0 3.5 
" style="stroke: #000000; stroke-width: 0.8"/>
      </defs>
      <g>
       <use xlink:href="#me102611d9c" x="116.541051" y="256.32" style="stroke: #000000; stroke-width: 0.8"/>
      </g>
     </g>
     <g id="text_1">
      <!-- −0.2 -->
      <g transform="translate(97.114801 275.4775)scale(0.16 -0.16)">
       <defs>
        <path id="DejaVuSans-2212" d="M 678 2272 
L 4684 2272 
L 4684 1741 
L 678 1741 
L 678 2272 
z
" transform="scale(0.015625)"/>
        <path id="DejaVuSans-30" d="M 2034 4250 
Q 1547 4250 1301 3770 
Q 1056 3291 1056 2328 
Q 1056 1369 1301 889 
Q 1547 409 2034 409 
Q 2525 409 2770 889 
Q 3016 1369 3016 2328 
Q 3016 3291 2770 3770 
Q 2525 4250 2034 4250 
z
M 2034 4750 
Q 2819 4750 3233 4129 
Q 3647 3509 3647 2328 
Q 3647 1150 3233 529 
Q 2819 -91 2034 -91 
Q 1250 -91 836 529 
Q 422 1150 422 2328 
Q 422 3509 836 4129 
Q 1250 4750 2034 4750 
z
" transform="scale(0.015625)"/>
        <path id="DejaVuSans-2e" d="M 684 794 
L 1344 794 
L 1344 0 
L 684 0 
L 684 794 
z
" transform="scale(0.015625)"/>
        <path id="DejaVuSans-32" d="M 1228 531 
L 3431 531 
L 3431 0 
L 469 0 
L 469 531 
Q 828 903 1448 1529 
Q 2069 2156 2228 2338 
Q 2531 2678 2651 2914 
Q 2772 3150 2772 3378 
Q 2772 3750 2511 3984 
Q 2250 4219 1831 4219 
Q 1534 4219 1204 4116 
Q 875 4013 500 3803 
L 500 4441 
Q 881 4594 1212 4672 
Q 1544 4750 1819 4750 
Q 2544 4750 2975 4387 
Q 3406 4025 3406 3419 
Q 3406 3131 3298 2873 
Q 3191 2616 2906 2266 
Q 2828 2175 2409 1742 
Q 1991 1309 1228 531 
z
" transform="scale(0.015625)"/>
       </defs>
       <use xlink:href="#DejaVuSans-2212"/>
       <use xlink:href="#DejaVuSans-30" x="83.789062"/>
       <use xlink:href="#DejaVuSans-2e" x="147.412109"/>
       <use xlink:href="#DejaVuSans-32" x="179.199219"/>
      </g>
     </g>
    </g>
    <g id="xtick_2">
     <g id="line2d_2">
      <g>
       <use xlink:href="#me102611d9c" x="187.559233" y="256.32" style="stroke: #000000; stroke-width: 0.8"/>
      </g>
     </g>
     <g id="text_2">
      <!-- 0.0 -->
      <g transform="translate(174.836733 275.4775)scale(0.16 -0.16)">
       <use xlink:href="#DejaVuSans-30"/>
       <use xlink:href="#DejaVuSans-2e" x="63.623047"/>
       <use xlink:href="#DejaVuSans-30" x="95.410156"/>
      </g>
     </g>
    </g>
    <g id="xtick_3">
     <g id="line2d_3">
      <g>
       <use xlink:href="#me102611d9c" x="258.577415" y="256.32" style="stroke: #000000; stroke-width: 0.8"/>
      </g>
     </g>
     <g id="text_3">
      <!-- 0.2 -->
      <g transform="translate(245.854915 275.4775)scale(0.16 -0.16)">
       <use xlink:href="#DejaVuSans-30"/>
       <use xlink:href="#DejaVuSans-2e" x="63.623047"/>
       <use xlink:href="#DejaVuSans-32" x="95.410156"/>
      </g>
     </g>
    </g>
    <g id="xtick_4">
     <g id="line2d_4">
      <g>
       <use xlink:href="#me102611d9c" x="329.595597" y="256.32" style="stroke: #000000; stroke-width: 0.8"/>
      </g>
     </g>
     <g id="text_4">
      <!-- 0.4 -->
      <g transform="translate(316.873097 275.4775)scale(0.16 -0.16)">
       <defs>
        <path id="DejaVuSans-34" d="M 2419 4116 
L 825 1625 
L 2419 1625 
L 2419 4116 
z
M 2253 4666 
L 3047 4666 
L 3047 1625 
L 3713 1625 
L 3713 1100 
L 3047 1100 
L 3047 0 
L 2419 0 
L 2419 1100 
L 313 1100 
L 313 1709 
L 2253 4666 
z
" transform="scale(0.015625)"/>
       </defs>
       <use xlink:href="#DejaVuSans-30"/>
       <use xlink:href="#DejaVuSans-2e" x="63.623047"/>
       <use xlink:href="#DejaVuSans-34" x="95.410156"/>
      </g>
     </g>
    </g>
    <g id="xtick_5">
     <g id="line2d_5">
      <g>
       <use xlink:href="#me102611d9c" x="400.613778" y="256.32" style="stroke: #000000; stroke-width: 0.8"/>
      </g>
     </g>
     <g id="text_5">
      <!-- 0.6 -->
      <g transform="translate(387.891278 275.4775)scale(0.16 -0.16)">
       <defs>
        <path id="DejaVuSans-36" d="M 2113 2584 
Q 1688 2584 1439 2293 
Q 1191 2003 1191 1497 
Q 1191 994 1439 701 
Q 1688 409 2113 409 
Q 2538 409 2786 701 
Q 3034 994 3034 1497 
Q 3034 2003 2786 2293 
Q 2538 2584 2113 2584 
z
M 3366 4563 
L 3366 3988 
Q 3128 4100 2886 4159 
Q 2644 4219 2406 4219 
Q 1781 4219 1451 3797 
Q 1122 3375 1075 2522 
Q 1259 2794 1537 2939 
Q 1816 3084 2150 3084 
Q 2853 3084 3261 2657 
Q 3669 2231 3669 1497 
Q 3669 778 3244 343 
Q 2819 -91 2113 -91 
Q 1303 -91 875 529 
Q 447 1150 447 2328 
Q 447 3434 972 4092 
Q 1497 4750 2381 4750 
Q 2619 4750 2861 4703 
Q 3103 4656 3366 4563 
z
" transform="scale(0.015625)"/>
       </defs>
       <use xlink:href="#DejaVuSans-30"/>
       <use xlink:href="#DejaVuSans-2e" x="63.623047"/>
       <use xlink:href="#DejaVuSans-36" x="95.410156"/>
      </g>
     </g>
    </g>
    <g id="text_6">
     <!-- Time from event (s) -->
     <g transform="translate(169.41375 296.482188)scale(0.18 -0.18)">
      <defs>
       <path id="DejaVuSans-54" d="M -19 4666 
L 3928 4666 
L 3928 4134 
L 2272 4134 
L 2272 0 
L 1638 0 
L 1638 4134 
L -19 4134 
L -19 4666 
z
" transform="scale(0.015625)"/>
       <path id="DejaVuSans-69" d="M 603 3500 
L 1178 3500 
L 1178 0 
L 603 0 
L 603 3500 
z
M 603 4863 
L 1178 4863 
L 1178 4134 
L 603 4134 
L 603 4863 
z
" transform="scale(0.015625)"/>
       <path id="DejaVuSans-6d" d="M 3328 2828 
Q 3544 3216 3844 3400 
Q 4144 3584 4550 3584 
Q 5097 3584 5394 3201 
Q 5691 2819 5691 2113 
L 5691 0 
L 5113 0 
L 5113 2094 
Q 5113 2597 4934 2840 
Q 4756 3084 4391 3084 
Q 3944 3084 3684 2787 
Q 3425 2491 3425 1978 
L 3425 0 
L 2847 0 
L 2847 2094 
Q 2847 2600 2669 2842 
Q 2491 3084 2119 3084 
Q 1678 3084 1418 2786 
Q 1159 2488 1159 1978 
L 1159 0 
L 581 0 
L 581 3500 
L 1159 3500 
L 1159 2956 
Q 1356 3278 1631 3431 
Q 1906 3584 2284 3584 
Q 2666 3584 2933 3390 
Q 3200 3197 3328 2828 
z
" transform="scale(0.015625)"/>
       <path id="DejaVuSans-65" d="M 3597 1894 
L 3597 1613 
L 953 1613 
Q 991 1019 1311 708 
Q 1631 397 2203 397 
Q 2534 397 2845 478 
Q 3156 559 3463 722 
L 3463 178 
Q 3153 47 2828 -22 
Q 2503 -91 2169 -91 
Q 1331 -91 842 396 
Q 353 884 353 1716 
Q 353 2575 817 3079 
Q 1281 3584 2069 3584 
Q 2775 3584 3186 3129 
Q 3597 2675 3597 1894 
z
M 3022 2063 
Q 3016 2534 2758 2815 
Q 2500 3097 2075 3097 
Q 1594 3097 1305 2825 
Q 1016 2553 972 2059 
L 3022 2063 
z
" transform="scale(0.015625)"/>
       <path id="DejaVuSans-20" transform="scale(0.015625)"/>
       <path id="DejaVuSans-66" d="M 2375 4863 
L 2375 4384 
L 1825 4384 
Q 1516 4384 1395 4259 
Q 1275 4134 1275 3809 
L 1275 3500 
L 2222 3500 
L 2222 3053 
L 1275 3053 
L 1275 0 
L 697 0 
L 697 3053 
L 147 3053 
L 147 3500 
L 697 3500 
L 697 3744 
Q 697 4328 969 4595 
Q 1241 4863 1831 4863 
L 2375 4863 
z
" transform="scale(0.015625)"/>
       <path id="DejaVuSans-72" d="M 2631 2963 
Q 2534 3019 2420 3045 
Q 2306 3072 2169 3072 
Q 1681 3072 1420 2755 
Q 1159 2438 1159 1844 
L 1159 0 
L 581 0 
L 581 3500 
L 1159 3500 
L 1159 2956 
Q 1341 3275 1631 3429 
Q 1922 3584 2338 3584 
Q 2397 3584 2469 3576 
Q 2541 3569 2628 3553 
L 2631 2963 
z
" transform="scale(0.015625)"/>
       <path id="DejaVuSans-6f" d="M 1959 3097 
Q 1497 3097 1228 2736 
Q 959 2375 959 1747 
Q 959 1119 1226 758 
Q 1494 397 1959 397 
Q 2419 397 2687 759 
Q 2956 1122 2956 1747 
Q 2956 2369 2687 2733 
Q 2419 3097 1959 3097 
z
M 1959 3584 
Q 2709 3584 3137 3096 
Q 3566 2609 3566 1747 
Q 3566 888 3137 398 
Q 2709 -91 1959 -91 
Q 1206 -91 779 398 
Q 353 888 353 1747 
Q 353 2609 779 3096 
Q 1206 3584 1959 3584 
z
" transform="scale(0.015625)"/>
       <path id="DejaVuSans-76" d="M 191 3500 
L 800 3500 
L 1894 563 
L 2988 3500 
L 3597 3500 
L 2284 0 
L 1503 0 
L 191 3500 
z
" transform="scale(0.015625)"/>
       <path id="DejaVuSans-6e" d="M 3513 2113 
L 3513 0 
L 2938 0 
L 2938 2094 
Q 2938 2591 2744 2837 
Q 2550 3084 2163 3084 
Q 1697 3084 1428 2787 
Q 1159 2491 1159 1978 
L 1159 0 
L 581 0 
L 581 3500 
L 1159 3500 
L 1159 2956 
Q 1366 3272 1645 3428 
Q 1925 3584 2291 3584 
Q 2894 3584 3203 3211 
Q 3513 2838 3513 2113 
z
" transform="scale(0.015625)"/>
       <path id="DejaVuSans-74" d="M 1172 4494 
L 1172 3500 
L 2356 3500 
L 2356 3053 
L 1172 3053 
L 1172 1153 
Q 1172 725 1289 603 
Q 1406 481 1766 481 
L 2356 481 
L 2356 0 
L 1766 0 
Q 1100 0 847 248 
Q 594 497 594 1153 
L 594 3053 
L 172 3053 
L 172 3500 
L 594 3500 
L 594 4494 
L 1172 4494 
z
" transform="scale(0.015625)"/>
       <path id="DejaVuSans-28" d="M 1984 4856 
Q 1566 4138 1362 3434 
Q 1159 2731 1159 2009 
Q 1159 1288 1364 580 
Q 1569 -128 1984 -844 
L 1484 -844 
Q 1016 -109 783 600 
Q 550 1309 550 2009 
Q 550 2706 781 3412 
Q 1013 4119 1484 4856 
L 1984 4856 
z
" transform="scale(0.015625)"/>
       <path id="DejaVuSans-73" d="M 2834 3397 
L 2834 2853 
Q 2591 2978 2328 3040 
Q 2066 3103 1784 3103 
Q 1356 3103 1142 2972 
Q 928 2841 928 2578 
Q 928 2378 1081 2264 
Q 1234 2150 1697 2047 
L 1894 2003 
Q 2506 1872 2764 1633 
Q 3022 1394 3022 966 
Q 3022 478 2636 193 
Q 2250 -91 1575 -91 
Q 1294 -91 989 -36 
Q 684 19 347 128 
L 347 722 
Q 666 556 975 473 
Q 1284 391 1588 391 
Q 1994 391 2212 530 
Q 2431 669 2431 922 
Q 2431 1156 2273 1281 
Q 2116 1406 1581 1522 
L 1381 1569 
Q 847 1681 609 1914 
Q 372 2147 372 2553 
Q 372 3047 722 3315 
Q 1072 3584 1716 3584 
Q 2034 3584 2315 3537 
Q 2597 3491 2834 3397 
z
" transform="scale(0.015625)"/>
       <path id="DejaVuSans-29" d="M 513 4856 
L 1013 4856 
Q 1481 4119 1714 3412 
Q 1947 2706 1947 2009 
Q 1947 1309 1714 600 
Q 1481 -109 1013 -844 
L 513 -844 
Q 928 -128 1133 580 
Q 1338 1288 1338 2009 
Q 1338 2731 1133 3434 
Q 928 4138 513 4856 
z
" transform="scale(0.015625)"/>
      </defs>
      <use xlink:href="#DejaVuSans-54"/>
      <use xlink:href="#DejaVuSans-69" x="57.958984"/>
      <use xlink:href="#DejaVuSans-6d" x="85.742188"/>
      <use xlink:href="#DejaVuSans-65" x="183.154297"/>
      <use xlink:href="#DejaVuSans-20" x="244.677734"/>
      <use xlink:href="#DejaVuSans-66" x="276.464844"/>
      <use xlink:href="#DejaVuSans-72" x="311.669922"/>
      <use xlink:href="#DejaVuSans-6f" x="350.533203"/>
      <use xlink:href="#DejaVuSans-6d" x="411.714844"/>
      <use xlink:href="#DejaVuSans-20" x="509.126953"/>
      <use xlink:href="#DejaVuSans-65" x="540.914062"/>
      <use xlink:href="#DejaVuSans-76" x="602.4375"/>
      <use xlink:href="#DejaVuSans-65" x="661.617188"/>
      <use xlink:href="#DejaVuSans-6e" x="723.140625"/>
      <use xlink:href="#DejaVuSans-74" x="786.519531"/>
      <use xlink:href="#DejaVuSans-20" x="825.728516"/>
      <use xlink:href="#DejaVuSans-28" x="857.515625"/>
      <use xlink:href="#DejaVuSans-73" x="896.529297"/>
      <use xlink:href="#DejaVuSans-29" x="948.628906"/>
     </g>
    </g>
   </g>
   <g id="matplotlib.axis_2">
    <g id="ytick_1">
     <g id="line2d_6">
      <defs>
       <path id="m383db54277" d="M 0 0 
L -3.5 0 
" style="stroke: #000000; stroke-width: 0.8"/>
      </defs>
      <g>
       <use xlink:href="#m383db54277" x="63" y="241.430356" style="stroke: #000000; stroke-width: 0.8"/>
      </g>
     </g>
     <g id="text_7">
      <!-- −7.5 -->
      <g transform="translate(17.1475 247.509106)scale(0.16 -0.16)">
       <defs>
        <path id="DejaVuSans-37" d="M 525 4666 
L 3525 4666 
L 3525 4397 
L 1831 0 
L 1172 0 
L 2766 4134 
L 525 4134 
L 525 4666 
z
" transform="scale(0.015625)"/>
        <path id="DejaVuSans-35" d="M 691 4666 
L 3169 4666 
L 3169 4134 
L 1269 4134 
L 1269 2991 
Q 1406 3038 1543 3061 
Q 1681 3084 1819 3084 
Q 2600 3084 3056 2656 
Q 3513 2228 3513 1497 
Q 3513 744 3044 326 
Q 2575 -91 1722 -91 
Q 1428 -91 1123 -41 
Q 819 9 494 109 
L 494 744 
Q 775 591 1075 516 
Q 1375 441 1709 441 
Q 2250 441 2565 725 
Q 2881 1009 2881 1497 
Q 2881 1984 2565 2268 
Q 2250 2553 1709 2553 
Q 1456 2553 1204 2497 
Q 953 2441 691 2322 
L 691 4666 
z
" transform="scale(0.015625)"/>
       </defs>
       <use xlink:href="#DejaVuSans-2212"/>
       <use xlink:href="#DejaVuSans-37" x="83.789062"/>
       <use xlink:href="#DejaVuSans-2e" x="147.412109"/>
       <use xlink:href="#DejaVuSans-35" x="179.199219"/>
      </g>
     </g>
    </g>
    <g id="ytick_2">
     <g id="line2d_7">
      <g>
       <use xlink:href="#m383db54277" x="63" y="202.436595" style="stroke: #000000; stroke-width: 0.8"/>
      </g>
     </g>
     <g id="text_8">
      <!-- −5.0 -->
      <g transform="translate(17.1475 208.515345)scale(0.16 -0.16)">
       <use xlink:href="#DejaVuSans-2212"/>
       <use xlink:href="#DejaVuSans-35" x="83.789062"/>
       <use xlink:href="#DejaVuSans-2e" x="147.412109"/>
       <use xlink:href="#DejaVuSans-30" x="179.199219"/>
      </g>
     </g>
    </g>
    <g id="ytick_3">
     <g id="line2d_8">
      <g>
       <use xlink:href="#m383db54277" x="63" y="163.442834" style="stroke: #000000; stroke-width: 0.8"/>
      </g>
     </g>
     <g id="text_9">
      <!-- −2.5 -->
      <g transform="translate(17.1475 169.521584)scale(0.16 -0.16)">
       <use xlink:href="#DejaVuSans-2212"/>
       <use xlink:href="#DejaVuSans-32" x="83.789062"/>
       <use xlink:href="#DejaVuSans-2e" x="147.412109"/>
       <use xlink:href="#DejaVuSans-35" x="179.199219"/>
      </g>
     </g>
    </g>
    <g id="ytick_4">
     <g id="line2d_9">
      <g>
       <use xlink:href="#m383db54277" x="63" y="124.449073" style="stroke: #000000; stroke-width: 0.8"/>
      </g>
     </g>
     <g id="text_10">
      <!-- 0.0 -->
      <g transform="translate(30.555 130.527823)scale(0.16 -0.16)">
       <use xlink:href="#DejaVuSans-30"/>
       <use xlink:href="#DejaVuSans-2e" x="63.623047"/>
       <use xlink:href="#DejaVuSans-30" x="95.410156"/>
      </g>
     </g>
    </g>
    <g id="ytick_5">
     <g id="line2d_10">
      <g>
       <use xlink:href="#m383db54277" x="63" y="85.455311" style="stroke: #000000; stroke-width: 0.8"/>
      </g>
     </g>
     <g id="text_11">
      <!-- 2.5 -->
      <g transform="translate(30.555 91.534061)scale(0.16 -0.16)">
       <use xlink:href="#DejaVuSans-32"/>
       <use xlink:href="#DejaVuSans-2e" x="63.623047"/>
       <use xlink:href="#DejaVuSans-35" x="95.410156"/>
      </g>
     </g>
    </g>
    <g id="ytick_6">
     <g id="line2d_11">
      <g>
       <use xlink:href="#m383db54277" x="63" y="46.46155" style="stroke: #000000; stroke-width: 0.8"/>
      </g>
     </g>
     <g id="text_12">
      <!-- 5.0 -->
      <g transform="translate(30.555 52.5403)scale(0.16 -0.16)">
       <use xlink:href="#DejaVuSans-35"/>
       <use xlink:href="#DejaVuSans-2e" x="63.623047"/>
       <use xlink:href="#DejaVuSans-30" x="95.410156"/>
      </g>
     </g>
    </g>
    <g id="text_13">
     <!-- Amplitude (uV) -->
     <g transform="translate(9.404062 213.304219)rotate(-90)scale(0.18 -0.18)">
      <defs>
       <path id="DejaVuSans-41" d="M 2188 4044 
L 1331 1722 
L 3047 1722 
L 2188 4044 
z
M 1831 4666 
L 2547 4666 
L 4325 0 
L 3669 0 
L 3244 1197 
L 1141 1197 
L 716 0 
L 50 0 
L 1831 4666 
z
" transform="scale(0.015625)"/>
       <path id="DejaVuSans-70" d="M 1159 525 
L 1159 -1331 
L 581 -1331 
L 581 3500 
L 1159 3500 
L 1159 2969 
Q 1341 3281 1617 3432 
Q 1894 3584 2278 3584 
Q 2916 3584 3314 3078 
Q 3713 2572 3713 1747 
Q 3713 922 3314 415 
Q 2916 -91 2278 -91 
Q 1894 -91 1617 61 
Q 1341 213 1159 525 
z
M 3116 1747 
Q 3116 2381 2855 2742 
Q 2594 3103 2138 3103 
Q 1681 3103 1420 2742 
Q 1159 2381 1159 1747 
Q 1159 1113 1420 752 
Q 1681 391 2138 391 
Q 2594 391 2855 752 
Q 3116 1113 3116 1747 
z
" transform="scale(0.015625)"/>
       <path id="DejaVuSans-6c" d="M 603 4863 
L 1178 4863 
L 1178 0 
L 603 0 
L 603 4863 
z
" transform="scale(0.015625)"/>
       <path id="DejaVuSans-75" d="M 544 1381 
L 544 3500 
L 1119 3500 
L 1119 1403 
Q 1119 906 1312 657 
Q 1506 409 1894 409 
Q 2359 409 2629 706 
Q 2900 1003 2900 1516 
L 2900 3500 
L 3475 3500 
L 3475 0 
L 2900 0 
L 2900 538 
Q 2691 219 2414 64 
Q 2138 -91 1772 -91 
Q 1169 -91 856 284 
Q 544 659 544 1381 
z
M 1991 3584 
L 1991 3584 
z
" transform="scale(0.015625)"/>
       <path id="DejaVuSans-64" d="M 2906 2969 
L 2906 4863 
L 3481 4863 
L 3481 0 
L 2906 0 
L 2906 525 
Q 2725 213 2448 61 
Q 2172 -91 1784 -91 
Q 1150 -91 751 415 
Q 353 922 353 1747 
Q 353 2572 751 3078 
Q 1150 3584 1784 3584 
Q 2172 3584 2448 3432 
Q 2725 3281 2906 2969 
z
M 947 1747 
Q 947 1113 1208 752 
Q 1469 391 1925 391 
Q 2381 391 2643 752 
Q 2906 1113 2906 1747 
Q 2906 2381 2643 2742 
Q 2381 3103 1925 3103 
Q 1469 3103 1208 2742 
Q 947 2381 947 1747 
z
" transform="scale(0.015625)"/>
       <path id="DejaVuSans-56" d="M 1831 0 
L 50 4666 
L 709 4666 
L 2188 738 
L 3669 4666 
L 4325 4666 
L 2547 0 
L 1831 0 
z
" transform="scale(0.015625)"/>
      </defs>
      <use xlink:href="#DejaVuSans-41"/>
      <use xlink:href="#DejaVuSans-6d" x="68.408203"/>
      <use xlink:href="#DejaVuSans-70" x="165.820312"/>
      <use xlink:href="#DejaVuSans-6c" x="229.296875"/>
      <use xlink:href="#DejaVuSans-69" x="257.080078"/>
      <use xlink:href="#DejaVuSans-74" x="284.863281"/>
      <use xlink:href="#DejaVuSans-75" x="324.072266"/>
      <use xlink:href="#DejaVuSans-64" x="387.451172"/>
      <use xlink:href="#DejaVuSans-65" x="450.927734"/>
      <use xlink:href="#DejaVuSans-20" x="512.451172"/>
      <use xlink:href="#DejaVuSans-28" x="544.238281"/>
      <use xlink:href="#DejaVuSans-75" x="583.251953"/>
      <use xlink:href="#DejaVuSans-56" x="646.630859"/>
      <use xlink:href="#DejaVuSans-29" x="715.039062"/>
     </g>
    </g>
   </g>
   <g id="line2d_12">
    <path d="M 63 124.449073 
L 453.6 124.449073 
" clip-path="url(#pa0dfb184d6)" style="fill: none; stroke: #000000; stroke-width: 0.5; stroke-linecap: square"/>
   </g>
   <g id="line2d_13">
    <path d="M 187.559233 256.32 
L 187.559233 34.56 
" clip-path="url(#pa0dfb184d6)" style="fill: none; stroke-dasharray: 1.85,0.8; stroke-dashoffset: 0; stroke: #000000; stroke-width: 0.5"/>
   </g>
   <g id="line2d_14">
    <path d="M 80.754545 114.281513 
L 82.141619 121.185872 
L 83.528693 122.989956 
L 84.915767 120.603884 
L 86.302841 117.131239 
L 87.689915 115.751657 
L 89.076989 117.653469 
L 90.464062 121.436759 
L 91.851136 124.333378 
L 93.23821 124.244694 
L 94.625284 121.044846 
L 97.399432 111.806649 
L 98.786506 108.5063 
L 100.17358 106.314182 
L 101.560653 105.007499 
L 102.947727 104.837959 
L 104.334801 106.174788 
L 105.721875 108.545997 
L 107.108949 110.255426 
L 108.496023 109.320901 
L 109.883097 105.157213 
L 111.27017 99.503426 
L 112.657244 95.559009 
L 114.044318 95.829563 
L 115.431392 100.396708 
L 116.818466 107.051404 
L 118.20554 113.155445 
L 119.592614 117.624331 
L 120.979687 121.375282 
L 122.366761 125.975779 
L 125.140909 137.239143 
L 126.527983 139.812541 
L 127.915057 137.767107 
L 129.302131 131.185687 
L 130.689205 121.618638 
L 133.463352 100.480613 
L 134.850426 91.355476 
L 136.2375 84.938771 
L 137.624574 82.996974 
L 139.011648 86.719547 
L 140.398722 95.462054 
L 141.785795 106.461754 
L 143.172869 116.138864 
L 144.559943 122.193936 
L 145.947017 124.839975 
L 147.334091 126.082714 
L 150.108239 129.245721 
L 151.495312 129.236552 
L 152.882386 126.494014 
L 154.26946 122.336229 
L 155.656534 120.037076 
L 157.043608 122.143112 
L 158.430682 127.811567 
L 159.817756 132.708254 
L 161.20483 131.931948 
L 162.591903 123.738353 
L 165.366051 99.08673 
L 166.753125 92.217581 
L 168.140199 90.908598 
L 169.527273 92.752793 
L 170.914347 95.128432 
L 172.30142 97.234916 
L 173.688494 99.749916 
L 175.075568 102.908364 
L 176.462642 105.303176 
L 177.849716 104.825303 
L 179.23679 100.87614 
L 180.623864 95.590669 
L 182.010937 92.648514 
L 183.398011 94.486967 
L 186.172159 106.288461 
L 187.559233 108.840257 
L 188.946307 106.958653 
L 190.333381 103.376594 
L 191.720455 102.740891 
L 193.107528 108.422397 
L 194.494602 120.075391 
L 195.881676 133.590488 
L 197.26875 143.524645 
L 198.655824 146.463296 
L 200.042898 143.075179 
L 201.429972 137.395969 
L 202.817045 133.77098 
L 204.204119 133.654349 
L 205.591193 134.696601 
L 206.978267 132.860579 
L 208.365341 125.893647 
L 211.139489 105.595146 
L 212.526563 100.676658 
L 213.913636 101.812635 
L 215.30071 107.268885 
L 218.074858 120.996158 
L 219.461932 126.575902 
L 220.849006 130.283238 
L 222.23608 130.814256 
L 223.623153 127.181055 
L 226.397301 113.115325 
L 227.784375 109.577877 
L 229.171449 111.668728 
L 230.558523 118.385065 
L 231.945597 126.526596 
L 233.33267 132.810879 
L 234.719744 135.558584 
L 236.106818 135.013068 
L 238.880966 130.562139 
L 240.26804 130.526523 
L 241.655114 133.626275 
L 244.429261 145.513796 
L 245.816335 149.641245 
L 247.203409 150.813112 
L 248.590483 150.645745 
L 249.977557 151.933271 
L 251.364631 155.873992 
L 252.751705 160.372872 
L 254.138778 161.280911 
L 255.525852 155.782968 
L 256.912926 144.971177 
L 258.3 133.196033 
L 259.687074 124.710313 
L 261.074148 120.633593 
L 262.461222 118.899438 
L 263.848295 116.956109 
L 265.235369 114.428583 
L 266.622443 113.20198 
L 268.009517 115.091288 
L 270.783665 124.289285 
L 272.170739 126.687566 
L 273.557813 126.708433 
L 274.944886 126.248236 
L 276.33196 127.126789 
L 277.719034 129.300728 
L 279.106108 131.120827 
L 280.493182 131.221967 
L 281.880256 130.056421 
L 283.26733 129.571036 
L 284.654403 131.42353 
L 287.428551 139.853845 
L 288.815625 142.445394 
L 290.202699 142.389311 
L 291.589773 140.634691 
L 292.976847 139.399591 
L 294.36392 141.141912 
L 295.750994 147.556451 
L 297.138068 158.814142 
L 299.912216 187.87403 
L 301.29929 199.668472 
L 302.686364 207.132351 
L 304.073438 210.775764 
L 305.460511 212.122282 
L 306.847585 212.016541 
L 308.234659 209.87685 
L 309.621733 204.763547 
L 312.395881 190.437879 
L 313.782955 187.694772 
L 315.170028 190.306384 
L 316.557102 195.630628 
L 317.944176 198.776824 
L 319.33125 196.424349 
L 322.105398 183.461964 
L 323.492472 182.38625 
L 324.879545 186.898987 
L 326.266619 192.468404 
L 327.653693 192.878802 
L 329.040767 184.907882 
L 331.814915 156.001931 
L 333.201989 146.057771 
L 334.589063 142.14557 
L 335.976136 141.562585 
L 337.36321 140.388943 
L 338.750284 136.529758 
L 342.911506 119.121824 
L 344.29858 113.580442 
L 345.685653 106.44317 
L 348.459801 87.916436 
L 349.846875 80.19849 
L 351.233949 75.47751 
L 352.621023 73.230656 
L 355.39517 70.627934 
L 356.782244 69.639376 
L 358.169318 70.190931 
L 359.556392 73.079589 
L 360.943466 77.865238 
L 362.33054 83.144849 
L 363.717614 87.545163 
L 365.104688 90.532147 
L 369.265909 96.61012 
L 372.040057 103.095651 
L 373.427131 105.303652 
L 374.814205 104.550597 
L 376.201278 99.767459 
L 378.975426 83.910011 
L 380.3625 79.654449 
L 381.749574 81.056971 
L 383.136648 86.821522 
L 384.523722 93.282013 
L 385.910795 97.130086 
L 387.297869 97.741538 
L 388.684943 97.093798 
L 390.072017 97.413139 
L 391.459091 98.811311 
L 392.846165 99.205171 
L 394.233239 96.631209 
L 395.620313 91.711901 
L 397.007386 87.790707 
L 398.39446 88.416208 
L 399.781534 94.385247 
L 401.168608 103.036621 
L 402.555682 110.46013 
L 403.942756 114.665056 
L 405.32983 116.962116 
L 406.716903 120.495318 
L 408.103977 127.365942 
L 410.878125 146.004258 
L 412.265199 151.936367 
L 413.652273 153.640105 
L 415.039347 152.218077 
L 416.42642 149.652699 
L 417.813494 147.415647 
L 419.200568 145.952628 
L 420.587642 145.128078 
L 421.974716 144.977454 
L 423.36179 146.072932 
L 424.748864 149.240523 
L 426.135938 154.825452 
L 427.523011 161.971714 
L 428.910085 168.45485 
L 430.297159 171.431653 
L 431.684233 168.953102 
L 433.071307 161.398465 
L 434.458381 151.68576 
L 435.845455 143.710098 
L 435.845455 143.710098 
" clip-path="url(#pa0dfb184d6)" style="fill: none; stroke: #1f77b4; stroke-width: 1.5; stroke-linecap: square"/>
   </g>
   <g id="line2d_15">
    <path d="M 80.754545 116.083617 
L 82.141619 112.641226 
L 83.528693 109.554003 
L 84.915767 108.052845 
L 86.302841 107.898035 
L 87.689915 107.880883 
L 89.076989 107.007378 
L 90.464062 105.432294 
L 91.851136 104.375291 
L 93.23821 105.025351 
L 96.012358 109.390674 
L 97.399432 108.977762 
L 98.786506 104.766101 
L 101.560653 90.979407 
L 102.947727 87.479319 
L 104.334801 88.51162 
L 107.108949 96.614624 
L 108.496023 97.812586 
L 109.883097 95.750045 
L 111.27017 92.444245 
L 112.657244 90.893127 
L 114.044318 92.947291 
L 115.431392 98.033355 
L 116.818466 103.58736 
L 118.20554 106.843163 
L 119.592614 106.685304 
L 122.366761 102.037672 
L 123.753835 101.883131 
L 125.140909 103.867801 
L 126.527983 106.368815 
L 127.915057 107.496798 
L 129.302131 106.644909 
L 130.689205 104.973014 
L 132.076278 104.488061 
L 133.463352 106.481705 
L 136.2375 114.93151 
L 137.624574 117.716914 
L 139.011648 118.03284 
L 140.398722 116.224369 
L 141.785795 113.213706 
L 144.559943 106.66951 
L 145.947017 104.727794 
L 147.334091 105.369978 
L 148.721165 109.700499 
L 150.108239 117.348661 
L 151.495312 125.94844 
L 152.882386 132.124139 
L 154.26946 133.546054 
L 155.656534 130.529513 
L 157.043608 125.827641 
L 158.430682 122.691423 
L 159.817756 122.719771 
L 161.20483 125.170302 
L 162.591903 128.08636 
L 163.978977 130.025858 
L 165.366051 130.807637 
L 166.753125 130.821982 
L 168.140199 129.929434 
L 169.527273 127.318517 
L 170.914347 122.579133 
L 172.30142 116.834437 
L 173.688494 112.549242 
L 175.075568 111.89449 
L 176.462642 115.057012 
L 177.849716 120.088724 
L 179.23679 124.503182 
L 180.623864 127.170852 
L 183.398011 130.541862 
L 184.785085 132.520966 
L 186.172159 133.35639 
L 187.559233 131.669407 
L 190.333381 123.667804 
L 191.720455 121.675922 
L 193.107528 122.103874 
L 194.494602 123.007383 
L 195.881676 121.853037 
L 197.26875 117.811336 
L 198.655824 112.576632 
L 200.042898 109.002244 
L 201.429972 108.837819 
L 202.817045 111.604881 
L 206.978267 122.934392 
L 208.365341 127.678351 
L 209.752415 133.443352 
L 211.139489 138.523165 
L 212.526563 140.431301 
L 213.913636 137.820651 
L 215.30071 131.679732 
L 216.687784 124.763672 
L 218.074858 119.756732 
L 219.461932 117.670562 
L 220.849006 117.642656 
L 222.23608 118.057685 
L 223.623153 117.924392 
L 225.010227 117.460156 
L 226.397301 117.648458 
L 227.784375 119.331376 
L 229.171449 122.585185 
L 231.945597 130.939996 
L 236.106818 142.363641 
L 237.493892 147.390763 
L 238.880966 152.962234 
L 240.26804 157.783161 
L 241.655114 160.458007 
L 243.042188 160.604392 
L 244.429261 159.354909 
L 245.816335 158.644138 
L 247.203409 159.692218 
L 248.590483 161.931686 
L 249.977557 163.404404 
L 251.364631 162.411359 
L 252.751705 159.006608 
L 254.138778 154.962413 
L 255.525852 152.181513 
L 258.3 149.8774 
L 259.687074 146.98869 
L 261.074148 141.898086 
L 262.461222 136.091523 
L 263.848295 131.685283 
L 265.235369 129.633391 
L 268.009517 128.420298 
L 270.783665 125.284944 
L 272.170739 125.192182 
L 273.557813 127.41658 
L 276.33196 134.935225 
L 277.719034 137.054107 
L 279.106108 137.2949 
L 281.880256 135.616262 
L 283.26733 135.534743 
L 284.654403 136.233571 
L 286.041477 137.18909 
L 287.428551 137.609734 
L 288.815625 136.76522 
L 290.202699 134.336616 
L 292.976847 126.936959 
L 294.36392 124.494201 
L 295.750994 124.575093 
L 297.138068 127.622644 
L 298.525142 133.092588 
L 299.912216 139.573659 
L 301.29929 145.201493 
L 302.686364 148.303939 
L 304.073438 148.120095 
L 305.460511 145.230978 
L 306.847585 141.302324 
L 308.234659 138.131701 
L 309.621733 136.612876 
L 311.008807 136.455056 
L 312.395881 136.91897 
L 313.782955 137.860033 
L 315.170028 139.973141 
L 316.557102 143.865826 
L 317.944176 148.852721 
L 319.33125 152.866843 
L 320.718324 153.936632 
L 322.105398 152.061349 
L 323.492472 149.649403 
L 324.879545 149.806287 
L 326.266619 153.759033 
L 327.653693 159.67855 
L 329.040767 164.066259 
L 330.427841 164.62339 
L 331.814915 162.184549 
L 333.201989 160.110718 
L 334.589063 161.730379 
L 335.976136 167.980714 
L 338.750284 185.754041 
L 340.137358 191.877299 
L 341.524432 194.805988 
L 342.911506 195.378703 
L 344.29858 194.958046 
L 345.685653 194.722866 
L 347.072727 195.289864 
L 348.459801 196.448541 
L 349.846875 197.037266 
L 351.233949 195.32195 
L 352.621023 190.021307 
L 354.008097 181.436401 
L 355.39517 171.751957 
L 356.782244 164.052502 
L 358.169318 160.613843 
L 359.556392 161.65378 
L 362.33054 169.086266 
L 363.717614 170.67501 
L 365.104688 169.368895 
L 366.491761 165.831769 
L 367.878835 161.674741 
L 369.265909 158.692782 
L 370.652983 157.970337 
L 373.427131 160.242854 
L 374.814205 158.768825 
L 376.201278 153.225951 
L 378.975426 135.480653 
L 380.3625 129.52766 
L 381.749574 127.91695 
L 383.136648 128.999468 
L 384.523722 129.275471 
L 385.910795 125.840801 
L 387.297869 118.39137 
L 388.684943 109.355549 
L 390.072017 102.156206 
L 391.459091 98.961592 
L 392.846165 99.541103 
L 394.233239 101.892602 
L 395.620313 103.964211 
L 398.39446 106.076248 
L 399.781534 108.186598 
L 401.168608 111.756546 
L 402.555682 115.804204 
L 403.942756 118.782656 
L 405.32983 119.854274 
L 406.716903 119.597873 
L 408.103977 119.557784 
L 409.491051 121.009655 
L 412.265199 127.063145 
L 413.652273 128.67448 
L 415.039347 127.785576 
L 416.42642 124.561548 
L 419.200568 115.720114 
L 420.587642 112.911063 
L 421.974716 112.773739 
L 423.36179 115.858809 
L 424.748864 121.695842 
L 426.135938 128.697788 
L 427.523011 134.84151 
L 428.910085 138.879462 
L 430.297159 141.128088 
L 431.684233 143.002006 
L 434.458381 148.161783 
L 435.845455 149.080702 
L 435.845455 149.080702 
" clip-path="url(#pa0dfb184d6)" style="fill: none; stroke: #ff7f0e; stroke-width: 1.5; stroke-linecap: square"/>
   </g>
   <g id="patch_3">
    <path d="M 63 256.32 
L 63 34.56 
" style="fill: none; stroke: #000000; stroke-width: 0.8; stroke-linejoin: miter; stroke-linecap: square"/>
   </g>
   <g id="patch_4">
    <path d="M 453.6 256.32 
L 453.6 34.56 
" style="fill: none; stroke: #000000; stroke-width: 0.8; stroke-linejoin: miter; stroke-linecap: square"/>
   </g>
   <g id="patch_5">
    <path d="M 63 256.32 
L 453.6 256.32 
" style="fill: none; stroke: #000000; stroke-width: 0.8; stroke-linejoin: miter; stroke-linecap: square"/>
   </g>
   <g id="patch_6">
    <path d="M 63 34.56 
L 453.6 34.56 
" style="fill: none; stroke: #000000; stroke-width: 0.8; stroke-linejoin: miter; stroke-linecap: square"/>
   </g>
   <g id="text_14">
    <!-- ERP - Audio trial 1, participant 04  -->
    <g transform="translate(65.4125 28.56)scale(0.2 -0.2)">
     <defs>
      <path id="DejaVuSans-Bold-45" d="M 588 4666 
L 3834 4666 
L 3834 3756 
L 1791 3756 
L 1791 2888 
L 3713 2888 
L 3713 1978 
L 1791 1978 
L 1791 909 
L 3903 909 
L 3903 0 
L 588 0 
L 588 4666 
z
" transform="scale(0.015625)"/>
      <path id="DejaVuSans-Bold-52" d="M 2297 2597 
Q 2675 2597 2839 2737 
Q 3003 2878 3003 3200 
Q 3003 3519 2839 3656 
Q 2675 3794 2297 3794 
L 1791 3794 
L 1791 2597 
L 2297 2597 
z
M 1791 1766 
L 1791 0 
L 588 0 
L 588 4666 
L 2425 4666 
Q 3347 4666 3776 4356 
Q 4206 4047 4206 3378 
Q 4206 2916 3982 2619 
Q 3759 2322 3309 2181 
Q 3556 2125 3751 1926 
Q 3947 1728 4147 1325 
L 4800 0 
L 3519 0 
L 2950 1159 
Q 2778 1509 2601 1637 
Q 2425 1766 2131 1766 
L 1791 1766 
z
" transform="scale(0.015625)"/>
      <path id="DejaVuSans-Bold-50" d="M 588 4666 
L 2584 4666 
Q 3475 4666 3951 4270 
Q 4428 3875 4428 3144 
Q 4428 2409 3951 2014 
Q 3475 1619 2584 1619 
L 1791 1619 
L 1791 0 
L 588 0 
L 588 4666 
z
M 1791 3794 
L 1791 2491 
L 2456 2491 
Q 2806 2491 2997 2661 
Q 3188 2831 3188 3144 
Q 3188 3456 2997 3625 
Q 2806 3794 2456 3794 
L 1791 3794 
z
" transform="scale(0.015625)"/>
      <path id="DejaVuSans-Bold-20" transform="scale(0.015625)"/>
      <path id="DejaVuSans-Bold-2d" d="M 347 2297 
L 2309 2297 
L 2309 1388 
L 347 1388 
L 347 2297 
z
" transform="scale(0.015625)"/>
      <path id="DejaVuSans-Bold-41" d="M 3419 850 
L 1538 850 
L 1241 0 
L 31 0 
L 1759 4666 
L 3194 4666 
L 4922 0 
L 3713 0 
L 3419 850 
z
M 1838 1716 
L 3116 1716 
L 2478 3572 
L 1838 1716 
z
" transform="scale(0.015625)"/>
      <path id="DejaVuSans-Bold-75" d="M 500 1363 
L 500 3500 
L 1625 3500 
L 1625 3150 
Q 1625 2866 1622 2436 
Q 1619 2006 1619 1863 
Q 1619 1441 1641 1255 
Q 1663 1069 1716 984 
Q 1784 875 1895 815 
Q 2006 756 2150 756 
Q 2500 756 2700 1025 
Q 2900 1294 2900 1772 
L 2900 3500 
L 4019 3500 
L 4019 0 
L 2900 0 
L 2900 506 
Q 2647 200 2364 54 
Q 2081 -91 1741 -91 
Q 1134 -91 817 281 
Q 500 653 500 1363 
z
" transform="scale(0.015625)"/>
      <path id="DejaVuSans-Bold-64" d="M 2919 2988 
L 2919 4863 
L 4044 4863 
L 4044 0 
L 2919 0 
L 2919 506 
Q 2688 197 2409 53 
Q 2131 -91 1766 -91 
Q 1119 -91 703 423 
Q 288 938 288 1747 
Q 288 2556 703 3070 
Q 1119 3584 1766 3584 
Q 2128 3584 2408 3439 
Q 2688 3294 2919 2988 
z
M 2181 722 
Q 2541 722 2730 984 
Q 2919 1247 2919 1747 
Q 2919 2247 2730 2509 
Q 2541 2772 2181 2772 
Q 1825 2772 1636 2509 
Q 1447 2247 1447 1747 
Q 1447 1247 1636 984 
Q 1825 722 2181 722 
z
" transform="scale(0.015625)"/>
      <path id="DejaVuSans-Bold-69" d="M 538 3500 
L 1656 3500 
L 1656 0 
L 538 0 
L 538 3500 
z
M 538 4863 
L 1656 4863 
L 1656 3950 
L 538 3950 
L 538 4863 
z
" transform="scale(0.015625)"/>
      <path id="DejaVuSans-Bold-6f" d="M 2203 2784 
Q 1831 2784 1636 2517 
Q 1441 2250 1441 1747 
Q 1441 1244 1636 976 
Q 1831 709 2203 709 
Q 2569 709 2762 976 
Q 2956 1244 2956 1747 
Q 2956 2250 2762 2517 
Q 2569 2784 2203 2784 
z
M 2203 3584 
Q 3106 3584 3614 3096 
Q 4122 2609 4122 1747 
Q 4122 884 3614 396 
Q 3106 -91 2203 -91 
Q 1297 -91 786 396 
Q 275 884 275 1747 
Q 275 2609 786 3096 
Q 1297 3584 2203 3584 
z
" transform="scale(0.015625)"/>
      <path id="DejaVuSans-Bold-74" d="M 1759 4494 
L 1759 3500 
L 2913 3500 
L 2913 2700 
L 1759 2700 
L 1759 1216 
Q 1759 972 1856 886 
Q 1953 800 2241 800 
L 2816 800 
L 2816 0 
L 1856 0 
Q 1194 0 917 276 
Q 641 553 641 1216 
L 641 2700 
L 84 2700 
L 84 3500 
L 641 3500 
L 641 4494 
L 1759 4494 
z
" transform="scale(0.015625)"/>
      <path id="DejaVuSans-Bold-72" d="M 3138 2547 
Q 2991 2616 2845 2648 
Q 2700 2681 2553 2681 
Q 2122 2681 1889 2404 
Q 1656 2128 1656 1613 
L 1656 0 
L 538 0 
L 538 3500 
L 1656 3500 
L 1656 2925 
Q 1872 3269 2151 3426 
Q 2431 3584 2822 3584 
Q 2878 3584 2943 3579 
Q 3009 3575 3134 3559 
L 3138 2547 
z
" transform="scale(0.015625)"/>
      <path id="DejaVuSans-Bold-61" d="M 2106 1575 
Q 1756 1575 1579 1456 
Q 1403 1338 1403 1106 
Q 1403 894 1545 773 
Q 1688 653 1941 653 
Q 2256 653 2472 879 
Q 2688 1106 2688 1447 
L 2688 1575 
L 2106 1575 
z
M 3816 1997 
L 3816 0 
L 2688 0 
L 2688 519 
Q 2463 200 2181 54 
Q 1900 -91 1497 -91 
Q 953 -91 614 226 
Q 275 544 275 1050 
Q 275 1666 698 1953 
Q 1122 2241 2028 2241 
L 2688 2241 
L 2688 2328 
Q 2688 2594 2478 2717 
Q 2269 2841 1825 2841 
Q 1466 2841 1156 2769 
Q 847 2697 581 2553 
L 581 3406 
Q 941 3494 1303 3539 
Q 1666 3584 2028 3584 
Q 2975 3584 3395 3211 
Q 3816 2838 3816 1997 
z
" transform="scale(0.015625)"/>
      <path id="DejaVuSans-Bold-6c" d="M 538 4863 
L 1656 4863 
L 1656 0 
L 538 0 
L 538 4863 
z
" transform="scale(0.015625)"/>
      <path id="DejaVuSans-Bold-31" d="M 750 831 
L 1813 831 
L 1813 3847 
L 722 3622 
L 722 4441 
L 1806 4666 
L 2950 4666 
L 2950 831 
L 4013 831 
L 4013 0 
L 750 0 
L 750 831 
z
" transform="scale(0.015625)"/>
      <path id="DejaVuSans-Bold-2c" d="M 653 1209 
L 1778 1209 
L 1778 256 
L 1006 -909 
L 341 -909 
L 653 256 
L 653 1209 
z
" transform="scale(0.015625)"/>
      <path id="DejaVuSans-Bold-70" d="M 1656 506 
L 1656 -1331 
L 538 -1331 
L 538 3500 
L 1656 3500 
L 1656 2988 
Q 1888 3294 2169 3439 
Q 2450 3584 2816 3584 
Q 3463 3584 3878 3070 
Q 4294 2556 4294 1747 
Q 4294 938 3878 423 
Q 3463 -91 2816 -91 
Q 2450 -91 2169 54 
Q 1888 200 1656 506 
z
M 2400 2772 
Q 2041 2772 1848 2508 
Q 1656 2244 1656 1747 
Q 1656 1250 1848 986 
Q 2041 722 2400 722 
Q 2759 722 2948 984 
Q 3138 1247 3138 1747 
Q 3138 2247 2948 2509 
Q 2759 2772 2400 2772 
z
" transform="scale(0.015625)"/>
      <path id="DejaVuSans-Bold-63" d="M 3366 3391 
L 3366 2478 
Q 3138 2634 2908 2709 
Q 2678 2784 2431 2784 
Q 1963 2784 1702 2511 
Q 1441 2238 1441 1747 
Q 1441 1256 1702 982 
Q 1963 709 2431 709 
Q 2694 709 2930 787 
Q 3166 866 3366 1019 
L 3366 103 
Q 3103 6 2833 -42 
Q 2563 -91 2291 -91 
Q 1344 -91 809 395 
Q 275 881 275 1747 
Q 275 2613 809 3098 
Q 1344 3584 2291 3584 
Q 2566 3584 2833 3536 
Q 3100 3488 3366 3391 
z
" transform="scale(0.015625)"/>
      <path id="DejaVuSans-Bold-6e" d="M 4056 2131 
L 4056 0 
L 2931 0 
L 2931 347 
L 2931 1631 
Q 2931 2084 2911 2256 
Q 2891 2428 2841 2509 
Q 2775 2619 2662 2680 
Q 2550 2741 2406 2741 
Q 2056 2741 1856 2470 
Q 1656 2200 1656 1722 
L 1656 0 
L 538 0 
L 538 3500 
L 1656 3500 
L 1656 2988 
Q 1909 3294 2193 3439 
Q 2478 3584 2822 3584 
Q 3428 3584 3742 3212 
Q 4056 2841 4056 2131 
z
" transform="scale(0.015625)"/>
      <path id="DejaVuSans-Bold-30" d="M 2944 2338 
Q 2944 3213 2780 3570 
Q 2616 3928 2228 3928 
Q 1841 3928 1675 3570 
Q 1509 3213 1509 2338 
Q 1509 1453 1675 1090 
Q 1841 728 2228 728 
Q 2613 728 2778 1090 
Q 2944 1453 2944 2338 
z
M 4147 2328 
Q 4147 1169 3647 539 
Q 3147 -91 2228 -91 
Q 1306 -91 806 539 
Q 306 1169 306 2328 
Q 306 3491 806 4120 
Q 1306 4750 2228 4750 
Q 3147 4750 3647 4120 
Q 4147 3491 4147 2328 
z
" transform="scale(0.015625)"/>
      <path id="DejaVuSans-Bold-34" d="M 2356 3675 
L 1038 1722 
L 2356 1722 
L 2356 3675 
z
M 2156 4666 
L 3494 4666 
L 3494 1722 
L 4159 1722 
L 4159 850 
L 3494 850 
L 3494 0 
L 2356 0 
L 2356 850 
L 288 850 
L 288 1881 
L 2156 4666 
z
" transform="scale(0.015625)"/>
     </defs>
     <use xlink:href="#DejaVuSans-Bold-45"/>
     <use xlink:href="#DejaVuSans-Bold-52" x="68.310547"/>
     <use xlink:href="#DejaVuSans-Bold-50" x="145.3125"/>
     <use xlink:href="#DejaVuSans-Bold-20" x="218.603516"/>
     <use xlink:href="#DejaVuSans-Bold-2d" x="253.417969"/>
     <use xlink:href="#DejaVuSans-Bold-20" x="294.921875"/>
     <use xlink:href="#DejaVuSans-Bold-41" x="329.736328"/>
     <use xlink:href="#DejaVuSans-Bold-75" x="407.128906"/>
     <use xlink:href="#DejaVuSans-Bold-64" x="478.320312"/>
     <use xlink:href="#DejaVuSans-Bold-69" x="549.902344"/>
     <use xlink:href="#DejaVuSans-Bold-6f" x="584.179688"/>
     <use xlink:href="#DejaVuSans-Bold-20" x="652.880859"/>
     <use xlink:href="#DejaVuSans-Bold-74" x="687.695312"/>
     <use xlink:href="#DejaVuSans-Bold-72" x="735.498047"/>
     <use xlink:href="#DejaVuSans-Bold-69" x="784.814453"/>
     <use xlink:href="#DejaVuSans-Bold-61" x="819.091797"/>
     <use xlink:href="#DejaVuSans-Bold-6c" x="886.572266"/>
     <use xlink:href="#DejaVuSans-Bold-20" x="920.849609"/>
     <use xlink:href="#DejaVuSans-Bold-31" x="955.664062"/>
     <use xlink:href="#DejaVuSans-Bold-2c" x="1025.244141"/>
     <use xlink:href="#DejaVuSans-Bold-20" x="1063.232422"/>
     <use xlink:href="#DejaVuSans-Bold-70" x="1098.046875"/>
     <use xlink:href="#DejaVuSans-Bold-61" x="1169.628906"/>
     <use xlink:href="#DejaVuSans-Bold-72" x="1237.109375"/>
     <use xlink:href="#DejaVuSans-Bold-74" x="1286.425781"/>
     <use xlink:href="#DejaVuSans-Bold-69" x="1334.228516"/>
     <use xlink:href="#DejaVuSans-Bold-63" x="1368.505859"/>
     <use xlink:href="#DejaVuSans-Bold-69" x="1427.783203"/>
     <use xlink:href="#DejaVuSans-Bold-70" x="1462.060547"/>
     <use xlink:href="#DejaVuSans-Bold-61" x="1533.642578"/>
     <use xlink:href="#DejaVuSans-Bold-6e" x="1601.123047"/>
     <use xlink:href="#DejaVuSans-Bold-74" x="1672.314453"/>
     <use xlink:href="#DejaVuSans-Bold-20" x="1720.117188"/>
     <use xlink:href="#DejaVuSans-Bold-30" x="1754.931641"/>
     <use xlink:href="#DejaVuSans-Bold-34" x="1824.511719"/>
     <use xlink:href="#DejaVuSans-Bold-20" x="1894.091797"/>
    </g>
   </g>
   <g id="legend_1">
    <g id="patch_7">
     <path d="M 70 251.32 
L 168.203125 251.32 
Q 170.203125 251.32 170.203125 249.32 
L 170.203125 191.6075 
Q 170.203125 189.6075 168.203125 189.6075 
L 70 189.6075 
Q 68 189.6075 68 191.6075 
L 68 249.32 
Q 68 251.32 70 251.32 
z
" style="fill: #ffffff; opacity: 0.8; stroke: #cccccc; stroke-linejoin: miter"/>
    </g>
    <g id="line2d_16">
     <path d="M 72 197.705938 
L 82 197.705938 
L 92 197.705938 
" style="fill: none; stroke: #1f77b4; stroke-width: 1.5; stroke-linecap: square"/>
    </g>
    <g id="text_15">
     <!-- 'left' - Mean -->
     <g transform="translate(100 201.205938)scale(0.1 -0.1)">
      <defs>
       <path id="DejaVuSans-27" d="M 1147 4666 
L 1147 2931 
L 616 2931 
L 616 4666 
L 1147 4666 
z
" transform="scale(0.015625)"/>
       <path id="DejaVuSans-2d" d="M 313 2009 
L 1997 2009 
L 1997 1497 
L 313 1497 
L 313 2009 
z
" transform="scale(0.015625)"/>
       <path id="DejaVuSans-4d" d="M 628 4666 
L 1569 4666 
L 2759 1491 
L 3956 4666 
L 4897 4666 
L 4897 0 
L 4281 0 
L 4281 4097 
L 3078 897 
L 2444 897 
L 1241 4097 
L 1241 0 
L 628 0 
L 628 4666 
z
" transform="scale(0.015625)"/>
       <path id="DejaVuSans-61" d="M 2194 1759 
Q 1497 1759 1228 1600 
Q 959 1441 959 1056 
Q 959 750 1161 570 
Q 1363 391 1709 391 
Q 2188 391 2477 730 
Q 2766 1069 2766 1631 
L 2766 1759 
L 2194 1759 
z
M 3341 1997 
L 3341 0 
L 2766 0 
L 2766 531 
Q 2569 213 2275 61 
Q 1981 -91 1556 -91 
Q 1019 -91 701 211 
Q 384 513 384 1019 
Q 384 1609 779 1909 
Q 1175 2209 1959 2209 
L 2766 2209 
L 2766 2266 
Q 2766 2663 2505 2880 
Q 2244 3097 1772 3097 
Q 1472 3097 1187 3025 
Q 903 2953 641 2809 
L 641 3341 
Q 956 3463 1253 3523 
Q 1550 3584 1831 3584 
Q 2591 3584 2966 3190 
Q 3341 2797 3341 1997 
z
" transform="scale(0.015625)"/>
      </defs>
      <use xlink:href="#DejaVuSans-27"/>
      <use xlink:href="#DejaVuSans-6c" x="27.490234"/>
      <use xlink:href="#DejaVuSans-65" x="55.273438"/>
      <use xlink:href="#DejaVuSans-66" x="116.796875"/>
      <use xlink:href="#DejaVuSans-74" x="150.251953"/>
      <use xlink:href="#DejaVuSans-27" x="189.460938"/>
      <use xlink:href="#DejaVuSans-20" x="216.951172"/>
      <use xlink:href="#DejaVuSans-2d" x="248.738281"/>
      <use xlink:href="#DejaVuSans-20" x="284.822266"/>
      <use xlink:href="#DejaVuSans-4d" x="316.609375"/>
      <use xlink:href="#DejaVuSans-65" x="402.888672"/>
      <use xlink:href="#DejaVuSans-61" x="464.412109"/>
      <use xlink:href="#DejaVuSans-6e" x="525.691406"/>
     </g>
    </g>
    <g id="patch_8">
     <path d="M 72 215.884062 
L 92 215.884062 
L 92 208.884062 
L 72 208.884062 
z
" style="fill: #1f77b4; fill-opacity: 0.2"/>
    </g>
    <g id="text_16">
     <!-- 'left'- SEM -->
     <g transform="translate(100 215.884062)scale(0.1 -0.1)">
      <defs>
       <path id="DejaVuSans-53" d="M 3425 4513 
L 3425 3897 
Q 3066 4069 2747 4153 
Q 2428 4238 2131 4238 
Q 1616 4238 1336 4038 
Q 1056 3838 1056 3469 
Q 1056 3159 1242 3001 
Q 1428 2844 1947 2747 
L 2328 2669 
Q 3034 2534 3370 2195 
Q 3706 1856 3706 1288 
Q 3706 609 3251 259 
Q 2797 -91 1919 -91 
Q 1588 -91 1214 -16 
Q 841 59 441 206 
L 441 856 
Q 825 641 1194 531 
Q 1563 422 1919 422 
Q 2459 422 2753 634 
Q 3047 847 3047 1241 
Q 3047 1584 2836 1778 
Q 2625 1972 2144 2069 
L 1759 2144 
Q 1053 2284 737 2584 
Q 422 2884 422 3419 
Q 422 4038 858 4394 
Q 1294 4750 2059 4750 
Q 2388 4750 2728 4690 
Q 3069 4631 3425 4513 
z
" transform="scale(0.015625)"/>
       <path id="DejaVuSans-45" d="M 628 4666 
L 3578 4666 
L 3578 4134 
L 1259 4134 
L 1259 2753 
L 3481 2753 
L 3481 2222 
L 1259 2222 
L 1259 531 
L 3634 531 
L 3634 0 
L 628 0 
L 628 4666 
z
" transform="scale(0.015625)"/>
      </defs>
      <use xlink:href="#DejaVuSans-27"/>
      <use xlink:href="#DejaVuSans-6c" x="27.490234"/>
      <use xlink:href="#DejaVuSans-65" x="55.273438"/>
      <use xlink:href="#DejaVuSans-66" x="116.796875"/>
      <use xlink:href="#DejaVuSans-74" x="150.251953"/>
      <use xlink:href="#DejaVuSans-27" x="189.460938"/>
      <use xlink:href="#DejaVuSans-2d" x="216.951172"/>
      <use xlink:href="#DejaVuSans-20" x="253.035156"/>
      <use xlink:href="#DejaVuSans-53" x="284.822266"/>
      <use xlink:href="#DejaVuSans-45" x="348.298828"/>
      <use xlink:href="#DejaVuSans-4d" x="411.482422"/>
     </g>
    </g>
    <g id="line2d_17">
     <path d="M 72 227.062187 
L 82 227.062187 
L 92 227.062187 
" style="fill: none; stroke: #ff7f0e; stroke-width: 1.5; stroke-linecap: square"/>
    </g>
    <g id="text_17">
     <!-- 'right' - Mean -->
     <g transform="translate(100 230.562187)scale(0.1 -0.1)">
      <defs>
       <path id="DejaVuSans-67" d="M 2906 1791 
Q 2906 2416 2648 2759 
Q 2391 3103 1925 3103 
Q 1463 3103 1205 2759 
Q 947 2416 947 1791 
Q 947 1169 1205 825 
Q 1463 481 1925 481 
Q 2391 481 2648 825 
Q 2906 1169 2906 1791 
z
M 3481 434 
Q 3481 -459 3084 -895 
Q 2688 -1331 1869 -1331 
Q 1566 -1331 1297 -1286 
Q 1028 -1241 775 -1147 
L 775 -588 
Q 1028 -725 1275 -790 
Q 1522 -856 1778 -856 
Q 2344 -856 2625 -561 
Q 2906 -266 2906 331 
L 2906 616 
Q 2728 306 2450 153 
Q 2172 0 1784 0 
Q 1141 0 747 490 
Q 353 981 353 1791 
Q 353 2603 747 3093 
Q 1141 3584 1784 3584 
Q 2172 3584 2450 3431 
Q 2728 3278 2906 2969 
L 2906 3500 
L 3481 3500 
L 3481 434 
z
" transform="scale(0.015625)"/>
       <path id="DejaVuSans-68" d="M 3513 2113 
L 3513 0 
L 2938 0 
L 2938 2094 
Q 2938 2591 2744 2837 
Q 2550 3084 2163 3084 
Q 1697 3084 1428 2787 
Q 1159 2491 1159 1978 
L 1159 0 
L 581 0 
L 581 4863 
L 1159 4863 
L 1159 2956 
Q 1366 3272 1645 3428 
Q 1925 3584 2291 3584 
Q 2894 3584 3203 3211 
Q 3513 2838 3513 2113 
z
" transform="scale(0.015625)"/>
      </defs>
      <use xlink:href="#DejaVuSans-27"/>
      <use xlink:href="#DejaVuSans-72" x="27.490234"/>
      <use xlink:href="#DejaVuSans-69" x="68.603516"/>
      <use xlink:href="#DejaVuSans-67" x="96.386719"/>
      <use xlink:href="#DejaVuSans-68" x="159.863281"/>
      <use xlink:href="#DejaVuSans-74" x="223.242188"/>
      <use xlink:href="#DejaVuSans-27" x="262.451172"/>
      <use xlink:href="#DejaVuSans-20" x="289.941406"/>
      <use xlink:href="#DejaVuSans-2d" x="321.728516"/>
      <use xlink:href="#DejaVuSans-20" x="357.8125"/>
      <use xlink:href="#DejaVuSans-4d" x="389.599609"/>
      <use xlink:href="#DejaVuSans-65" x="475.878906"/>
      <use xlink:href="#DejaVuSans-61" x="537.402344"/>
      <use xlink:href="#DejaVuSans-6e" x="598.681641"/>
     </g>
    </g>
    <g id="patch_9">
     <path d="M 72 245.240313 
L 92 245.240313 
L 92 238.240313 
L 72 238.240313 
z
" style="fill: #ff7f0e; fill-opacity: 0.2"/>
    </g>
    <g id="text_18">
     <!-- 'right'- SEM -->
     <g transform="translate(100 245.240313)scale(0.1 -0.1)">
      <use xlink:href="#DejaVuSans-27"/>
      <use xlink:href="#DejaVuSans-72" x="27.490234"/>
      <use xlink:href="#DejaVuSans-69" x="68.603516"/>
      <use xlink:href="#DejaVuSans-67" x="96.386719"/>
      <use xlink:href="#DejaVuSans-68" x="159.863281"/>
      <use xlink:href="#DejaVuSans-74" x="223.242188"/>
      <use xlink:href="#DejaVuSans-27" x="262.451172"/>
      <use xlink:href="#DejaVuSans-2d" x="289.941406"/>
      <use xlink:href="#DejaVuSans-20" x="326.025391"/>
      <use xlink:href="#DejaVuSans-53" x="357.8125"/>
      <use xlink:href="#DejaVuSans-45" x="421.289062"/>
      <use xlink:href="#DejaVuSans-4d" x="484.472656"/>
     </g>
    </g>
   </g>
  </g>
 </g>
 <defs>
  <clipPath id="pa0dfb184d6">
   <rect x="63" y="34.56" width="390.6" height="221.76"/>
  </clipPath>
 </defs>
</svg>
