<?xml version="1.0" encoding="utf-8" standalone="no"?>
<!DOCTYPE svg PUBLIC "-//W3C//DTD SVG 1.1//EN"
  "http://www.w3.org/Graphics/SVG/1.1/DTD/svg11.dtd">
<svg xmlns:xlink="http://www.w3.org/1999/xlink" width="504pt" height="288pt" viewBox="0 0 504 288" xmlns="http://www.w3.org/2000/svg" version="1.1">
 <metadata>
  <rdf:RDF xmlns:dc="http://purl.org/dc/elements/1.1/" xmlns:cc="http://creativecommons.org/ns#" xmlns:rdf="http://www.w3.org/1999/02/22-rdf-syntax-ns#">
   <cc:Work>
    <dc:type rdf:resource="http://purl.org/dc/dcmitype/StillImage"/>
    <dc:date>2023-09-22T20:47:21.051080</dc:date>
    <dc:format>image/svg+xml</dc:format>
    <dc:creator>
     <cc:Agent>
      <dc:title>Matplotlib v3.5.3, https://matplotlib.org/</dc:title>
     </cc:Agent>
    </dc:creator>
   </cc:Work>
  </rdf:RDF>
 </metadata>
 <defs>
  <style type="text/css">*{stroke-linejoin: round; stroke-linecap: butt}</style>
 </defs>
 <g id="figure_1">
  <g id="patch_1">
   <path d="M 0 288 
L 504 288 
L 504 0 
L 0 0 
z
" style="fill: #ffffff"/>
  </g>
  <g id="axes_1">
   <g id="patch_2">
    <path d="M 63 256.32 
L 453.6 256.32 
L 453.6 34.56 
L 63 34.56 
z
" style="fill: #ffffff"/>
   </g>
   <g id="PolyCollection_1">
    <path d="M 80.754545 117.034024 
L 80.754545 139.628186 
L 82.141619 139.494471 
L 83.528693 139.559083 
L 84.915767 137.983224 
L 86.302841 134.797562 
L 87.689915 132.231519 
L 89.076989 132.611802 
L 90.464062 135.95603 
L 91.851136 139.504931 
L 93.23821 140.249431 
L 94.625284 138.158067 
L 96.012358 136.163335 
L 97.399432 137.02164 
L 98.786506 140.569955 
L 100.17358 143.719437 
L 101.560653 143.154851 
L 102.947727 138.538323 
L 104.334801 133.312689 
L 105.721875 131.880654 
L 107.108949 135.494665 
L 108.496023 140.983457 
L 109.883097 143.531776 
L 111.27017 140.695151 
L 112.657244 134.294381 
L 114.044318 128.898193 
L 115.431392 128.086815 
L 116.818466 131.777847 
L 118.20554 136.913348 
L 119.592614 140.288401 
L 120.979687 140.831669 
L 122.366761 139.87588 
L 123.753835 139.705419 
L 125.140909 141.777871 
L 126.527983 145.927317 
L 127.915057 150.717966 
L 129.302131 154.299039 
L 130.689205 155.179419 
L 132.076278 152.661772 
L 133.463352 146.971269 
L 134.850426 139.366908 
L 136.2375 132.22498 
L 137.624574 128.364794 
L 139.011648 129.432016 
L 140.398722 134.76824 
L 141.785795 141.669399 
L 143.172869 146.42445 
L 144.559943 145.941951 
L 145.947017 139.741395 
L 147.334091 130.576537 
L 148.721165 122.765742 
L 150.108239 119.683646 
L 151.495312 121.890872 
L 152.882386 126.87271 
L 154.26946 131.086443 
L 155.656534 132.86795 
L 157.043608 133.265721 
L 158.430682 134.300865 
L 159.817756 136.761789 
L 161.20483 139.341459 
L 162.591903 139.775432 
L 163.978977 137.347347 
L 165.366051 134.402514 
L 166.753125 134.743675 
L 168.140199 140.21397 
L 169.527273 148.959263 
L 170.914347 156.700395 
L 172.30142 159.782942 
L 173.688494 157.863457 
L 175.075568 153.899224 
L 176.462642 151.380739 
L 177.849716 151.708425 
L 179.23679 153.899503 
L 180.623864 156.188168 
L 182.010937 158.007931 
L 183.398011 160.290739 
L 184.785085 163.362468 
L 186.172159 165.309391 
L 187.559233 163.376211 
L 188.946307 156.736859 
L 190.333381 147.862098 
L 191.720455 141.375509 
L 193.107528 140.791722 
L 194.494602 145.359211 
L 195.881676 150.336238 
L 197.26875 151.076727 
L 198.655824 146.89355 
L 200.042898 141.248253 
L 201.429972 138.532526 
L 202.817045 140.587715 
L 204.204119 145.648636 
L 205.591193 150.079415 
L 206.978267 151.421895 
L 208.365341 150.118627 
L 209.752415 148.532875 
L 211.139489 148.316339 
L 212.526563 148.427514 
L 213.913636 146.42172 
L 215.30071 141.5404 
L 216.687784 135.619821 
L 218.074858 131.224961 
L 219.461932 129.33363 
L 220.849006 128.73579 
L 222.23608 127.398297 
L 223.623153 124.721523 
L 225.010227 122.426642 
L 226.397301 122.788673 
L 227.784375 126.185472 
L 229.171449 130.494904 
L 230.558523 132.594777 
L 231.945597 130.766642 
L 233.33267 126.497363 
L 234.719744 123.792016 
L 236.106818 125.720388 
L 237.493892 131.469821 
L 238.880966 136.821062 
L 240.26804 137.468657 
L 241.655114 132.486081 
L 243.042188 125.302627 
L 244.429261 121.165446 
L 245.816335 122.878973 
L 247.203409 128.503509 
L 248.590483 133.265736 
L 249.977557 133.837102 
L 251.364631 130.709515 
L 252.751705 126.991024 
L 254.138778 125.557615 
L 255.525852 126.850603 
L 256.912926 128.896611 
L 258.3 129.470567 
L 259.687074 128.308436 
L 261.074148 127.208066 
L 262.461222 127.908767 
L 263.848295 129.876457 
L 265.235369 130.41434 
L 266.622443 127.218548 
L 268.009517 120.759709 
L 269.396591 114.200428 
L 270.783665 111.118846 
L 272.170739 112.742182 
L 273.557813 116.949909 
L 274.944886 120.191106 
L 276.33196 120.33832 
L 277.719034 117.798546 
L 279.106108 114.731154 
L 280.493182 113.549468 
L 281.880256 115.401025 
L 283.26733 119.483313 
L 284.654403 123.756498 
L 286.041477 126.450099 
L 287.428551 127.047909 
L 288.815625 126.148872 
L 290.202699 124.933868 
L 291.589773 124.601668 
L 292.976847 125.408077 
L 294.36392 126.182935 
L 295.750994 125.36132 
L 297.138068 122.472906 
L 298.525142 118.648293 
L 299.912216 116.127338 
L 301.29929 116.772415 
L 302.686364 120.291764 
L 304.073438 124.2723 
L 305.460511 126.260298 
L 306.847585 125.625018 
L 308.234659 123.637452 
L 309.621733 122.021935 
L 311.008807 121.169344 
L 312.395881 119.848979 
L 313.782955 116.846882 
L 315.170028 112.571566 
L 316.557102 108.911081 
L 317.944176 107.680469 
L 319.33125 108.917212 
L 320.718324 110.492785 
L 322.105398 109.922603 
L 323.492472 106.929499 
L 324.879545 104.211535 
L 326.266619 105.473905 
L 327.653693 112.143277 
L 329.040767 121.658978 
L 330.427841 129.274284 
L 331.814915 131.780778 
L 333.201989 129.745493 
L 334.589063 126.5744 
L 335.976136 125.454983 
L 337.36321 126.772138 
L 338.750284 128.209208 
L 340.137358 127.431826 
L 341.524432 124.657284 
L 342.911506 122.525248 
L 344.29858 123.580396 
L 345.685653 127.827263 
L 347.072727 132.46147 
L 348.459801 134.15998 
L 349.846875 131.946712 
L 351.233949 127.52952 
L 352.621023 122.92845 
L 354.008097 118.894606 
L 355.39517 115.433319 
L 356.782244 112.760473 
L 358.169318 112.020038 
L 359.556392 114.954458 
L 360.943466 121.686604 
L 362.33054 129.103777 
L 363.717614 132.894753 
L 365.104688 131.193625 
L 366.491761 126.068391 
L 367.878835 121.918466 
L 369.265909 121.921218 
L 370.652983 125.233326 
L 372.040057 128.00173 
L 373.427131 127.268911 
L 374.814205 123.78523 
L 376.201278 121.330184 
L 377.588352 123.152899 
L 378.975426 128.781177 
L 380.3625 134.540327 
L 381.749574 136.962936 
L 383.136648 135.565559 
L 384.523722 132.866392 
L 385.910795 131.903044 
L 387.297869 133.527053 
L 388.684943 135.843527 
L 390.072017 136.123033 
L 391.459091 133.376042 
L 392.846165 129.203038 
L 394.233239 126.22515 
L 395.620313 125.780321 
L 397.007386 127.092033 
L 398.39446 128.334822 
L 399.781534 128.32974 
L 401.168608 127.349736 
L 402.555682 126.442489 
L 403.942756 126.464951 
L 405.32983 128.038707 
L 406.716903 131.551232 
L 408.103977 136.431339 
L 409.491051 141.056049 
L 410.878125 143.539285 
L 412.265199 142.317999 
L 413.652273 137.041624 
L 415.039347 129.623041 
L 416.42642 123.475202 
L 417.813494 121.182782 
L 419.200568 122.746725 
L 420.587642 125.809289 
L 421.974716 127.669227 
L 423.36179 127.595673 
L 424.748864 127.434686 
L 426.135938 129.791112 
L 427.523011 135.237898 
L 428.910085 141.196458 
L 430.297159 143.823755 
L 431.684233 140.983804 
L 433.071307 133.913202 
L 434.458381 126.545146 
L 435.845455 122.861708 
L 435.845455 106.459085 
L 435.845455 106.459085 
L 434.458381 109.659188 
L 433.071307 116.605969 
L 431.684233 123.613287 
L 430.297159 126.906344 
L 428.910085 124.984744 
L 427.523011 119.480138 
L 426.135938 113.684524 
L 424.748864 110.13357 
L 423.36179 109.11244 
L 421.974716 108.80354 
L 420.587642 107.176358 
L 419.200568 104.147079 
L 417.813494 101.992265 
L 416.42642 103.482419 
L 415.039347 109.3537 
L 413.652273 117.461448 
L 412.265199 124.167683 
L 410.878125 126.602217 
L 409.491051 124.328521 
L 408.103977 119.332475 
L 406.716903 114.006178 
L 405.32983 109.578989 
L 403.942756 106.580191 
L 402.555682 105.351247 
L 401.168608 105.610222 
L 399.781534 106.423069 
L 398.39446 106.773016 
L 397.007386 106.114114 
L 395.620313 104.818321 
L 394.233239 104.098693 
L 392.846165 104.996696 
L 391.459091 107.304998 
L 390.072017 109.57987 
L 388.684943 110.380839 
L 387.297869 109.712352 
L 385.910795 109.147177 
L 384.523722 110.178944 
L 383.136648 112.336071 
L 381.749574 113.221123 
L 380.3625 110.727355 
L 378.975426 105.323865 
L 377.588352 99.930217 
L 376.201278 97.362038 
L 374.814205 98.025789 
L 373.427131 99.788736 
L 372.040057 99.981837 
L 370.652983 98.031188 
L 369.265909 96.034549 
L 367.878835 96.596382 
L 366.491761 100.192656 
L 365.104688 104.291287 
L 363.717614 105.153938 
L 362.33054 101.152738 
L 360.943466 94.12471 
L 359.556392 87.575585 
L 358.169318 84.229937 
L 356.782244 84.718324 
L 355.39517 87.658728 
L 354.008097 91.45233 
L 352.621023 95.812136 
L 351.233949 100.702796 
L 349.846875 104.669759 
L 348.459801 105.614621 
L 347.072727 102.747737 
L 345.685653 97.462398 
L 344.29858 92.799639 
L 342.911506 91.446017 
L 341.524432 93.495022 
L 340.137358 96.388183 
L 338.750284 97.418845 
L 337.36321 96.26303 
L 335.976136 95.104201 
L 334.589063 96.310547 
L 333.201989 99.755642 
L 331.814915 102.391531 
L 330.427841 100.807172 
L 329.040767 94.435248 
L 327.653693 86.249853 
L 326.266619 80.390222 
L 324.879545 79.030768 
L 323.492472 81.023197 
L 322.105398 83.218304 
L 320.718324 83.37421 
L 319.33125 81.980608 
L 317.944176 81.415709 
L 316.557102 83.528913 
L 315.170028 87.920677 
L 313.782955 92.475309 
L 312.395881 95.632361 
L 311.008807 97.762138 
L 309.621733 100.184414 
L 308.234659 103.327903 
L 306.847585 105.991036 
L 305.460511 106.238207 
L 304.073438 103.270815 
L 302.686364 98.568161 
L 301.29929 94.920069 
L 299.912216 94.412931 
L 298.525142 97.152357 
L 297.138068 101.25218 
L 295.750994 104.159939 
L 294.36392 104.67709 
L 292.976847 103.626054 
L 291.589773 102.642118 
L 290.202699 102.831434 
L 288.815625 104.1038 
L 287.428551 105.102876 
L 286.041477 104.138058 
L 284.654403 100.635124 
L 283.26733 95.619656 
L 281.880256 91.069082 
L 280.493182 88.950104 
L 279.106108 90.16994 
L 277.719034 93.690308 
L 276.33196 96.722067 
L 274.944886 96.628061 
L 273.557813 93.258052 
L 272.170739 89.268392 
L 270.783665 88.112317 
L 269.396591 91.527245 
L 268.009517 98.144913 
L 266.622443 104.269635 
L 265.235369 106.758434 
L 263.848295 105.522497 
L 262.461222 103.201673 
L 261.074148 102.592491 
L 259.687074 104.178216 
L 258.3 105.839588 
L 256.912926 105.136769 
L 255.525852 102.073972 
L 254.138778 99.478123 
L 252.751705 100.321738 
L 251.364631 104.459559 
L 249.977557 108.193823 
L 248.590483 107.592218 
L 247.203409 102.366654 
L 245.816335 96.290996 
L 244.429261 94.134982 
L 243.042188 97.879863 
L 241.655114 104.978402 
L 240.26804 110.16508 
L 238.880966 109.685864 
L 237.493892 104.443447 
L 236.106818 99.127409 
L 234.719744 98.064575 
L 233.33267 101.713216 
L 231.945597 106.698324 
L 230.558523 108.758255 
L 229.171449 106.182536 
L 227.784375 101.234479 
L 226.397301 97.977628 
L 225.010227 98.559027 
L 223.623153 101.839892 
L 222.23608 105.254535 
L 220.849006 107.371607 
L 219.461932 108.893912 
L 218.074858 111.712896 
L 216.687784 116.809516 
L 215.30071 123.075838 
L 213.913636 128.399174 
L 212.526563 131.513713 
L 211.139489 132.651864 
L 209.752415 132.86345 
L 208.365341 133.067508 
L 206.978267 133.045627 
L 205.591193 131.462924 
L 204.204119 127.755415 
L 202.817045 123.576156 
L 201.429972 121.891397 
L 200.042898 124.220207 
L 198.655824 128.704792 
L 197.26875 131.398601 
L 195.881676 129.653052 
L 194.494602 124.422905 
L 193.107528 119.594564 
L 191.720455 119.080358 
L 190.333381 123.961745 
L 188.946307 131.530623 
L 187.559233 137.376782 
L 186.172159 138.984215 
L 184.785085 137.184369 
L 183.398011 134.321482 
L 182.010937 131.84951 
L 180.623864 129.708687 
L 179.23679 127.204359 
L 177.849716 124.524073 
L 176.462642 123.345545 
L 175.075568 125.118899 
L 173.688494 128.813031 
L 172.30142 131.097521 
L 170.914347 128.90658 
L 169.527273 122.122241 
L 168.140199 114.113153 
L 166.753125 109.189169 
L 165.366051 109.052074 
L 163.978977 111.794375 
L 162.591903 113.971097 
L 161.20483 113.402099 
L 159.817756 110.62822 
L 158.430682 107.980665 
L 157.043608 106.93342 
L 155.656534 106.440198 
L 154.26946 104.184405 
L 152.882386 99.260575 
L 151.495312 93.428858 
L 150.108239 90.15403 
L 148.721165 92.26913 
L 147.334091 99.577248 
L 145.947017 108.447576 
L 144.559943 114.168239 
L 143.172869 113.918013 
L 141.785795 108.151042 
L 140.398722 100.199904 
L 139.011648 94.31495 
L 137.624574 93.118126 
L 136.2375 96.565556 
L 134.850426 102.858036 
L 133.463352 109.653679 
L 132.076278 114.81309 
L 130.689205 117.001416 
L 129.302131 115.95701 
L 127.915057 112.345879 
L 126.527983 107.572627 
L 125.140909 103.506816 
L 123.753835 101.702025 
L 122.366761 102.304116 
L 120.979687 103.645465 
L 119.592614 103.274007 
L 118.20554 99.990964 
L 116.818466 95.313722 
L 115.431392 92.73664 
L 114.044318 94.985665 
L 112.657244 101.560049 
L 111.27017 108.692378 
L 109.883097 111.931846 
L 108.496023 109.728223 
L 107.108949 104.978402 
L 105.721875 102.6666 
L 104.334801 105.668485 
L 102.947727 112.493584 
L 101.560653 118.642095 
L 100.17358 120.402395 
L 98.786506 118.023744 
L 97.399432 115.257878 
L 96.012358 115.521642 
L 94.625284 118.577521 
L 93.23821 121.121167 
L 91.851136 120.353072 
L 90.464062 116.56092 
L 89.076989 112.75261 
L 87.689915 112.061137 
L 86.302841 114.846467 
L 84.915767 118.398992 
L 83.528693 119.784076 
L 82.141619 118.606782 
L 80.754545 117.034024 
z
" clip-path="url(#p49c88b9464)" style="fill: #1f77b4; fill-opacity: 0.2"/>
   </g>
   <g id="PolyCollection_2">
    <path d="M 80.754545 152.872684 
L 80.754545 195.967184 
L 82.141619 195.381012 
L 83.528693 193.431404 
L 84.915767 191.446875 
L 86.302841 190.081617 
L 87.689915 188.544303 
L 89.076989 185.145045 
L 90.464062 179.065243 
L 91.851136 171.632125 
L 93.23821 165.574049 
L 94.625284 162.922771 
L 96.012358 163.795801 
L 97.399432 167.482028 
L 98.786506 173.77727 
L 100.17358 182.177866 
L 101.560653 190.712747 
L 102.947727 196.576322 
L 104.334801 197.872391 
L 105.721875 195.120705 
L 107.108949 191.526751 
L 108.496023 191.513011 
L 109.883097 197.561807 
L 111.27017 207.524818 
L 112.657244 215.603175 
L 114.044318 217.110948 
L 115.431392 212.839483 
L 116.818466 208.682831 
L 118.20554 210.669459 
L 119.592614 219.641045 
L 120.979687 230.119697 
L 122.366761 234.78182 
L 123.753835 231.071184 
L 125.140909 223.831018 
L 126.527983 221.239114 
L 127.915057 227.586559 
L 129.302131 239.026801 
L 130.689205 246.24 
L 132.076278 242.338247 
L 133.463352 228.842333 
L 134.850426 214.214687 
L 136.2375 206.824298 
L 137.624574 208.579368 
L 139.011648 214.293834 
L 140.398722 217.128013 
L 141.785795 214.493324 
L 143.172869 208.88585 
L 144.559943 204.267499 
L 145.947017 201.809005 
L 147.334091 198.986204 
L 148.721165 193.172465 
L 150.108239 184.588483 
L 151.495312 175.649802 
L 152.882386 169.553919 
L 154.26946 167.441603 
L 155.656534 165.69084 
L 157.043608 159.784762 
L 158.430682 150.143997 
L 159.817756 140.122655 
L 161.20483 132.531504 
L 162.591903 129.49173 
L 163.978977 130.795525 
L 165.366051 133.809184 
L 166.753125 136.442817 
L 168.140199 137.976047 
L 169.527273 138.25682 
L 170.914347 138.011325 
L 172.30142 137.984737 
L 173.688494 137.933901 
L 175.075568 137.198001 
L 176.462642 135.087003 
L 177.849716 131.327717 
L 179.23679 127.076925 
L 180.623864 124.537254 
L 182.010937 125.48994 
L 183.398011 130.194354 
L 184.785085 136.805028 
L 186.172159 142.194476 
L 187.559233 143.962102 
L 188.946307 141.700163 
L 190.333381 136.829719 
L 191.720455 131.299534 
L 193.107528 126.128838 
L 194.494602 121.353033 
L 195.881676 116.811079 
L 197.26875 112.286823 
L 198.655824 107.483385 
L 200.042898 102.611973 
L 201.429972 98.708069 
L 202.817045 97.129828 
L 204.204119 98.71998 
L 205.591193 102.894767 
L 206.978267 107.093055 
L 208.365341 107.780292 
L 209.752415 103.189736 
L 211.139489 95.488696 
L 212.526563 89.804164 
L 213.913636 90.369981 
L 215.30071 96.927462 
L 216.687784 104.612512 
L 218.074858 107.644999 
L 219.461932 103.778756 
L 220.849006 95.835815 
L 222.23608 89.192734 
L 223.623153 87.381685 
L 225.010227 89.596299 
L 226.397301 92.281678 
L 227.784375 93.000866 
L 229.171449 92.649716 
L 230.558523 94.097581 
L 231.945597 98.940304 
L 233.33267 105.579786 
L 234.719744 110.381709 
L 236.106818 110.734979 
L 237.493892 107.043569 
L 238.880966 102.00575 
L 240.26804 98.318388 
L 241.655114 96.82581 
L 243.042188 96.393699 
L 244.429261 95.625862 
L 245.816335 94.669451 
L 247.203409 95.248876 
L 248.590483 99.115373 
L 249.977557 106.477596 
L 251.364631 115.627826 
L 252.751705 123.85629 
L 254.138778 128.83582 
L 255.525852 129.699861 
L 256.912926 127.549458 
L 258.3 124.924137 
L 259.687074 123.98387 
L 261.074148 124.935788 
L 262.461222 126.21208 
L 263.848295 125.736965 
L 265.235369 122.301358 
L 266.622443 116.473808 
L 268.009517 110.501424 
L 269.396591 106.940461 
L 270.783665 106.797358 
L 272.170739 108.891851 
L 273.557813 111.058673 
L 274.944886 111.795797 
L 276.33196 110.953997 
L 277.719034 109.587483 
L 279.106108 109.34245 
L 280.493182 111.28428 
L 281.880256 115.136256 
L 283.26733 119.724438 
L 284.654403 123.736957 
L 286.041477 125.996177 
L 287.428551 125.950068 
L 288.815625 124.491167 
L 290.202699 123.320453 
L 291.589773 123.276044 
L 292.976847 123.716661 
L 294.36392 123.284578 
L 295.750994 121.143025 
L 297.138068 117.995999 
L 298.525142 115.957501 
L 299.912216 116.755306 
L 301.29929 119.910398 
L 302.686364 123.049546 
L 304.073438 124.10344 
L 305.460511 122.977092 
L 306.847585 121.352212 
L 308.234659 121.181403 
L 309.621733 122.871308 
L 311.008807 124.854731 
L 312.395881 125.502893 
L 313.782955 124.936115 
L 315.170028 124.441684 
L 316.557102 124.75376 
L 317.944176 125.215055 
L 319.33125 124.402848 
L 320.718324 121.840438 
L 322.105398 119.258172 
L 323.492472 119.496206 
L 324.879545 123.777131 
L 326.266619 130.235896 
L 327.653693 135.412259 
L 329.040767 137.369256 
L 330.427841 137.172879 
L 331.814915 137.218401 
L 333.201989 138.638347 
L 334.589063 140.317077 
L 335.976136 139.856003 
L 337.36321 135.966547 
L 338.750284 130.17897 
L 340.137358 125.469682 
L 341.524432 123.315717 
L 342.911506 122.701152 
L 344.29858 121.522405 
L 345.685653 118.709267 
L 347.072727 115.397967 
L 348.459801 113.820487 
L 349.846875 114.960503 
L 351.233949 117.914292 
L 352.621023 121.270854 
L 354.008097 123.937686 
L 355.39517 125.200493 
L 356.782244 125.544608 
L 358.169318 125.773292 
L 359.556392 125.618711 
L 360.943466 124.201503 
L 362.33054 121.420526 
L 363.717614 117.863958 
L 365.104688 113.859669 
L 366.491761 109.648927 
L 367.878835 105.745255 
L 369.265909 102.849515 
L 370.652983 101.674173 
L 372.040057 102.801195 
L 373.427131 106.026365 
L 374.814205 109.85475 
L 376.201278 112.285668 
L 377.588352 112.069587 
L 378.975426 109.269974 
L 380.3625 105.345878 
L 381.749574 102.876903 
L 383.136648 104.094537 
L 384.523722 109.006317 
L 385.910795 115.214596 
L 387.297869 119.742269 
L 388.684943 121.164966 
L 390.072017 120.296982 
L 391.459091 119.306932 
L 392.846165 120.397377 
L 394.233239 123.993977 
L 395.620313 127.343882 
L 397.007386 126.686321 
L 398.39446 121.316776 
L 399.781534 114.594666 
L 401.168608 111.308032 
L 402.555682 114.320715 
L 403.942756 122.785967 
L 405.32983 132.399863 
L 406.716903 138.345833 
L 408.103977 139.243862 
L 409.491051 137.596513 
L 410.878125 136.713923 
L 412.265199 137.397685 
L 413.652273 137.193282 
L 415.039347 133.250616 
L 416.42642 126.125112 
L 417.813494 120.141743 
L 419.200568 119.62724 
L 420.587642 125.028043 
L 421.974716 132.523934 
L 423.36179 136.86098 
L 424.748864 135.05306 
L 426.135938 128.486373 
L 427.523011 121.967743 
L 428.910085 119.886053 
L 430.297159 122.554984 
L 431.684233 126.565025 
L 433.071307 128.298946 
L 434.458381 126.587334 
L 435.845455 122.911898 
L 435.845455 107.535072 
L 435.845455 107.535072 
L 434.458381 111.103703 
L 433.071307 113.129305 
L 431.684233 111.666918 
L 430.297159 107.903217 
L 428.910085 105.397158 
L 427.523011 106.996612 
L 426.135938 112.466212 
L 424.748864 118.246538 
L 423.36179 119.696244 
L 421.974716 115.049129 
L 420.587642 107.492706 
L 419.200568 102.697456 
L 417.813494 104.034346 
L 416.42642 110.150468 
L 415.039347 116.855932 
L 413.652273 120.725168 
L 412.265199 121.247758 
L 410.878125 120.48886 
L 409.491051 120.738963 
L 408.103977 121.914273 
L 406.716903 121.335787 
L 405.32983 116.46022 
L 403.942756 107.647556 
L 402.555682 98.624248 
L 401.168608 94.291181 
L 399.781534 96.585877 
L 398.39446 102.732655 
L 397.007386 108.060137 
L 395.620313 109.789562 
L 394.233239 108.207009 
L 392.846165 105.508568 
L 391.459091 104.176784 
L 390.072017 104.897974 
L 388.684943 105.515045 
L 387.297869 103.304226 
L 385.910795 97.840377 
L 384.523722 91.204262 
L 383.136648 86.200662 
L 381.749574 84.580535 
L 380.3625 86.303678 
L 378.975426 89.657972 
L 377.588352 92.05717 
L 376.201278 91.722285 
L 374.814205 89.043302 
L 373.427131 85.932399 
L 372.040057 84.054397 
L 370.652983 83.934877 
L 369.265909 85.228565 
L 367.878835 87.321186 
L 366.491761 90.041628 
L 365.104688 93.781627 
L 363.717614 98.460218 
L 362.33054 102.76498 
L 360.943466 105.166302 
L 359.556392 105.640166 
L 358.169318 105.438657 
L 356.782244 105.76615 
L 355.39517 106.946906 
L 354.008097 108.025068 
L 352.621023 107.148774 
L 351.233949 103.62172 
L 349.846875 99.76448 
L 348.459801 98.604066 
L 347.072727 100.833928 
L 345.685653 104.602727 
L 344.29858 107.417944 
L 342.911506 108.27141 
L 341.524432 108.565521 
L 340.137358 110.708254 
L 338.750284 115.426787 
L 337.36321 120.908127 
L 335.976136 124.479362 
L 334.589063 124.751368 
L 333.201989 122.714973 
L 331.814915 120.813161 
L 330.427841 120.248073 
L 329.040767 119.593443 
L 327.653693 116.646019 
L 326.266619 111.040685 
L 324.879545 104.861497 
L 323.492472 101.060433 
L 322.105398 101.069314 
L 320.718324 103.641937 
L 319.33125 105.99877 
L 317.944176 106.20801 
L 316.557102 104.692651 
L 315.170028 103.421704 
L 313.782955 103.504364 
L 312.395881 104.090064 
L 311.008807 103.776405 
L 309.621733 102.354413 
L 308.234659 100.942535 
L 306.847585 100.876819 
L 305.460511 102.191028 
L 304.073438 103.039989 
L 302.686364 101.43921 
L 301.29929 97.557249 
L 299.912216 93.72099 
L 298.525142 92.366156 
L 297.138068 94.08851 
L 295.750994 97.228728 
L 294.36392 99.24946 
L 292.976847 98.925359 
L 291.589773 97.370235 
L 290.202699 96.643169 
L 288.815625 97.512652 
L 287.428551 98.839206 
L 286.041477 98.629146 
L 284.654403 95.371238 
L 283.26733 89.246686 
L 281.880256 82.471682 
L 280.493182 77.690043 
L 279.106108 76.059843 
L 277.719034 76.908078 
L 276.33196 78.542329 
L 274.944886 79.112633 
L 273.557813 77.610314 
L 272.170739 74.804349 
L 270.783665 72.838675 
L 269.396591 73.643248 
L 268.009517 77.61027 
L 266.622443 83.329981 
L 265.235369 88.322093 
L 263.848295 90.541544 
L 262.461222 89.860555 
L 261.074148 88.139358 
L 259.687074 87.571984 
L 258.3 88.787786 
L 256.912926 90.522917 
L 255.525852 90.817205 
L 254.138778 88.131634 
L 252.751705 82.05928 
L 251.364631 73.741668 
L 249.977557 65.375908 
L 248.590483 58.975406 
L 247.203409 55.378474 
L 245.816335 54.121815 
L 244.429261 54.127238 
L 243.042188 54.661903 
L 241.655114 55.820928 
L 240.26804 58.202479 
L 238.880966 62.000354 
L 237.493892 66.071553 
L 236.106818 68.086258 
L 234.719744 66.301429 
L 233.33267 61.27646 
L 231.945597 55.633727 
L 230.558523 52.005113 
L 229.171449 50.911619 
L 227.784375 50.527084 
L 226.397301 48.781922 
L 225.010227 45.880223 
L 223.623153 44.64 
L 222.23608 48.09014 
L 220.849006 56.328436 
L 219.461932 65.477419 
L 218.074858 70.105777 
L 216.687784 67.525949 
L 215.30071 60.199181 
L 213.913636 53.926956 
L 212.526563 53.415398 
L 211.139489 58.979828 
L 209.752415 66.853682 
L 208.365341 72.391326 
L 206.978267 73.32262 
L 205.591193 70.757956 
L 204.204119 67.783869 
L 202.817045 67.052482 
L 201.429972 69.193304 
L 200.042898 73.159595 
L 198.655824 77.688885 
L 197.26875 82.073261 
L 195.881676 85.979837 
L 194.494602 89.529078 
L 193.107528 93.518558 
L 191.720455 98.604207 
L 190.333381 104.186834 
L 188.946307 108.488343 
L 187.559233 109.554404 
L 186.172159 106.44097 
L 184.785085 100.176132 
L 183.398011 93.377299 
L 182.010937 88.68454 
L 180.623864 87.445112 
L 179.23679 89.180244 
L 177.849716 92.257094 
L 176.462642 95.221337 
L 175.075568 97.077692 
L 173.688494 97.276861 
L 172.30142 96.20518 
L 170.914347 94.777119 
L 169.527273 93.7642 
L 168.140199 93.392076 
L 166.753125 92.401244 
L 165.366051 89.041341 
L 163.978977 84.039829 
L 162.591903 80.602834 
L 161.20483 82.291017 
L 159.817756 90.82093 
L 158.430682 103.110703 
L 157.043608 112.572696 
L 155.656534 116.116587 
L 154.26946 115.966396 
L 152.882386 115.948721 
L 151.495312 119.715108 
L 150.108239 128.012785 
L 148.721165 136.697351 
L 147.334091 141.262286 
L 145.947017 142.112466 
L 144.559943 143.081779 
L 143.172869 146.771665 
L 141.785795 151.695281 
L 140.398722 153.343523 
L 139.011648 149.157349 
L 137.624574 142.299234 
L 136.2375 139.749785 
L 134.850426 146.510457 
L 133.463352 160.746356 
L 132.076278 174.377736 
L 130.689205 179.469345 
L 129.302131 174.715285 
L 127.915057 166.252385 
L 126.527983 162.452249 
L 125.140909 166.920179 
L 123.753835 175.51432 
L 122.366761 180.317807 
L 120.979687 176.840168 
L 119.592614 167.7867 
L 118.20554 160.473258 
L 116.818466 160.388612 
L 115.431392 166.494025 
L 114.044318 172.422768 
L 112.657244 172.222676 
L 111.27017 165.167835 
L 109.883097 155.797755 
L 108.496023 149.886356 
L 107.108949 149.849371 
L 105.721875 153.108568 
L 104.334801 154.63478 
L 102.947727 151.397157 
L 101.560653 144.447383 
L 100.17358 136.898199 
L 98.786506 130.761474 
L 97.399432 126.224985 
L 96.012358 123.311667 
L 94.625284 122.735545 
L 93.23821 125.142811 
L 91.851136 130.402796 
L 90.464062 137.228963 
L 89.076989 143.372919 
L 87.689915 146.992103 
L 86.302841 148.132058 
L 84.915767 148.634637 
L 83.528693 150.13739 
L 82.141619 152.180215 
L 80.754545 152.872684 
z
" clip-path="url(#p49c88b9464)" style="fill: #ff7f0e; fill-opacity: 0.2"/>
   </g>
   <g id="matplotlib.axis_1">
    <g id="xtick_1">
     <g id="line2d_1">
      <defs>
       <path id="m54780f4436" d="M 0 0 
L 0 3.5 
" style="stroke: #000000; stroke-width: 0.8"/>
      </defs>
      <g>
       <use xlink:href="#m54780f4436" x="116.541051" y="256.32" style="stroke: #000000; stroke-width: 0.8"/>
      </g>
     </g>
     <g id="text_1">
      <!-- −0.2 -->
      <g transform="translate(97.114801 275.4775)scale(0.16 -0.16)">
       <defs>
        <path id="DejaVuSans-2212" d="M 678 2272 
L 4684 2272 
L 4684 1741 
L 678 1741 
L 678 2272 
z
" transform="scale(0.015625)"/>
        <path id="DejaVuSans-30" d="M 2034 4250 
Q 1547 4250 1301 3770 
Q 1056 3291 1056 2328 
Q 1056 1369 1301 889 
Q 1547 409 2034 409 
Q 2525 409 2770 889 
Q 3016 1369 3016 2328 
Q 3016 3291 2770 3770 
Q 2525 4250 2034 4250 
z
M 2034 4750 
Q 2819 4750 3233 4129 
Q 3647 3509 3647 2328 
Q 3647 1150 3233 529 
Q 2819 -91 2034 -91 
Q 1250 -91 836 529 
Q 422 1150 422 2328 
Q 422 3509 836 4129 
Q 1250 4750 2034 4750 
z
" transform="scale(0.015625)"/>
        <path id="DejaVuSans-2e" d="M 684 794 
L 1344 794 
L 1344 0 
L 684 0 
L 684 794 
z
" transform="scale(0.015625)"/>
        <path id="DejaVuSans-32" d="M 1228 531 
L 3431 531 
L 3431 0 
L 469 0 
L 469 531 
Q 828 903 1448 1529 
Q 2069 2156 2228 2338 
Q 2531 2678 2651 2914 
Q 2772 3150 2772 3378 
Q 2772 3750 2511 3984 
Q 2250 4219 1831 4219 
Q 1534 4219 1204 4116 
Q 875 4013 500 3803 
L 500 4441 
Q 881 4594 1212 4672 
Q 1544 4750 1819 4750 
Q 2544 4750 2975 4387 
Q 3406 4025 3406 3419 
Q 3406 3131 3298 2873 
Q 3191 2616 2906 2266 
Q 2828 2175 2409 1742 
Q 1991 1309 1228 531 
z
" transform="scale(0.015625)"/>
       </defs>
       <use xlink:href="#DejaVuSans-2212"/>
       <use xlink:href="#DejaVuSans-30" x="83.789062"/>
       <use xlink:href="#DejaVuSans-2e" x="147.412109"/>
       <use xlink:href="#DejaVuSans-32" x="179.199219"/>
      </g>
     </g>
    </g>
    <g id="xtick_2">
     <g id="line2d_2">
      <g>
       <use xlink:href="#m54780f4436" x="187.559233" y="256.32" style="stroke: #000000; stroke-width: 0.8"/>
      </g>
     </g>
     <g id="text_2">
      <!-- 0.0 -->
      <g transform="translate(174.836733 275.4775)scale(0.16 -0.16)">
       <use xlink:href="#DejaVuSans-30"/>
       <use xlink:href="#DejaVuSans-2e" x="63.623047"/>
       <use xlink:href="#DejaVuSans-30" x="95.410156"/>
      </g>
     </g>
    </g>
    <g id="xtick_3">
     <g id="line2d_3">
      <g>
       <use xlink:href="#m54780f4436" x="258.577415" y="256.32" style="stroke: #000000; stroke-width: 0.8"/>
      </g>
     </g>
     <g id="text_3">
      <!-- 0.2 -->
      <g transform="translate(245.854915 275.4775)scale(0.16 -0.16)">
       <use xlink:href="#DejaVuSans-30"/>
       <use xlink:href="#DejaVuSans-2e" x="63.623047"/>
       <use xlink:href="#DejaVuSans-32" x="95.410156"/>
      </g>
     </g>
    </g>
    <g id="xtick_4">
     <g id="line2d_4">
      <g>
       <use xlink:href="#m54780f4436" x="329.595597" y="256.32" style="stroke: #000000; stroke-width: 0.8"/>
      </g>
     </g>
     <g id="text_4">
      <!-- 0.4 -->
      <g transform="translate(316.873097 275.4775)scale(0.16 -0.16)">
       <defs>
        <path id="DejaVuSans-34" d="M 2419 4116 
L 825 1625 
L 2419 1625 
L 2419 4116 
z
M 2253 4666 
L 3047 4666 
L 3047 1625 
L 3713 1625 
L 3713 1100 
L 3047 1100 
L 3047 0 
L 2419 0 
L 2419 1100 
L 313 1100 
L 313 1709 
L 2253 4666 
z
" transform="scale(0.015625)"/>
       </defs>
       <use xlink:href="#DejaVuSans-30"/>
       <use xlink:href="#DejaVuSans-2e" x="63.623047"/>
       <use xlink:href="#DejaVuSans-34" x="95.410156"/>
      </g>
     </g>
    </g>
    <g id="xtick_5">
     <g id="line2d_5">
      <g>
       <use xlink:href="#m54780f4436" x="400.613778" y="256.32" style="stroke: #000000; stroke-width: 0.8"/>
      </g>
     </g>
     <g id="text_5">
      <!-- 0.6 -->
      <g transform="translate(387.891278 275.4775)scale(0.16 -0.16)">
       <defs>
        <path id="DejaVuSans-36" d="M 2113 2584 
Q 1688 2584 1439 2293 
Q 1191 2003 1191 1497 
Q 1191 994 1439 701 
Q 1688 409 2113 409 
Q 2538 409 2786 701 
Q 3034 994 3034 1497 
Q 3034 2003 2786 2293 
Q 2538 2584 2113 2584 
z
M 3366 4563 
L 3366 3988 
Q 3128 4100 2886 4159 
Q 2644 4219 2406 4219 
Q 1781 4219 1451 3797 
Q 1122 3375 1075 2522 
Q 1259 2794 1537 2939 
Q 1816 3084 2150 3084 
Q 2853 3084 3261 2657 
Q 3669 2231 3669 1497 
Q 3669 778 3244 343 
Q 2819 -91 2113 -91 
Q 1303 -91 875 529 
Q 447 1150 447 2328 
Q 447 3434 972 4092 
Q 1497 4750 2381 4750 
Q 2619 4750 2861 4703 
Q 3103 4656 3366 4563 
z
" transform="scale(0.015625)"/>
       </defs>
       <use xlink:href="#DejaVuSans-30"/>
       <use xlink:href="#DejaVuSans-2e" x="63.623047"/>
       <use xlink:href="#DejaVuSans-36" x="95.410156"/>
      </g>
     </g>
    </g>
    <g id="text_6">
     <!-- Time from event (s) -->
     <g transform="translate(169.41375 296.482188)scale(0.18 -0.18)">
      <defs>
       <path id="DejaVuSans-54" d="M -19 4666 
L 3928 4666 
L 3928 4134 
L 2272 4134 
L 2272 0 
L 1638 0 
L 1638 4134 
L -19 4134 
L -19 4666 
z
" transform="scale(0.015625)"/>
       <path id="DejaVuSans-69" d="M 603 3500 
L 1178 3500 
L 1178 0 
L 603 0 
L 603 3500 
z
M 603 4863 
L 1178 4863 
L 1178 4134 
L 603 4134 
L 603 4863 
z
" transform="scale(0.015625)"/>
       <path id="DejaVuSans-6d" d="M 3328 2828 
Q 3544 3216 3844 3400 
Q 4144 3584 4550 3584 
Q 5097 3584 5394 3201 
Q 5691 2819 5691 2113 
L 5691 0 
L 5113 0 
L 5113 2094 
Q 5113 2597 4934 2840 
Q 4756 3084 4391 3084 
Q 3944 3084 3684 2787 
Q 3425 2491 3425 1978 
L 3425 0 
L 2847 0 
L 2847 2094 
Q 2847 2600 2669 2842 
Q 2491 3084 2119 3084 
Q 1678 3084 1418 2786 
Q 1159 2488 1159 1978 
L 1159 0 
L 581 0 
L 581 3500 
L 1159 3500 
L 1159 2956 
Q 1356 3278 1631 3431 
Q 1906 3584 2284 3584 
Q 2666 3584 2933 3390 
Q 3200 3197 3328 2828 
z
" transform="scale(0.015625)"/>
       <path id="DejaVuSans-65" d="M 3597 1894 
L 3597 1613 
L 953 1613 
Q 991 1019 1311 708 
Q 1631 397 2203 397 
Q 2534 397 2845 478 
Q 3156 559 3463 722 
L 3463 178 
Q 3153 47 2828 -22 
Q 2503 -91 2169 -91 
Q 1331 -91 842 396 
Q 353 884 353 1716 
Q 353 2575 817 3079 
Q 1281 3584 2069 3584 
Q 2775 3584 3186 3129 
Q 3597 2675 3597 1894 
z
M 3022 2063 
Q 3016 2534 2758 2815 
Q 2500 3097 2075 3097 
Q 1594 3097 1305 2825 
Q 1016 2553 972 2059 
L 3022 2063 
z
" transform="scale(0.015625)"/>
       <path id="DejaVuSans-20" transform="scale(0.015625)"/>
       <path id="DejaVuSans-66" d="M 2375 4863 
L 2375 4384 
L 1825 4384 
Q 1516 4384 1395 4259 
Q 1275 4134 1275 3809 
L 1275 3500 
L 2222 3500 
L 2222 3053 
L 1275 3053 
L 1275 0 
L 697 0 
L 697 3053 
L 147 3053 
L 147 3500 
L 697 3500 
L 697 3744 
Q 697 4328 969 4595 
Q 1241 4863 1831 4863 
L 2375 4863 
z
" transform="scale(0.015625)"/>
       <path id="DejaVuSans-72" d="M 2631 2963 
Q 2534 3019 2420 3045 
Q 2306 3072 2169 3072 
Q 1681 3072 1420 2755 
Q 1159 2438 1159 1844 
L 1159 0 
L 581 0 
L 581 3500 
L 1159 3500 
L 1159 2956 
Q 1341 3275 1631 3429 
Q 1922 3584 2338 3584 
Q 2397 3584 2469 3576 
Q 2541 3569 2628 3553 
L 2631 2963 
z
" transform="scale(0.015625)"/>
       <path id="DejaVuSans-6f" d="M 1959 3097 
Q 1497 3097 1228 2736 
Q 959 2375 959 1747 
Q 959 1119 1226 758 
Q 1494 397 1959 397 
Q 2419 397 2687 759 
Q 2956 1122 2956 1747 
Q 2956 2369 2687 2733 
Q 2419 3097 1959 3097 
z
M 1959 3584 
Q 2709 3584 3137 3096 
Q 3566 2609 3566 1747 
Q 3566 888 3137 398 
Q 2709 -91 1959 -91 
Q 1206 -91 779 398 
Q 353 888 353 1747 
Q 353 2609 779 3096 
Q 1206 3584 1959 3584 
z
" transform="scale(0.015625)"/>
       <path id="DejaVuSans-76" d="M 191 3500 
L 800 3500 
L 1894 563 
L 2988 3500 
L 3597 3500 
L 2284 0 
L 1503 0 
L 191 3500 
z
" transform="scale(0.015625)"/>
       <path id="DejaVuSans-6e" d="M 3513 2113 
L 3513 0 
L 2938 0 
L 2938 2094 
Q 2938 2591 2744 2837 
Q 2550 3084 2163 3084 
Q 1697 3084 1428 2787 
Q 1159 2491 1159 1978 
L 1159 0 
L 581 0 
L 581 3500 
L 1159 3500 
L 1159 2956 
Q 1366 3272 1645 3428 
Q 1925 3584 2291 3584 
Q 2894 3584 3203 3211 
Q 3513 2838 3513 2113 
z
" transform="scale(0.015625)"/>
       <path id="DejaVuSans-74" d="M 1172 4494 
L 1172 3500 
L 2356 3500 
L 2356 3053 
L 1172 3053 
L 1172 1153 
Q 1172 725 1289 603 
Q 1406 481 1766 481 
L 2356 481 
L 2356 0 
L 1766 0 
Q 1100 0 847 248 
Q 594 497 594 1153 
L 594 3053 
L 172 3053 
L 172 3500 
L 594 3500 
L 594 4494 
L 1172 4494 
z
" transform="scale(0.015625)"/>
       <path id="DejaVuSans-28" d="M 1984 4856 
Q 1566 4138 1362 3434 
Q 1159 2731 1159 2009 
Q 1159 1288 1364 580 
Q 1569 -128 1984 -844 
L 1484 -844 
Q 1016 -109 783 600 
Q 550 1309 550 2009 
Q 550 2706 781 3412 
Q 1013 4119 1484 4856 
L 1984 4856 
z
" transform="scale(0.015625)"/>
       <path id="DejaVuSans-73" d="M 2834 3397 
L 2834 2853 
Q 2591 2978 2328 3040 
Q 2066 3103 1784 3103 
Q 1356 3103 1142 2972 
Q 928 2841 928 2578 
Q 928 2378 1081 2264 
Q 1234 2150 1697 2047 
L 1894 2003 
Q 2506 1872 2764 1633 
Q 3022 1394 3022 966 
Q 3022 478 2636 193 
Q 2250 -91 1575 -91 
Q 1294 -91 989 -36 
Q 684 19 347 128 
L 347 722 
Q 666 556 975 473 
Q 1284 391 1588 391 
Q 1994 391 2212 530 
Q 2431 669 2431 922 
Q 2431 1156 2273 1281 
Q 2116 1406 1581 1522 
L 1381 1569 
Q 847 1681 609 1914 
Q 372 2147 372 2553 
Q 372 3047 722 3315 
Q 1072 3584 1716 3584 
Q 2034 3584 2315 3537 
Q 2597 3491 2834 3397 
z
" transform="scale(0.015625)"/>
       <path id="DejaVuSans-29" d="M 513 4856 
L 1013 4856 
Q 1481 4119 1714 3412 
Q 1947 2706 1947 2009 
Q 1947 1309 1714 600 
Q 1481 -109 1013 -844 
L 513 -844 
Q 928 -128 1133 580 
Q 1338 1288 1338 2009 
Q 1338 2731 1133 3434 
Q 928 4138 513 4856 
z
" transform="scale(0.015625)"/>
      </defs>
      <use xlink:href="#DejaVuSans-54"/>
      <use xlink:href="#DejaVuSans-69" x="57.958984"/>
      <use xlink:href="#DejaVuSans-6d" x="85.742188"/>
      <use xlink:href="#DejaVuSans-65" x="183.154297"/>
      <use xlink:href="#DejaVuSans-20" x="244.677734"/>
      <use xlink:href="#DejaVuSans-66" x="276.464844"/>
      <use xlink:href="#DejaVuSans-72" x="311.669922"/>
      <use xlink:href="#DejaVuSans-6f" x="350.533203"/>
      <use xlink:href="#DejaVuSans-6d" x="411.714844"/>
      <use xlink:href="#DejaVuSans-20" x="509.126953"/>
      <use xlink:href="#DejaVuSans-65" x="540.914062"/>
      <use xlink:href="#DejaVuSans-76" x="602.4375"/>
      <use xlink:href="#DejaVuSans-65" x="661.617188"/>
      <use xlink:href="#DejaVuSans-6e" x="723.140625"/>
      <use xlink:href="#DejaVuSans-74" x="786.519531"/>
      <use xlink:href="#DejaVuSans-20" x="825.728516"/>
      <use xlink:href="#DejaVuSans-28" x="857.515625"/>
      <use xlink:href="#DejaVuSans-73" x="896.529297"/>
      <use xlink:href="#DejaVuSans-29" x="948.628906"/>
     </g>
    </g>
   </g>
   <g id="matplotlib.axis_2">
    <g id="ytick_1">
     <g id="line2d_6">
      <defs>
       <path id="m6e63e730ac" d="M 0 0 
L -3.5 0 
" style="stroke: #000000; stroke-width: 0.8"/>
      </defs>
      <g>
       <use xlink:href="#m6e63e730ac" x="63" y="240.077849" style="stroke: #000000; stroke-width: 0.8"/>
      </g>
     </g>
     <g id="text_7">
      <!-- −10 -->
      <g transform="translate(22.2325 246.156599)scale(0.16 -0.16)">
       <defs>
        <path id="DejaVuSans-31" d="M 794 531 
L 1825 531 
L 1825 4091 
L 703 3866 
L 703 4441 
L 1819 4666 
L 2450 4666 
L 2450 531 
L 3481 531 
L 3481 0 
L 794 0 
L 794 531 
z
" transform="scale(0.015625)"/>
       </defs>
       <use xlink:href="#DejaVuSans-2212"/>
       <use xlink:href="#DejaVuSans-31" x="83.789062"/>
       <use xlink:href="#DejaVuSans-30" x="147.412109"/>
      </g>
     </g>
    </g>
    <g id="ytick_2">
     <g id="line2d_7">
      <g>
       <use xlink:href="#m6e63e730ac" x="63" y="182.750735" style="stroke: #000000; stroke-width: 0.8"/>
      </g>
     </g>
     <g id="text_8">
      <!-- −5 -->
      <g transform="translate(32.4125 188.829485)scale(0.16 -0.16)">
       <defs>
        <path id="DejaVuSans-35" d="M 691 4666 
L 3169 4666 
L 3169 4134 
L 1269 4134 
L 1269 2991 
Q 1406 3038 1543 3061 
Q 1681 3084 1819 3084 
Q 2600 3084 3056 2656 
Q 3513 2228 3513 1497 
Q 3513 744 3044 326 
Q 2575 -91 1722 -91 
Q 1428 -91 1123 -41 
Q 819 9 494 109 
L 494 744 
Q 775 591 1075 516 
Q 1375 441 1709 441 
Q 2250 441 2565 725 
Q 2881 1009 2881 1497 
Q 2881 1984 2565 2268 
Q 2250 2553 1709 2553 
Q 1456 2553 1204 2497 
Q 953 2441 691 2322 
L 691 4666 
z
" transform="scale(0.015625)"/>
       </defs>
       <use xlink:href="#DejaVuSans-2212"/>
       <use xlink:href="#DejaVuSans-35" x="83.789062"/>
      </g>
     </g>
    </g>
    <g id="ytick_3">
     <g id="line2d_8">
      <g>
       <use xlink:href="#m6e63e730ac" x="63" y="125.42362" style="stroke: #000000; stroke-width: 0.8"/>
      </g>
     </g>
     <g id="text_9">
      <!-- 0 -->
      <g transform="translate(45.82 131.50237)scale(0.16 -0.16)">
       <use xlink:href="#DejaVuSans-30"/>
      </g>
     </g>
    </g>
    <g id="ytick_4">
     <g id="line2d_9">
      <g>
       <use xlink:href="#m6e63e730ac" x="63" y="68.096505" style="stroke: #000000; stroke-width: 0.8"/>
      </g>
     </g>
     <g id="text_10">
      <!-- 5 -->
      <g transform="translate(45.82 74.175255)scale(0.16 -0.16)">
       <use xlink:href="#DejaVuSans-35"/>
      </g>
     </g>
    </g>
    <g id="text_11">
     <!-- Amplitude (uV) -->
     <g transform="translate(14.489062 213.304219)rotate(-90)scale(0.18 -0.18)">
      <defs>
       <path id="DejaVuSans-41" d="M 2188 4044 
L 1331 1722 
L 3047 1722 
L 2188 4044 
z
M 1831 4666 
L 2547 4666 
L 4325 0 
L 3669 0 
L 3244 1197 
L 1141 1197 
L 716 0 
L 50 0 
L 1831 4666 
z
" transform="scale(0.015625)"/>
       <path id="DejaVuSans-70" d="M 1159 525 
L 1159 -1331 
L 581 -1331 
L 581 3500 
L 1159 3500 
L 1159 2969 
Q 1341 3281 1617 3432 
Q 1894 3584 2278 3584 
Q 2916 3584 3314 3078 
Q 3713 2572 3713 1747 
Q 3713 922 3314 415 
Q 2916 -91 2278 -91 
Q 1894 -91 1617 61 
Q 1341 213 1159 525 
z
M 3116 1747 
Q 3116 2381 2855 2742 
Q 2594 3103 2138 3103 
Q 1681 3103 1420 2742 
Q 1159 2381 1159 1747 
Q 1159 1113 1420 752 
Q 1681 391 2138 391 
Q 2594 391 2855 752 
Q 3116 1113 3116 1747 
z
" transform="scale(0.015625)"/>
       <path id="DejaVuSans-6c" d="M 603 4863 
L 1178 4863 
L 1178 0 
L 603 0 
L 603 4863 
z
" transform="scale(0.015625)"/>
       <path id="DejaVuSans-75" d="M 544 1381 
L 544 3500 
L 1119 3500 
L 1119 1403 
Q 1119 906 1312 657 
Q 1506 409 1894 409 
Q 2359 409 2629 706 
Q 2900 1003 2900 1516 
L 2900 3500 
L 3475 3500 
L 3475 0 
L 2900 0 
L 2900 538 
Q 2691 219 2414 64 
Q 2138 -91 1772 -91 
Q 1169 -91 856 284 
Q 544 659 544 1381 
z
M 1991 3584 
L 1991 3584 
z
" transform="scale(0.015625)"/>
       <path id="DejaVuSans-64" d="M 2906 2969 
L 2906 4863 
L 3481 4863 
L 3481 0 
L 2906 0 
L 2906 525 
Q 2725 213 2448 61 
Q 2172 -91 1784 -91 
Q 1150 -91 751 415 
Q 353 922 353 1747 
Q 353 2572 751 3078 
Q 1150 3584 1784 3584 
Q 2172 3584 2448 3432 
Q 2725 3281 2906 2969 
z
M 947 1747 
Q 947 1113 1208 752 
Q 1469 391 1925 391 
Q 2381 391 2643 752 
Q 2906 1113 2906 1747 
Q 2906 2381 2643 2742 
Q 2381 3103 1925 3103 
Q 1469 3103 1208 2742 
Q 947 2381 947 1747 
z
" transform="scale(0.015625)"/>
       <path id="DejaVuSans-56" d="M 1831 0 
L 50 4666 
L 709 4666 
L 2188 738 
L 3669 4666 
L 4325 4666 
L 2547 0 
L 1831 0 
z
" transform="scale(0.015625)"/>
      </defs>
      <use xlink:href="#DejaVuSans-41"/>
      <use xlink:href="#DejaVuSans-6d" x="68.408203"/>
      <use xlink:href="#DejaVuSans-70" x="165.820312"/>
      <use xlink:href="#DejaVuSans-6c" x="229.296875"/>
      <use xlink:href="#DejaVuSans-69" x="257.080078"/>
      <use xlink:href="#DejaVuSans-74" x="284.863281"/>
      <use xlink:href="#DejaVuSans-75" x="324.072266"/>
      <use xlink:href="#DejaVuSans-64" x="387.451172"/>
      <use xlink:href="#DejaVuSans-65" x="450.927734"/>
      <use xlink:href="#DejaVuSans-20" x="512.451172"/>
      <use xlink:href="#DejaVuSans-28" x="544.238281"/>
      <use xlink:href="#DejaVuSans-75" x="583.251953"/>
      <use xlink:href="#DejaVuSans-56" x="646.630859"/>
      <use xlink:href="#DejaVuSans-29" x="715.039062"/>
     </g>
    </g>
   </g>
   <g id="line2d_10">
    <path d="M 63 125.42362 
L 453.6 125.42362 
" clip-path="url(#p49c88b9464)" style="fill: none; stroke: #000000; stroke-width: 0.5; stroke-linecap: square"/>
   </g>
   <g id="line2d_11">
    <path d="M 187.559233 256.32 
L 187.559233 34.56 
" clip-path="url(#p49c88b9464)" style="fill: none; stroke-dasharray: 1.85,0.8; stroke-dashoffset: 0; stroke: #000000; stroke-width: 0.5"/>
   </g>
   <g id="line2d_12">
    <path d="M 80.754545 128.331105 
L 83.528693 129.67158 
L 84.915767 128.191108 
L 86.302841 124.822014 
L 87.689915 122.146328 
L 89.076989 122.682206 
L 91.851136 129.929001 
L 93.23821 130.685299 
L 96.012358 125.842489 
L 97.399432 126.139759 
L 98.786506 129.29685 
L 100.17358 132.060916 
L 101.560653 130.898473 
L 102.947727 125.515953 
L 104.334801 119.490587 
L 105.721875 117.273627 
L 107.108949 120.236534 
L 108.496023 125.35584 
L 109.883097 127.731811 
L 111.27017 124.693765 
L 112.657244 117.927215 
L 114.044318 111.941929 
L 115.431392 110.411727 
L 116.818466 113.545785 
L 118.20554 118.452156 
L 119.592614 121.781204 
L 120.979687 122.238567 
L 122.366761 121.089998 
L 123.753835 120.703722 
L 125.140909 122.642344 
L 126.527983 126.749972 
L 127.915057 131.531923 
L 129.302131 135.128025 
L 130.689205 136.090417 
L 132.076278 133.737431 
L 133.463352 128.312474 
L 136.2375 114.395268 
L 137.624574 110.74146 
L 139.011648 111.873483 
L 140.398722 117.484072 
L 141.785795 124.91022 
L 143.172869 130.171232 
L 144.559943 130.055095 
L 145.947017 124.094485 
L 147.334091 115.076892 
L 148.721165 107.517436 
L 150.108239 104.918838 
L 151.495312 107.659865 
L 152.882386 113.066643 
L 154.26946 117.635424 
L 155.656534 119.654074 
L 157.043608 120.099571 
L 158.430682 121.140765 
L 161.20483 126.371779 
L 162.591903 126.873264 
L 163.978977 124.570861 
L 165.366051 121.727294 
L 166.753125 121.966422 
L 168.140199 127.163561 
L 169.527273 135.540752 
L 170.914347 142.803488 
L 172.30142 145.440232 
L 173.688494 143.338244 
L 175.075568 139.509062 
L 176.462642 137.363142 
L 177.849716 138.116249 
L 180.623864 142.948428 
L 182.010937 144.928721 
L 183.398011 147.306111 
L 184.785085 150.273419 
L 186.172159 152.146803 
L 187.559233 150.376496 
L 188.946307 144.133741 
L 190.333381 135.911921 
L 191.720455 130.227934 
L 193.107528 130.193143 
L 194.494602 134.891058 
L 195.881676 139.994645 
L 197.26875 141.237664 
L 198.655824 137.799171 
L 200.042898 132.73423 
L 201.429972 130.211961 
L 202.817045 132.081935 
L 204.204119 136.702025 
L 205.591193 140.771169 
L 206.978267 142.233761 
L 208.365341 141.593067 
L 209.752415 140.698162 
L 211.139489 140.484102 
L 212.526563 139.970614 
L 213.913636 137.410447 
L 215.30071 132.308119 
L 216.687784 126.214669 
L 218.074858 121.468929 
L 219.461932 119.113771 
L 220.849006 118.053698 
L 222.23608 116.326416 
L 225.010227 110.492835 
L 226.397301 110.38315 
L 227.784375 113.709975 
L 229.171449 118.33872 
L 230.558523 120.676516 
L 231.945597 118.732483 
L 233.33267 114.10529 
L 234.719744 110.928296 
L 236.106818 112.423898 
L 238.880966 123.253463 
L 240.26804 123.816869 
L 241.655114 118.732241 
L 243.042188 111.591245 
L 244.429261 107.650214 
L 245.816335 109.584984 
L 247.203409 115.435082 
L 248.590483 120.428977 
L 249.977557 121.015463 
L 251.364631 117.584537 
L 252.751705 113.656381 
L 254.138778 112.517869 
L 255.525852 114.462288 
L 256.912926 117.01669 
L 258.3 117.655078 
L 261.074148 114.900278 
L 262.461222 115.55522 
L 263.848295 117.699477 
L 265.235369 118.586387 
L 266.622443 115.744091 
L 269.396591 102.863836 
L 270.783665 99.615581 
L 272.170739 101.005287 
L 273.557813 105.103981 
L 274.944886 108.409583 
L 276.33196 108.530193 
L 277.719034 105.744427 
L 279.106108 102.450547 
L 280.493182 101.249786 
L 281.880256 103.235053 
L 284.654403 112.195811 
L 286.041477 115.294078 
L 287.428551 116.075393 
L 288.815625 115.126336 
L 290.202699 113.882651 
L 291.589773 113.621893 
L 294.36392 115.430012 
L 295.750994 114.760629 
L 297.138068 111.862543 
L 298.525142 107.900325 
L 299.912216 105.270134 
L 301.29929 105.846242 
L 302.686364 109.429963 
L 304.073438 113.771558 
L 305.460511 116.249253 
L 306.847585 115.808027 
L 309.621733 111.103174 
L 312.395881 107.74067 
L 313.782955 104.661096 
L 315.170028 100.246122 
L 316.557102 96.219997 
L 317.944176 94.548089 
L 319.33125 95.44891 
L 320.718324 96.933498 
L 322.105398 96.570454 
L 323.492472 93.976348 
L 324.879545 91.621152 
L 326.266619 92.932063 
L 327.653693 99.196565 
L 329.040767 108.047113 
L 330.427841 115.040728 
L 331.814915 117.086154 
L 333.201989 114.750567 
L 334.589063 111.442474 
L 335.976136 110.279592 
L 338.750284 112.814026 
L 340.137358 111.910004 
L 341.524432 109.076153 
L 342.911506 106.985633 
L 344.29858 108.190017 
L 345.685653 112.644831 
L 347.072727 117.604604 
L 348.459801 119.887301 
L 349.846875 118.308235 
L 351.233949 114.116158 
L 352.621023 109.370293 
L 354.008097 105.173468 
L 355.39517 101.546024 
L 356.782244 98.739399 
L 358.169318 98.124987 
L 359.556392 101.265022 
L 360.943466 107.905657 
L 362.33054 115.128257 
L 363.717614 119.024346 
L 365.104688 117.742456 
L 366.491761 113.130523 
L 367.878835 109.257424 
L 369.265909 108.977884 
L 370.652983 111.632257 
L 372.040057 113.991783 
L 373.427131 113.528823 
L 374.814205 110.905509 
L 376.201278 109.346111 
L 377.588352 111.541558 
L 380.3625 122.633841 
L 381.749574 125.092029 
L 383.136648 123.950815 
L 384.523722 121.522668 
L 385.910795 120.525111 
L 387.297869 121.619703 
L 388.684943 123.112183 
L 390.072017 122.851452 
L 391.459091 120.34052 
L 392.846165 117.099867 
L 394.233239 115.161922 
L 395.620313 115.299321 
L 397.007386 116.603073 
L 398.39446 117.553919 
L 399.781534 117.376404 
L 401.168608 116.479979 
L 402.555682 115.896868 
L 403.942756 116.522571 
L 405.32983 118.808848 
L 406.716903 122.778705 
L 409.491051 132.692285 
L 410.878125 135.070751 
L 412.265199 133.242841 
L 413.652273 127.251536 
L 415.039347 119.48837 
L 416.42642 113.478811 
L 417.813494 111.587524 
L 419.200568 113.446902 
L 420.587642 116.492824 
L 421.974716 118.236384 
L 423.36179 118.354057 
L 424.748864 118.784128 
L 426.135938 121.737818 
L 428.910085 133.090601 
L 430.297159 135.36505 
L 431.684233 132.298546 
L 434.458381 118.102167 
L 435.845455 114.660396 
L 435.845455 114.660396 
" clip-path="url(#p49c88b9464)" style="fill: none; stroke: #1f77b4; stroke-width: 1.5; stroke-linecap: square"/>
   </g>
   <g id="line2d_13">
    <path d="M 80.754545 174.419934 
L 82.141619 173.780613 
L 83.528693 171.784397 
L 84.915767 170.040756 
L 86.302841 169.106838 
L 87.689915 167.768203 
L 89.076989 164.258982 
L 90.464062 158.147103 
L 91.851136 151.01746 
L 93.23821 145.35843 
L 94.625284 142.829158 
L 96.012358 143.553734 
L 97.399432 146.853507 
L 98.786506 152.269372 
L 100.17358 159.538033 
L 101.560653 167.580065 
L 102.947727 173.986739 
L 104.334801 176.253585 
L 105.721875 174.114636 
L 107.108949 170.688061 
L 108.496023 170.699684 
L 109.883097 176.679781 
L 111.27017 186.346327 
L 112.657244 193.912925 
L 114.044318 194.766858 
L 116.818466 184.535721 
L 118.20554 185.571358 
L 119.592614 193.713872 
L 120.979687 203.479933 
L 122.366761 207.549813 
L 123.753835 203.292752 
L 125.140909 195.375599 
L 126.527983 191.845681 
L 127.915057 196.919472 
L 129.302131 206.871043 
L 130.689205 212.854672 
L 132.076278 208.357992 
L 134.850426 180.362572 
L 136.2375 173.287042 
L 137.624574 175.439301 
L 139.011648 181.725592 
L 140.398722 185.235768 
L 141.785795 183.094302 
L 143.172869 177.828757 
L 144.559943 173.674639 
L 147.334091 170.124245 
L 148.721165 164.934908 
L 151.495312 147.682455 
L 152.882386 142.75132 
L 154.26946 141.703999 
L 155.656534 140.903713 
L 157.043608 136.178729 
L 158.430682 126.62735 
L 159.817756 115.471793 
L 161.20483 107.411261 
L 162.591903 105.047282 
L 163.978977 107.417677 
L 165.366051 111.425263 
L 166.753125 114.422031 
L 168.140199 115.684062 
L 170.914347 116.394222 
L 172.30142 117.094959 
L 173.688494 117.605381 
L 175.075568 117.137847 
L 176.462642 115.15417 
L 177.849716 111.792406 
L 179.23679 108.128584 
L 180.623864 105.991183 
L 182.010937 107.08724 
L 183.398011 111.785827 
L 184.785085 118.49058 
L 186.172159 124.317723 
L 187.559233 126.758253 
L 188.946307 125.094253 
L 190.333381 120.508277 
L 193.107528 109.823698 
L 195.881676 101.395458 
L 197.26875 97.180042 
L 200.042898 87.885784 
L 201.429972 83.950687 
L 202.817045 82.091155 
L 204.204119 83.251924 
L 206.978267 90.207838 
L 208.365341 90.085809 
L 209.752415 85.021709 
L 211.139489 77.234262 
L 212.526563 71.609781 
L 213.913636 72.148469 
L 215.30071 78.563321 
L 216.687784 86.06923 
L 218.074858 88.875388 
L 219.461932 84.628087 
L 220.849006 76.082126 
L 222.23608 68.641437 
L 223.623153 66.010842 
L 225.010227 67.738261 
L 226.397301 70.5318 
L 227.784375 71.763975 
L 229.171449 71.780668 
L 230.558523 73.051347 
L 231.945597 77.287015 
L 233.33267 83.428123 
L 234.719744 88.341569 
L 236.106818 89.410618 
L 237.493892 86.557561 
L 238.880966 82.003052 
L 240.26804 78.260433 
L 241.655114 76.323369 
L 243.042188 75.527801 
L 244.429261 74.87655 
L 245.816335 74.395633 
L 247.203409 75.313675 
L 248.590483 79.04539 
L 249.977557 85.926752 
L 252.751705 102.957785 
L 254.138778 108.483727 
L 255.525852 110.258533 
L 256.912926 109.036187 
L 258.3 106.855961 
L 259.687074 105.777927 
L 261.074148 106.537573 
L 262.461222 108.036317 
L 263.848295 108.139255 
L 265.235369 105.311725 
L 268.009517 94.055847 
L 269.396591 90.291854 
L 270.783665 89.818017 
L 272.170739 91.8481 
L 273.557813 94.334494 
L 274.944886 95.454215 
L 276.33196 94.748163 
L 277.719034 93.24778 
L 279.106108 92.701147 
L 280.493182 94.487161 
L 281.880256 98.803969 
L 283.26733 104.485562 
L 284.654403 109.554098 
L 286.041477 112.312661 
L 287.428551 112.394637 
L 288.815625 111.001909 
L 290.202699 109.981811 
L 291.589773 110.323139 
L 292.976847 111.32101 
L 294.36392 111.267019 
L 295.750994 109.185877 
L 297.138068 106.042255 
L 298.525142 104.161829 
L 299.912216 105.238148 
L 302.686364 112.244378 
L 304.073438 113.571715 
L 305.460511 112.58406 
L 306.847585 111.114515 
L 308.234659 111.061969 
L 311.008807 114.315568 
L 312.395881 114.796478 
L 313.782955 114.22024 
L 315.170028 113.931694 
L 316.557102 114.723205 
L 317.944176 115.711532 
L 319.33125 115.200809 
L 322.105398 110.163743 
L 323.492472 110.27832 
L 324.879545 114.319314 
L 326.266619 120.638291 
L 327.653693 126.029139 
L 329.040767 128.481349 
L 331.814915 129.015781 
L 333.201989 130.67666 
L 334.589063 132.534222 
L 335.976136 132.167682 
L 337.36321 128.437337 
L 338.750284 122.802878 
L 340.137358 118.088968 
L 341.524432 115.940619 
L 342.911506 115.486281 
L 344.29858 114.470174 
L 345.685653 111.655997 
L 347.072727 108.115948 
L 348.459801 106.212277 
L 349.846875 107.362491 
L 352.621023 114.209814 
L 354.008097 115.981377 
L 355.39517 116.0737 
L 356.782244 115.655379 
L 359.556392 115.629438 
L 360.943466 114.683903 
L 362.33054 112.092753 
L 363.717614 108.162088 
L 365.104688 103.820648 
L 366.491761 99.845277 
L 367.878835 96.53322 
L 369.265909 94.03904 
L 370.652983 92.804525 
L 372.040057 93.427796 
L 373.427131 95.979382 
L 374.814205 99.449026 
L 376.201278 102.003977 
L 377.588352 102.063379 
L 378.975426 99.463973 
L 380.3625 95.824778 
L 381.749574 93.728719 
L 383.136648 95.147599 
L 384.523722 100.10529 
L 385.910795 106.527486 
L 387.297869 111.523248 
L 388.684943 113.340006 
L 391.459091 111.741858 
L 392.846165 112.952972 
L 394.233239 116.100493 
L 395.620313 118.566722 
L 397.007386 117.373229 
L 398.39446 112.024715 
L 399.781534 105.590271 
L 401.168608 102.799607 
L 402.555682 106.472482 
L 405.32983 124.430042 
L 406.716903 129.84081 
L 408.103977 130.579067 
L 409.491051 129.167738 
L 410.878125 128.601392 
L 412.265199 129.322721 
L 413.652273 128.959225 
L 415.039347 125.053274 
L 416.42642 118.13779 
L 417.813494 112.088045 
L 419.200568 111.162348 
L 420.587642 116.260375 
L 421.974716 123.786532 
L 423.36179 128.278612 
L 424.748864 126.649799 
L 427.523011 114.482178 
L 428.910085 112.641605 
L 430.297159 115.229101 
L 431.684233 119.115971 
L 433.071307 120.714125 
L 434.458381 118.845518 
L 435.845455 115.223485 
L 435.845455 115.223485 
" clip-path="url(#p49c88b9464)" style="fill: none; stroke: #ff7f0e; stroke-width: 1.5; stroke-linecap: square"/>
   </g>
   <g id="patch_3">
    <path d="M 63 256.32 
L 63 34.56 
" style="fill: none; stroke: #000000; stroke-width: 0.8; stroke-linejoin: miter; stroke-linecap: square"/>
   </g>
   <g id="patch_4">
    <path d="M 453.6 256.32 
L 453.6 34.56 
" style="fill: none; stroke: #000000; stroke-width: 0.8; stroke-linejoin: miter; stroke-linecap: square"/>
   </g>
   <g id="patch_5">
    <path d="M 63 256.32 
L 453.6 256.32 
" style="fill: none; stroke: #000000; stroke-width: 0.8; stroke-linejoin: miter; stroke-linecap: square"/>
   </g>
   <g id="patch_6">
    <path d="M 63 34.56 
L 453.6 34.56 
" style="fill: none; stroke: #000000; stroke-width: 0.8; stroke-linejoin: miter; stroke-linecap: square"/>
   </g>
   <g id="text_12">
    <!-- ERP - Vibro trial 1, participant 03 -->
    <g transform="translate(71.25625 28.56)scale(0.2 -0.2)">
     <defs>
      <path id="DejaVuSans-Bold-45" d="M 588 4666 
L 3834 4666 
L 3834 3756 
L 1791 3756 
L 1791 2888 
L 3713 2888 
L 3713 1978 
L 1791 1978 
L 1791 909 
L 3903 909 
L 3903 0 
L 588 0 
L 588 4666 
z
" transform="scale(0.015625)"/>
      <path id="DejaVuSans-Bold-52" d="M 2297 2597 
Q 2675 2597 2839 2737 
Q 3003 2878 3003 3200 
Q 3003 3519 2839 3656 
Q 2675 3794 2297 3794 
L 1791 3794 
L 1791 2597 
L 2297 2597 
z
M 1791 1766 
L 1791 0 
L 588 0 
L 588 4666 
L 2425 4666 
Q 3347 4666 3776 4356 
Q 4206 4047 4206 3378 
Q 4206 2916 3982 2619 
Q 3759 2322 3309 2181 
Q 3556 2125 3751 1926 
Q 3947 1728 4147 1325 
L 4800 0 
L 3519 0 
L 2950 1159 
Q 2778 1509 2601 1637 
Q 2425 1766 2131 1766 
L 1791 1766 
z
" transform="scale(0.015625)"/>
      <path id="DejaVuSans-Bold-50" d="M 588 4666 
L 2584 4666 
Q 3475 4666 3951 4270 
Q 4428 3875 4428 3144 
Q 4428 2409 3951 2014 
Q 3475 1619 2584 1619 
L 1791 1619 
L 1791 0 
L 588 0 
L 588 4666 
z
M 1791 3794 
L 1791 2491 
L 2456 2491 
Q 2806 2491 2997 2661 
Q 3188 2831 3188 3144 
Q 3188 3456 2997 3625 
Q 2806 3794 2456 3794 
L 1791 3794 
z
" transform="scale(0.015625)"/>
      <path id="DejaVuSans-Bold-20" transform="scale(0.015625)"/>
      <path id="DejaVuSans-Bold-2d" d="M 347 2297 
L 2309 2297 
L 2309 1388 
L 347 1388 
L 347 2297 
z
" transform="scale(0.015625)"/>
      <path id="DejaVuSans-Bold-56" d="M 31 4666 
L 1241 4666 
L 2478 1222 
L 3713 4666 
L 4922 4666 
L 3194 0 
L 1759 0 
L 31 4666 
z
" transform="scale(0.015625)"/>
      <path id="DejaVuSans-Bold-69" d="M 538 3500 
L 1656 3500 
L 1656 0 
L 538 0 
L 538 3500 
z
M 538 4863 
L 1656 4863 
L 1656 3950 
L 538 3950 
L 538 4863 
z
" transform="scale(0.015625)"/>
      <path id="DejaVuSans-Bold-62" d="M 2400 722 
Q 2759 722 2948 984 
Q 3138 1247 3138 1747 
Q 3138 2247 2948 2509 
Q 2759 2772 2400 2772 
Q 2041 2772 1848 2508 
Q 1656 2244 1656 1747 
Q 1656 1250 1848 986 
Q 2041 722 2400 722 
z
M 1656 2988 
Q 1888 3294 2169 3439 
Q 2450 3584 2816 3584 
Q 3463 3584 3878 3070 
Q 4294 2556 4294 1747 
Q 4294 938 3878 423 
Q 3463 -91 2816 -91 
Q 2450 -91 2169 54 
Q 1888 200 1656 506 
L 1656 0 
L 538 0 
L 538 4863 
L 1656 4863 
L 1656 2988 
z
" transform="scale(0.015625)"/>
      <path id="DejaVuSans-Bold-72" d="M 3138 2547 
Q 2991 2616 2845 2648 
Q 2700 2681 2553 2681 
Q 2122 2681 1889 2404 
Q 1656 2128 1656 1613 
L 1656 0 
L 538 0 
L 538 3500 
L 1656 3500 
L 1656 2925 
Q 1872 3269 2151 3426 
Q 2431 3584 2822 3584 
Q 2878 3584 2943 3579 
Q 3009 3575 3134 3559 
L 3138 2547 
z
" transform="scale(0.015625)"/>
      <path id="DejaVuSans-Bold-6f" d="M 2203 2784 
Q 1831 2784 1636 2517 
Q 1441 2250 1441 1747 
Q 1441 1244 1636 976 
Q 1831 709 2203 709 
Q 2569 709 2762 976 
Q 2956 1244 2956 1747 
Q 2956 2250 2762 2517 
Q 2569 2784 2203 2784 
z
M 2203 3584 
Q 3106 3584 3614 3096 
Q 4122 2609 4122 1747 
Q 4122 884 3614 396 
Q 3106 -91 2203 -91 
Q 1297 -91 786 396 
Q 275 884 275 1747 
Q 275 2609 786 3096 
Q 1297 3584 2203 3584 
z
" transform="scale(0.015625)"/>
      <path id="DejaVuSans-Bold-74" d="M 1759 4494 
L 1759 3500 
L 2913 3500 
L 2913 2700 
L 1759 2700 
L 1759 1216 
Q 1759 972 1856 886 
Q 1953 800 2241 800 
L 2816 800 
L 2816 0 
L 1856 0 
Q 1194 0 917 276 
Q 641 553 641 1216 
L 641 2700 
L 84 2700 
L 84 3500 
L 641 3500 
L 641 4494 
L 1759 4494 
z
" transform="scale(0.015625)"/>
      <path id="DejaVuSans-Bold-61" d="M 2106 1575 
Q 1756 1575 1579 1456 
Q 1403 1338 1403 1106 
Q 1403 894 1545 773 
Q 1688 653 1941 653 
Q 2256 653 2472 879 
Q 2688 1106 2688 1447 
L 2688 1575 
L 2106 1575 
z
M 3816 1997 
L 3816 0 
L 2688 0 
L 2688 519 
Q 2463 200 2181 54 
Q 1900 -91 1497 -91 
Q 953 -91 614 226 
Q 275 544 275 1050 
Q 275 1666 698 1953 
Q 1122 2241 2028 2241 
L 2688 2241 
L 2688 2328 
Q 2688 2594 2478 2717 
Q 2269 2841 1825 2841 
Q 1466 2841 1156 2769 
Q 847 2697 581 2553 
L 581 3406 
Q 941 3494 1303 3539 
Q 1666 3584 2028 3584 
Q 2975 3584 3395 3211 
Q 3816 2838 3816 1997 
z
" transform="scale(0.015625)"/>
      <path id="DejaVuSans-Bold-6c" d="M 538 4863 
L 1656 4863 
L 1656 0 
L 538 0 
L 538 4863 
z
" transform="scale(0.015625)"/>
      <path id="DejaVuSans-Bold-31" d="M 750 831 
L 1813 831 
L 1813 3847 
L 722 3622 
L 722 4441 
L 1806 4666 
L 2950 4666 
L 2950 831 
L 4013 831 
L 4013 0 
L 750 0 
L 750 831 
z
" transform="scale(0.015625)"/>
      <path id="DejaVuSans-Bold-2c" d="M 653 1209 
L 1778 1209 
L 1778 256 
L 1006 -909 
L 341 -909 
L 653 256 
L 653 1209 
z
" transform="scale(0.015625)"/>
      <path id="DejaVuSans-Bold-70" d="M 1656 506 
L 1656 -1331 
L 538 -1331 
L 538 3500 
L 1656 3500 
L 1656 2988 
Q 1888 3294 2169 3439 
Q 2450 3584 2816 3584 
Q 3463 3584 3878 3070 
Q 4294 2556 4294 1747 
Q 4294 938 3878 423 
Q 3463 -91 2816 -91 
Q 2450 -91 2169 54 
Q 1888 200 1656 506 
z
M 2400 2772 
Q 2041 2772 1848 2508 
Q 1656 2244 1656 1747 
Q 1656 1250 1848 986 
Q 2041 722 2400 722 
Q 2759 722 2948 984 
Q 3138 1247 3138 1747 
Q 3138 2247 2948 2509 
Q 2759 2772 2400 2772 
z
" transform="scale(0.015625)"/>
      <path id="DejaVuSans-Bold-63" d="M 3366 3391 
L 3366 2478 
Q 3138 2634 2908 2709 
Q 2678 2784 2431 2784 
Q 1963 2784 1702 2511 
Q 1441 2238 1441 1747 
Q 1441 1256 1702 982 
Q 1963 709 2431 709 
Q 2694 709 2930 787 
Q 3166 866 3366 1019 
L 3366 103 
Q 3103 6 2833 -42 
Q 2563 -91 2291 -91 
Q 1344 -91 809 395 
Q 275 881 275 1747 
Q 275 2613 809 3098 
Q 1344 3584 2291 3584 
Q 2566 3584 2833 3536 
Q 3100 3488 3366 3391 
z
" transform="scale(0.015625)"/>
      <path id="DejaVuSans-Bold-6e" d="M 4056 2131 
L 4056 0 
L 2931 0 
L 2931 347 
L 2931 1631 
Q 2931 2084 2911 2256 
Q 2891 2428 2841 2509 
Q 2775 2619 2662 2680 
Q 2550 2741 2406 2741 
Q 2056 2741 1856 2470 
Q 1656 2200 1656 1722 
L 1656 0 
L 538 0 
L 538 3500 
L 1656 3500 
L 1656 2988 
Q 1909 3294 2193 3439 
Q 2478 3584 2822 3584 
Q 3428 3584 3742 3212 
Q 4056 2841 4056 2131 
z
" transform="scale(0.015625)"/>
      <path id="DejaVuSans-Bold-30" d="M 2944 2338 
Q 2944 3213 2780 3570 
Q 2616 3928 2228 3928 
Q 1841 3928 1675 3570 
Q 1509 3213 1509 2338 
Q 1509 1453 1675 1090 
Q 1841 728 2228 728 
Q 2613 728 2778 1090 
Q 2944 1453 2944 2338 
z
M 4147 2328 
Q 4147 1169 3647 539 
Q 3147 -91 2228 -91 
Q 1306 -91 806 539 
Q 306 1169 306 2328 
Q 306 3491 806 4120 
Q 1306 4750 2228 4750 
Q 3147 4750 3647 4120 
Q 4147 3491 4147 2328 
z
" transform="scale(0.015625)"/>
      <path id="DejaVuSans-Bold-33" d="M 2981 2516 
Q 3453 2394 3698 2092 
Q 3944 1791 3944 1325 
Q 3944 631 3412 270 
Q 2881 -91 1863 -91 
Q 1503 -91 1142 -33 
Q 781 25 428 141 
L 428 1069 
Q 766 900 1098 814 
Q 1431 728 1753 728 
Q 2231 728 2486 893 
Q 2741 1059 2741 1369 
Q 2741 1688 2480 1852 
Q 2219 2016 1709 2016 
L 1228 2016 
L 1228 2791 
L 1734 2791 
Q 2188 2791 2409 2933 
Q 2631 3075 2631 3366 
Q 2631 3634 2415 3781 
Q 2200 3928 1806 3928 
Q 1516 3928 1219 3862 
Q 922 3797 628 3669 
L 628 4550 
Q 984 4650 1334 4700 
Q 1684 4750 2022 4750 
Q 2931 4750 3382 4451 
Q 3834 4153 3834 3553 
Q 3834 3144 3618 2883 
Q 3403 2622 2981 2516 
z
" transform="scale(0.015625)"/>
     </defs>
     <use xlink:href="#DejaVuSans-Bold-45"/>
     <use xlink:href="#DejaVuSans-Bold-52" x="68.310547"/>
     <use xlink:href="#DejaVuSans-Bold-50" x="145.3125"/>
     <use xlink:href="#DejaVuSans-Bold-20" x="218.603516"/>
     <use xlink:href="#DejaVuSans-Bold-2d" x="253.417969"/>
     <use xlink:href="#DejaVuSans-Bold-20" x="294.921875"/>
     <use xlink:href="#DejaVuSans-Bold-56" x="329.736328"/>
     <use xlink:href="#DejaVuSans-Bold-69" x="405.378906"/>
     <use xlink:href="#DejaVuSans-Bold-62" x="439.65625"/>
     <use xlink:href="#DejaVuSans-Bold-72" x="511.238281"/>
     <use xlink:href="#DejaVuSans-Bold-6f" x="560.554688"/>
     <use xlink:href="#DejaVuSans-Bold-20" x="629.255859"/>
     <use xlink:href="#DejaVuSans-Bold-74" x="664.070312"/>
     <use xlink:href="#DejaVuSans-Bold-72" x="711.873047"/>
     <use xlink:href="#DejaVuSans-Bold-69" x="761.189453"/>
     <use xlink:href="#DejaVuSans-Bold-61" x="795.466797"/>
     <use xlink:href="#DejaVuSans-Bold-6c" x="862.947266"/>
     <use xlink:href="#DejaVuSans-Bold-20" x="897.224609"/>
     <use xlink:href="#DejaVuSans-Bold-31" x="932.039062"/>
     <use xlink:href="#DejaVuSans-Bold-2c" x="1001.619141"/>
     <use xlink:href="#DejaVuSans-Bold-20" x="1039.607422"/>
     <use xlink:href="#DejaVuSans-Bold-70" x="1074.421875"/>
     <use xlink:href="#DejaVuSans-Bold-61" x="1146.003906"/>
     <use xlink:href="#DejaVuSans-Bold-72" x="1213.484375"/>
     <use xlink:href="#DejaVuSans-Bold-74" x="1262.800781"/>
     <use xlink:href="#DejaVuSans-Bold-69" x="1310.603516"/>
     <use xlink:href="#DejaVuSans-Bold-63" x="1344.880859"/>
     <use xlink:href="#DejaVuSans-Bold-69" x="1404.158203"/>
     <use xlink:href="#DejaVuSans-Bold-70" x="1438.435547"/>
     <use xlink:href="#DejaVuSans-Bold-61" x="1510.017578"/>
     <use xlink:href="#DejaVuSans-Bold-6e" x="1577.498047"/>
     <use xlink:href="#DejaVuSans-Bold-74" x="1648.689453"/>
     <use xlink:href="#DejaVuSans-Bold-20" x="1696.492188"/>
     <use xlink:href="#DejaVuSans-Bold-30" x="1731.306641"/>
     <use xlink:href="#DejaVuSans-Bold-33" x="1800.886719"/>
    </g>
   </g>
   <g id="legend_1">
    <g id="patch_7">
     <path d="M 70 101.2725 
L 168.203125 101.2725 
Q 170.203125 101.2725 170.203125 99.2725 
L 170.203125 41.56 
Q 170.203125 39.56 168.203125 39.56 
L 70 39.56 
Q 68 39.56 68 41.56 
L 68 99.2725 
Q 68 101.2725 70 101.2725 
z
" style="fill: #ffffff; opacity: 0.8; stroke: #cccccc; stroke-linejoin: miter"/>
    </g>
    <g id="line2d_14">
     <path d="M 72 47.658438 
L 82 47.658438 
L 92 47.658438 
" style="fill: none; stroke: #1f77b4; stroke-width: 1.5; stroke-linecap: square"/>
    </g>
    <g id="text_13">
     <!-- 'left' - Mean -->
     <g transform="translate(100 51.158438)scale(0.1 -0.1)">
      <defs>
       <path id="DejaVuSans-27" d="M 1147 4666 
L 1147 2931 
L 616 2931 
L 616 4666 
L 1147 4666 
z
" transform="scale(0.015625)"/>
       <path id="DejaVuSans-2d" d="M 313 2009 
L 1997 2009 
L 1997 1497 
L 313 1497 
L 313 2009 
z
" transform="scale(0.015625)"/>
       <path id="DejaVuSans-4d" d="M 628 4666 
L 1569 4666 
L 2759 1491 
L 3956 4666 
L 4897 4666 
L 4897 0 
L 4281 0 
L 4281 4097 
L 3078 897 
L 2444 897 
L 1241 4097 
L 1241 0 
L 628 0 
L 628 4666 
z
" transform="scale(0.015625)"/>
       <path id="DejaVuSans-61" d="M 2194 1759 
Q 1497 1759 1228 1600 
Q 959 1441 959 1056 
Q 959 750 1161 570 
Q 1363 391 1709 391 
Q 2188 391 2477 730 
Q 2766 1069 2766 1631 
L 2766 1759 
L 2194 1759 
z
M 3341 1997 
L 3341 0 
L 2766 0 
L 2766 531 
Q 2569 213 2275 61 
Q 1981 -91 1556 -91 
Q 1019 -91 701 211 
Q 384 513 384 1019 
Q 384 1609 779 1909 
Q 1175 2209 1959 2209 
L 2766 2209 
L 2766 2266 
Q 2766 2663 2505 2880 
Q 2244 3097 1772 3097 
Q 1472 3097 1187 3025 
Q 903 2953 641 2809 
L 641 3341 
Q 956 3463 1253 3523 
Q 1550 3584 1831 3584 
Q 2591 3584 2966 3190 
Q 3341 2797 3341 1997 
z
" transform="scale(0.015625)"/>
      </defs>
      <use xlink:href="#DejaVuSans-27"/>
      <use xlink:href="#DejaVuSans-6c" x="27.490234"/>
      <use xlink:href="#DejaVuSans-65" x="55.273438"/>
      <use xlink:href="#DejaVuSans-66" x="116.796875"/>
      <use xlink:href="#DejaVuSans-74" x="150.251953"/>
      <use xlink:href="#DejaVuSans-27" x="189.460938"/>
      <use xlink:href="#DejaVuSans-20" x="216.951172"/>
      <use xlink:href="#DejaVuSans-2d" x="248.738281"/>
      <use xlink:href="#DejaVuSans-20" x="284.822266"/>
      <use xlink:href="#DejaVuSans-4d" x="316.609375"/>
      <use xlink:href="#DejaVuSans-65" x="402.888672"/>
      <use xlink:href="#DejaVuSans-61" x="464.412109"/>
      <use xlink:href="#DejaVuSans-6e" x="525.691406"/>
     </g>
    </g>
    <g id="patch_8">
     <path d="M 72 65.836563 
L 92 65.836563 
L 92 58.836563 
L 72 58.836563 
z
" style="fill: #1f77b4; fill-opacity: 0.2"/>
    </g>
    <g id="text_14">
     <!-- 'left'- SEM -->
     <g transform="translate(100 65.836563)scale(0.1 -0.1)">
      <defs>
       <path id="DejaVuSans-53" d="M 3425 4513 
L 3425 3897 
Q 3066 4069 2747 4153 
Q 2428 4238 2131 4238 
Q 1616 4238 1336 4038 
Q 1056 3838 1056 3469 
Q 1056 3159 1242 3001 
Q 1428 2844 1947 2747 
L 2328 2669 
Q 3034 2534 3370 2195 
Q 3706 1856 3706 1288 
Q 3706 609 3251 259 
Q 2797 -91 1919 -91 
Q 1588 -91 1214 -16 
Q 841 59 441 206 
L 441 856 
Q 825 641 1194 531 
Q 1563 422 1919 422 
Q 2459 422 2753 634 
Q 3047 847 3047 1241 
Q 3047 1584 2836 1778 
Q 2625 1972 2144 2069 
L 1759 2144 
Q 1053 2284 737 2584 
Q 422 2884 422 3419 
Q 422 4038 858 4394 
Q 1294 4750 2059 4750 
Q 2388 4750 2728 4690 
Q 3069 4631 3425 4513 
z
" transform="scale(0.015625)"/>
       <path id="DejaVuSans-45" d="M 628 4666 
L 3578 4666 
L 3578 4134 
L 1259 4134 
L 1259 2753 
L 3481 2753 
L 3481 2222 
L 1259 2222 
L 1259 531 
L 3634 531 
L 3634 0 
L 628 0 
L 628 4666 
z
" transform="scale(0.015625)"/>
      </defs>
      <use xlink:href="#DejaVuSans-27"/>
      <use xlink:href="#DejaVuSans-6c" x="27.490234"/>
      <use xlink:href="#DejaVuSans-65" x="55.273438"/>
      <use xlink:href="#DejaVuSans-66" x="116.796875"/>
      <use xlink:href="#DejaVuSans-74" x="150.251953"/>
      <use xlink:href="#DejaVuSans-27" x="189.460938"/>
      <use xlink:href="#DejaVuSans-2d" x="216.951172"/>
      <use xlink:href="#DejaVuSans-20" x="253.035156"/>
      <use xlink:href="#DejaVuSans-53" x="284.822266"/>
      <use xlink:href="#DejaVuSans-45" x="348.298828"/>
      <use xlink:href="#DejaVuSans-4d" x="411.482422"/>
     </g>
    </g>
    <g id="line2d_15">
     <path d="M 72 77.014688 
L 82 77.014688 
L 92 77.014688 
" style="fill: none; stroke: #ff7f0e; stroke-width: 1.5; stroke-linecap: square"/>
    </g>
    <g id="text_15">
     <!-- 'right' - Mean -->
     <g transform="translate(100 80.514688)scale(0.1 -0.1)">
      <defs>
       <path id="DejaVuSans-67" d="M 2906 1791 
Q 2906 2416 2648 2759 
Q 2391 3103 1925 3103 
Q 1463 3103 1205 2759 
Q 947 2416 947 1791 
Q 947 1169 1205 825 
Q 1463 481 1925 481 
Q 2391 481 2648 825 
Q 2906 1169 2906 1791 
z
M 3481 434 
Q 3481 -459 3084 -895 
Q 2688 -1331 1869 -1331 
Q 1566 -1331 1297 -1286 
Q 1028 -1241 775 -1147 
L 775 -588 
Q 1028 -725 1275 -790 
Q 1522 -856 1778 -856 
Q 2344 -856 2625 -561 
Q 2906 -266 2906 331 
L 2906 616 
Q 2728 306 2450 153 
Q 2172 0 1784 0 
Q 1141 0 747 490 
Q 353 981 353 1791 
Q 353 2603 747 3093 
Q 1141 3584 1784 3584 
Q 2172 3584 2450 3431 
Q 2728 3278 2906 2969 
L 2906 3500 
L 3481 3500 
L 3481 434 
z
" transform="scale(0.015625)"/>
       <path id="DejaVuSans-68" d="M 3513 2113 
L 3513 0 
L 2938 0 
L 2938 2094 
Q 2938 2591 2744 2837 
Q 2550 3084 2163 3084 
Q 1697 3084 1428 2787 
Q 1159 2491 1159 1978 
L 1159 0 
L 581 0 
L 581 4863 
L 1159 4863 
L 1159 2956 
Q 1366 3272 1645 3428 
Q 1925 3584 2291 3584 
Q 2894 3584 3203 3211 
Q 3513 2838 3513 2113 
z
" transform="scale(0.015625)"/>
      </defs>
      <use xlink:href="#DejaVuSans-27"/>
      <use xlink:href="#DejaVuSans-72" x="27.490234"/>
      <use xlink:href="#DejaVuSans-69" x="68.603516"/>
      <use xlink:href="#DejaVuSans-67" x="96.386719"/>
      <use xlink:href="#DejaVuSans-68" x="159.863281"/>
      <use xlink:href="#DejaVuSans-74" x="223.242188"/>
      <use xlink:href="#DejaVuSans-27" x="262.451172"/>
      <use xlink:href="#DejaVuSans-20" x="289.941406"/>
      <use xlink:href="#DejaVuSans-2d" x="321.728516"/>
      <use xlink:href="#DejaVuSans-20" x="357.8125"/>
      <use xlink:href="#DejaVuSans-4d" x="389.599609"/>
      <use xlink:href="#DejaVuSans-65" x="475.878906"/>
      <use xlink:href="#DejaVuSans-61" x="537.402344"/>
      <use xlink:href="#DejaVuSans-6e" x="598.681641"/>
     </g>
    </g>
    <g id="patch_9">
     <path d="M 72 95.192813 
L 92 95.192813 
L 92 88.192813 
L 72 88.192813 
z
" style="fill: #ff7f0e; fill-opacity: 0.2"/>
    </g>
    <g id="text_16">
     <!-- 'right'- SEM -->
     <g transform="translate(100 95.192813)scale(0.1 -0.1)">
      <use xlink:href="#DejaVuSans-27"/>
      <use xlink:href="#DejaVuSans-72" x="27.490234"/>
      <use xlink:href="#DejaVuSans-69" x="68.603516"/>
      <use xlink:href="#DejaVuSans-67" x="96.386719"/>
      <use xlink:href="#DejaVuSans-68" x="159.863281"/>
      <use xlink:href="#DejaVuSans-74" x="223.242188"/>
      <use xlink:href="#DejaVuSans-27" x="262.451172"/>
      <use xlink:href="#DejaVuSans-2d" x="289.941406"/>
      <use xlink:href="#DejaVuSans-20" x="326.025391"/>
      <use xlink:href="#DejaVuSans-53" x="357.8125"/>
      <use xlink:href="#DejaVuSans-45" x="421.289062"/>
      <use xlink:href="#DejaVuSans-4d" x="484.472656"/>
     </g>
    </g>
   </g>
  </g>
 </g>
 <defs>
  <clipPath id="p49c88b9464">
   <rect x="63" y="34.56" width="390.6" height="221.76"/>
  </clipPath>
 </defs>
</svg>
