<?xml version="1.0" encoding="utf-8" standalone="no"?>
<!DOCTYPE svg PUBLIC "-//W3C//DTD SVG 1.1//EN"
  "http://www.w3.org/Graphics/SVG/1.1/DTD/svg11.dtd">
<svg xmlns:xlink="http://www.w3.org/1999/xlink" width="504pt" height="288pt" viewBox="0 0 504 288" xmlns="http://www.w3.org/2000/svg" version="1.1">
 <metadata>
  <rdf:RDF xmlns:dc="http://purl.org/dc/elements/1.1/" xmlns:cc="http://creativecommons.org/ns#" xmlns:rdf="http://www.w3.org/1999/02/22-rdf-syntax-ns#">
   <cc:Work>
    <dc:type rdf:resource="http://purl.org/dc/dcmitype/StillImage"/>
    <dc:date>2023-09-22T12:45:47.660524</dc:date>
    <dc:format>image/svg+xml</dc:format>
    <dc:creator>
     <cc:Agent>
      <dc:title>Matplotlib v3.5.3, https://matplotlib.org/</dc:title>
     </cc:Agent>
    </dc:creator>
   </cc:Work>
  </rdf:RDF>
 </metadata>
 <defs>
  <style type="text/css">*{stroke-linejoin: round; stroke-linecap: butt}</style>
 </defs>
 <g id="figure_1">
  <g id="patch_1">
   <path d="M 0 288 
L 504 288 
L 504 0 
L 0 0 
z
" style="fill: #ffffff"/>
  </g>
  <g id="axes_1">
   <g id="patch_2">
    <path d="M 63 256.32 
L 453.6 256.32 
L 453.6 34.56 
L 63 34.56 
z
" style="fill: #ffffff"/>
   </g>
   <g id="PolyCollection_1">
    <path d="M 80.754545 135.561276 
L 80.754545 153.156432 
L 82.141619 159.97973 
L 83.528693 163.561965 
L 84.915767 162.856544 
L 86.302841 159.201957 
L 87.689915 155.305563 
L 89.076989 153.0007 
L 90.464062 151.655964 
L 91.851136 149.158723 
L 93.23821 144.392656 
L 94.625284 138.914922 
L 96.012358 135.702764 
L 97.399432 135.816886 
L 98.786506 138.430493 
L 100.17358 141.859299 
L 101.560653 144.42693 
L 102.947727 145.48714 
L 104.334801 145.395125 
L 105.721875 144.857025 
L 107.108949 144.816585 
L 108.496023 145.861562 
L 109.883097 147.056051 
L 111.27017 147.344943 
L 112.657244 147.597211 
L 114.044318 149.954339 
L 115.431392 154.610319 
L 116.818466 158.630348 
L 118.20554 159.02267 
L 119.592614 154.950628 
L 120.979687 148.252232 
L 122.366761 142.916896 
L 123.753835 142.805498 
L 125.140909 148.417179 
L 126.527983 156.570433 
L 127.915057 163.212062 
L 129.302131 166.335343 
L 130.689205 166.701309 
L 132.076278 166.054927 
L 133.463352 165.241059 
L 134.850426 163.772865 
L 136.2375 160.553578 
L 137.624574 155.059403 
L 139.011648 148.052962 
L 140.398722 141.189797 
L 141.785795 135.891629 
L 143.172869 132.452152 
L 144.559943 129.930904 
L 145.947017 128.098226 
L 147.334091 128.626316 
L 148.721165 132.883663 
L 150.108239 139.238167 
L 151.495312 143.529409 
L 152.882386 142.604157 
L 154.26946 137.210797 
L 155.656534 131.643059 
L 157.043608 131.035153 
L 158.430682 137.973213 
L 159.817756 150.387455 
L 161.20483 163.181407 
L 162.591903 172.612939 
L 163.978977 178.823527 
L 165.366051 184.408362 
L 166.753125 191.290717 
L 168.140199 198.952237 
L 169.527273 205.113729 
L 170.914347 207.960139 
L 172.30142 207.745493 
L 173.688494 206.274561 
L 175.075568 205.219478 
L 176.462642 205.337855 
L 177.849716 206.797732 
L 179.23679 209.571763 
L 180.623864 213.424542 
L 182.010937 217.34922 
L 183.398011 219.068338 
L 184.785085 216.119917 
L 186.172159 208.270903 
L 187.559233 198.383593 
L 188.946307 190.346968 
L 190.333381 186.085971 
L 191.720455 183.960942 
L 193.107528 179.661921 
L 194.494602 169.765581 
L 195.881676 155.186049 
L 197.26875 140.373216 
L 198.655824 129.451419 
L 200.042898 124.128396 
L 201.429972 123.257612 
L 202.817045 122.474656 
L 204.204119 118.961099 
L 205.591193 114.244657 
L 206.978267 111.169614 
L 208.365341 110.840285 
L 209.752415 112.302994 
L 211.139489 114.031743 
L 212.526563 115.568145 
L 213.913636 117.82976 
L 215.30071 121.746394 
L 216.687784 126.750568 
L 218.074858 130.785099 
L 219.461932 132.114325 
L 220.849006 131.564536 
L 222.23608 132.429194 
L 223.623153 137.089898 
L 225.010227 144.254521 
L 226.397301 150.175923 
L 227.784375 151.862007 
L 229.171449 149.429334 
L 230.558523 145.931709 
L 231.945597 144.828267 
L 233.33267 147.328708 
L 234.719744 151.704587 
L 236.106818 154.882364 
L 237.493892 155.205709 
L 238.880966 153.674923 
L 240.26804 151.782391 
L 241.655114 149.345179 
L 243.042188 145.473001 
L 244.429261 140.40926 
L 245.816335 135.56143 
L 247.203409 132.163439 
L 248.590483 131.375055 
L 249.977557 133.84319 
L 251.364631 137.356067 
L 252.751705 138.111161 
L 254.138778 135.24634 
L 255.525852 131.49546 
L 256.912926 130.385689 
L 258.3 133.149919 
L 259.687074 138.123779 
L 261.074148 142.415871 
L 262.461222 143.4821 
L 263.848295 140.77283 
L 265.235369 136.58742 
L 266.622443 134.384898 
L 268.009517 135.903394 
L 269.396591 139.595898 
L 270.783665 142.539767 
L 272.170739 142.981719 
L 273.557813 141.032126 
L 274.944886 138.604483 
L 276.33196 138.285153 
L 277.719034 141.218342 
L 279.106108 145.359606 
L 280.493182 147.237268 
L 281.880256 145.434123 
L 283.26733 141.484402 
L 284.654403 138.069475 
L 286.041477 137.153456 
L 287.428551 139.351428 
L 288.815625 143.556887 
L 290.202699 147.245933 
L 291.589773 148.729078 
L 292.976847 148.913051 
L 294.36392 149.291313 
L 295.750994 150.330129 
L 297.138068 151.738815 
L 298.525142 152.701282 
L 299.912216 152.575108 
L 301.29929 151.666686 
L 302.686364 151.011786 
L 304.073438 151.730431 
L 305.460511 154.417704 
L 306.847585 158.011398 
L 308.234659 160.183248 
L 309.621733 159.276679 
L 311.008807 155.161175 
L 312.395881 148.578969 
L 313.782955 140.996296 
L 315.170028 135.217269 
L 316.557102 134.361614 
L 317.944176 139.223832 
L 319.33125 147.438736 
L 320.718324 155.272084 
L 322.105398 159.940848 
L 323.492472 161.086053 
L 324.879545 160.212246 
L 326.266619 159.336592 
L 327.653693 159.745569 
L 329.040767 161.091916 
L 330.427841 162.335366 
L 331.814915 163.517475 
L 333.201989 165.545255 
L 334.589063 168.584864 
L 335.976136 171.302591 
L 337.36321 170.967068 
L 338.750284 165.06905 
L 340.137358 154.276329 
L 341.524432 142.971704 
L 342.911506 136.120078 
L 344.29858 136.011759 
L 345.685653 140.944387 
L 347.072727 145.87849 
L 348.459801 146.350794 
L 349.846875 142.768136 
L 351.233949 138.795231 
L 352.621023 137.014213 
L 354.008097 137.86808 
L 355.39517 140.394182 
L 356.782244 143.566906 
L 358.169318 146.703234 
L 359.556392 149.369042 
L 360.943466 151.291638 
L 362.33054 151.576728 
L 363.717614 149.173722 
L 365.104688 144.432814 
L 366.491761 139.300905 
L 367.878835 136.304734 
L 369.265909 137.498796 
L 370.652983 142.746658 
L 372.040057 148.802788 
L 373.427131 151.26222 
L 374.814205 148.332208 
L 376.201278 141.631617 
L 377.588352 134.192519 
L 378.975426 129.563401 
L 380.3625 130.366135 
L 381.749574 135.635227 
L 383.136648 141.398089 
L 384.523722 144.59432 
L 385.910795 143.983475 
L 387.297869 139.840638 
L 388.684943 134.244784 
L 390.072017 129.883794 
L 391.459091 128.292608 
L 392.846165 130.036238 
L 394.233239 134.853172 
L 395.620313 141.01991 
L 397.007386 145.821443 
L 398.39446 146.524487 
L 399.781534 141.329888 
L 401.168608 131.133787 
L 402.555682 119.938375 
L 403.942756 112.493142 
L 405.32983 111.246328 
L 406.716903 115.291427 
L 408.103977 121.693562 
L 409.491051 127.78964 
L 410.878125 132.351127 
L 412.265199 135.47215 
L 413.652273 138.315805 
L 415.039347 141.874055 
L 416.42642 145.567261 
L 417.813494 148.188672 
L 419.200568 149.641809 
L 420.587642 149.930895 
L 421.974716 148.472064 
L 423.36179 145.268228 
L 424.748864 140.80777 
L 426.135938 136.115574 
L 427.523011 133.421684 
L 428.910085 134.870573 
L 430.297159 139.745085 
L 431.684233 145.220292 
L 433.071307 149.104907 
L 434.458381 150.558625 
L 435.845455 149.345759 
L 435.845455 131.429412 
L 435.845455 131.429412 
L 434.458381 134.910477 
L 433.071307 134.832607 
L 431.684233 130.156034 
L 430.297159 123.751452 
L 428.910085 119.280953 
L 427.523011 118.055288 
L 426.135938 119.566257 
L 424.748864 123.076905 
L 423.36179 127.382336 
L 421.974716 131.314825 
L 420.587642 134.355658 
L 419.200568 135.757958 
L 417.813494 134.259015 
L 416.42642 130.120758 
L 415.039347 125.069859 
L 413.652273 120.391742 
L 412.265199 116.64755 
L 410.878125 113.43354 
L 409.491051 109.204459 
L 408.103977 103.048993 
L 406.716903 96.678469 
L 405.32983 93.488172 
L 403.942756 95.962761 
L 402.555682 103.94653 
L 401.168608 114.729245 
L 399.781534 124.547291 
L 398.39446 130.116807 
L 397.007386 129.839637 
L 395.620313 124.751478 
L 394.233239 118.038088 
L 392.846165 112.833604 
L 391.459091 110.983395 
L 390.072017 112.884311 
L 388.684943 117.285103 
L 387.297869 122.204397 
L 385.910795 126.052498 
L 384.523722 127.247995 
L 383.136648 124.81169 
L 381.749574 119.985908 
L 380.3625 115.493854 
L 378.975426 113.682472 
L 377.588352 116.511418 
L 376.201278 123.61012 
L 374.814205 130.733976 
L 373.427131 132.9836 
L 372.040057 129.218163 
L 370.652983 122.152756 
L 369.265909 116.219001 
L 367.878835 115.314449 
L 366.491761 120.103097 
L 365.104688 127.26885 
L 363.717614 132.352051 
L 362.33054 133.681159 
L 360.943466 132.750176 
L 359.556392 131.655742 
L 358.169318 130.96569 
L 356.782244 129.354075 
L 355.39517 125.455067 
L 354.008097 120.708139 
L 352.621023 118.786383 
L 351.233949 121.849194 
L 349.846875 127.911105 
L 348.459801 132.184824 
L 347.072727 131.653867 
L 345.685653 126.86968 
L 344.29858 121.359126 
L 342.911506 120.325067 
L 341.524432 126.677775 
L 340.137358 138.025363 
L 338.750284 148.871181 
L 337.36321 154.92697 
L 335.976136 155.314002 
L 334.589063 152.339212 
L 333.201989 149.245741 
L 331.814915 147.294409 
L 330.427841 145.622441 
L 329.040767 143.641865 
L 327.653693 142.058838 
L 326.266619 141.956146 
L 324.879545 143.526725 
L 323.492472 145.111989 
L 322.105398 143.860754 
L 320.718324 138.388733 
L 319.33125 130.256031 
L 317.944176 122.6926 
L 316.557102 118.414827 
L 315.170028 118.21201 
L 313.782955 121.43817 
L 312.395881 126.627028 
L 311.008807 131.503238 
L 309.621733 134.091616 
L 308.234659 134.228511 
L 306.847585 133.234399 
L 305.460511 132.306427 
L 304.073438 131.867707 
L 302.686364 131.980965 
L 301.29929 132.151479 
L 299.912216 131.206639 
L 298.525142 128.757799 
L 297.138068 126.011472 
L 295.750994 124.946549 
L 294.36392 126.694869 
L 292.976847 130.080941 
L 291.589773 132.026414 
L 290.202699 130.520553 
L 288.815625 126.144495 
L 287.428551 120.948903 
L 286.041477 117.878839 
L 284.654403 119.113297 
L 283.26733 123.860054 
L 281.880256 128.813549 
L 280.493182 131.102323 
L 279.106108 130.147456 
L 277.719034 127.086826 
L 276.33196 123.619136 
L 274.944886 121.689106 
L 273.557813 122.432976 
L 272.170739 124.607537 
L 270.783665 125.532421 
L 269.396591 123.675112 
L 268.009517 120.125694 
L 266.622443 117.286244 
L 265.235369 117.196365 
L 263.848295 120.256298 
L 262.461222 124.237231 
L 261.074148 125.605876 
L 259.687074 122.48156 
L 258.3 116.751894 
L 256.912926 112.367499 
L 255.525852 111.569596 
L 254.138778 113.63344 
L 252.751705 116.199898 
L 251.364631 117.271174 
L 249.977557 116.2396 
L 248.590483 113.93532 
L 247.203409 112.942338 
L 245.816335 115.004544 
L 244.429261 118.506471 
L 243.042188 121.208943 
L 241.655114 123.408465 
L 240.26804 126.527176 
L 238.880966 130.383433 
L 237.493892 132.937895 
L 236.106818 132.504978 
L 234.719744 129.19682 
L 233.33267 124.902825 
L 231.945597 122.409011 
L 230.558523 123.152156 
L 229.171449 125.511484 
L 227.784375 125.979837 
L 226.397301 122.281693 
L 225.010227 115.448163 
L 223.623153 108.860345 
L 222.23608 105.101193 
L 220.849006 103.964765 
L 219.461932 103.415004 
L 218.074858 101.420901 
L 216.687784 97.455696 
L 215.30071 93.031979 
L 213.913636 90.186525 
L 212.526563 89.296887 
L 211.139489 88.931641 
L 209.752415 87.883123 
L 208.365341 86.960308 
L 206.978267 88.407261 
L 205.591193 93.331122 
L 204.204119 100.168468 
L 202.817045 106.184332 
L 201.429972 109.833524 
L 200.042898 111.493686 
L 198.655824 114.200798 
L 197.26875 121.799269 
L 195.881676 133.321795 
L 194.494602 143.7417 
L 193.107528 148.876979 
L 191.720455 148.341836 
L 190.333381 145.452118 
L 188.946307 144.777057 
L 187.559233 148.4333 
L 186.172159 154.460237 
L 184.785085 159.033529 
L 183.398011 159.733676 
L 182.010937 156.808711 
L 180.623864 152.425761 
L 179.23679 149.028141 
L 177.849716 147.837473 
L 176.462642 148.704467 
L 175.075568 151.072823 
L 173.688494 154.333281 
L 172.30142 157.318062 
L 170.914347 158.453094 
L 169.527273 156.863491 
L 168.140199 153.228977 
L 166.753125 149.497865 
L 165.366051 147.303019 
L 163.978977 146.1558 
L 162.591903 143.436233 
L 161.20483 136.768313 
L 159.817756 126.575592 
L 158.430682 116.404141 
L 157.043608 110.854619 
L 155.656534 112.389396 
L 154.26946 118.906618 
L 152.882386 124.851486 
L 151.495312 125.776164 
L 150.108239 121.670128 
L 148.721165 115.952791 
L 147.334091 112.262557 
L 145.947017 112.177121 
L 144.559943 114.918015 
L 143.172869 118.546578 
L 141.785795 121.769628 
L 140.398722 125.359783 
L 139.011648 130.974335 
L 137.624574 138.395189 
L 136.2375 145.429281 
L 134.850426 150.091499 
L 133.463352 152.377724 
L 132.076278 153.622283 
L 130.689205 154.266123 
L 129.302131 152.894564 
L 127.915057 147.981505 
L 126.527983 140.171225 
L 125.140909 132.485722 
L 123.753835 128.463407 
L 122.366761 129.712639 
L 120.979687 135.020259 
L 119.592614 141.114399 
L 118.20554 144.39088 
L 116.818466 143.487833 
L 115.431392 139.949968 
L 114.044318 135.94903 
L 112.657244 132.468436 
L 111.27017 130.317433 
L 109.883097 129.904351 
L 108.496023 130.43066 
L 107.108949 130.702788 
L 105.721875 130.584915 
L 104.334801 130.722439 
L 102.947727 130.53806 
L 101.560653 128.698536 
L 100.17358 125.127431 
L 98.786506 121.531548 
L 97.399432 120.221054 
L 96.012358 122.292923 
L 94.625284 126.282777 
L 93.23821 129.641008 
L 91.851136 131.693572 
L 90.464062 133.254312 
L 89.076989 135.649072 
L 87.689915 139.598362 
L 86.302841 144.292586 
L 84.915767 147.585214 
L 83.528693 147.201937 
L 82.141619 142.569806 
L 80.754545 135.561276 
z
" clip-path="url(#p2cf09b7cc1)" style="fill: #1f77b4; fill-opacity: 0.2"/>
   </g>
   <g id="PolyCollection_2">
    <path d="M 80.754545 137.454452 
L 80.754545 164.021104 
L 82.141619 160.591337 
L 83.528693 158.552712 
L 84.915767 162.336598 
L 86.302841 172.269537 
L 87.689915 184.132181 
L 89.076989 193.019842 
L 90.464062 196.505643 
L 91.851136 194.93915 
L 93.23821 190.668263 
L 94.625284 187.123833 
L 96.012358 187.132143 
L 97.399432 191.502105 
L 98.786506 199.030082 
L 100.17358 207.157315 
L 101.560653 213.05471 
L 102.947727 215.024442 
L 104.334801 213.171527 
L 105.721875 208.819866 
L 107.108949 203.039676 
L 108.496023 195.570748 
L 109.883097 185.609 
L 111.27017 173.449272 
L 112.657244 160.838727 
L 114.044318 150.131236 
L 115.431392 143.309348 
L 116.818466 140.402946 
L 118.20554 138.980363 
L 119.592614 136.820931 
L 120.979687 133.885815 
L 122.366761 130.554852 
L 123.753835 127.237706 
L 125.140909 126.039082 
L 126.527983 128.821466 
L 127.915057 136.003821 
L 129.302131 145.968265 
L 130.689205 154.039493 
L 132.076278 155.50881 
L 133.463352 149.99687 
L 134.850426 141.638346 
L 136.2375 135.463487 
L 137.624574 134.066836 
L 139.011648 136.417639 
L 140.398722 138.841288 
L 141.785795 138.246657 
L 143.172869 134.628834 
L 144.559943 130.450989 
L 145.947017 128.399598 
L 147.334091 129.207315 
L 148.721165 130.91286 
L 150.108239 131.374249 
L 151.495312 130.770314 
L 152.882386 130.852987 
L 154.26946 132.836089 
L 155.656534 135.94291 
L 157.043608 136.73235 
L 158.430682 131.260371 
L 159.817756 120.202602 
L 161.20483 109.3994 
L 162.591903 105.005772 
L 163.978977 109.516892 
L 165.366051 120.357968 
L 166.753125 130.817066 
L 168.140199 134.574428 
L 169.527273 130.512908 
L 170.914347 122.763297 
L 172.30142 117.245488 
L 173.688494 117.859625 
L 175.075568 123.70795 
L 176.462642 130.288814 
L 177.849716 133.770295 
L 179.23679 133.807218 
L 180.623864 132.99277 
L 182.010937 134.898951 
L 183.398011 141.94587 
L 184.785085 152.839467 
L 186.172159 162.495188 
L 187.559233 165.959495 
L 188.946307 162.483595 
L 190.333381 155.794932 
L 191.720455 150.413719 
L 193.107528 149.216372 
L 194.494602 152.96836 
L 195.881676 159.187825 
L 197.26875 163.660712 
L 198.655824 163.906891 
L 200.042898 159.962412 
L 201.429972 152.920975 
L 202.817045 144.211001 
L 204.204119 135.644391 
L 205.591193 128.257184 
L 206.978267 122.597955 
L 208.365341 119.094653 
L 209.752415 117.066 
L 211.139489 114.531993 
L 212.526563 111.019469 
L 213.913636 109.367468 
L 215.30071 113.474132 
L 216.687784 124.856073 
L 218.074858 140.064866 
L 219.461932 151.672666 
L 220.849006 153.843624 
L 222.23608 147.232089 
L 223.623153 137.995365 
L 225.010227 131.861047 
L 226.397301 131.079421 
L 227.784375 134.325423 
L 229.171449 137.567429 
L 230.558523 137.267104 
L 231.945597 133.60098 
L 233.33267 129.563887 
L 234.719744 127.746242 
L 236.106818 128.605962 
L 237.493892 130.004127 
L 238.880966 129.108086 
L 240.26804 125.795533 
L 241.655114 122.74599 
L 243.042188 121.976838 
L 244.429261 123.312156 
L 245.816335 125.726817 
L 247.203409 128.279975 
L 248.590483 130.466308 
L 249.977557 132.590105 
L 251.364631 135.365373 
L 252.751705 139.111083 
L 254.138778 143.669775 
L 255.525852 148.458721 
L 256.912926 151.742634 
L 258.3 152.02168 
L 259.687074 150.325803 
L 261.074148 148.930102 
L 262.461222 149.043985 
L 263.848295 149.782947 
L 265.235369 148.731809 
L 266.622443 144.122843 
L 268.009517 136.925396 
L 269.396591 130.381464 
L 270.783665 127.762254 
L 272.170739 130.75105 
L 273.557813 138.520046 
L 274.944886 147.937809 
L 276.33196 155.585388 
L 277.719034 159.491234 
L 279.106108 159.089208 
L 280.493182 154.909674 
L 281.880256 148.694139 
L 283.26733 143.104199 
L 284.654403 139.764032 
L 286.041477 138.676293 
L 287.428551 140.234351 
L 288.815625 144.370265 
L 290.202699 148.612955 
L 291.589773 150.681816 
L 292.976847 151.371801 
L 294.36392 152.503112 
L 295.750994 154.066808 
L 297.138068 155.493275 
L 298.525142 156.905939 
L 299.912216 158.824896 
L 301.29929 161.543735 
L 302.686364 165.715131 
L 304.073438 172.412398 
L 305.460511 181.783966 
L 306.847585 191.892018 
L 308.234659 199.38567 
L 309.621733 202.126896 
L 311.008807 200.943482 
L 312.395881 198.779009 
L 313.782955 198.731917 
L 315.170028 202.085094 
L 316.557102 206.992042 
L 317.944176 209.553767 
L 319.33125 207.068631 
L 320.718324 200.414007 
L 322.105398 193.875764 
L 323.492472 192.908183 
L 324.879545 200.339002 
L 326.266619 213.259247 
L 327.653693 224.811231 
L 329.040767 229.88668 
L 330.427841 228.645827 
L 331.814915 225.487609 
L 333.201989 225.586417 
L 334.589063 231.218177 
L 335.976136 239.904118 
L 337.36321 246.24 
L 338.750284 246.068669 
L 340.137358 239.380841 
L 341.524432 230.033922 
L 342.911506 222.730244 
L 344.29858 219.600827 
L 345.685653 219.575215 
L 347.072727 220.388111 
L 348.459801 220.083132 
L 349.846875 217.292486 
L 351.233949 211.608274 
L 352.621023 203.59434 
L 354.008097 193.628954 
L 355.39517 181.520802 
L 356.782244 167.935516 
L 358.169318 154.763297 
L 359.556392 143.648838 
L 360.943466 136.205554 
L 362.33054 134.842209 
L 363.717614 138.121263 
L 365.104688 143.108537 
L 366.491761 147.698713 
L 367.878835 149.982447 
L 369.265909 147.979138 
L 370.652983 140.803248 
L 372.040057 130.087106 
L 373.427131 119.163105 
L 374.814205 110.887506 
L 376.201278 106.522033 
L 377.588352 105.633896 
L 378.975426 106.363462 
L 380.3625 106.916875 
L 381.749574 107.122196 
L 383.136648 107.934124 
L 384.523722 110.127394 
L 385.910795 113.599955 
L 387.297869 116.987396 
L 388.684943 118.509319 
L 390.072017 118.293716 
L 391.459091 118.715058 
L 392.846165 122.096313 
L 394.233239 128.774728 
L 395.620313 136.743877 
L 397.007386 142.775558 
L 398.39446 144.584965 
L 399.781534 142.200646 
L 401.168608 137.634568 
L 402.555682 133.68826 
L 403.942756 132.273508 
L 405.32983 133.202256 
L 406.716903 134.787402 
L 408.103977 135.489586 
L 409.491051 134.874802 
L 410.878125 133.508905 
L 412.265199 132.11454 
L 413.652273 130.762845 
L 415.039347 129.135043 
L 416.42642 127.486569 
L 417.813494 126.746884 
L 419.200568 127.652033 
L 420.587642 129.923855 
L 421.974716 132.119035 
L 423.36179 132.30625 
L 424.748864 129.394226 
L 426.135938 124.387269 
L 427.523011 120.109417 
L 428.910085 119.135586 
L 430.297159 121.788256 
L 431.684233 126.432644 
L 433.071307 131.399583 
L 434.458381 135.92122 
L 435.845455 140.168795 
L 435.845455 111.853374 
L 435.845455 111.853374 
L 434.458381 108.350038 
L 433.071307 105.538917 
L 431.684233 101.489957 
L 430.297159 95.866965 
L 428.910085 90.555238 
L 427.523011 87.878247 
L 426.135938 88.842827 
L 424.748864 92.192515 
L 423.36179 94.913878 
L 421.974716 94.421844 
L 420.587642 90.730231 
L 419.200568 86.400725 
L 417.813494 84.122811 
L 416.42642 84.470271 
L 415.039347 85.917587 
L 413.652273 86.641274 
L 412.265199 86.043565 
L 410.878125 84.911438 
L 409.491051 84.483046 
L 408.103977 85.121906 
L 406.716903 86.008002 
L 405.32983 86.349721 
L 403.942756 86.568345 
L 402.555682 88.021045 
L 401.168608 91.593486 
L 399.781534 96.16856 
L 398.39446 98.525976 
L 397.007386 95.653015 
L 395.620313 87.432436 
L 394.233239 76.891478 
L 392.846165 68.167471 
L 391.459091 63.778996 
L 390.072017 63.050603 
L 388.684943 63.180656 
L 387.297869 61.546139 
L 385.910795 57.070326 
L 384.523722 50.94668 
L 383.136648 46.119197 
L 381.749574 44.64 
L 380.3625 46.048851 
L 378.975426 48.552822 
L 377.588352 50.916764 
L 376.201278 53.604065 
L 374.814205 58.845634 
L 373.427131 68.585179 
L 372.040057 81.984934 
L 370.652983 95.678798 
L 369.265909 106.049821 
L 367.878835 111.076525 
L 366.491761 111.339879 
L 365.104688 110.033112 
L 363.717614 110.86602 
L 362.33054 115.157289 
L 360.943466 120.675326 
L 359.556392 125.104959 
L 358.169318 129.64975 
L 356.782244 134.71282 
L 355.39517 140.382277 
L 354.008097 146.55403 
L 352.621023 151.985147 
L 351.233949 155.270361 
L 349.846875 156.349219 
L 348.459801 155.860344 
L 347.072727 154.137866 
L 345.685653 151.958382 
L 344.29858 151.168845 
L 342.911506 153.433724 
L 341.524432 158.670684 
L 340.137358 164.846189 
L 338.750284 168.696023 
L 337.36321 167.366889 
L 335.976136 160.732019 
L 334.589063 152.12855 
L 333.201989 146.294761 
L 331.814915 145.926029 
L 330.427841 149.277229 
L 329.040767 151.219432 
L 327.653693 147.664926 
L 326.266619 139.074704 
L 324.879545 129.712874 
L 323.492472 124.513233 
L 322.105398 126.38457 
L 320.718324 134.228258 
L 319.33125 143.204157 
L 317.944176 148.473929 
L 316.557102 148.873026 
L 315.170028 146.987345 
L 313.782955 146.575938 
L 312.395881 149.75516 
L 311.008807 155.304755 
L 309.621733 159.47965 
L 308.234659 159.096862 
L 306.847585 153.781575 
L 305.460511 145.647144 
L 304.073438 137.881353 
L 302.686364 133.075695 
L 301.29929 131.606588 
L 299.912216 131.560507 
L 298.525142 130.548795 
L 297.138068 128.215989 
L 295.750994 126.644324 
L 294.36392 127.436895 
L 292.976847 129.374776 
L 291.589773 129.869516 
L 290.202699 128.492864 
L 288.815625 126.32346 
L 287.428551 124.014873 
L 286.041477 122.65721 
L 284.654403 124.027241 
L 283.26733 127.836837 
L 281.880256 131.791959 
L 280.493182 134.884477 
L 279.106108 137.2423 
L 277.719034 138.017859 
L 276.33196 135.602092 
L 274.944886 129.395719 
L 273.557813 121.038917 
L 272.170739 113.784657 
L 270.783665 110.961819 
L 269.396591 113.981572 
L 268.009517 120.909195 
L 266.622443 127.845957 
L 265.235369 132.019498 
L 263.848295 133.132963 
L 262.461222 132.762337 
L 261.074148 132.969666 
L 259.687074 134.615678 
L 258.3 136.671784 
L 256.912926 137.262666 
L 255.525852 134.833739 
L 254.138778 128.945948 
L 252.751705 121.763072 
L 251.364631 116.55752 
L 249.977557 114.333643 
L 248.590483 113.464348 
L 247.203409 111.664936 
L 245.816335 108.037265 
L 244.429261 103.978099 
L 243.042188 102.140067 
L 241.655114 103.681361 
L 240.26804 107.012215 
L 238.880966 109.948508 
L 237.493892 111.591628 
L 236.106818 112.007436 
L 234.719744 112.186214 
L 233.33267 113.764557 
L 231.945597 116.844995 
L 230.558523 119.072154 
L 229.171449 118.140817 
L 227.784375 114.095173 
L 226.397301 109.990471 
L 225.010227 110.444286 
L 223.623153 117.254247 
L 222.23608 126.262525 
L 220.849006 130.843806 
L 219.461932 127.711768 
L 218.074858 118.104374 
L 216.687784 106.422215 
L 215.30071 97.703577 
L 213.913636 94.879743 
L 212.526563 96.993439 
L 211.139489 100.73809 
L 209.752415 103.673789 
L 208.365341 105.461945 
L 206.978267 107.912735 
L 205.591193 113.446745 
L 204.204119 122.155421 
L 202.817045 131.39897 
L 201.429972 138.486767 
L 200.042898 142.486666 
L 198.655824 143.125024 
L 197.26875 140.77307 
L 195.881676 136.654398 
L 194.494602 132.410104 
L 193.107528 129.935465 
L 191.720455 131.323857 
L 190.333381 136.542095 
L 188.946307 141.633191 
L 187.559233 142.180811 
L 186.172159 136.962478 
L 184.785085 127.917656 
L 183.398011 118.654214 
L 182.010937 112.529829 
L 180.623864 110.826349 
L 179.23679 111.41825 
L 177.849716 110.251157 
L 176.462642 105.42903 
L 175.075568 99.003324 
L 173.688494 94.880113 
L 172.30142 95.768417 
L 170.914347 101.404704 
L 169.527273 108.06613 
L 168.140199 110.223908 
L 166.753125 104.667775 
L 165.366051 92.939775 
L 163.978977 80.588783 
L 162.591903 74.456735 
L 161.20483 78.051542 
L 159.817756 88.408435 
L 158.430682 98.799599 
L 157.043608 103.897861 
L 155.656534 102.038257 
L 154.26946 95.662571 
L 152.882386 90.009837 
L 151.495312 88.430779 
L 150.108239 90.053483 
L 148.721165 92.327787 
L 147.334091 93.965487 
L 145.947017 95.303407 
L 144.559943 97.325783 
L 143.172869 100.124935 
L 141.785795 102.0056 
L 140.398722 101.471798 
L 139.011648 99.427397 
L 137.624574 98.750761 
L 136.2375 102.117019 
L 134.850426 109.6027 
L 133.463352 117.982798 
L 132.076278 123.289825 
L 130.689205 123.648439 
L 129.302131 119.518648 
L 127.915057 112.91607 
L 126.527983 107.260414 
L 125.140909 105.800076 
L 123.753835 108.68439 
L 122.366761 113.618651 
L 120.979687 117.649485 
L 119.592614 118.079343 
L 118.20554 115.552777 
L 116.818466 113.208283 
L 115.431392 112.930756 
L 114.044318 114.898212 
L 112.657244 118.820713 
L 111.27017 123.892136 
L 109.883097 129.14668 
L 108.496023 134.333411 
L 107.108949 139.396614 
L 105.721875 143.600183 
L 104.334801 145.797667 
L 102.947727 145.199504 
L 101.560653 141.776783 
L 100.17358 136.458332 
L 98.786506 130.913205 
L 97.399432 126.933473 
L 96.012358 125.786818 
L 94.625284 127.65145 
L 93.23821 131.595278 
L 91.851136 135.948527 
L 90.464062 138.3964 
L 89.076989 136.934486 
L 87.689915 131.848748 
L 86.302841 126.078834 
L 84.915767 123.131352 
L 83.528693 124.916985 
L 82.141619 130.869087 
L 80.754545 137.454452 
z
" clip-path="url(#p2cf09b7cc1)" style="fill: #ff7f0e; fill-opacity: 0.2"/>
   </g>
   <g id="matplotlib.axis_1">
    <g id="xtick_1">
     <g id="line2d_1">
      <defs>
       <path id="me1f7686dc2" d="M 0 0 
L 0 3.5 
" style="stroke: #000000; stroke-width: 0.8"/>
      </defs>
      <g>
       <use xlink:href="#me1f7686dc2" x="116.541051" y="256.32" style="stroke: #000000; stroke-width: 0.8"/>
      </g>
     </g>
     <g id="text_1">
      <!-- −0.2 -->
      <g transform="translate(97.114801 275.4775)scale(0.16 -0.16)">
       <defs>
        <path id="DejaVuSans-2212" d="M 678 2272 
L 4684 2272 
L 4684 1741 
L 678 1741 
L 678 2272 
z
" transform="scale(0.015625)"/>
        <path id="DejaVuSans-30" d="M 2034 4250 
Q 1547 4250 1301 3770 
Q 1056 3291 1056 2328 
Q 1056 1369 1301 889 
Q 1547 409 2034 409 
Q 2525 409 2770 889 
Q 3016 1369 3016 2328 
Q 3016 3291 2770 3770 
Q 2525 4250 2034 4250 
z
M 2034 4750 
Q 2819 4750 3233 4129 
Q 3647 3509 3647 2328 
Q 3647 1150 3233 529 
Q 2819 -91 2034 -91 
Q 1250 -91 836 529 
Q 422 1150 422 2328 
Q 422 3509 836 4129 
Q 1250 4750 2034 4750 
z
" transform="scale(0.015625)"/>
        <path id="DejaVuSans-2e" d="M 684 794 
L 1344 794 
L 1344 0 
L 684 0 
L 684 794 
z
" transform="scale(0.015625)"/>
        <path id="DejaVuSans-32" d="M 1228 531 
L 3431 531 
L 3431 0 
L 469 0 
L 469 531 
Q 828 903 1448 1529 
Q 2069 2156 2228 2338 
Q 2531 2678 2651 2914 
Q 2772 3150 2772 3378 
Q 2772 3750 2511 3984 
Q 2250 4219 1831 4219 
Q 1534 4219 1204 4116 
Q 875 4013 500 3803 
L 500 4441 
Q 881 4594 1212 4672 
Q 1544 4750 1819 4750 
Q 2544 4750 2975 4387 
Q 3406 4025 3406 3419 
Q 3406 3131 3298 2873 
Q 3191 2616 2906 2266 
Q 2828 2175 2409 1742 
Q 1991 1309 1228 531 
z
" transform="scale(0.015625)"/>
       </defs>
       <use xlink:href="#DejaVuSans-2212"/>
       <use xlink:href="#DejaVuSans-30" x="83.789062"/>
       <use xlink:href="#DejaVuSans-2e" x="147.412109"/>
       <use xlink:href="#DejaVuSans-32" x="179.199219"/>
      </g>
     </g>
    </g>
    <g id="xtick_2">
     <g id="line2d_2">
      <g>
       <use xlink:href="#me1f7686dc2" x="187.559233" y="256.32" style="stroke: #000000; stroke-width: 0.8"/>
      </g>
     </g>
     <g id="text_2">
      <!-- 0.0 -->
      <g transform="translate(174.836733 275.4775)scale(0.16 -0.16)">
       <use xlink:href="#DejaVuSans-30"/>
       <use xlink:href="#DejaVuSans-2e" x="63.623047"/>
       <use xlink:href="#DejaVuSans-30" x="95.410156"/>
      </g>
     </g>
    </g>
    <g id="xtick_3">
     <g id="line2d_3">
      <g>
       <use xlink:href="#me1f7686dc2" x="258.577415" y="256.32" style="stroke: #000000; stroke-width: 0.8"/>
      </g>
     </g>
     <g id="text_3">
      <!-- 0.2 -->
      <g transform="translate(245.854915 275.4775)scale(0.16 -0.16)">
       <use xlink:href="#DejaVuSans-30"/>
       <use xlink:href="#DejaVuSans-2e" x="63.623047"/>
       <use xlink:href="#DejaVuSans-32" x="95.410156"/>
      </g>
     </g>
    </g>
    <g id="xtick_4">
     <g id="line2d_4">
      <g>
       <use xlink:href="#me1f7686dc2" x="329.595597" y="256.32" style="stroke: #000000; stroke-width: 0.8"/>
      </g>
     </g>
     <g id="text_4">
      <!-- 0.4 -->
      <g transform="translate(316.873097 275.4775)scale(0.16 -0.16)">
       <defs>
        <path id="DejaVuSans-34" d="M 2419 4116 
L 825 1625 
L 2419 1625 
L 2419 4116 
z
M 2253 4666 
L 3047 4666 
L 3047 1625 
L 3713 1625 
L 3713 1100 
L 3047 1100 
L 3047 0 
L 2419 0 
L 2419 1100 
L 313 1100 
L 313 1709 
L 2253 4666 
z
" transform="scale(0.015625)"/>
       </defs>
       <use xlink:href="#DejaVuSans-30"/>
       <use xlink:href="#DejaVuSans-2e" x="63.623047"/>
       <use xlink:href="#DejaVuSans-34" x="95.410156"/>
      </g>
     </g>
    </g>
    <g id="xtick_5">
     <g id="line2d_5">
      <g>
       <use xlink:href="#me1f7686dc2" x="400.613778" y="256.32" style="stroke: #000000; stroke-width: 0.8"/>
      </g>
     </g>
     <g id="text_5">
      <!-- 0.6 -->
      <g transform="translate(387.891278 275.4775)scale(0.16 -0.16)">
       <defs>
        <path id="DejaVuSans-36" d="M 2113 2584 
Q 1688 2584 1439 2293 
Q 1191 2003 1191 1497 
Q 1191 994 1439 701 
Q 1688 409 2113 409 
Q 2538 409 2786 701 
Q 3034 994 3034 1497 
Q 3034 2003 2786 2293 
Q 2538 2584 2113 2584 
z
M 3366 4563 
L 3366 3988 
Q 3128 4100 2886 4159 
Q 2644 4219 2406 4219 
Q 1781 4219 1451 3797 
Q 1122 3375 1075 2522 
Q 1259 2794 1537 2939 
Q 1816 3084 2150 3084 
Q 2853 3084 3261 2657 
Q 3669 2231 3669 1497 
Q 3669 778 3244 343 
Q 2819 -91 2113 -91 
Q 1303 -91 875 529 
Q 447 1150 447 2328 
Q 447 3434 972 4092 
Q 1497 4750 2381 4750 
Q 2619 4750 2861 4703 
Q 3103 4656 3366 4563 
z
" transform="scale(0.015625)"/>
       </defs>
       <use xlink:href="#DejaVuSans-30"/>
       <use xlink:href="#DejaVuSans-2e" x="63.623047"/>
       <use xlink:href="#DejaVuSans-36" x="95.410156"/>
      </g>
     </g>
    </g>
    <g id="text_6">
     <!-- Time from event (s) -->
     <g transform="translate(169.41375 296.482188)scale(0.18 -0.18)">
      <defs>
       <path id="DejaVuSans-54" d="M -19 4666 
L 3928 4666 
L 3928 4134 
L 2272 4134 
L 2272 0 
L 1638 0 
L 1638 4134 
L -19 4134 
L -19 4666 
z
" transform="scale(0.015625)"/>
       <path id="DejaVuSans-69" d="M 603 3500 
L 1178 3500 
L 1178 0 
L 603 0 
L 603 3500 
z
M 603 4863 
L 1178 4863 
L 1178 4134 
L 603 4134 
L 603 4863 
z
" transform="scale(0.015625)"/>
       <path id="DejaVuSans-6d" d="M 3328 2828 
Q 3544 3216 3844 3400 
Q 4144 3584 4550 3584 
Q 5097 3584 5394 3201 
Q 5691 2819 5691 2113 
L 5691 0 
L 5113 0 
L 5113 2094 
Q 5113 2597 4934 2840 
Q 4756 3084 4391 3084 
Q 3944 3084 3684 2787 
Q 3425 2491 3425 1978 
L 3425 0 
L 2847 0 
L 2847 2094 
Q 2847 2600 2669 2842 
Q 2491 3084 2119 3084 
Q 1678 3084 1418 2786 
Q 1159 2488 1159 1978 
L 1159 0 
L 581 0 
L 581 3500 
L 1159 3500 
L 1159 2956 
Q 1356 3278 1631 3431 
Q 1906 3584 2284 3584 
Q 2666 3584 2933 3390 
Q 3200 3197 3328 2828 
z
" transform="scale(0.015625)"/>
       <path id="DejaVuSans-65" d="M 3597 1894 
L 3597 1613 
L 953 1613 
Q 991 1019 1311 708 
Q 1631 397 2203 397 
Q 2534 397 2845 478 
Q 3156 559 3463 722 
L 3463 178 
Q 3153 47 2828 -22 
Q 2503 -91 2169 -91 
Q 1331 -91 842 396 
Q 353 884 353 1716 
Q 353 2575 817 3079 
Q 1281 3584 2069 3584 
Q 2775 3584 3186 3129 
Q 3597 2675 3597 1894 
z
M 3022 2063 
Q 3016 2534 2758 2815 
Q 2500 3097 2075 3097 
Q 1594 3097 1305 2825 
Q 1016 2553 972 2059 
L 3022 2063 
z
" transform="scale(0.015625)"/>
       <path id="DejaVuSans-20" transform="scale(0.015625)"/>
       <path id="DejaVuSans-66" d="M 2375 4863 
L 2375 4384 
L 1825 4384 
Q 1516 4384 1395 4259 
Q 1275 4134 1275 3809 
L 1275 3500 
L 2222 3500 
L 2222 3053 
L 1275 3053 
L 1275 0 
L 697 0 
L 697 3053 
L 147 3053 
L 147 3500 
L 697 3500 
L 697 3744 
Q 697 4328 969 4595 
Q 1241 4863 1831 4863 
L 2375 4863 
z
" transform="scale(0.015625)"/>
       <path id="DejaVuSans-72" d="M 2631 2963 
Q 2534 3019 2420 3045 
Q 2306 3072 2169 3072 
Q 1681 3072 1420 2755 
Q 1159 2438 1159 1844 
L 1159 0 
L 581 0 
L 581 3500 
L 1159 3500 
L 1159 2956 
Q 1341 3275 1631 3429 
Q 1922 3584 2338 3584 
Q 2397 3584 2469 3576 
Q 2541 3569 2628 3553 
L 2631 2963 
z
" transform="scale(0.015625)"/>
       <path id="DejaVuSans-6f" d="M 1959 3097 
Q 1497 3097 1228 2736 
Q 959 2375 959 1747 
Q 959 1119 1226 758 
Q 1494 397 1959 397 
Q 2419 397 2687 759 
Q 2956 1122 2956 1747 
Q 2956 2369 2687 2733 
Q 2419 3097 1959 3097 
z
M 1959 3584 
Q 2709 3584 3137 3096 
Q 3566 2609 3566 1747 
Q 3566 888 3137 398 
Q 2709 -91 1959 -91 
Q 1206 -91 779 398 
Q 353 888 353 1747 
Q 353 2609 779 3096 
Q 1206 3584 1959 3584 
z
" transform="scale(0.015625)"/>
       <path id="DejaVuSans-76" d="M 191 3500 
L 800 3500 
L 1894 563 
L 2988 3500 
L 3597 3500 
L 2284 0 
L 1503 0 
L 191 3500 
z
" transform="scale(0.015625)"/>
       <path id="DejaVuSans-6e" d="M 3513 2113 
L 3513 0 
L 2938 0 
L 2938 2094 
Q 2938 2591 2744 2837 
Q 2550 3084 2163 3084 
Q 1697 3084 1428 2787 
Q 1159 2491 1159 1978 
L 1159 0 
L 581 0 
L 581 3500 
L 1159 3500 
L 1159 2956 
Q 1366 3272 1645 3428 
Q 1925 3584 2291 3584 
Q 2894 3584 3203 3211 
Q 3513 2838 3513 2113 
z
" transform="scale(0.015625)"/>
       <path id="DejaVuSans-74" d="M 1172 4494 
L 1172 3500 
L 2356 3500 
L 2356 3053 
L 1172 3053 
L 1172 1153 
Q 1172 725 1289 603 
Q 1406 481 1766 481 
L 2356 481 
L 2356 0 
L 1766 0 
Q 1100 0 847 248 
Q 594 497 594 1153 
L 594 3053 
L 172 3053 
L 172 3500 
L 594 3500 
L 594 4494 
L 1172 4494 
z
" transform="scale(0.015625)"/>
       <path id="DejaVuSans-28" d="M 1984 4856 
Q 1566 4138 1362 3434 
Q 1159 2731 1159 2009 
Q 1159 1288 1364 580 
Q 1569 -128 1984 -844 
L 1484 -844 
Q 1016 -109 783 600 
Q 550 1309 550 2009 
Q 550 2706 781 3412 
Q 1013 4119 1484 4856 
L 1984 4856 
z
" transform="scale(0.015625)"/>
       <path id="DejaVuSans-73" d="M 2834 3397 
L 2834 2853 
Q 2591 2978 2328 3040 
Q 2066 3103 1784 3103 
Q 1356 3103 1142 2972 
Q 928 2841 928 2578 
Q 928 2378 1081 2264 
Q 1234 2150 1697 2047 
L 1894 2003 
Q 2506 1872 2764 1633 
Q 3022 1394 3022 966 
Q 3022 478 2636 193 
Q 2250 -91 1575 -91 
Q 1294 -91 989 -36 
Q 684 19 347 128 
L 347 722 
Q 666 556 975 473 
Q 1284 391 1588 391 
Q 1994 391 2212 530 
Q 2431 669 2431 922 
Q 2431 1156 2273 1281 
Q 2116 1406 1581 1522 
L 1381 1569 
Q 847 1681 609 1914 
Q 372 2147 372 2553 
Q 372 3047 722 3315 
Q 1072 3584 1716 3584 
Q 2034 3584 2315 3537 
Q 2597 3491 2834 3397 
z
" transform="scale(0.015625)"/>
       <path id="DejaVuSans-29" d="M 513 4856 
L 1013 4856 
Q 1481 4119 1714 3412 
Q 1947 2706 1947 2009 
Q 1947 1309 1714 600 
Q 1481 -109 1013 -844 
L 513 -844 
Q 928 -128 1133 580 
Q 1338 1288 1338 2009 
Q 1338 2731 1133 3434 
Q 928 4138 513 4856 
z
" transform="scale(0.015625)"/>
      </defs>
      <use xlink:href="#DejaVuSans-54"/>
      <use xlink:href="#DejaVuSans-69" x="57.958984"/>
      <use xlink:href="#DejaVuSans-6d" x="85.742188"/>
      <use xlink:href="#DejaVuSans-65" x="183.154297"/>
      <use xlink:href="#DejaVuSans-20" x="244.677734"/>
      <use xlink:href="#DejaVuSans-66" x="276.464844"/>
      <use xlink:href="#DejaVuSans-72" x="311.669922"/>
      <use xlink:href="#DejaVuSans-6f" x="350.533203"/>
      <use xlink:href="#DejaVuSans-6d" x="411.714844"/>
      <use xlink:href="#DejaVuSans-20" x="509.126953"/>
      <use xlink:href="#DejaVuSans-65" x="540.914062"/>
      <use xlink:href="#DejaVuSans-76" x="602.4375"/>
      <use xlink:href="#DejaVuSans-65" x="661.617188"/>
      <use xlink:href="#DejaVuSans-6e" x="723.140625"/>
      <use xlink:href="#DejaVuSans-74" x="786.519531"/>
      <use xlink:href="#DejaVuSans-20" x="825.728516"/>
      <use xlink:href="#DejaVuSans-28" x="857.515625"/>
      <use xlink:href="#DejaVuSans-73" x="896.529297"/>
      <use xlink:href="#DejaVuSans-29" x="948.628906"/>
     </g>
    </g>
   </g>
   <g id="matplotlib.axis_2">
    <g id="ytick_1">
     <g id="line2d_6">
      <defs>
       <path id="m9a773e7842" d="M 0 0 
L -3.5 0 
" style="stroke: #000000; stroke-width: 0.8"/>
      </defs>
      <g>
       <use xlink:href="#m9a773e7842" x="63" y="242.47808" style="stroke: #000000; stroke-width: 0.8"/>
      </g>
     </g>
     <g id="text_7">
      <!-- −10 -->
      <g transform="translate(22.2325 248.55683)scale(0.16 -0.16)">
       <defs>
        <path id="DejaVuSans-31" d="M 794 531 
L 1825 531 
L 1825 4091 
L 703 3866 
L 703 4441 
L 1819 4666 
L 2450 4666 
L 2450 531 
L 3481 531 
L 3481 0 
L 794 0 
L 794 531 
z
" transform="scale(0.015625)"/>
       </defs>
       <use xlink:href="#DejaVuSans-2212"/>
       <use xlink:href="#DejaVuSans-31" x="83.789062"/>
       <use xlink:href="#DejaVuSans-30" x="147.412109"/>
      </g>
     </g>
    </g>
    <g id="ytick_2">
     <g id="line2d_7">
      <g>
       <use xlink:href="#m9a773e7842" x="63" y="189.894277" style="stroke: #000000; stroke-width: 0.8"/>
      </g>
     </g>
     <g id="text_8">
      <!-- −5 -->
      <g transform="translate(32.4125 195.973027)scale(0.16 -0.16)">
       <defs>
        <path id="DejaVuSans-35" d="M 691 4666 
L 3169 4666 
L 3169 4134 
L 1269 4134 
L 1269 2991 
Q 1406 3038 1543 3061 
Q 1681 3084 1819 3084 
Q 2600 3084 3056 2656 
Q 3513 2228 3513 1497 
Q 3513 744 3044 326 
Q 2575 -91 1722 -91 
Q 1428 -91 1123 -41 
Q 819 9 494 109 
L 494 744 
Q 775 591 1075 516 
Q 1375 441 1709 441 
Q 2250 441 2565 725 
Q 2881 1009 2881 1497 
Q 2881 1984 2565 2268 
Q 2250 2553 1709 2553 
Q 1456 2553 1204 2497 
Q 953 2441 691 2322 
L 691 4666 
z
" transform="scale(0.015625)"/>
       </defs>
       <use xlink:href="#DejaVuSans-2212"/>
       <use xlink:href="#DejaVuSans-35" x="83.789062"/>
      </g>
     </g>
    </g>
    <g id="ytick_3">
     <g id="line2d_8">
      <g>
       <use xlink:href="#m9a773e7842" x="63" y="137.310473" style="stroke: #000000; stroke-width: 0.8"/>
      </g>
     </g>
     <g id="text_9">
      <!-- 0 -->
      <g transform="translate(45.82 143.389223)scale(0.16 -0.16)">
       <use xlink:href="#DejaVuSans-30"/>
      </g>
     </g>
    </g>
    <g id="ytick_4">
     <g id="line2d_9">
      <g>
       <use xlink:href="#m9a773e7842" x="63" y="84.726669" style="stroke: #000000; stroke-width: 0.8"/>
      </g>
     </g>
     <g id="text_10">
      <!-- 5 -->
      <g transform="translate(45.82 90.805419)scale(0.16 -0.16)">
       <use xlink:href="#DejaVuSans-35"/>
      </g>
     </g>
    </g>
    <g id="text_11">
     <!-- Amplitude (uV) -->
     <g transform="translate(14.489062 213.304219)rotate(-90)scale(0.18 -0.18)">
      <defs>
       <path id="DejaVuSans-41" d="M 2188 4044 
L 1331 1722 
L 3047 1722 
L 2188 4044 
z
M 1831 4666 
L 2547 4666 
L 4325 0 
L 3669 0 
L 3244 1197 
L 1141 1197 
L 716 0 
L 50 0 
L 1831 4666 
z
" transform="scale(0.015625)"/>
       <path id="DejaVuSans-70" d="M 1159 525 
L 1159 -1331 
L 581 -1331 
L 581 3500 
L 1159 3500 
L 1159 2969 
Q 1341 3281 1617 3432 
Q 1894 3584 2278 3584 
Q 2916 3584 3314 3078 
Q 3713 2572 3713 1747 
Q 3713 922 3314 415 
Q 2916 -91 2278 -91 
Q 1894 -91 1617 61 
Q 1341 213 1159 525 
z
M 3116 1747 
Q 3116 2381 2855 2742 
Q 2594 3103 2138 3103 
Q 1681 3103 1420 2742 
Q 1159 2381 1159 1747 
Q 1159 1113 1420 752 
Q 1681 391 2138 391 
Q 2594 391 2855 752 
Q 3116 1113 3116 1747 
z
" transform="scale(0.015625)"/>
       <path id="DejaVuSans-6c" d="M 603 4863 
L 1178 4863 
L 1178 0 
L 603 0 
L 603 4863 
z
" transform="scale(0.015625)"/>
       <path id="DejaVuSans-75" d="M 544 1381 
L 544 3500 
L 1119 3500 
L 1119 1403 
Q 1119 906 1312 657 
Q 1506 409 1894 409 
Q 2359 409 2629 706 
Q 2900 1003 2900 1516 
L 2900 3500 
L 3475 3500 
L 3475 0 
L 2900 0 
L 2900 538 
Q 2691 219 2414 64 
Q 2138 -91 1772 -91 
Q 1169 -91 856 284 
Q 544 659 544 1381 
z
M 1991 3584 
L 1991 3584 
z
" transform="scale(0.015625)"/>
       <path id="DejaVuSans-64" d="M 2906 2969 
L 2906 4863 
L 3481 4863 
L 3481 0 
L 2906 0 
L 2906 525 
Q 2725 213 2448 61 
Q 2172 -91 1784 -91 
Q 1150 -91 751 415 
Q 353 922 353 1747 
Q 353 2572 751 3078 
Q 1150 3584 1784 3584 
Q 2172 3584 2448 3432 
Q 2725 3281 2906 2969 
z
M 947 1747 
Q 947 1113 1208 752 
Q 1469 391 1925 391 
Q 2381 391 2643 752 
Q 2906 1113 2906 1747 
Q 2906 2381 2643 2742 
Q 2381 3103 1925 3103 
Q 1469 3103 1208 2742 
Q 947 2381 947 1747 
z
" transform="scale(0.015625)"/>
       <path id="DejaVuSans-56" d="M 1831 0 
L 50 4666 
L 709 4666 
L 2188 738 
L 3669 4666 
L 4325 4666 
L 2547 0 
L 1831 0 
z
" transform="scale(0.015625)"/>
      </defs>
      <use xlink:href="#DejaVuSans-41"/>
      <use xlink:href="#DejaVuSans-6d" x="68.408203"/>
      <use xlink:href="#DejaVuSans-70" x="165.820312"/>
      <use xlink:href="#DejaVuSans-6c" x="229.296875"/>
      <use xlink:href="#DejaVuSans-69" x="257.080078"/>
      <use xlink:href="#DejaVuSans-74" x="284.863281"/>
      <use xlink:href="#DejaVuSans-75" x="324.072266"/>
      <use xlink:href="#DejaVuSans-64" x="387.451172"/>
      <use xlink:href="#DejaVuSans-65" x="450.927734"/>
      <use xlink:href="#DejaVuSans-20" x="512.451172"/>
      <use xlink:href="#DejaVuSans-28" x="544.238281"/>
      <use xlink:href="#DejaVuSans-75" x="583.251953"/>
      <use xlink:href="#DejaVuSans-56" x="646.630859"/>
      <use xlink:href="#DejaVuSans-29" x="715.039062"/>
     </g>
    </g>
   </g>
   <g id="line2d_10">
    <path d="M 63 137.310473 
L 453.6 137.310473 
" clip-path="url(#p2cf09b7cc1)" style="fill: none; stroke: #000000; stroke-width: 0.5; stroke-linecap: square"/>
   </g>
   <g id="line2d_11">
    <path d="M 187.559233 256.32 
L 187.559233 34.56 
" clip-path="url(#p2cf09b7cc1)" style="fill: none; stroke-dasharray: 1.85,0.8; stroke-dashoffset: 0; stroke: #000000; stroke-width: 0.5"/>
   </g>
   <g id="line2d_12">
    <path d="M 80.754545 144.358854 
L 82.141619 151.274768 
L 83.528693 155.381951 
L 84.915767 155.220879 
L 86.302841 151.747271 
L 87.689915 147.451963 
L 89.076989 144.324886 
L 91.851136 140.426147 
L 93.23821 137.016832 
L 94.625284 132.598849 
L 96.012358 128.997843 
L 97.399432 128.01897 
L 98.786506 129.981021 
L 100.17358 133.493365 
L 101.560653 136.562733 
L 102.947727 138.0126 
L 104.334801 138.058782 
L 105.721875 137.72097 
L 107.108949 137.759687 
L 111.27017 138.831188 
L 112.657244 140.032823 
L 114.044318 142.951685 
L 115.431392 147.280143 
L 116.818466 151.05909 
L 118.20554 151.706775 
L 119.592614 148.032513 
L 120.979687 141.636246 
L 122.366761 136.314768 
L 123.753835 135.634453 
L 125.140909 140.45145 
L 126.527983 148.370829 
L 127.915057 155.596784 
L 129.302131 159.614954 
L 130.689205 160.483716 
L 132.076278 159.838605 
L 133.463352 158.809392 
L 134.850426 156.932182 
L 136.2375 152.99143 
L 137.624574 146.727296 
L 139.011648 139.513648 
L 140.398722 133.27479 
L 141.785795 128.830628 
L 144.559943 122.424459 
L 145.947017 120.137674 
L 147.334091 120.444437 
L 148.721165 124.418227 
L 150.108239 130.454148 
L 151.495312 134.652786 
L 152.882386 133.727822 
L 155.656534 122.016228 
L 157.043608 120.944886 
L 158.430682 127.188677 
L 161.20483 149.97486 
L 162.591903 158.024586 
L 163.978977 162.489664 
L 165.366051 165.855691 
L 166.753125 170.394291 
L 168.140199 176.090607 
L 169.527273 180.98861 
L 170.914347 183.206616 
L 172.30142 182.531778 
L 175.075568 178.14615 
L 176.462642 177.021161 
L 177.849716 177.317602 
L 179.23679 179.299952 
L 180.623864 182.925152 
L 182.010937 187.078966 
L 183.398011 189.401007 
L 184.785085 187.576723 
L 186.172159 181.36557 
L 187.559233 173.408447 
L 188.946307 167.562013 
L 190.333381 165.769045 
L 191.720455 166.151389 
L 193.107528 164.26945 
L 194.494602 156.753641 
L 197.26875 131.086242 
L 198.655824 121.826109 
L 200.042898 117.811041 
L 201.429972 116.545568 
L 202.817045 114.329494 
L 204.204119 109.564784 
L 205.591193 103.78789 
L 206.978267 99.788438 
L 208.365341 98.900297 
L 209.752415 100.093059 
L 211.139489 101.481692 
L 212.526563 102.432516 
L 213.913636 104.008143 
L 215.30071 107.389186 
L 216.687784 112.103132 
L 218.074858 116.103 
L 219.461932 117.764665 
L 220.849006 117.76465 
L 222.23608 118.765194 
L 223.623153 122.975121 
L 226.397301 136.228808 
L 227.784375 138.920922 
L 229.171449 137.470409 
L 230.558523 134.541932 
L 231.945597 133.618639 
L 233.33267 136.115766 
L 234.719744 140.450704 
L 236.106818 143.693671 
L 237.493892 144.071802 
L 238.880966 142.029178 
L 243.042188 133.340972 
L 245.816335 125.282987 
L 247.203409 122.552889 
L 248.590483 122.655188 
L 251.364631 127.313621 
L 252.751705 127.155529 
L 255.525852 121.532528 
L 256.912926 121.376594 
L 258.3 124.950907 
L 259.687074 130.30267 
L 261.074148 134.010874 
L 262.461222 133.859665 
L 265.235369 126.891893 
L 266.622443 125.835571 
L 268.009517 128.014544 
L 269.396591 131.635505 
L 270.783665 134.036094 
L 272.170739 133.794628 
L 273.557813 131.732551 
L 274.944886 130.146795 
L 276.33196 130.952144 
L 277.719034 134.152584 
L 279.106108 137.753531 
L 280.493182 139.169795 
L 281.880256 137.123836 
L 284.654403 128.591386 
L 286.041477 127.516148 
L 287.428551 130.150166 
L 288.815625 134.850691 
L 290.202699 138.883243 
L 291.589773 140.377746 
L 292.976847 139.496996 
L 294.36392 137.993091 
L 295.750994 137.638339 
L 297.138068 138.875144 
L 298.525142 140.729541 
L 299.912216 141.890873 
L 301.29929 141.909083 
L 302.686364 141.496376 
L 304.073438 141.799069 
L 305.460511 143.362065 
L 306.847585 145.622898 
L 308.234659 147.20588 
L 309.621733 146.684148 
L 311.008807 143.332207 
L 312.395881 137.602999 
L 313.782955 131.217233 
L 315.170028 126.71464 
L 316.557102 126.388221 
L 317.944176 130.958216 
L 320.718324 146.830408 
L 322.105398 151.900801 
L 323.492472 153.099021 
L 326.266619 150.646369 
L 327.653693 150.902203 
L 331.814915 155.405942 
L 333.201989 157.395498 
L 335.976136 163.308297 
L 337.36321 162.947019 
L 338.750284 156.970115 
L 341.524432 134.824739 
L 342.911506 128.222573 
L 344.29858 128.685443 
L 347.072727 138.766178 
L 348.459801 139.267809 
L 349.846875 135.33962 
L 351.233949 130.322212 
L 352.621023 127.900298 
L 354.008097 129.288109 
L 356.782244 136.46049 
L 358.169318 138.834462 
L 360.943466 142.020907 
L 362.33054 142.628943 
L 363.717614 140.762887 
L 365.104688 135.850832 
L 366.491761 129.702001 
L 367.878835 125.809592 
L 369.265909 126.858898 
L 370.652983 132.449707 
L 372.040057 139.010476 
L 373.427131 142.12291 
L 374.814205 139.533092 
L 377.588352 125.351968 
L 378.975426 121.622936 
L 380.3625 122.929995 
L 381.749574 127.810568 
L 383.136648 133.10489 
L 384.523722 135.921157 
L 385.910795 135.017986 
L 387.297869 131.022517 
L 388.684943 125.764943 
L 390.072017 121.384053 
L 391.459091 119.638002 
L 392.846165 121.434921 
L 394.233239 126.44563 
L 395.620313 132.885694 
L 397.007386 137.83054 
L 398.39446 138.320647 
L 399.781534 132.93859 
L 401.168608 122.931516 
L 402.555682 111.942453 
L 403.942756 104.227951 
L 405.32983 102.36725 
L 406.716903 105.984948 
L 409.491051 118.497049 
L 410.878125 122.892334 
L 413.652273 129.353773 
L 416.42642 137.84401 
L 417.813494 141.223843 
L 419.200568 142.699884 
L 420.587642 142.143276 
L 421.974716 139.893445 
L 423.36179 136.325282 
L 426.135938 127.840915 
L 427.523011 125.738486 
L 428.910085 127.075763 
L 430.297159 131.748269 
L 431.684233 137.688163 
L 433.071307 141.968757 
L 434.458381 142.734551 
L 435.845455 140.387586 
L 435.845455 140.387586 
" clip-path="url(#p2cf09b7cc1)" style="fill: none; stroke: #1f77b4; stroke-width: 1.5; stroke-linecap: square"/>
   </g>
   <g id="line2d_13">
    <path d="M 80.754545 150.737778 
L 82.141619 145.730212 
L 83.528693 141.734849 
L 84.915767 142.733975 
L 86.302841 149.174185 
L 87.689915 157.990464 
L 89.076989 164.977164 
L 90.464062 167.451021 
L 91.851136 165.443838 
L 93.23821 161.131771 
L 94.625284 157.387642 
L 96.012358 156.459481 
L 97.399432 159.217789 
L 98.786506 164.971643 
L 100.17358 171.807824 
L 101.560653 177.415747 
L 102.947727 180.111973 
L 104.334801 179.484597 
L 105.721875 176.210025 
L 107.108949 171.218145 
L 108.496023 164.952079 
L 109.883097 157.37784 
L 112.657244 139.82972 
L 114.044318 132.514724 
L 115.431392 128.120052 
L 116.818466 126.805614 
L 118.20554 127.26657 
L 119.592614 127.450137 
L 120.979687 125.76765 
L 122.366761 122.086751 
L 123.753835 117.961048 
L 125.140909 115.919579 
L 126.527983 118.04094 
L 127.915057 124.459946 
L 129.302131 132.743456 
L 130.689205 138.843966 
L 132.076278 139.399317 
L 133.463352 133.989834 
L 134.850426 125.620523 
L 136.2375 118.790253 
L 137.624574 116.408799 
L 139.011648 117.922518 
L 140.398722 120.156543 
L 141.785795 120.126129 
L 143.172869 117.376885 
L 144.559943 113.888386 
L 145.947017 111.851502 
L 147.334091 111.586401 
L 148.721165 111.620323 
L 150.108239 110.713866 
L 151.495312 109.600547 
L 152.882386 110.431412 
L 154.26946 114.24933 
L 155.656534 118.990584 
L 157.043608 120.315105 
L 158.430682 115.029985 
L 161.20483 93.725471 
L 162.591903 89.731253 
L 163.978977 95.052837 
L 166.753125 117.742421 
L 168.140199 122.399168 
L 169.527273 119.289519 
L 170.914347 112.084 
L 172.30142 106.506952 
L 173.688494 106.369869 
L 175.075568 111.355637 
L 176.462642 117.858922 
L 177.849716 122.010726 
L 179.23679 122.612734 
L 180.623864 121.90956 
L 182.010937 123.71439 
L 183.398011 130.300042 
L 186.172159 149.728833 
L 187.559233 154.070153 
L 188.946307 152.058393 
L 190.333381 146.168513 
L 191.720455 140.868788 
L 193.107528 139.575918 
L 194.494602 142.689232 
L 195.881676 147.921111 
L 197.26875 152.216891 
L 198.655824 153.515958 
L 200.042898 151.224539 
L 201.429972 145.703871 
L 202.817045 137.804986 
L 204.204119 128.899906 
L 205.591193 120.851964 
L 206.978267 115.255345 
L 208.365341 112.278299 
L 209.752415 110.369894 
L 211.139489 107.635041 
L 212.526563 104.006454 
L 213.913636 102.123606 
L 215.30071 105.588855 
L 216.687784 115.639144 
L 218.074858 129.08462 
L 219.461932 139.692217 
L 220.849006 142.343715 
L 222.23608 136.747307 
L 223.623153 127.624806 
L 225.010227 121.152666 
L 226.397301 120.534946 
L 229.171449 127.854123 
L 230.558523 128.169629 
L 231.945597 125.222988 
L 233.33267 121.664222 
L 234.719744 119.966228 
L 236.106818 120.306699 
L 237.493892 120.797877 
L 238.880966 119.528297 
L 241.655114 113.213676 
L 243.042188 112.058452 
L 244.429261 113.645127 
L 247.203409 119.972456 
L 248.590483 121.965328 
L 249.977557 123.461874 
L 251.364631 125.961447 
L 252.751705 130.437078 
L 254.138778 136.307861 
L 255.525852 141.64623 
L 256.912926 144.50265 
L 258.3 144.346732 
L 259.687074 142.470741 
L 261.074148 140.949884 
L 262.461222 140.903161 
L 263.848295 141.457955 
L 265.235369 140.375653 
L 266.622443 135.9844 
L 269.396591 122.181518 
L 270.783665 119.362037 
L 272.170739 122.267854 
L 273.557813 129.779481 
L 274.944886 138.666764 
L 276.33196 145.59374 
L 277.719034 148.754546 
L 279.106108 148.165754 
L 280.493182 144.897075 
L 283.26733 135.470518 
L 284.654403 131.895637 
L 286.041477 130.666752 
L 287.428551 132.124612 
L 290.202699 138.55291 
L 291.589773 140.275666 
L 292.976847 140.373289 
L 294.36392 139.970003 
L 295.750994 140.355566 
L 297.138068 141.854632 
L 298.525142 143.727367 
L 301.29929 146.575162 
L 302.686364 149.395413 
L 304.073438 155.146876 
L 306.847585 172.836797 
L 308.234659 179.241266 
L 309.621733 180.803273 
L 311.008807 178.124118 
L 312.395881 174.267085 
L 313.782955 172.653927 
L 315.170028 174.53622 
L 316.557102 177.932534 
L 317.944176 179.013848 
L 319.33125 175.136394 
L 322.105398 160.130167 
L 323.492472 158.710708 
L 324.879545 165.025938 
L 326.266619 176.166976 
L 327.653693 186.238078 
L 329.040767 190.553056 
L 330.427841 188.961528 
L 331.814915 185.706819 
L 333.201989 185.940589 
L 334.589063 191.673363 
L 335.976136 200.318068 
L 337.36321 206.803445 
L 338.750284 207.382346 
L 340.137358 202.113515 
L 341.524432 194.352303 
L 342.911506 188.081984 
L 344.29858 185.384836 
L 345.685653 185.766798 
L 347.072727 187.262988 
L 348.459801 187.971738 
L 349.846875 186.820853 
L 351.233949 183.439318 
L 352.621023 177.789744 
L 354.008097 170.091492 
L 358.169318 142.206524 
L 359.556392 134.376899 
L 360.943466 128.44044 
L 362.33054 124.999749 
L 363.717614 124.493641 
L 365.104688 126.570825 
L 366.491761 129.519296 
L 367.878835 130.529486 
L 369.265909 127.014479 
L 370.652983 118.241023 
L 373.427131 93.874142 
L 374.814205 84.86657 
L 376.201278 80.063049 
L 377.588352 78.27533 
L 378.975426 77.458142 
L 380.3625 76.482863 
L 381.749574 75.881098 
L 383.136648 77.02666 
L 384.523722 80.537037 
L 385.910795 85.33514 
L 387.297869 89.266767 
L 388.684943 90.844988 
L 390.072017 90.67216 
L 391.459091 91.247027 
L 392.846165 95.131892 
L 394.233239 102.833103 
L 395.620313 112.088156 
L 397.007386 119.214287 
L 398.39446 121.55547 
L 399.781534 119.184603 
L 401.168608 114.614027 
L 402.555682 110.854653 
L 403.942756 109.420926 
L 405.32983 109.775988 
L 406.716903 110.397702 
L 408.103977 110.305746 
L 409.491051 109.678924 
L 410.878125 109.210171 
L 412.265199 109.079052 
L 413.652273 108.702059 
L 415.039347 107.526315 
L 416.42642 105.97842 
L 417.813494 105.434848 
L 419.200568 107.026379 
L 420.587642 110.327043 
L 421.974716 113.27044 
L 423.36179 113.610064 
L 424.748864 110.793371 
L 426.135938 106.615048 
L 427.523011 103.993832 
L 428.910085 104.845412 
L 430.297159 108.82761 
L 431.684233 113.9613 
L 433.071307 118.46925 
L 435.845455 126.011085 
L 435.845455 126.011085 
" clip-path="url(#p2cf09b7cc1)" style="fill: none; stroke: #ff7f0e; stroke-width: 1.5; stroke-linecap: square"/>
   </g>
   <g id="patch_3">
    <path d="M 63 256.32 
L 63 34.56 
" style="fill: none; stroke: #000000; stroke-width: 0.8; stroke-linejoin: miter; stroke-linecap: square"/>
   </g>
   <g id="patch_4">
    <path d="M 453.6 256.32 
L 453.6 34.56 
" style="fill: none; stroke: #000000; stroke-width: 0.8; stroke-linejoin: miter; stroke-linecap: square"/>
   </g>
   <g id="patch_5">
    <path d="M 63 256.32 
L 453.6 256.32 
" style="fill: none; stroke: #000000; stroke-width: 0.8; stroke-linejoin: miter; stroke-linecap: square"/>
   </g>
   <g id="patch_6">
    <path d="M 63 34.56 
L 453.6 34.56 
" style="fill: none; stroke: #000000; stroke-width: 0.8; stroke-linejoin: miter; stroke-linecap: square"/>
   </g>
   <g id="text_12">
    <!-- ERP response - Shape trial 1  -->
    <g transform="translate(94.571875 28.56)scale(0.2 -0.2)">
     <defs>
      <path id="DejaVuSans-Bold-45" d="M 588 4666 
L 3834 4666 
L 3834 3756 
L 1791 3756 
L 1791 2888 
L 3713 2888 
L 3713 1978 
L 1791 1978 
L 1791 909 
L 3903 909 
L 3903 0 
L 588 0 
L 588 4666 
z
" transform="scale(0.015625)"/>
      <path id="DejaVuSans-Bold-52" d="M 2297 2597 
Q 2675 2597 2839 2737 
Q 3003 2878 3003 3200 
Q 3003 3519 2839 3656 
Q 2675 3794 2297 3794 
L 1791 3794 
L 1791 2597 
L 2297 2597 
z
M 1791 1766 
L 1791 0 
L 588 0 
L 588 4666 
L 2425 4666 
Q 3347 4666 3776 4356 
Q 4206 4047 4206 3378 
Q 4206 2916 3982 2619 
Q 3759 2322 3309 2181 
Q 3556 2125 3751 1926 
Q 3947 1728 4147 1325 
L 4800 0 
L 3519 0 
L 2950 1159 
Q 2778 1509 2601 1637 
Q 2425 1766 2131 1766 
L 1791 1766 
z
" transform="scale(0.015625)"/>
      <path id="DejaVuSans-Bold-50" d="M 588 4666 
L 2584 4666 
Q 3475 4666 3951 4270 
Q 4428 3875 4428 3144 
Q 4428 2409 3951 2014 
Q 3475 1619 2584 1619 
L 1791 1619 
L 1791 0 
L 588 0 
L 588 4666 
z
M 1791 3794 
L 1791 2491 
L 2456 2491 
Q 2806 2491 2997 2661 
Q 3188 2831 3188 3144 
Q 3188 3456 2997 3625 
Q 2806 3794 2456 3794 
L 1791 3794 
z
" transform="scale(0.015625)"/>
      <path id="DejaVuSans-Bold-20" transform="scale(0.015625)"/>
      <path id="DejaVuSans-Bold-72" d="M 3138 2547 
Q 2991 2616 2845 2648 
Q 2700 2681 2553 2681 
Q 2122 2681 1889 2404 
Q 1656 2128 1656 1613 
L 1656 0 
L 538 0 
L 538 3500 
L 1656 3500 
L 1656 2925 
Q 1872 3269 2151 3426 
Q 2431 3584 2822 3584 
Q 2878 3584 2943 3579 
Q 3009 3575 3134 3559 
L 3138 2547 
z
" transform="scale(0.015625)"/>
      <path id="DejaVuSans-Bold-65" d="M 4031 1759 
L 4031 1441 
L 1416 1441 
Q 1456 1047 1700 850 
Q 1944 653 2381 653 
Q 2734 653 3104 758 
Q 3475 863 3866 1075 
L 3866 213 
Q 3469 63 3072 -14 
Q 2675 -91 2278 -91 
Q 1328 -91 801 392 
Q 275 875 275 1747 
Q 275 2603 792 3093 
Q 1309 3584 2216 3584 
Q 3041 3584 3536 3087 
Q 4031 2591 4031 1759 
z
M 2881 2131 
Q 2881 2450 2695 2645 
Q 2509 2841 2209 2841 
Q 1884 2841 1681 2658 
Q 1478 2475 1428 2131 
L 2881 2131 
z
" transform="scale(0.015625)"/>
      <path id="DejaVuSans-Bold-73" d="M 3272 3391 
L 3272 2541 
Q 2913 2691 2578 2766 
Q 2244 2841 1947 2841 
Q 1628 2841 1473 2761 
Q 1319 2681 1319 2516 
Q 1319 2381 1436 2309 
Q 1553 2238 1856 2203 
L 2053 2175 
Q 2913 2066 3209 1816 
Q 3506 1566 3506 1031 
Q 3506 472 3093 190 
Q 2681 -91 1863 -91 
Q 1516 -91 1145 -36 
Q 775 19 384 128 
L 384 978 
Q 719 816 1070 734 
Q 1422 653 1784 653 
Q 2113 653 2278 743 
Q 2444 834 2444 1013 
Q 2444 1163 2330 1236 
Q 2216 1309 1875 1350 
L 1678 1375 
Q 931 1469 631 1722 
Q 331 1975 331 2491 
Q 331 3047 712 3315 
Q 1094 3584 1881 3584 
Q 2191 3584 2531 3537 
Q 2872 3491 3272 3391 
z
" transform="scale(0.015625)"/>
      <path id="DejaVuSans-Bold-70" d="M 1656 506 
L 1656 -1331 
L 538 -1331 
L 538 3500 
L 1656 3500 
L 1656 2988 
Q 1888 3294 2169 3439 
Q 2450 3584 2816 3584 
Q 3463 3584 3878 3070 
Q 4294 2556 4294 1747 
Q 4294 938 3878 423 
Q 3463 -91 2816 -91 
Q 2450 -91 2169 54 
Q 1888 200 1656 506 
z
M 2400 2772 
Q 2041 2772 1848 2508 
Q 1656 2244 1656 1747 
Q 1656 1250 1848 986 
Q 2041 722 2400 722 
Q 2759 722 2948 984 
Q 3138 1247 3138 1747 
Q 3138 2247 2948 2509 
Q 2759 2772 2400 2772 
z
" transform="scale(0.015625)"/>
      <path id="DejaVuSans-Bold-6f" d="M 2203 2784 
Q 1831 2784 1636 2517 
Q 1441 2250 1441 1747 
Q 1441 1244 1636 976 
Q 1831 709 2203 709 
Q 2569 709 2762 976 
Q 2956 1244 2956 1747 
Q 2956 2250 2762 2517 
Q 2569 2784 2203 2784 
z
M 2203 3584 
Q 3106 3584 3614 3096 
Q 4122 2609 4122 1747 
Q 4122 884 3614 396 
Q 3106 -91 2203 -91 
Q 1297 -91 786 396 
Q 275 884 275 1747 
Q 275 2609 786 3096 
Q 1297 3584 2203 3584 
z
" transform="scale(0.015625)"/>
      <path id="DejaVuSans-Bold-6e" d="M 4056 2131 
L 4056 0 
L 2931 0 
L 2931 347 
L 2931 1631 
Q 2931 2084 2911 2256 
Q 2891 2428 2841 2509 
Q 2775 2619 2662 2680 
Q 2550 2741 2406 2741 
Q 2056 2741 1856 2470 
Q 1656 2200 1656 1722 
L 1656 0 
L 538 0 
L 538 3500 
L 1656 3500 
L 1656 2988 
Q 1909 3294 2193 3439 
Q 2478 3584 2822 3584 
Q 3428 3584 3742 3212 
Q 4056 2841 4056 2131 
z
" transform="scale(0.015625)"/>
      <path id="DejaVuSans-Bold-2d" d="M 347 2297 
L 2309 2297 
L 2309 1388 
L 347 1388 
L 347 2297 
z
" transform="scale(0.015625)"/>
      <path id="DejaVuSans-Bold-53" d="M 3834 4519 
L 3834 3531 
Q 3450 3703 3084 3790 
Q 2719 3878 2394 3878 
Q 1963 3878 1756 3759 
Q 1550 3641 1550 3391 
Q 1550 3203 1689 3098 
Q 1828 2994 2194 2919 
L 2706 2816 
Q 3484 2659 3812 2340 
Q 4141 2022 4141 1434 
Q 4141 663 3683 286 
Q 3225 -91 2284 -91 
Q 1841 -91 1394 -6 
Q 947 78 500 244 
L 500 1259 
Q 947 1022 1364 901 
Q 1781 781 2169 781 
Q 2563 781 2772 912 
Q 2981 1044 2981 1288 
Q 2981 1506 2839 1625 
Q 2697 1744 2272 1838 
L 1806 1941 
Q 1106 2091 782 2419 
Q 459 2747 459 3303 
Q 459 4000 909 4375 
Q 1359 4750 2203 4750 
Q 2588 4750 2994 4692 
Q 3400 4634 3834 4519 
z
" transform="scale(0.015625)"/>
      <path id="DejaVuSans-Bold-68" d="M 4056 2131 
L 4056 0 
L 2931 0 
L 2931 347 
L 2931 1625 
Q 2931 2084 2911 2256 
Q 2891 2428 2841 2509 
Q 2775 2619 2662 2680 
Q 2550 2741 2406 2741 
Q 2056 2741 1856 2470 
Q 1656 2200 1656 1722 
L 1656 0 
L 538 0 
L 538 4863 
L 1656 4863 
L 1656 2988 
Q 1909 3294 2193 3439 
Q 2478 3584 2822 3584 
Q 3428 3584 3742 3212 
Q 4056 2841 4056 2131 
z
" transform="scale(0.015625)"/>
      <path id="DejaVuSans-Bold-61" d="M 2106 1575 
Q 1756 1575 1579 1456 
Q 1403 1338 1403 1106 
Q 1403 894 1545 773 
Q 1688 653 1941 653 
Q 2256 653 2472 879 
Q 2688 1106 2688 1447 
L 2688 1575 
L 2106 1575 
z
M 3816 1997 
L 3816 0 
L 2688 0 
L 2688 519 
Q 2463 200 2181 54 
Q 1900 -91 1497 -91 
Q 953 -91 614 226 
Q 275 544 275 1050 
Q 275 1666 698 1953 
Q 1122 2241 2028 2241 
L 2688 2241 
L 2688 2328 
Q 2688 2594 2478 2717 
Q 2269 2841 1825 2841 
Q 1466 2841 1156 2769 
Q 847 2697 581 2553 
L 581 3406 
Q 941 3494 1303 3539 
Q 1666 3584 2028 3584 
Q 2975 3584 3395 3211 
Q 3816 2838 3816 1997 
z
" transform="scale(0.015625)"/>
      <path id="DejaVuSans-Bold-74" d="M 1759 4494 
L 1759 3500 
L 2913 3500 
L 2913 2700 
L 1759 2700 
L 1759 1216 
Q 1759 972 1856 886 
Q 1953 800 2241 800 
L 2816 800 
L 2816 0 
L 1856 0 
Q 1194 0 917 276 
Q 641 553 641 1216 
L 641 2700 
L 84 2700 
L 84 3500 
L 641 3500 
L 641 4494 
L 1759 4494 
z
" transform="scale(0.015625)"/>
      <path id="DejaVuSans-Bold-69" d="M 538 3500 
L 1656 3500 
L 1656 0 
L 538 0 
L 538 3500 
z
M 538 4863 
L 1656 4863 
L 1656 3950 
L 538 3950 
L 538 4863 
z
" transform="scale(0.015625)"/>
      <path id="DejaVuSans-Bold-6c" d="M 538 4863 
L 1656 4863 
L 1656 0 
L 538 0 
L 538 4863 
z
" transform="scale(0.015625)"/>
      <path id="DejaVuSans-Bold-31" d="M 750 831 
L 1813 831 
L 1813 3847 
L 722 3622 
L 722 4441 
L 1806 4666 
L 2950 4666 
L 2950 831 
L 4013 831 
L 4013 0 
L 750 0 
L 750 831 
z
" transform="scale(0.015625)"/>
     </defs>
     <use xlink:href="#DejaVuSans-Bold-45"/>
     <use xlink:href="#DejaVuSans-Bold-52" x="68.310547"/>
     <use xlink:href="#DejaVuSans-Bold-50" x="145.3125"/>
     <use xlink:href="#DejaVuSans-Bold-20" x="218.603516"/>
     <use xlink:href="#DejaVuSans-Bold-72" x="253.417969"/>
     <use xlink:href="#DejaVuSans-Bold-65" x="302.734375"/>
     <use xlink:href="#DejaVuSans-Bold-73" x="370.556641"/>
     <use xlink:href="#DejaVuSans-Bold-70" x="430.078125"/>
     <use xlink:href="#DejaVuSans-Bold-6f" x="501.660156"/>
     <use xlink:href="#DejaVuSans-Bold-6e" x="570.361328"/>
     <use xlink:href="#DejaVuSans-Bold-73" x="641.552734"/>
     <use xlink:href="#DejaVuSans-Bold-65" x="701.074219"/>
     <use xlink:href="#DejaVuSans-Bold-20" x="768.896484"/>
     <use xlink:href="#DejaVuSans-Bold-2d" x="803.710938"/>
     <use xlink:href="#DejaVuSans-Bold-20" x="845.214844"/>
     <use xlink:href="#DejaVuSans-Bold-53" x="880.029297"/>
     <use xlink:href="#DejaVuSans-Bold-68" x="952.050781"/>
     <use xlink:href="#DejaVuSans-Bold-61" x="1023.242188"/>
     <use xlink:href="#DejaVuSans-Bold-70" x="1090.722656"/>
     <use xlink:href="#DejaVuSans-Bold-65" x="1162.304688"/>
     <use xlink:href="#DejaVuSans-Bold-20" x="1230.126953"/>
     <use xlink:href="#DejaVuSans-Bold-74" x="1264.941406"/>
     <use xlink:href="#DejaVuSans-Bold-72" x="1312.744141"/>
     <use xlink:href="#DejaVuSans-Bold-69" x="1362.060547"/>
     <use xlink:href="#DejaVuSans-Bold-61" x="1396.337891"/>
     <use xlink:href="#DejaVuSans-Bold-6c" x="1463.818359"/>
     <use xlink:href="#DejaVuSans-Bold-20" x="1498.095703"/>
     <use xlink:href="#DejaVuSans-Bold-31" x="1532.910156"/>
     <use xlink:href="#DejaVuSans-Bold-20" x="1602.490234"/>
    </g>
   </g>
   <g id="legend_1">
    <g id="patch_7">
     <path d="M 70 251.32 
L 168.203125 251.32 
Q 170.203125 251.32 170.203125 249.32 
L 170.203125 191.6075 
Q 170.203125 189.6075 168.203125 189.6075 
L 70 189.6075 
Q 68 189.6075 68 191.6075 
L 68 249.32 
Q 68 251.32 70 251.32 
z
" style="fill: #ffffff; opacity: 0.8; stroke: #cccccc; stroke-linejoin: miter"/>
    </g>
    <g id="line2d_14">
     <path d="M 72 197.705938 
L 82 197.705938 
L 92 197.705938 
" style="fill: none; stroke: #1f77b4; stroke-width: 1.5; stroke-linecap: square"/>
    </g>
    <g id="text_13">
     <!-- 'left' - Mean -->
     <g transform="translate(100 201.205938)scale(0.1 -0.1)">
      <defs>
       <path id="DejaVuSans-27" d="M 1147 4666 
L 1147 2931 
L 616 2931 
L 616 4666 
L 1147 4666 
z
" transform="scale(0.015625)"/>
       <path id="DejaVuSans-2d" d="M 313 2009 
L 1997 2009 
L 1997 1497 
L 313 1497 
L 313 2009 
z
" transform="scale(0.015625)"/>
       <path id="DejaVuSans-4d" d="M 628 4666 
L 1569 4666 
L 2759 1491 
L 3956 4666 
L 4897 4666 
L 4897 0 
L 4281 0 
L 4281 4097 
L 3078 897 
L 2444 897 
L 1241 4097 
L 1241 0 
L 628 0 
L 628 4666 
z
" transform="scale(0.015625)"/>
       <path id="DejaVuSans-61" d="M 2194 1759 
Q 1497 1759 1228 1600 
Q 959 1441 959 1056 
Q 959 750 1161 570 
Q 1363 391 1709 391 
Q 2188 391 2477 730 
Q 2766 1069 2766 1631 
L 2766 1759 
L 2194 1759 
z
M 3341 1997 
L 3341 0 
L 2766 0 
L 2766 531 
Q 2569 213 2275 61 
Q 1981 -91 1556 -91 
Q 1019 -91 701 211 
Q 384 513 384 1019 
Q 384 1609 779 1909 
Q 1175 2209 1959 2209 
L 2766 2209 
L 2766 2266 
Q 2766 2663 2505 2880 
Q 2244 3097 1772 3097 
Q 1472 3097 1187 3025 
Q 903 2953 641 2809 
L 641 3341 
Q 956 3463 1253 3523 
Q 1550 3584 1831 3584 
Q 2591 3584 2966 3190 
Q 3341 2797 3341 1997 
z
" transform="scale(0.015625)"/>
      </defs>
      <use xlink:href="#DejaVuSans-27"/>
      <use xlink:href="#DejaVuSans-6c" x="27.490234"/>
      <use xlink:href="#DejaVuSans-65" x="55.273438"/>
      <use xlink:href="#DejaVuSans-66" x="116.796875"/>
      <use xlink:href="#DejaVuSans-74" x="150.251953"/>
      <use xlink:href="#DejaVuSans-27" x="189.460938"/>
      <use xlink:href="#DejaVuSans-20" x="216.951172"/>
      <use xlink:href="#DejaVuSans-2d" x="248.738281"/>
      <use xlink:href="#DejaVuSans-20" x="284.822266"/>
      <use xlink:href="#DejaVuSans-4d" x="316.609375"/>
      <use xlink:href="#DejaVuSans-65" x="402.888672"/>
      <use xlink:href="#DejaVuSans-61" x="464.412109"/>
      <use xlink:href="#DejaVuSans-6e" x="525.691406"/>
     </g>
    </g>
    <g id="patch_8">
     <path d="M 72 215.884062 
L 92 215.884062 
L 92 208.884062 
L 72 208.884062 
z
" style="fill: #1f77b4; fill-opacity: 0.2"/>
    </g>
    <g id="text_14">
     <!-- 'left'- SEM -->
     <g transform="translate(100 215.884062)scale(0.1 -0.1)">
      <defs>
       <path id="DejaVuSans-53" d="M 3425 4513 
L 3425 3897 
Q 3066 4069 2747 4153 
Q 2428 4238 2131 4238 
Q 1616 4238 1336 4038 
Q 1056 3838 1056 3469 
Q 1056 3159 1242 3001 
Q 1428 2844 1947 2747 
L 2328 2669 
Q 3034 2534 3370 2195 
Q 3706 1856 3706 1288 
Q 3706 609 3251 259 
Q 2797 -91 1919 -91 
Q 1588 -91 1214 -16 
Q 841 59 441 206 
L 441 856 
Q 825 641 1194 531 
Q 1563 422 1919 422 
Q 2459 422 2753 634 
Q 3047 847 3047 1241 
Q 3047 1584 2836 1778 
Q 2625 1972 2144 2069 
L 1759 2144 
Q 1053 2284 737 2584 
Q 422 2884 422 3419 
Q 422 4038 858 4394 
Q 1294 4750 2059 4750 
Q 2388 4750 2728 4690 
Q 3069 4631 3425 4513 
z
" transform="scale(0.015625)"/>
       <path id="DejaVuSans-45" d="M 628 4666 
L 3578 4666 
L 3578 4134 
L 1259 4134 
L 1259 2753 
L 3481 2753 
L 3481 2222 
L 1259 2222 
L 1259 531 
L 3634 531 
L 3634 0 
L 628 0 
L 628 4666 
z
" transform="scale(0.015625)"/>
      </defs>
      <use xlink:href="#DejaVuSans-27"/>
      <use xlink:href="#DejaVuSans-6c" x="27.490234"/>
      <use xlink:href="#DejaVuSans-65" x="55.273438"/>
      <use xlink:href="#DejaVuSans-66" x="116.796875"/>
      <use xlink:href="#DejaVuSans-74" x="150.251953"/>
      <use xlink:href="#DejaVuSans-27" x="189.460938"/>
      <use xlink:href="#DejaVuSans-2d" x="216.951172"/>
      <use xlink:href="#DejaVuSans-20" x="253.035156"/>
      <use xlink:href="#DejaVuSans-53" x="284.822266"/>
      <use xlink:href="#DejaVuSans-45" x="348.298828"/>
      <use xlink:href="#DejaVuSans-4d" x="411.482422"/>
     </g>
    </g>
    <g id="line2d_15">
     <path d="M 72 227.062187 
L 82 227.062187 
L 92 227.062187 
" style="fill: none; stroke: #ff7f0e; stroke-width: 1.5; stroke-linecap: square"/>
    </g>
    <g id="text_15">
     <!-- 'right' - Mean -->
     <g transform="translate(100 230.562187)scale(0.1 -0.1)">
      <defs>
       <path id="DejaVuSans-67" d="M 2906 1791 
Q 2906 2416 2648 2759 
Q 2391 3103 1925 3103 
Q 1463 3103 1205 2759 
Q 947 2416 947 1791 
Q 947 1169 1205 825 
Q 1463 481 1925 481 
Q 2391 481 2648 825 
Q 2906 1169 2906 1791 
z
M 3481 434 
Q 3481 -459 3084 -895 
Q 2688 -1331 1869 -1331 
Q 1566 -1331 1297 -1286 
Q 1028 -1241 775 -1147 
L 775 -588 
Q 1028 -725 1275 -790 
Q 1522 -856 1778 -856 
Q 2344 -856 2625 -561 
Q 2906 -266 2906 331 
L 2906 616 
Q 2728 306 2450 153 
Q 2172 0 1784 0 
Q 1141 0 747 490 
Q 353 981 353 1791 
Q 353 2603 747 3093 
Q 1141 3584 1784 3584 
Q 2172 3584 2450 3431 
Q 2728 3278 2906 2969 
L 2906 3500 
L 3481 3500 
L 3481 434 
z
" transform="scale(0.015625)"/>
       <path id="DejaVuSans-68" d="M 3513 2113 
L 3513 0 
L 2938 0 
L 2938 2094 
Q 2938 2591 2744 2837 
Q 2550 3084 2163 3084 
Q 1697 3084 1428 2787 
Q 1159 2491 1159 1978 
L 1159 0 
L 581 0 
L 581 4863 
L 1159 4863 
L 1159 2956 
Q 1366 3272 1645 3428 
Q 1925 3584 2291 3584 
Q 2894 3584 3203 3211 
Q 3513 2838 3513 2113 
z
" transform="scale(0.015625)"/>
      </defs>
      <use xlink:href="#DejaVuSans-27"/>
      <use xlink:href="#DejaVuSans-72" x="27.490234"/>
      <use xlink:href="#DejaVuSans-69" x="68.603516"/>
      <use xlink:href="#DejaVuSans-67" x="96.386719"/>
      <use xlink:href="#DejaVuSans-68" x="159.863281"/>
      <use xlink:href="#DejaVuSans-74" x="223.242188"/>
      <use xlink:href="#DejaVuSans-27" x="262.451172"/>
      <use xlink:href="#DejaVuSans-20" x="289.941406"/>
      <use xlink:href="#DejaVuSans-2d" x="321.728516"/>
      <use xlink:href="#DejaVuSans-20" x="357.8125"/>
      <use xlink:href="#DejaVuSans-4d" x="389.599609"/>
      <use xlink:href="#DejaVuSans-65" x="475.878906"/>
      <use xlink:href="#DejaVuSans-61" x="537.402344"/>
      <use xlink:href="#DejaVuSans-6e" x="598.681641"/>
     </g>
    </g>
    <g id="patch_9">
     <path d="M 72 245.240313 
L 92 245.240313 
L 92 238.240313 
L 72 238.240313 
z
" style="fill: #ff7f0e; fill-opacity: 0.2"/>
    </g>
    <g id="text_16">
     <!-- 'right'- SEM -->
     <g transform="translate(100 245.240313)scale(0.1 -0.1)">
      <use xlink:href="#DejaVuSans-27"/>
      <use xlink:href="#DejaVuSans-72" x="27.490234"/>
      <use xlink:href="#DejaVuSans-69" x="68.603516"/>
      <use xlink:href="#DejaVuSans-67" x="96.386719"/>
      <use xlink:href="#DejaVuSans-68" x="159.863281"/>
      <use xlink:href="#DejaVuSans-74" x="223.242188"/>
      <use xlink:href="#DejaVuSans-27" x="262.451172"/>
      <use xlink:href="#DejaVuSans-2d" x="289.941406"/>
      <use xlink:href="#DejaVuSans-20" x="326.025391"/>
      <use xlink:href="#DejaVuSans-53" x="357.8125"/>
      <use xlink:href="#DejaVuSans-45" x="421.289062"/>
      <use xlink:href="#DejaVuSans-4d" x="484.472656"/>
     </g>
    </g>
   </g>
  </g>
 </g>
 <defs>
  <clipPath id="p2cf09b7cc1">
   <rect x="63" y="34.56" width="390.6" height="221.76"/>
  </clipPath>
 </defs>
</svg>
