<?xml version="1.0" encoding="utf-8" standalone="no"?>
<!DOCTYPE svg PUBLIC "-//W3C//DTD SVG 1.1//EN"
  "http://www.w3.org/Graphics/SVG/1.1/DTD/svg11.dtd">
<svg xmlns:xlink="http://www.w3.org/1999/xlink" width="504pt" height="288pt" viewBox="0 0 504 288" xmlns="http://www.w3.org/2000/svg" version="1.1">
 <metadata>
  <rdf:RDF xmlns:dc="http://purl.org/dc/elements/1.1/" xmlns:cc="http://creativecommons.org/ns#" xmlns:rdf="http://www.w3.org/1999/02/22-rdf-syntax-ns#">
   <cc:Work>
    <dc:type rdf:resource="http://purl.org/dc/dcmitype/StillImage"/>
    <dc:date>2023-09-22T12:45:27.631106</dc:date>
    <dc:format>image/svg+xml</dc:format>
    <dc:creator>
     <cc:Agent>
      <dc:title>Matplotlib v3.5.3, https://matplotlib.org/</dc:title>
     </cc:Agent>
    </dc:creator>
   </cc:Work>
  </rdf:RDF>
 </metadata>
 <defs>
  <style type="text/css">*{stroke-linejoin: round; stroke-linecap: butt}</style>
 </defs>
 <g id="figure_1">
  <g id="patch_1">
   <path d="M 0 288 
L 504 288 
L 504 0 
L 0 0 
z
" style="fill: #ffffff"/>
  </g>
  <g id="axes_1">
   <g id="patch_2">
    <path d="M 63 256.32 
L 453.6 256.32 
L 453.6 34.56 
L 63 34.56 
z
" style="fill: #ffffff"/>
   </g>
   <g id="PolyCollection_1">
    <path d="M 80.754545 123.199077 
L 80.754545 146.369173 
L 82.141619 140.115037 
L 83.528693 141.08742 
L 84.915767 147.656779 
L 86.302841 154.870624 
L 87.689915 158.653289 
L 89.076989 158.577104 
L 90.464062 156.40595 
L 91.851136 153.772949 
L 93.23821 151.424989 
L 94.625284 149.432448 
L 96.012358 147.714353 
L 97.399432 146.624486 
L 98.786506 147.24495 
L 100.17358 150.469085 
L 101.560653 155.1365 
L 102.947727 158.376312 
L 104.334801 158.829252 
L 105.721875 157.748686 
L 107.108949 157.289187 
L 108.496023 158.956985 
L 109.883097 162.775644 
L 111.27017 167.283525 
L 112.657244 170.919918 
L 114.044318 173.581616 
L 115.431392 176.597102 
L 116.818466 181.305857 
L 118.20554 187.520333 
L 119.592614 193.188797 
L 120.979687 195.892135 
L 122.366761 195.019064 
L 123.753835 192.116981 
L 125.140909 188.931386 
L 126.527983 185.514913 
L 127.915057 180.201675 
L 129.302131 171.197848 
L 130.689205 158.571989 
L 132.076278 145.024031 
L 133.463352 134.489287 
L 134.850426 129.795399 
L 136.2375 131.191861 
L 137.624574 136.134638 
L 139.011648 140.940012 
L 140.398722 143.819555 
L 141.785795 145.957741 
L 143.172869 149.591186 
L 144.559943 155.261462 
L 145.947017 161.047846 
L 147.334091 164.35137 
L 148.721165 164.148852 
L 150.108239 161.648934 
L 151.495312 159.13287 
L 152.882386 158.402402 
L 154.26946 159.773232 
L 155.656534 162.183128 
L 157.043608 164.737047 
L 158.430682 168.254558 
L 159.817756 174.744006 
L 161.20483 185.273893 
L 162.591903 198.39597 
L 163.978977 210.196087 
L 165.366051 216.078542 
L 166.753125 213.605696 
L 168.140199 204.331218 
L 169.527273 192.812973 
L 170.914347 183.595312 
L 172.30142 178.719746 
L 173.688494 177.335212 
L 175.075568 177.13694 
L 176.462642 176.2948 
L 177.849716 174.355406 
L 179.23679 171.829902 
L 180.623864 169.41187 
L 182.010937 167.378858 
L 183.398011 165.241015 
L 184.785085 162.081105 
L 186.172159 157.625718 
L 187.559233 152.700596 
L 188.946307 148.74834 
L 190.333381 147.234894 
L 191.720455 148.855305 
L 193.107528 152.881179 
L 194.494602 157.706411 
L 195.881676 161.871727 
L 197.26875 164.394637 
L 198.655824 164.643386 
L 200.042898 162.356784 
L 201.429972 157.912415 
L 202.817045 152.471747 
L 204.204119 147.688282 
L 205.591193 145.054777 
L 206.978267 145.265787 
L 208.365341 147.974135 
L 209.752415 151.865144 
L 211.139489 155.0766 
L 212.526563 156.485422 
L 213.913636 156.77399 
L 215.30071 157.804469 
L 216.687784 160.912886 
L 218.074858 165.908872 
L 219.461932 171.60034 
L 220.849006 176.915335 
L 222.23608 181.462358 
L 223.623153 185.237755 
L 225.010227 188.379907 
L 226.397301 191.606439 
L 227.784375 196.355521 
L 229.171449 203.97548 
L 230.558523 214.671022 
L 231.945597 227.010053 
L 233.33267 238.188825 
L 234.719744 245.151284 
L 236.106818 246.24 
L 237.493892 242.135213 
L 238.880966 235.357193 
L 240.26804 228.987944 
L 241.655114 225.323252 
L 243.042188 224.681267 
L 244.429261 225.103531 
L 245.816335 223.662114 
L 247.203409 218.603082 
L 248.590483 210.703717 
L 249.977557 202.961978 
L 251.364631 198.796404 
L 252.751705 199.559028 
L 254.138778 202.875898 
L 255.525852 203.638734 
L 256.912926 197.69853 
L 258.3 185.217857 
L 259.687074 170.611338 
L 261.074148 159.324575 
L 262.461222 154.087043 
L 263.848295 153.449728 
L 265.235369 153.860736 
L 266.622443 153.156709 
L 268.009517 152.121359 
L 269.396591 153.385991 
L 270.783665 158.988871 
L 272.170739 168.238156 
L 273.557813 177.837924 
L 274.944886 184.56227 
L 276.33196 187.554335 
L 277.719034 188.067411 
L 279.106108 187.559825 
L 280.493182 186.308187 
L 281.880256 183.627989 
L 283.26733 179.086639 
L 284.654403 173.524211 
L 286.041477 169.008206 
L 287.428551 167.491264 
L 288.815625 169.259202 
L 290.202699 172.841444 
L 291.589773 176.361932 
L 292.976847 178.66858 
L 294.36392 179.519281 
L 295.750994 179.354345 
L 297.138068 178.826006 
L 298.525142 178.395348 
L 299.912216 178.642855 
L 301.29929 180.572151 
L 302.686364 184.748159 
L 304.073438 190.472794 
L 305.460511 196.43177 
L 306.847585 201.537202 
L 308.234659 205.031607 
L 309.621733 206.378618 
L 311.008807 205.319572 
L 312.395881 201.924023 
L 313.782955 196.500435 
L 315.170028 189.491485 
L 316.557102 181.60995 
L 317.944176 174.172813 
L 319.33125 168.867503 
L 320.718324 166.519419 
L 322.105398 166.119149 
L 323.492472 165.520251 
L 324.879545 163.095444 
L 326.266619 158.827021 
L 327.653693 154.339732 
L 329.040767 151.935547 
L 330.427841 152.70116 
L 331.814915 155.030608 
L 333.201989 155.648247 
L 334.589063 152.429586 
L 335.976136 146.283736 
L 337.36321 140.644913 
L 338.750284 139.039195 
L 340.137358 142.791897 
L 341.524432 150.482493 
L 342.911506 158.864822 
L 344.29858 164.430945 
L 345.685653 165.273987 
L 347.072727 162.338374 
L 348.459801 158.47904 
L 349.846875 155.858886 
L 351.233949 154.294965 
L 352.621023 151.978637 
L 354.008097 147.503205 
L 355.39517 141.490373 
L 356.782244 136.544289 
L 358.169318 135.225744 
L 359.556392 137.753597 
L 360.943466 141.784839 
L 362.33054 144.67343 
L 363.717614 146.239841 
L 365.104688 149.335628 
L 366.491761 157.4538 
L 367.878835 171.534381 
L 369.265909 188.395037 
L 370.652983 202.205001 
L 372.040057 208.831441 
L 373.427131 209.349933 
L 374.814205 208.878492 
L 376.201278 211.620816 
L 377.588352 217.039967 
L 378.975426 220.828602 
L 380.3625 219.264371 
L 381.749574 212.848521 
L 383.136648 206.227344 
L 384.523722 204.408897 
L 385.910795 208.484295 
L 387.297869 214.826142 
L 388.684943 218.407373 
L 390.072017 216.733271 
L 391.459091 211.031814 
L 392.846165 204.519064 
L 394.233239 199.721237 
L 395.620313 197.080886 
L 397.007386 195.648915 
L 398.39446 194.565195 
L 399.781534 193.674872 
L 401.168608 193.163835 
L 402.555682 193.052102 
L 403.942756 193.047145 
L 405.32983 192.486557 
L 406.716903 190.381073 
L 408.103977 186.061449 
L 409.491051 179.722525 
L 410.878125 172.516224 
L 412.265199 166.466185 
L 413.652273 163.700076 
L 415.039347 164.84423 
L 416.42642 168.272279 
L 417.813494 171.391733 
L 419.200568 172.832308 
L 420.587642 173.74931 
L 421.974716 176.981752 
L 423.36179 184.357537 
L 424.748864 194.637419 
L 426.135938 204.187657 
L 427.523011 209.791033 
L 428.910085 211.147973 
L 430.297159 210.691597 
L 431.684233 210.876698 
L 433.071307 211.759098 
L 434.458381 210.877772 
L 435.845455 205.262905 
L 435.845455 152.332765 
L 435.845455 152.332765 
L 434.458381 152.468458 
L 433.071307 148.434159 
L 431.684233 144.426978 
L 430.297159 143.131236 
L 428.910085 143.313192 
L 427.523011 141.321689 
L 426.135938 134.838428 
L 424.748864 125.149343 
L 423.36179 116.159533 
L 421.974716 111.156154 
L 420.587642 110.283112 
L 419.200568 110.978975 
L 417.813494 110.576792 
L 416.42642 108.618563 
L 415.039347 107.039865 
L 413.652273 108.237652 
L 412.265199 113.181911 
L 410.878125 121.223023 
L 409.491051 130.882349 
L 408.103977 140.609894 
L 406.716903 149.143925 
L 405.32983 155.28465 
L 403.942756 157.812703 
L 402.555682 156.356188 
L 401.168608 152.081042 
L 399.781534 146.775295 
L 398.39446 141.526873 
L 397.007386 136.506816 
L 395.620313 131.878635 
L 394.233239 128.587235 
L 392.846165 127.870666 
L 391.459091 129.799366 
L 390.072017 132.310642 
L 388.684943 132.208871 
L 387.297869 127.881412 
L 385.910795 121.20625 
L 384.523722 116.496594 
L 383.136648 117.284573 
L 381.749574 123.564601 
L 380.3625 131.673045 
L 378.975426 137.247299 
L 377.588352 138.881142 
L 376.201278 138.900859 
L 374.814205 140.490398 
L 373.427131 144.269534 
L 372.040057 147.547359 
L 370.652983 146.504182 
L 369.265909 139.440473 
L 367.878835 128.521357 
L 366.491761 118.387878 
L 365.104688 112.38035 
L 363.717614 109.872177 
L 362.33054 107.748726 
L 360.943466 104.081706 
L 359.556392 100.021233 
L 358.169318 98.561079 
L 356.782244 101.652837 
L 355.39517 108.353959 
L 354.008097 115.54399 
L 352.621023 120.357769 
L 351.233949 122.272543 
L 349.846875 123.095202 
L 348.459801 124.857997 
L 347.072727 127.794404 
L 345.685653 130.144668 
L 344.29858 129.440287 
L 342.911506 124.331639 
L 341.524432 116.125508 
L 340.137358 108.621969 
L 338.750284 105.563332 
L 337.36321 107.80872 
L 335.976136 112.919847 
L 334.589063 117.258909 
L 333.201989 118.462661 
L 331.814915 116.56111 
L 330.427841 113.392043 
L 329.040767 111.064182 
L 327.653693 110.747459 
L 326.266619 112.079664 
L 324.879545 113.462442 
L 323.492472 113.622629 
L 322.105398 112.936108 
L 320.718324 112.956133 
L 319.33125 114.947973 
L 317.944176 119.156208 
L 316.557102 124.994044 
L 315.170028 131.379912 
L 313.782955 137.196008 
L 312.395881 141.785371 
L 311.008807 144.903263 
L 309.621733 146.230575 
L 308.234659 145.263461 
L 306.847585 141.843766 
L 305.460511 136.723414 
L 304.073438 131.367637 
L 302.686364 126.899884 
L 301.29929 123.291332 
L 299.912216 119.992248 
L 298.525142 117.070008 
L 297.138068 114.949634 
L 295.750994 113.598512 
L 294.36392 112.447694 
L 292.976847 110.620883 
L 291.589773 107.344833 
L 290.202699 102.839731 
L 288.815625 98.756756 
L 287.428551 97.268969 
L 286.041477 99.67604 
L 284.654403 105.620243 
L 283.26733 113.142996 
L 281.880256 119.709125 
L 280.493182 123.842625 
L 279.106108 125.901698 
L 277.719034 127.078197 
L 276.33196 127.781219 
L 274.944886 127.178641 
L 273.557813 124.236591 
L 272.170739 119.100128 
L 270.783665 113.503618 
L 269.396591 109.887749 
L 268.009517 109.614639 
L 266.622443 111.584805 
L 265.235369 113.341634 
L 263.848295 113.927172 
L 262.461222 115.142044 
L 261.074148 119.892569 
L 259.687074 129.361999 
L 258.3 141.270329 
L 256.912926 150.850565 
L 255.525852 154.185757 
L 254.138778 151.02578 
L 252.751705 144.846885 
L 251.364631 140.449879 
L 249.977557 140.729314 
L 248.590483 144.802736 
L 247.203409 149.137178 
L 245.816335 150.68535 
L 244.429261 149.144701 
L 243.042188 146.667054 
L 241.655114 145.974368 
L 240.26804 148.675381 
L 238.880966 154.475721 
L 237.493892 161.237772 
L 236.106818 165.971909 
L 234.719744 166.309828 
L 233.33267 161.480044 
L 231.945597 152.519706 
L 230.558523 141.977096 
L 229.171449 132.937208 
L 227.784375 127.535526 
L 226.397301 126.064322 
L 225.010227 127.223506 
L 223.623153 128.94511 
L 222.23608 129.325153 
L 220.849006 127.587217 
L 219.461932 124.461507 
L 218.074858 121.403633 
L 216.687784 119.500262 
L 215.30071 118.999735 
L 213.913636 119.485781 
L 212.526563 120.232814 
L 211.139489 120.311897 
L 209.752415 118.824293 
L 208.365341 115.702247 
L 206.978267 112.46016 
L 205.591193 111.450261 
L 204.204119 113.937082 
L 202.817045 119.181921 
L 201.429972 125.14771 
L 200.042898 129.860654 
L 198.655824 132.326923 
L 197.26875 132.560795 
L 195.881676 131.130465 
L 194.494602 128.799317 
L 193.107528 126.385278 
L 191.720455 124.65251 
L 190.333381 124.236066 
L 188.946307 125.691765 
L 187.559233 129.096375 
L 186.172159 133.3562 
L 184.785085 136.629053 
L 183.398011 137.575747 
L 182.010937 136.088337 
L 180.623864 133.356859 
L 179.23679 131.137951 
L 177.849716 130.256061 
L 176.462642 129.978323 
L 175.075568 129.164681 
L 173.688494 127.926358 
L 172.30142 128.064922 
L 170.914347 131.903272 
L 169.527273 140.282132 
L 168.140199 151.219354 
L 166.753125 160.55617 
L 165.366051 164.242764 
L 163.978977 160.682121 
L 162.591903 151.748204 
L 161.20483 141.704705 
L 159.817756 134.395258 
L 158.430682 130.870841 
L 157.043608 129.630623 
L 155.656534 128.826998 
L 154.26946 127.971983 
L 152.882386 128.087064 
L 151.495312 130.550555 
L 150.108239 135.321648 
L 148.721165 140.266123 
L 147.334091 142.687674 
L 145.947017 141.436082 
L 144.559943 137.354572 
L 143.172869 132.124702 
L 141.785795 126.908344 
L 140.398722 121.901267 
L 139.011648 116.701896 
L 137.624574 111.094571 
L 136.2375 105.879206 
L 134.850426 103.229021 
L 133.463352 105.722296 
L 132.076278 113.808169 
L 130.689205 124.743134 
L 129.302131 134.553555 
L 127.915057 140.809157 
L 126.527983 143.951228 
L 125.140909 146.284235 
L 123.753835 149.405974 
L 122.366761 152.546302 
L 120.979687 153.456056 
L 119.592614 150.65142 
L 118.20554 144.903211 
L 116.818466 139.06016 
L 115.431392 136.100874 
L 114.044318 136.649098 
L 112.657244 138.433652 
L 111.27017 138.470788 
L 109.883097 135.802653 
L 108.496023 132.219027 
L 107.108949 130.526086 
L 105.721875 131.751758 
L 104.334801 133.988668 
L 102.947727 134.471403 
L 101.560653 132.282827 
L 100.17358 128.398586 
L 98.786506 124.651653 
L 97.399432 123.116708 
L 96.012358 124.432078 
L 94.625284 127.215711 
L 93.23821 129.955493 
L 91.851136 132.569928 
L 90.464062 135.508343 
L 89.076989 137.901197 
L 87.689915 137.557142 
L 86.302841 133.212516 
L 84.915767 126.10538 
L 83.528693 119.465486 
L 82.141619 117.479961 
L 80.754545 123.199077 
z
" clip-path="url(#pacf7a18dde)" style="fill: #1f77b4; fill-opacity: 0.2"/>
   </g>
   <g id="PolyCollection_2">
    <path d="M 80.754545 87.772906 
L 80.754545 132.123134 
L 82.141619 122.207265 
L 83.528693 117.849932 
L 84.915767 121.574462 
L 86.302841 129.687223 
L 87.689915 135.815752 
L 89.076989 136.224344 
L 90.464062 132.098049 
L 91.851136 127.861884 
L 93.23821 127.469503 
L 94.625284 131.304806 
L 96.012358 136.410897 
L 97.399432 140.018465 
L 98.786506 142.188568 
L 100.17358 144.634657 
L 101.560653 147.836048 
L 102.947727 150.538086 
L 104.334801 151.424596 
L 105.721875 150.113274 
L 107.108949 148.050309 
L 108.496023 148.570541 
L 109.883097 153.55872 
L 111.27017 159.937646 
L 112.657244 163.373541 
L 114.044318 163.486226 
L 115.431392 163.26201 
L 116.818466 165.700433 
L 118.20554 171.674883 
L 119.592614 179.644083 
L 120.979687 187.337503 
L 122.366761 193.902669 
L 123.753835 200.196539 
L 125.140909 207.037016 
L 126.527983 212.988222 
L 127.915057 214.456901 
L 129.302131 209.316135 
L 130.689205 199.936481 
L 132.076278 191.431825 
L 133.463352 187.911331 
L 134.850426 190.719718 
L 136.2375 197.730043 
L 137.624574 203.828472 
L 139.011648 204.388474 
L 140.398722 198.90398 
L 141.785795 190.340281 
L 143.172869 181.224065 
L 144.559943 171.918794 
L 145.947017 162.416915 
L 147.334091 153.590085 
L 148.721165 146.501359 
L 150.108239 141.286604 
L 151.495312 137.364361 
L 152.882386 133.822794 
L 154.26946 129.161179 
L 155.656534 122.110598 
L 157.043608 112.749804 
L 158.430682 102.393898 
L 159.817756 92.933059 
L 161.20483 86.436317 
L 162.591903 84.684305 
L 163.978977 88.378783 
L 165.366051 96.429741 
L 166.753125 106.090594 
L 168.140199 114.336525 
L 169.527273 119.497387 
L 170.914347 121.887879 
L 172.30142 123.125472 
L 173.688494 124.392378 
L 175.075568 125.102951 
L 176.462642 124.105287 
L 177.849716 121.875311 
L 179.23679 120.555031 
L 180.623864 122.351869 
L 182.010937 128.103096 
L 183.398011 136.431207 
L 184.785085 143.744117 
L 186.172159 146.055253 
L 187.559233 141.909527 
L 188.946307 133.261129 
L 190.333381 123.647441 
L 191.720455 116.49898 
L 193.107528 113.916474 
L 194.494602 115.017518 
L 195.881676 116.680477 
L 197.26875 117.228983 
L 198.655824 117.37562 
L 200.042898 118.272519 
L 201.429972 121.242337 
L 202.817045 126.472329 
L 204.204119 131.323116 
L 205.591193 131.904352 
L 206.978267 126.610223 
L 208.365341 117.459381 
L 209.752415 108.909807 
L 211.139489 105.537174 
L 212.526563 109.106946 
L 213.913636 117.923653 
L 215.30071 128.513397 
L 216.687784 136.997132 
L 218.074858 141.160202 
L 219.461932 142.923547 
L 220.849006 146.591383 
L 222.23608 154.181018 
L 223.623153 164.26373 
L 225.010227 174.080701 
L 226.397301 181.305106 
L 227.784375 185.465491 
L 229.171449 188.616716 
L 230.558523 193.631795 
L 231.945597 201.108449 
L 233.33267 208.167392 
L 234.719744 210.613132 
L 236.106818 206.40816 
L 237.493892 197.501783 
L 238.880966 188.922758 
L 240.26804 185.719137 
L 241.655114 189.514556 
L 243.042188 197.550919 
L 244.429261 205.287287 
L 245.816335 209.781765 
L 247.203409 211.028879 
L 248.590483 211.015649 
L 249.977557 211.43399 
L 251.364631 211.781984 
L 252.751705 209.593798 
L 254.138778 202.944937 
L 255.525852 192.727181 
L 256.912926 182.163839 
L 258.3 174.395087 
L 259.687074 170.610485 
L 261.074148 170.168713 
L 262.461222 172.050028 
L 263.848295 175.630221 
L 265.235369 180.056384 
L 266.622443 183.630247 
L 268.009517 184.279062 
L 269.396591 180.927945 
L 270.783665 174.636226 
L 272.170739 168.033675 
L 273.557813 163.310389 
L 274.944886 160.896161 
L 276.33196 159.564672 
L 277.719034 157.269309 
L 279.106108 152.835584 
L 280.493182 146.962149 
L 281.880256 140.584892 
L 283.26733 133.844064 
L 284.654403 127.771565 
L 286.041477 124.404544 
L 287.428551 124.855862 
L 288.815625 129.409946 
L 290.202699 137.67002 
L 291.589773 146.930337 
L 292.976847 154.600897 
L 294.36392 161.591064 
L 295.750994 170.458849 
L 297.138068 182.164801 
L 298.525142 195.411332 
L 299.912216 207.374867 
L 301.29929 215.905695 
L 302.686364 221.829392 
L 304.073438 227.24925 
L 305.460511 231.796406 
L 306.847585 231.869009 
L 308.234659 223.634327 
L 309.621733 207.268434 
L 311.008807 188.763008 
L 312.395881 176.562328 
L 313.782955 175.395729 
L 315.170028 182.772684 
L 316.557102 190.722901 
L 317.944176 191.671737 
L 319.33125 184.116357 
L 320.718324 172.582893 
L 322.105398 162.337362 
L 323.492472 155.128261 
L 324.879545 149.74321 
L 326.266619 145.200712 
L 327.653693 142.181483 
L 329.040767 142.318245 
L 330.427841 146.627697 
L 331.814915 152.190306 
L 333.201989 152.751098 
L 334.589063 146.943235 
L 335.976136 141.077665 
L 337.36321 140.373644 
L 338.750284 144.573424 
L 340.137358 151.543823 
L 341.524432 158.064937 
L 342.911506 162.139055 
L 344.29858 166.566029 
L 345.685653 175.011518 
L 347.072727 186.549606 
L 348.459801 196.238487 
L 349.846875 199.149111 
L 351.233949 194.626936 
L 352.621023 187.825807 
L 354.008097 185.582676 
L 355.39517 190.489631 
L 356.782244 199.331101 
L 358.169318 206.521752 
L 359.556392 209.209309 
L 360.943466 209.636421 
L 362.33054 212.340391 
L 363.717614 219.086888 
L 365.104688 226.643173 
L 366.491761 229.430598 
L 367.878835 224.95536 
L 369.265909 216.587331 
L 370.652983 210.224583 
L 372.040057 209.117299 
L 373.427131 212.127475 
L 374.814205 214.934638 
L 376.201278 213.030846 
L 377.588352 206.103465 
L 378.975426 198.89068 
L 380.3625 196.440256 
L 381.749574 199.866326 
L 383.136648 206.223232 
L 384.523722 210.722207 
L 385.910795 210.071909 
L 387.297869 204.781174 
L 388.684943 197.917781 
L 390.072017 191.796931 
L 391.459091 186.276945 
L 392.846165 180.352662 
L 394.233239 174.782155 
L 395.620313 172.270479 
L 397.007386 175.222944 
L 398.39446 183.286443 
L 399.781534 192.433055 
L 401.168608 197.299596 
L 402.555682 195.715853 
L 403.942756 190.999599 
L 405.32983 189.566699 
L 406.716903 196.045769 
L 408.103977 209.58183 
L 409.491051 223.798638 
L 410.878125 231.045092 
L 412.265199 228.149881 
L 413.652273 218.548733 
L 415.039347 208.924362 
L 416.42642 203.892767 
L 417.813494 203.325428 
L 419.200568 203.379425 
L 420.587642 199.570129 
L 421.974716 190.541181 
L 423.36179 179.658055 
L 424.748864 171.893887 
L 426.135938 169.042938 
L 427.523011 169.329439 
L 428.910085 170.712051 
L 430.297159 172.235816 
L 431.684233 173.453505 
L 433.071307 174.071354 
L 434.458381 173.562103 
L 435.845455 171.296755 
L 435.845455 95.626174 
L 435.845455 95.626174 
L 434.458381 98.851369 
L 433.071307 101.071382 
L 431.684233 101.957056 
L 430.297159 102.518619 
L 428.910085 103.311016 
L 427.523011 104.270905 
L 426.135938 106.123898 
L 424.748864 110.046741 
L 423.36179 116.185791 
L 421.974716 123.514621 
L 420.587642 129.698155 
L 419.200568 131.543956 
L 417.813494 128.038662 
L 416.42642 122.874322 
L 415.039347 121.858139 
L 413.652273 127.138677 
L 412.265199 134.827301 
L 410.878125 138.147183 
L 409.491051 132.919673 
L 408.103977 120.985767 
L 406.716903 109.176581 
L 405.32983 104.375198 
L 403.942756 108.226502 
L 402.555682 116.258237 
L 401.168608 122.190542 
L 399.781534 122.945986 
L 398.39446 120.163682 
L 397.007386 118.083837 
L 395.620313 119.919639 
L 394.233239 125.285388 
L 392.846165 131.015578 
L 391.459091 134.506419 
L 390.072017 135.653592 
L 388.684943 136.08641 
L 387.297869 137.301159 
L 385.910795 139.12784 
L 384.523722 139.742084 
L 383.136648 137.556551 
L 381.749574 133.565877 
L 380.3625 131.504605 
L 378.975426 134.361802 
L 377.588352 140.919139 
L 376.201278 146.666273 
L 374.814205 147.250773 
L 373.427131 141.744294 
L 372.040057 134.494903 
L 370.652983 131.985762 
L 369.265909 136.061352 
L 367.878835 141.942182 
L 366.491761 143.13568 
L 365.104688 137.031469 
L 363.717614 126.662373 
L 362.33054 118.134045 
L 360.943466 115.249551 
L 359.556392 116.172254 
L 358.169318 115.798554 
L 356.782244 111.397321 
L 355.39517 105.992126 
L 354.008097 105.914826 
L 352.621023 114.344809 
L 351.233949 127.534351 
L 349.846875 137.634953 
L 348.459801 138.96669 
L 347.072727 132.585286 
L 345.685653 125.083036 
L 344.29858 121.765975 
L 342.911506 122.115694 
L 341.524432 122.211596 
L 340.137358 118.859133 
L 338.750284 112.79788 
L 337.36321 109.719143 
L 335.976136 113.19802 
L 334.589063 119.078602 
L 333.201989 122.225484 
L 331.814915 121.613658 
L 330.427841 117.874923 
L 329.040767 113.305889 
L 327.653693 111.665014 
L 326.266619 113.546983 
L 324.879545 115.867031 
L 323.492472 117.092043 
L 322.105398 119.129129 
L 320.718324 123.931192 
L 319.33125 129.923688 
L 317.944176 132.283373 
L 316.557102 126.950186 
L 315.170028 114.874767 
L 313.782955 102.979835 
L 312.395881 99.922025 
L 311.008807 109.126383 
L 309.621733 125.918643 
L 308.234659 141.545942 
L 306.847585 149.800109 
L 305.460511 150.718194 
L 304.073438 148.739249 
L 302.686364 147.498496 
L 301.29929 146.864951 
L 299.912216 144.345041 
L 298.525142 138.000607 
L 297.138068 128.600717 
L 295.750994 119.447545 
L 294.36392 112.974412 
L 292.976847 108.672453 
L 291.589773 104.917607 
L 290.202699 100.540725 
L 288.815625 95.26567 
L 287.428551 91.053951 
L 286.041477 90.682097 
L 284.654403 94.157019 
L 283.26733 99.924604 
L 281.880256 107.109086 
L 280.493182 114.522378 
L 279.106108 120.384503 
L 277.719034 123.909457 
L 276.33196 125.37279 
L 274.944886 125.594577 
L 273.557813 126.189569 
L 272.170739 128.541017 
L 270.783665 132.220422 
L 269.396591 135.40939 
L 268.009517 136.570147 
L 266.622443 135.426337 
L 265.235369 132.77795 
L 263.848295 129.505703 
L 262.461222 125.872238 
L 261.074148 122.125007 
L 259.687074 119.536034 
L 258.3 120.255067 
L 256.912926 125.862489 
L 255.525852 135.672796 
L 254.138778 146.330492 
L 252.751705 153.581397 
L 251.364631 155.062174 
L 249.977557 151.920797 
L 248.590483 147.877131 
L 247.203409 145.90987 
L 245.816335 145.466399 
L 244.429261 143.349068 
L 243.042188 137.571465 
L 241.655114 130.076149 
L 240.26804 125.413934 
L 238.880966 127.014037 
L 237.493892 134.27691 
L 236.106818 142.594375 
L 234.719744 146.735053 
L 233.33267 144.911755 
L 231.945597 139.664622 
L 230.558523 135.118773 
L 229.171449 133.651483 
L 227.784375 134.532836 
L 226.397301 134.862709 
L 225.010227 131.946272 
L 223.623153 125.695734 
L 222.23608 118.897819 
L 220.849006 114.350034 
L 219.461932 112.021251 
L 218.074858 109.87394 
L 216.687784 105.760275 
L 215.30071 97.976862 
L 213.913636 87.086842 
L 212.526563 77.514004 
L 211.139489 74.524842 
L 209.752415 79.613125 
L 208.365341 89.516138 
L 206.978267 98.33784 
L 205.591193 101.118971 
L 204.204119 97.235328 
L 202.817045 90.139597 
L 201.429972 84.364748 
L 200.042898 82.895939 
L 198.655824 85.390324 
L 197.26875 88.164203 
L 195.881676 87.840777 
L 194.494602 85.197327 
L 193.107528 83.360302 
L 191.720455 85.034569 
L 190.333381 91.555377 
L 188.946307 101.430171 
L 187.559233 110.326902 
L 186.172159 114.14783 
L 184.785085 111.574836 
L 183.398011 103.938813 
L 182.010937 94.368627 
L 180.623864 86.666916 
L 179.23679 83.20578 
L 177.849716 83.494099 
L 176.462642 85.142382 
L 175.075568 85.996637 
L 173.688494 85.140898 
L 172.30142 82.703643 
L 170.914347 79.541098 
L 169.527273 76.186905 
L 168.140199 71.795013 
L 166.753125 65.102146 
L 165.366051 56.426899 
L 163.978977 48.383772 
L 162.591903 44.64 
L 161.20483 47.61106 
L 159.817756 56.820321 
L 158.430682 69.309212 
L 157.043608 81.610162 
L 155.656534 91.624061 
L 154.26946 99.059375 
L 152.882386 104.410506 
L 151.495312 108.099847 
L 150.108239 110.842117 
L 148.721165 113.692671 
L 147.334091 117.14875 
L 145.947017 121.414107 
L 144.559943 127.016542 
L 143.172869 133.953717 
L 141.785795 140.505502 
L 140.398722 143.737436 
L 139.011648 141.841133 
L 137.624574 135.093776 
L 136.2375 125.259157 
L 134.850426 115.658645 
L 133.463352 111.000432 
L 132.076278 114.454425 
L 130.689205 124.064087 
L 129.302131 134.026699 
L 127.915057 139.793958 
L 126.527983 140.551264 
L 125.140909 138.060062 
L 123.753835 134.762909 
L 122.366761 131.988983 
L 120.979687 129.158179 
L 119.592614 125.351164 
L 118.20554 121.397926 
L 116.818466 119.595186 
L 115.431392 121.280615 
L 114.044318 124.836064 
L 112.657244 126.841692 
L 111.27017 125.525851 
L 109.883097 121.763867 
L 108.496023 117.240946 
L 107.108949 113.948122 
L 105.721875 113.254904 
L 104.334801 113.229386 
L 102.947727 110.480171 
L 101.560653 104.437241 
L 100.17358 97.519384 
L 98.786506 91.761836 
L 97.399432 87.452962 
L 96.012358 84.148405 
L 94.625284 81.856285 
L 93.23821 81.464397 
L 91.851136 84.015247 
L 90.464062 88.963905 
L 89.076989 93.057792 
L 87.689915 92.346357 
L 86.302841 86.139451 
L 84.915767 78.413924 
L 83.528693 74.930492 
L 82.141619 78.789375 
L 80.754545 87.772906 
z
" clip-path="url(#pacf7a18dde)" style="fill: #ff7f0e; fill-opacity: 0.2"/>
   </g>
   <g id="matplotlib.axis_1">
    <g id="xtick_1">
     <g id="line2d_1">
      <defs>
       <path id="m232ce952a8" d="M 0 0 
L 0 3.5 
" style="stroke: #000000; stroke-width: 0.8"/>
      </defs>
      <g>
       <use xlink:href="#m232ce952a8" x="116.541051" y="256.32" style="stroke: #000000; stroke-width: 0.8"/>
      </g>
     </g>
     <g id="text_1">
      <!-- −0.2 -->
      <g transform="translate(97.114801 275.4775)scale(0.16 -0.16)">
       <defs>
        <path id="DejaVuSans-2212" d="M 678 2272 
L 4684 2272 
L 4684 1741 
L 678 1741 
L 678 2272 
z
" transform="scale(0.015625)"/>
        <path id="DejaVuSans-30" d="M 2034 4250 
Q 1547 4250 1301 3770 
Q 1056 3291 1056 2328 
Q 1056 1369 1301 889 
Q 1547 409 2034 409 
Q 2525 409 2770 889 
Q 3016 1369 3016 2328 
Q 3016 3291 2770 3770 
Q 2525 4250 2034 4250 
z
M 2034 4750 
Q 2819 4750 3233 4129 
Q 3647 3509 3647 2328 
Q 3647 1150 3233 529 
Q 2819 -91 2034 -91 
Q 1250 -91 836 529 
Q 422 1150 422 2328 
Q 422 3509 836 4129 
Q 1250 4750 2034 4750 
z
" transform="scale(0.015625)"/>
        <path id="DejaVuSans-2e" d="M 684 794 
L 1344 794 
L 1344 0 
L 684 0 
L 684 794 
z
" transform="scale(0.015625)"/>
        <path id="DejaVuSans-32" d="M 1228 531 
L 3431 531 
L 3431 0 
L 469 0 
L 469 531 
Q 828 903 1448 1529 
Q 2069 2156 2228 2338 
Q 2531 2678 2651 2914 
Q 2772 3150 2772 3378 
Q 2772 3750 2511 3984 
Q 2250 4219 1831 4219 
Q 1534 4219 1204 4116 
Q 875 4013 500 3803 
L 500 4441 
Q 881 4594 1212 4672 
Q 1544 4750 1819 4750 
Q 2544 4750 2975 4387 
Q 3406 4025 3406 3419 
Q 3406 3131 3298 2873 
Q 3191 2616 2906 2266 
Q 2828 2175 2409 1742 
Q 1991 1309 1228 531 
z
" transform="scale(0.015625)"/>
       </defs>
       <use xlink:href="#DejaVuSans-2212"/>
       <use xlink:href="#DejaVuSans-30" x="83.789062"/>
       <use xlink:href="#DejaVuSans-2e" x="147.412109"/>
       <use xlink:href="#DejaVuSans-32" x="179.199219"/>
      </g>
     </g>
    </g>
    <g id="xtick_2">
     <g id="line2d_2">
      <g>
       <use xlink:href="#m232ce952a8" x="187.559233" y="256.32" style="stroke: #000000; stroke-width: 0.8"/>
      </g>
     </g>
     <g id="text_2">
      <!-- 0.0 -->
      <g transform="translate(174.836733 275.4775)scale(0.16 -0.16)">
       <use xlink:href="#DejaVuSans-30"/>
       <use xlink:href="#DejaVuSans-2e" x="63.623047"/>
       <use xlink:href="#DejaVuSans-30" x="95.410156"/>
      </g>
     </g>
    </g>
    <g id="xtick_3">
     <g id="line2d_3">
      <g>
       <use xlink:href="#m232ce952a8" x="258.577415" y="256.32" style="stroke: #000000; stroke-width: 0.8"/>
      </g>
     </g>
     <g id="text_3">
      <!-- 0.2 -->
      <g transform="translate(245.854915 275.4775)scale(0.16 -0.16)">
       <use xlink:href="#DejaVuSans-30"/>
       <use xlink:href="#DejaVuSans-2e" x="63.623047"/>
       <use xlink:href="#DejaVuSans-32" x="95.410156"/>
      </g>
     </g>
    </g>
    <g id="xtick_4">
     <g id="line2d_4">
      <g>
       <use xlink:href="#m232ce952a8" x="329.595597" y="256.32" style="stroke: #000000; stroke-width: 0.8"/>
      </g>
     </g>
     <g id="text_4">
      <!-- 0.4 -->
      <g transform="translate(316.873097 275.4775)scale(0.16 -0.16)">
       <defs>
        <path id="DejaVuSans-34" d="M 2419 4116 
L 825 1625 
L 2419 1625 
L 2419 4116 
z
M 2253 4666 
L 3047 4666 
L 3047 1625 
L 3713 1625 
L 3713 1100 
L 3047 1100 
L 3047 0 
L 2419 0 
L 2419 1100 
L 313 1100 
L 313 1709 
L 2253 4666 
z
" transform="scale(0.015625)"/>
       </defs>
       <use xlink:href="#DejaVuSans-30"/>
       <use xlink:href="#DejaVuSans-2e" x="63.623047"/>
       <use xlink:href="#DejaVuSans-34" x="95.410156"/>
      </g>
     </g>
    </g>
    <g id="xtick_5">
     <g id="line2d_5">
      <g>
       <use xlink:href="#m232ce952a8" x="400.613778" y="256.32" style="stroke: #000000; stroke-width: 0.8"/>
      </g>
     </g>
     <g id="text_5">
      <!-- 0.6 -->
      <g transform="translate(387.891278 275.4775)scale(0.16 -0.16)">
       <defs>
        <path id="DejaVuSans-36" d="M 2113 2584 
Q 1688 2584 1439 2293 
Q 1191 2003 1191 1497 
Q 1191 994 1439 701 
Q 1688 409 2113 409 
Q 2538 409 2786 701 
Q 3034 994 3034 1497 
Q 3034 2003 2786 2293 
Q 2538 2584 2113 2584 
z
M 3366 4563 
L 3366 3988 
Q 3128 4100 2886 4159 
Q 2644 4219 2406 4219 
Q 1781 4219 1451 3797 
Q 1122 3375 1075 2522 
Q 1259 2794 1537 2939 
Q 1816 3084 2150 3084 
Q 2853 3084 3261 2657 
Q 3669 2231 3669 1497 
Q 3669 778 3244 343 
Q 2819 -91 2113 -91 
Q 1303 -91 875 529 
Q 447 1150 447 2328 
Q 447 3434 972 4092 
Q 1497 4750 2381 4750 
Q 2619 4750 2861 4703 
Q 3103 4656 3366 4563 
z
" transform="scale(0.015625)"/>
       </defs>
       <use xlink:href="#DejaVuSans-30"/>
       <use xlink:href="#DejaVuSans-2e" x="63.623047"/>
       <use xlink:href="#DejaVuSans-36" x="95.410156"/>
      </g>
     </g>
    </g>
    <g id="text_6">
     <!-- Time from event (s) -->
     <g transform="translate(169.41375 296.482188)scale(0.18 -0.18)">
      <defs>
       <path id="DejaVuSans-54" d="M -19 4666 
L 3928 4666 
L 3928 4134 
L 2272 4134 
L 2272 0 
L 1638 0 
L 1638 4134 
L -19 4134 
L -19 4666 
z
" transform="scale(0.015625)"/>
       <path id="DejaVuSans-69" d="M 603 3500 
L 1178 3500 
L 1178 0 
L 603 0 
L 603 3500 
z
M 603 4863 
L 1178 4863 
L 1178 4134 
L 603 4134 
L 603 4863 
z
" transform="scale(0.015625)"/>
       <path id="DejaVuSans-6d" d="M 3328 2828 
Q 3544 3216 3844 3400 
Q 4144 3584 4550 3584 
Q 5097 3584 5394 3201 
Q 5691 2819 5691 2113 
L 5691 0 
L 5113 0 
L 5113 2094 
Q 5113 2597 4934 2840 
Q 4756 3084 4391 3084 
Q 3944 3084 3684 2787 
Q 3425 2491 3425 1978 
L 3425 0 
L 2847 0 
L 2847 2094 
Q 2847 2600 2669 2842 
Q 2491 3084 2119 3084 
Q 1678 3084 1418 2786 
Q 1159 2488 1159 1978 
L 1159 0 
L 581 0 
L 581 3500 
L 1159 3500 
L 1159 2956 
Q 1356 3278 1631 3431 
Q 1906 3584 2284 3584 
Q 2666 3584 2933 3390 
Q 3200 3197 3328 2828 
z
" transform="scale(0.015625)"/>
       <path id="DejaVuSans-65" d="M 3597 1894 
L 3597 1613 
L 953 1613 
Q 991 1019 1311 708 
Q 1631 397 2203 397 
Q 2534 397 2845 478 
Q 3156 559 3463 722 
L 3463 178 
Q 3153 47 2828 -22 
Q 2503 -91 2169 -91 
Q 1331 -91 842 396 
Q 353 884 353 1716 
Q 353 2575 817 3079 
Q 1281 3584 2069 3584 
Q 2775 3584 3186 3129 
Q 3597 2675 3597 1894 
z
M 3022 2063 
Q 3016 2534 2758 2815 
Q 2500 3097 2075 3097 
Q 1594 3097 1305 2825 
Q 1016 2553 972 2059 
L 3022 2063 
z
" transform="scale(0.015625)"/>
       <path id="DejaVuSans-20" transform="scale(0.015625)"/>
       <path id="DejaVuSans-66" d="M 2375 4863 
L 2375 4384 
L 1825 4384 
Q 1516 4384 1395 4259 
Q 1275 4134 1275 3809 
L 1275 3500 
L 2222 3500 
L 2222 3053 
L 1275 3053 
L 1275 0 
L 697 0 
L 697 3053 
L 147 3053 
L 147 3500 
L 697 3500 
L 697 3744 
Q 697 4328 969 4595 
Q 1241 4863 1831 4863 
L 2375 4863 
z
" transform="scale(0.015625)"/>
       <path id="DejaVuSans-72" d="M 2631 2963 
Q 2534 3019 2420 3045 
Q 2306 3072 2169 3072 
Q 1681 3072 1420 2755 
Q 1159 2438 1159 1844 
L 1159 0 
L 581 0 
L 581 3500 
L 1159 3500 
L 1159 2956 
Q 1341 3275 1631 3429 
Q 1922 3584 2338 3584 
Q 2397 3584 2469 3576 
Q 2541 3569 2628 3553 
L 2631 2963 
z
" transform="scale(0.015625)"/>
       <path id="DejaVuSans-6f" d="M 1959 3097 
Q 1497 3097 1228 2736 
Q 959 2375 959 1747 
Q 959 1119 1226 758 
Q 1494 397 1959 397 
Q 2419 397 2687 759 
Q 2956 1122 2956 1747 
Q 2956 2369 2687 2733 
Q 2419 3097 1959 3097 
z
M 1959 3584 
Q 2709 3584 3137 3096 
Q 3566 2609 3566 1747 
Q 3566 888 3137 398 
Q 2709 -91 1959 -91 
Q 1206 -91 779 398 
Q 353 888 353 1747 
Q 353 2609 779 3096 
Q 1206 3584 1959 3584 
z
" transform="scale(0.015625)"/>
       <path id="DejaVuSans-76" d="M 191 3500 
L 800 3500 
L 1894 563 
L 2988 3500 
L 3597 3500 
L 2284 0 
L 1503 0 
L 191 3500 
z
" transform="scale(0.015625)"/>
       <path id="DejaVuSans-6e" d="M 3513 2113 
L 3513 0 
L 2938 0 
L 2938 2094 
Q 2938 2591 2744 2837 
Q 2550 3084 2163 3084 
Q 1697 3084 1428 2787 
Q 1159 2491 1159 1978 
L 1159 0 
L 581 0 
L 581 3500 
L 1159 3500 
L 1159 2956 
Q 1366 3272 1645 3428 
Q 1925 3584 2291 3584 
Q 2894 3584 3203 3211 
Q 3513 2838 3513 2113 
z
" transform="scale(0.015625)"/>
       <path id="DejaVuSans-74" d="M 1172 4494 
L 1172 3500 
L 2356 3500 
L 2356 3053 
L 1172 3053 
L 1172 1153 
Q 1172 725 1289 603 
Q 1406 481 1766 481 
L 2356 481 
L 2356 0 
L 1766 0 
Q 1100 0 847 248 
Q 594 497 594 1153 
L 594 3053 
L 172 3053 
L 172 3500 
L 594 3500 
L 594 4494 
L 1172 4494 
z
" transform="scale(0.015625)"/>
       <path id="DejaVuSans-28" d="M 1984 4856 
Q 1566 4138 1362 3434 
Q 1159 2731 1159 2009 
Q 1159 1288 1364 580 
Q 1569 -128 1984 -844 
L 1484 -844 
Q 1016 -109 783 600 
Q 550 1309 550 2009 
Q 550 2706 781 3412 
Q 1013 4119 1484 4856 
L 1984 4856 
z
" transform="scale(0.015625)"/>
       <path id="DejaVuSans-73" d="M 2834 3397 
L 2834 2853 
Q 2591 2978 2328 3040 
Q 2066 3103 1784 3103 
Q 1356 3103 1142 2972 
Q 928 2841 928 2578 
Q 928 2378 1081 2264 
Q 1234 2150 1697 2047 
L 1894 2003 
Q 2506 1872 2764 1633 
Q 3022 1394 3022 966 
Q 3022 478 2636 193 
Q 2250 -91 1575 -91 
Q 1294 -91 989 -36 
Q 684 19 347 128 
L 347 722 
Q 666 556 975 473 
Q 1284 391 1588 391 
Q 1994 391 2212 530 
Q 2431 669 2431 922 
Q 2431 1156 2273 1281 
Q 2116 1406 1581 1522 
L 1381 1569 
Q 847 1681 609 1914 
Q 372 2147 372 2553 
Q 372 3047 722 3315 
Q 1072 3584 1716 3584 
Q 2034 3584 2315 3537 
Q 2597 3491 2834 3397 
z
" transform="scale(0.015625)"/>
       <path id="DejaVuSans-29" d="M 513 4856 
L 1013 4856 
Q 1481 4119 1714 3412 
Q 1947 2706 1947 2009 
Q 1947 1309 1714 600 
Q 1481 -109 1013 -844 
L 513 -844 
Q 928 -128 1133 580 
Q 1338 1288 1338 2009 
Q 1338 2731 1133 3434 
Q 928 4138 513 4856 
z
" transform="scale(0.015625)"/>
      </defs>
      <use xlink:href="#DejaVuSans-54"/>
      <use xlink:href="#DejaVuSans-69" x="57.958984"/>
      <use xlink:href="#DejaVuSans-6d" x="85.742188"/>
      <use xlink:href="#DejaVuSans-65" x="183.154297"/>
      <use xlink:href="#DejaVuSans-20" x="244.677734"/>
      <use xlink:href="#DejaVuSans-66" x="276.464844"/>
      <use xlink:href="#DejaVuSans-72" x="311.669922"/>
      <use xlink:href="#DejaVuSans-6f" x="350.533203"/>
      <use xlink:href="#DejaVuSans-6d" x="411.714844"/>
      <use xlink:href="#DejaVuSans-20" x="509.126953"/>
      <use xlink:href="#DejaVuSans-65" x="540.914062"/>
      <use xlink:href="#DejaVuSans-76" x="602.4375"/>
      <use xlink:href="#DejaVuSans-65" x="661.617188"/>
      <use xlink:href="#DejaVuSans-6e" x="723.140625"/>
      <use xlink:href="#DejaVuSans-74" x="786.519531"/>
      <use xlink:href="#DejaVuSans-20" x="825.728516"/>
      <use xlink:href="#DejaVuSans-28" x="857.515625"/>
      <use xlink:href="#DejaVuSans-73" x="896.529297"/>
      <use xlink:href="#DejaVuSans-29" x="948.628906"/>
     </g>
    </g>
   </g>
   <g id="matplotlib.axis_2">
    <g id="ytick_1">
     <g id="line2d_6">
      <defs>
       <path id="mef9e8274b6" d="M 0 0 
L -3.5 0 
" style="stroke: #000000; stroke-width: 0.8"/>
      </defs>
      <g>
       <use xlink:href="#mef9e8274b6" x="63" y="210.558939" style="stroke: #000000; stroke-width: 0.8"/>
      </g>
     </g>
     <g id="text_7">
      <!-- −5 -->
      <g transform="translate(32.4125 216.637689)scale(0.16 -0.16)">
       <defs>
        <path id="DejaVuSans-35" d="M 691 4666 
L 3169 4666 
L 3169 4134 
L 1269 4134 
L 1269 2991 
Q 1406 3038 1543 3061 
Q 1681 3084 1819 3084 
Q 2600 3084 3056 2656 
Q 3513 2228 3513 1497 
Q 3513 744 3044 326 
Q 2575 -91 1722 -91 
Q 1428 -91 1123 -41 
Q 819 9 494 109 
L 494 744 
Q 775 591 1075 516 
Q 1375 441 1709 441 
Q 2250 441 2565 725 
Q 2881 1009 2881 1497 
Q 2881 1984 2565 2268 
Q 2250 2553 1709 2553 
Q 1456 2553 1204 2497 
Q 953 2441 691 2322 
L 691 4666 
z
" transform="scale(0.015625)"/>
       </defs>
       <use xlink:href="#DejaVuSans-2212"/>
       <use xlink:href="#DejaVuSans-35" x="83.789062"/>
      </g>
     </g>
    </g>
    <g id="ytick_2">
     <g id="line2d_7">
      <g>
       <use xlink:href="#mef9e8274b6" x="63" y="141.555851" style="stroke: #000000; stroke-width: 0.8"/>
      </g>
     </g>
     <g id="text_8">
      <!-- 0 -->
      <g transform="translate(45.82 147.634601)scale(0.16 -0.16)">
       <use xlink:href="#DejaVuSans-30"/>
      </g>
     </g>
    </g>
    <g id="ytick_3">
     <g id="line2d_8">
      <g>
       <use xlink:href="#mef9e8274b6" x="63" y="72.552763" style="stroke: #000000; stroke-width: 0.8"/>
      </g>
     </g>
     <g id="text_9">
      <!-- 5 -->
      <g transform="translate(45.82 78.631513)scale(0.16 -0.16)">
       <use xlink:href="#DejaVuSans-35"/>
      </g>
     </g>
    </g>
    <g id="text_10">
     <!-- Amplitude (uV) -->
     <g transform="translate(24.669062 213.304219)rotate(-90)scale(0.18 -0.18)">
      <defs>
       <path id="DejaVuSans-41" d="M 2188 4044 
L 1331 1722 
L 3047 1722 
L 2188 4044 
z
M 1831 4666 
L 2547 4666 
L 4325 0 
L 3669 0 
L 3244 1197 
L 1141 1197 
L 716 0 
L 50 0 
L 1831 4666 
z
" transform="scale(0.015625)"/>
       <path id="DejaVuSans-70" d="M 1159 525 
L 1159 -1331 
L 581 -1331 
L 581 3500 
L 1159 3500 
L 1159 2969 
Q 1341 3281 1617 3432 
Q 1894 3584 2278 3584 
Q 2916 3584 3314 3078 
Q 3713 2572 3713 1747 
Q 3713 922 3314 415 
Q 2916 -91 2278 -91 
Q 1894 -91 1617 61 
Q 1341 213 1159 525 
z
M 3116 1747 
Q 3116 2381 2855 2742 
Q 2594 3103 2138 3103 
Q 1681 3103 1420 2742 
Q 1159 2381 1159 1747 
Q 1159 1113 1420 752 
Q 1681 391 2138 391 
Q 2594 391 2855 752 
Q 3116 1113 3116 1747 
z
" transform="scale(0.015625)"/>
       <path id="DejaVuSans-6c" d="M 603 4863 
L 1178 4863 
L 1178 0 
L 603 0 
L 603 4863 
z
" transform="scale(0.015625)"/>
       <path id="DejaVuSans-75" d="M 544 1381 
L 544 3500 
L 1119 3500 
L 1119 1403 
Q 1119 906 1312 657 
Q 1506 409 1894 409 
Q 2359 409 2629 706 
Q 2900 1003 2900 1516 
L 2900 3500 
L 3475 3500 
L 3475 0 
L 2900 0 
L 2900 538 
Q 2691 219 2414 64 
Q 2138 -91 1772 -91 
Q 1169 -91 856 284 
Q 544 659 544 1381 
z
M 1991 3584 
L 1991 3584 
z
" transform="scale(0.015625)"/>
       <path id="DejaVuSans-64" d="M 2906 2969 
L 2906 4863 
L 3481 4863 
L 3481 0 
L 2906 0 
L 2906 525 
Q 2725 213 2448 61 
Q 2172 -91 1784 -91 
Q 1150 -91 751 415 
Q 353 922 353 1747 
Q 353 2572 751 3078 
Q 1150 3584 1784 3584 
Q 2172 3584 2448 3432 
Q 2725 3281 2906 2969 
z
M 947 1747 
Q 947 1113 1208 752 
Q 1469 391 1925 391 
Q 2381 391 2643 752 
Q 2906 1113 2906 1747 
Q 2906 2381 2643 2742 
Q 2381 3103 1925 3103 
Q 1469 3103 1208 2742 
Q 947 2381 947 1747 
z
" transform="scale(0.015625)"/>
       <path id="DejaVuSans-56" d="M 1831 0 
L 50 4666 
L 709 4666 
L 2188 738 
L 3669 4666 
L 4325 4666 
L 2547 0 
L 1831 0 
z
" transform="scale(0.015625)"/>
      </defs>
      <use xlink:href="#DejaVuSans-41"/>
      <use xlink:href="#DejaVuSans-6d" x="68.408203"/>
      <use xlink:href="#DejaVuSans-70" x="165.820312"/>
      <use xlink:href="#DejaVuSans-6c" x="229.296875"/>
      <use xlink:href="#DejaVuSans-69" x="257.080078"/>
      <use xlink:href="#DejaVuSans-74" x="284.863281"/>
      <use xlink:href="#DejaVuSans-75" x="324.072266"/>
      <use xlink:href="#DejaVuSans-64" x="387.451172"/>
      <use xlink:href="#DejaVuSans-65" x="450.927734"/>
      <use xlink:href="#DejaVuSans-20" x="512.451172"/>
      <use xlink:href="#DejaVuSans-28" x="544.238281"/>
      <use xlink:href="#DejaVuSans-75" x="583.251953"/>
      <use xlink:href="#DejaVuSans-56" x="646.630859"/>
      <use xlink:href="#DejaVuSans-29" x="715.039062"/>
     </g>
    </g>
   </g>
   <g id="line2d_9">
    <path d="M 63 141.555851 
L 453.6 141.555851 
" clip-path="url(#pacf7a18dde)" style="fill: none; stroke: #000000; stroke-width: 0.5; stroke-linecap: square"/>
   </g>
   <g id="line2d_10">
    <path d="M 187.559233 256.32 
L 187.559233 34.56 
" clip-path="url(#pacf7a18dde)" style="fill: none; stroke-dasharray: 1.85,0.8; stroke-dashoffset: 0; stroke: #000000; stroke-width: 0.5"/>
   </g>
   <g id="line2d_11">
    <path d="M 80.754545 134.784125 
L 82.141619 128.797499 
L 83.528693 130.276453 
L 84.915767 136.88108 
L 86.302841 144.04157 
L 87.689915 148.105215 
L 89.076989 148.23915 
L 90.464062 145.957147 
L 91.851136 143.171438 
L 94.625284 138.32408 
L 96.012358 136.073215 
L 97.399432 134.870597 
L 98.786506 135.948302 
L 100.17358 139.433835 
L 101.560653 143.709663 
L 102.947727 146.423858 
L 104.334801 146.40896 
L 105.721875 144.750222 
L 107.108949 143.907636 
L 108.496023 145.588006 
L 111.27017 152.877156 
L 112.657244 154.676785 
L 114.044318 155.115357 
L 115.431392 156.348988 
L 116.818466 160.183008 
L 119.592614 171.920108 
L 120.979687 174.674095 
L 122.366761 173.782683 
L 126.527983 164.73307 
L 127.915057 160.505416 
L 129.302131 152.875701 
L 130.689205 141.657562 
L 132.076278 129.4161 
L 133.463352 120.105791 
L 134.850426 116.51221 
L 136.2375 118.535534 
L 139.011648 128.820954 
L 140.398722 132.860411 
L 141.785795 136.433043 
L 143.172869 140.857944 
L 144.559943 146.308017 
L 145.947017 151.241964 
L 147.334091 153.519522 
L 148.721165 152.207487 
L 151.495312 144.841712 
L 152.882386 143.244733 
L 154.26946 143.872607 
L 157.043608 147.183835 
L 158.430682 149.562699 
L 159.817756 154.569632 
L 161.20483 163.489299 
L 162.591903 175.072087 
L 163.978977 185.439104 
L 165.366051 190.160653 
L 166.753125 187.080933 
L 168.140199 177.775286 
L 169.527273 166.547552 
L 170.914347 157.749292 
L 172.30142 153.392334 
L 173.688494 152.630785 
L 175.075568 153.150811 
L 176.462642 153.136562 
L 179.23679 151.483926 
L 180.623864 151.384365 
L 182.010937 151.733597 
L 183.398011 151.408381 
L 184.785085 149.355079 
L 186.172159 145.490959 
L 187.559233 140.898485 
L 188.946307 137.220053 
L 190.333381 135.73548 
L 191.720455 136.753907 
L 193.107528 139.633228 
L 194.494602 143.252864 
L 195.881676 146.501096 
L 197.26875 148.477716 
L 198.655824 148.485154 
L 200.042898 146.108719 
L 201.429972 141.530063 
L 202.817045 135.826834 
L 204.204119 130.812682 
L 205.591193 128.252519 
L 206.978267 128.862973 
L 208.365341 131.838191 
L 209.752415 135.344718 
L 211.139489 137.694249 
L 212.526563 138.359118 
L 213.913636 138.129886 
L 215.30071 138.402102 
L 216.687784 140.206574 
L 218.074858 143.656253 
L 220.849006 152.251276 
L 222.23608 155.393756 
L 223.623153 157.091433 
L 225.010227 157.801707 
L 226.397301 158.83538 
L 227.784375 161.945524 
L 229.171449 168.456344 
L 230.558523 178.324059 
L 231.945597 189.76488 
L 233.33267 199.834435 
L 234.719744 205.730556 
L 236.106818 206.105955 
L 237.493892 201.686493 
L 238.880966 194.916457 
L 240.26804 188.831663 
L 241.655114 185.64881 
L 243.042188 185.67416 
L 244.429261 187.124116 
L 245.816335 187.173732 
L 247.203409 183.87013 
L 249.977557 171.845646 
L 251.364631 169.623141 
L 252.751705 172.202956 
L 254.138778 176.950839 
L 255.525852 178.912245 
L 256.912926 174.274547 
L 258.3 163.244093 
L 259.687074 149.986669 
L 261.074148 139.608572 
L 262.461222 134.614543 
L 263.848295 133.68845 
L 265.235369 133.601185 
L 266.622443 132.370757 
L 268.009517 130.867999 
L 269.396591 131.63687 
L 270.783665 136.246245 
L 273.557813 151.037257 
L 274.944886 155.870456 
L 276.33196 157.667777 
L 277.719034 157.572804 
L 279.106108 156.730762 
L 280.493182 155.075406 
L 281.880256 151.668557 
L 283.26733 146.114817 
L 284.654403 139.572227 
L 286.041477 134.342123 
L 287.428551 132.380117 
L 288.815625 134.007979 
L 291.589773 141.853382 
L 292.976847 144.644732 
L 294.36392 145.983488 
L 297.138068 146.88782 
L 298.525142 147.732678 
L 299.912216 149.317552 
L 301.29929 151.931741 
L 302.686364 155.824022 
L 304.073438 160.920215 
L 305.460511 166.577592 
L 306.847585 171.690484 
L 308.234659 175.147534 
L 309.621733 176.304596 
L 311.008807 175.111418 
L 312.395881 171.854697 
L 313.782955 166.848222 
L 315.170028 160.435698 
L 317.944176 146.664511 
L 319.33125 141.907738 
L 320.718324 139.737776 
L 322.105398 139.527629 
L 323.492472 139.57144 
L 324.879545 138.278943 
L 327.653693 132.543595 
L 329.040767 131.499865 
L 330.427841 133.046601 
L 331.814915 135.795859 
L 333.201989 137.055454 
L 334.589063 134.844247 
L 337.36321 124.226816 
L 338.750284 122.301264 
L 340.137358 125.706933 
L 341.524432 133.304 
L 342.911506 141.598231 
L 344.29858 146.935616 
L 345.685653 147.709327 
L 347.072727 145.066389 
L 348.459801 141.668519 
L 349.846875 139.477044 
L 351.233949 138.283754 
L 352.621023 136.168203 
L 354.008097 131.523597 
L 355.39517 124.922166 
L 356.782244 119.098563 
L 358.169318 116.893412 
L 359.556392 118.887415 
L 360.943466 122.933273 
L 362.33054 126.211078 
L 363.717614 128.056009 
L 365.104688 130.857989 
L 366.491761 137.920839 
L 367.878835 150.027869 
L 369.265909 163.917755 
L 370.652983 174.354591 
L 372.040057 178.1894 
L 373.427131 176.809734 
L 374.814205 174.684445 
L 376.201278 175.260837 
L 377.588352 177.960554 
L 378.975426 179.037951 
L 380.3625 175.468708 
L 381.749574 168.206561 
L 383.136648 161.755959 
L 384.523722 160.452745 
L 385.910795 164.845272 
L 387.297869 171.353777 
L 388.684943 175.308122 
L 390.072017 174.521957 
L 392.846165 166.194865 
L 394.233239 164.154236 
L 395.620313 164.479761 
L 397.007386 166.077865 
L 398.39446 168.046034 
L 399.781534 170.225084 
L 401.168608 172.622438 
L 402.555682 174.704145 
L 403.942756 175.429924 
L 405.32983 173.885604 
L 406.716903 169.762499 
L 408.103977 163.335671 
L 412.265199 139.824048 
L 413.652273 135.968864 
L 415.039347 135.942047 
L 417.813494 140.984263 
L 419.200568 141.905642 
L 420.587642 142.016211 
L 421.974716 144.068953 
L 423.36179 150.258535 
L 426.135938 169.513042 
L 427.523011 175.556361 
L 428.910085 177.230583 
L 430.297159 176.911416 
L 431.684233 177.651838 
L 433.071307 180.096629 
L 434.458381 181.673115 
L 435.845455 178.797835 
L 435.845455 178.797835 
" clip-path="url(#pacf7a18dde)" style="fill: none; stroke: #1f77b4; stroke-width: 1.5; stroke-linecap: square"/>
   </g>
   <g id="line2d_12">
    <path d="M 80.754545 109.94802 
L 82.141619 100.49832 
L 83.528693 96.390212 
L 84.915767 99.994193 
L 86.302841 107.913337 
L 87.689915 114.081055 
L 89.076989 114.641068 
L 90.464062 110.530977 
L 91.851136 105.938565 
L 93.23821 104.46695 
L 94.625284 106.580546 
L 97.399432 113.735713 
L 98.786506 116.975202 
L 100.17358 121.077021 
L 101.560653 126.136645 
L 102.947727 130.509129 
L 104.334801 132.326991 
L 107.108949 130.999216 
L 108.496023 132.905743 
L 111.27017 142.731748 
L 112.657244 145.107616 
L 114.044318 144.161145 
L 115.431392 142.271312 
L 116.818466 142.64781 
L 118.20554 146.536404 
L 120.979687 158.247841 
L 126.527983 176.769743 
L 127.915057 177.12543 
L 129.302131 171.671417 
L 132.076278 152.943125 
L 133.463352 149.455882 
L 134.850426 153.189182 
L 137.624574 169.461124 
L 139.011648 173.114803 
L 140.398722 171.320708 
L 141.785795 165.422892 
L 145.947017 141.915511 
L 147.334091 135.369418 
L 148.721165 130.097015 
L 150.108239 126.064361 
L 152.882386 119.11665 
L 154.26946 114.110277 
L 155.656534 106.867329 
L 157.043608 97.179983 
L 159.817756 74.87669 
L 161.20483 67.023688 
L 162.591903 64.662152 
L 163.978977 68.381278 
L 165.366051 76.42832 
L 166.753125 85.59637 
L 168.140199 93.065769 
L 169.527273 97.842146 
L 170.914347 100.714488 
L 172.30142 102.914558 
L 173.688494 104.766638 
L 175.075568 105.549794 
L 176.462642 104.623834 
L 177.849716 102.684705 
L 179.23679 101.880405 
L 180.623864 104.509393 
L 182.010937 111.235861 
L 183.398011 120.18501 
L 184.785085 127.659477 
L 186.172159 130.101541 
L 187.559233 126.118215 
L 188.946307 117.34565 
L 190.333381 107.601409 
L 191.720455 100.766774 
L 193.107528 98.638388 
L 194.494602 100.107423 
L 195.881676 102.260627 
L 197.26875 102.696593 
L 198.655824 101.382972 
L 200.042898 100.584229 
L 201.429972 102.803542 
L 202.817045 108.305963 
L 204.204119 114.279222 
L 205.591193 116.511661 
L 206.978267 112.474031 
L 209.752415 94.261466 
L 211.139489 90.031008 
L 212.526563 93.310475 
L 213.913636 102.505247 
L 215.30071 113.245129 
L 216.687784 121.378704 
L 218.074858 125.517071 
L 219.461932 127.472399 
L 220.849006 130.470708 
L 222.23608 136.539419 
L 225.010227 153.013487 
L 226.397301 158.083907 
L 227.784375 159.999163 
L 229.171449 161.1341 
L 230.558523 164.375284 
L 233.33267 176.539574 
L 234.719744 178.674093 
L 236.106818 174.501267 
L 238.880966 157.968397 
L 240.26804 155.566535 
L 241.655114 159.795352 
L 243.042188 167.561192 
L 244.429261 174.318178 
L 245.816335 177.624082 
L 247.203409 178.469375 
L 248.590483 179.44639 
L 249.977557 181.677394 
L 251.364631 183.422079 
L 252.751705 181.587598 
L 254.138778 174.637715 
L 256.912926 154.013164 
L 258.3 147.325077 
L 259.687074 145.073259 
L 261.074148 146.14686 
L 262.461222 148.961133 
L 266.622443 159.528292 
L 268.009517 160.424605 
L 269.396591 158.168667 
L 270.783665 153.428324 
L 272.170739 148.287346 
L 273.557813 144.749979 
L 274.944886 143.245369 
L 276.33196 142.468731 
L 277.719034 140.589383 
L 279.106108 136.610044 
L 280.493182 130.742264 
L 283.26733 116.884334 
L 284.654403 110.964292 
L 286.041477 107.543321 
L 287.428551 107.954906 
L 288.815625 112.337808 
L 291.589773 125.923972 
L 294.36392 137.282738 
L 295.750994 144.953197 
L 297.138068 155.382759 
L 298.525142 166.70597 
L 299.912216 175.859954 
L 301.29929 181.385323 
L 305.460511 191.2573 
L 306.847585 190.834559 
L 308.234659 182.590135 
L 309.621733 166.593538 
L 311.008807 148.944696 
L 312.395881 138.242176 
L 313.782955 139.187782 
L 316.557102 158.836544 
L 317.944176 161.977555 
L 319.33125 157.020022 
L 320.718324 148.257043 
L 322.105398 140.733246 
L 323.492472 136.110152 
L 326.266619 129.373848 
L 327.653693 126.923248 
L 329.040767 127.812067 
L 331.814915 136.901982 
L 333.201989 137.488291 
L 334.589063 133.010918 
L 335.976136 127.137843 
L 337.36321 125.046393 
L 338.750284 128.685652 
L 340.137358 135.201478 
L 341.524432 140.138266 
L 344.29858 144.166002 
L 345.685653 150.047277 
L 347.072727 159.567446 
L 348.459801 167.602589 
L 349.846875 168.392032 
L 351.233949 161.080643 
L 352.621023 151.085308 
L 354.008097 145.748751 
L 355.39517 148.240878 
L 356.782244 155.364211 
L 358.169318 161.160153 
L 359.556392 162.690782 
L 360.943466 162.442986 
L 362.33054 165.237218 
L 363.717614 172.87463 
L 365.104688 181.837321 
L 366.491761 186.283139 
L 367.878835 183.448771 
L 369.265909 176.324341 
L 370.652983 171.105173 
L 372.040057 171.806101 
L 373.427131 176.935884 
L 374.814205 181.092706 
L 376.201278 179.84856 
L 377.588352 173.511302 
L 378.975426 166.626241 
L 380.3625 163.97243 
L 381.749574 166.716101 
L 383.136648 171.889891 
L 384.523722 175.232145 
L 385.910795 174.599875 
L 387.297869 171.041166 
L 388.684943 167.002096 
L 391.459091 160.391682 
L 392.846165 155.68412 
L 394.233239 150.033771 
L 395.620313 146.095059 
L 397.007386 146.653391 
L 398.39446 151.725062 
L 399.781534 157.68952 
L 401.168608 159.745069 
L 402.555682 155.987045 
L 403.942756 149.61305 
L 405.32983 146.970948 
L 406.716903 152.611175 
L 409.491051 178.359155 
L 410.878125 184.596137 
L 412.265199 181.488591 
L 413.652273 172.843705 
L 415.039347 165.39125 
L 416.42642 163.383545 
L 417.813494 165.682045 
L 419.200568 167.461691 
L 420.587642 164.634142 
L 421.974716 157.027901 
L 423.36179 147.921923 
L 424.748864 140.970314 
L 426.135938 137.583418 
L 427.523011 136.800172 
L 428.910085 137.011534 
L 431.684233 137.70528 
L 433.071307 137.571368 
L 434.458381 136.206736 
L 435.845455 133.461465 
L 435.845455 133.461465 
" clip-path="url(#pacf7a18dde)" style="fill: none; stroke: #ff7f0e; stroke-width: 1.5; stroke-linecap: square"/>
   </g>
   <g id="patch_3">
    <path d="M 63 256.32 
L 63 34.56 
" style="fill: none; stroke: #000000; stroke-width: 0.8; stroke-linejoin: miter; stroke-linecap: square"/>
   </g>
   <g id="patch_4">
    <path d="M 453.6 256.32 
L 453.6 34.56 
" style="fill: none; stroke: #000000; stroke-width: 0.8; stroke-linejoin: miter; stroke-linecap: square"/>
   </g>
   <g id="patch_5">
    <path d="M 63 256.32 
L 453.6 256.32 
" style="fill: none; stroke: #000000; stroke-width: 0.8; stroke-linejoin: miter; stroke-linecap: square"/>
   </g>
   <g id="patch_6">
    <path d="M 63 34.56 
L 453.6 34.56 
" style="fill: none; stroke: #000000; stroke-width: 0.8; stroke-linejoin: miter; stroke-linecap: square"/>
   </g>
   <g id="text_11">
    <!-- ERP response - Shape trial 2  -->
    <g transform="translate(94.571875 28.56)scale(0.2 -0.2)">
     <defs>
      <path id="DejaVuSans-Bold-45" d="M 588 4666 
L 3834 4666 
L 3834 3756 
L 1791 3756 
L 1791 2888 
L 3713 2888 
L 3713 1978 
L 1791 1978 
L 1791 909 
L 3903 909 
L 3903 0 
L 588 0 
L 588 4666 
z
" transform="scale(0.015625)"/>
      <path id="DejaVuSans-Bold-52" d="M 2297 2597 
Q 2675 2597 2839 2737 
Q 3003 2878 3003 3200 
Q 3003 3519 2839 3656 
Q 2675 3794 2297 3794 
L 1791 3794 
L 1791 2597 
L 2297 2597 
z
M 1791 1766 
L 1791 0 
L 588 0 
L 588 4666 
L 2425 4666 
Q 3347 4666 3776 4356 
Q 4206 4047 4206 3378 
Q 4206 2916 3982 2619 
Q 3759 2322 3309 2181 
Q 3556 2125 3751 1926 
Q 3947 1728 4147 1325 
L 4800 0 
L 3519 0 
L 2950 1159 
Q 2778 1509 2601 1637 
Q 2425 1766 2131 1766 
L 1791 1766 
z
" transform="scale(0.015625)"/>
      <path id="DejaVuSans-Bold-50" d="M 588 4666 
L 2584 4666 
Q 3475 4666 3951 4270 
Q 4428 3875 4428 3144 
Q 4428 2409 3951 2014 
Q 3475 1619 2584 1619 
L 1791 1619 
L 1791 0 
L 588 0 
L 588 4666 
z
M 1791 3794 
L 1791 2491 
L 2456 2491 
Q 2806 2491 2997 2661 
Q 3188 2831 3188 3144 
Q 3188 3456 2997 3625 
Q 2806 3794 2456 3794 
L 1791 3794 
z
" transform="scale(0.015625)"/>
      <path id="DejaVuSans-Bold-20" transform="scale(0.015625)"/>
      <path id="DejaVuSans-Bold-72" d="M 3138 2547 
Q 2991 2616 2845 2648 
Q 2700 2681 2553 2681 
Q 2122 2681 1889 2404 
Q 1656 2128 1656 1613 
L 1656 0 
L 538 0 
L 538 3500 
L 1656 3500 
L 1656 2925 
Q 1872 3269 2151 3426 
Q 2431 3584 2822 3584 
Q 2878 3584 2943 3579 
Q 3009 3575 3134 3559 
L 3138 2547 
z
" transform="scale(0.015625)"/>
      <path id="DejaVuSans-Bold-65" d="M 4031 1759 
L 4031 1441 
L 1416 1441 
Q 1456 1047 1700 850 
Q 1944 653 2381 653 
Q 2734 653 3104 758 
Q 3475 863 3866 1075 
L 3866 213 
Q 3469 63 3072 -14 
Q 2675 -91 2278 -91 
Q 1328 -91 801 392 
Q 275 875 275 1747 
Q 275 2603 792 3093 
Q 1309 3584 2216 3584 
Q 3041 3584 3536 3087 
Q 4031 2591 4031 1759 
z
M 2881 2131 
Q 2881 2450 2695 2645 
Q 2509 2841 2209 2841 
Q 1884 2841 1681 2658 
Q 1478 2475 1428 2131 
L 2881 2131 
z
" transform="scale(0.015625)"/>
      <path id="DejaVuSans-Bold-73" d="M 3272 3391 
L 3272 2541 
Q 2913 2691 2578 2766 
Q 2244 2841 1947 2841 
Q 1628 2841 1473 2761 
Q 1319 2681 1319 2516 
Q 1319 2381 1436 2309 
Q 1553 2238 1856 2203 
L 2053 2175 
Q 2913 2066 3209 1816 
Q 3506 1566 3506 1031 
Q 3506 472 3093 190 
Q 2681 -91 1863 -91 
Q 1516 -91 1145 -36 
Q 775 19 384 128 
L 384 978 
Q 719 816 1070 734 
Q 1422 653 1784 653 
Q 2113 653 2278 743 
Q 2444 834 2444 1013 
Q 2444 1163 2330 1236 
Q 2216 1309 1875 1350 
L 1678 1375 
Q 931 1469 631 1722 
Q 331 1975 331 2491 
Q 331 3047 712 3315 
Q 1094 3584 1881 3584 
Q 2191 3584 2531 3537 
Q 2872 3491 3272 3391 
z
" transform="scale(0.015625)"/>
      <path id="DejaVuSans-Bold-70" d="M 1656 506 
L 1656 -1331 
L 538 -1331 
L 538 3500 
L 1656 3500 
L 1656 2988 
Q 1888 3294 2169 3439 
Q 2450 3584 2816 3584 
Q 3463 3584 3878 3070 
Q 4294 2556 4294 1747 
Q 4294 938 3878 423 
Q 3463 -91 2816 -91 
Q 2450 -91 2169 54 
Q 1888 200 1656 506 
z
M 2400 2772 
Q 2041 2772 1848 2508 
Q 1656 2244 1656 1747 
Q 1656 1250 1848 986 
Q 2041 722 2400 722 
Q 2759 722 2948 984 
Q 3138 1247 3138 1747 
Q 3138 2247 2948 2509 
Q 2759 2772 2400 2772 
z
" transform="scale(0.015625)"/>
      <path id="DejaVuSans-Bold-6f" d="M 2203 2784 
Q 1831 2784 1636 2517 
Q 1441 2250 1441 1747 
Q 1441 1244 1636 976 
Q 1831 709 2203 709 
Q 2569 709 2762 976 
Q 2956 1244 2956 1747 
Q 2956 2250 2762 2517 
Q 2569 2784 2203 2784 
z
M 2203 3584 
Q 3106 3584 3614 3096 
Q 4122 2609 4122 1747 
Q 4122 884 3614 396 
Q 3106 -91 2203 -91 
Q 1297 -91 786 396 
Q 275 884 275 1747 
Q 275 2609 786 3096 
Q 1297 3584 2203 3584 
z
" transform="scale(0.015625)"/>
      <path id="DejaVuSans-Bold-6e" d="M 4056 2131 
L 4056 0 
L 2931 0 
L 2931 347 
L 2931 1631 
Q 2931 2084 2911 2256 
Q 2891 2428 2841 2509 
Q 2775 2619 2662 2680 
Q 2550 2741 2406 2741 
Q 2056 2741 1856 2470 
Q 1656 2200 1656 1722 
L 1656 0 
L 538 0 
L 538 3500 
L 1656 3500 
L 1656 2988 
Q 1909 3294 2193 3439 
Q 2478 3584 2822 3584 
Q 3428 3584 3742 3212 
Q 4056 2841 4056 2131 
z
" transform="scale(0.015625)"/>
      <path id="DejaVuSans-Bold-2d" d="M 347 2297 
L 2309 2297 
L 2309 1388 
L 347 1388 
L 347 2297 
z
" transform="scale(0.015625)"/>
      <path id="DejaVuSans-Bold-53" d="M 3834 4519 
L 3834 3531 
Q 3450 3703 3084 3790 
Q 2719 3878 2394 3878 
Q 1963 3878 1756 3759 
Q 1550 3641 1550 3391 
Q 1550 3203 1689 3098 
Q 1828 2994 2194 2919 
L 2706 2816 
Q 3484 2659 3812 2340 
Q 4141 2022 4141 1434 
Q 4141 663 3683 286 
Q 3225 -91 2284 -91 
Q 1841 -91 1394 -6 
Q 947 78 500 244 
L 500 1259 
Q 947 1022 1364 901 
Q 1781 781 2169 781 
Q 2563 781 2772 912 
Q 2981 1044 2981 1288 
Q 2981 1506 2839 1625 
Q 2697 1744 2272 1838 
L 1806 1941 
Q 1106 2091 782 2419 
Q 459 2747 459 3303 
Q 459 4000 909 4375 
Q 1359 4750 2203 4750 
Q 2588 4750 2994 4692 
Q 3400 4634 3834 4519 
z
" transform="scale(0.015625)"/>
      <path id="DejaVuSans-Bold-68" d="M 4056 2131 
L 4056 0 
L 2931 0 
L 2931 347 
L 2931 1625 
Q 2931 2084 2911 2256 
Q 2891 2428 2841 2509 
Q 2775 2619 2662 2680 
Q 2550 2741 2406 2741 
Q 2056 2741 1856 2470 
Q 1656 2200 1656 1722 
L 1656 0 
L 538 0 
L 538 4863 
L 1656 4863 
L 1656 2988 
Q 1909 3294 2193 3439 
Q 2478 3584 2822 3584 
Q 3428 3584 3742 3212 
Q 4056 2841 4056 2131 
z
" transform="scale(0.015625)"/>
      <path id="DejaVuSans-Bold-61" d="M 2106 1575 
Q 1756 1575 1579 1456 
Q 1403 1338 1403 1106 
Q 1403 894 1545 773 
Q 1688 653 1941 653 
Q 2256 653 2472 879 
Q 2688 1106 2688 1447 
L 2688 1575 
L 2106 1575 
z
M 3816 1997 
L 3816 0 
L 2688 0 
L 2688 519 
Q 2463 200 2181 54 
Q 1900 -91 1497 -91 
Q 953 -91 614 226 
Q 275 544 275 1050 
Q 275 1666 698 1953 
Q 1122 2241 2028 2241 
L 2688 2241 
L 2688 2328 
Q 2688 2594 2478 2717 
Q 2269 2841 1825 2841 
Q 1466 2841 1156 2769 
Q 847 2697 581 2553 
L 581 3406 
Q 941 3494 1303 3539 
Q 1666 3584 2028 3584 
Q 2975 3584 3395 3211 
Q 3816 2838 3816 1997 
z
" transform="scale(0.015625)"/>
      <path id="DejaVuSans-Bold-74" d="M 1759 4494 
L 1759 3500 
L 2913 3500 
L 2913 2700 
L 1759 2700 
L 1759 1216 
Q 1759 972 1856 886 
Q 1953 800 2241 800 
L 2816 800 
L 2816 0 
L 1856 0 
Q 1194 0 917 276 
Q 641 553 641 1216 
L 641 2700 
L 84 2700 
L 84 3500 
L 641 3500 
L 641 4494 
L 1759 4494 
z
" transform="scale(0.015625)"/>
      <path id="DejaVuSans-Bold-69" d="M 538 3500 
L 1656 3500 
L 1656 0 
L 538 0 
L 538 3500 
z
M 538 4863 
L 1656 4863 
L 1656 3950 
L 538 3950 
L 538 4863 
z
" transform="scale(0.015625)"/>
      <path id="DejaVuSans-Bold-6c" d="M 538 4863 
L 1656 4863 
L 1656 0 
L 538 0 
L 538 4863 
z
" transform="scale(0.015625)"/>
      <path id="DejaVuSans-Bold-32" d="M 1844 884 
L 3897 884 
L 3897 0 
L 506 0 
L 506 884 
L 2209 2388 
Q 2438 2594 2547 2791 
Q 2656 2988 2656 3200 
Q 2656 3528 2436 3728 
Q 2216 3928 1850 3928 
Q 1569 3928 1234 3808 
Q 900 3688 519 3450 
L 519 4475 
Q 925 4609 1322 4679 
Q 1719 4750 2100 4750 
Q 2938 4750 3402 4381 
Q 3866 4013 3866 3353 
Q 3866 2972 3669 2642 
Q 3472 2313 2841 1759 
L 1844 884 
z
" transform="scale(0.015625)"/>
     </defs>
     <use xlink:href="#DejaVuSans-Bold-45"/>
     <use xlink:href="#DejaVuSans-Bold-52" x="68.310547"/>
     <use xlink:href="#DejaVuSans-Bold-50" x="145.3125"/>
     <use xlink:href="#DejaVuSans-Bold-20" x="218.603516"/>
     <use xlink:href="#DejaVuSans-Bold-72" x="253.417969"/>
     <use xlink:href="#DejaVuSans-Bold-65" x="302.734375"/>
     <use xlink:href="#DejaVuSans-Bold-73" x="370.556641"/>
     <use xlink:href="#DejaVuSans-Bold-70" x="430.078125"/>
     <use xlink:href="#DejaVuSans-Bold-6f" x="501.660156"/>
     <use xlink:href="#DejaVuSans-Bold-6e" x="570.361328"/>
     <use xlink:href="#DejaVuSans-Bold-73" x="641.552734"/>
     <use xlink:href="#DejaVuSans-Bold-65" x="701.074219"/>
     <use xlink:href="#DejaVuSans-Bold-20" x="768.896484"/>
     <use xlink:href="#DejaVuSans-Bold-2d" x="803.710938"/>
     <use xlink:href="#DejaVuSans-Bold-20" x="845.214844"/>
     <use xlink:href="#DejaVuSans-Bold-53" x="880.029297"/>
     <use xlink:href="#DejaVuSans-Bold-68" x="952.050781"/>
     <use xlink:href="#DejaVuSans-Bold-61" x="1023.242188"/>
     <use xlink:href="#DejaVuSans-Bold-70" x="1090.722656"/>
     <use xlink:href="#DejaVuSans-Bold-65" x="1162.304688"/>
     <use xlink:href="#DejaVuSans-Bold-20" x="1230.126953"/>
     <use xlink:href="#DejaVuSans-Bold-74" x="1264.941406"/>
     <use xlink:href="#DejaVuSans-Bold-72" x="1312.744141"/>
     <use xlink:href="#DejaVuSans-Bold-69" x="1362.060547"/>
     <use xlink:href="#DejaVuSans-Bold-61" x="1396.337891"/>
     <use xlink:href="#DejaVuSans-Bold-6c" x="1463.818359"/>
     <use xlink:href="#DejaVuSans-Bold-20" x="1498.095703"/>
     <use xlink:href="#DejaVuSans-Bold-32" x="1532.910156"/>
     <use xlink:href="#DejaVuSans-Bold-20" x="1602.490234"/>
    </g>
   </g>
   <g id="legend_1">
    <g id="patch_7">
     <path d="M 348.396875 101.2725 
L 446.6 101.2725 
Q 448.6 101.2725 448.6 99.2725 
L 448.6 41.56 
Q 448.6 39.56 446.6 39.56 
L 348.396875 39.56 
Q 346.396875 39.56 346.396875 41.56 
L 346.396875 99.2725 
Q 346.396875 101.2725 348.396875 101.2725 
z
" style="fill: #ffffff; opacity: 0.8; stroke: #cccccc; stroke-linejoin: miter"/>
    </g>
    <g id="line2d_13">
     <path d="M 350.396875 47.658438 
L 360.396875 47.658438 
L 370.396875 47.658438 
" style="fill: none; stroke: #1f77b4; stroke-width: 1.5; stroke-linecap: square"/>
    </g>
    <g id="text_12">
     <!-- 'left' - Mean -->
     <g transform="translate(378.396875 51.158438)scale(0.1 -0.1)">
      <defs>
       <path id="DejaVuSans-27" d="M 1147 4666 
L 1147 2931 
L 616 2931 
L 616 4666 
L 1147 4666 
z
" transform="scale(0.015625)"/>
       <path id="DejaVuSans-2d" d="M 313 2009 
L 1997 2009 
L 1997 1497 
L 313 1497 
L 313 2009 
z
" transform="scale(0.015625)"/>
       <path id="DejaVuSans-4d" d="M 628 4666 
L 1569 4666 
L 2759 1491 
L 3956 4666 
L 4897 4666 
L 4897 0 
L 4281 0 
L 4281 4097 
L 3078 897 
L 2444 897 
L 1241 4097 
L 1241 0 
L 628 0 
L 628 4666 
z
" transform="scale(0.015625)"/>
       <path id="DejaVuSans-61" d="M 2194 1759 
Q 1497 1759 1228 1600 
Q 959 1441 959 1056 
Q 959 750 1161 570 
Q 1363 391 1709 391 
Q 2188 391 2477 730 
Q 2766 1069 2766 1631 
L 2766 1759 
L 2194 1759 
z
M 3341 1997 
L 3341 0 
L 2766 0 
L 2766 531 
Q 2569 213 2275 61 
Q 1981 -91 1556 -91 
Q 1019 -91 701 211 
Q 384 513 384 1019 
Q 384 1609 779 1909 
Q 1175 2209 1959 2209 
L 2766 2209 
L 2766 2266 
Q 2766 2663 2505 2880 
Q 2244 3097 1772 3097 
Q 1472 3097 1187 3025 
Q 903 2953 641 2809 
L 641 3341 
Q 956 3463 1253 3523 
Q 1550 3584 1831 3584 
Q 2591 3584 2966 3190 
Q 3341 2797 3341 1997 
z
" transform="scale(0.015625)"/>
      </defs>
      <use xlink:href="#DejaVuSans-27"/>
      <use xlink:href="#DejaVuSans-6c" x="27.490234"/>
      <use xlink:href="#DejaVuSans-65" x="55.273438"/>
      <use xlink:href="#DejaVuSans-66" x="116.796875"/>
      <use xlink:href="#DejaVuSans-74" x="150.251953"/>
      <use xlink:href="#DejaVuSans-27" x="189.460938"/>
      <use xlink:href="#DejaVuSans-20" x="216.951172"/>
      <use xlink:href="#DejaVuSans-2d" x="248.738281"/>
      <use xlink:href="#DejaVuSans-20" x="284.822266"/>
      <use xlink:href="#DejaVuSans-4d" x="316.609375"/>
      <use xlink:href="#DejaVuSans-65" x="402.888672"/>
      <use xlink:href="#DejaVuSans-61" x="464.412109"/>
      <use xlink:href="#DejaVuSans-6e" x="525.691406"/>
     </g>
    </g>
    <g id="patch_8">
     <path d="M 350.396875 65.836563 
L 370.396875 65.836563 
L 370.396875 58.836563 
L 350.396875 58.836563 
z
" style="fill: #1f77b4; fill-opacity: 0.2"/>
    </g>
    <g id="text_13">
     <!-- 'left'- SEM -->
     <g transform="translate(378.396875 65.836563)scale(0.1 -0.1)">
      <defs>
       <path id="DejaVuSans-53" d="M 3425 4513 
L 3425 3897 
Q 3066 4069 2747 4153 
Q 2428 4238 2131 4238 
Q 1616 4238 1336 4038 
Q 1056 3838 1056 3469 
Q 1056 3159 1242 3001 
Q 1428 2844 1947 2747 
L 2328 2669 
Q 3034 2534 3370 2195 
Q 3706 1856 3706 1288 
Q 3706 609 3251 259 
Q 2797 -91 1919 -91 
Q 1588 -91 1214 -16 
Q 841 59 441 206 
L 441 856 
Q 825 641 1194 531 
Q 1563 422 1919 422 
Q 2459 422 2753 634 
Q 3047 847 3047 1241 
Q 3047 1584 2836 1778 
Q 2625 1972 2144 2069 
L 1759 2144 
Q 1053 2284 737 2584 
Q 422 2884 422 3419 
Q 422 4038 858 4394 
Q 1294 4750 2059 4750 
Q 2388 4750 2728 4690 
Q 3069 4631 3425 4513 
z
" transform="scale(0.015625)"/>
       <path id="DejaVuSans-45" d="M 628 4666 
L 3578 4666 
L 3578 4134 
L 1259 4134 
L 1259 2753 
L 3481 2753 
L 3481 2222 
L 1259 2222 
L 1259 531 
L 3634 531 
L 3634 0 
L 628 0 
L 628 4666 
z
" transform="scale(0.015625)"/>
      </defs>
      <use xlink:href="#DejaVuSans-27"/>
      <use xlink:href="#DejaVuSans-6c" x="27.490234"/>
      <use xlink:href="#DejaVuSans-65" x="55.273438"/>
      <use xlink:href="#DejaVuSans-66" x="116.796875"/>
      <use xlink:href="#DejaVuSans-74" x="150.251953"/>
      <use xlink:href="#DejaVuSans-27" x="189.460938"/>
      <use xlink:href="#DejaVuSans-2d" x="216.951172"/>
      <use xlink:href="#DejaVuSans-20" x="253.035156"/>
      <use xlink:href="#DejaVuSans-53" x="284.822266"/>
      <use xlink:href="#DejaVuSans-45" x="348.298828"/>
      <use xlink:href="#DejaVuSans-4d" x="411.482422"/>
     </g>
    </g>
    <g id="line2d_14">
     <path d="M 350.396875 77.014688 
L 360.396875 77.014688 
L 370.396875 77.014688 
" style="fill: none; stroke: #ff7f0e; stroke-width: 1.5; stroke-linecap: square"/>
    </g>
    <g id="text_14">
     <!-- 'right' - Mean -->
     <g transform="translate(378.396875 80.514688)scale(0.1 -0.1)">
      <defs>
       <path id="DejaVuSans-67" d="M 2906 1791 
Q 2906 2416 2648 2759 
Q 2391 3103 1925 3103 
Q 1463 3103 1205 2759 
Q 947 2416 947 1791 
Q 947 1169 1205 825 
Q 1463 481 1925 481 
Q 2391 481 2648 825 
Q 2906 1169 2906 1791 
z
M 3481 434 
Q 3481 -459 3084 -895 
Q 2688 -1331 1869 -1331 
Q 1566 -1331 1297 -1286 
Q 1028 -1241 775 -1147 
L 775 -588 
Q 1028 -725 1275 -790 
Q 1522 -856 1778 -856 
Q 2344 -856 2625 -561 
Q 2906 -266 2906 331 
L 2906 616 
Q 2728 306 2450 153 
Q 2172 0 1784 0 
Q 1141 0 747 490 
Q 353 981 353 1791 
Q 353 2603 747 3093 
Q 1141 3584 1784 3584 
Q 2172 3584 2450 3431 
Q 2728 3278 2906 2969 
L 2906 3500 
L 3481 3500 
L 3481 434 
z
" transform="scale(0.015625)"/>
       <path id="DejaVuSans-68" d="M 3513 2113 
L 3513 0 
L 2938 0 
L 2938 2094 
Q 2938 2591 2744 2837 
Q 2550 3084 2163 3084 
Q 1697 3084 1428 2787 
Q 1159 2491 1159 1978 
L 1159 0 
L 581 0 
L 581 4863 
L 1159 4863 
L 1159 2956 
Q 1366 3272 1645 3428 
Q 1925 3584 2291 3584 
Q 2894 3584 3203 3211 
Q 3513 2838 3513 2113 
z
" transform="scale(0.015625)"/>
      </defs>
      <use xlink:href="#DejaVuSans-27"/>
      <use xlink:href="#DejaVuSans-72" x="27.490234"/>
      <use xlink:href="#DejaVuSans-69" x="68.603516"/>
      <use xlink:href="#DejaVuSans-67" x="96.386719"/>
      <use xlink:href="#DejaVuSans-68" x="159.863281"/>
      <use xlink:href="#DejaVuSans-74" x="223.242188"/>
      <use xlink:href="#DejaVuSans-27" x="262.451172"/>
      <use xlink:href="#DejaVuSans-20" x="289.941406"/>
      <use xlink:href="#DejaVuSans-2d" x="321.728516"/>
      <use xlink:href="#DejaVuSans-20" x="357.8125"/>
      <use xlink:href="#DejaVuSans-4d" x="389.599609"/>
      <use xlink:href="#DejaVuSans-65" x="475.878906"/>
      <use xlink:href="#DejaVuSans-61" x="537.402344"/>
      <use xlink:href="#DejaVuSans-6e" x="598.681641"/>
     </g>
    </g>
    <g id="patch_9">
     <path d="M 350.396875 95.192813 
L 370.396875 95.192813 
L 370.396875 88.192813 
L 350.396875 88.192813 
z
" style="fill: #ff7f0e; fill-opacity: 0.2"/>
    </g>
    <g id="text_15">
     <!-- 'right'- SEM -->
     <g transform="translate(378.396875 95.192813)scale(0.1 -0.1)">
      <use xlink:href="#DejaVuSans-27"/>
      <use xlink:href="#DejaVuSans-72" x="27.490234"/>
      <use xlink:href="#DejaVuSans-69" x="68.603516"/>
      <use xlink:href="#DejaVuSans-67" x="96.386719"/>
      <use xlink:href="#DejaVuSans-68" x="159.863281"/>
      <use xlink:href="#DejaVuSans-74" x="223.242188"/>
      <use xlink:href="#DejaVuSans-27" x="262.451172"/>
      <use xlink:href="#DejaVuSans-2d" x="289.941406"/>
      <use xlink:href="#DejaVuSans-20" x="326.025391"/>
      <use xlink:href="#DejaVuSans-53" x="357.8125"/>
      <use xlink:href="#DejaVuSans-45" x="421.289062"/>
      <use xlink:href="#DejaVuSans-4d" x="484.472656"/>
     </g>
    </g>
   </g>
  </g>
 </g>
 <defs>
  <clipPath id="pacf7a18dde">
   <rect x="63" y="34.56" width="390.6" height="221.76"/>
  </clipPath>
 </defs>
</svg>
