<?xml version="1.0" encoding="utf-8" standalone="no"?>
<!DOCTYPE svg PUBLIC "-//W3C//DTD SVG 1.1//EN"
  "http://www.w3.org/Graphics/SVG/1.1/DTD/svg11.dtd">
<svg xmlns:xlink="http://www.w3.org/1999/xlink" width="504pt" height="288pt" viewBox="0 0 504 288" xmlns="http://www.w3.org/2000/svg" version="1.1">
 <metadata>
  <rdf:RDF xmlns:dc="http://purl.org/dc/elements/1.1/" xmlns:cc="http://creativecommons.org/ns#" xmlns:rdf="http://www.w3.org/1999/02/22-rdf-syntax-ns#">
   <cc:Work>
    <dc:type rdf:resource="http://purl.org/dc/dcmitype/StillImage"/>
    <dc:date>2023-09-22T20:46:45.145757</dc:date>
    <dc:format>image/svg+xml</dc:format>
    <dc:creator>
     <cc:Agent>
      <dc:title>Matplotlib v3.5.3, https://matplotlib.org/</dc:title>
     </cc:Agent>
    </dc:creator>
   </cc:Work>
  </rdf:RDF>
 </metadata>
 <defs>
  <style type="text/css">*{stroke-linejoin: round; stroke-linecap: butt}</style>
 </defs>
 <g id="figure_1">
  <g id="patch_1">
   <path d="M 0 288 
L 504 288 
L 504 0 
L 0 0 
z
" style="fill: #ffffff"/>
  </g>
  <g id="axes_1">
   <g id="patch_2">
    <path d="M 63 256.32 
L 453.6 256.32 
L 453.6 34.56 
L 63 34.56 
z
" style="fill: #ffffff"/>
   </g>
   <g id="PolyCollection_1">
    <path d="M 80.754545 114.744722 
L 80.754545 157.113623 
L 82.141619 151.474804 
L 83.528693 141.049864 
L 84.915767 131.978741 
L 86.302841 128.430276 
L 87.689915 132.80501 
L 89.076989 145.176111 
L 90.464062 162.554139 
L 91.851136 180.075907 
L 93.23821 191.897626 
L 94.625284 192.916703 
L 96.012358 183.119302 
L 97.399432 168.945158 
L 98.786506 159.260957 
L 100.17358 159.852685 
L 101.560653 169.79609 
L 102.947727 181.89872 
L 104.334801 188.570249 
L 105.721875 188.200675 
L 107.108949 185.584174 
L 108.496023 186.389091 
L 109.883097 191.500603 
L 111.27017 196.304508 
L 112.657244 195.013293 
L 114.044318 186.311653 
L 115.431392 175.222253 
L 116.818466 168.999085 
L 118.20554 170.985141 
L 119.592614 178.453997 
L 120.979687 185.579894 
L 122.366761 188.181568 
L 123.753835 186.571003 
L 125.140909 184.172336 
L 126.527983 183.12608 
L 127.915057 182.057567 
L 129.302131 178.580171 
L 130.689205 172.619509 
L 132.076278 166.703669 
L 133.463352 163.918867 
L 134.850426 164.623003 
L 136.2375 164.987922 
L 137.624574 161.143215 
L 139.011648 153.058966 
L 140.398722 143.889306 
L 141.785795 138.300135 
L 143.172869 139.286954 
L 144.559943 144.620636 
L 145.947017 147.282893 
L 147.334091 141.407698 
L 148.721165 127.695794 
L 150.108239 112.757232 
L 151.495312 104.039403 
L 152.882386 104.796006 
L 154.26946 112.334521 
L 155.656534 120.672397 
L 157.043608 125.369084 
L 158.430682 126.046066 
L 159.817756 124.990203 
L 161.20483 124.399805 
L 162.591903 124.594287 
L 163.978977 123.875382 
L 165.366051 120.581541 
L 166.753125 116.551021 
L 168.140199 117.437447 
L 169.527273 128.155102 
L 170.914347 148.354367 
L 172.30142 171.889376 
L 173.688494 189.540526 
L 175.075568 194.350307 
L 176.462642 186.170854 
L 177.849716 170.528687 
L 179.23679 153.709529 
L 180.623864 139.727371 
L 182.010937 130.058497 
L 183.398011 124.018397 
L 184.785085 121.283018 
L 186.172159 123.621062 
L 187.559233 132.092525 
L 188.946307 143.342661 
L 190.333381 151.410967 
L 191.720455 153.155898 
L 193.107528 150.471723 
L 194.494602 148.014269 
L 195.881676 149.67782 
L 197.26875 156.193453 
L 198.655824 164.486402 
L 200.042898 169.903537 
L 201.429972 170.289172 
L 202.817045 167.784689 
L 204.204119 166.276209 
L 205.591193 167.402493 
L 206.978267 169.99514 
L 208.365341 172.403223 
L 209.752415 174.661757 
L 211.139489 179.098056 
L 212.526563 188.350521 
L 213.913636 202.221862 
L 215.30071 216.649904 
L 216.687784 226.0816 
L 218.074858 227.262169 
L 219.461932 221.441391 
L 220.849006 213.475761 
L 222.23608 208.717864 
L 223.623153 209.894162 
L 225.010227 215.881897 
L 226.397301 223.236287 
L 227.784375 229.118551 
L 229.171449 232.758729 
L 230.558523 234.795881 
L 231.945597 235.936613 
L 233.33267 235.560128 
L 234.719744 231.177108 
L 236.106818 220.142974 
L 237.493892 202.108302 
L 238.880966 179.655566 
L 240.26804 157.454211 
L 241.655114 140.687371 
L 243.042188 132.859018 
L 244.429261 134.409561 
L 245.816335 142.989482 
L 247.203409 154.387624 
L 248.590483 163.768436 
L 249.977557 167.363683 
L 251.364631 164.215387 
L 252.751705 157.331322 
L 254.138778 152.441696 
L 255.525852 154.108747 
L 256.912926 162.11463 
L 258.3 170.887823 
L 259.687074 172.67574 
L 261.074148 163.281161 
L 262.461222 146.177034 
L 263.848295 130.882228 
L 265.235369 126.392639 
L 266.622443 134.839784 
L 268.009517 150.251134 
L 269.396591 163.185173 
L 270.783665 167.645011 
L 272.170739 164.842443 
L 273.557813 160.836341 
L 274.944886 160.378918 
L 276.33196 162.571559 
L 277.719034 162.057193 
L 279.106108 154.505693 
L 280.493182 141.42102 
L 281.880256 129.729807 
L 283.26733 126.174636 
L 284.654403 131.443781 
L 286.041477 139.473972 
L 287.428551 142.702008 
L 288.815625 138.49028 
L 290.202699 131.049253 
L 291.589773 127.350697 
L 292.976847 130.689665 
L 294.36392 137.72844 
L 295.750994 141.606251 
L 297.138068 137.95606 
L 298.525142 128.452374 
L 299.912216 119.197067 
L 301.29929 115.512309 
L 302.686364 117.678334 
L 304.073438 121.467216 
L 305.460511 122.75879 
L 306.847585 121.54641 
L 308.234659 121.56611 
L 309.621733 126.204269 
L 311.008807 134.843758 
L 312.395881 143.161496 
L 313.782955 146.951993 
L 315.170028 145.893689 
L 316.557102 143.772607 
L 317.944176 144.713576 
L 319.33125 149.02279 
L 320.718324 153.0241 
L 322.105398 152.686238 
L 323.492472 147.495274 
L 324.879545 141.407534 
L 326.266619 139.705816 
L 327.653693 144.080563 
L 329.040767 150.581826 
L 330.427841 152.600197 
L 331.814915 146.365379 
L 333.201989 134.433016 
L 334.589063 124.217541 
L 335.976136 122.537994 
L 337.36321 130.355618 
L 338.750284 141.83286 
L 340.137358 148.735354 
L 341.524432 146.816873 
L 342.911506 138.780242 
L 344.29858 131.808272 
L 345.685653 132.488099 
L 347.072727 142.558424 
L 348.459801 157.897404 
L 349.846875 171.557339 
L 351.233949 178.750709 
L 352.621023 179.669108 
L 354.008097 177.867843 
L 355.39517 176.62848 
L 356.782244 177.303455 
L 358.169318 179.617168 
L 359.556392 182.107139 
L 360.943466 183.269818 
L 362.33054 183.089832 
L 363.717614 182.854475 
L 365.104688 183.588451 
L 366.491761 184.639521 
L 367.878835 183.83008 
L 369.265909 179.639456 
L 370.652983 172.851134 
L 372.040057 165.812207 
L 373.427131 160.528743 
L 374.814205 157.738617 
L 376.201278 156.885258 
L 377.588352 156.622493 
L 378.975426 155.957665 
L 380.3625 154.436418 
L 381.749574 151.394547 
L 383.136648 146.728092 
L 384.523722 141.779605 
L 385.910795 138.631142 
L 387.297869 138.957395 
L 388.684943 143.428114 
L 390.072017 151.19906 
L 391.459091 159.538722 
L 392.846165 164.467219 
L 394.233239 162.819403 
L 395.620313 154.50895 
L 397.007386 142.941078 
L 398.39446 133.052339 
L 399.781534 128.40962 
L 401.168608 129.434821 
L 402.555682 133.875754 
L 403.942756 138.734175 
L 405.32983 141.93607 
L 406.716903 142.991528 
L 408.103977 142.666737 
L 409.491051 141.7909 
L 410.878125 140.349895 
L 412.265199 137.94032 
L 413.652273 134.696139 
L 415.039347 131.769119 
L 416.42642 131.087687 
L 417.813494 133.829615 
L 419.200568 138.507381 
L 420.587642 141.762971 
L 421.974716 141.16645 
L 423.36179 137.268595 
L 424.748864 132.79753 
L 426.135938 129.114757 
L 427.523011 126.783701 
L 428.910085 127.450827 
L 430.297159 132.600046 
L 431.684233 141.209336 
L 433.071307 150.089986 
L 434.458381 156.536354 
L 435.845455 159.557969 
L 435.845455 131.018461 
L 435.845455 131.018461 
L 434.458381 125.476944 
L 433.071307 118.234034 
L 431.684233 110.566757 
L 430.297159 103.461329 
L 428.910085 97.846994 
L 427.523011 95.584511 
L 426.135938 98.239804 
L 424.748864 104.352282 
L 423.36179 109.491019 
L 421.974716 110.542675 
L 420.587642 108.431659 
L 419.200568 105.24601 
L 417.813494 102.314472 
L 416.42642 100.099705 
L 415.039347 99.087954 
L 413.652273 99.963555 
L 412.265199 102.538217 
L 410.878125 105.759247 
L 409.491051 108.514628 
L 408.103977 109.974133 
L 406.716903 109.591082 
L 405.32983 107.067367 
L 403.942756 102.319231 
L 402.555682 96.081182 
L 401.168608 90.583348 
L 399.781534 88.855139 
L 398.39446 92.895155 
L 397.007386 102.226282 
L 395.620313 113.825245 
L 394.233239 123.504511 
L 392.846165 127.980245 
L 391.459091 126.401365 
L 390.072017 120.597458 
L 388.684943 114.019594 
L 387.297869 109.838026 
L 385.910795 109.398731 
L 384.523722 112.115612 
L 383.136648 116.616925 
L 381.749574 121.749793 
L 380.3625 126.348702 
L 378.975426 129.001374 
L 377.588352 129.309091 
L 376.201278 128.77141 
L 374.814205 129.423506 
L 373.427131 132.578798 
L 372.040057 138.355589 
L 370.652983 145.449291 
L 369.265909 151.925041 
L 367.878835 156.345404 
L 366.491761 157.939392 
L 365.104688 156.583762 
L 363.717614 153.265911 
L 362.33054 149.971391 
L 360.943466 148.163551 
L 359.556392 147.708129 
L 358.169318 147.413397 
L 356.782244 146.741653 
L 355.39517 146.869684 
L 354.008097 148.808858 
L 352.621023 150.788838 
L 351.233949 148.893187 
L 349.846875 140.200948 
L 348.459801 125.345677 
L 347.072727 109.140828 
L 345.685653 98.545338 
L 344.29858 98.191592 
L 342.911506 106.356861 
L 341.524432 115.406698 
L 340.137358 117.365946 
L 338.750284 110.009027 
L 337.36321 98.224397 
L 335.976136 90.185378 
L 334.589063 91.368741 
L 333.201989 100.579633 
L 331.814915 111.072981 
L 330.427841 115.939828 
L 329.040767 113.297968 
L 327.653693 107.165487 
L 326.266619 103.639734 
L 324.879545 105.882954 
L 323.492472 112.048521 
L 322.105398 117.310262 
L 320.718324 118.030979 
L 319.33125 114.638778 
L 317.944176 110.573694 
L 316.557102 108.457401 
L 315.170028 107.633497 
L 313.782955 105.140715 
L 312.395881 98.736114 
L 311.008807 89.500799 
L 309.621733 81.478271 
L 308.234659 78.258124 
L 306.847585 79.718758 
L 305.460511 82.175715 
L 304.073438 81.899325 
L 302.686364 78.791146 
L 301.29929 76.706218 
L 299.912216 79.876141 
L 298.525142 88.52474 
L 297.138068 97.770835 
L 295.750994 101.42773 
L 294.36392 97.706565 
L 292.976847 91.271367 
L 291.589773 89.258216 
L 290.202699 94.838476 
L 288.815625 104.126929 
L 287.428551 109.203922 
L 286.041477 104.850869 
L 284.654403 93.175371 
L 283.26733 81.919861 
L 281.880256 78.042023 
L 280.493182 82.204293 
L 279.106108 88.748524 
L 277.719034 90.974392 
L 276.33196 86.94114 
L 274.944886 80.613288 
L 273.557813 77.442693 
L 272.170739 78.704876 
L 270.783665 80.05955 
L 269.396591 75.671782 
L 268.009517 64.111842 
L 266.622443 50.793749 
L 265.235369 44.64 
L 263.848295 51.480877 
L 262.461222 69.582968 
L 261.074148 90.829301 
L 259.687074 106.200069 
L 258.3 111.286901 
L 256.912926 108.39181 
L 255.525852 104.28563 
L 254.138778 105.117962 
L 252.751705 112.192189 
L 251.364631 121.72082 
L 249.977557 127.704768 
L 248.590483 125.553687 
L 247.203409 114.826499 
L 245.816335 99.544919 
L 244.429261 85.936827 
L 243.042188 79.554184 
L 241.655114 83.137574 
L 240.26804 96.030436 
L 238.880966 114.926251 
L 237.493892 134.895521 
L 236.106818 150.98018 
L 234.719744 160.315667 
L 233.33267 162.942343 
L 231.945597 160.936653 
L 230.558523 157.05411 
L 229.171449 152.961755 
L 227.784375 148.143051 
L 226.397301 141.314839 
L 225.010227 132.893406 
L 223.623153 125.626194 
L 222.23608 123.078326 
L 220.849006 127.113723 
L 219.461932 135.804547 
L 218.074858 143.858758 
L 216.687784 145.938149 
L 215.30071 140.318847 
L 213.913636 129.97647 
L 212.526563 120.374877 
L 211.139489 115.8215 
L 209.752415 117.113806 
L 208.365341 121.823133 
L 206.978267 126.699055 
L 205.591193 130.254427 
L 204.204119 133.050724 
L 202.817045 135.581282 
L 201.429972 137.097899 
L 200.042898 136.269654 
L 198.655824 132.283955 
L 197.26875 126.255062 
L 195.881676 121.454757 
L 194.494602 120.972804 
L 193.107528 124.214085 
L 191.720455 126.616096 
L 190.333381 123.836478 
L 188.946307 115.548629 
L 187.559233 104.994502 
L 186.172159 96.249361 
L 184.785085 92.610201 
L 183.398011 95.41352 
L 182.010937 103.181812 
L 180.623864 113.554526 
L 179.23679 126.138872 
L 177.849716 141.206906 
L 176.462642 155.646755 
L 175.075568 163.418523 
L 173.688494 159.598795 
L 172.30142 143.742338 
L 170.914347 120.994323 
L 169.527273 100.094628 
L 168.140199 87.873359 
L 166.753125 84.985802 
L 165.366051 87.234138 
L 163.978977 89.52374 
L 162.591903 89.145742 
L 161.20483 87.241471 
L 159.817756 86.820719 
L 158.430682 88.489712 
L 157.043608 89.190805 
L 155.656534 85.619414 
L 154.26946 78.235665 
L 152.882386 71.690397 
L 151.495312 71.712669 
L 150.108239 80.801343 
L 148.721165 95.684314 
L 147.334091 109.139559 
L 145.947017 115.200255 
L 144.559943 113.203002 
L 143.172869 107.83058 
L 141.785795 106.099449 
L 140.398722 112.485918 
L 139.011648 124.875461 
L 137.624574 136.201907 
L 136.2375 141.278737 
L 134.850426 141.219373 
L 133.463352 140.100686 
L 132.076278 140.61603 
L 130.689205 142.453169 
L 129.302131 142.66012 
L 127.915057 139.259193 
L 126.527983 133.795266 
L 125.140909 129.206447 
L 123.753835 126.499712 
L 122.366761 123.794766 
L 120.979687 118.117473 
L 119.592614 108.888496 
L 118.20554 100.022029 
L 116.818466 97.313159 
L 115.431392 103.051824 
L 114.044318 113.664595 
L 112.657244 122.583215 
L 111.27017 125.400879 
L 109.883097 123.126723 
L 108.496023 120.73873 
L 107.108949 122.047255 
L 105.721875 125.953879 
L 104.334801 127.947432 
L 102.947727 124.814273 
L 101.560653 117.916963 
L 100.17358 112.646696 
L 98.786506 114.73258 
L 97.399432 125.565784 
L 96.012358 140.238103 
L 94.625284 151.011647 
L 93.23821 152.250234 
L 91.851136 142.547645 
L 90.464062 125.045252 
L 89.076989 106.27766 
L 87.689915 92.44597 
L 86.302841 87.129809 
L 84.915767 91.0575 
L 83.528693 100.983133 
L 82.141619 110.54542 
L 80.754545 114.744722 
z
" clip-path="url(#pbe7e53a79b)" style="fill: #1f77b4; fill-opacity: 0.2"/>
   </g>
   <g id="PolyCollection_2">
    <path d="M 80.754545 90.987067 
L 80.754545 130.227783 
L 82.141619 136.549584 
L 83.528693 140.403068 
L 84.915767 140.950405 
L 86.302841 139.051266 
L 87.689915 136.931742 
L 89.076989 136.543911 
L 90.464062 138.264269 
L 91.851136 141.134666 
L 93.23821 143.757568 
L 94.625284 145.290687 
L 96.012358 146.401095 
L 97.399432 148.946257 
L 98.786506 154.502611 
L 100.17358 163.134261 
L 101.560653 173.294983 
L 102.947727 182.714717 
L 104.334801 189.86178 
L 105.721875 195.084472 
L 107.108949 200.29606 
L 108.496023 207.546862 
L 109.883097 217.70095 
L 111.27017 229.587847 
L 112.657244 240.182031 
L 114.044318 246.24 
L 115.431392 245.846443 
L 116.818466 238.714286 
L 118.20554 226.11507 
L 119.592614 210.366343 
L 120.979687 193.730371 
L 122.366761 178.322293 
L 123.753835 166.403545 
L 125.140909 159.104137 
L 126.527983 155.672928 
L 127.915057 154.884559 
L 129.302131 155.973858 
L 130.689205 158.232245 
L 132.076278 161.125452 
L 133.463352 164.736879 
L 134.850426 168.940593 
L 136.2375 172.484628 
L 137.624574 173.461681 
L 139.011648 171.145438 
L 140.398722 167.54404 
L 141.785795 166.29643 
L 143.172869 169.51567 
L 144.559943 175.740676 
L 145.947017 180.871068 
L 147.334091 181.381448 
L 148.721165 177.471987 
L 150.108239 173.332505 
L 151.495312 173.728316 
L 152.882386 179.894723 
L 154.26946 188.696829 
L 155.656534 195.349486 
L 157.043608 196.781321 
L 158.430682 193.26011 
L 159.817756 187.550173 
L 161.20483 182.305364 
L 162.591903 178.068405 
L 163.978977 173.628195 
L 165.366051 167.472553 
L 166.753125 158.698076 
L 168.140199 147.572637 
L 169.527273 136.061987 
L 170.914347 127.474676 
L 172.30142 124.267975 
L 173.688494 126.109102 
L 175.075568 130.750337 
L 176.462642 135.630732 
L 177.849716 138.771955 
L 179.23679 139.838927 
L 180.623864 141.319607 
L 182.010937 147.006198 
L 183.398011 157.691942 
L 184.785085 169.091443 
L 186.172159 175.625035 
L 187.559233 175.332427 
L 188.946307 170.276296 
L 190.333381 164.444203 
L 191.720455 161.55392 
L 193.107528 162.119857 
L 194.494602 162.388357 
L 195.881676 157.654979 
L 197.26875 146.599623 
L 198.655824 132.030308 
L 200.042898 118.676939 
L 201.429972 110.113324 
L 202.817045 106.443237 
L 204.204119 105.400048 
L 205.591193 105.092122 
L 206.978267 104.642336 
L 208.365341 104.134687 
L 209.752415 104.506359 
L 211.139489 105.857577 
L 212.526563 107.499478 
L 213.913636 110.179244 
L 215.30071 115.637894 
L 216.687784 123.798028 
L 218.074858 133.389821 
L 219.461932 143.938444 
L 220.849006 154.275911 
L 222.23608 161.399895 
L 223.623153 162.990666 
L 225.010227 159.779506 
L 226.397301 155.274701 
L 227.784375 153.821247 
L 229.171449 158.041802 
L 230.558523 166.508081 
L 231.945597 173.783567 
L 233.33267 174.209819 
L 234.719744 166.588784 
L 236.106818 155.412236 
L 237.493892 147.577003 
L 238.880966 146.888823 
L 240.26804 150.603902 
L 241.655114 151.85362 
L 243.042188 146.230558 
L 244.429261 135.744258 
L 245.816335 127.503776 
L 247.203409 128.616798 
L 248.590483 140.046304 
L 249.977557 154.983507 
L 251.364631 164.644149 
L 252.751705 165.332872 
L 254.138778 160.394667 
L 255.525852 157.01657 
L 256.912926 160.623165 
L 258.3 170.839687 
L 259.687074 182.166632 
L 261.074148 188.091885 
L 262.461222 186.193512 
L 263.848295 180.994423 
L 265.235369 180.158739 
L 266.622443 186.307492 
L 268.009517 194.8572 
L 269.396591 200.222757 
L 270.783665 200.926905 
L 272.170739 199.451806 
L 273.557813 199.516768 
L 274.944886 202.730046 
L 276.33196 206.554478 
L 277.719034 206.505379 
L 279.106108 200.103274 
L 280.493182 189.130247 
L 281.880256 179.348966 
L 283.26733 175.87854 
L 284.654403 177.197512 
L 286.041477 175.718658 
L 287.428551 166.176712 
L 288.815625 151.837055 
L 290.202699 141.267193 
L 291.589773 141.245677 
L 292.976847 152.895621 
L 294.36392 170.424558 
L 295.750994 184.11924 
L 297.138068 188.142682 
L 298.525142 185.720711 
L 299.912216 185.738952 
L 301.29929 194.841114 
L 302.686364 212.047874 
L 304.073438 229.344257 
L 305.460511 237.42517 
L 306.847585 232.116192 
L 308.234659 217.322325 
L 309.621733 202.961121 
L 311.008807 198.505062 
L 312.395881 206.309858 
L 313.782955 220.101011 
L 315.170028 229.517771 
L 316.557102 227.065899 
L 317.944176 212.988253 
L 319.33125 194.827962 
L 320.718324 181.805659 
L 322.105398 178.177964 
L 323.492472 180.785371 
L 324.879545 182.556479 
L 326.266619 178.818179 
L 327.653693 171.187874 
L 329.040767 166.090602 
L 330.427841 169.212804 
L 331.814915 180.136038 
L 333.201989 191.566018 
L 334.589063 194.631306 
L 335.976136 186.265831 
L 337.36321 171.514305 
L 338.750284 158.752281 
L 340.137358 153.439145 
L 341.524432 155.096114 
L 342.911506 158.438103 
L 344.29858 157.816918 
L 345.685653 151.560734 
L 347.072727 142.408391 
L 348.459801 134.539266 
L 349.846875 130.848919 
L 351.233949 132.315071 
L 352.621023 138.698481 
L 354.008097 149.207193 
L 355.39517 162.131172 
L 356.782244 173.956343 
L 358.169318 180.143829 
L 359.556392 178.220766 
L 360.943466 170.371443 
L 362.33054 162.307718 
L 363.717614 158.759466 
L 365.104688 159.640778 
L 366.491761 160.402214 
L 367.878835 156.104094 
L 369.265909 145.888876 
L 370.652983 134.098205 
L 372.040057 126.651901 
L 373.427131 125.648942 
L 374.814205 127.774486 
L 376.201278 128.182899 
L 377.588352 124.866095 
L 378.975426 119.665165 
L 380.3625 116.928404 
L 381.749574 120.550934 
L 383.136648 129.67863 
L 384.523722 138.210421 
L 385.910795 140.33869 
L 387.297869 135.004453 
L 388.684943 125.537479 
L 390.072017 116.978376 
L 391.459091 114.188446 
L 392.846165 119.254632 
L 394.233239 129.116916 
L 395.620313 137.156504 
L 397.007386 137.84298 
L 398.39446 130.491828 
L 399.781534 119.759258 
L 401.168608 112.90364 
L 402.555682 115.200579 
L 403.942756 126.0581 
L 405.32983 139.032069 
L 406.716903 146.549975 
L 408.103977 145.660059 
L 409.491051 139.641077 
L 410.878125 134.318809 
L 412.265199 132.972997 
L 413.652273 134.296829 
L 415.039347 134.57629 
L 416.42642 132.242061 
L 417.813494 130.477766 
L 419.200568 134.631157 
L 420.587642 146.310447 
L 421.974716 160.929067 
L 423.36179 171.671082 
L 424.748864 174.647802 
L 426.135938 171.300746 
L 427.523011 167.034551 
L 428.910085 166.638722 
L 430.297159 170.278076 
L 431.684233 174.21608 
L 433.071307 175.192385 
L 434.458381 173.272153 
L 435.845455 170.803386 
L 435.845455 107.285373 
L 435.845455 107.285373 
L 434.458381 107.666275 
L 433.071307 108.671494 
L 431.684233 107.459131 
L 430.297159 103.926893 
L 428.910085 101.205823 
L 427.523011 102.760919 
L 426.135938 109.027224 
L 424.748864 116.146049 
L 423.36179 118.369676 
L 421.974716 112.979688 
L 420.587642 102.94243 
L 419.200568 94.05284 
L 417.813494 90.169651 
L 416.42642 91.42355 
L 415.039347 94.990742 
L 413.652273 97.789981 
L 412.265199 99.392232 
L 410.878125 101.858882 
L 409.491051 106.328551 
L 408.103977 110.319018 
L 406.716903 109.319947 
L 405.32983 101.047105 
L 403.942756 88.267921 
L 402.555682 77.696299 
L 401.168608 75.501167 
L 399.781534 82.560546 
L 398.39446 93.389611 
L 397.007386 100.151112 
L 395.620313 98.557118 
L 394.233239 90.515151 
L 392.846165 81.837701 
L 391.459091 78.009655 
L 390.072017 81.39947 
L 388.684943 90.221576 
L 387.297869 99.062531 
L 385.910795 102.500375 
L 384.523722 99.259982 
L 383.136648 92.130358 
L 381.749574 85.058355 
L 380.3625 81.119832 
L 378.975426 81.796043 
L 377.588352 85.160362 
L 376.201278 86.680568 
L 374.814205 83.998785 
L 373.427131 79.458974 
L 372.040057 77.448794 
L 370.652983 80.458723 
L 369.265909 87.378092 
L 367.878835 94.279663 
L 366.491761 97.436614 
L 365.104688 96.574269 
L 363.717614 95.039228 
L 362.33054 96.408545 
L 360.943466 100.994993 
L 359.556392 105.6398 
L 358.169318 106.409371 
L 356.782244 101.520217 
L 355.39517 92.288752 
L 354.008097 81.813729 
L 352.621023 72.888769 
L 351.233949 66.979431 
L 349.846875 64.88637 
L 348.459801 67.528542 
L 347.072727 74.919894 
L 345.685653 84.495791 
L 344.29858 91.788024 
L 342.911506 93.736818 
L 341.524432 91.739907 
L 340.137358 91.527566 
L 338.750284 98.900953 
L 337.36321 113.896776 
L 335.976136 129.206477 
L 334.589063 135.589845 
L 333.201989 129.090325 
L 331.814915 113.65331 
L 330.427841 98.318906 
L 329.040767 91.013121 
L 327.653693 92.965235 
L 326.266619 98.528602 
L 324.879545 100.849661 
L 323.492472 98.153157 
L 322.105398 95.005572 
L 320.718324 97.913204 
L 319.33125 109.449881 
L 317.944176 125.711836 
L 316.557102 138.792809 
L 315.170028 142.290738 
L 313.782955 135.998544 
L 312.395881 126.438436 
L 311.008807 122.580165 
L 309.621733 129.705481 
L 308.234659 145.769103 
L 306.847585 162.270331 
L 305.460511 169.243446 
L 304.073438 162.074944 
L 302.686364 145.136502 
L 301.29929 128.518119 
L 299.912216 120.417876 
L 298.525142 121.258027 
L 297.138068 124.012228 
L 295.750994 120.449846 
L 294.36392 107.7741 
L 292.976847 90.964716 
L 291.589773 80.037052 
L 290.202699 82.556943 
L 288.815625 96.521154 
L 287.428551 112.374521 
L 286.041477 122.714947 
L 284.654403 127.376226 
L 283.26733 130.893036 
L 281.880256 138.116985 
L 280.493182 150.652064 
L 279.106108 164.664555 
L 277.719034 173.147396 
L 276.33196 172.52681 
L 274.944886 166.347045 
L 273.557813 161.12346 
L 272.170739 159.97725 
L 270.783665 160.274757 
L 269.396591 156.720292 
L 268.009517 147.642108 
L 266.622443 137.180974 
L 265.235369 130.615743 
L 263.848295 129.558561 
L 262.461222 131.923136 
L 261.074148 133.110203 
L 259.687074 128.181903 
L 258.3 116.55161 
L 256.912926 103.945921 
L 255.525852 97.604581 
L 254.138778 99.606003 
L 252.751705 105.02016 
L 251.364631 106.074927 
L 249.977557 98.998604 
L 248.590483 87.27437 
L 247.203409 78.511479 
L 245.816335 78.796169 
L 244.429261 88.433136 
L 243.042188 101.13487 
L 241.655114 108.826418 
L 240.26804 108.515142 
L 238.880966 104.138927 
L 237.493892 102.580716 
L 236.106818 108.207425 
L 234.719744 119.290445 
L 233.33267 129.240612 
L 231.945597 132.04425 
L 230.558523 126.8724 
L 229.171449 118.137529 
L 227.784375 111.808224 
L 226.397301 110.974597 
L 225.010227 113.953539 
L 223.623153 116.532198 
L 222.23608 115.757208 
L 220.849006 111.239412 
L 219.461932 103.822272 
L 218.074858 94.889443 
L 216.687784 86.626117 
L 215.30071 80.359842 
L 213.913636 75.4782 
L 212.526563 71.793193 
L 211.139489 70.36609 
L 209.752415 70.952855 
L 208.365341 71.829677 
L 206.978267 72.108375 
L 205.591193 71.929615 
L 204.204119 71.453127 
L 202.817045 71.728871 
L 201.429972 74.600546 
L 200.042898 81.145354 
L 198.655824 90.979671 
L 197.26875 101.721199 
L 195.881676 109.384906 
L 194.494602 111.314306 
L 193.107528 108.565546 
L 191.720455 105.30348 
L 190.333381 106.080004 
L 188.946307 111.956465 
L 187.559233 118.439549 
L 186.172159 119.015177 
L 184.785085 111.597263 
L 183.398011 99.930507 
L 182.010937 89.509338 
L 180.623864 84.082151 
L 179.23679 84.235299 
L 177.849716 87.170436 
L 176.462642 88.900738 
L 175.075568 87.987083 
L 173.688494 86.812036 
L 172.30142 88.533219 
L 170.914347 93.709035 
L 169.527273 100.568376 
L 168.140199 107.469719 
L 166.753125 113.437066 
L 165.366051 117.705501 
L 163.978977 120.100504 
L 162.591903 121.483401 
L 161.20483 123.184195 
L 159.817756 125.654406 
L 158.430682 127.758212 
L 157.043608 127.259995 
L 155.656534 122.221931 
L 154.26946 112.986483 
L 152.882386 103.046508 
L 151.495312 97.105341 
L 150.108239 97.709467 
L 148.721165 103.509597 
L 147.334091 110.318998 
L 145.947017 114.051738 
L 144.559943 113.710794 
L 143.172869 112.065569 
L 141.785795 113.070049 
L 140.398722 118.293278 
L 139.011648 125.713241 
L 137.624574 131.484632 
L 136.2375 132.720878 
L 134.850426 129.323931 
L 133.463352 123.645636 
L 132.076278 118.20166 
L 130.689205 113.810357 
L 129.302131 109.74865 
L 127.915057 105.579142 
L 126.527983 102.883983 
L 125.140909 104.202942 
L 123.753835 110.397993 
L 122.366761 120.382721 
L 120.979687 132.955955 
L 119.592614 147.032073 
L 118.20554 160.739261 
L 116.818466 171.651887 
L 115.431392 177.33041 
L 114.044318 176.045309 
L 112.657244 168.227848 
L 111.27017 156.732172 
L 109.883097 145.102757 
L 108.496023 135.863569 
L 107.108949 129.774113 
L 105.721875 125.859008 
L 104.334801 122.370895 
L 102.947727 117.895458 
L 101.560653 111.699593 
L 100.17358 103.948075 
L 98.786506 96.067116 
L 97.399432 90.360376 
L 96.012358 88.694703 
L 94.625284 91.125676 
L 93.23821 95.478575 
L 91.851136 98.623399 
L 90.464062 98.92904 
L 89.076989 97.638349 
L 87.689915 97.276401 
L 86.302841 98.996984 
L 84.915767 101.490942 
L 83.528693 101.938582 
L 82.141619 98.290378 
L 80.754545 90.987067 
z
" clip-path="url(#pbe7e53a79b)" style="fill: #ff7f0e; fill-opacity: 0.2"/>
   </g>
   <g id="matplotlib.axis_1">
    <g id="xtick_1">
     <g id="line2d_1">
      <defs>
       <path id="m569c1572f4" d="M 0 0 
L 0 3.5 
" style="stroke: #000000; stroke-width: 0.8"/>
      </defs>
      <g>
       <use xlink:href="#m569c1572f4" x="116.541051" y="256.32" style="stroke: #000000; stroke-width: 0.8"/>
      </g>
     </g>
     <g id="text_1">
      <!-- −0.2 -->
      <g transform="translate(97.114801 275.4775)scale(0.16 -0.16)">
       <defs>
        <path id="DejaVuSans-2212" d="M 678 2272 
L 4684 2272 
L 4684 1741 
L 678 1741 
L 678 2272 
z
" transform="scale(0.015625)"/>
        <path id="DejaVuSans-30" d="M 2034 4250 
Q 1547 4250 1301 3770 
Q 1056 3291 1056 2328 
Q 1056 1369 1301 889 
Q 1547 409 2034 409 
Q 2525 409 2770 889 
Q 3016 1369 3016 2328 
Q 3016 3291 2770 3770 
Q 2525 4250 2034 4250 
z
M 2034 4750 
Q 2819 4750 3233 4129 
Q 3647 3509 3647 2328 
Q 3647 1150 3233 529 
Q 2819 -91 2034 -91 
Q 1250 -91 836 529 
Q 422 1150 422 2328 
Q 422 3509 836 4129 
Q 1250 4750 2034 4750 
z
" transform="scale(0.015625)"/>
        <path id="DejaVuSans-2e" d="M 684 794 
L 1344 794 
L 1344 0 
L 684 0 
L 684 794 
z
" transform="scale(0.015625)"/>
        <path id="DejaVuSans-32" d="M 1228 531 
L 3431 531 
L 3431 0 
L 469 0 
L 469 531 
Q 828 903 1448 1529 
Q 2069 2156 2228 2338 
Q 2531 2678 2651 2914 
Q 2772 3150 2772 3378 
Q 2772 3750 2511 3984 
Q 2250 4219 1831 4219 
Q 1534 4219 1204 4116 
Q 875 4013 500 3803 
L 500 4441 
Q 881 4594 1212 4672 
Q 1544 4750 1819 4750 
Q 2544 4750 2975 4387 
Q 3406 4025 3406 3419 
Q 3406 3131 3298 2873 
Q 3191 2616 2906 2266 
Q 2828 2175 2409 1742 
Q 1991 1309 1228 531 
z
" transform="scale(0.015625)"/>
       </defs>
       <use xlink:href="#DejaVuSans-2212"/>
       <use xlink:href="#DejaVuSans-30" x="83.789062"/>
       <use xlink:href="#DejaVuSans-2e" x="147.412109"/>
       <use xlink:href="#DejaVuSans-32" x="179.199219"/>
      </g>
     </g>
    </g>
    <g id="xtick_2">
     <g id="line2d_2">
      <g>
       <use xlink:href="#m569c1572f4" x="187.559233" y="256.32" style="stroke: #000000; stroke-width: 0.8"/>
      </g>
     </g>
     <g id="text_2">
      <!-- 0.0 -->
      <g transform="translate(174.836733 275.4775)scale(0.16 -0.16)">
       <use xlink:href="#DejaVuSans-30"/>
       <use xlink:href="#DejaVuSans-2e" x="63.623047"/>
       <use xlink:href="#DejaVuSans-30" x="95.410156"/>
      </g>
     </g>
    </g>
    <g id="xtick_3">
     <g id="line2d_3">
      <g>
       <use xlink:href="#m569c1572f4" x="258.577415" y="256.32" style="stroke: #000000; stroke-width: 0.8"/>
      </g>
     </g>
     <g id="text_3">
      <!-- 0.2 -->
      <g transform="translate(245.854915 275.4775)scale(0.16 -0.16)">
       <use xlink:href="#DejaVuSans-30"/>
       <use xlink:href="#DejaVuSans-2e" x="63.623047"/>
       <use xlink:href="#DejaVuSans-32" x="95.410156"/>
      </g>
     </g>
    </g>
    <g id="xtick_4">
     <g id="line2d_4">
      <g>
       <use xlink:href="#m569c1572f4" x="329.595597" y="256.32" style="stroke: #000000; stroke-width: 0.8"/>
      </g>
     </g>
     <g id="text_4">
      <!-- 0.4 -->
      <g transform="translate(316.873097 275.4775)scale(0.16 -0.16)">
       <defs>
        <path id="DejaVuSans-34" d="M 2419 4116 
L 825 1625 
L 2419 1625 
L 2419 4116 
z
M 2253 4666 
L 3047 4666 
L 3047 1625 
L 3713 1625 
L 3713 1100 
L 3047 1100 
L 3047 0 
L 2419 0 
L 2419 1100 
L 313 1100 
L 313 1709 
L 2253 4666 
z
" transform="scale(0.015625)"/>
       </defs>
       <use xlink:href="#DejaVuSans-30"/>
       <use xlink:href="#DejaVuSans-2e" x="63.623047"/>
       <use xlink:href="#DejaVuSans-34" x="95.410156"/>
      </g>
     </g>
    </g>
    <g id="xtick_5">
     <g id="line2d_5">
      <g>
       <use xlink:href="#m569c1572f4" x="400.613778" y="256.32" style="stroke: #000000; stroke-width: 0.8"/>
      </g>
     </g>
     <g id="text_5">
      <!-- 0.6 -->
      <g transform="translate(387.891278 275.4775)scale(0.16 -0.16)">
       <defs>
        <path id="DejaVuSans-36" d="M 2113 2584 
Q 1688 2584 1439 2293 
Q 1191 2003 1191 1497 
Q 1191 994 1439 701 
Q 1688 409 2113 409 
Q 2538 409 2786 701 
Q 3034 994 3034 1497 
Q 3034 2003 2786 2293 
Q 2538 2584 2113 2584 
z
M 3366 4563 
L 3366 3988 
Q 3128 4100 2886 4159 
Q 2644 4219 2406 4219 
Q 1781 4219 1451 3797 
Q 1122 3375 1075 2522 
Q 1259 2794 1537 2939 
Q 1816 3084 2150 3084 
Q 2853 3084 3261 2657 
Q 3669 2231 3669 1497 
Q 3669 778 3244 343 
Q 2819 -91 2113 -91 
Q 1303 -91 875 529 
Q 447 1150 447 2328 
Q 447 3434 972 4092 
Q 1497 4750 2381 4750 
Q 2619 4750 2861 4703 
Q 3103 4656 3366 4563 
z
" transform="scale(0.015625)"/>
       </defs>
       <use xlink:href="#DejaVuSans-30"/>
       <use xlink:href="#DejaVuSans-2e" x="63.623047"/>
       <use xlink:href="#DejaVuSans-36" x="95.410156"/>
      </g>
     </g>
    </g>
    <g id="text_6">
     <!-- Time from event (s) -->
     <g transform="translate(169.41375 296.482188)scale(0.18 -0.18)">
      <defs>
       <path id="DejaVuSans-54" d="M -19 4666 
L 3928 4666 
L 3928 4134 
L 2272 4134 
L 2272 0 
L 1638 0 
L 1638 4134 
L -19 4134 
L -19 4666 
z
" transform="scale(0.015625)"/>
       <path id="DejaVuSans-69" d="M 603 3500 
L 1178 3500 
L 1178 0 
L 603 0 
L 603 3500 
z
M 603 4863 
L 1178 4863 
L 1178 4134 
L 603 4134 
L 603 4863 
z
" transform="scale(0.015625)"/>
       <path id="DejaVuSans-6d" d="M 3328 2828 
Q 3544 3216 3844 3400 
Q 4144 3584 4550 3584 
Q 5097 3584 5394 3201 
Q 5691 2819 5691 2113 
L 5691 0 
L 5113 0 
L 5113 2094 
Q 5113 2597 4934 2840 
Q 4756 3084 4391 3084 
Q 3944 3084 3684 2787 
Q 3425 2491 3425 1978 
L 3425 0 
L 2847 0 
L 2847 2094 
Q 2847 2600 2669 2842 
Q 2491 3084 2119 3084 
Q 1678 3084 1418 2786 
Q 1159 2488 1159 1978 
L 1159 0 
L 581 0 
L 581 3500 
L 1159 3500 
L 1159 2956 
Q 1356 3278 1631 3431 
Q 1906 3584 2284 3584 
Q 2666 3584 2933 3390 
Q 3200 3197 3328 2828 
z
" transform="scale(0.015625)"/>
       <path id="DejaVuSans-65" d="M 3597 1894 
L 3597 1613 
L 953 1613 
Q 991 1019 1311 708 
Q 1631 397 2203 397 
Q 2534 397 2845 478 
Q 3156 559 3463 722 
L 3463 178 
Q 3153 47 2828 -22 
Q 2503 -91 2169 -91 
Q 1331 -91 842 396 
Q 353 884 353 1716 
Q 353 2575 817 3079 
Q 1281 3584 2069 3584 
Q 2775 3584 3186 3129 
Q 3597 2675 3597 1894 
z
M 3022 2063 
Q 3016 2534 2758 2815 
Q 2500 3097 2075 3097 
Q 1594 3097 1305 2825 
Q 1016 2553 972 2059 
L 3022 2063 
z
" transform="scale(0.015625)"/>
       <path id="DejaVuSans-20" transform="scale(0.015625)"/>
       <path id="DejaVuSans-66" d="M 2375 4863 
L 2375 4384 
L 1825 4384 
Q 1516 4384 1395 4259 
Q 1275 4134 1275 3809 
L 1275 3500 
L 2222 3500 
L 2222 3053 
L 1275 3053 
L 1275 0 
L 697 0 
L 697 3053 
L 147 3053 
L 147 3500 
L 697 3500 
L 697 3744 
Q 697 4328 969 4595 
Q 1241 4863 1831 4863 
L 2375 4863 
z
" transform="scale(0.015625)"/>
       <path id="DejaVuSans-72" d="M 2631 2963 
Q 2534 3019 2420 3045 
Q 2306 3072 2169 3072 
Q 1681 3072 1420 2755 
Q 1159 2438 1159 1844 
L 1159 0 
L 581 0 
L 581 3500 
L 1159 3500 
L 1159 2956 
Q 1341 3275 1631 3429 
Q 1922 3584 2338 3584 
Q 2397 3584 2469 3576 
Q 2541 3569 2628 3553 
L 2631 2963 
z
" transform="scale(0.015625)"/>
       <path id="DejaVuSans-6f" d="M 1959 3097 
Q 1497 3097 1228 2736 
Q 959 2375 959 1747 
Q 959 1119 1226 758 
Q 1494 397 1959 397 
Q 2419 397 2687 759 
Q 2956 1122 2956 1747 
Q 2956 2369 2687 2733 
Q 2419 3097 1959 3097 
z
M 1959 3584 
Q 2709 3584 3137 3096 
Q 3566 2609 3566 1747 
Q 3566 888 3137 398 
Q 2709 -91 1959 -91 
Q 1206 -91 779 398 
Q 353 888 353 1747 
Q 353 2609 779 3096 
Q 1206 3584 1959 3584 
z
" transform="scale(0.015625)"/>
       <path id="DejaVuSans-76" d="M 191 3500 
L 800 3500 
L 1894 563 
L 2988 3500 
L 3597 3500 
L 2284 0 
L 1503 0 
L 191 3500 
z
" transform="scale(0.015625)"/>
       <path id="DejaVuSans-6e" d="M 3513 2113 
L 3513 0 
L 2938 0 
L 2938 2094 
Q 2938 2591 2744 2837 
Q 2550 3084 2163 3084 
Q 1697 3084 1428 2787 
Q 1159 2491 1159 1978 
L 1159 0 
L 581 0 
L 581 3500 
L 1159 3500 
L 1159 2956 
Q 1366 3272 1645 3428 
Q 1925 3584 2291 3584 
Q 2894 3584 3203 3211 
Q 3513 2838 3513 2113 
z
" transform="scale(0.015625)"/>
       <path id="DejaVuSans-74" d="M 1172 4494 
L 1172 3500 
L 2356 3500 
L 2356 3053 
L 1172 3053 
L 1172 1153 
Q 1172 725 1289 603 
Q 1406 481 1766 481 
L 2356 481 
L 2356 0 
L 1766 0 
Q 1100 0 847 248 
Q 594 497 594 1153 
L 594 3053 
L 172 3053 
L 172 3500 
L 594 3500 
L 594 4494 
L 1172 4494 
z
" transform="scale(0.015625)"/>
       <path id="DejaVuSans-28" d="M 1984 4856 
Q 1566 4138 1362 3434 
Q 1159 2731 1159 2009 
Q 1159 1288 1364 580 
Q 1569 -128 1984 -844 
L 1484 -844 
Q 1016 -109 783 600 
Q 550 1309 550 2009 
Q 550 2706 781 3412 
Q 1013 4119 1484 4856 
L 1984 4856 
z
" transform="scale(0.015625)"/>
       <path id="DejaVuSans-73" d="M 2834 3397 
L 2834 2853 
Q 2591 2978 2328 3040 
Q 2066 3103 1784 3103 
Q 1356 3103 1142 2972 
Q 928 2841 928 2578 
Q 928 2378 1081 2264 
Q 1234 2150 1697 2047 
L 1894 2003 
Q 2506 1872 2764 1633 
Q 3022 1394 3022 966 
Q 3022 478 2636 193 
Q 2250 -91 1575 -91 
Q 1294 -91 989 -36 
Q 684 19 347 128 
L 347 722 
Q 666 556 975 473 
Q 1284 391 1588 391 
Q 1994 391 2212 530 
Q 2431 669 2431 922 
Q 2431 1156 2273 1281 
Q 2116 1406 1581 1522 
L 1381 1569 
Q 847 1681 609 1914 
Q 372 2147 372 2553 
Q 372 3047 722 3315 
Q 1072 3584 1716 3584 
Q 2034 3584 2315 3537 
Q 2597 3491 2834 3397 
z
" transform="scale(0.015625)"/>
       <path id="DejaVuSans-29" d="M 513 4856 
L 1013 4856 
Q 1481 4119 1714 3412 
Q 1947 2706 1947 2009 
Q 1947 1309 1714 600 
Q 1481 -109 1013 -844 
L 513 -844 
Q 928 -128 1133 580 
Q 1338 1288 1338 2009 
Q 1338 2731 1133 3434 
Q 928 4138 513 4856 
z
" transform="scale(0.015625)"/>
      </defs>
      <use xlink:href="#DejaVuSans-54"/>
      <use xlink:href="#DejaVuSans-69" x="57.958984"/>
      <use xlink:href="#DejaVuSans-6d" x="85.742188"/>
      <use xlink:href="#DejaVuSans-65" x="183.154297"/>
      <use xlink:href="#DejaVuSans-20" x="244.677734"/>
      <use xlink:href="#DejaVuSans-66" x="276.464844"/>
      <use xlink:href="#DejaVuSans-72" x="311.669922"/>
      <use xlink:href="#DejaVuSans-6f" x="350.533203"/>
      <use xlink:href="#DejaVuSans-6d" x="411.714844"/>
      <use xlink:href="#DejaVuSans-20" x="509.126953"/>
      <use xlink:href="#DejaVuSans-65" x="540.914062"/>
      <use xlink:href="#DejaVuSans-76" x="602.4375"/>
      <use xlink:href="#DejaVuSans-65" x="661.617188"/>
      <use xlink:href="#DejaVuSans-6e" x="723.140625"/>
      <use xlink:href="#DejaVuSans-74" x="786.519531"/>
      <use xlink:href="#DejaVuSans-20" x="825.728516"/>
      <use xlink:href="#DejaVuSans-28" x="857.515625"/>
      <use xlink:href="#DejaVuSans-73" x="896.529297"/>
      <use xlink:href="#DejaVuSans-29" x="948.628906"/>
     </g>
    </g>
   </g>
   <g id="matplotlib.axis_2">
    <g id="ytick_1">
     <g id="line2d_6">
      <defs>
       <path id="m9cd7dc7114" d="M 0 0 
L -3.5 0 
" style="stroke: #000000; stroke-width: 0.8"/>
      </defs>
      <g>
       <use xlink:href="#m9cd7dc7114" x="63" y="219.437963" style="stroke: #000000; stroke-width: 0.8"/>
      </g>
     </g>
     <g id="text_7">
      <!-- −5.0 -->
      <g transform="translate(17.1475 225.516713)scale(0.16 -0.16)">
       <defs>
        <path id="DejaVuSans-35" d="M 691 4666 
L 3169 4666 
L 3169 4134 
L 1269 4134 
L 1269 2991 
Q 1406 3038 1543 3061 
Q 1681 3084 1819 3084 
Q 2600 3084 3056 2656 
Q 3513 2228 3513 1497 
Q 3513 744 3044 326 
Q 2575 -91 1722 -91 
Q 1428 -91 1123 -41 
Q 819 9 494 109 
L 494 744 
Q 775 591 1075 516 
Q 1375 441 1709 441 
Q 2250 441 2565 725 
Q 2881 1009 2881 1497 
Q 2881 1984 2565 2268 
Q 2250 2553 1709 2553 
Q 1456 2553 1204 2497 
Q 953 2441 691 2322 
L 691 4666 
z
" transform="scale(0.015625)"/>
       </defs>
       <use xlink:href="#DejaVuSans-2212"/>
       <use xlink:href="#DejaVuSans-35" x="83.789062"/>
       <use xlink:href="#DejaVuSans-2e" x="147.412109"/>
       <use xlink:href="#DejaVuSans-30" x="179.199219"/>
      </g>
     </g>
    </g>
    <g id="ytick_2">
     <g id="line2d_7">
      <g>
       <use xlink:href="#m9cd7dc7114" x="63" y="177.290604" style="stroke: #000000; stroke-width: 0.8"/>
      </g>
     </g>
     <g id="text_8">
      <!-- −2.5 -->
      <g transform="translate(17.1475 183.369354)scale(0.16 -0.16)">
       <use xlink:href="#DejaVuSans-2212"/>
       <use xlink:href="#DejaVuSans-32" x="83.789062"/>
       <use xlink:href="#DejaVuSans-2e" x="147.412109"/>
       <use xlink:href="#DejaVuSans-35" x="179.199219"/>
      </g>
     </g>
    </g>
    <g id="ytick_3">
     <g id="line2d_8">
      <g>
       <use xlink:href="#m9cd7dc7114" x="63" y="135.143246" style="stroke: #000000; stroke-width: 0.8"/>
      </g>
     </g>
     <g id="text_9">
      <!-- 0.0 -->
      <g transform="translate(30.555 141.221996)scale(0.16 -0.16)">
       <use xlink:href="#DejaVuSans-30"/>
       <use xlink:href="#DejaVuSans-2e" x="63.623047"/>
       <use xlink:href="#DejaVuSans-30" x="95.410156"/>
      </g>
     </g>
    </g>
    <g id="ytick_4">
     <g id="line2d_9">
      <g>
       <use xlink:href="#m9cd7dc7114" x="63" y="92.995888" style="stroke: #000000; stroke-width: 0.8"/>
      </g>
     </g>
     <g id="text_10">
      <!-- 2.5 -->
      <g transform="translate(30.555 99.074638)scale(0.16 -0.16)">
       <use xlink:href="#DejaVuSans-32"/>
       <use xlink:href="#DejaVuSans-2e" x="63.623047"/>
       <use xlink:href="#DejaVuSans-35" x="95.410156"/>
      </g>
     </g>
    </g>
    <g id="ytick_5">
     <g id="line2d_10">
      <g>
       <use xlink:href="#m9cd7dc7114" x="63" y="50.848529" style="stroke: #000000; stroke-width: 0.8"/>
      </g>
     </g>
     <g id="text_11">
      <!-- 5.0 -->
      <g transform="translate(30.555 56.927279)scale(0.16 -0.16)">
       <use xlink:href="#DejaVuSans-35"/>
       <use xlink:href="#DejaVuSans-2e" x="63.623047"/>
       <use xlink:href="#DejaVuSans-30" x="95.410156"/>
      </g>
     </g>
    </g>
    <g id="text_12">
     <!-- Amplitude (uV) -->
     <g transform="translate(9.404062 213.304219)rotate(-90)scale(0.18 -0.18)">
      <defs>
       <path id="DejaVuSans-41" d="M 2188 4044 
L 1331 1722 
L 3047 1722 
L 2188 4044 
z
M 1831 4666 
L 2547 4666 
L 4325 0 
L 3669 0 
L 3244 1197 
L 1141 1197 
L 716 0 
L 50 0 
L 1831 4666 
z
" transform="scale(0.015625)"/>
       <path id="DejaVuSans-70" d="M 1159 525 
L 1159 -1331 
L 581 -1331 
L 581 3500 
L 1159 3500 
L 1159 2969 
Q 1341 3281 1617 3432 
Q 1894 3584 2278 3584 
Q 2916 3584 3314 3078 
Q 3713 2572 3713 1747 
Q 3713 922 3314 415 
Q 2916 -91 2278 -91 
Q 1894 -91 1617 61 
Q 1341 213 1159 525 
z
M 3116 1747 
Q 3116 2381 2855 2742 
Q 2594 3103 2138 3103 
Q 1681 3103 1420 2742 
Q 1159 2381 1159 1747 
Q 1159 1113 1420 752 
Q 1681 391 2138 391 
Q 2594 391 2855 752 
Q 3116 1113 3116 1747 
z
" transform="scale(0.015625)"/>
       <path id="DejaVuSans-6c" d="M 603 4863 
L 1178 4863 
L 1178 0 
L 603 0 
L 603 4863 
z
" transform="scale(0.015625)"/>
       <path id="DejaVuSans-75" d="M 544 1381 
L 544 3500 
L 1119 3500 
L 1119 1403 
Q 1119 906 1312 657 
Q 1506 409 1894 409 
Q 2359 409 2629 706 
Q 2900 1003 2900 1516 
L 2900 3500 
L 3475 3500 
L 3475 0 
L 2900 0 
L 2900 538 
Q 2691 219 2414 64 
Q 2138 -91 1772 -91 
Q 1169 -91 856 284 
Q 544 659 544 1381 
z
M 1991 3584 
L 1991 3584 
z
" transform="scale(0.015625)"/>
       <path id="DejaVuSans-64" d="M 2906 2969 
L 2906 4863 
L 3481 4863 
L 3481 0 
L 2906 0 
L 2906 525 
Q 2725 213 2448 61 
Q 2172 -91 1784 -91 
Q 1150 -91 751 415 
Q 353 922 353 1747 
Q 353 2572 751 3078 
Q 1150 3584 1784 3584 
Q 2172 3584 2448 3432 
Q 2725 3281 2906 2969 
z
M 947 1747 
Q 947 1113 1208 752 
Q 1469 391 1925 391 
Q 2381 391 2643 752 
Q 2906 1113 2906 1747 
Q 2906 2381 2643 2742 
Q 2381 3103 1925 3103 
Q 1469 3103 1208 2742 
Q 947 2381 947 1747 
z
" transform="scale(0.015625)"/>
       <path id="DejaVuSans-56" d="M 1831 0 
L 50 4666 
L 709 4666 
L 2188 738 
L 3669 4666 
L 4325 4666 
L 2547 0 
L 1831 0 
z
" transform="scale(0.015625)"/>
      </defs>
      <use xlink:href="#DejaVuSans-41"/>
      <use xlink:href="#DejaVuSans-6d" x="68.408203"/>
      <use xlink:href="#DejaVuSans-70" x="165.820312"/>
      <use xlink:href="#DejaVuSans-6c" x="229.296875"/>
      <use xlink:href="#DejaVuSans-69" x="257.080078"/>
      <use xlink:href="#DejaVuSans-74" x="284.863281"/>
      <use xlink:href="#DejaVuSans-75" x="324.072266"/>
      <use xlink:href="#DejaVuSans-64" x="387.451172"/>
      <use xlink:href="#DejaVuSans-65" x="450.927734"/>
      <use xlink:href="#DejaVuSans-20" x="512.451172"/>
      <use xlink:href="#DejaVuSans-28" x="544.238281"/>
      <use xlink:href="#DejaVuSans-75" x="583.251953"/>
      <use xlink:href="#DejaVuSans-56" x="646.630859"/>
      <use xlink:href="#DejaVuSans-29" x="715.039062"/>
     </g>
    </g>
   </g>
   <g id="line2d_11">
    <path d="M 63 135.143246 
L 453.6 135.143246 
" clip-path="url(#pbe7e53a79b)" style="fill: none; stroke: #000000; stroke-width: 0.5; stroke-linecap: square"/>
   </g>
   <g id="line2d_12">
    <path d="M 187.559233 256.32 
L 187.559233 34.56 
" clip-path="url(#pbe7e53a79b)" style="fill: none; stroke-dasharray: 1.85,0.8; stroke-dashoffset: 0; stroke: #000000; stroke-width: 0.5"/>
   </g>
   <g id="line2d_13">
    <path d="M 80.754545 135.929173 
L 82.141619 131.010112 
L 84.915767 111.51812 
L 86.302841 107.780042 
L 87.689915 112.62549 
L 89.076989 125.726886 
L 91.851136 161.311776 
L 93.23821 172.07393 
L 94.625284 171.964175 
L 96.012358 161.678703 
L 97.399432 147.255471 
L 98.786506 136.996769 
L 100.17358 136.249691 
L 101.560653 143.856527 
L 102.947727 153.356496 
L 104.334801 158.25884 
L 105.721875 157.077277 
L 107.108949 153.815715 
L 108.496023 153.56391 
L 111.27017 160.852693 
L 112.657244 158.798254 
L 114.044318 149.988124 
L 115.431392 139.137039 
L 116.818466 133.156122 
L 118.20554 135.503585 
L 120.979687 151.848683 
L 122.366761 155.988167 
L 123.753835 156.535358 
L 125.140909 156.689392 
L 126.527983 158.460673 
L 127.915057 160.65838 
L 129.302131 160.620145 
L 130.689205 157.536339 
L 132.076278 153.659849 
L 133.463352 152.009776 
L 134.850426 152.921188 
L 136.2375 153.13333 
L 137.624574 148.672561 
L 139.011648 138.967213 
L 140.398722 128.187612 
L 141.785795 122.199792 
L 143.172869 123.558767 
L 144.559943 128.911819 
L 145.947017 131.241574 
L 147.334091 125.273629 
L 148.721165 111.690054 
L 150.108239 96.779287 
L 151.495312 87.876036 
L 152.882386 88.243202 
L 154.26946 95.285093 
L 155.656534 103.145905 
L 157.043608 107.279945 
L 158.430682 107.267889 
L 159.817756 105.905461 
L 161.20483 105.820638 
L 162.591903 106.870015 
L 163.978977 106.699561 
L 165.366051 103.90784 
L 166.753125 100.768412 
L 168.140199 102.655403 
L 169.527273 114.124865 
L 170.914347 134.674345 
L 172.30142 157.815857 
L 173.688494 174.56966 
L 175.075568 178.884415 
L 176.462642 170.908805 
L 180.623864 126.640949 
L 182.010937 116.620155 
L 183.398011 109.715958 
L 184.785085 106.94661 
L 186.172159 109.935212 
L 187.559233 118.543514 
L 188.946307 129.445645 
L 190.333381 137.623722 
L 191.720455 139.885997 
L 193.107528 137.342904 
L 194.494602 134.493536 
L 195.881676 135.566288 
L 197.26875 141.224258 
L 198.655824 148.385179 
L 200.042898 153.086595 
L 201.429972 153.693536 
L 204.204119 149.663467 
L 205.591193 148.82846 
L 206.978267 148.347097 
L 209.752415 145.887782 
L 211.139489 147.459778 
L 212.526563 154.362699 
L 215.30071 178.484376 
L 216.687784 186.009875 
L 218.074858 185.560464 
L 219.461932 178.622969 
L 220.849006 170.294742 
L 222.23608 165.898095 
L 223.623153 167.760178 
L 225.010227 174.387651 
L 226.397301 182.275563 
L 227.784375 188.630801 
L 229.171449 192.860242 
L 230.558523 195.924996 
L 231.945597 198.436633 
L 233.33267 199.251236 
L 234.719744 195.746388 
L 236.106818 185.561577 
L 237.493892 168.501912 
L 240.26804 126.742324 
L 241.655114 111.912473 
L 243.042188 106.206601 
L 244.429261 110.173194 
L 245.816335 121.2672 
L 247.203409 134.607061 
L 248.590483 144.661061 
L 249.977557 147.534225 
L 251.364631 142.968103 
L 252.751705 134.761755 
L 254.138778 128.779829 
L 255.525852 129.197188 
L 258.3 141.087362 
L 259.687074 139.437905 
L 261.074148 127.055231 
L 262.461222 107.880001 
L 263.848295 91.181553 
L 265.235369 85.51632 
L 266.622443 92.816766 
L 268.009517 107.181488 
L 269.396591 119.428478 
L 270.783665 123.85228 
L 272.170739 121.773659 
L 273.557813 119.139517 
L 274.944886 120.496103 
L 276.33196 124.756349 
L 277.719034 126.515792 
L 279.106108 121.627109 
L 280.493182 111.812657 
L 281.880256 103.885915 
L 283.26733 104.047249 
L 284.654403 112.309576 
L 286.041477 122.162421 
L 287.428551 125.952965 
L 288.815625 121.308604 
L 290.202699 112.943865 
L 291.589773 108.304457 
L 292.976847 110.980516 
L 294.36392 117.717502 
L 295.750994 121.516991 
L 297.138068 117.863448 
L 299.912216 99.536604 
L 301.29929 96.109264 
L 302.686364 98.23474 
L 304.073438 101.68327 
L 305.460511 102.467253 
L 306.847585 100.632584 
L 308.234659 99.912117 
L 309.621733 103.84127 
L 312.395881 120.948805 
L 313.782955 126.046354 
L 315.170028 126.763593 
L 316.557102 126.115004 
L 317.944176 127.643635 
L 319.33125 131.830784 
L 320.718324 135.527539 
L 322.105398 134.99825 
L 323.492472 129.771898 
L 324.879545 123.645244 
L 326.266619 121.672775 
L 327.653693 125.623025 
L 329.040767 131.939897 
L 330.427841 134.270012 
L 331.814915 128.71918 
L 333.201989 117.506324 
L 334.589063 107.793141 
L 335.976136 106.361686 
L 337.36321 114.290008 
L 338.750284 125.920943 
L 340.137358 133.05065 
L 341.524432 131.111785 
L 342.911506 122.568552 
L 344.29858 114.999932 
L 345.685653 115.516718 
L 347.072727 125.849626 
L 348.459801 141.621541 
L 349.846875 155.879144 
L 351.233949 163.821948 
L 352.621023 165.228973 
L 354.008097 163.338351 
L 355.39517 161.749082 
L 356.782244 162.022554 
L 359.556392 164.907634 
L 362.33054 166.530611 
L 363.717614 168.060193 
L 365.104688 170.086107 
L 366.491761 171.289457 
L 367.878835 170.087742 
L 369.265909 165.782249 
L 372.040057 152.083898 
L 373.427131 146.55377 
L 374.814205 143.581061 
L 376.201278 142.828334 
L 377.588352 142.965792 
L 378.975426 142.47952 
L 380.3625 140.39256 
L 381.749574 136.57217 
L 384.523722 126.947609 
L 385.910795 124.014937 
L 387.297869 124.39771 
L 388.684943 128.723854 
L 391.459091 142.970043 
L 392.846165 146.223732 
L 394.233239 143.161957 
L 395.620313 134.167097 
L 397.007386 122.58368 
L 398.39446 112.973747 
L 399.781534 108.63238 
L 401.168608 110.009084 
L 402.555682 114.978468 
L 403.942756 120.526703 
L 405.32983 124.501719 
L 406.716903 126.291305 
L 408.103977 126.320435 
L 409.491051 125.152764 
L 410.878125 123.054571 
L 413.652273 117.329847 
L 415.039347 115.428536 
L 416.42642 115.593696 
L 417.813494 118.072044 
L 419.200568 121.876695 
L 420.587642 125.097315 
L 421.974716 125.854562 
L 423.36179 123.379807 
L 426.135938 113.677281 
L 427.523011 111.184106 
L 428.910085 112.648911 
L 430.297159 118.030688 
L 434.458381 141.006649 
L 435.845455 145.288215 
L 435.845455 145.288215 
" clip-path="url(#pbe7e53a79b)" style="fill: none; stroke: #1f77b4; stroke-width: 1.5; stroke-linecap: square"/>
   </g>
   <g id="line2d_14">
    <path d="M 80.754545 110.607425 
L 82.141619 117.419981 
L 83.528693 121.170825 
L 84.915767 121.220674 
L 86.302841 119.024125 
L 87.689915 117.104071 
L 89.076989 117.09113 
L 90.464062 118.596655 
L 91.851136 119.879032 
L 93.23821 119.618072 
L 94.625284 118.208182 
L 96.012358 117.547899 
L 97.399432 119.653317 
L 98.786506 125.284863 
L 100.17358 133.541168 
L 101.560653 142.497288 
L 102.947727 150.305087 
L 104.334801 156.116337 
L 107.108949 165.035087 
L 108.496023 171.705215 
L 109.883097 181.401853 
L 112.657244 204.204939 
L 114.044318 211.142654 
L 115.431392 211.588426 
L 116.818466 205.183086 
L 118.20554 193.427166 
L 122.366761 149.352507 
L 123.753835 138.400769 
L 125.140909 131.653539 
L 126.527983 129.278455 
L 127.915057 130.23185 
L 129.302131 132.861254 
L 130.689205 136.021301 
L 132.076278 139.663556 
L 133.463352 144.191258 
L 134.850426 149.132262 
L 136.2375 152.602753 
L 137.624574 152.473156 
L 139.011648 148.42934 
L 140.398722 142.918659 
L 141.785795 139.68324 
L 143.172869 140.790619 
L 144.559943 144.725735 
L 145.947017 147.461403 
L 147.334091 145.850223 
L 150.108239 135.520986 
L 151.495312 135.416828 
L 152.882386 141.470616 
L 154.26946 150.841656 
L 155.656534 158.785709 
L 157.043608 162.020658 
L 158.430682 160.509161 
L 161.20483 152.74478 
L 163.978977 146.864349 
L 165.366051 142.589027 
L 166.753125 136.067571 
L 170.914347 110.591855 
L 172.30142 106.400597 
L 173.688494 106.460569 
L 176.462642 112.265735 
L 177.849716 112.971196 
L 179.23679 112.037113 
L 180.623864 112.700879 
L 182.010937 118.257768 
L 183.398011 128.811224 
L 184.785085 140.344353 
L 186.172159 147.320106 
L 187.559233 146.885988 
L 190.333381 135.262103 
L 191.720455 133.4287 
L 193.107528 135.342702 
L 194.494602 136.851331 
L 195.881676 133.519942 
L 197.26875 124.160411 
L 198.655824 111.504989 
L 200.042898 99.911147 
L 201.429972 92.356935 
L 202.817045 89.086054 
L 204.204119 88.426587 
L 205.591193 88.510869 
L 206.978267 88.375355 
L 208.365341 87.982182 
L 209.752415 87.729607 
L 211.139489 88.111833 
L 212.526563 89.646335 
L 213.913636 92.828722 
L 215.30071 97.998868 
L 216.687784 105.212072 
L 218.074858 114.139632 
L 219.461932 123.880358 
L 220.849006 132.757661 
L 222.23608 138.578551 
L 223.623153 139.761432 
L 225.010227 136.866522 
L 226.397301 133.124649 
L 227.784375 132.814735 
L 229.171449 138.089666 
L 230.558523 146.69024 
L 231.945597 152.913909 
L 233.33267 151.725215 
L 234.719744 142.939615 
L 236.106818 131.80983 
L 237.493892 125.07886 
L 238.880966 125.513875 
L 240.26804 129.559522 
L 241.655114 130.340019 
L 243.042188 123.682714 
L 244.429261 112.088697 
L 245.816335 103.149972 
L 247.203409 103.564138 
L 248.590483 113.660337 
L 249.977557 126.991056 
L 251.364631 135.359538 
L 252.751705 135.176516 
L 254.138778 130.000335 
L 255.525852 127.310576 
L 256.912926 132.284543 
L 259.687074 155.174267 
L 261.074148 160.601044 
L 262.461222 159.058324 
L 263.848295 155.276492 
L 265.235369 155.387241 
L 266.622443 161.744233 
L 268.009517 171.249654 
L 269.396591 178.471524 
L 270.783665 180.600831 
L 272.170739 179.714528 
L 273.557813 180.320114 
L 274.944886 184.538546 
L 276.33196 189.540644 
L 277.719034 189.826387 
L 279.106108 182.383915 
L 280.493182 169.891156 
L 281.880256 158.732976 
L 283.26733 153.385788 
L 284.654403 152.286869 
L 286.041477 149.216802 
L 287.428551 139.275617 
L 288.815625 124.179105 
L 290.202699 111.912068 
L 291.589773 110.641364 
L 292.976847 121.930169 
L 294.36392 139.099329 
L 295.750994 152.284543 
L 297.138068 156.077455 
L 298.525142 153.489369 
L 299.912216 153.078414 
L 301.29929 161.679616 
L 304.073438 195.709601 
L 305.460511 203.334308 
L 306.847585 197.193261 
L 309.621733 166.333301 
L 311.008807 160.542614 
L 312.395881 166.374147 
L 313.782955 178.049777 
L 315.170028 185.904254 
L 316.557102 182.929354 
L 317.944176 169.350044 
L 319.33125 152.138922 
L 320.718324 139.859431 
L 322.105398 136.591768 
L 323.492472 139.469264 
L 324.879545 141.70307 
L 326.266619 138.67339 
L 327.653693 132.076554 
L 329.040767 128.551861 
L 330.427841 133.765855 
L 333.201989 160.328171 
L 334.589063 165.110576 
L 335.976136 157.736154 
L 338.750284 128.826617 
L 340.137358 122.483356 
L 341.524432 123.41801 
L 342.911506 126.087461 
L 344.29858 124.802471 
L 345.685653 118.028262 
L 347.072727 108.664142 
L 348.459801 101.033904 
L 349.846875 97.867645 
L 351.233949 99.647251 
L 352.621023 105.793625 
L 354.008097 115.510461 
L 355.39517 127.209962 
L 356.782244 137.73828 
L 358.169318 143.2766 
L 359.556392 141.930283 
L 362.33054 129.358132 
L 363.717614 126.899347 
L 365.104688 128.107524 
L 366.491761 128.919414 
L 367.878835 125.191879 
L 369.265909 116.633484 
L 370.652983 107.278464 
L 372.040057 102.050348 
L 373.427131 102.553958 
L 374.814205 105.886635 
L 376.201278 107.431734 
L 377.588352 105.013229 
L 378.975426 100.730604 
L 380.3625 99.024118 
L 381.749574 102.804644 
L 384.523722 118.735201 
L 385.910795 121.419533 
L 387.297869 117.033492 
L 390.072017 99.188923 
L 391.459091 96.09905 
L 392.846165 100.546166 
L 394.233239 109.816033 
L 395.620313 117.856811 
L 397.007386 118.997046 
L 398.39446 111.94072 
L 399.781534 101.159902 
L 401.168608 94.202403 
L 402.555682 96.448439 
L 403.942756 107.163011 
L 405.32983 120.039587 
L 406.716903 127.934961 
L 408.103977 127.989538 
L 410.878125 118.088846 
L 412.265199 116.182615 
L 413.652273 116.043405 
L 415.039347 114.783516 
L 416.42642 111.832806 
L 417.813494 110.323708 
L 419.200568 114.341998 
L 420.587642 124.626438 
L 421.974716 136.954378 
L 423.36179 145.020379 
L 424.748864 145.396926 
L 427.523011 134.897735 
L 428.910085 133.922273 
L 430.297159 137.102485 
L 431.684233 140.837606 
L 433.071307 141.931939 
L 435.845455 139.04438 
L 435.845455 139.04438 
" clip-path="url(#pbe7e53a79b)" style="fill: none; stroke: #ff7f0e; stroke-width: 1.5; stroke-linecap: square"/>
   </g>
   <g id="patch_3">
    <path d="M 63 256.32 
L 63 34.56 
" style="fill: none; stroke: #000000; stroke-width: 0.8; stroke-linejoin: miter; stroke-linecap: square"/>
   </g>
   <g id="patch_4">
    <path d="M 453.6 256.32 
L 453.6 34.56 
" style="fill: none; stroke: #000000; stroke-width: 0.8; stroke-linejoin: miter; stroke-linecap: square"/>
   </g>
   <g id="patch_5">
    <path d="M 63 256.32 
L 453.6 256.32 
" style="fill: none; stroke: #000000; stroke-width: 0.8; stroke-linejoin: miter; stroke-linecap: square"/>
   </g>
   <g id="patch_6">
    <path d="M 63 34.56 
L 453.6 34.56 
" style="fill: none; stroke: #000000; stroke-width: 0.8; stroke-linejoin: miter; stroke-linecap: square"/>
   </g>
   <g id="text_13">
    <!-- ERP - Shape trial 1, participant 04  -->
    <g transform="translate(62.717187 28.56)scale(0.2 -0.2)">
     <defs>
      <path id="DejaVuSans-Bold-45" d="M 588 4666 
L 3834 4666 
L 3834 3756 
L 1791 3756 
L 1791 2888 
L 3713 2888 
L 3713 1978 
L 1791 1978 
L 1791 909 
L 3903 909 
L 3903 0 
L 588 0 
L 588 4666 
z
" transform="scale(0.015625)"/>
      <path id="DejaVuSans-Bold-52" d="M 2297 2597 
Q 2675 2597 2839 2737 
Q 3003 2878 3003 3200 
Q 3003 3519 2839 3656 
Q 2675 3794 2297 3794 
L 1791 3794 
L 1791 2597 
L 2297 2597 
z
M 1791 1766 
L 1791 0 
L 588 0 
L 588 4666 
L 2425 4666 
Q 3347 4666 3776 4356 
Q 4206 4047 4206 3378 
Q 4206 2916 3982 2619 
Q 3759 2322 3309 2181 
Q 3556 2125 3751 1926 
Q 3947 1728 4147 1325 
L 4800 0 
L 3519 0 
L 2950 1159 
Q 2778 1509 2601 1637 
Q 2425 1766 2131 1766 
L 1791 1766 
z
" transform="scale(0.015625)"/>
      <path id="DejaVuSans-Bold-50" d="M 588 4666 
L 2584 4666 
Q 3475 4666 3951 4270 
Q 4428 3875 4428 3144 
Q 4428 2409 3951 2014 
Q 3475 1619 2584 1619 
L 1791 1619 
L 1791 0 
L 588 0 
L 588 4666 
z
M 1791 3794 
L 1791 2491 
L 2456 2491 
Q 2806 2491 2997 2661 
Q 3188 2831 3188 3144 
Q 3188 3456 2997 3625 
Q 2806 3794 2456 3794 
L 1791 3794 
z
" transform="scale(0.015625)"/>
      <path id="DejaVuSans-Bold-20" transform="scale(0.015625)"/>
      <path id="DejaVuSans-Bold-2d" d="M 347 2297 
L 2309 2297 
L 2309 1388 
L 347 1388 
L 347 2297 
z
" transform="scale(0.015625)"/>
      <path id="DejaVuSans-Bold-53" d="M 3834 4519 
L 3834 3531 
Q 3450 3703 3084 3790 
Q 2719 3878 2394 3878 
Q 1963 3878 1756 3759 
Q 1550 3641 1550 3391 
Q 1550 3203 1689 3098 
Q 1828 2994 2194 2919 
L 2706 2816 
Q 3484 2659 3812 2340 
Q 4141 2022 4141 1434 
Q 4141 663 3683 286 
Q 3225 -91 2284 -91 
Q 1841 -91 1394 -6 
Q 947 78 500 244 
L 500 1259 
Q 947 1022 1364 901 
Q 1781 781 2169 781 
Q 2563 781 2772 912 
Q 2981 1044 2981 1288 
Q 2981 1506 2839 1625 
Q 2697 1744 2272 1838 
L 1806 1941 
Q 1106 2091 782 2419 
Q 459 2747 459 3303 
Q 459 4000 909 4375 
Q 1359 4750 2203 4750 
Q 2588 4750 2994 4692 
Q 3400 4634 3834 4519 
z
" transform="scale(0.015625)"/>
      <path id="DejaVuSans-Bold-68" d="M 4056 2131 
L 4056 0 
L 2931 0 
L 2931 347 
L 2931 1625 
Q 2931 2084 2911 2256 
Q 2891 2428 2841 2509 
Q 2775 2619 2662 2680 
Q 2550 2741 2406 2741 
Q 2056 2741 1856 2470 
Q 1656 2200 1656 1722 
L 1656 0 
L 538 0 
L 538 4863 
L 1656 4863 
L 1656 2988 
Q 1909 3294 2193 3439 
Q 2478 3584 2822 3584 
Q 3428 3584 3742 3212 
Q 4056 2841 4056 2131 
z
" transform="scale(0.015625)"/>
      <path id="DejaVuSans-Bold-61" d="M 2106 1575 
Q 1756 1575 1579 1456 
Q 1403 1338 1403 1106 
Q 1403 894 1545 773 
Q 1688 653 1941 653 
Q 2256 653 2472 879 
Q 2688 1106 2688 1447 
L 2688 1575 
L 2106 1575 
z
M 3816 1997 
L 3816 0 
L 2688 0 
L 2688 519 
Q 2463 200 2181 54 
Q 1900 -91 1497 -91 
Q 953 -91 614 226 
Q 275 544 275 1050 
Q 275 1666 698 1953 
Q 1122 2241 2028 2241 
L 2688 2241 
L 2688 2328 
Q 2688 2594 2478 2717 
Q 2269 2841 1825 2841 
Q 1466 2841 1156 2769 
Q 847 2697 581 2553 
L 581 3406 
Q 941 3494 1303 3539 
Q 1666 3584 2028 3584 
Q 2975 3584 3395 3211 
Q 3816 2838 3816 1997 
z
" transform="scale(0.015625)"/>
      <path id="DejaVuSans-Bold-70" d="M 1656 506 
L 1656 -1331 
L 538 -1331 
L 538 3500 
L 1656 3500 
L 1656 2988 
Q 1888 3294 2169 3439 
Q 2450 3584 2816 3584 
Q 3463 3584 3878 3070 
Q 4294 2556 4294 1747 
Q 4294 938 3878 423 
Q 3463 -91 2816 -91 
Q 2450 -91 2169 54 
Q 1888 200 1656 506 
z
M 2400 2772 
Q 2041 2772 1848 2508 
Q 1656 2244 1656 1747 
Q 1656 1250 1848 986 
Q 2041 722 2400 722 
Q 2759 722 2948 984 
Q 3138 1247 3138 1747 
Q 3138 2247 2948 2509 
Q 2759 2772 2400 2772 
z
" transform="scale(0.015625)"/>
      <path id="DejaVuSans-Bold-65" d="M 4031 1759 
L 4031 1441 
L 1416 1441 
Q 1456 1047 1700 850 
Q 1944 653 2381 653 
Q 2734 653 3104 758 
Q 3475 863 3866 1075 
L 3866 213 
Q 3469 63 3072 -14 
Q 2675 -91 2278 -91 
Q 1328 -91 801 392 
Q 275 875 275 1747 
Q 275 2603 792 3093 
Q 1309 3584 2216 3584 
Q 3041 3584 3536 3087 
Q 4031 2591 4031 1759 
z
M 2881 2131 
Q 2881 2450 2695 2645 
Q 2509 2841 2209 2841 
Q 1884 2841 1681 2658 
Q 1478 2475 1428 2131 
L 2881 2131 
z
" transform="scale(0.015625)"/>
      <path id="DejaVuSans-Bold-74" d="M 1759 4494 
L 1759 3500 
L 2913 3500 
L 2913 2700 
L 1759 2700 
L 1759 1216 
Q 1759 972 1856 886 
Q 1953 800 2241 800 
L 2816 800 
L 2816 0 
L 1856 0 
Q 1194 0 917 276 
Q 641 553 641 1216 
L 641 2700 
L 84 2700 
L 84 3500 
L 641 3500 
L 641 4494 
L 1759 4494 
z
" transform="scale(0.015625)"/>
      <path id="DejaVuSans-Bold-72" d="M 3138 2547 
Q 2991 2616 2845 2648 
Q 2700 2681 2553 2681 
Q 2122 2681 1889 2404 
Q 1656 2128 1656 1613 
L 1656 0 
L 538 0 
L 538 3500 
L 1656 3500 
L 1656 2925 
Q 1872 3269 2151 3426 
Q 2431 3584 2822 3584 
Q 2878 3584 2943 3579 
Q 3009 3575 3134 3559 
L 3138 2547 
z
" transform="scale(0.015625)"/>
      <path id="DejaVuSans-Bold-69" d="M 538 3500 
L 1656 3500 
L 1656 0 
L 538 0 
L 538 3500 
z
M 538 4863 
L 1656 4863 
L 1656 3950 
L 538 3950 
L 538 4863 
z
" transform="scale(0.015625)"/>
      <path id="DejaVuSans-Bold-6c" d="M 538 4863 
L 1656 4863 
L 1656 0 
L 538 0 
L 538 4863 
z
" transform="scale(0.015625)"/>
      <path id="DejaVuSans-Bold-31" d="M 750 831 
L 1813 831 
L 1813 3847 
L 722 3622 
L 722 4441 
L 1806 4666 
L 2950 4666 
L 2950 831 
L 4013 831 
L 4013 0 
L 750 0 
L 750 831 
z
" transform="scale(0.015625)"/>
      <path id="DejaVuSans-Bold-2c" d="M 653 1209 
L 1778 1209 
L 1778 256 
L 1006 -909 
L 341 -909 
L 653 256 
L 653 1209 
z
" transform="scale(0.015625)"/>
      <path id="DejaVuSans-Bold-63" d="M 3366 3391 
L 3366 2478 
Q 3138 2634 2908 2709 
Q 2678 2784 2431 2784 
Q 1963 2784 1702 2511 
Q 1441 2238 1441 1747 
Q 1441 1256 1702 982 
Q 1963 709 2431 709 
Q 2694 709 2930 787 
Q 3166 866 3366 1019 
L 3366 103 
Q 3103 6 2833 -42 
Q 2563 -91 2291 -91 
Q 1344 -91 809 395 
Q 275 881 275 1747 
Q 275 2613 809 3098 
Q 1344 3584 2291 3584 
Q 2566 3584 2833 3536 
Q 3100 3488 3366 3391 
z
" transform="scale(0.015625)"/>
      <path id="DejaVuSans-Bold-6e" d="M 4056 2131 
L 4056 0 
L 2931 0 
L 2931 347 
L 2931 1631 
Q 2931 2084 2911 2256 
Q 2891 2428 2841 2509 
Q 2775 2619 2662 2680 
Q 2550 2741 2406 2741 
Q 2056 2741 1856 2470 
Q 1656 2200 1656 1722 
L 1656 0 
L 538 0 
L 538 3500 
L 1656 3500 
L 1656 2988 
Q 1909 3294 2193 3439 
Q 2478 3584 2822 3584 
Q 3428 3584 3742 3212 
Q 4056 2841 4056 2131 
z
" transform="scale(0.015625)"/>
      <path id="DejaVuSans-Bold-30" d="M 2944 2338 
Q 2944 3213 2780 3570 
Q 2616 3928 2228 3928 
Q 1841 3928 1675 3570 
Q 1509 3213 1509 2338 
Q 1509 1453 1675 1090 
Q 1841 728 2228 728 
Q 2613 728 2778 1090 
Q 2944 1453 2944 2338 
z
M 4147 2328 
Q 4147 1169 3647 539 
Q 3147 -91 2228 -91 
Q 1306 -91 806 539 
Q 306 1169 306 2328 
Q 306 3491 806 4120 
Q 1306 4750 2228 4750 
Q 3147 4750 3647 4120 
Q 4147 3491 4147 2328 
z
" transform="scale(0.015625)"/>
      <path id="DejaVuSans-Bold-34" d="M 2356 3675 
L 1038 1722 
L 2356 1722 
L 2356 3675 
z
M 2156 4666 
L 3494 4666 
L 3494 1722 
L 4159 1722 
L 4159 850 
L 3494 850 
L 3494 0 
L 2356 0 
L 2356 850 
L 288 850 
L 288 1881 
L 2156 4666 
z
" transform="scale(0.015625)"/>
     </defs>
     <use xlink:href="#DejaVuSans-Bold-45"/>
     <use xlink:href="#DejaVuSans-Bold-52" x="68.310547"/>
     <use xlink:href="#DejaVuSans-Bold-50" x="145.3125"/>
     <use xlink:href="#DejaVuSans-Bold-20" x="218.603516"/>
     <use xlink:href="#DejaVuSans-Bold-2d" x="253.417969"/>
     <use xlink:href="#DejaVuSans-Bold-20" x="294.921875"/>
     <use xlink:href="#DejaVuSans-Bold-53" x="329.736328"/>
     <use xlink:href="#DejaVuSans-Bold-68" x="401.757812"/>
     <use xlink:href="#DejaVuSans-Bold-61" x="472.949219"/>
     <use xlink:href="#DejaVuSans-Bold-70" x="540.429688"/>
     <use xlink:href="#DejaVuSans-Bold-65" x="612.011719"/>
     <use xlink:href="#DejaVuSans-Bold-20" x="679.833984"/>
     <use xlink:href="#DejaVuSans-Bold-74" x="714.648438"/>
     <use xlink:href="#DejaVuSans-Bold-72" x="762.451172"/>
     <use xlink:href="#DejaVuSans-Bold-69" x="811.767578"/>
     <use xlink:href="#DejaVuSans-Bold-61" x="846.044922"/>
     <use xlink:href="#DejaVuSans-Bold-6c" x="913.525391"/>
     <use xlink:href="#DejaVuSans-Bold-20" x="947.802734"/>
     <use xlink:href="#DejaVuSans-Bold-31" x="982.617188"/>
     <use xlink:href="#DejaVuSans-Bold-2c" x="1052.197266"/>
     <use xlink:href="#DejaVuSans-Bold-20" x="1090.185547"/>
     <use xlink:href="#DejaVuSans-Bold-70" x="1125"/>
     <use xlink:href="#DejaVuSans-Bold-61" x="1196.582031"/>
     <use xlink:href="#DejaVuSans-Bold-72" x="1264.0625"/>
     <use xlink:href="#DejaVuSans-Bold-74" x="1313.378906"/>
     <use xlink:href="#DejaVuSans-Bold-69" x="1361.181641"/>
     <use xlink:href="#DejaVuSans-Bold-63" x="1395.458984"/>
     <use xlink:href="#DejaVuSans-Bold-69" x="1454.736328"/>
     <use xlink:href="#DejaVuSans-Bold-70" x="1489.013672"/>
     <use xlink:href="#DejaVuSans-Bold-61" x="1560.595703"/>
     <use xlink:href="#DejaVuSans-Bold-6e" x="1628.076172"/>
     <use xlink:href="#DejaVuSans-Bold-74" x="1699.267578"/>
     <use xlink:href="#DejaVuSans-Bold-20" x="1747.070312"/>
     <use xlink:href="#DejaVuSans-Bold-30" x="1781.884766"/>
     <use xlink:href="#DejaVuSans-Bold-34" x="1851.464844"/>
     <use xlink:href="#DejaVuSans-Bold-20" x="1921.044922"/>
    </g>
   </g>
   <g id="legend_1">
    <g id="patch_7">
     <path d="M 348.396875 251.32 
L 446.6 251.32 
Q 448.6 251.32 448.6 249.32 
L 448.6 191.6075 
Q 448.6 189.6075 446.6 189.6075 
L 348.396875 189.6075 
Q 346.396875 189.6075 346.396875 191.6075 
L 346.396875 249.32 
Q 346.396875 251.32 348.396875 251.32 
z
" style="fill: #ffffff; opacity: 0.8; stroke: #cccccc; stroke-linejoin: miter"/>
    </g>
    <g id="line2d_15">
     <path d="M 350.396875 197.705938 
L 360.396875 197.705938 
L 370.396875 197.705938 
" style="fill: none; stroke: #1f77b4; stroke-width: 1.5; stroke-linecap: square"/>
    </g>
    <g id="text_14">
     <!-- 'left' - Mean -->
     <g transform="translate(378.396875 201.205938)scale(0.1 -0.1)">
      <defs>
       <path id="DejaVuSans-27" d="M 1147 4666 
L 1147 2931 
L 616 2931 
L 616 4666 
L 1147 4666 
z
" transform="scale(0.015625)"/>
       <path id="DejaVuSans-2d" d="M 313 2009 
L 1997 2009 
L 1997 1497 
L 313 1497 
L 313 2009 
z
" transform="scale(0.015625)"/>
       <path id="DejaVuSans-4d" d="M 628 4666 
L 1569 4666 
L 2759 1491 
L 3956 4666 
L 4897 4666 
L 4897 0 
L 4281 0 
L 4281 4097 
L 3078 897 
L 2444 897 
L 1241 4097 
L 1241 0 
L 628 0 
L 628 4666 
z
" transform="scale(0.015625)"/>
       <path id="DejaVuSans-61" d="M 2194 1759 
Q 1497 1759 1228 1600 
Q 959 1441 959 1056 
Q 959 750 1161 570 
Q 1363 391 1709 391 
Q 2188 391 2477 730 
Q 2766 1069 2766 1631 
L 2766 1759 
L 2194 1759 
z
M 3341 1997 
L 3341 0 
L 2766 0 
L 2766 531 
Q 2569 213 2275 61 
Q 1981 -91 1556 -91 
Q 1019 -91 701 211 
Q 384 513 384 1019 
Q 384 1609 779 1909 
Q 1175 2209 1959 2209 
L 2766 2209 
L 2766 2266 
Q 2766 2663 2505 2880 
Q 2244 3097 1772 3097 
Q 1472 3097 1187 3025 
Q 903 2953 641 2809 
L 641 3341 
Q 956 3463 1253 3523 
Q 1550 3584 1831 3584 
Q 2591 3584 2966 3190 
Q 3341 2797 3341 1997 
z
" transform="scale(0.015625)"/>
      </defs>
      <use xlink:href="#DejaVuSans-27"/>
      <use xlink:href="#DejaVuSans-6c" x="27.490234"/>
      <use xlink:href="#DejaVuSans-65" x="55.273438"/>
      <use xlink:href="#DejaVuSans-66" x="116.796875"/>
      <use xlink:href="#DejaVuSans-74" x="150.251953"/>
      <use xlink:href="#DejaVuSans-27" x="189.460938"/>
      <use xlink:href="#DejaVuSans-20" x="216.951172"/>
      <use xlink:href="#DejaVuSans-2d" x="248.738281"/>
      <use xlink:href="#DejaVuSans-20" x="284.822266"/>
      <use xlink:href="#DejaVuSans-4d" x="316.609375"/>
      <use xlink:href="#DejaVuSans-65" x="402.888672"/>
      <use xlink:href="#DejaVuSans-61" x="464.412109"/>
      <use xlink:href="#DejaVuSans-6e" x="525.691406"/>
     </g>
    </g>
    <g id="patch_8">
     <path d="M 350.396875 215.884062 
L 370.396875 215.884062 
L 370.396875 208.884062 
L 350.396875 208.884062 
z
" style="fill: #1f77b4; fill-opacity: 0.2"/>
    </g>
    <g id="text_15">
     <!-- 'left'- SEM -->
     <g transform="translate(378.396875 215.884062)scale(0.1 -0.1)">
      <defs>
       <path id="DejaVuSans-53" d="M 3425 4513 
L 3425 3897 
Q 3066 4069 2747 4153 
Q 2428 4238 2131 4238 
Q 1616 4238 1336 4038 
Q 1056 3838 1056 3469 
Q 1056 3159 1242 3001 
Q 1428 2844 1947 2747 
L 2328 2669 
Q 3034 2534 3370 2195 
Q 3706 1856 3706 1288 
Q 3706 609 3251 259 
Q 2797 -91 1919 -91 
Q 1588 -91 1214 -16 
Q 841 59 441 206 
L 441 856 
Q 825 641 1194 531 
Q 1563 422 1919 422 
Q 2459 422 2753 634 
Q 3047 847 3047 1241 
Q 3047 1584 2836 1778 
Q 2625 1972 2144 2069 
L 1759 2144 
Q 1053 2284 737 2584 
Q 422 2884 422 3419 
Q 422 4038 858 4394 
Q 1294 4750 2059 4750 
Q 2388 4750 2728 4690 
Q 3069 4631 3425 4513 
z
" transform="scale(0.015625)"/>
       <path id="DejaVuSans-45" d="M 628 4666 
L 3578 4666 
L 3578 4134 
L 1259 4134 
L 1259 2753 
L 3481 2753 
L 3481 2222 
L 1259 2222 
L 1259 531 
L 3634 531 
L 3634 0 
L 628 0 
L 628 4666 
z
" transform="scale(0.015625)"/>
      </defs>
      <use xlink:href="#DejaVuSans-27"/>
      <use xlink:href="#DejaVuSans-6c" x="27.490234"/>
      <use xlink:href="#DejaVuSans-65" x="55.273438"/>
      <use xlink:href="#DejaVuSans-66" x="116.796875"/>
      <use xlink:href="#DejaVuSans-74" x="150.251953"/>
      <use xlink:href="#DejaVuSans-27" x="189.460938"/>
      <use xlink:href="#DejaVuSans-2d" x="216.951172"/>
      <use xlink:href="#DejaVuSans-20" x="253.035156"/>
      <use xlink:href="#DejaVuSans-53" x="284.822266"/>
      <use xlink:href="#DejaVuSans-45" x="348.298828"/>
      <use xlink:href="#DejaVuSans-4d" x="411.482422"/>
     </g>
    </g>
    <g id="line2d_16">
     <path d="M 350.396875 227.062187 
L 360.396875 227.062187 
L 370.396875 227.062187 
" style="fill: none; stroke: #ff7f0e; stroke-width: 1.5; stroke-linecap: square"/>
    </g>
    <g id="text_16">
     <!-- 'right' - Mean -->
     <g transform="translate(378.396875 230.562187)scale(0.1 -0.1)">
      <defs>
       <path id="DejaVuSans-67" d="M 2906 1791 
Q 2906 2416 2648 2759 
Q 2391 3103 1925 3103 
Q 1463 3103 1205 2759 
Q 947 2416 947 1791 
Q 947 1169 1205 825 
Q 1463 481 1925 481 
Q 2391 481 2648 825 
Q 2906 1169 2906 1791 
z
M 3481 434 
Q 3481 -459 3084 -895 
Q 2688 -1331 1869 -1331 
Q 1566 -1331 1297 -1286 
Q 1028 -1241 775 -1147 
L 775 -588 
Q 1028 -725 1275 -790 
Q 1522 -856 1778 -856 
Q 2344 -856 2625 -561 
Q 2906 -266 2906 331 
L 2906 616 
Q 2728 306 2450 153 
Q 2172 0 1784 0 
Q 1141 0 747 490 
Q 353 981 353 1791 
Q 353 2603 747 3093 
Q 1141 3584 1784 3584 
Q 2172 3584 2450 3431 
Q 2728 3278 2906 2969 
L 2906 3500 
L 3481 3500 
L 3481 434 
z
" transform="scale(0.015625)"/>
       <path id="DejaVuSans-68" d="M 3513 2113 
L 3513 0 
L 2938 0 
L 2938 2094 
Q 2938 2591 2744 2837 
Q 2550 3084 2163 3084 
Q 1697 3084 1428 2787 
Q 1159 2491 1159 1978 
L 1159 0 
L 581 0 
L 581 4863 
L 1159 4863 
L 1159 2956 
Q 1366 3272 1645 3428 
Q 1925 3584 2291 3584 
Q 2894 3584 3203 3211 
Q 3513 2838 3513 2113 
z
" transform="scale(0.015625)"/>
      </defs>
      <use xlink:href="#DejaVuSans-27"/>
      <use xlink:href="#DejaVuSans-72" x="27.490234"/>
      <use xlink:href="#DejaVuSans-69" x="68.603516"/>
      <use xlink:href="#DejaVuSans-67" x="96.386719"/>
      <use xlink:href="#DejaVuSans-68" x="159.863281"/>
      <use xlink:href="#DejaVuSans-74" x="223.242188"/>
      <use xlink:href="#DejaVuSans-27" x="262.451172"/>
      <use xlink:href="#DejaVuSans-20" x="289.941406"/>
      <use xlink:href="#DejaVuSans-2d" x="321.728516"/>
      <use xlink:href="#DejaVuSans-20" x="357.8125"/>
      <use xlink:href="#DejaVuSans-4d" x="389.599609"/>
      <use xlink:href="#DejaVuSans-65" x="475.878906"/>
      <use xlink:href="#DejaVuSans-61" x="537.402344"/>
      <use xlink:href="#DejaVuSans-6e" x="598.681641"/>
     </g>
    </g>
    <g id="patch_9">
     <path d="M 350.396875 245.240313 
L 370.396875 245.240313 
L 370.396875 238.240313 
L 350.396875 238.240313 
z
" style="fill: #ff7f0e; fill-opacity: 0.2"/>
    </g>
    <g id="text_17">
     <!-- 'right'- SEM -->
     <g transform="translate(378.396875 245.240313)scale(0.1 -0.1)">
      <use xlink:href="#DejaVuSans-27"/>
      <use xlink:href="#DejaVuSans-72" x="27.490234"/>
      <use xlink:href="#DejaVuSans-69" x="68.603516"/>
      <use xlink:href="#DejaVuSans-67" x="96.386719"/>
      <use xlink:href="#DejaVuSans-68" x="159.863281"/>
      <use xlink:href="#DejaVuSans-74" x="223.242188"/>
      <use xlink:href="#DejaVuSans-27" x="262.451172"/>
      <use xlink:href="#DejaVuSans-2d" x="289.941406"/>
      <use xlink:href="#DejaVuSans-20" x="326.025391"/>
      <use xlink:href="#DejaVuSans-53" x="357.8125"/>
      <use xlink:href="#DejaVuSans-45" x="421.289062"/>
      <use xlink:href="#DejaVuSans-4d" x="484.472656"/>
     </g>
    </g>
   </g>
  </g>
 </g>
 <defs>
  <clipPath id="pbe7e53a79b">
   <rect x="63" y="34.56" width="390.6" height="221.76"/>
  </clipPath>
 </defs>
</svg>
