<?xml version="1.0" encoding="utf-8" standalone="no"?>
<!DOCTYPE svg PUBLIC "-//W3C//DTD SVG 1.1//EN"
  "http://www.w3.org/Graphics/SVG/1.1/DTD/svg11.dtd">
<svg xmlns:xlink="http://www.w3.org/1999/xlink" width="504pt" height="288pt" viewBox="0 0 504 288" xmlns="http://www.w3.org/2000/svg" version="1.1">
 <metadata>
  <rdf:RDF xmlns:dc="http://purl.org/dc/elements/1.1/" xmlns:cc="http://creativecommons.org/ns#" xmlns:rdf="http://www.w3.org/1999/02/22-rdf-syntax-ns#">
   <cc:Work>
    <dc:type rdf:resource="http://purl.org/dc/dcmitype/StillImage"/>
    <dc:date>2023-09-22T12:44:45.822272</dc:date>
    <dc:format>image/svg+xml</dc:format>
    <dc:creator>
     <cc:Agent>
      <dc:title>Matplotlib v3.5.3, https://matplotlib.org/</dc:title>
     </cc:Agent>
    </dc:creator>
   </cc:Work>
  </rdf:RDF>
 </metadata>
 <defs>
  <style type="text/css">*{stroke-linejoin: round; stroke-linecap: butt}</style>
 </defs>
 <g id="figure_1">
  <g id="patch_1">
   <path d="M 0 288 
L 504 288 
L 504 0 
L 0 0 
z
" style="fill: #ffffff"/>
  </g>
  <g id="axes_1">
   <g id="patch_2">
    <path d="M 63 256.32 
L 453.6 256.32 
L 453.6 34.56 
L 63 34.56 
z
" style="fill: #ffffff"/>
   </g>
   <g id="PolyCollection_1">
    <path d="M 80.754545 74.136223 
L 80.754545 102.008023 
L 82.141619 107.928773 
L 83.528693 109.717226 
L 84.915767 107.254008 
L 86.302841 103.265318 
L 87.689915 100.98071 
L 89.076989 101.428265 
L 90.464062 102.631072 
L 91.851136 101.780733 
L 93.23821 98.251005 
L 94.625284 94.176645 
L 96.012358 92.245742 
L 97.399432 93.211041 
L 98.786506 95.23113 
L 100.17358 95.421568 
L 101.560653 92.511313 
L 102.947727 88.247015 
L 104.334801 86.034622 
L 105.721875 88.131108 
L 107.108949 93.905259 
L 108.496023 100.333538 
L 109.883097 104.324406 
L 111.27017 105.242805 
L 112.657244 105.41364 
L 114.044318 107.975793 
L 115.431392 114.063988 
L 116.818466 121.637831 
L 118.20554 126.612772 
L 119.592614 125.630987 
L 120.979687 118.583573 
L 122.366761 108.637465 
L 123.753835 99.845915 
L 125.140909 94.780052 
L 126.527983 93.740701 
L 127.915057 95.196296 
L 129.302131 97.095656 
L 130.689205 98.639134 
L 132.076278 100.630053 
L 133.463352 103.941316 
L 134.850426 108.20149 
L 136.2375 111.981236 
L 137.624574 113.725859 
L 139.011648 112.742534 
L 140.398722 109.788578 
L 141.785795 106.406342 
L 143.172869 103.424599 
L 144.559943 100.374187 
L 145.947017 96.454679 
L 147.334091 91.898554 
L 148.721165 88.328025 
L 150.108239 87.664996 
L 151.495312 90.608697 
L 152.882386 96.07608 
L 154.26946 101.898029 
L 155.656534 106.129357 
L 157.043608 108.198664 
L 158.430682 109.170823 
L 159.817756 110.719024 
L 161.20483 113.555266 
L 162.591903 116.668318 
L 163.978977 118.213405 
L 165.366051 117.443265 
L 166.753125 115.646187 
L 168.140199 115.020285 
L 169.527273 116.750789 
L 170.914347 120.059666 
L 172.30142 122.798137 
L 173.688494 123.153923 
L 175.075568 121.049917 
L 176.462642 117.914576 
L 177.849716 115.31585 
L 179.23679 113.956103 
L 180.623864 113.610237 
L 182.010937 113.705011 
L 183.398011 114.122346 
L 184.785085 115.499124 
L 186.172159 118.45695 
L 187.559233 122.587566 
L 188.946307 126.365088 
L 190.333381 128.134924 
L 191.720455 127.479463 
L 193.107528 125.750311 
L 194.494602 124.953854 
L 195.881676 126.001085 
L 197.26875 128.112652 
L 198.655824 129.656816 
L 200.042898 129.538681 
L 201.429972 128.212503 
L 202.817045 127.453711 
L 204.204119 128.784938 
L 205.591193 131.892596 
L 206.978267 134.580171 
L 208.365341 134.430472 
L 209.752415 130.85617 
L 211.139489 125.878024 
L 212.526563 122.961756 
L 213.913636 124.605177 
L 215.30071 130.290112 
L 216.687784 136.435514 
L 218.074858 138.793757 
L 219.461932 135.742223 
L 220.849006 129.797823 
L 222.23608 125.941949 
L 223.623153 128.122063 
L 225.010227 136.78032 
L 226.397301 148.9489 
L 227.784375 160.471231 
L 229.171449 168.68592 
L 230.558523 173.450302 
L 231.945597 175.881841 
L 233.33267 176.631132 
L 234.719744 175.514832 
L 236.106818 172.441582 
L 237.493892 168.487183 
L 238.880966 165.883898 
L 240.26804 166.561132 
L 241.655114 170.513585 
L 243.042188 175.678508 
L 244.429261 179.471816 
L 245.816335 180.597283 
L 247.203409 179.647152 
L 248.590483 178.183352 
L 249.977557 177.287286 
L 251.364631 176.845358 
L 252.751705 176.012313 
L 254.138778 174.160551 
L 255.525852 171.277386 
L 256.912926 167.686872 
L 258.3 163.798753 
L 259.687074 160.167212 
L 261.074148 157.601718 
L 262.461222 156.992234 
L 263.848295 158.690533 
L 265.235369 161.889889 
L 266.622443 164.82063 
L 268.009517 165.905253 
L 269.396591 164.963651 
L 270.783665 163.281429 
L 272.170739 162.353859 
L 273.557813 162.61523 
L 274.944886 163.454634 
L 276.33196 164.221612 
L 277.719034 164.996958 
L 279.106108 166.426807 
L 280.493182 168.738364 
L 281.880256 170.832187 
L 283.26733 170.76366 
L 284.654403 167.583026 
L 286.041477 162.599175 
L 287.428551 158.629533 
L 288.815625 157.935698 
L 290.202699 160.554597 
L 291.589773 164.398879 
L 292.976847 167.229098 
L 294.36392 168.656117 
L 295.750994 170.060587 
L 297.138068 172.649044 
L 298.525142 175.706353 
L 299.912216 176.702061 
L 301.29929 173.397779 
L 302.686364 166.206721 
L 304.073438 158.359237 
L 305.460511 153.49385 
L 306.847585 152.840299 
L 308.234659 154.413813 
L 309.621733 154.834659 
L 311.008807 152.161373 
L 312.395881 147.29845 
L 313.782955 142.934796 
L 315.170028 141.16123 
L 316.557102 141.913767 
L 317.944176 143.46766 
L 319.33125 144.236095 
L 320.718324 144.047261 
L 322.105398 143.816277 
L 323.492472 144.148443 
L 324.879545 144.379779 
L 326.266619 142.955347 
L 327.653693 138.66039 
L 329.040767 131.658345 
L 330.427841 123.567354 
L 331.814915 116.367969 
L 333.201989 111.004506 
L 334.589063 107.013806 
L 335.976136 103.314847 
L 337.36321 99.225141 
L 338.750284 95.013947 
L 340.137358 91.709578 
L 341.524432 90.252252 
L 342.911506 90.750733 
L 344.29858 92.463917 
L 345.685653 94.363811 
L 347.072727 95.874556 
L 348.459801 97.30633 
L 349.846875 99.515827 
L 351.233949 103.054515 
L 352.621023 107.617937 
L 354.008097 112.200764 
L 355.39517 115.813536 
L 356.782244 118.224984 
L 358.169318 120.137957 
L 359.556392 122.739159 
L 360.943466 126.863961 
L 362.33054 132.113642 
L 363.717614 136.905085 
L 365.104688 139.864287 
L 366.491761 140.908188 
L 367.878835 140.923733 
L 369.265909 140.982393 
L 370.652983 141.857073 
L 372.040057 143.665493 
L 373.427131 145.786677 
L 374.814205 147.412403 
L 376.201278 148.188207 
L 377.588352 148.385889 
L 378.975426 148.831337 
L 380.3625 150.633123 
L 381.749574 154.666795 
L 383.136648 161.15603 
L 384.523722 169.558004 
L 385.910795 178.737567 
L 387.297869 187.531006 
L 388.684943 195.382599 
L 390.072017 202.483665 
L 391.459091 209.409923 
L 392.846165 216.573764 
L 394.233239 223.769602 
L 395.620313 230.233371 
L 397.007386 235.254201 
L 398.39446 238.60187 
L 399.781534 240.337809 
L 401.168608 240.481753 
L 402.555682 238.944548 
L 403.942756 235.684789 
L 405.32983 230.954315 
L 406.716903 225.290173 
L 408.103977 219.023624 
L 409.491051 211.83216 
L 410.878125 202.997341 
L 412.265199 192.165341 
L 413.652273 179.908082 
L 415.039347 167.610426 
L 416.42642 156.688147 
L 417.813494 147.854425 
L 419.200568 141.255043 
L 420.587642 137.160419 
L 421.974716 136.199452 
L 423.36179 138.84202 
L 424.748864 144.599452 
L 426.135938 151.647933 
L 427.523011 157.396267 
L 428.910085 159.778927 
L 430.297159 158.302631 
L 431.684233 153.959638 
L 433.071307 148.188565 
L 434.458381 142.015628 
L 435.845455 136.106635 
L 435.845455 93.461659 
L 435.845455 93.461659 
L 434.458381 98.883116 
L 433.071307 105.15149 
L 431.684233 111.418418 
L 430.297159 116.413396 
L 428.910085 118.607911 
L 427.523011 116.889301 
L 426.135938 111.457794 
L 424.748864 104.191841 
L 423.36179 97.874453 
L 421.974716 94.668289 
L 420.587642 95.086075 
L 419.200568 98.306757 
L 417.813494 103.337412 
L 416.42642 109.739318 
L 415.039347 117.419902 
L 413.652273 126.066309 
L 412.265199 134.828091 
L 410.878125 142.568349 
L 409.491051 148.559434 
L 408.103977 152.899756 
L 406.716903 156.217132 
L 405.32983 159.096561 
L 403.942756 161.746641 
L 402.555682 163.995401 
L 401.168608 165.528071 
L 399.781534 166.073125 
L 398.39446 165.31692 
L 397.007386 162.892195 
L 395.620313 158.73745 
L 394.233239 153.37395 
L 392.846165 147.699959 
L 391.459091 142.52693 
L 390.072017 138.126741 
L 388.684943 134.053296 
L 387.297869 129.567477 
L 385.910795 124.361405 
L 384.523722 118.811699 
L 383.136648 113.661613 
L 381.749574 109.613804 
L 380.3625 107.068878 
L 378.975426 106.081213 
L 377.588352 106.456749 
L 376.201278 107.678486 
L 374.814205 108.835587 
L 373.427131 108.995979 
L 372.040057 107.783591 
L 370.652983 105.652778 
L 369.265909 103.697215 
L 367.878835 102.811524 
L 366.491761 102.722051 
L 365.104688 102.132097 
L 363.717614 99.93454 
L 362.33054 96.031894 
L 360.943466 91.174512 
L 359.556392 86.522274 
L 358.169318 83.008933 
L 356.782244 80.486056 
L 355.39517 77.782748 
L 354.008097 73.867525 
L 352.621023 68.810181 
L 351.233949 63.669039 
L 349.846875 59.55311 
L 348.459801 56.70253 
L 347.072727 54.40176 
L 345.685653 51.746935 
L 344.29858 48.546977 
L 342.911506 45.694293 
L 341.524432 44.64 
L 340.137358 46.240897 
L 338.750284 50.019315 
L 337.36321 54.529847 
L 335.976136 58.460168 
L 334.589063 61.648337 
L 333.201989 65.22395 
L 331.814915 70.564101 
L 330.427841 77.954458 
L 329.040767 86.174374 
L 327.653693 93.186652 
L 326.266619 97.376361 
L 324.879545 98.611386 
L 323.492472 98.214663 
L 322.105398 97.720325 
L 320.718324 97.63047 
L 319.33125 97.344955 
L 317.944176 96.191082 
L 316.557102 94.530824 
L 315.170028 93.853991 
L 313.782955 95.620763 
L 312.395881 99.818925 
L 311.008807 104.607336 
L 309.621733 107.615787 
L 308.234659 107.992112 
L 306.847585 107.375478 
L 305.460511 108.735734 
L 304.073438 113.876081 
L 302.686364 121.697386 
L 301.29929 128.837934 
L 299.912216 132.182614 
L 298.525142 131.073079 
L 297.138068 127.461191 
L 295.750994 123.945732 
L 294.36392 121.444331 
L 292.976847 118.825446 
L 291.589773 114.768984 
L 290.202699 109.691352 
L 288.815625 105.826639 
L 287.428551 105.432411 
L 286.041477 108.654801 
L 284.654403 113.154974 
L 283.26733 116.04099 
L 281.880256 116.116123 
L 280.493182 114.343613 
L 279.106108 112.569714 
L 277.719034 111.902728 
L 276.33196 112.100632 
L 274.944886 112.465927 
L 273.557813 113.131897 
L 272.170739 115.027307 
L 270.783665 118.580981 
L 269.396591 122.858798 
L 268.009517 126.104242 
L 266.622443 127.062958 
L 265.235369 125.934626 
L 263.848295 124.215761 
L 262.461222 123.591659 
L 261.074148 124.879247 
L 259.687074 127.841255 
L 258.3 131.740946 
L 256.912926 135.873938 
L 255.525852 139.552043 
L 254.138778 141.935517 
L 252.751705 142.435454 
L 251.364631 141.405472 
L 249.977557 140.134994 
L 248.590483 139.88751 
L 247.203409 140.696922 
L 245.816335 141.041922 
L 244.429261 138.987679 
L 243.042188 133.996225 
L 241.655114 127.750443 
L 240.26804 123.114659 
L 238.880966 122.071279 
L 237.493892 124.420447 
L 236.106818 128.224866 
L 234.719744 131.392201 
L 233.33267 132.974745 
L 231.945597 133.063454 
L 230.558523 131.535686 
L 229.171449 127.358431 
L 227.784375 119.508512 
L 226.397301 108.533367 
L 225.010227 97.228898 
L 223.623153 89.632327 
L 222.23608 88.534538 
L 220.849006 93.295867 
L 219.461932 100.068176 
L 218.074858 104.330168 
L 216.687784 103.735173 
L 215.30071 99.445942 
L 213.913636 95.180508 
L 212.526563 94.548756 
L 211.139489 98.478851 
L 209.752415 104.671449 
L 208.365341 109.504332 
L 206.978267 110.765481 
L 205.591193 108.986741 
L 204.204119 106.533288 
L 202.817045 105.502577 
L 201.429972 106.189616 
L 200.042898 107.16777 
L 198.655824 106.71796 
L 197.26875 104.437053 
L 195.881676 101.685019 
L 194.494602 100.314506 
L 193.107528 100.883044 
L 191.720455 102.185861 
L 190.333381 102.332463 
L 188.946307 100.180378 
L 187.559233 96.195592 
L 186.172159 92.147263 
L 184.785085 89.691895 
L 183.398011 89.129289 
L 182.010937 89.48221 
L 180.623864 89.632055 
L 179.23679 89.469784 
L 177.849716 90.000069 
L 176.462642 92.057383 
L 175.075568 95.032423 
L 173.688494 97.190676 
L 172.30142 97.19747 
L 170.914347 95.231741 
L 169.527273 92.843086 
L 168.140199 91.750914 
L 166.753125 92.401548 
L 165.366051 93.585249 
L 163.978977 93.567252 
L 162.591903 91.512485 
L 161.20483 88.058079 
L 159.817756 84.831014 
L 158.430682 83.123106 
L 157.043608 82.600458 
L 155.656534 81.412965 
L 154.26946 77.847085 
L 152.882386 72.099871 
L 151.495312 66.490036 
L 150.108239 63.699632 
L 148.721165 64.713313 
L 147.334091 68.388151 
L 145.947017 72.74287 
L 144.559943 76.495574 
L 143.172869 79.618681 
L 141.785795 82.728576 
L 140.398722 86.044848 
L 139.011648 88.891111 
L 137.624574 89.988311 
L 136.2375 88.37539 
L 134.850426 84.464925 
L 133.463352 80.021812 
L 132.076278 76.678059 
L 130.689205 74.711721 
L 129.302131 73.363688 
L 127.915057 71.893525 
L 126.527983 70.526059 
L 125.140909 70.950791 
L 123.753835 75.320311 
L 122.366761 83.854375 
L 120.979687 93.756557 
L 119.592614 100.81711 
L 118.20554 102.0651 
L 116.818466 97.463974 
L 115.431392 89.901606 
L 114.044318 83.331945 
L 112.657244 79.963878 
L 111.27017 78.826364 
L 109.883097 77.028321 
L 108.496023 72.419215 
L 107.108949 65.527453 
L 105.721875 59.384752 
L 104.334801 57.139588 
L 102.947727 59.325441 
L 101.560653 63.418683 
L 100.17358 66.082463 
L 98.786506 65.859942 
L 97.399432 64.127511 
L 96.012358 63.708506 
L 94.625284 66.213371 
L 93.23821 70.528155 
L 91.851136 74.041709 
L 90.464062 75.163719 
L 89.076989 74.557405 
L 87.689915 74.35044 
L 86.302841 76.194688 
L 84.915767 79.510887 
L 83.528693 81.547167 
L 82.141619 79.735902 
L 80.754545 74.136223 
z
" clip-path="url(#p68b249ea27)" style="fill: #1f77b4; fill-opacity: 0.2"/>
   </g>
   <g id="PolyCollection_2">
    <path d="M 80.754545 113.849467 
L 80.754545 133.401866 
L 82.141619 135.613543 
L 83.528693 134.349389 
L 84.915767 132.612408 
L 86.302841 132.365358 
L 87.689915 133.236815 
L 89.076989 132.938925 
L 90.464062 129.574879 
L 91.851136 123.242794 
L 93.23821 115.64267 
L 94.625284 108.952939 
L 96.012358 104.554768 
L 97.399432 102.149893 
L 98.786506 100.246716 
L 100.17358 97.583432 
L 101.560653 94.171966 
L 102.947727 91.527884 
L 104.334801 91.610033 
L 105.721875 94.906807 
L 107.108949 99.814475 
L 108.496023 103.800044 
L 109.883097 105.06057 
L 111.27017 103.853733 
L 112.657244 102.496862 
L 114.044318 103.506237 
L 115.431392 107.399222 
L 116.818466 112.291891 
L 118.20554 115.699568 
L 119.592614 116.772409 
L 120.979687 116.413899 
L 122.366761 115.779117 
L 123.753835 115.504487 
L 125.140909 114.945012 
L 126.527983 112.455561 
L 127.915057 107.680288 
L 129.302131 102.577318 
L 130.689205 99.521709 
L 132.076278 99.437333 
L 133.463352 101.158074 
L 134.850426 102.063188 
L 136.2375 100.608372 
L 137.624574 98.355831 
L 139.011648 98.466611 
L 140.398722 102.641375 
L 141.785795 109.622793 
L 143.172869 115.860539 
L 144.559943 118.445282 
L 145.947017 117.723775 
L 147.334091 116.532118 
L 148.721165 117.379519 
L 150.108239 120.653936 
L 151.495312 124.725233 
L 152.882386 127.640035 
L 154.26946 129.202985 
L 155.656534 131.331741 
L 157.043608 135.948286 
L 158.430682 142.474731 
L 159.817756 147.434667 
L 161.20483 147.289852 
L 162.591903 141.968149 
L 163.978977 134.823029 
L 165.366051 129.661652 
L 166.753125 128.161916 
L 168.140199 129.140841 
L 169.527273 130.063428 
L 170.914347 129.62061 
L 172.30142 128.708977 
L 173.688494 128.873098 
L 175.075568 130.461655 
L 176.462642 132.260426 
L 177.849716 132.406152 
L 179.23679 130.275118 
L 180.623864 127.583725 
L 182.010937 126.485132 
L 183.398011 126.847863 
L 184.785085 126.253058 
L 186.172159 122.451699 
L 187.559233 115.886684 
L 188.946307 110.067466 
L 190.333381 108.750011 
L 191.720455 112.429809 
L 193.107528 118.005014 
L 194.494602 121.546888 
L 195.881676 121.366239 
L 197.26875 119.392396 
L 198.655824 119.677263 
L 200.042898 124.554827 
L 201.429972 132.313061 
L 202.817045 138.720765 
L 204.204119 140.528456 
L 205.591193 137.970424 
L 206.978267 134.364896 
L 208.365341 133.056006 
L 209.752415 134.519897 
L 211.139489 136.145939 
L 212.526563 134.59892 
L 213.913636 128.853958 
L 215.30071 121.574768 
L 216.687784 117.371462 
L 218.074858 119.286246 
L 219.461932 126.670956 
L 220.849006 136.163448 
L 222.23608 144.606036 
L 223.623153 151.120055 
L 225.010227 156.784666 
L 226.397301 162.888317 
L 227.784375 169.470361 
L 229.171449 175.090539 
L 230.558523 177.937505 
L 231.945597 177.527276 
L 233.33267 175.347992 
L 234.719744 173.606687 
L 236.106818 173.420089 
L 237.493892 174.313595 
L 238.880966 175.086439 
L 240.26804 174.868844 
L 241.655114 173.836541 
L 243.042188 173.102717 
L 244.429261 173.468449 
L 245.816335 174.153132 
L 247.203409 173.023749 
L 248.590483 168.33834 
L 249.977557 160.411114 
L 251.364631 151.787752 
L 252.751705 145.765772 
L 254.138778 144.253928 
L 255.525852 146.441201 
L 256.912926 149.164427 
L 258.3 148.836783 
L 259.687074 143.971284 
L 261.074148 136.348202 
L 262.461222 129.51894 
L 263.848295 126.043337 
L 265.235369 125.832351 
L 266.622443 126.653138 
L 268.009517 126.170199 
L 269.396591 123.726565 
L 270.783665 120.398028 
L 272.170739 117.597594 
L 273.557813 115.708766 
L 274.944886 114.115933 
L 276.33196 112.672191 
L 277.719034 112.725727 
L 279.106108 116.064296 
L 280.493182 123.119424 
L 281.880256 132.438599 
L 283.26733 141.389619 
L 284.654403 147.83537 
L 286.041477 151.919874 
L 287.428551 155.904409 
L 288.815625 161.9113 
L 290.202699 170.057343 
L 291.589773 178.56589 
L 292.976847 185.423332 
L 294.36392 190.25874 
L 295.750994 194.643164 
L 297.138068 200.305709 
L 298.525142 207.140238 
L 299.912216 213.1766 
L 301.29929 216.512744 
L 302.686364 217.312303 
L 304.073438 218.033341 
L 305.460511 221.594266 
L 306.847585 228.945555 
L 308.234659 238.003972 
L 309.621733 244.820238 
L 311.008807 246.24 
L 312.395881 242.139993 
L 313.782955 235.468023 
L 315.170028 230.137708 
L 316.557102 228.5753 
L 317.944176 230.560303 
L 319.33125 233.830636 
L 320.718324 235.953252 
L 322.105398 235.999835 
L 323.492472 234.577648 
L 324.879545 232.492377 
L 326.266619 229.669971 
L 327.653693 225.366604 
L 329.040767 219.245849 
L 330.427841 212.06476 
L 331.814915 205.164076 
L 333.201989 199.29007 
L 334.589063 193.876956 
L 335.976136 187.405111 
L 337.36321 178.704509 
L 338.750284 168.235031 
L 340.137358 158.08312 
L 341.524432 150.619405 
L 342.911506 147.098611 
L 344.29858 147.218056 
L 345.685653 149.589505 
L 347.072727 152.47413 
L 348.459801 154.214061 
L 349.846875 153.509499 
L 351.233949 149.927731 
L 352.621023 144.297954 
L 354.008097 138.406502 
L 355.39517 134.124799 
L 356.782244 132.584054 
L 358.169318 133.740272 
L 359.556392 136.452982 
L 360.943466 139.095017 
L 362.33054 140.445604 
L 363.717614 140.315056 
L 365.104688 139.440109 
L 366.491761 138.849584 
L 367.878835 139.26 
L 369.265909 140.718258 
L 370.652983 142.502398 
L 372.040057 143.417385 
L 373.427131 142.479243 
L 374.814205 139.663304 
L 376.201278 136.211746 
L 377.588352 134.062374 
L 378.975426 134.590555 
L 380.3625 137.65208 
L 381.749574 141.753931 
L 383.136648 145.175208 
L 384.523722 147.130573 
L 385.910795 148.059546 
L 387.297869 148.816691 
L 388.684943 149.568465 
L 390.072017 149.483852 
L 391.459091 147.511452 
L 392.846165 143.633512 
L 394.233239 139.480173 
L 395.620313 137.451219 
L 397.007386 138.928669 
L 398.39446 143.15242 
L 399.781534 147.608697 
L 401.168608 149.652444 
L 402.555682 148.266114 
L 403.942756 144.50694 
L 405.32983 140.398841 
L 406.716903 137.595907 
L 408.103977 136.781193 
L 409.491051 137.731866 
L 410.878125 139.837539 
L 412.265199 142.684126 
L 413.652273 146.198213 
L 415.039347 150.365076 
L 416.42642 154.894774 
L 417.813494 159.132292 
L 419.200568 162.327752 
L 420.587642 164.103256 
L 421.974716 164.774323 
L 423.36179 165.195092 
L 424.748864 165.993081 
L 426.135938 166.700027 
L 427.523011 165.695332 
L 428.910085 161.24338 
L 430.297159 153.051628 
L 431.684233 143.292583 
L 433.071307 135.828366 
L 434.458381 133.589715 
L 435.845455 136.248422 
L 435.845455 93.958678 
L 435.845455 93.958678 
L 434.458381 89.577437 
L 433.071307 89.993996 
L 431.684233 95.564731 
L 430.297159 103.505667 
L 428.910085 110.08142 
L 427.523011 113.036499 
L 426.135938 112.689982 
L 424.748864 110.976241 
L 423.36179 109.503281 
L 421.974716 108.489465 
L 420.587642 107.14197 
L 419.200568 104.698438 
L 417.813494 101.192876 
L 416.42642 97.424356 
L 415.039347 94.302384 
L 413.652273 92.242352 
L 412.265199 91.060828 
L 410.878125 90.341319 
L 409.491051 89.943843 
L 408.103977 90.253927 
L 406.716903 91.982876 
L 405.32983 95.535903 
L 403.942756 100.237202 
L 402.555682 104.239063 
L 401.168608 105.560072 
L 399.781534 103.42372 
L 398.39446 98.907785 
L 397.007386 94.556786 
L 395.620313 92.917233 
L 394.233239 94.801236 
L 392.846165 98.783189 
L 391.459091 102.366154 
L 390.072017 103.770082 
L 388.684943 102.988854 
L 387.297869 101.300222 
L 385.910795 99.692966 
L 384.523722 97.840312 
L 383.136648 94.625581 
L 381.749574 89.566189 
L 380.3625 83.707007 
L 378.975426 79.102456 
L 377.588352 77.31864 
L 376.201278 78.325067 
L 374.814205 80.664138 
L 373.427131 82.543704 
L 372.040057 82.930796 
L 370.652983 81.972676 
L 369.265909 80.617797 
L 367.878835 79.885964 
L 366.491761 80.338199 
L 365.104688 81.885646 
L 363.717614 83.876023 
L 362.33054 85.451672 
L 360.943466 86.041487 
L 359.556392 85.771568 
L 358.169318 85.614612 
L 356.782244 86.998275 
L 355.39517 90.842205 
L 354.008097 96.713144 
L 352.621023 102.932474 
L 351.233949 107.61883 
L 349.846875 109.681662 
L 348.459801 108.961336 
L 347.072727 105.898261 
L 345.685653 101.461447 
L 344.29858 97.251927 
L 342.911506 95.219457 
L 341.524432 96.901552 
L 340.137358 102.577911 
L 338.750284 110.966944 
L 337.36321 119.907361 
L 335.976136 127.629342 
L 334.589063 133.737818 
L 333.201989 139.283854 
L 331.814915 145.759216 
L 330.427841 153.69428 
L 329.040767 162.183045 
L 327.653693 169.749974 
L 326.266619 175.506564 
L 324.879545 179.493266 
L 323.492472 182.103123 
L 322.105398 183.326805 
L 320.718324 182.695817 
L 319.33125 180.028117 
L 317.944176 176.257822 
L 316.557102 173.528716 
L 315.170028 174.067763 
L 313.782955 178.29645 
L 312.395881 183.883276 
L 311.008807 186.982918 
L 309.621733 184.793376 
L 308.234659 177.473732 
L 306.847585 168.114014 
L 305.460511 160.706232 
L 304.073438 157.460927 
L 302.686364 157.526301 
L 301.29929 158.078968 
L 299.912216 156.729525 
L 298.525142 153.215721 
L 297.138068 149.120909 
L 295.750994 146.116749 
L 294.36392 144.446212 
L 292.976847 142.857362 
L 291.589773 139.839351 
L 290.202699 135.112861 
L 288.815625 130.009511 
L 287.428551 126.095536 
L 286.041477 123.378911 
L 284.654403 120.21112 
L 283.26733 114.828483 
L 281.880256 107.010242 
L 280.493182 98.680317 
L 279.106108 92.608473 
L 277.719034 90.037009 
L 276.33196 90.015382 
L 274.944886 91.084064 
L 273.557813 92.724256 
L 272.170739 95.287232 
L 270.783665 99.042706 
L 269.396591 103.201881 
L 268.009517 106.03929 
L 266.622443 106.449225 
L 265.235369 105.439868 
L 263.848295 105.819891 
L 262.461222 110.065301 
L 261.074148 118.075951 
L 259.687074 126.877335 
L 258.3 132.667315 
L 256.912926 133.474843 
L 255.525852 130.544444 
L 254.138778 127.633942 
L 252.751705 128.421419 
L 251.364631 133.898046 
L 249.977557 141.897608 
L 248.590483 148.85773 
L 247.203409 152.215948 
L 245.816335 151.739974 
L 244.429261 149.152168 
L 243.042188 146.702699 
L 241.655114 145.748271 
L 240.26804 146.023276 
L 238.880966 146.093349 
L 237.493892 144.882239 
L 236.106818 142.949546 
L 234.719744 141.937394 
L 233.33267 142.767076 
L 231.945597 144.644616 
L 230.558523 145.576584 
L 229.171449 143.795923 
L 227.784375 139.150151 
L 226.397301 133.303827 
L 225.010227 128.167075 
L 223.623153 123.920106 
L 222.23608 118.977535 
L 220.849006 112.140159 
L 219.461932 104.591899 
L 218.074858 99.5955 
L 216.687784 100.115523 
L 215.30071 106.291924 
L 213.913636 114.852221 
L 212.526563 121.175621 
L 211.139489 122.590419 
L 209.752415 120.390256 
L 208.365341 118.609502 
L 206.978267 120.216231 
L 205.591193 124.285133 
L 204.204119 126.817179 
L 202.817045 124.29224 
L 201.429972 116.853523 
L 200.042898 108.411018 
L 198.655824 103.349074 
L 197.26875 102.924296 
L 195.881676 104.577435 
L 194.494602 104.218521 
L 193.107528 99.773903 
L 191.720455 93.375822 
L 190.333381 89.552387 
L 188.946307 91.130778 
L 187.559233 97.180823 
L 186.172159 104.242436 
L 184.785085 109.047006 
L 183.398011 110.855823 
L 182.010937 111.528078 
L 180.623864 113.129895 
L 179.23679 115.880229 
L 177.849716 118.260546 
L 176.462642 118.494819 
L 175.075568 116.420807 
L 173.688494 114.086064 
L 172.30142 113.523021 
L 170.914347 114.368792 
L 169.527273 114.608586 
L 168.140199 113.206095 
L 166.753125 111.641566 
L 165.366051 112.974338 
L 163.978977 118.857575 
L 162.591903 127.160814 
L 161.20483 133.171887 
L 159.817756 133.506592 
L 158.430682 128.467189 
L 157.043608 121.33502 
L 155.656534 115.902587 
L 154.26946 113.5407 
L 152.882386 112.411154 
L 151.495312 109.859159 
L 150.108239 105.39977 
L 148.721165 101.335223 
L 147.334091 100.166287 
L 145.947017 101.501505 
L 144.559943 102.184265 
L 143.172869 99.516618 
L 141.785795 93.717935 
L 140.398722 87.62538 
L 139.011648 84.446656 
L 137.624574 84.989471 
L 136.2375 86.982279 
L 134.850426 87.642104 
L 133.463352 86.150201 
L 132.076278 84.056965 
L 130.689205 84.095283 
L 129.302131 87.626282 
L 127.915057 93.062668 
L 126.527983 97.660805 
L 125.140909 100.107608 
L 123.753835 100.842607 
L 122.366761 101.249595 
L 120.979687 102.213357 
L 119.592614 102.589807 
L 118.20554 100.307481 
L 116.818466 95.23797 
L 115.431392 89.492907 
L 114.044318 85.630858 
L 112.657244 84.868693 
L 111.27017 86.286189 
L 109.883097 87.528451 
L 108.496023 86.478198 
L 107.108949 82.830651 
L 105.721875 78.416778 
L 104.334801 75.711137 
L 102.947727 75.908307 
L 101.560653 78.460761 
L 100.17358 81.767737 
L 98.786506 84.250756 
L 97.399432 85.64122 
L 96.012358 87.258938 
L 94.625284 90.861146 
L 93.23821 97.245904 
L 91.851136 105.36482 
L 90.464062 112.646574 
L 89.076989 116.827473 
L 87.689915 117.624325 
L 86.302841 116.565106 
L 84.915767 115.747297 
L 83.528693 116.218663 
L 82.141619 116.583755 
L 80.754545 113.849467 
z
" clip-path="url(#p68b249ea27)" style="fill: #ff7f0e; fill-opacity: 0.2"/>
   </g>
   <g id="matplotlib.axis_1">
    <g id="xtick_1">
     <g id="line2d_1">
      <defs>
       <path id="md8821d1b4e" d="M 0 0 
L 0 3.5 
" style="stroke: #000000; stroke-width: 0.8"/>
      </defs>
      <g>
       <use xlink:href="#md8821d1b4e" x="116.541051" y="256.32" style="stroke: #000000; stroke-width: 0.8"/>
      </g>
     </g>
     <g id="text_1">
      <!-- −0.2 -->
      <g transform="translate(97.114801 275.4775)scale(0.16 -0.16)">
       <defs>
        <path id="DejaVuSans-2212" d="M 678 2272 
L 4684 2272 
L 4684 1741 
L 678 1741 
L 678 2272 
z
" transform="scale(0.015625)"/>
        <path id="DejaVuSans-30" d="M 2034 4250 
Q 1547 4250 1301 3770 
Q 1056 3291 1056 2328 
Q 1056 1369 1301 889 
Q 1547 409 2034 409 
Q 2525 409 2770 889 
Q 3016 1369 3016 2328 
Q 3016 3291 2770 3770 
Q 2525 4250 2034 4250 
z
M 2034 4750 
Q 2819 4750 3233 4129 
Q 3647 3509 3647 2328 
Q 3647 1150 3233 529 
Q 2819 -91 2034 -91 
Q 1250 -91 836 529 
Q 422 1150 422 2328 
Q 422 3509 836 4129 
Q 1250 4750 2034 4750 
z
" transform="scale(0.015625)"/>
        <path id="DejaVuSans-2e" d="M 684 794 
L 1344 794 
L 1344 0 
L 684 0 
L 684 794 
z
" transform="scale(0.015625)"/>
        <path id="DejaVuSans-32" d="M 1228 531 
L 3431 531 
L 3431 0 
L 469 0 
L 469 531 
Q 828 903 1448 1529 
Q 2069 2156 2228 2338 
Q 2531 2678 2651 2914 
Q 2772 3150 2772 3378 
Q 2772 3750 2511 3984 
Q 2250 4219 1831 4219 
Q 1534 4219 1204 4116 
Q 875 4013 500 3803 
L 500 4441 
Q 881 4594 1212 4672 
Q 1544 4750 1819 4750 
Q 2544 4750 2975 4387 
Q 3406 4025 3406 3419 
Q 3406 3131 3298 2873 
Q 3191 2616 2906 2266 
Q 2828 2175 2409 1742 
Q 1991 1309 1228 531 
z
" transform="scale(0.015625)"/>
       </defs>
       <use xlink:href="#DejaVuSans-2212"/>
       <use xlink:href="#DejaVuSans-30" x="83.789062"/>
       <use xlink:href="#DejaVuSans-2e" x="147.412109"/>
       <use xlink:href="#DejaVuSans-32" x="179.199219"/>
      </g>
     </g>
    </g>
    <g id="xtick_2">
     <g id="line2d_2">
      <g>
       <use xlink:href="#md8821d1b4e" x="187.559233" y="256.32" style="stroke: #000000; stroke-width: 0.8"/>
      </g>
     </g>
     <g id="text_2">
      <!-- 0.0 -->
      <g transform="translate(174.836733 275.4775)scale(0.16 -0.16)">
       <use xlink:href="#DejaVuSans-30"/>
       <use xlink:href="#DejaVuSans-2e" x="63.623047"/>
       <use xlink:href="#DejaVuSans-30" x="95.410156"/>
      </g>
     </g>
    </g>
    <g id="xtick_3">
     <g id="line2d_3">
      <g>
       <use xlink:href="#md8821d1b4e" x="258.577415" y="256.32" style="stroke: #000000; stroke-width: 0.8"/>
      </g>
     </g>
     <g id="text_3">
      <!-- 0.2 -->
      <g transform="translate(245.854915 275.4775)scale(0.16 -0.16)">
       <use xlink:href="#DejaVuSans-30"/>
       <use xlink:href="#DejaVuSans-2e" x="63.623047"/>
       <use xlink:href="#DejaVuSans-32" x="95.410156"/>
      </g>
     </g>
    </g>
    <g id="xtick_4">
     <g id="line2d_4">
      <g>
       <use xlink:href="#md8821d1b4e" x="329.595597" y="256.32" style="stroke: #000000; stroke-width: 0.8"/>
      </g>
     </g>
     <g id="text_4">
      <!-- 0.4 -->
      <g transform="translate(316.873097 275.4775)scale(0.16 -0.16)">
       <defs>
        <path id="DejaVuSans-34" d="M 2419 4116 
L 825 1625 
L 2419 1625 
L 2419 4116 
z
M 2253 4666 
L 3047 4666 
L 3047 1625 
L 3713 1625 
L 3713 1100 
L 3047 1100 
L 3047 0 
L 2419 0 
L 2419 1100 
L 313 1100 
L 313 1709 
L 2253 4666 
z
" transform="scale(0.015625)"/>
       </defs>
       <use xlink:href="#DejaVuSans-30"/>
       <use xlink:href="#DejaVuSans-2e" x="63.623047"/>
       <use xlink:href="#DejaVuSans-34" x="95.410156"/>
      </g>
     </g>
    </g>
    <g id="xtick_5">
     <g id="line2d_5">
      <g>
       <use xlink:href="#md8821d1b4e" x="400.613778" y="256.32" style="stroke: #000000; stroke-width: 0.8"/>
      </g>
     </g>
     <g id="text_5">
      <!-- 0.6 -->
      <g transform="translate(387.891278 275.4775)scale(0.16 -0.16)">
       <defs>
        <path id="DejaVuSans-36" d="M 2113 2584 
Q 1688 2584 1439 2293 
Q 1191 2003 1191 1497 
Q 1191 994 1439 701 
Q 1688 409 2113 409 
Q 2538 409 2786 701 
Q 3034 994 3034 1497 
Q 3034 2003 2786 2293 
Q 2538 2584 2113 2584 
z
M 3366 4563 
L 3366 3988 
Q 3128 4100 2886 4159 
Q 2644 4219 2406 4219 
Q 1781 4219 1451 3797 
Q 1122 3375 1075 2522 
Q 1259 2794 1537 2939 
Q 1816 3084 2150 3084 
Q 2853 3084 3261 2657 
Q 3669 2231 3669 1497 
Q 3669 778 3244 343 
Q 2819 -91 2113 -91 
Q 1303 -91 875 529 
Q 447 1150 447 2328 
Q 447 3434 972 4092 
Q 1497 4750 2381 4750 
Q 2619 4750 2861 4703 
Q 3103 4656 3366 4563 
z
" transform="scale(0.015625)"/>
       </defs>
       <use xlink:href="#DejaVuSans-30"/>
       <use xlink:href="#DejaVuSans-2e" x="63.623047"/>
       <use xlink:href="#DejaVuSans-36" x="95.410156"/>
      </g>
     </g>
    </g>
    <g id="text_6">
     <!-- Time from event (s) -->
     <g transform="translate(169.41375 296.482188)scale(0.18 -0.18)">
      <defs>
       <path id="DejaVuSans-54" d="M -19 4666 
L 3928 4666 
L 3928 4134 
L 2272 4134 
L 2272 0 
L 1638 0 
L 1638 4134 
L -19 4134 
L -19 4666 
z
" transform="scale(0.015625)"/>
       <path id="DejaVuSans-69" d="M 603 3500 
L 1178 3500 
L 1178 0 
L 603 0 
L 603 3500 
z
M 603 4863 
L 1178 4863 
L 1178 4134 
L 603 4134 
L 603 4863 
z
" transform="scale(0.015625)"/>
       <path id="DejaVuSans-6d" d="M 3328 2828 
Q 3544 3216 3844 3400 
Q 4144 3584 4550 3584 
Q 5097 3584 5394 3201 
Q 5691 2819 5691 2113 
L 5691 0 
L 5113 0 
L 5113 2094 
Q 5113 2597 4934 2840 
Q 4756 3084 4391 3084 
Q 3944 3084 3684 2787 
Q 3425 2491 3425 1978 
L 3425 0 
L 2847 0 
L 2847 2094 
Q 2847 2600 2669 2842 
Q 2491 3084 2119 3084 
Q 1678 3084 1418 2786 
Q 1159 2488 1159 1978 
L 1159 0 
L 581 0 
L 581 3500 
L 1159 3500 
L 1159 2956 
Q 1356 3278 1631 3431 
Q 1906 3584 2284 3584 
Q 2666 3584 2933 3390 
Q 3200 3197 3328 2828 
z
" transform="scale(0.015625)"/>
       <path id="DejaVuSans-65" d="M 3597 1894 
L 3597 1613 
L 953 1613 
Q 991 1019 1311 708 
Q 1631 397 2203 397 
Q 2534 397 2845 478 
Q 3156 559 3463 722 
L 3463 178 
Q 3153 47 2828 -22 
Q 2503 -91 2169 -91 
Q 1331 -91 842 396 
Q 353 884 353 1716 
Q 353 2575 817 3079 
Q 1281 3584 2069 3584 
Q 2775 3584 3186 3129 
Q 3597 2675 3597 1894 
z
M 3022 2063 
Q 3016 2534 2758 2815 
Q 2500 3097 2075 3097 
Q 1594 3097 1305 2825 
Q 1016 2553 972 2059 
L 3022 2063 
z
" transform="scale(0.015625)"/>
       <path id="DejaVuSans-20" transform="scale(0.015625)"/>
       <path id="DejaVuSans-66" d="M 2375 4863 
L 2375 4384 
L 1825 4384 
Q 1516 4384 1395 4259 
Q 1275 4134 1275 3809 
L 1275 3500 
L 2222 3500 
L 2222 3053 
L 1275 3053 
L 1275 0 
L 697 0 
L 697 3053 
L 147 3053 
L 147 3500 
L 697 3500 
L 697 3744 
Q 697 4328 969 4595 
Q 1241 4863 1831 4863 
L 2375 4863 
z
" transform="scale(0.015625)"/>
       <path id="DejaVuSans-72" d="M 2631 2963 
Q 2534 3019 2420 3045 
Q 2306 3072 2169 3072 
Q 1681 3072 1420 2755 
Q 1159 2438 1159 1844 
L 1159 0 
L 581 0 
L 581 3500 
L 1159 3500 
L 1159 2956 
Q 1341 3275 1631 3429 
Q 1922 3584 2338 3584 
Q 2397 3584 2469 3576 
Q 2541 3569 2628 3553 
L 2631 2963 
z
" transform="scale(0.015625)"/>
       <path id="DejaVuSans-6f" d="M 1959 3097 
Q 1497 3097 1228 2736 
Q 959 2375 959 1747 
Q 959 1119 1226 758 
Q 1494 397 1959 397 
Q 2419 397 2687 759 
Q 2956 1122 2956 1747 
Q 2956 2369 2687 2733 
Q 2419 3097 1959 3097 
z
M 1959 3584 
Q 2709 3584 3137 3096 
Q 3566 2609 3566 1747 
Q 3566 888 3137 398 
Q 2709 -91 1959 -91 
Q 1206 -91 779 398 
Q 353 888 353 1747 
Q 353 2609 779 3096 
Q 1206 3584 1959 3584 
z
" transform="scale(0.015625)"/>
       <path id="DejaVuSans-76" d="M 191 3500 
L 800 3500 
L 1894 563 
L 2988 3500 
L 3597 3500 
L 2284 0 
L 1503 0 
L 191 3500 
z
" transform="scale(0.015625)"/>
       <path id="DejaVuSans-6e" d="M 3513 2113 
L 3513 0 
L 2938 0 
L 2938 2094 
Q 2938 2591 2744 2837 
Q 2550 3084 2163 3084 
Q 1697 3084 1428 2787 
Q 1159 2491 1159 1978 
L 1159 0 
L 581 0 
L 581 3500 
L 1159 3500 
L 1159 2956 
Q 1366 3272 1645 3428 
Q 1925 3584 2291 3584 
Q 2894 3584 3203 3211 
Q 3513 2838 3513 2113 
z
" transform="scale(0.015625)"/>
       <path id="DejaVuSans-74" d="M 1172 4494 
L 1172 3500 
L 2356 3500 
L 2356 3053 
L 1172 3053 
L 1172 1153 
Q 1172 725 1289 603 
Q 1406 481 1766 481 
L 2356 481 
L 2356 0 
L 1766 0 
Q 1100 0 847 248 
Q 594 497 594 1153 
L 594 3053 
L 172 3053 
L 172 3500 
L 594 3500 
L 594 4494 
L 1172 4494 
z
" transform="scale(0.015625)"/>
       <path id="DejaVuSans-28" d="M 1984 4856 
Q 1566 4138 1362 3434 
Q 1159 2731 1159 2009 
Q 1159 1288 1364 580 
Q 1569 -128 1984 -844 
L 1484 -844 
Q 1016 -109 783 600 
Q 550 1309 550 2009 
Q 550 2706 781 3412 
Q 1013 4119 1484 4856 
L 1984 4856 
z
" transform="scale(0.015625)"/>
       <path id="DejaVuSans-73" d="M 2834 3397 
L 2834 2853 
Q 2591 2978 2328 3040 
Q 2066 3103 1784 3103 
Q 1356 3103 1142 2972 
Q 928 2841 928 2578 
Q 928 2378 1081 2264 
Q 1234 2150 1697 2047 
L 1894 2003 
Q 2506 1872 2764 1633 
Q 3022 1394 3022 966 
Q 3022 478 2636 193 
Q 2250 -91 1575 -91 
Q 1294 -91 989 -36 
Q 684 19 347 128 
L 347 722 
Q 666 556 975 473 
Q 1284 391 1588 391 
Q 1994 391 2212 530 
Q 2431 669 2431 922 
Q 2431 1156 2273 1281 
Q 2116 1406 1581 1522 
L 1381 1569 
Q 847 1681 609 1914 
Q 372 2147 372 2553 
Q 372 3047 722 3315 
Q 1072 3584 1716 3584 
Q 2034 3584 2315 3537 
Q 2597 3491 2834 3397 
z
" transform="scale(0.015625)"/>
       <path id="DejaVuSans-29" d="M 513 4856 
L 1013 4856 
Q 1481 4119 1714 3412 
Q 1947 2706 1947 2009 
Q 1947 1309 1714 600 
Q 1481 -109 1013 -844 
L 513 -844 
Q 928 -128 1133 580 
Q 1338 1288 1338 2009 
Q 1338 2731 1133 3434 
Q 928 4138 513 4856 
z
" transform="scale(0.015625)"/>
      </defs>
      <use xlink:href="#DejaVuSans-54"/>
      <use xlink:href="#DejaVuSans-69" x="57.958984"/>
      <use xlink:href="#DejaVuSans-6d" x="85.742188"/>
      <use xlink:href="#DejaVuSans-65" x="183.154297"/>
      <use xlink:href="#DejaVuSans-20" x="244.677734"/>
      <use xlink:href="#DejaVuSans-66" x="276.464844"/>
      <use xlink:href="#DejaVuSans-72" x="311.669922"/>
      <use xlink:href="#DejaVuSans-6f" x="350.533203"/>
      <use xlink:href="#DejaVuSans-6d" x="411.714844"/>
      <use xlink:href="#DejaVuSans-20" x="509.126953"/>
      <use xlink:href="#DejaVuSans-65" x="540.914062"/>
      <use xlink:href="#DejaVuSans-76" x="602.4375"/>
      <use xlink:href="#DejaVuSans-65" x="661.617188"/>
      <use xlink:href="#DejaVuSans-6e" x="723.140625"/>
      <use xlink:href="#DejaVuSans-74" x="786.519531"/>
      <use xlink:href="#DejaVuSans-20" x="825.728516"/>
      <use xlink:href="#DejaVuSans-28" x="857.515625"/>
      <use xlink:href="#DejaVuSans-73" x="896.529297"/>
      <use xlink:href="#DejaVuSans-29" x="948.628906"/>
     </g>
    </g>
   </g>
   <g id="matplotlib.axis_2">
    <g id="ytick_1">
     <g id="line2d_6">
      <defs>
       <path id="mc69710c011" d="M 0 0 
L -3.5 0 
" style="stroke: #000000; stroke-width: 0.8"/>
      </defs>
      <g>
       <use xlink:href="#mc69710c011" x="63" y="197.398362" style="stroke: #000000; stroke-width: 0.8"/>
      </g>
     </g>
     <g id="text_7">
      <!-- −5 -->
      <g transform="translate(32.4125 203.477112)scale(0.16 -0.16)">
       <defs>
        <path id="DejaVuSans-35" d="M 691 4666 
L 3169 4666 
L 3169 4134 
L 1269 4134 
L 1269 2991 
Q 1406 3038 1543 3061 
Q 1681 3084 1819 3084 
Q 2600 3084 3056 2656 
Q 3513 2228 3513 1497 
Q 3513 744 3044 326 
Q 2575 -91 1722 -91 
Q 1428 -91 1123 -41 
Q 819 9 494 109 
L 494 744 
Q 775 591 1075 516 
Q 1375 441 1709 441 
Q 2250 441 2565 725 
Q 2881 1009 2881 1497 
Q 2881 1984 2565 2268 
Q 2250 2553 1709 2553 
Q 1456 2553 1204 2497 
Q 953 2441 691 2322 
L 691 4666 
z
" transform="scale(0.015625)"/>
       </defs>
       <use xlink:href="#DejaVuSans-2212"/>
       <use xlink:href="#DejaVuSans-35" x="83.789062"/>
      </g>
     </g>
    </g>
    <g id="ytick_2">
     <g id="line2d_7">
      <g>
       <use xlink:href="#mc69710c011" x="63" y="124.860054" style="stroke: #000000; stroke-width: 0.8"/>
      </g>
     </g>
     <g id="text_8">
      <!-- 0 -->
      <g transform="translate(45.82 130.938804)scale(0.16 -0.16)">
       <use xlink:href="#DejaVuSans-30"/>
      </g>
     </g>
    </g>
    <g id="ytick_3">
     <g id="line2d_8">
      <g>
       <use xlink:href="#mc69710c011" x="63" y="52.321745" style="stroke: #000000; stroke-width: 0.8"/>
      </g>
     </g>
     <g id="text_9">
      <!-- 5 -->
      <g transform="translate(45.82 58.400495)scale(0.16 -0.16)">
       <use xlink:href="#DejaVuSans-35"/>
      </g>
     </g>
    </g>
    <g id="text_10">
     <!-- Amplitude (uV) -->
     <g transform="translate(24.669062 213.304219)rotate(-90)scale(0.18 -0.18)">
      <defs>
       <path id="DejaVuSans-41" d="M 2188 4044 
L 1331 1722 
L 3047 1722 
L 2188 4044 
z
M 1831 4666 
L 2547 4666 
L 4325 0 
L 3669 0 
L 3244 1197 
L 1141 1197 
L 716 0 
L 50 0 
L 1831 4666 
z
" transform="scale(0.015625)"/>
       <path id="DejaVuSans-70" d="M 1159 525 
L 1159 -1331 
L 581 -1331 
L 581 3500 
L 1159 3500 
L 1159 2969 
Q 1341 3281 1617 3432 
Q 1894 3584 2278 3584 
Q 2916 3584 3314 3078 
Q 3713 2572 3713 1747 
Q 3713 922 3314 415 
Q 2916 -91 2278 -91 
Q 1894 -91 1617 61 
Q 1341 213 1159 525 
z
M 3116 1747 
Q 3116 2381 2855 2742 
Q 2594 3103 2138 3103 
Q 1681 3103 1420 2742 
Q 1159 2381 1159 1747 
Q 1159 1113 1420 752 
Q 1681 391 2138 391 
Q 2594 391 2855 752 
Q 3116 1113 3116 1747 
z
" transform="scale(0.015625)"/>
       <path id="DejaVuSans-6c" d="M 603 4863 
L 1178 4863 
L 1178 0 
L 603 0 
L 603 4863 
z
" transform="scale(0.015625)"/>
       <path id="DejaVuSans-75" d="M 544 1381 
L 544 3500 
L 1119 3500 
L 1119 1403 
Q 1119 906 1312 657 
Q 1506 409 1894 409 
Q 2359 409 2629 706 
Q 2900 1003 2900 1516 
L 2900 3500 
L 3475 3500 
L 3475 0 
L 2900 0 
L 2900 538 
Q 2691 219 2414 64 
Q 2138 -91 1772 -91 
Q 1169 -91 856 284 
Q 544 659 544 1381 
z
M 1991 3584 
L 1991 3584 
z
" transform="scale(0.015625)"/>
       <path id="DejaVuSans-64" d="M 2906 2969 
L 2906 4863 
L 3481 4863 
L 3481 0 
L 2906 0 
L 2906 525 
Q 2725 213 2448 61 
Q 2172 -91 1784 -91 
Q 1150 -91 751 415 
Q 353 922 353 1747 
Q 353 2572 751 3078 
Q 1150 3584 1784 3584 
Q 2172 3584 2448 3432 
Q 2725 3281 2906 2969 
z
M 947 1747 
Q 947 1113 1208 752 
Q 1469 391 1925 391 
Q 2381 391 2643 752 
Q 2906 1113 2906 1747 
Q 2906 2381 2643 2742 
Q 2381 3103 1925 3103 
Q 1469 3103 1208 2742 
Q 947 2381 947 1747 
z
" transform="scale(0.015625)"/>
       <path id="DejaVuSans-56" d="M 1831 0 
L 50 4666 
L 709 4666 
L 2188 738 
L 3669 4666 
L 4325 4666 
L 2547 0 
L 1831 0 
z
" transform="scale(0.015625)"/>
      </defs>
      <use xlink:href="#DejaVuSans-41"/>
      <use xlink:href="#DejaVuSans-6d" x="68.408203"/>
      <use xlink:href="#DejaVuSans-70" x="165.820312"/>
      <use xlink:href="#DejaVuSans-6c" x="229.296875"/>
      <use xlink:href="#DejaVuSans-69" x="257.080078"/>
      <use xlink:href="#DejaVuSans-74" x="284.863281"/>
      <use xlink:href="#DejaVuSans-75" x="324.072266"/>
      <use xlink:href="#DejaVuSans-64" x="387.451172"/>
      <use xlink:href="#DejaVuSans-65" x="450.927734"/>
      <use xlink:href="#DejaVuSans-20" x="512.451172"/>
      <use xlink:href="#DejaVuSans-28" x="544.238281"/>
      <use xlink:href="#DejaVuSans-75" x="583.251953"/>
      <use xlink:href="#DejaVuSans-56" x="646.630859"/>
      <use xlink:href="#DejaVuSans-29" x="715.039062"/>
     </g>
    </g>
   </g>
   <g id="line2d_9">
    <path d="M 63 124.860054 
L 453.6 124.860054 
" clip-path="url(#p68b249ea27)" style="fill: none; stroke: #000000; stroke-width: 0.5; stroke-linecap: square"/>
   </g>
   <g id="line2d_10">
    <path d="M 187.559233 256.32 
L 187.559233 34.56 
" clip-path="url(#p68b249ea27)" style="fill: none; stroke-dasharray: 1.85,0.8; stroke-dashoffset: 0; stroke: #000000; stroke-width: 0.5"/>
   </g>
   <g id="line2d_11">
    <path d="M 80.754545 88.072123 
L 82.141619 93.832338 
L 83.528693 95.632196 
L 84.915767 93.382447 
L 86.302841 89.730003 
L 87.689915 87.665575 
L 89.076989 87.992835 
L 90.464062 88.897396 
L 91.851136 87.911221 
L 93.23821 84.38958 
L 94.625284 80.195008 
L 96.012358 77.977124 
L 97.399432 78.669276 
L 98.786506 80.545536 
L 100.17358 80.752016 
L 101.560653 77.964998 
L 102.947727 73.786228 
L 104.334801 71.587105 
L 105.721875 73.75793 
L 107.108949 79.716356 
L 108.496023 86.376377 
L 109.883097 90.676364 
L 111.27017 92.034585 
L 112.657244 92.688759 
L 114.044318 95.653869 
L 115.431392 101.982797 
L 116.818466 109.550902 
L 118.20554 114.338936 
L 119.592614 113.224048 
L 120.979687 106.170065 
L 122.366761 96.24592 
L 123.753835 87.583113 
L 125.140909 82.865421 
L 126.527983 82.13338 
L 127.915057 83.544911 
L 129.302131 85.229672 
L 130.689205 86.675428 
L 132.076278 88.654056 
L 133.463352 91.981564 
L 134.850426 96.333208 
L 136.2375 100.178313 
L 137.624574 101.857085 
L 139.011648 100.816822 
L 140.398722 97.916713 
L 141.785795 94.567459 
L 144.559943 88.434881 
L 145.947017 84.598775 
L 147.334091 80.143352 
L 148.721165 76.520669 
L 150.108239 75.682314 
L 151.495312 78.549367 
L 154.26946 89.872557 
L 155.656534 93.771161 
L 157.043608 95.399561 
L 158.430682 96.146964 
L 159.817756 97.775019 
L 162.591903 104.090402 
L 163.978977 105.890329 
L 165.366051 105.514257 
L 166.753125 104.023867 
L 168.140199 103.385599 
L 169.527273 104.796938 
L 170.914347 107.645704 
L 172.30142 109.997804 
L 173.688494 110.1723 
L 175.075568 108.04117 
L 176.462642 104.985979 
L 177.849716 102.65796 
L 179.23679 101.712943 
L 182.010937 101.59361 
L 183.398011 101.625818 
L 184.785085 102.595509 
L 186.172159 105.302106 
L 188.946307 113.272733 
L 190.333381 115.233694 
L 191.720455 114.832662 
L 193.107528 113.316678 
L 194.494602 112.63418 
L 195.881676 113.843052 
L 197.26875 116.274852 
L 198.655824 118.187388 
L 200.042898 118.353225 
L 201.429972 117.20106 
L 202.817045 116.478144 
L 204.204119 117.659113 
L 205.591193 120.439669 
L 206.978267 122.672826 
L 208.365341 121.967402 
L 209.752415 117.76381 
L 211.139489 112.178438 
L 212.526563 108.755256 
L 213.913636 109.892842 
L 216.687784 120.085344 
L 218.074858 121.561963 
L 219.461932 117.905199 
L 220.849006 111.546845 
L 222.23608 107.238244 
L 223.623153 108.877195 
L 225.010227 117.004609 
L 227.784375 139.989872 
L 229.171449 148.022175 
L 230.558523 152.492994 
L 231.945597 154.472648 
L 233.33267 154.802938 
L 234.719744 153.453517 
L 236.106818 150.333224 
L 237.493892 146.453815 
L 238.880966 143.977588 
L 240.26804 144.837895 
L 241.655114 149.132014 
L 243.042188 154.837366 
L 244.429261 159.229748 
L 245.816335 160.819603 
L 247.203409 160.172037 
L 248.590483 159.035431 
L 249.977557 158.71114 
L 251.364631 159.125415 
L 252.751705 159.223883 
L 254.138778 158.048034 
L 255.525852 155.414715 
L 256.912926 151.780405 
L 259.687074 144.004233 
L 261.074148 141.240483 
L 262.461222 140.291947 
L 263.848295 141.453147 
L 265.235369 143.912258 
L 266.622443 145.941794 
L 268.009517 146.004748 
L 269.396591 143.911224 
L 270.783665 140.931205 
L 272.170739 138.690583 
L 273.557813 137.873564 
L 274.944886 137.96028 
L 277.719034 138.449843 
L 279.106108 139.49826 
L 281.880256 143.474155 
L 283.26733 143.402325 
L 284.654403 140.369 
L 286.041477 135.626988 
L 287.428551 132.030972 
L 288.815625 131.881169 
L 290.202699 135.122974 
L 291.589773 139.583932 
L 292.976847 143.027272 
L 295.750994 147.003159 
L 297.138068 150.055117 
L 298.525142 153.389716 
L 299.912216 154.442337 
L 301.29929 151.117857 
L 302.686364 143.952054 
L 304.073438 136.117659 
L 305.460511 131.114792 
L 306.847585 130.107889 
L 308.234659 131.202962 
L 309.621733 131.225223 
L 311.008807 128.384355 
L 312.395881 123.558688 
L 313.782955 119.27778 
L 315.170028 117.507611 
L 316.557102 118.222295 
L 317.944176 119.829371 
L 319.33125 120.790525 
L 320.718324 120.838866 
L 322.105398 120.768301 
L 324.879545 121.495583 
L 326.266619 120.165854 
L 327.653693 115.923521 
L 329.040767 108.916359 
L 330.427841 100.760906 
L 331.814915 93.466035 
L 333.201989 88.114228 
L 334.589063 84.331071 
L 335.976136 80.887507 
L 337.36321 76.877494 
L 338.750284 72.516631 
L 340.137358 68.975237 
L 341.524432 67.446126 
L 342.911506 68.222513 
L 344.29858 70.505447 
L 345.685653 73.055373 
L 347.072727 75.138158 
L 348.459801 77.00443 
L 349.846875 79.534468 
L 351.233949 83.361777 
L 354.008097 93.034144 
L 355.39517 96.798142 
L 356.782244 99.35552 
L 358.169318 101.573445 
L 359.556392 104.630717 
L 360.943466 109.019237 
L 362.33054 114.072768 
L 363.717614 118.419813 
L 365.104688 120.998192 
L 366.491761 121.815119 
L 367.878835 121.867629 
L 369.265909 122.339804 
L 370.652983 123.754925 
L 372.040057 125.724542 
L 373.427131 127.391328 
L 374.814205 128.123995 
L 376.201278 127.933347 
L 377.588352 127.421319 
L 378.975426 127.456275 
L 380.3625 128.851 
L 381.749574 132.140299 
L 383.136648 137.408821 
L 384.523722 144.184852 
L 387.297869 158.549242 
L 388.684943 164.717948 
L 391.459091 175.968427 
L 395.620313 194.48541 
L 397.007386 199.073198 
L 398.39446 201.959395 
L 399.781534 203.205467 
L 401.168608 203.004912 
L 402.555682 201.469974 
L 403.942756 198.715715 
L 405.32983 195.025438 
L 406.716903 190.753652 
L 408.103977 185.96169 
L 409.491051 180.195797 
L 410.878125 172.782845 
L 412.265199 163.496716 
L 415.039347 142.515164 
L 416.42642 133.213732 
L 417.813494 125.595918 
L 419.200568 119.7809 
L 420.587642 116.123247 
L 421.974716 115.433871 
L 423.36179 118.358236 
L 424.748864 124.395647 
L 426.135938 131.552863 
L 427.523011 137.142784 
L 428.910085 139.193419 
L 430.297159 137.358014 
L 431.684233 132.689028 
L 435.845455 114.784147 
L 435.845455 114.784147 
" clip-path="url(#p68b249ea27)" style="fill: none; stroke: #1f77b4; stroke-width: 1.5; stroke-linecap: square"/>
   </g>
   <g id="line2d_12">
    <path d="M 80.754545 123.625666 
L 82.141619 126.098649 
L 83.528693 125.284026 
L 84.915767 124.179853 
L 86.302841 124.465232 
L 87.689915 125.43057 
L 89.076989 124.883199 
L 90.464062 121.110727 
L 91.851136 114.303807 
L 93.23821 106.444287 
L 94.625284 99.907042 
L 96.012358 95.906853 
L 97.399432 93.895556 
L 98.786506 92.248736 
L 100.17358 89.675585 
L 101.560653 86.316364 
L 102.947727 83.718095 
L 104.334801 83.660585 
L 105.721875 86.661792 
L 107.108949 91.322563 
L 108.496023 95.139121 
L 109.883097 96.29451 
L 111.27017 95.069961 
L 112.657244 93.682778 
L 114.044318 94.568548 
L 115.431392 98.446064 
L 116.818466 103.764931 
L 118.20554 108.003525 
L 119.592614 109.681108 
L 120.979687 109.313628 
L 122.366761 108.514356 
L 123.753835 108.173547 
L 125.140909 107.52631 
L 126.527983 105.058183 
L 127.915057 100.371478 
L 129.302131 95.1018 
L 130.689205 91.808496 
L 132.076278 91.747149 
L 133.463352 93.654137 
L 134.850426 94.852646 
L 136.2375 93.795326 
L 137.624574 91.672651 
L 139.011648 91.456634 
L 140.398722 95.133377 
L 143.172869 107.688578 
L 144.559943 110.314774 
L 145.947017 109.61264 
L 147.334091 108.349202 
L 148.721165 109.357371 
L 150.108239 113.026853 
L 151.495312 117.292196 
L 152.882386 120.025595 
L 154.26946 121.371843 
L 155.656534 123.617164 
L 157.043608 128.641653 
L 158.430682 135.47096 
L 159.817756 140.470629 
L 161.20483 140.230869 
L 162.591903 134.564481 
L 163.978977 126.840302 
L 165.366051 121.317995 
L 166.753125 119.901741 
L 169.527273 122.336007 
L 170.914347 121.994701 
L 172.30142 121.115999 
L 173.688494 121.479581 
L 176.462642 125.377622 
L 177.849716 125.333349 
L 179.23679 123.077674 
L 180.623864 120.35681 
L 182.010937 119.006605 
L 183.398011 118.851843 
L 184.785085 117.650032 
L 186.172159 113.347067 
L 187.559233 106.533754 
L 188.946307 100.599122 
L 190.333381 99.151199 
L 191.720455 102.902815 
L 193.107528 108.889459 
L 194.494602 112.882704 
L 195.881676 112.971837 
L 197.26875 111.158346 
L 198.655824 111.513169 
L 200.042898 116.482923 
L 201.429972 124.583292 
L 202.817045 131.506502 
L 204.204119 133.672818 
L 205.591193 131.127779 
L 206.978267 127.290563 
L 208.365341 125.832754 
L 209.752415 127.455077 
L 211.139489 129.368179 
L 212.526563 127.88727 
L 213.913636 121.85309 
L 215.30071 113.933346 
L 216.687784 108.743492 
L 218.074858 109.440873 
L 219.461932 115.631428 
L 220.849006 124.151804 
L 222.23608 131.791786 
L 223.623153 137.520081 
L 225.010227 142.475871 
L 226.397301 148.096072 
L 227.784375 154.310256 
L 229.171449 159.443231 
L 230.558523 161.757044 
L 231.945597 161.085946 
L 233.33267 159.057534 
L 234.719744 157.772041 
L 236.106818 158.184817 
L 237.493892 159.597917 
L 238.880966 160.589894 
L 240.26804 160.44606 
L 241.655114 159.792406 
L 243.042188 159.902708 
L 244.429261 161.310308 
L 245.816335 162.946553 
L 247.203409 162.619849 
L 248.590483 158.598035 
L 249.977557 151.154361 
L 251.364631 142.842899 
L 252.751705 137.093596 
L 254.138778 135.943935 
L 255.525852 138.492823 
L 256.912926 141.319635 
L 258.3 140.752049 
L 259.687074 135.42431 
L 261.074148 127.212076 
L 262.461222 119.79212 
L 263.848295 115.931614 
L 265.235369 115.636109 
L 266.622443 116.551181 
L 268.009517 116.104744 
L 269.396591 113.464223 
L 270.783665 109.720367 
L 272.170739 106.442413 
L 273.557813 104.216511 
L 274.944886 102.599999 
L 276.33196 101.343787 
L 277.719034 101.381368 
L 279.106108 104.336384 
L 280.493182 110.89987 
L 283.26733 128.109051 
L 284.654403 134.023245 
L 287.428551 140.999973 
L 288.815625 145.960406 
L 291.589773 159.202621 
L 292.976847 164.140347 
L 295.750994 170.379956 
L 297.138068 174.713309 
L 298.525142 180.17798 
L 299.912216 184.953062 
L 301.29929 187.295856 
L 302.686364 187.419302 
L 304.073438 187.747134 
L 305.460511 191.150249 
L 306.847585 198.529785 
L 308.234659 207.738852 
L 309.621733 214.806807 
L 311.008807 216.611459 
L 312.395881 213.011634 
L 313.782955 206.882236 
L 315.170028 202.102736 
L 316.557102 201.052008 
L 317.944176 203.409063 
L 319.33125 206.929376 
L 320.718324 209.324534 
L 322.105398 209.66332 
L 323.492472 208.340386 
L 324.879545 205.992821 
L 326.266619 202.588268 
L 327.653693 197.558289 
L 329.040767 190.714447 
L 331.814915 175.461646 
L 333.201989 169.286962 
L 334.589063 163.807387 
L 335.976136 157.517227 
L 337.36321 149.305935 
L 340.137358 130.330515 
L 341.524432 123.760479 
L 342.911506 121.159034 
L 344.29858 122.234991 
L 345.685653 125.525476 
L 347.072727 129.186196 
L 348.459801 131.587698 
L 349.846875 131.595581 
L 351.233949 128.77328 
L 352.621023 123.615214 
L 354.008097 117.559823 
L 355.39517 112.483502 
L 356.782244 109.791164 
L 358.169318 109.677442 
L 360.943466 112.568252 
L 362.33054 112.948638 
L 363.717614 112.09554 
L 365.104688 110.662878 
L 366.491761 109.593892 
L 367.878835 109.572982 
L 369.265909 110.668027 
L 370.652983 112.237537 
L 372.040057 113.17409 
L 373.427131 112.511473 
L 374.814205 110.163721 
L 376.201278 107.268406 
L 377.588352 105.690507 
L 378.975426 106.846506 
L 380.3625 110.679544 
L 381.749574 115.66006 
L 383.136648 119.900394 
L 384.523722 122.485442 
L 385.910795 123.876256 
L 388.684943 126.27866 
L 390.072017 126.626967 
L 391.459091 124.938803 
L 392.846165 121.20835 
L 394.233239 117.140704 
L 395.620313 115.184226 
L 397.007386 116.742727 
L 399.781534 125.516209 
L 401.168608 127.606258 
L 402.555682 126.252588 
L 403.942756 122.372071 
L 405.32983 117.967372 
L 406.716903 114.789391 
L 408.103977 113.51756 
L 409.491051 113.837855 
L 410.878125 115.089429 
L 412.265199 116.872477 
L 413.652273 119.220283 
L 415.039347 122.33373 
L 419.200568 133.513095 
L 420.587642 135.622613 
L 421.974716 136.631894 
L 423.36179 137.349187 
L 426.135938 139.695005 
L 427.523011 139.365915 
L 428.910085 135.6624 
L 430.297159 128.278648 
L 431.684233 119.428657 
L 433.071307 112.911181 
L 434.458381 111.583576 
L 435.845455 115.10355 
L 435.845455 115.10355 
" clip-path="url(#p68b249ea27)" style="fill: none; stroke: #ff7f0e; stroke-width: 1.5; stroke-linecap: square"/>
   </g>
   <g id="patch_3">
    <path d="M 63 256.32 
L 63 34.56 
" style="fill: none; stroke: #000000; stroke-width: 0.8; stroke-linejoin: miter; stroke-linecap: square"/>
   </g>
   <g id="patch_4">
    <path d="M 453.6 256.32 
L 453.6 34.56 
" style="fill: none; stroke: #000000; stroke-width: 0.8; stroke-linejoin: miter; stroke-linecap: square"/>
   </g>
   <g id="patch_5">
    <path d="M 63 256.32 
L 453.6 256.32 
" style="fill: none; stroke: #000000; stroke-width: 0.8; stroke-linejoin: miter; stroke-linecap: square"/>
   </g>
   <g id="patch_6">
    <path d="M 63 34.56 
L 453.6 34.56 
" style="fill: none; stroke: #000000; stroke-width: 0.8; stroke-linejoin: miter; stroke-linecap: square"/>
   </g>
   <g id="text_11">
    <!-- ERP response - Audio trial 2  -->
    <g transform="translate(97.267188 28.56)scale(0.2 -0.2)">
     <defs>
      <path id="DejaVuSans-Bold-45" d="M 588 4666 
L 3834 4666 
L 3834 3756 
L 1791 3756 
L 1791 2888 
L 3713 2888 
L 3713 1978 
L 1791 1978 
L 1791 909 
L 3903 909 
L 3903 0 
L 588 0 
L 588 4666 
z
" transform="scale(0.015625)"/>
      <path id="DejaVuSans-Bold-52" d="M 2297 2597 
Q 2675 2597 2839 2737 
Q 3003 2878 3003 3200 
Q 3003 3519 2839 3656 
Q 2675 3794 2297 3794 
L 1791 3794 
L 1791 2597 
L 2297 2597 
z
M 1791 1766 
L 1791 0 
L 588 0 
L 588 4666 
L 2425 4666 
Q 3347 4666 3776 4356 
Q 4206 4047 4206 3378 
Q 4206 2916 3982 2619 
Q 3759 2322 3309 2181 
Q 3556 2125 3751 1926 
Q 3947 1728 4147 1325 
L 4800 0 
L 3519 0 
L 2950 1159 
Q 2778 1509 2601 1637 
Q 2425 1766 2131 1766 
L 1791 1766 
z
" transform="scale(0.015625)"/>
      <path id="DejaVuSans-Bold-50" d="M 588 4666 
L 2584 4666 
Q 3475 4666 3951 4270 
Q 4428 3875 4428 3144 
Q 4428 2409 3951 2014 
Q 3475 1619 2584 1619 
L 1791 1619 
L 1791 0 
L 588 0 
L 588 4666 
z
M 1791 3794 
L 1791 2491 
L 2456 2491 
Q 2806 2491 2997 2661 
Q 3188 2831 3188 3144 
Q 3188 3456 2997 3625 
Q 2806 3794 2456 3794 
L 1791 3794 
z
" transform="scale(0.015625)"/>
      <path id="DejaVuSans-Bold-20" transform="scale(0.015625)"/>
      <path id="DejaVuSans-Bold-72" d="M 3138 2547 
Q 2991 2616 2845 2648 
Q 2700 2681 2553 2681 
Q 2122 2681 1889 2404 
Q 1656 2128 1656 1613 
L 1656 0 
L 538 0 
L 538 3500 
L 1656 3500 
L 1656 2925 
Q 1872 3269 2151 3426 
Q 2431 3584 2822 3584 
Q 2878 3584 2943 3579 
Q 3009 3575 3134 3559 
L 3138 2547 
z
" transform="scale(0.015625)"/>
      <path id="DejaVuSans-Bold-65" d="M 4031 1759 
L 4031 1441 
L 1416 1441 
Q 1456 1047 1700 850 
Q 1944 653 2381 653 
Q 2734 653 3104 758 
Q 3475 863 3866 1075 
L 3866 213 
Q 3469 63 3072 -14 
Q 2675 -91 2278 -91 
Q 1328 -91 801 392 
Q 275 875 275 1747 
Q 275 2603 792 3093 
Q 1309 3584 2216 3584 
Q 3041 3584 3536 3087 
Q 4031 2591 4031 1759 
z
M 2881 2131 
Q 2881 2450 2695 2645 
Q 2509 2841 2209 2841 
Q 1884 2841 1681 2658 
Q 1478 2475 1428 2131 
L 2881 2131 
z
" transform="scale(0.015625)"/>
      <path id="DejaVuSans-Bold-73" d="M 3272 3391 
L 3272 2541 
Q 2913 2691 2578 2766 
Q 2244 2841 1947 2841 
Q 1628 2841 1473 2761 
Q 1319 2681 1319 2516 
Q 1319 2381 1436 2309 
Q 1553 2238 1856 2203 
L 2053 2175 
Q 2913 2066 3209 1816 
Q 3506 1566 3506 1031 
Q 3506 472 3093 190 
Q 2681 -91 1863 -91 
Q 1516 -91 1145 -36 
Q 775 19 384 128 
L 384 978 
Q 719 816 1070 734 
Q 1422 653 1784 653 
Q 2113 653 2278 743 
Q 2444 834 2444 1013 
Q 2444 1163 2330 1236 
Q 2216 1309 1875 1350 
L 1678 1375 
Q 931 1469 631 1722 
Q 331 1975 331 2491 
Q 331 3047 712 3315 
Q 1094 3584 1881 3584 
Q 2191 3584 2531 3537 
Q 2872 3491 3272 3391 
z
" transform="scale(0.015625)"/>
      <path id="DejaVuSans-Bold-70" d="M 1656 506 
L 1656 -1331 
L 538 -1331 
L 538 3500 
L 1656 3500 
L 1656 2988 
Q 1888 3294 2169 3439 
Q 2450 3584 2816 3584 
Q 3463 3584 3878 3070 
Q 4294 2556 4294 1747 
Q 4294 938 3878 423 
Q 3463 -91 2816 -91 
Q 2450 -91 2169 54 
Q 1888 200 1656 506 
z
M 2400 2772 
Q 2041 2772 1848 2508 
Q 1656 2244 1656 1747 
Q 1656 1250 1848 986 
Q 2041 722 2400 722 
Q 2759 722 2948 984 
Q 3138 1247 3138 1747 
Q 3138 2247 2948 2509 
Q 2759 2772 2400 2772 
z
" transform="scale(0.015625)"/>
      <path id="DejaVuSans-Bold-6f" d="M 2203 2784 
Q 1831 2784 1636 2517 
Q 1441 2250 1441 1747 
Q 1441 1244 1636 976 
Q 1831 709 2203 709 
Q 2569 709 2762 976 
Q 2956 1244 2956 1747 
Q 2956 2250 2762 2517 
Q 2569 2784 2203 2784 
z
M 2203 3584 
Q 3106 3584 3614 3096 
Q 4122 2609 4122 1747 
Q 4122 884 3614 396 
Q 3106 -91 2203 -91 
Q 1297 -91 786 396 
Q 275 884 275 1747 
Q 275 2609 786 3096 
Q 1297 3584 2203 3584 
z
" transform="scale(0.015625)"/>
      <path id="DejaVuSans-Bold-6e" d="M 4056 2131 
L 4056 0 
L 2931 0 
L 2931 347 
L 2931 1631 
Q 2931 2084 2911 2256 
Q 2891 2428 2841 2509 
Q 2775 2619 2662 2680 
Q 2550 2741 2406 2741 
Q 2056 2741 1856 2470 
Q 1656 2200 1656 1722 
L 1656 0 
L 538 0 
L 538 3500 
L 1656 3500 
L 1656 2988 
Q 1909 3294 2193 3439 
Q 2478 3584 2822 3584 
Q 3428 3584 3742 3212 
Q 4056 2841 4056 2131 
z
" transform="scale(0.015625)"/>
      <path id="DejaVuSans-Bold-2d" d="M 347 2297 
L 2309 2297 
L 2309 1388 
L 347 1388 
L 347 2297 
z
" transform="scale(0.015625)"/>
      <path id="DejaVuSans-Bold-41" d="M 3419 850 
L 1538 850 
L 1241 0 
L 31 0 
L 1759 4666 
L 3194 4666 
L 4922 0 
L 3713 0 
L 3419 850 
z
M 1838 1716 
L 3116 1716 
L 2478 3572 
L 1838 1716 
z
" transform="scale(0.015625)"/>
      <path id="DejaVuSans-Bold-75" d="M 500 1363 
L 500 3500 
L 1625 3500 
L 1625 3150 
Q 1625 2866 1622 2436 
Q 1619 2006 1619 1863 
Q 1619 1441 1641 1255 
Q 1663 1069 1716 984 
Q 1784 875 1895 815 
Q 2006 756 2150 756 
Q 2500 756 2700 1025 
Q 2900 1294 2900 1772 
L 2900 3500 
L 4019 3500 
L 4019 0 
L 2900 0 
L 2900 506 
Q 2647 200 2364 54 
Q 2081 -91 1741 -91 
Q 1134 -91 817 281 
Q 500 653 500 1363 
z
" transform="scale(0.015625)"/>
      <path id="DejaVuSans-Bold-64" d="M 2919 2988 
L 2919 4863 
L 4044 4863 
L 4044 0 
L 2919 0 
L 2919 506 
Q 2688 197 2409 53 
Q 2131 -91 1766 -91 
Q 1119 -91 703 423 
Q 288 938 288 1747 
Q 288 2556 703 3070 
Q 1119 3584 1766 3584 
Q 2128 3584 2408 3439 
Q 2688 3294 2919 2988 
z
M 2181 722 
Q 2541 722 2730 984 
Q 2919 1247 2919 1747 
Q 2919 2247 2730 2509 
Q 2541 2772 2181 2772 
Q 1825 2772 1636 2509 
Q 1447 2247 1447 1747 
Q 1447 1247 1636 984 
Q 1825 722 2181 722 
z
" transform="scale(0.015625)"/>
      <path id="DejaVuSans-Bold-69" d="M 538 3500 
L 1656 3500 
L 1656 0 
L 538 0 
L 538 3500 
z
M 538 4863 
L 1656 4863 
L 1656 3950 
L 538 3950 
L 538 4863 
z
" transform="scale(0.015625)"/>
      <path id="DejaVuSans-Bold-74" d="M 1759 4494 
L 1759 3500 
L 2913 3500 
L 2913 2700 
L 1759 2700 
L 1759 1216 
Q 1759 972 1856 886 
Q 1953 800 2241 800 
L 2816 800 
L 2816 0 
L 1856 0 
Q 1194 0 917 276 
Q 641 553 641 1216 
L 641 2700 
L 84 2700 
L 84 3500 
L 641 3500 
L 641 4494 
L 1759 4494 
z
" transform="scale(0.015625)"/>
      <path id="DejaVuSans-Bold-61" d="M 2106 1575 
Q 1756 1575 1579 1456 
Q 1403 1338 1403 1106 
Q 1403 894 1545 773 
Q 1688 653 1941 653 
Q 2256 653 2472 879 
Q 2688 1106 2688 1447 
L 2688 1575 
L 2106 1575 
z
M 3816 1997 
L 3816 0 
L 2688 0 
L 2688 519 
Q 2463 200 2181 54 
Q 1900 -91 1497 -91 
Q 953 -91 614 226 
Q 275 544 275 1050 
Q 275 1666 698 1953 
Q 1122 2241 2028 2241 
L 2688 2241 
L 2688 2328 
Q 2688 2594 2478 2717 
Q 2269 2841 1825 2841 
Q 1466 2841 1156 2769 
Q 847 2697 581 2553 
L 581 3406 
Q 941 3494 1303 3539 
Q 1666 3584 2028 3584 
Q 2975 3584 3395 3211 
Q 3816 2838 3816 1997 
z
" transform="scale(0.015625)"/>
      <path id="DejaVuSans-Bold-6c" d="M 538 4863 
L 1656 4863 
L 1656 0 
L 538 0 
L 538 4863 
z
" transform="scale(0.015625)"/>
      <path id="DejaVuSans-Bold-32" d="M 1844 884 
L 3897 884 
L 3897 0 
L 506 0 
L 506 884 
L 2209 2388 
Q 2438 2594 2547 2791 
Q 2656 2988 2656 3200 
Q 2656 3528 2436 3728 
Q 2216 3928 1850 3928 
Q 1569 3928 1234 3808 
Q 900 3688 519 3450 
L 519 4475 
Q 925 4609 1322 4679 
Q 1719 4750 2100 4750 
Q 2938 4750 3402 4381 
Q 3866 4013 3866 3353 
Q 3866 2972 3669 2642 
Q 3472 2313 2841 1759 
L 1844 884 
z
" transform="scale(0.015625)"/>
     </defs>
     <use xlink:href="#DejaVuSans-Bold-45"/>
     <use xlink:href="#DejaVuSans-Bold-52" x="68.310547"/>
     <use xlink:href="#DejaVuSans-Bold-50" x="145.3125"/>
     <use xlink:href="#DejaVuSans-Bold-20" x="218.603516"/>
     <use xlink:href="#DejaVuSans-Bold-72" x="253.417969"/>
     <use xlink:href="#DejaVuSans-Bold-65" x="302.734375"/>
     <use xlink:href="#DejaVuSans-Bold-73" x="370.556641"/>
     <use xlink:href="#DejaVuSans-Bold-70" x="430.078125"/>
     <use xlink:href="#DejaVuSans-Bold-6f" x="501.660156"/>
     <use xlink:href="#DejaVuSans-Bold-6e" x="570.361328"/>
     <use xlink:href="#DejaVuSans-Bold-73" x="641.552734"/>
     <use xlink:href="#DejaVuSans-Bold-65" x="701.074219"/>
     <use xlink:href="#DejaVuSans-Bold-20" x="768.896484"/>
     <use xlink:href="#DejaVuSans-Bold-2d" x="803.710938"/>
     <use xlink:href="#DejaVuSans-Bold-20" x="845.214844"/>
     <use xlink:href="#DejaVuSans-Bold-41" x="880.029297"/>
     <use xlink:href="#DejaVuSans-Bold-75" x="957.421875"/>
     <use xlink:href="#DejaVuSans-Bold-64" x="1028.613281"/>
     <use xlink:href="#DejaVuSans-Bold-69" x="1100.195312"/>
     <use xlink:href="#DejaVuSans-Bold-6f" x="1134.472656"/>
     <use xlink:href="#DejaVuSans-Bold-20" x="1203.173828"/>
     <use xlink:href="#DejaVuSans-Bold-74" x="1237.988281"/>
     <use xlink:href="#DejaVuSans-Bold-72" x="1285.791016"/>
     <use xlink:href="#DejaVuSans-Bold-69" x="1335.107422"/>
     <use xlink:href="#DejaVuSans-Bold-61" x="1369.384766"/>
     <use xlink:href="#DejaVuSans-Bold-6c" x="1436.865234"/>
     <use xlink:href="#DejaVuSans-Bold-20" x="1471.142578"/>
     <use xlink:href="#DejaVuSans-Bold-32" x="1505.957031"/>
     <use xlink:href="#DejaVuSans-Bold-20" x="1575.537109"/>
    </g>
   </g>
   <g id="legend_1">
    <g id="patch_7">
     <path d="M 70 251.32 
L 168.203125 251.32 
Q 170.203125 251.32 170.203125 249.32 
L 170.203125 191.6075 
Q 170.203125 189.6075 168.203125 189.6075 
L 70 189.6075 
Q 68 189.6075 68 191.6075 
L 68 249.32 
Q 68 251.32 70 251.32 
z
" style="fill: #ffffff; opacity: 0.8; stroke: #cccccc; stroke-linejoin: miter"/>
    </g>
    <g id="line2d_13">
     <path d="M 72 197.705938 
L 82 197.705938 
L 92 197.705938 
" style="fill: none; stroke: #1f77b4; stroke-width: 1.5; stroke-linecap: square"/>
    </g>
    <g id="text_12">
     <!-- 'left' - Mean -->
     <g transform="translate(100 201.205938)scale(0.1 -0.1)">
      <defs>
       <path id="DejaVuSans-27" d="M 1147 4666 
L 1147 2931 
L 616 2931 
L 616 4666 
L 1147 4666 
z
" transform="scale(0.015625)"/>
       <path id="DejaVuSans-2d" d="M 313 2009 
L 1997 2009 
L 1997 1497 
L 313 1497 
L 313 2009 
z
" transform="scale(0.015625)"/>
       <path id="DejaVuSans-4d" d="M 628 4666 
L 1569 4666 
L 2759 1491 
L 3956 4666 
L 4897 4666 
L 4897 0 
L 4281 0 
L 4281 4097 
L 3078 897 
L 2444 897 
L 1241 4097 
L 1241 0 
L 628 0 
L 628 4666 
z
" transform="scale(0.015625)"/>
       <path id="DejaVuSans-61" d="M 2194 1759 
Q 1497 1759 1228 1600 
Q 959 1441 959 1056 
Q 959 750 1161 570 
Q 1363 391 1709 391 
Q 2188 391 2477 730 
Q 2766 1069 2766 1631 
L 2766 1759 
L 2194 1759 
z
M 3341 1997 
L 3341 0 
L 2766 0 
L 2766 531 
Q 2569 213 2275 61 
Q 1981 -91 1556 -91 
Q 1019 -91 701 211 
Q 384 513 384 1019 
Q 384 1609 779 1909 
Q 1175 2209 1959 2209 
L 2766 2209 
L 2766 2266 
Q 2766 2663 2505 2880 
Q 2244 3097 1772 3097 
Q 1472 3097 1187 3025 
Q 903 2953 641 2809 
L 641 3341 
Q 956 3463 1253 3523 
Q 1550 3584 1831 3584 
Q 2591 3584 2966 3190 
Q 3341 2797 3341 1997 
z
" transform="scale(0.015625)"/>
      </defs>
      <use xlink:href="#DejaVuSans-27"/>
      <use xlink:href="#DejaVuSans-6c" x="27.490234"/>
      <use xlink:href="#DejaVuSans-65" x="55.273438"/>
      <use xlink:href="#DejaVuSans-66" x="116.796875"/>
      <use xlink:href="#DejaVuSans-74" x="150.251953"/>
      <use xlink:href="#DejaVuSans-27" x="189.460938"/>
      <use xlink:href="#DejaVuSans-20" x="216.951172"/>
      <use xlink:href="#DejaVuSans-2d" x="248.738281"/>
      <use xlink:href="#DejaVuSans-20" x="284.822266"/>
      <use xlink:href="#DejaVuSans-4d" x="316.609375"/>
      <use xlink:href="#DejaVuSans-65" x="402.888672"/>
      <use xlink:href="#DejaVuSans-61" x="464.412109"/>
      <use xlink:href="#DejaVuSans-6e" x="525.691406"/>
     </g>
    </g>
    <g id="patch_8">
     <path d="M 72 215.884062 
L 92 215.884062 
L 92 208.884062 
L 72 208.884062 
z
" style="fill: #1f77b4; fill-opacity: 0.2"/>
    </g>
    <g id="text_13">
     <!-- 'left'- SEM -->
     <g transform="translate(100 215.884062)scale(0.1 -0.1)">
      <defs>
       <path id="DejaVuSans-53" d="M 3425 4513 
L 3425 3897 
Q 3066 4069 2747 4153 
Q 2428 4238 2131 4238 
Q 1616 4238 1336 4038 
Q 1056 3838 1056 3469 
Q 1056 3159 1242 3001 
Q 1428 2844 1947 2747 
L 2328 2669 
Q 3034 2534 3370 2195 
Q 3706 1856 3706 1288 
Q 3706 609 3251 259 
Q 2797 -91 1919 -91 
Q 1588 -91 1214 -16 
Q 841 59 441 206 
L 441 856 
Q 825 641 1194 531 
Q 1563 422 1919 422 
Q 2459 422 2753 634 
Q 3047 847 3047 1241 
Q 3047 1584 2836 1778 
Q 2625 1972 2144 2069 
L 1759 2144 
Q 1053 2284 737 2584 
Q 422 2884 422 3419 
Q 422 4038 858 4394 
Q 1294 4750 2059 4750 
Q 2388 4750 2728 4690 
Q 3069 4631 3425 4513 
z
" transform="scale(0.015625)"/>
       <path id="DejaVuSans-45" d="M 628 4666 
L 3578 4666 
L 3578 4134 
L 1259 4134 
L 1259 2753 
L 3481 2753 
L 3481 2222 
L 1259 2222 
L 1259 531 
L 3634 531 
L 3634 0 
L 628 0 
L 628 4666 
z
" transform="scale(0.015625)"/>
      </defs>
      <use xlink:href="#DejaVuSans-27"/>
      <use xlink:href="#DejaVuSans-6c" x="27.490234"/>
      <use xlink:href="#DejaVuSans-65" x="55.273438"/>
      <use xlink:href="#DejaVuSans-66" x="116.796875"/>
      <use xlink:href="#DejaVuSans-74" x="150.251953"/>
      <use xlink:href="#DejaVuSans-27" x="189.460938"/>
      <use xlink:href="#DejaVuSans-2d" x="216.951172"/>
      <use xlink:href="#DejaVuSans-20" x="253.035156"/>
      <use xlink:href="#DejaVuSans-53" x="284.822266"/>
      <use xlink:href="#DejaVuSans-45" x="348.298828"/>
      <use xlink:href="#DejaVuSans-4d" x="411.482422"/>
     </g>
    </g>
    <g id="line2d_14">
     <path d="M 72 227.062187 
L 82 227.062187 
L 92 227.062187 
" style="fill: none; stroke: #ff7f0e; stroke-width: 1.5; stroke-linecap: square"/>
    </g>
    <g id="text_14">
     <!-- 'right' - Mean -->
     <g transform="translate(100 230.562187)scale(0.1 -0.1)">
      <defs>
       <path id="DejaVuSans-67" d="M 2906 1791 
Q 2906 2416 2648 2759 
Q 2391 3103 1925 3103 
Q 1463 3103 1205 2759 
Q 947 2416 947 1791 
Q 947 1169 1205 825 
Q 1463 481 1925 481 
Q 2391 481 2648 825 
Q 2906 1169 2906 1791 
z
M 3481 434 
Q 3481 -459 3084 -895 
Q 2688 -1331 1869 -1331 
Q 1566 -1331 1297 -1286 
Q 1028 -1241 775 -1147 
L 775 -588 
Q 1028 -725 1275 -790 
Q 1522 -856 1778 -856 
Q 2344 -856 2625 -561 
Q 2906 -266 2906 331 
L 2906 616 
Q 2728 306 2450 153 
Q 2172 0 1784 0 
Q 1141 0 747 490 
Q 353 981 353 1791 
Q 353 2603 747 3093 
Q 1141 3584 1784 3584 
Q 2172 3584 2450 3431 
Q 2728 3278 2906 2969 
L 2906 3500 
L 3481 3500 
L 3481 434 
z
" transform="scale(0.015625)"/>
       <path id="DejaVuSans-68" d="M 3513 2113 
L 3513 0 
L 2938 0 
L 2938 2094 
Q 2938 2591 2744 2837 
Q 2550 3084 2163 3084 
Q 1697 3084 1428 2787 
Q 1159 2491 1159 1978 
L 1159 0 
L 581 0 
L 581 4863 
L 1159 4863 
L 1159 2956 
Q 1366 3272 1645 3428 
Q 1925 3584 2291 3584 
Q 2894 3584 3203 3211 
Q 3513 2838 3513 2113 
z
" transform="scale(0.015625)"/>
      </defs>
      <use xlink:href="#DejaVuSans-27"/>
      <use xlink:href="#DejaVuSans-72" x="27.490234"/>
      <use xlink:href="#DejaVuSans-69" x="68.603516"/>
      <use xlink:href="#DejaVuSans-67" x="96.386719"/>
      <use xlink:href="#DejaVuSans-68" x="159.863281"/>
      <use xlink:href="#DejaVuSans-74" x="223.242188"/>
      <use xlink:href="#DejaVuSans-27" x="262.451172"/>
      <use xlink:href="#DejaVuSans-20" x="289.941406"/>
      <use xlink:href="#DejaVuSans-2d" x="321.728516"/>
      <use xlink:href="#DejaVuSans-20" x="357.8125"/>
      <use xlink:href="#DejaVuSans-4d" x="389.599609"/>
      <use xlink:href="#DejaVuSans-65" x="475.878906"/>
      <use xlink:href="#DejaVuSans-61" x="537.402344"/>
      <use xlink:href="#DejaVuSans-6e" x="598.681641"/>
     </g>
    </g>
    <g id="patch_9">
     <path d="M 72 245.240313 
L 92 245.240313 
L 92 238.240313 
L 72 238.240313 
z
" style="fill: #ff7f0e; fill-opacity: 0.2"/>
    </g>
    <g id="text_15">
     <!-- 'right'- SEM -->
     <g transform="translate(100 245.240313)scale(0.1 -0.1)">
      <use xlink:href="#DejaVuSans-27"/>
      <use xlink:href="#DejaVuSans-72" x="27.490234"/>
      <use xlink:href="#DejaVuSans-69" x="68.603516"/>
      <use xlink:href="#DejaVuSans-67" x="96.386719"/>
      <use xlink:href="#DejaVuSans-68" x="159.863281"/>
      <use xlink:href="#DejaVuSans-74" x="223.242188"/>
      <use xlink:href="#DejaVuSans-27" x="262.451172"/>
      <use xlink:href="#DejaVuSans-2d" x="289.941406"/>
      <use xlink:href="#DejaVuSans-20" x="326.025391"/>
      <use xlink:href="#DejaVuSans-53" x="357.8125"/>
      <use xlink:href="#DejaVuSans-45" x="421.289062"/>
      <use xlink:href="#DejaVuSans-4d" x="484.472656"/>
     </g>
    </g>
   </g>
  </g>
 </g>
 <defs>
  <clipPath id="p68b249ea27">
   <rect x="63" y="34.56" width="390.6" height="221.76"/>
  </clipPath>
 </defs>
</svg>
