<?xml version="1.0" encoding="utf-8" standalone="no"?>
<!DOCTYPE svg PUBLIC "-//W3C//DTD SVG 1.1//EN"
  "http://www.w3.org/Graphics/SVG/1.1/DTD/svg11.dtd">
<svg xmlns:xlink="http://www.w3.org/1999/xlink" width="504pt" height="288pt" viewBox="0 0 504 288" xmlns="http://www.w3.org/2000/svg" version="1.1">
 <metadata>
  <rdf:RDF xmlns:dc="http://purl.org/dc/elements/1.1/" xmlns:cc="http://creativecommons.org/ns#" xmlns:rdf="http://www.w3.org/1999/02/22-rdf-syntax-ns#">
   <cc:Work>
    <dc:type rdf:resource="http://purl.org/dc/dcmitype/StillImage"/>
    <dc:date>2023-09-22T12:45:23.858252</dc:date>
    <dc:format>image/svg+xml</dc:format>
    <dc:creator>
     <cc:Agent>
      <dc:title>Matplotlib v3.5.3, https://matplotlib.org/</dc:title>
     </cc:Agent>
    </dc:creator>
   </cc:Work>
  </rdf:RDF>
 </metadata>
 <defs>
  <style type="text/css">*{stroke-linejoin: round; stroke-linecap: butt}</style>
 </defs>
 <g id="figure_1">
  <g id="patch_1">
   <path d="M 0 288 
L 504 288 
L 504 0 
L 0 0 
z
" style="fill: #ffffff"/>
  </g>
  <g id="axes_1">
   <g id="patch_2">
    <path d="M 63 256.32 
L 453.6 256.32 
L 453.6 34.56 
L 63 34.56 
z
" style="fill: #ffffff"/>
   </g>
   <g id="PolyCollection_1">
    <path d="M 80.754545 135.68713 
L 80.754545 176.16057 
L 82.141619 180.966671 
L 83.528693 185.606496 
L 84.915767 185.436712 
L 86.302841 179.710805 
L 87.689915 173.002351 
L 89.076989 171.681698 
L 90.464062 178.174918 
L 91.851136 188.386831 
L 93.23821 194.252021 
L 94.625284 189.656378 
L 96.012358 175.94806 
L 97.399432 161.923612 
L 98.786506 156.910808 
L 100.17358 163.075727 
L 101.560653 174.680965 
L 102.947727 183.223011 
L 104.334801 183.3601 
L 105.721875 176.22623 
L 107.108949 167.94221 
L 108.496023 164.349094 
L 109.883097 166.231392 
L 111.27017 169.321514 
L 112.657244 169.008438 
L 114.044318 164.241472 
L 115.431392 157.382685 
L 116.818466 151.37833 
L 118.20554 147.27846 
L 119.592614 144.152385 
L 120.979687 140.894911 
L 122.366761 137.669046 
L 123.753835 135.949122 
L 125.140909 137.20484 
L 126.527983 140.96421 
L 127.915057 144.386282 
L 129.302131 144.805852 
L 130.689205 142.351687 
L 132.076278 139.457747 
L 133.463352 138.545786 
L 134.850426 140.217662 
L 136.2375 142.544358 
L 137.624574 142.274086 
L 139.011648 137.665356 
L 140.398722 130.44009 
L 141.785795 125.229942 
L 143.172869 126.929912 
L 144.559943 137.280367 
L 145.947017 152.761386 
L 147.334091 165.965459 
L 148.721165 170.018471 
L 150.108239 162.918648 
L 151.495312 148.788449 
L 152.882386 135.122189 
L 154.26946 127.719768 
L 155.656534 126.934335 
L 157.043608 128.353286 
L 158.430682 127.300081 
L 159.817756 122.966734 
L 161.20483 118.679557 
L 162.591903 118.66866 
L 163.978977 124.062214 
L 165.366051 131.390929 
L 166.753125 135.425368 
L 168.140199 133.834609 
L 169.527273 129.005186 
L 170.914347 125.420614 
L 172.30142 125.326703 
L 173.688494 126.895666 
L 175.075568 126.794406 
L 176.462642 124.465562 
L 177.849716 123.216225 
L 179.23679 126.649208 
L 180.623864 134.312196 
L 182.010937 140.985078 
L 183.398011 140.505394 
L 184.785085 131.208988 
L 186.172159 118.102689 
L 187.559233 109.213095 
L 188.946307 109.221974 
L 190.333381 116.313633 
L 191.720455 124.752182 
L 193.107528 130.382559 
L 194.494602 133.94363 
L 195.881676 139.038747 
L 197.26875 146.772504 
L 198.655824 153.095979 
L 200.042898 152.236888 
L 201.429972 142.702574 
L 202.817045 129.857289 
L 204.204119 122.493417 
L 205.591193 125.631788 
L 206.978267 135.702409 
L 208.365341 143.577162 
L 209.752415 143.284628 
L 211.139489 137.530445 
L 212.526563 134.531358 
L 213.913636 140.262268 
L 215.30071 153.177556 
L 216.687784 164.686736 
L 218.074858 165.675035 
L 219.461932 154.336302 
L 220.849006 137.717501 
L 222.23608 125.624726 
L 223.623153 123.458102 
L 225.010227 129.67861 
L 226.397301 138.080508 
L 227.784375 142.772166 
L 229.171449 142.42962 
L 230.558523 139.886166 
L 231.945597 138.194659 
L 233.33267 138.15185 
L 234.719744 138.882188 
L 236.106818 139.373836 
L 237.493892 139.549753 
L 238.880966 140.192701 
L 240.26804 141.872388 
L 241.655114 144.623631 
L 243.042188 148.190716 
L 244.429261 151.412887 
L 245.816335 152.545129 
L 247.203409 151.218794 
L 248.590483 149.419591 
L 249.977557 150.369216 
L 251.364631 156.778188 
L 252.751705 169.086313 
L 254.138778 183.925198 
L 255.525852 195.173326 
L 256.912926 198.249303 
L 258.3 194.160228 
L 259.687074 189.133143 
L 261.074148 189.883274 
L 262.461222 198.573141 
L 263.848295 211.366861 
L 265.235369 221.719491 
L 266.622443 225.986627 
L 268.009517 226.36047 
L 269.396591 228.17686 
L 270.783665 234.350834 
L 272.170739 242.341137 
L 273.557813 246.24 
L 274.944886 241.923719 
L 276.33196 230.502893 
L 277.719034 216.90956 
L 279.106108 205.362 
L 280.493182 196.391822 
L 281.880256 187.952411 
L 283.26733 178.717429 
L 284.654403 169.500873 
L 286.041477 161.481732 
L 287.428551 154.576813 
L 288.815625 147.865284 
L 290.202699 140.493603 
L 291.589773 133.167027 
L 292.976847 128.972142 
L 294.36392 130.38447 
L 295.750994 135.763168 
L 297.138068 140.149976 
L 298.525142 139.376685 
L 299.912216 133.27447 
L 301.29929 125.469603 
L 302.686364 120.293693 
L 304.073438 119.418003 
L 305.460511 120.400471 
L 306.847585 119.092253 
L 308.234659 114.386789 
L 309.621733 109.258729 
L 311.008807 107.271009 
L 312.395881 109.096919 
L 313.782955 112.380827 
L 315.170028 113.927966 
L 316.557102 112.526286 
L 317.944176 110.384235 
L 319.33125 110.73228 
L 320.718324 114.593888 
L 322.105398 120.734098 
L 323.492472 127.158139 
L 324.879545 132.083023 
L 326.266619 135.014969 
L 327.653693 136.658336 
L 329.040767 136.857566 
L 330.427841 134.148989 
L 331.814915 128.026553 
L 333.201989 119.819177 
L 334.589063 111.951485 
L 335.976136 107.376537 
L 337.36321 108.061987 
L 338.750284 113.075778 
L 340.137358 119.078644 
L 341.524432 122.787298 
L 342.911506 122.462545 
L 344.29858 118.770202 
L 345.685653 114.84333 
L 347.072727 114.173902 
L 348.459801 117.574795 
L 349.846875 122.531008 
L 351.233949 125.432085 
L 352.621023 124.042997 
L 354.008097 119.017028 
L 355.39517 113.841838 
L 356.782244 112.530803 
L 358.169318 116.423676 
L 359.556392 123.330473 
L 360.943466 129.779545 
L 362.33054 133.757712 
L 363.717614 135.71992 
L 365.104688 137.424718 
L 366.491761 139.700475 
L 367.878835 141.169335 
L 369.265909 139.438428 
L 370.652983 133.832837 
L 372.040057 126.698041 
L 373.427131 121.759067 
L 374.814205 121.675446 
L 376.201278 126.625744 
L 377.588352 133.921 
L 378.975426 139.434933 
L 380.3625 141.027295 
L 381.749574 140.491667 
L 383.136648 141.432419 
L 384.523722 145.175249 
L 385.910795 149.997569 
L 387.297869 153.393341 
L 388.684943 154.667273 
L 390.072017 156.023187 
L 391.459091 160.703703 
L 392.846165 169.828223 
L 394.233239 181.141719 
L 395.620313 190.388091 
L 397.007386 194.125995 
L 398.39446 192.309321 
L 399.781534 188.28164 
L 401.168608 185.702448 
L 402.555682 185.195578 
L 403.942756 183.940324 
L 405.32983 178.842125 
L 406.716903 170.532406 
L 408.103977 163.95327 
L 409.491051 164.399252 
L 410.878125 172.733752 
L 412.265199 184.151073 
L 413.652273 191.381416 
L 415.039347 189.934934 
L 416.42642 181.554706 
L 417.813494 172.882601 
L 419.200568 169.965018 
L 420.587642 173.416725 
L 421.974716 178.806486 
L 423.36179 181.342593 
L 424.748864 180.132032 
L 426.135938 178.427345 
L 427.523011 180.147248 
L 428.910085 186.112099 
L 430.297159 193.205568 
L 431.684233 197.085849 
L 433.071307 196.147462 
L 434.458381 192.973884 
L 435.845455 191.669333 
L 435.845455 138.808726 
L 435.845455 138.808726 
L 434.458381 138.800121 
L 433.071307 140.556448 
L 431.684233 141.144475 
L 430.297159 138.307128 
L 428.910085 132.599585 
L 427.523011 127.007177 
L 426.135938 124.157048 
L 424.748864 123.770038 
L 423.36179 123.201126 
L 421.974716 120.5929 
L 420.587642 117.275204 
L 419.200568 116.860252 
L 417.813494 121.743556 
L 416.42642 130.291838 
L 415.039347 137.218439 
L 413.652273 137.063324 
L 412.265199 128.646163 
L 410.878125 116.785187 
L 409.491051 109.072711 
L 408.103977 110.134757 
L 406.716903 118.529275 
L 405.32983 128.678754 
L 403.942756 135.431614 
L 402.555682 137.438233 
L 401.168608 137.249556 
L 399.781534 138.352503 
L 398.39446 141.677087 
L 397.007386 144.741316 
L 395.620313 144.039474 
L 394.233239 138.393465 
L 392.846165 130.306291 
L 391.459091 123.885894 
L 390.072017 121.326299 
L 388.684943 121.72922 
L 387.297869 122.836497 
L 385.910795 123.199252 
L 384.523722 123.054639 
L 383.136648 123.370816 
L 381.749574 123.967229 
L 380.3625 123.392715 
L 378.975426 120.317611 
L 377.588352 114.305612 
L 376.201278 106.768377 
L 374.814205 101.142014 
L 373.427131 100.849681 
L 372.040057 106.039338 
L 370.652983 113.179513 
L 369.265909 118.268942 
L 367.878835 119.74259 
L 366.491761 118.545188 
L 365.104688 116.477969 
L 363.717614 114.372316 
L 362.33054 111.405193 
L 360.943466 106.238522 
L 359.556392 99.02528 
L 358.169318 92.103726 
L 356.782244 88.433525 
L 355.39517 89.33222 
L 354.008097 93.572133 
L 352.621023 98.013372 
L 351.233949 99.445061 
L 349.846875 96.917599 
L 348.459801 92.450993 
L 347.072727 89.111919 
L 345.685653 88.625202 
L 344.29858 90.801187 
L 342.911506 93.802956 
L 341.524432 94.801998 
L 340.137358 91.826707 
L 338.750284 85.665912 
L 337.36321 79.451553 
L 335.976136 76.502305 
L 334.589063 78.888747 
L 333.201989 86.164406 
L 331.814915 95.014194 
L 330.427841 101.593965 
L 329.040767 104.342412 
L 327.653693 103.720555 
L 326.266619 100.691207 
L 324.879545 96.276693 
L 323.492472 90.82554 
L 322.105398 84.21678 
L 320.718324 77.786198 
L 319.33125 74.288453 
L 317.944176 74.942207 
L 316.557102 77.936213 
L 315.170028 79.911404 
L 313.782955 78.227348 
L 312.395881 73.181938 
L 311.008807 68.52192 
L 309.621733 68.153635 
L 308.234659 72.607522 
L 306.847585 79.149246 
L 305.460511 84.481467 
L 304.073438 87.373385 
L 302.686364 89.587104 
L 301.29929 94.178548 
L 299.912216 101.475346 
L 298.525142 107.839672 
L 297.138068 109.356992 
L 295.750994 105.997913 
L 294.36392 101.855477 
L 292.976847 101.532315 
L 291.589773 106.656613 
L 290.202699 115.257306 
L 288.815625 123.619759 
L 287.428551 129.543597 
L 286.041477 134.248681 
L 284.654403 139.695189 
L 283.26733 145.49102 
L 281.880256 150.139421 
L 280.493182 153.728234 
L 279.106108 158.263897 
L 277.719034 165.575497 
L 276.33196 174.686468 
L 274.944886 181.427813 
L 273.557813 181.389328 
L 272.170739 173.898836 
L 270.783665 163.29175 
L 269.396591 155.728821 
L 268.009517 153.972311 
L 266.622443 155.087526 
L 265.235369 153.470898 
L 263.848295 146.368606 
L 262.461222 136.877137 
L 261.074148 131.643947 
L 259.687074 134.911378 
L 258.3 144.322349 
L 256.912926 152.661291 
L 255.525852 153.665848 
L 254.138778 146.430047 
L 252.751705 135.32398 
L 251.364631 126.402394 
L 249.977557 123.209774 
L 248.590483 124.883824 
L 247.203409 127.88239 
L 245.816335 129.540982 
L 244.429261 129.385134 
L 243.042188 127.793311 
L 241.655114 125.220388 
L 240.26804 122.660296 
L 238.880966 121.085847 
L 237.493892 120.319649 
L 236.106818 119.458356 
L 234.719744 117.903917 
L 233.33267 116.040539 
L 231.945597 115.276825 
L 230.558523 116.537695 
L 229.171449 118.51219 
L 227.784375 118.171969 
L 226.397301 113.208769 
L 225.010227 104.541661 
L 223.623153 97.320689 
L 222.23608 98.180387 
L 220.849006 109.177066 
L 219.461932 124.563327 
L 218.074858 134.623122 
L 216.687784 132.985306 
L 215.30071 121.310471 
L 213.913636 108.15804 
L 212.526563 102.256007 
L 211.139489 104.908068 
L 209.752415 109.207868 
L 208.365341 107.467741 
L 206.978267 98.640504 
L 205.591193 89.008656 
L 204.204119 86.799768 
L 202.817045 95.283267 
L 201.429972 109.643044 
L 200.042898 120.65932 
L 198.655824 122.389299 
L 197.26875 116.387204 
L 195.881676 108.614301 
L 194.494602 103.156254 
L 193.107528 99.127877 
L 191.720455 93.082117 
L 190.333381 84.206557 
L 188.946307 76.837324 
L 187.559233 77.057457 
L 186.172159 86.515412 
L 184.785085 99.931761 
L 183.398011 108.918272 
L 182.010937 108.559369 
L 180.623864 100.979209 
L 179.23679 92.843173 
L 177.849716 89.201204 
L 176.462642 89.703424 
L 175.075568 90.57751 
L 173.688494 89.389915 
L 172.30142 87.412696 
L 170.914347 87.835012 
L 169.527273 91.934075 
L 168.140199 97.048431 
L 166.753125 98.625962 
L 165.366051 94.54388 
L 163.978977 87.342088 
L 162.591903 82.164085 
L 161.20483 82.321196 
L 159.817756 86.359566 
L 158.430682 89.529394 
L 157.043608 88.712035 
L 155.656534 85.810163 
L 154.26946 86.166973 
L 152.882386 93.83028 
L 151.495312 107.755318 
L 150.108239 121.799387 
L 148.721165 128.564137 
L 147.334091 124.335559 
L 145.947017 111.39904 
L 144.559943 96.227686 
L 143.172869 85.397359 
L 141.785795 82.208938 
L 140.398722 85.599185 
L 139.011648 91.557487 
L 137.624574 96.132596 
L 136.2375 97.799112 
L 134.850426 97.671079 
L 133.463352 98.078646 
L 132.076278 100.596731 
L 130.689205 104.529318 
L 129.302131 107.489072 
L 127.915057 107.799971 
L 126.527983 105.871615 
L 125.140909 103.760061 
L 123.753835 104.072899 
L 122.366761 108.225169 
L 120.979687 114.944244 
L 119.592614 121.380236 
L 118.20554 125.941412 
L 116.818466 129.442756 
L 115.431392 133.457574 
L 114.044318 138.098579 
L 112.657244 141.582274 
L 111.27017 142.18399 
L 109.883097 140.529206 
L 108.496023 139.563453 
L 107.108949 142.170212 
L 105.721875 148.336175 
L 104.334801 153.842202 
L 102.947727 152.997826 
L 101.560653 144.073402 
L 100.17358 132.170004 
L 98.786506 125.727082 
L 97.399432 129.315817 
L 96.012358 140.163181 
L 94.625284 150.810888 
L 93.23821 154.263796 
L 91.851136 148.820381 
L 90.464062 139.303001 
L 89.076989 132.944092 
L 87.689915 133.329352 
L 86.302841 138.306011 
L 84.915767 142.872873 
L 83.528693 143.362914 
L 82.141619 139.878387 
L 80.754545 135.68713 
z
" clip-path="url(#p6eaeb54524)" style="fill: #1f77b4; fill-opacity: 0.2"/>
   </g>
   <g id="PolyCollection_2">
    <path d="M 80.754545 182.782532 
L 80.754545 228.525149 
L 82.141619 227.706937 
L 83.528693 219.486643 
L 84.915767 205.146144 
L 86.302841 191.455609 
L 87.689915 186.374232 
L 89.076989 192.842368 
L 90.464062 206.105229 
L 91.851136 216.51821 
L 93.23821 215.892513 
L 94.625284 203.553499 
L 96.012358 186.890518 
L 97.399432 174.653726 
L 98.786506 169.740566 
L 100.17358 168.245592 
L 101.560653 164.367257 
L 102.947727 156.51032 
L 104.334801 149.393879 
L 105.721875 149.832314 
L 107.108949 159.577881 
L 108.496023 172.570123 
L 109.883097 179.78713 
L 111.27017 177.240473 
L 112.657244 169.497505 
L 114.044318 165.317793 
L 115.431392 169.587842 
L 116.818466 178.831042 
L 118.20554 184.219032 
L 119.592614 179.489237 
L 120.979687 166.593804 
L 122.366761 154.06413 
L 123.753835 149.741797 
L 125.140909 154.365935 
L 126.527983 161.863575 
L 127.915057 165.779204 
L 129.302131 164.728454 
L 130.689205 161.82008 
L 132.076278 160.368957 
L 133.463352 160.388365 
L 134.850426 158.776656 
L 136.2375 152.733703 
L 137.624574 143.306734 
L 139.011648 135.761093 
L 140.398722 135.015231 
L 141.785795 140.4347 
L 143.172869 146.465829 
L 144.559943 148.069187 
L 145.947017 144.823911 
L 147.334091 140.545778 
L 148.721165 139.816826 
L 150.108239 144.014486 
L 151.495312 150.048105 
L 152.882386 153.130781 
L 154.26946 150.899417 
L 155.656534 145.439806 
L 157.043608 141.567536 
L 158.430682 142.214101 
L 159.817756 145.327342 
L 161.20483 146.356654 
L 162.591903 142.940855 
L 163.978977 135.652129 
L 165.366051 127.236025 
L 166.753125 122.42879 
L 168.140199 125.497957 
L 169.527273 135.924082 
L 170.914347 146.988145 
L 172.30142 152.629439 
L 173.688494 151.537735 
L 175.075568 144.968249 
L 176.462642 135.355636 
L 177.849716 125.96058 
L 179.23679 119.268105 
L 180.623864 116.421484 
L 182.010937 117.819265 
L 183.398011 122.65405 
L 184.785085 128.853472 
L 186.172159 134.541702 
L 187.559233 138.914593 
L 188.946307 141.580893 
L 190.333381 141.827408 
L 191.720455 139.256691 
L 193.107528 134.404347 
L 194.494602 128.558084 
L 195.881676 123.687719 
L 197.26875 122.500441 
L 198.655824 126.968669 
L 200.042898 135.61491 
L 201.429972 143.585077 
L 202.817045 145.984272 
L 204.204119 141.321209 
L 205.591193 132.996046 
L 206.978267 126.931545 
L 208.365341 126.946813 
L 209.752415 132.88448 
L 211.139489 141.057047 
L 212.526563 146.010359 
L 213.913636 144.334458 
L 215.30071 137.249641 
L 216.687784 128.755324 
L 218.074858 122.894668 
L 219.461932 122.138164 
L 220.849006 125.533051 
L 222.23608 128.839091 
L 223.623153 127.987292 
L 225.010227 122.00841 
L 226.397301 112.826475 
L 227.784375 104.235615 
L 229.171449 100.027725 
L 230.558523 100.993116 
L 231.945597 103.614954 
L 233.33267 103.099 
L 234.719744 98.003605 
L 236.106818 91.477546 
L 237.493892 88.824857 
L 238.880966 93.716466 
L 240.26804 105.333666 
L 241.655114 118.541255 
L 243.042188 127.555934 
L 244.429261 130.232654 
L 245.816335 129.090712 
L 247.203409 128.47863 
L 248.590483 130.843266 
L 249.977557 135.581619 
L 251.364631 140.611515 
L 252.751705 144.160036 
L 254.138778 145.914826 
L 255.525852 147.197911 
L 256.912926 149.280323 
L 258.3 151.666797 
L 259.687074 153.042527 
L 261.074148 152.985167 
L 262.461222 151.562849 
L 263.848295 148.501913 
L 265.235369 143.580085 
L 266.622443 137.119642 
L 268.009517 130.368929 
L 269.396591 125.714311 
L 270.783665 125.258613 
L 272.170739 128.670783 
L 273.557813 133.399246 
L 274.944886 137.004778 
L 276.33196 138.856293 
L 277.719034 140.037287 
L 279.106108 141.799056 
L 280.493182 143.700884 
L 281.880256 143.710569 
L 283.26733 140.972878 
L 284.654403 138.11214 
L 286.041477 139.760446 
L 287.428551 148.248064 
L 288.815625 160.774644 
L 290.202699 170.652215 
L 291.589773 171.863211 
L 292.976847 164.087439 
L 294.36392 153.561748 
L 295.750994 147.693865 
L 297.138068 148.46521 
L 298.525142 151.701338 
L 299.912216 151.937381 
L 301.29929 147.918893 
L 302.686364 144.0214 
L 304.073438 145.782103 
L 305.460511 153.777102 
L 306.847585 162.615688 
L 308.234659 165.773213 
L 309.621733 161.363634 
L 311.008807 154.02687 
L 312.395881 151.231401 
L 313.782955 156.755916 
L 315.170028 166.837451 
L 316.557102 173.260306 
L 317.944176 171.205425 
L 319.33125 163.29626 
L 320.718324 156.603651 
L 322.105398 156.839783 
L 323.492472 163.430941 
L 324.879545 169.470577 
L 326.266619 168.60002 
L 327.653693 160.955402 
L 329.040767 151.610487 
L 330.427841 145.411513 
L 331.814915 144.621764 
L 333.201989 148.590384 
L 334.589063 154.544023 
L 335.976136 159.933626 
L 337.36321 163.415927 
L 338.750284 163.774208 
L 340.137358 160.226355 
L 341.524432 153.671078 
L 342.911506 146.59335 
L 344.29858 141.928192 
L 345.685653 141.691978 
L 347.072727 145.909437 
L 348.459801 151.916432 
L 349.846875 156.267716 
L 351.233949 158.056026 
L 352.621023 158.537807 
L 354.008097 158.515668 
L 355.39517 157.204817 
L 356.782244 154.157992 
L 358.169318 150.814331 
L 359.556392 149.580561 
L 360.943466 152.435076 
L 362.33054 159.320729 
L 363.717614 167.420721 
L 365.104688 173.369902 
L 366.491761 176.533163 
L 367.878835 178.595351 
L 369.265909 181.02353 
L 370.652983 183.713077 
L 372.040057 185.467635 
L 373.427131 186.08957 
L 374.814205 188.099674 
L 376.201278 194.551372 
L 377.588352 204.729252 
L 378.975426 213.359298 
L 380.3625 214.562047 
L 381.749574 207.070297 
L 383.136648 196.343296 
L 384.523722 190.848135 
L 385.910795 194.859414 
L 387.297869 204.578836 
L 388.684943 211.271269 
L 390.072017 208.410693 
L 391.459091 196.814853 
L 392.846165 183.258053 
L 394.233239 174.038956 
L 395.620313 170.27197 
L 397.007386 168.813273 
L 398.39446 166.107944 
L 399.781534 160.926759 
L 401.168608 154.204096 
L 402.555682 146.478422 
L 403.942756 136.784191 
L 405.32983 124.935257 
L 406.716903 113.768879 
L 408.103977 108.267706 
L 409.491051 112.129989 
L 410.878125 123.918849 
L 412.265199 136.230793 
L 413.652273 140.192745 
L 415.039347 132.710989 
L 416.42642 119.350443 
L 417.813494 109.40988 
L 419.200568 108.155516 
L 420.587642 113.670807 
L 421.974716 119.524912 
L 423.36179 120.079652 
L 424.748864 115.250643 
L 426.135938 110.233747 
L 427.523011 109.93242 
L 428.910085 114.562826 
L 430.297159 120.404758 
L 431.684233 123.312937 
L 433.071307 122.134632 
L 434.458381 119.865453 
L 435.845455 120.690173 
L 435.845455 82.66592 
L 435.845455 82.66592 
L 434.458381 80.354431 
L 433.071307 82.035101 
L 431.684233 83.754075 
L 430.297159 81.441567 
L 428.910085 75.057071 
L 427.523011 69.228307 
L 426.135938 68.627914 
L 424.748864 73.171762 
L 423.36179 78.215875 
L 421.974716 78.607444 
L 420.587642 73.278942 
L 419.200568 67.268316 
L 417.813494 67.894586 
L 416.42642 77.56229 
L 415.039347 91.184891 
L 413.652273 100.342952 
L 412.265199 99.611839 
L 410.878125 90.522437 
L 409.491051 80.606764 
L 408.103977 77.781543 
L 406.716903 84.239715 
L 405.32983 95.692832 
L 403.942756 106.46314 
L 402.555682 114.465407 
L 401.168608 120.873812 
L 399.781534 126.630939 
L 398.39446 130.566916 
L 397.007386 130.801647 
L 395.620313 128.065867 
L 394.233239 126.849491 
L 392.846165 131.5062 
L 391.459091 141.34421 
L 390.072017 150.281684 
L 388.684943 151.506357 
L 387.297869 143.399054 
L 385.910795 131.731342 
L 384.523722 125.303481 
L 383.136648 128.472248 
L 381.749574 137.654917 
L 380.3625 144.689825 
L 378.975426 143.891771 
L 377.588352 136.697026 
L 376.201278 129.520479 
L 374.814205 127.340309 
L 373.427131 129.957744 
L 372.040057 133.64689 
L 370.652983 135.238701 
L 369.265909 135.031276 
L 367.878835 135.783961 
L 366.491761 138.464135 
L 365.104688 140.415327 
L 363.717614 138.381218 
L 362.33054 132.11169 
L 360.943466 124.971093 
L 359.556392 121.717568 
L 358.169318 124.167356 
L 356.782244 129.308489 
L 355.39517 132.6671 
L 354.008097 132.668803 
L 352.621023 130.700481 
L 351.233949 128.778727 
L 349.846875 127.67589 
L 348.459801 126.342924 
L 347.072727 123.247661 
L 345.685653 118.537663 
L 344.29858 115.275795 
L 342.911506 116.522505 
L 341.524432 121.858544 
L 340.137358 128.119186 
L 338.750284 132.301174 
L 337.36321 133.107326 
L 335.976136 130.392952 
L 334.589063 124.891701 
L 333.201989 118.412818 
L 331.814915 113.503144 
L 330.427841 113.166872 
L 329.040767 118.989643 
L 327.653693 128.181455 
L 326.266619 134.900287 
L 324.879545 135.560334 
L 323.492472 131.398002 
L 322.105398 127.05305 
L 320.718324 127.502895 
L 319.33125 134.076091 
L 317.944176 141.794316 
L 316.557102 143.326221 
L 315.170028 136.080098 
L 313.782955 124.343861 
L 312.395881 115.645339 
L 311.008807 114.851348 
L 309.621733 119.952187 
L 308.234659 123.938952 
L 306.847585 121.54106 
L 305.460511 113.989079 
L 304.073438 107.089219 
L 302.686364 105.135356 
L 301.29929 107.369894 
L 299.912216 109.748215 
L 298.525142 109.375751 
L 297.138068 107.665015 
L 295.750994 108.927189 
L 294.36392 115.447136 
L 292.976847 124.565391 
L 291.589773 130.474055 
L 290.202699 128.328764 
L 288.815625 118.077119 
L 287.428551 104.985013 
L 286.041477 95.565502 
L 284.654403 92.588323 
L 283.26733 94.156114 
L 281.880256 96.612718 
L 280.493182 97.574969 
L 279.106108 96.870678 
L 277.719034 95.466653 
L 276.33196 93.744632 
L 274.944886 90.846096 
L 273.557813 86.065008 
L 272.170739 80.57942 
L 270.783665 76.942482 
L 269.396591 76.993054 
L 268.009517 80.756291 
L 266.622443 86.707885 
L 265.235369 92.685001 
L 263.848295 97.354506 
L 262.461222 100.739793 
L 261.074148 102.959573 
L 259.687074 103.569068 
L 258.3 102.574962 
L 256.912926 100.759875 
L 255.525852 98.929079 
L 254.138778 97.621329 
L 252.751705 96.634239 
L 251.364631 94.583223 
L 249.977557 90.4451 
L 248.590483 85.559514 
L 247.203409 82.614561 
L 245.816335 82.58448 
L 244.429261 83.343206 
L 243.042188 81.04822 
L 241.655114 73.165111 
L 240.26804 61.000805 
L 238.880966 49.60268 
L 237.493892 44.64 
L 236.106818 48.145742 
L 234.719744 56.731845 
L 233.33267 64.385042 
L 231.945597 67.338291 
L 230.558523 66.397412 
L 229.171449 65.546786 
L 227.784375 69.059686 
L 226.397301 78.214443 
L 225.010227 89.564701 
L 223.623153 97.312519 
L 222.23608 98.334664 
L 220.849006 94.636977 
L 219.461932 91.018122 
L 218.074858 91.938028 
L 216.687784 99.072976 
L 215.30071 109.521745 
L 213.913636 117.270394 
L 212.526563 118.102286 
L 211.139489 112.409709 
L 209.752415 104.141502 
L 208.365341 98.682721 
L 206.978267 99.499327 
L 205.591193 105.210198 
L 204.204119 111.113179 
L 202.817045 113.307366 
L 201.429972 110.582204 
L 200.042898 104.534606 
L 198.655824 98.235223 
L 197.26875 94.205663 
L 195.881676 93.761392 
L 194.494602 96.822972 
L 193.107528 101.739205 
L 191.720455 106.517815 
L 190.333381 109.950405 
L 188.946307 111.214656 
L 187.559233 109.309956 
L 186.172159 103.976851 
L 184.785085 96.816947 
L 183.398011 90.326769 
L 182.010937 86.176612 
L 180.623864 84.961541 
L 179.23679 87.168596 
L 177.849716 93.062726 
L 176.462642 101.912667 
L 175.075568 111.965592 
L 173.688494 120.041419 
L 172.30142 122.098713 
L 170.914347 116.707928 
L 169.527273 106.680268 
L 168.140199 96.121653 
L 166.753125 89.275029 
L 165.366051 90.565614 
L 163.978977 99.726932 
L 162.591903 110.46007 
L 161.20483 115.727729 
L 159.817756 114.417701 
L 158.430682 111.112625 
L 157.043608 110.48329 
L 155.656534 113.894223 
L 154.26946 118.920232 
L 152.882386 121.084695 
L 151.495312 117.798795 
L 150.108239 111.293007 
L 148.721165 106.946892 
L 147.334091 108.372428 
L 145.947017 113.937307 
L 144.559943 118.023224 
L 143.172869 116.433973 
L 141.785795 110.696901 
L 140.398722 106.483041 
L 139.011648 108.326658 
L 137.624574 116.029352 
L 136.2375 125.052613 
L 134.850426 130.082795 
L 133.463352 129.835014 
L 132.076278 128.354707 
L 130.689205 130.304861 
L 129.302131 135.434471 
L 127.915057 138.574715 
L 126.527983 135.443855 
L 125.140909 127.937787 
L 123.753835 123.036507 
L 122.366761 126.783862 
L 120.979687 138.611311 
L 119.592614 150.904149 
L 118.20554 155.081504 
L 116.818466 149.162233 
L 115.431392 139.538206 
L 114.044318 135.055466 
L 112.657244 138.816014 
L 111.27017 145.399789 
L 109.883097 146.263001 
L 108.496023 137.976124 
L 107.108949 125.420343 
L 105.721875 117.327211 
L 104.334801 118.540816 
L 102.947727 126.165909 
L 101.560653 132.882425 
L 100.17358 134.250109 
L 98.786506 133.262823 
L 97.399432 137.221799 
L 96.012358 149.739777 
L 94.625284 166.191377 
L 93.23821 177.096399 
L 91.851136 175.513253 
L 90.464062 162.524444 
L 89.076989 147.203933 
L 87.689915 140.101155 
L 86.302841 145.516291 
L 84.915767 159.488382 
L 83.528693 173.945864 
L 82.141619 182.300853 
L 80.754545 182.782532 
z
" clip-path="url(#p6eaeb54524)" style="fill: #ff7f0e; fill-opacity: 0.2"/>
   </g>
   <g id="matplotlib.axis_1">
    <g id="xtick_1">
     <g id="line2d_1">
      <defs>
       <path id="m34ff685aea" d="M 0 0 
L 0 3.5 
" style="stroke: #000000; stroke-width: 0.8"/>
      </defs>
      <g>
       <use xlink:href="#m34ff685aea" x="116.541051" y="256.32" style="stroke: #000000; stroke-width: 0.8"/>
      </g>
     </g>
     <g id="text_1">
      <!-- −0.2 -->
      <g transform="translate(97.114801 275.4775)scale(0.16 -0.16)">
       <defs>
        <path id="DejaVuSans-2212" d="M 678 2272 
L 4684 2272 
L 4684 1741 
L 678 1741 
L 678 2272 
z
" transform="scale(0.015625)"/>
        <path id="DejaVuSans-30" d="M 2034 4250 
Q 1547 4250 1301 3770 
Q 1056 3291 1056 2328 
Q 1056 1369 1301 889 
Q 1547 409 2034 409 
Q 2525 409 2770 889 
Q 3016 1369 3016 2328 
Q 3016 3291 2770 3770 
Q 2525 4250 2034 4250 
z
M 2034 4750 
Q 2819 4750 3233 4129 
Q 3647 3509 3647 2328 
Q 3647 1150 3233 529 
Q 2819 -91 2034 -91 
Q 1250 -91 836 529 
Q 422 1150 422 2328 
Q 422 3509 836 4129 
Q 1250 4750 2034 4750 
z
" transform="scale(0.015625)"/>
        <path id="DejaVuSans-2e" d="M 684 794 
L 1344 794 
L 1344 0 
L 684 0 
L 684 794 
z
" transform="scale(0.015625)"/>
        <path id="DejaVuSans-32" d="M 1228 531 
L 3431 531 
L 3431 0 
L 469 0 
L 469 531 
Q 828 903 1448 1529 
Q 2069 2156 2228 2338 
Q 2531 2678 2651 2914 
Q 2772 3150 2772 3378 
Q 2772 3750 2511 3984 
Q 2250 4219 1831 4219 
Q 1534 4219 1204 4116 
Q 875 4013 500 3803 
L 500 4441 
Q 881 4594 1212 4672 
Q 1544 4750 1819 4750 
Q 2544 4750 2975 4387 
Q 3406 4025 3406 3419 
Q 3406 3131 3298 2873 
Q 3191 2616 2906 2266 
Q 2828 2175 2409 1742 
Q 1991 1309 1228 531 
z
" transform="scale(0.015625)"/>
       </defs>
       <use xlink:href="#DejaVuSans-2212"/>
       <use xlink:href="#DejaVuSans-30" x="83.789062"/>
       <use xlink:href="#DejaVuSans-2e" x="147.412109"/>
       <use xlink:href="#DejaVuSans-32" x="179.199219"/>
      </g>
     </g>
    </g>
    <g id="xtick_2">
     <g id="line2d_2">
      <g>
       <use xlink:href="#m34ff685aea" x="187.559233" y="256.32" style="stroke: #000000; stroke-width: 0.8"/>
      </g>
     </g>
     <g id="text_2">
      <!-- 0.0 -->
      <g transform="translate(174.836733 275.4775)scale(0.16 -0.16)">
       <use xlink:href="#DejaVuSans-30"/>
       <use xlink:href="#DejaVuSans-2e" x="63.623047"/>
       <use xlink:href="#DejaVuSans-30" x="95.410156"/>
      </g>
     </g>
    </g>
    <g id="xtick_3">
     <g id="line2d_3">
      <g>
       <use xlink:href="#m34ff685aea" x="258.577415" y="256.32" style="stroke: #000000; stroke-width: 0.8"/>
      </g>
     </g>
     <g id="text_3">
      <!-- 0.2 -->
      <g transform="translate(245.854915 275.4775)scale(0.16 -0.16)">
       <use xlink:href="#DejaVuSans-30"/>
       <use xlink:href="#DejaVuSans-2e" x="63.623047"/>
       <use xlink:href="#DejaVuSans-32" x="95.410156"/>
      </g>
     </g>
    </g>
    <g id="xtick_4">
     <g id="line2d_4">
      <g>
       <use xlink:href="#m34ff685aea" x="329.595597" y="256.32" style="stroke: #000000; stroke-width: 0.8"/>
      </g>
     </g>
     <g id="text_4">
      <!-- 0.4 -->
      <g transform="translate(316.873097 275.4775)scale(0.16 -0.16)">
       <defs>
        <path id="DejaVuSans-34" d="M 2419 4116 
L 825 1625 
L 2419 1625 
L 2419 4116 
z
M 2253 4666 
L 3047 4666 
L 3047 1625 
L 3713 1625 
L 3713 1100 
L 3047 1100 
L 3047 0 
L 2419 0 
L 2419 1100 
L 313 1100 
L 313 1709 
L 2253 4666 
z
" transform="scale(0.015625)"/>
       </defs>
       <use xlink:href="#DejaVuSans-30"/>
       <use xlink:href="#DejaVuSans-2e" x="63.623047"/>
       <use xlink:href="#DejaVuSans-34" x="95.410156"/>
      </g>
     </g>
    </g>
    <g id="xtick_5">
     <g id="line2d_5">
      <g>
       <use xlink:href="#m34ff685aea" x="400.613778" y="256.32" style="stroke: #000000; stroke-width: 0.8"/>
      </g>
     </g>
     <g id="text_5">
      <!-- 0.6 -->
      <g transform="translate(387.891278 275.4775)scale(0.16 -0.16)">
       <defs>
        <path id="DejaVuSans-36" d="M 2113 2584 
Q 1688 2584 1439 2293 
Q 1191 2003 1191 1497 
Q 1191 994 1439 701 
Q 1688 409 2113 409 
Q 2538 409 2786 701 
Q 3034 994 3034 1497 
Q 3034 2003 2786 2293 
Q 2538 2584 2113 2584 
z
M 3366 4563 
L 3366 3988 
Q 3128 4100 2886 4159 
Q 2644 4219 2406 4219 
Q 1781 4219 1451 3797 
Q 1122 3375 1075 2522 
Q 1259 2794 1537 2939 
Q 1816 3084 2150 3084 
Q 2853 3084 3261 2657 
Q 3669 2231 3669 1497 
Q 3669 778 3244 343 
Q 2819 -91 2113 -91 
Q 1303 -91 875 529 
Q 447 1150 447 2328 
Q 447 3434 972 4092 
Q 1497 4750 2381 4750 
Q 2619 4750 2861 4703 
Q 3103 4656 3366 4563 
z
" transform="scale(0.015625)"/>
       </defs>
       <use xlink:href="#DejaVuSans-30"/>
       <use xlink:href="#DejaVuSans-2e" x="63.623047"/>
       <use xlink:href="#DejaVuSans-36" x="95.410156"/>
      </g>
     </g>
    </g>
    <g id="text_6">
     <!-- Time from event (s) -->
     <g transform="translate(169.41375 296.482188)scale(0.18 -0.18)">
      <defs>
       <path id="DejaVuSans-54" d="M -19 4666 
L 3928 4666 
L 3928 4134 
L 2272 4134 
L 2272 0 
L 1638 0 
L 1638 4134 
L -19 4134 
L -19 4666 
z
" transform="scale(0.015625)"/>
       <path id="DejaVuSans-69" d="M 603 3500 
L 1178 3500 
L 1178 0 
L 603 0 
L 603 3500 
z
M 603 4863 
L 1178 4863 
L 1178 4134 
L 603 4134 
L 603 4863 
z
" transform="scale(0.015625)"/>
       <path id="DejaVuSans-6d" d="M 3328 2828 
Q 3544 3216 3844 3400 
Q 4144 3584 4550 3584 
Q 5097 3584 5394 3201 
Q 5691 2819 5691 2113 
L 5691 0 
L 5113 0 
L 5113 2094 
Q 5113 2597 4934 2840 
Q 4756 3084 4391 3084 
Q 3944 3084 3684 2787 
Q 3425 2491 3425 1978 
L 3425 0 
L 2847 0 
L 2847 2094 
Q 2847 2600 2669 2842 
Q 2491 3084 2119 3084 
Q 1678 3084 1418 2786 
Q 1159 2488 1159 1978 
L 1159 0 
L 581 0 
L 581 3500 
L 1159 3500 
L 1159 2956 
Q 1356 3278 1631 3431 
Q 1906 3584 2284 3584 
Q 2666 3584 2933 3390 
Q 3200 3197 3328 2828 
z
" transform="scale(0.015625)"/>
       <path id="DejaVuSans-65" d="M 3597 1894 
L 3597 1613 
L 953 1613 
Q 991 1019 1311 708 
Q 1631 397 2203 397 
Q 2534 397 2845 478 
Q 3156 559 3463 722 
L 3463 178 
Q 3153 47 2828 -22 
Q 2503 -91 2169 -91 
Q 1331 -91 842 396 
Q 353 884 353 1716 
Q 353 2575 817 3079 
Q 1281 3584 2069 3584 
Q 2775 3584 3186 3129 
Q 3597 2675 3597 1894 
z
M 3022 2063 
Q 3016 2534 2758 2815 
Q 2500 3097 2075 3097 
Q 1594 3097 1305 2825 
Q 1016 2553 972 2059 
L 3022 2063 
z
" transform="scale(0.015625)"/>
       <path id="DejaVuSans-20" transform="scale(0.015625)"/>
       <path id="DejaVuSans-66" d="M 2375 4863 
L 2375 4384 
L 1825 4384 
Q 1516 4384 1395 4259 
Q 1275 4134 1275 3809 
L 1275 3500 
L 2222 3500 
L 2222 3053 
L 1275 3053 
L 1275 0 
L 697 0 
L 697 3053 
L 147 3053 
L 147 3500 
L 697 3500 
L 697 3744 
Q 697 4328 969 4595 
Q 1241 4863 1831 4863 
L 2375 4863 
z
" transform="scale(0.015625)"/>
       <path id="DejaVuSans-72" d="M 2631 2963 
Q 2534 3019 2420 3045 
Q 2306 3072 2169 3072 
Q 1681 3072 1420 2755 
Q 1159 2438 1159 1844 
L 1159 0 
L 581 0 
L 581 3500 
L 1159 3500 
L 1159 2956 
Q 1341 3275 1631 3429 
Q 1922 3584 2338 3584 
Q 2397 3584 2469 3576 
Q 2541 3569 2628 3553 
L 2631 2963 
z
" transform="scale(0.015625)"/>
       <path id="DejaVuSans-6f" d="M 1959 3097 
Q 1497 3097 1228 2736 
Q 959 2375 959 1747 
Q 959 1119 1226 758 
Q 1494 397 1959 397 
Q 2419 397 2687 759 
Q 2956 1122 2956 1747 
Q 2956 2369 2687 2733 
Q 2419 3097 1959 3097 
z
M 1959 3584 
Q 2709 3584 3137 3096 
Q 3566 2609 3566 1747 
Q 3566 888 3137 398 
Q 2709 -91 1959 -91 
Q 1206 -91 779 398 
Q 353 888 353 1747 
Q 353 2609 779 3096 
Q 1206 3584 1959 3584 
z
" transform="scale(0.015625)"/>
       <path id="DejaVuSans-76" d="M 191 3500 
L 800 3500 
L 1894 563 
L 2988 3500 
L 3597 3500 
L 2284 0 
L 1503 0 
L 191 3500 
z
" transform="scale(0.015625)"/>
       <path id="DejaVuSans-6e" d="M 3513 2113 
L 3513 0 
L 2938 0 
L 2938 2094 
Q 2938 2591 2744 2837 
Q 2550 3084 2163 3084 
Q 1697 3084 1428 2787 
Q 1159 2491 1159 1978 
L 1159 0 
L 581 0 
L 581 3500 
L 1159 3500 
L 1159 2956 
Q 1366 3272 1645 3428 
Q 1925 3584 2291 3584 
Q 2894 3584 3203 3211 
Q 3513 2838 3513 2113 
z
" transform="scale(0.015625)"/>
       <path id="DejaVuSans-74" d="M 1172 4494 
L 1172 3500 
L 2356 3500 
L 2356 3053 
L 1172 3053 
L 1172 1153 
Q 1172 725 1289 603 
Q 1406 481 1766 481 
L 2356 481 
L 2356 0 
L 1766 0 
Q 1100 0 847 248 
Q 594 497 594 1153 
L 594 3053 
L 172 3053 
L 172 3500 
L 594 3500 
L 594 4494 
L 1172 4494 
z
" transform="scale(0.015625)"/>
       <path id="DejaVuSans-28" d="M 1984 4856 
Q 1566 4138 1362 3434 
Q 1159 2731 1159 2009 
Q 1159 1288 1364 580 
Q 1569 -128 1984 -844 
L 1484 -844 
Q 1016 -109 783 600 
Q 550 1309 550 2009 
Q 550 2706 781 3412 
Q 1013 4119 1484 4856 
L 1984 4856 
z
" transform="scale(0.015625)"/>
       <path id="DejaVuSans-73" d="M 2834 3397 
L 2834 2853 
Q 2591 2978 2328 3040 
Q 2066 3103 1784 3103 
Q 1356 3103 1142 2972 
Q 928 2841 928 2578 
Q 928 2378 1081 2264 
Q 1234 2150 1697 2047 
L 1894 2003 
Q 2506 1872 2764 1633 
Q 3022 1394 3022 966 
Q 3022 478 2636 193 
Q 2250 -91 1575 -91 
Q 1294 -91 989 -36 
Q 684 19 347 128 
L 347 722 
Q 666 556 975 473 
Q 1284 391 1588 391 
Q 1994 391 2212 530 
Q 2431 669 2431 922 
Q 2431 1156 2273 1281 
Q 2116 1406 1581 1522 
L 1381 1569 
Q 847 1681 609 1914 
Q 372 2147 372 2553 
Q 372 3047 722 3315 
Q 1072 3584 1716 3584 
Q 2034 3584 2315 3537 
Q 2597 3491 2834 3397 
z
" transform="scale(0.015625)"/>
       <path id="DejaVuSans-29" d="M 513 4856 
L 1013 4856 
Q 1481 4119 1714 3412 
Q 1947 2706 1947 2009 
Q 1947 1309 1714 600 
Q 1481 -109 1013 -844 
L 513 -844 
Q 928 -128 1133 580 
Q 1338 1288 1338 2009 
Q 1338 2731 1133 3434 
Q 928 4138 513 4856 
z
" transform="scale(0.015625)"/>
      </defs>
      <use xlink:href="#DejaVuSans-54"/>
      <use xlink:href="#DejaVuSans-69" x="57.958984"/>
      <use xlink:href="#DejaVuSans-6d" x="85.742188"/>
      <use xlink:href="#DejaVuSans-65" x="183.154297"/>
      <use xlink:href="#DejaVuSans-20" x="244.677734"/>
      <use xlink:href="#DejaVuSans-66" x="276.464844"/>
      <use xlink:href="#DejaVuSans-72" x="311.669922"/>
      <use xlink:href="#DejaVuSans-6f" x="350.533203"/>
      <use xlink:href="#DejaVuSans-6d" x="411.714844"/>
      <use xlink:href="#DejaVuSans-20" x="509.126953"/>
      <use xlink:href="#DejaVuSans-65" x="540.914062"/>
      <use xlink:href="#DejaVuSans-76" x="602.4375"/>
      <use xlink:href="#DejaVuSans-65" x="661.617188"/>
      <use xlink:href="#DejaVuSans-6e" x="723.140625"/>
      <use xlink:href="#DejaVuSans-74" x="786.519531"/>
      <use xlink:href="#DejaVuSans-20" x="825.728516"/>
      <use xlink:href="#DejaVuSans-28" x="857.515625"/>
      <use xlink:href="#DejaVuSans-73" x="896.529297"/>
      <use xlink:href="#DejaVuSans-29" x="948.628906"/>
     </g>
    </g>
   </g>
   <g id="matplotlib.axis_2">
    <g id="ytick_1">
     <g id="line2d_6">
      <defs>
       <path id="m3230b220cf" d="M 0 0 
L -3.5 0 
" style="stroke: #000000; stroke-width: 0.8"/>
      </defs>
      <g>
       <use xlink:href="#m3230b220cf" x="63" y="197.226899" style="stroke: #000000; stroke-width: 0.8"/>
      </g>
     </g>
     <g id="text_7">
      <!-- −5 -->
      <g transform="translate(32.4125 203.305649)scale(0.16 -0.16)">
       <defs>
        <path id="DejaVuSans-35" d="M 691 4666 
L 3169 4666 
L 3169 4134 
L 1269 4134 
L 1269 2991 
Q 1406 3038 1543 3061 
Q 1681 3084 1819 3084 
Q 2600 3084 3056 2656 
Q 3513 2228 3513 1497 
Q 3513 744 3044 326 
Q 2575 -91 1722 -91 
Q 1428 -91 1123 -41 
Q 819 9 494 109 
L 494 744 
Q 775 591 1075 516 
Q 1375 441 1709 441 
Q 2250 441 2565 725 
Q 2881 1009 2881 1497 
Q 2881 1984 2565 2268 
Q 2250 2553 1709 2553 
Q 1456 2553 1204 2497 
Q 953 2441 691 2322 
L 691 4666 
z
" transform="scale(0.015625)"/>
       </defs>
       <use xlink:href="#DejaVuSans-2212"/>
       <use xlink:href="#DejaVuSans-35" x="83.789062"/>
      </g>
     </g>
    </g>
    <g id="ytick_2">
     <g id="line2d_7">
      <g>
       <use xlink:href="#m3230b220cf" x="63" y="128.906782" style="stroke: #000000; stroke-width: 0.8"/>
      </g>
     </g>
     <g id="text_8">
      <!-- 0 -->
      <g transform="translate(45.82 134.985532)scale(0.16 -0.16)">
       <use xlink:href="#DejaVuSans-30"/>
      </g>
     </g>
    </g>
    <g id="ytick_3">
     <g id="line2d_8">
      <g>
       <use xlink:href="#m3230b220cf" x="63" y="60.586665" style="stroke: #000000; stroke-width: 0.8"/>
      </g>
     </g>
     <g id="text_9">
      <!-- 5 -->
      <g transform="translate(45.82 66.665415)scale(0.16 -0.16)">
       <use xlink:href="#DejaVuSans-35"/>
      </g>
     </g>
    </g>
    <g id="text_10">
     <!-- Amplitude (uV) -->
     <g transform="translate(24.669062 213.304219)rotate(-90)scale(0.18 -0.18)">
      <defs>
       <path id="DejaVuSans-41" d="M 2188 4044 
L 1331 1722 
L 3047 1722 
L 2188 4044 
z
M 1831 4666 
L 2547 4666 
L 4325 0 
L 3669 0 
L 3244 1197 
L 1141 1197 
L 716 0 
L 50 0 
L 1831 4666 
z
" transform="scale(0.015625)"/>
       <path id="DejaVuSans-70" d="M 1159 525 
L 1159 -1331 
L 581 -1331 
L 581 3500 
L 1159 3500 
L 1159 2969 
Q 1341 3281 1617 3432 
Q 1894 3584 2278 3584 
Q 2916 3584 3314 3078 
Q 3713 2572 3713 1747 
Q 3713 922 3314 415 
Q 2916 -91 2278 -91 
Q 1894 -91 1617 61 
Q 1341 213 1159 525 
z
M 3116 1747 
Q 3116 2381 2855 2742 
Q 2594 3103 2138 3103 
Q 1681 3103 1420 2742 
Q 1159 2381 1159 1747 
Q 1159 1113 1420 752 
Q 1681 391 2138 391 
Q 2594 391 2855 752 
Q 3116 1113 3116 1747 
z
" transform="scale(0.015625)"/>
       <path id="DejaVuSans-6c" d="M 603 4863 
L 1178 4863 
L 1178 0 
L 603 0 
L 603 4863 
z
" transform="scale(0.015625)"/>
       <path id="DejaVuSans-75" d="M 544 1381 
L 544 3500 
L 1119 3500 
L 1119 1403 
Q 1119 906 1312 657 
Q 1506 409 1894 409 
Q 2359 409 2629 706 
Q 2900 1003 2900 1516 
L 2900 3500 
L 3475 3500 
L 3475 0 
L 2900 0 
L 2900 538 
Q 2691 219 2414 64 
Q 2138 -91 1772 -91 
Q 1169 -91 856 284 
Q 544 659 544 1381 
z
M 1991 3584 
L 1991 3584 
z
" transform="scale(0.015625)"/>
       <path id="DejaVuSans-64" d="M 2906 2969 
L 2906 4863 
L 3481 4863 
L 3481 0 
L 2906 0 
L 2906 525 
Q 2725 213 2448 61 
Q 2172 -91 1784 -91 
Q 1150 -91 751 415 
Q 353 922 353 1747 
Q 353 2572 751 3078 
Q 1150 3584 1784 3584 
Q 2172 3584 2448 3432 
Q 2725 3281 2906 2969 
z
M 947 1747 
Q 947 1113 1208 752 
Q 1469 391 1925 391 
Q 2381 391 2643 752 
Q 2906 1113 2906 1747 
Q 2906 2381 2643 2742 
Q 2381 3103 1925 3103 
Q 1469 3103 1208 2742 
Q 947 2381 947 1747 
z
" transform="scale(0.015625)"/>
       <path id="DejaVuSans-56" d="M 1831 0 
L 50 4666 
L 709 4666 
L 2188 738 
L 3669 4666 
L 4325 4666 
L 2547 0 
L 1831 0 
z
" transform="scale(0.015625)"/>
      </defs>
      <use xlink:href="#DejaVuSans-41"/>
      <use xlink:href="#DejaVuSans-6d" x="68.408203"/>
      <use xlink:href="#DejaVuSans-70" x="165.820312"/>
      <use xlink:href="#DejaVuSans-6c" x="229.296875"/>
      <use xlink:href="#DejaVuSans-69" x="257.080078"/>
      <use xlink:href="#DejaVuSans-74" x="284.863281"/>
      <use xlink:href="#DejaVuSans-75" x="324.072266"/>
      <use xlink:href="#DejaVuSans-64" x="387.451172"/>
      <use xlink:href="#DejaVuSans-65" x="450.927734"/>
      <use xlink:href="#DejaVuSans-20" x="512.451172"/>
      <use xlink:href="#DejaVuSans-28" x="544.238281"/>
      <use xlink:href="#DejaVuSans-75" x="583.251953"/>
      <use xlink:href="#DejaVuSans-56" x="646.630859"/>
      <use xlink:href="#DejaVuSans-29" x="715.039062"/>
     </g>
    </g>
   </g>
   <g id="line2d_9">
    <path d="M 63 128.906782 
L 453.6 128.906782 
" clip-path="url(#p6eaeb54524)" style="fill: none; stroke: #000000; stroke-width: 0.5; stroke-linecap: square"/>
   </g>
   <g id="line2d_10">
    <path d="M 187.559233 256.32 
L 187.559233 34.56 
" clip-path="url(#p6eaeb54524)" style="fill: none; stroke-dasharray: 1.85,0.8; stroke-dashoffset: 0; stroke: #000000; stroke-width: 0.5"/>
   </g>
   <g id="line2d_11">
    <path d="M 80.754545 155.92385 
L 82.141619 160.422529 
L 83.528693 164.484705 
L 84.915767 164.154792 
L 86.302841 159.008408 
L 87.689915 153.165851 
L 89.076989 152.312895 
L 90.464062 158.73896 
L 91.851136 168.603606 
L 93.23821 174.257909 
L 94.625284 170.233633 
L 97.399432 145.619714 
L 98.786506 141.318945 
L 100.17358 147.622866 
L 101.560653 159.377183 
L 102.947727 168.110418 
L 104.334801 168.601151 
L 105.721875 162.281202 
L 107.108949 155.056211 
L 108.496023 151.956273 
L 109.883097 153.380299 
L 111.27017 155.752752 
L 112.657244 155.295356 
L 114.044318 151.170025 
L 115.431392 145.42013 
L 116.818466 140.410543 
L 119.592614 132.766311 
L 122.366761 122.947108 
L 123.753835 120.011011 
L 125.140909 120.48245 
L 126.527983 123.417913 
L 127.915057 126.093126 
L 129.302131 126.147462 
L 130.689205 123.440502 
L 132.076278 120.027239 
L 133.463352 118.312216 
L 134.850426 118.944371 
L 136.2375 120.171735 
L 137.624574 119.203341 
L 139.011648 114.611422 
L 140.398722 108.019638 
L 141.785795 103.71944 
L 143.172869 106.163636 
L 144.559943 116.754026 
L 145.947017 132.080213 
L 147.334091 145.150509 
L 148.721165 149.291304 
L 150.108239 142.359017 
L 152.882386 114.476235 
L 154.26946 106.943371 
L 155.656534 106.372249 
L 157.043608 108.532661 
L 158.430682 108.414738 
L 159.817756 104.66315 
L 161.20483 100.500377 
L 162.591903 100.416373 
L 163.978977 105.702151 
L 165.366051 112.967404 
L 166.753125 117.025665 
L 168.140199 115.44152 
L 169.527273 110.46963 
L 170.914347 106.627813 
L 172.30142 106.369699 
L 173.688494 108.14279 
L 175.075568 108.685958 
L 176.462642 107.084493 
L 177.849716 106.208715 
L 179.23679 109.74619 
L 180.623864 117.645702 
L 182.010937 124.772223 
L 183.398011 124.711833 
L 184.785085 115.570375 
L 186.172159 102.30905 
L 187.559233 93.135276 
L 188.946307 93.029649 
L 190.333381 100.260095 
L 191.720455 108.91715 
L 193.107528 114.755218 
L 194.494602 118.549942 
L 195.881676 123.826524 
L 197.26875 131.579854 
L 198.655824 137.742639 
L 200.042898 136.448104 
L 201.429972 126.172809 
L 202.817045 112.570278 
L 204.204119 104.646592 
L 205.591193 107.320222 
L 206.978267 117.171457 
L 208.365341 125.522452 
L 209.752415 126.246248 
L 211.139489 121.219257 
L 212.526563 118.393683 
L 213.913636 124.210154 
L 215.30071 137.244013 
L 216.687784 148.836021 
L 218.074858 150.149079 
L 219.461932 139.449815 
L 220.849006 123.447283 
L 222.23608 111.902556 
L 223.623153 110.389395 
L 225.010227 117.110136 
L 226.397301 125.644638 
L 227.784375 130.472068 
L 229.171449 130.470905 
L 230.558523 128.211931 
L 231.945597 126.735742 
L 233.33267 127.096194 
L 234.719744 128.393052 
L 236.106818 129.416096 
L 237.493892 129.934701 
L 238.880966 130.639274 
L 240.26804 132.266342 
L 241.655114 134.922009 
L 243.042188 137.992013 
L 244.429261 140.399011 
L 245.816335 141.043055 
L 247.203409 139.550592 
L 248.590483 137.151708 
L 249.977557 136.789495 
L 251.364631 141.590291 
L 252.751705 152.205147 
L 254.138778 165.177623 
L 255.525852 174.419587 
L 256.912926 175.455297 
L 258.3 169.241289 
L 259.687074 162.022261 
L 261.074148 160.763611 
L 262.461222 167.725139 
L 263.848295 178.867733 
L 265.235369 187.595195 
L 266.622443 190.537077 
L 268.009517 190.16639 
L 269.396591 191.952841 
L 270.783665 198.821292 
L 272.170739 208.119987 
L 273.557813 213.814664 
L 274.944886 211.675766 
L 276.33196 202.59468 
L 277.719034 191.242529 
L 279.106108 181.812948 
L 280.493182 175.060028 
L 281.880256 169.045916 
L 286.041477 147.865207 
L 287.428551 142.060205 
L 288.815625 135.742522 
L 291.589773 119.91182 
L 292.976847 115.252229 
L 294.36392 116.119973 
L 295.750994 120.88054 
L 297.138068 124.753484 
L 298.525142 123.608178 
L 299.912216 117.374908 
L 301.29929 109.824076 
L 302.686364 104.940399 
L 304.073438 103.395694 
L 305.460511 102.440969 
L 306.847585 99.120749 
L 308.234659 93.497156 
L 309.621733 88.706182 
L 311.008807 87.896465 
L 312.395881 91.139428 
L 313.782955 95.304088 
L 315.170028 96.919685 
L 316.557102 95.23125 
L 317.944176 92.663221 
L 319.33125 92.510366 
L 320.718324 96.190043 
L 323.492472 108.99184 
L 324.879545 114.179858 
L 326.266619 117.853088 
L 327.653693 120.189445 
L 329.040767 120.599989 
L 330.427841 117.871477 
L 331.814915 111.520373 
L 333.201989 102.991792 
L 334.589063 95.420116 
L 335.976136 91.939421 
L 337.36321 93.75677 
L 338.750284 99.370845 
L 340.137358 105.452676 
L 341.524432 108.794648 
L 342.911506 108.13275 
L 344.29858 104.785695 
L 345.685653 101.734266 
L 347.072727 101.642911 
L 348.459801 105.012894 
L 349.846875 109.724303 
L 351.233949 112.438573 
L 352.621023 111.028184 
L 355.39517 101.587029 
L 356.782244 100.482164 
L 358.169318 104.263701 
L 360.943466 118.009034 
L 362.33054 122.581452 
L 363.717614 125.046118 
L 365.104688 126.951344 
L 366.491761 129.122832 
L 367.878835 130.455963 
L 369.265909 128.853685 
L 370.652983 123.506175 
L 372.040057 116.36869 
L 373.427131 111.304374 
L 374.814205 111.40873 
L 376.201278 116.69706 
L 377.588352 124.113306 
L 378.975426 129.876272 
L 380.3625 132.210005 
L 381.749574 132.229448 
L 383.136648 132.401617 
L 384.523722 134.114944 
L 385.910795 136.598411 
L 387.297869 138.114919 
L 388.684943 138.198247 
L 390.072017 138.674743 
L 391.459091 142.294799 
L 392.846165 150.067257 
L 394.233239 159.767592 
L 395.620313 167.213783 
L 397.007386 169.433655 
L 398.39446 166.993204 
L 399.781534 163.317072 
L 401.168608 161.476002 
L 402.555682 161.316906 
L 403.942756 159.685969 
L 405.32983 153.76044 
L 406.716903 144.530841 
L 408.103977 137.044013 
L 409.491051 136.735981 
L 410.878125 144.75947 
L 412.265199 156.398618 
L 413.652273 164.22237 
L 415.039347 163.576687 
L 416.42642 155.923272 
L 417.813494 147.313079 
L 419.200568 143.412635 
L 420.587642 145.345965 
L 421.974716 149.699693 
L 423.36179 152.27186 
L 424.748864 151.951035 
L 426.135938 151.292197 
L 427.523011 153.577213 
L 428.910085 159.355842 
L 430.297159 165.756348 
L 431.684233 169.115162 
L 433.071307 168.351955 
L 434.458381 165.887002 
L 435.845455 165.239029 
L 435.845455 165.239029 
" clip-path="url(#p6eaeb54524)" style="fill: none; stroke: #1f77b4; stroke-width: 1.5; stroke-linecap: square"/>
   </g>
   <g id="line2d_12">
    <path d="M 80.754545 205.653841 
L 82.141619 205.003895 
L 83.528693 196.716254 
L 86.302841 168.48595 
L 87.689915 163.237693 
L 89.076989 170.02315 
L 90.464062 184.314837 
L 91.851136 196.015731 
L 93.23821 196.494456 
L 94.625284 184.872438 
L 96.012358 168.315148 
L 97.399432 155.937763 
L 98.786506 151.501695 
L 100.17358 151.24785 
L 101.560653 148.624841 
L 104.334801 133.967347 
L 105.721875 133.579762 
L 107.108949 142.499112 
L 108.496023 155.273124 
L 109.883097 163.025065 
L 111.27017 161.320131 
L 112.657244 154.156759 
L 114.044318 150.186629 
L 115.431392 154.563024 
L 116.818466 163.996637 
L 118.20554 169.650268 
L 119.592614 165.196693 
L 122.366761 140.423996 
L 123.753835 136.389152 
L 125.140909 141.151861 
L 126.527983 148.653715 
L 127.915057 152.176959 
L 129.302131 150.081462 
L 130.689205 146.06247 
L 132.076278 144.361832 
L 133.463352 145.111689 
L 134.850426 144.429725 
L 136.2375 138.893158 
L 137.624574 129.668043 
L 139.011648 122.043875 
L 140.398722 120.749136 
L 141.785795 125.565801 
L 143.172869 131.449901 
L 144.559943 133.046205 
L 145.947017 129.380609 
L 147.334091 124.459103 
L 148.721165 123.381859 
L 150.108239 127.653746 
L 151.495312 133.92345 
L 152.882386 137.107738 
L 154.26946 134.909825 
L 155.656534 129.667015 
L 157.043608 126.025413 
L 158.430682 126.663363 
L 159.817756 129.872521 
L 161.20483 131.042192 
L 162.591903 126.700462 
L 165.366051 108.90082 
L 166.753125 105.85191 
L 168.140199 110.809805 
L 170.914347 131.848037 
L 172.30142 137.364076 
L 173.688494 135.789577 
L 175.075568 128.466921 
L 177.849716 109.511653 
L 179.23679 103.218351 
L 180.623864 100.691513 
L 182.010937 101.997938 
L 183.398011 106.49041 
L 186.172159 119.259277 
L 187.559233 124.112274 
L 188.946307 126.397774 
L 190.333381 125.888907 
L 191.720455 122.887253 
L 193.107528 118.071776 
L 194.494602 112.690528 
L 195.881676 108.724555 
L 197.26875 108.353052 
L 198.655824 112.601946 
L 201.429972 127.083641 
L 202.817045 129.645819 
L 204.204119 126.217194 
L 205.591193 119.103122 
L 206.978267 113.215436 
L 208.365341 112.814767 
L 209.752415 118.512991 
L 211.139489 126.733378 
L 212.526563 132.056322 
L 213.913636 130.802426 
L 215.30071 123.385693 
L 216.687784 113.91415 
L 218.074858 107.416348 
L 219.461932 106.578143 
L 222.23608 113.586877 
L 223.623153 112.649906 
L 225.010227 105.786556 
L 226.397301 95.520459 
L 227.784375 86.64765 
L 229.171449 82.787255 
L 230.558523 83.695264 
L 231.945597 85.476623 
L 233.33267 83.742021 
L 234.719744 77.367725 
L 236.106818 69.811644 
L 237.493892 66.732428 
L 238.880966 71.659573 
L 240.26804 83.167236 
L 241.655114 95.853183 
L 243.042188 104.302077 
L 244.429261 106.78793 
L 245.816335 105.837596 
L 247.203409 105.546595 
L 248.590483 108.20139 
L 251.364631 117.597369 
L 252.751705 120.397138 
L 255.525852 123.063495 
L 258.3 127.120879 
L 259.687074 128.305798 
L 261.074148 127.97237 
L 262.461222 126.151321 
L 263.848295 122.92821 
L 265.235369 118.132543 
L 268.009517 105.56261 
L 269.396591 101.353683 
L 270.783665 101.100547 
L 272.170739 104.625102 
L 273.557813 109.732127 
L 274.944886 113.925437 
L 276.33196 116.300463 
L 280.493182 120.637927 
L 281.880256 120.161644 
L 283.26733 117.564496 
L 284.654403 115.350231 
L 286.041477 117.662974 
L 287.428551 126.616539 
L 288.815625 139.425881 
L 290.202699 149.490489 
L 291.589773 151.168633 
L 292.976847 144.326415 
L 294.36392 134.504442 
L 295.750994 128.310527 
L 297.138068 128.065113 
L 298.525142 130.538544 
L 299.912216 130.842798 
L 302.686364 124.578378 
L 304.073438 126.435661 
L 305.460511 133.883091 
L 306.847585 142.078374 
L 308.234659 144.856083 
L 309.621733 140.65791 
L 311.008807 134.439109 
L 312.395881 133.43837 
L 313.782955 140.549888 
L 315.170028 151.458774 
L 316.557102 158.293263 
L 317.944176 156.499871 
L 319.33125 148.686175 
L 320.718324 142.053273 
L 322.105398 141.946416 
L 324.879545 152.515456 
L 326.266619 151.750154 
L 327.653693 144.568428 
L 329.040767 135.300065 
L 330.427841 129.289192 
L 331.814915 129.062454 
L 333.201989 133.501601 
L 334.589063 139.717862 
L 335.976136 145.163289 
L 337.36321 148.261627 
L 338.750284 148.037691 
L 340.137358 144.172771 
L 342.911506 131.557927 
L 344.29858 128.601994 
L 345.685653 130.11482 
L 348.459801 139.129678 
L 349.846875 141.971803 
L 351.233949 143.417377 
L 352.621023 144.619144 
L 354.008097 145.592236 
L 355.39517 144.935959 
L 356.782244 141.733241 
L 358.169318 137.490843 
L 359.556392 135.649064 
L 360.943466 138.703084 
L 363.717614 152.900969 
L 365.104688 156.892614 
L 366.491761 157.498649 
L 367.878835 157.189656 
L 369.265909 158.027403 
L 370.652983 159.475889 
L 372.040057 159.557262 
L 373.427131 158.023657 
L 374.814205 157.719991 
L 376.201278 162.035925 
L 377.588352 170.713139 
L 378.975426 178.625535 
L 380.3625 179.625936 
L 381.749574 172.362607 
L 383.136648 162.407772 
L 384.523722 158.075808 
L 385.910795 163.295378 
L 387.297869 173.988945 
L 388.684943 181.388813 
L 390.072017 179.346188 
L 391.459091 169.079531 
L 392.846165 157.382126 
L 394.233239 150.444223 
L 395.620313 149.168918 
L 397.007386 149.80746 
L 398.39446 148.33743 
L 399.781534 143.778849 
L 401.168608 137.538954 
L 402.555682 130.471914 
L 403.942756 121.623665 
L 406.716903 99.004297 
L 408.103977 93.024625 
L 409.491051 96.368377 
L 412.265199 117.921316 
L 413.652273 120.267849 
L 415.039347 111.94794 
L 416.42642 98.456366 
L 417.813494 88.652233 
L 419.200568 87.711916 
L 421.974716 99.066178 
L 423.36179 99.147763 
L 426.135938 89.43083 
L 427.523011 89.580364 
L 428.910085 94.809949 
L 430.297159 100.923163 
L 431.684233 103.533506 
L 433.071307 102.084866 
L 434.458381 100.109942 
L 435.845455 101.678047 
L 435.845455 101.678047 
" clip-path="url(#p6eaeb54524)" style="fill: none; stroke: #ff7f0e; stroke-width: 1.5; stroke-linecap: square"/>
   </g>
   <g id="patch_3">
    <path d="M 63 256.32 
L 63 34.56 
" style="fill: none; stroke: #000000; stroke-width: 0.8; stroke-linejoin: miter; stroke-linecap: square"/>
   </g>
   <g id="patch_4">
    <path d="M 453.6 256.32 
L 453.6 34.56 
" style="fill: none; stroke: #000000; stroke-width: 0.8; stroke-linejoin: miter; stroke-linecap: square"/>
   </g>
   <g id="patch_5">
    <path d="M 63 256.32 
L 453.6 256.32 
" style="fill: none; stroke: #000000; stroke-width: 0.8; stroke-linejoin: miter; stroke-linecap: square"/>
   </g>
   <g id="patch_6">
    <path d="M 63 34.56 
L 453.6 34.56 
" style="fill: none; stroke: #000000; stroke-width: 0.8; stroke-linejoin: miter; stroke-linecap: square"/>
   </g>
   <g id="text_11">
    <!-- ERP response - Vibro trial 1  -->
    <g transform="translate(99.629687 28.56)scale(0.2 -0.2)">
     <defs>
      <path id="DejaVuSans-Bold-45" d="M 588 4666 
L 3834 4666 
L 3834 3756 
L 1791 3756 
L 1791 2888 
L 3713 2888 
L 3713 1978 
L 1791 1978 
L 1791 909 
L 3903 909 
L 3903 0 
L 588 0 
L 588 4666 
z
" transform="scale(0.015625)"/>
      <path id="DejaVuSans-Bold-52" d="M 2297 2597 
Q 2675 2597 2839 2737 
Q 3003 2878 3003 3200 
Q 3003 3519 2839 3656 
Q 2675 3794 2297 3794 
L 1791 3794 
L 1791 2597 
L 2297 2597 
z
M 1791 1766 
L 1791 0 
L 588 0 
L 588 4666 
L 2425 4666 
Q 3347 4666 3776 4356 
Q 4206 4047 4206 3378 
Q 4206 2916 3982 2619 
Q 3759 2322 3309 2181 
Q 3556 2125 3751 1926 
Q 3947 1728 4147 1325 
L 4800 0 
L 3519 0 
L 2950 1159 
Q 2778 1509 2601 1637 
Q 2425 1766 2131 1766 
L 1791 1766 
z
" transform="scale(0.015625)"/>
      <path id="DejaVuSans-Bold-50" d="M 588 4666 
L 2584 4666 
Q 3475 4666 3951 4270 
Q 4428 3875 4428 3144 
Q 4428 2409 3951 2014 
Q 3475 1619 2584 1619 
L 1791 1619 
L 1791 0 
L 588 0 
L 588 4666 
z
M 1791 3794 
L 1791 2491 
L 2456 2491 
Q 2806 2491 2997 2661 
Q 3188 2831 3188 3144 
Q 3188 3456 2997 3625 
Q 2806 3794 2456 3794 
L 1791 3794 
z
" transform="scale(0.015625)"/>
      <path id="DejaVuSans-Bold-20" transform="scale(0.015625)"/>
      <path id="DejaVuSans-Bold-72" d="M 3138 2547 
Q 2991 2616 2845 2648 
Q 2700 2681 2553 2681 
Q 2122 2681 1889 2404 
Q 1656 2128 1656 1613 
L 1656 0 
L 538 0 
L 538 3500 
L 1656 3500 
L 1656 2925 
Q 1872 3269 2151 3426 
Q 2431 3584 2822 3584 
Q 2878 3584 2943 3579 
Q 3009 3575 3134 3559 
L 3138 2547 
z
" transform="scale(0.015625)"/>
      <path id="DejaVuSans-Bold-65" d="M 4031 1759 
L 4031 1441 
L 1416 1441 
Q 1456 1047 1700 850 
Q 1944 653 2381 653 
Q 2734 653 3104 758 
Q 3475 863 3866 1075 
L 3866 213 
Q 3469 63 3072 -14 
Q 2675 -91 2278 -91 
Q 1328 -91 801 392 
Q 275 875 275 1747 
Q 275 2603 792 3093 
Q 1309 3584 2216 3584 
Q 3041 3584 3536 3087 
Q 4031 2591 4031 1759 
z
M 2881 2131 
Q 2881 2450 2695 2645 
Q 2509 2841 2209 2841 
Q 1884 2841 1681 2658 
Q 1478 2475 1428 2131 
L 2881 2131 
z
" transform="scale(0.015625)"/>
      <path id="DejaVuSans-Bold-73" d="M 3272 3391 
L 3272 2541 
Q 2913 2691 2578 2766 
Q 2244 2841 1947 2841 
Q 1628 2841 1473 2761 
Q 1319 2681 1319 2516 
Q 1319 2381 1436 2309 
Q 1553 2238 1856 2203 
L 2053 2175 
Q 2913 2066 3209 1816 
Q 3506 1566 3506 1031 
Q 3506 472 3093 190 
Q 2681 -91 1863 -91 
Q 1516 -91 1145 -36 
Q 775 19 384 128 
L 384 978 
Q 719 816 1070 734 
Q 1422 653 1784 653 
Q 2113 653 2278 743 
Q 2444 834 2444 1013 
Q 2444 1163 2330 1236 
Q 2216 1309 1875 1350 
L 1678 1375 
Q 931 1469 631 1722 
Q 331 1975 331 2491 
Q 331 3047 712 3315 
Q 1094 3584 1881 3584 
Q 2191 3584 2531 3537 
Q 2872 3491 3272 3391 
z
" transform="scale(0.015625)"/>
      <path id="DejaVuSans-Bold-70" d="M 1656 506 
L 1656 -1331 
L 538 -1331 
L 538 3500 
L 1656 3500 
L 1656 2988 
Q 1888 3294 2169 3439 
Q 2450 3584 2816 3584 
Q 3463 3584 3878 3070 
Q 4294 2556 4294 1747 
Q 4294 938 3878 423 
Q 3463 -91 2816 -91 
Q 2450 -91 2169 54 
Q 1888 200 1656 506 
z
M 2400 2772 
Q 2041 2772 1848 2508 
Q 1656 2244 1656 1747 
Q 1656 1250 1848 986 
Q 2041 722 2400 722 
Q 2759 722 2948 984 
Q 3138 1247 3138 1747 
Q 3138 2247 2948 2509 
Q 2759 2772 2400 2772 
z
" transform="scale(0.015625)"/>
      <path id="DejaVuSans-Bold-6f" d="M 2203 2784 
Q 1831 2784 1636 2517 
Q 1441 2250 1441 1747 
Q 1441 1244 1636 976 
Q 1831 709 2203 709 
Q 2569 709 2762 976 
Q 2956 1244 2956 1747 
Q 2956 2250 2762 2517 
Q 2569 2784 2203 2784 
z
M 2203 3584 
Q 3106 3584 3614 3096 
Q 4122 2609 4122 1747 
Q 4122 884 3614 396 
Q 3106 -91 2203 -91 
Q 1297 -91 786 396 
Q 275 884 275 1747 
Q 275 2609 786 3096 
Q 1297 3584 2203 3584 
z
" transform="scale(0.015625)"/>
      <path id="DejaVuSans-Bold-6e" d="M 4056 2131 
L 4056 0 
L 2931 0 
L 2931 347 
L 2931 1631 
Q 2931 2084 2911 2256 
Q 2891 2428 2841 2509 
Q 2775 2619 2662 2680 
Q 2550 2741 2406 2741 
Q 2056 2741 1856 2470 
Q 1656 2200 1656 1722 
L 1656 0 
L 538 0 
L 538 3500 
L 1656 3500 
L 1656 2988 
Q 1909 3294 2193 3439 
Q 2478 3584 2822 3584 
Q 3428 3584 3742 3212 
Q 4056 2841 4056 2131 
z
" transform="scale(0.015625)"/>
      <path id="DejaVuSans-Bold-2d" d="M 347 2297 
L 2309 2297 
L 2309 1388 
L 347 1388 
L 347 2297 
z
" transform="scale(0.015625)"/>
      <path id="DejaVuSans-Bold-56" d="M 31 4666 
L 1241 4666 
L 2478 1222 
L 3713 4666 
L 4922 4666 
L 3194 0 
L 1759 0 
L 31 4666 
z
" transform="scale(0.015625)"/>
      <path id="DejaVuSans-Bold-69" d="M 538 3500 
L 1656 3500 
L 1656 0 
L 538 0 
L 538 3500 
z
M 538 4863 
L 1656 4863 
L 1656 3950 
L 538 3950 
L 538 4863 
z
" transform="scale(0.015625)"/>
      <path id="DejaVuSans-Bold-62" d="M 2400 722 
Q 2759 722 2948 984 
Q 3138 1247 3138 1747 
Q 3138 2247 2948 2509 
Q 2759 2772 2400 2772 
Q 2041 2772 1848 2508 
Q 1656 2244 1656 1747 
Q 1656 1250 1848 986 
Q 2041 722 2400 722 
z
M 1656 2988 
Q 1888 3294 2169 3439 
Q 2450 3584 2816 3584 
Q 3463 3584 3878 3070 
Q 4294 2556 4294 1747 
Q 4294 938 3878 423 
Q 3463 -91 2816 -91 
Q 2450 -91 2169 54 
Q 1888 200 1656 506 
L 1656 0 
L 538 0 
L 538 4863 
L 1656 4863 
L 1656 2988 
z
" transform="scale(0.015625)"/>
      <path id="DejaVuSans-Bold-74" d="M 1759 4494 
L 1759 3500 
L 2913 3500 
L 2913 2700 
L 1759 2700 
L 1759 1216 
Q 1759 972 1856 886 
Q 1953 800 2241 800 
L 2816 800 
L 2816 0 
L 1856 0 
Q 1194 0 917 276 
Q 641 553 641 1216 
L 641 2700 
L 84 2700 
L 84 3500 
L 641 3500 
L 641 4494 
L 1759 4494 
z
" transform="scale(0.015625)"/>
      <path id="DejaVuSans-Bold-61" d="M 2106 1575 
Q 1756 1575 1579 1456 
Q 1403 1338 1403 1106 
Q 1403 894 1545 773 
Q 1688 653 1941 653 
Q 2256 653 2472 879 
Q 2688 1106 2688 1447 
L 2688 1575 
L 2106 1575 
z
M 3816 1997 
L 3816 0 
L 2688 0 
L 2688 519 
Q 2463 200 2181 54 
Q 1900 -91 1497 -91 
Q 953 -91 614 226 
Q 275 544 275 1050 
Q 275 1666 698 1953 
Q 1122 2241 2028 2241 
L 2688 2241 
L 2688 2328 
Q 2688 2594 2478 2717 
Q 2269 2841 1825 2841 
Q 1466 2841 1156 2769 
Q 847 2697 581 2553 
L 581 3406 
Q 941 3494 1303 3539 
Q 1666 3584 2028 3584 
Q 2975 3584 3395 3211 
Q 3816 2838 3816 1997 
z
" transform="scale(0.015625)"/>
      <path id="DejaVuSans-Bold-6c" d="M 538 4863 
L 1656 4863 
L 1656 0 
L 538 0 
L 538 4863 
z
" transform="scale(0.015625)"/>
      <path id="DejaVuSans-Bold-31" d="M 750 831 
L 1813 831 
L 1813 3847 
L 722 3622 
L 722 4441 
L 1806 4666 
L 2950 4666 
L 2950 831 
L 4013 831 
L 4013 0 
L 750 0 
L 750 831 
z
" transform="scale(0.015625)"/>
     </defs>
     <use xlink:href="#DejaVuSans-Bold-45"/>
     <use xlink:href="#DejaVuSans-Bold-52" x="68.310547"/>
     <use xlink:href="#DejaVuSans-Bold-50" x="145.3125"/>
     <use xlink:href="#DejaVuSans-Bold-20" x="218.603516"/>
     <use xlink:href="#DejaVuSans-Bold-72" x="253.417969"/>
     <use xlink:href="#DejaVuSans-Bold-65" x="302.734375"/>
     <use xlink:href="#DejaVuSans-Bold-73" x="370.556641"/>
     <use xlink:href="#DejaVuSans-Bold-70" x="430.078125"/>
     <use xlink:href="#DejaVuSans-Bold-6f" x="501.660156"/>
     <use xlink:href="#DejaVuSans-Bold-6e" x="570.361328"/>
     <use xlink:href="#DejaVuSans-Bold-73" x="641.552734"/>
     <use xlink:href="#DejaVuSans-Bold-65" x="701.074219"/>
     <use xlink:href="#DejaVuSans-Bold-20" x="768.896484"/>
     <use xlink:href="#DejaVuSans-Bold-2d" x="803.710938"/>
     <use xlink:href="#DejaVuSans-Bold-20" x="845.214844"/>
     <use xlink:href="#DejaVuSans-Bold-56" x="880.029297"/>
     <use xlink:href="#DejaVuSans-Bold-69" x="955.671875"/>
     <use xlink:href="#DejaVuSans-Bold-62" x="989.949219"/>
     <use xlink:href="#DejaVuSans-Bold-72" x="1061.53125"/>
     <use xlink:href="#DejaVuSans-Bold-6f" x="1110.847656"/>
     <use xlink:href="#DejaVuSans-Bold-20" x="1179.548828"/>
     <use xlink:href="#DejaVuSans-Bold-74" x="1214.363281"/>
     <use xlink:href="#DejaVuSans-Bold-72" x="1262.166016"/>
     <use xlink:href="#DejaVuSans-Bold-69" x="1311.482422"/>
     <use xlink:href="#DejaVuSans-Bold-61" x="1345.759766"/>
     <use xlink:href="#DejaVuSans-Bold-6c" x="1413.240234"/>
     <use xlink:href="#DejaVuSans-Bold-20" x="1447.517578"/>
     <use xlink:href="#DejaVuSans-Bold-31" x="1482.332031"/>
     <use xlink:href="#DejaVuSans-Bold-20" x="1551.912109"/>
    </g>
   </g>
   <g id="legend_1">
    <g id="patch_7">
     <path d="M 348.396875 251.32 
L 446.6 251.32 
Q 448.6 251.32 448.6 249.32 
L 448.6 191.6075 
Q 448.6 189.6075 446.6 189.6075 
L 348.396875 189.6075 
Q 346.396875 189.6075 346.396875 191.6075 
L 346.396875 249.32 
Q 346.396875 251.32 348.396875 251.32 
z
" style="fill: #ffffff; opacity: 0.8; stroke: #cccccc; stroke-linejoin: miter"/>
    </g>
    <g id="line2d_13">
     <path d="M 350.396875 197.705938 
L 360.396875 197.705938 
L 370.396875 197.705938 
" style="fill: none; stroke: #1f77b4; stroke-width: 1.5; stroke-linecap: square"/>
    </g>
    <g id="text_12">
     <!-- 'left' - Mean -->
     <g transform="translate(378.396875 201.205938)scale(0.1 -0.1)">
      <defs>
       <path id="DejaVuSans-27" d="M 1147 4666 
L 1147 2931 
L 616 2931 
L 616 4666 
L 1147 4666 
z
" transform="scale(0.015625)"/>
       <path id="DejaVuSans-2d" d="M 313 2009 
L 1997 2009 
L 1997 1497 
L 313 1497 
L 313 2009 
z
" transform="scale(0.015625)"/>
       <path id="DejaVuSans-4d" d="M 628 4666 
L 1569 4666 
L 2759 1491 
L 3956 4666 
L 4897 4666 
L 4897 0 
L 4281 0 
L 4281 4097 
L 3078 897 
L 2444 897 
L 1241 4097 
L 1241 0 
L 628 0 
L 628 4666 
z
" transform="scale(0.015625)"/>
       <path id="DejaVuSans-61" d="M 2194 1759 
Q 1497 1759 1228 1600 
Q 959 1441 959 1056 
Q 959 750 1161 570 
Q 1363 391 1709 391 
Q 2188 391 2477 730 
Q 2766 1069 2766 1631 
L 2766 1759 
L 2194 1759 
z
M 3341 1997 
L 3341 0 
L 2766 0 
L 2766 531 
Q 2569 213 2275 61 
Q 1981 -91 1556 -91 
Q 1019 -91 701 211 
Q 384 513 384 1019 
Q 384 1609 779 1909 
Q 1175 2209 1959 2209 
L 2766 2209 
L 2766 2266 
Q 2766 2663 2505 2880 
Q 2244 3097 1772 3097 
Q 1472 3097 1187 3025 
Q 903 2953 641 2809 
L 641 3341 
Q 956 3463 1253 3523 
Q 1550 3584 1831 3584 
Q 2591 3584 2966 3190 
Q 3341 2797 3341 1997 
z
" transform="scale(0.015625)"/>
      </defs>
      <use xlink:href="#DejaVuSans-27"/>
      <use xlink:href="#DejaVuSans-6c" x="27.490234"/>
      <use xlink:href="#DejaVuSans-65" x="55.273438"/>
      <use xlink:href="#DejaVuSans-66" x="116.796875"/>
      <use xlink:href="#DejaVuSans-74" x="150.251953"/>
      <use xlink:href="#DejaVuSans-27" x="189.460938"/>
      <use xlink:href="#DejaVuSans-20" x="216.951172"/>
      <use xlink:href="#DejaVuSans-2d" x="248.738281"/>
      <use xlink:href="#DejaVuSans-20" x="284.822266"/>
      <use xlink:href="#DejaVuSans-4d" x="316.609375"/>
      <use xlink:href="#DejaVuSans-65" x="402.888672"/>
      <use xlink:href="#DejaVuSans-61" x="464.412109"/>
      <use xlink:href="#DejaVuSans-6e" x="525.691406"/>
     </g>
    </g>
    <g id="patch_8">
     <path d="M 350.396875 215.884062 
L 370.396875 215.884062 
L 370.396875 208.884062 
L 350.396875 208.884062 
z
" style="fill: #1f77b4; fill-opacity: 0.2"/>
    </g>
    <g id="text_13">
     <!-- 'left'- SEM -->
     <g transform="translate(378.396875 215.884062)scale(0.1 -0.1)">
      <defs>
       <path id="DejaVuSans-53" d="M 3425 4513 
L 3425 3897 
Q 3066 4069 2747 4153 
Q 2428 4238 2131 4238 
Q 1616 4238 1336 4038 
Q 1056 3838 1056 3469 
Q 1056 3159 1242 3001 
Q 1428 2844 1947 2747 
L 2328 2669 
Q 3034 2534 3370 2195 
Q 3706 1856 3706 1288 
Q 3706 609 3251 259 
Q 2797 -91 1919 -91 
Q 1588 -91 1214 -16 
Q 841 59 441 206 
L 441 856 
Q 825 641 1194 531 
Q 1563 422 1919 422 
Q 2459 422 2753 634 
Q 3047 847 3047 1241 
Q 3047 1584 2836 1778 
Q 2625 1972 2144 2069 
L 1759 2144 
Q 1053 2284 737 2584 
Q 422 2884 422 3419 
Q 422 4038 858 4394 
Q 1294 4750 2059 4750 
Q 2388 4750 2728 4690 
Q 3069 4631 3425 4513 
z
" transform="scale(0.015625)"/>
       <path id="DejaVuSans-45" d="M 628 4666 
L 3578 4666 
L 3578 4134 
L 1259 4134 
L 1259 2753 
L 3481 2753 
L 3481 2222 
L 1259 2222 
L 1259 531 
L 3634 531 
L 3634 0 
L 628 0 
L 628 4666 
z
" transform="scale(0.015625)"/>
      </defs>
      <use xlink:href="#DejaVuSans-27"/>
      <use xlink:href="#DejaVuSans-6c" x="27.490234"/>
      <use xlink:href="#DejaVuSans-65" x="55.273438"/>
      <use xlink:href="#DejaVuSans-66" x="116.796875"/>
      <use xlink:href="#DejaVuSans-74" x="150.251953"/>
      <use xlink:href="#DejaVuSans-27" x="189.460938"/>
      <use xlink:href="#DejaVuSans-2d" x="216.951172"/>
      <use xlink:href="#DejaVuSans-20" x="253.035156"/>
      <use xlink:href="#DejaVuSans-53" x="284.822266"/>
      <use xlink:href="#DejaVuSans-45" x="348.298828"/>
      <use xlink:href="#DejaVuSans-4d" x="411.482422"/>
     </g>
    </g>
    <g id="line2d_14">
     <path d="M 350.396875 227.062187 
L 360.396875 227.062187 
L 370.396875 227.062187 
" style="fill: none; stroke: #ff7f0e; stroke-width: 1.5; stroke-linecap: square"/>
    </g>
    <g id="text_14">
     <!-- 'right' - Mean -->
     <g transform="translate(378.396875 230.562187)scale(0.1 -0.1)">
      <defs>
       <path id="DejaVuSans-67" d="M 2906 1791 
Q 2906 2416 2648 2759 
Q 2391 3103 1925 3103 
Q 1463 3103 1205 2759 
Q 947 2416 947 1791 
Q 947 1169 1205 825 
Q 1463 481 1925 481 
Q 2391 481 2648 825 
Q 2906 1169 2906 1791 
z
M 3481 434 
Q 3481 -459 3084 -895 
Q 2688 -1331 1869 -1331 
Q 1566 -1331 1297 -1286 
Q 1028 -1241 775 -1147 
L 775 -588 
Q 1028 -725 1275 -790 
Q 1522 -856 1778 -856 
Q 2344 -856 2625 -561 
Q 2906 -266 2906 331 
L 2906 616 
Q 2728 306 2450 153 
Q 2172 0 1784 0 
Q 1141 0 747 490 
Q 353 981 353 1791 
Q 353 2603 747 3093 
Q 1141 3584 1784 3584 
Q 2172 3584 2450 3431 
Q 2728 3278 2906 2969 
L 2906 3500 
L 3481 3500 
L 3481 434 
z
" transform="scale(0.015625)"/>
       <path id="DejaVuSans-68" d="M 3513 2113 
L 3513 0 
L 2938 0 
L 2938 2094 
Q 2938 2591 2744 2837 
Q 2550 3084 2163 3084 
Q 1697 3084 1428 2787 
Q 1159 2491 1159 1978 
L 1159 0 
L 581 0 
L 581 4863 
L 1159 4863 
L 1159 2956 
Q 1366 3272 1645 3428 
Q 1925 3584 2291 3584 
Q 2894 3584 3203 3211 
Q 3513 2838 3513 2113 
z
" transform="scale(0.015625)"/>
      </defs>
      <use xlink:href="#DejaVuSans-27"/>
      <use xlink:href="#DejaVuSans-72" x="27.490234"/>
      <use xlink:href="#DejaVuSans-69" x="68.603516"/>
      <use xlink:href="#DejaVuSans-67" x="96.386719"/>
      <use xlink:href="#DejaVuSans-68" x="159.863281"/>
      <use xlink:href="#DejaVuSans-74" x="223.242188"/>
      <use xlink:href="#DejaVuSans-27" x="262.451172"/>
      <use xlink:href="#DejaVuSans-20" x="289.941406"/>
      <use xlink:href="#DejaVuSans-2d" x="321.728516"/>
      <use xlink:href="#DejaVuSans-20" x="357.8125"/>
      <use xlink:href="#DejaVuSans-4d" x="389.599609"/>
      <use xlink:href="#DejaVuSans-65" x="475.878906"/>
      <use xlink:href="#DejaVuSans-61" x="537.402344"/>
      <use xlink:href="#DejaVuSans-6e" x="598.681641"/>
     </g>
    </g>
    <g id="patch_9">
     <path d="M 350.396875 245.240313 
L 370.396875 245.240313 
L 370.396875 238.240313 
L 350.396875 238.240313 
z
" style="fill: #ff7f0e; fill-opacity: 0.2"/>
    </g>
    <g id="text_15">
     <!-- 'right'- SEM -->
     <g transform="translate(378.396875 245.240313)scale(0.1 -0.1)">
      <use xlink:href="#DejaVuSans-27"/>
      <use xlink:href="#DejaVuSans-72" x="27.490234"/>
      <use xlink:href="#DejaVuSans-69" x="68.603516"/>
      <use xlink:href="#DejaVuSans-67" x="96.386719"/>
      <use xlink:href="#DejaVuSans-68" x="159.863281"/>
      <use xlink:href="#DejaVuSans-74" x="223.242188"/>
      <use xlink:href="#DejaVuSans-27" x="262.451172"/>
      <use xlink:href="#DejaVuSans-2d" x="289.941406"/>
      <use xlink:href="#DejaVuSans-20" x="326.025391"/>
      <use xlink:href="#DejaVuSans-53" x="357.8125"/>
      <use xlink:href="#DejaVuSans-45" x="421.289062"/>
      <use xlink:href="#DejaVuSans-4d" x="484.472656"/>
     </g>
    </g>
   </g>
  </g>
 </g>
 <defs>
  <clipPath id="p6eaeb54524">
   <rect x="63" y="34.56" width="390.6" height="221.76"/>
  </clipPath>
 </defs>
</svg>
