<?xml version="1.0" encoding="utf-8" standalone="no"?>
<!DOCTYPE svg PUBLIC "-//W3C//DTD SVG 1.1//EN"
  "http://www.w3.org/Graphics/SVG/1.1/DTD/svg11.dtd">
<svg xmlns:xlink="http://www.w3.org/1999/xlink" width="504pt" height="288pt" viewBox="0 0 504 288" xmlns="http://www.w3.org/2000/svg" version="1.1">
 <metadata>
  <rdf:RDF xmlns:dc="http://purl.org/dc/elements/1.1/" xmlns:cc="http://creativecommons.org/ns#" xmlns:rdf="http://www.w3.org/1999/02/22-rdf-syntax-ns#">
   <cc:Work>
    <dc:type rdf:resource="http://purl.org/dc/dcmitype/StillImage"/>
    <dc:date>2023-09-22T12:45:10.632599</dc:date>
    <dc:format>image/svg+xml</dc:format>
    <dc:creator>
     <cc:Agent>
      <dc:title>Matplotlib v3.5.3, https://matplotlib.org/</dc:title>
     </cc:Agent>
    </dc:creator>
   </cc:Work>
  </rdf:RDF>
 </metadata>
 <defs>
  <style type="text/css">*{stroke-linejoin: round; stroke-linecap: butt}</style>
 </defs>
 <g id="figure_1">
  <g id="patch_1">
   <path d="M 0 288 
L 504 288 
L 504 0 
L 0 0 
z
" style="fill: #ffffff"/>
  </g>
  <g id="axes_1">
   <g id="patch_2">
    <path d="M 63 256.32 
L 453.6 256.32 
L 453.6 34.56 
L 63 34.56 
z
" style="fill: #ffffff"/>
   </g>
   <g id="PolyCollection_1">
    <path d="M 80.754545 105.654126 
L 80.754545 130.359471 
L 82.141619 136.113751 
L 83.528693 139.705376 
L 84.915767 142.140545 
L 86.302841 143.995316 
L 87.689915 145.416934 
L 89.076989 146.543523 
L 90.464062 147.811028 
L 91.851136 149.528331 
L 93.23821 151.056882 
L 94.625284 151.104679 
L 96.012358 149.064751 
L 97.399432 145.744305 
L 98.786506 142.692385 
L 100.17358 140.777488 
L 101.560653 139.771757 
L 102.947727 138.936893 
L 104.334801 137.576649 
L 105.721875 135.576057 
L 107.108949 133.479414 
L 108.496023 131.614093 
L 109.883097 129.449474 
L 111.27017 126.075535 
L 112.657244 120.997222 
L 114.044318 114.830764 
L 115.431392 109.423904 
L 116.818466 106.913566 
L 118.20554 108.400787 
L 119.592614 113.185241 
L 120.979687 119.086366 
L 122.366761 123.883081 
L 123.753835 126.772551 
L 125.140909 128.569987 
L 126.527983 130.917804 
L 127.915057 135.200199 
L 129.302131 141.284349 
L 130.689205 147.232291 
L 132.076278 150.479575 
L 133.463352 149.421383 
L 134.850426 144.622989 
L 136.2375 139.079004 
L 137.624574 136.431084 
L 139.011648 138.019541 
L 140.398722 141.844297 
L 141.785795 144.242964 
L 143.172869 142.334056 
L 144.559943 135.675215 
L 145.947017 126.696169 
L 147.334091 119.415048 
L 148.721165 116.830147 
L 150.108239 119.093696 
L 151.495312 123.621205 
L 152.882386 126.648618 
L 154.26946 125.510691 
L 155.656534 120.075138 
L 157.043608 112.256627 
L 158.430682 104.914917 
L 159.817756 100.952427 
L 161.20483 101.970984 
L 162.591903 107.274004 
L 163.978977 114.584317 
L 165.366051 121.626343 
L 166.753125 126.998257 
L 168.140199 130.181949 
L 169.527273 131.080561 
L 170.914347 129.631401 
L 172.30142 126.063674 
L 173.688494 121.404622 
L 175.075568 117.407146 
L 176.462642 115.702072 
L 177.849716 116.684484 
L 179.23679 119.230973 
L 180.623864 121.728071 
L 182.010937 123.214843 
L 183.398011 123.644717 
L 184.785085 123.701767 
L 186.172159 123.992555 
L 187.559233 123.834682 
L 188.946307 122.024009 
L 190.333381 119.062624 
L 191.720455 117.221187 
L 193.107528 118.516745 
L 194.494602 122.964121 
L 195.881676 128.408174 
L 197.26875 131.934063 
L 198.655824 132.250911 
L 200.042898 131.09963 
L 201.429972 131.603206 
L 202.817045 135.031302 
L 204.204119 139.557423 
L 205.591193 142.201024 
L 206.978267 141.642242 
L 208.365341 139.186379 
L 209.752415 137.500876 
L 211.139489 138.676685 
L 212.526563 143.114893 
L 213.913636 149.584672 
L 215.30071 156.259073 
L 216.687784 162.02578 
L 218.074858 166.441658 
L 219.461932 168.736189 
L 220.849006 168.193752 
L 222.23608 165.703483 
L 223.623153 163.751122 
L 225.010227 164.294082 
L 226.397301 166.410205 
L 227.784375 165.690099 
L 229.171449 156.958707 
L 230.558523 139.152966 
L 231.945597 117.560549 
L 233.33267 100.570652 
L 234.719744 93.863842 
L 236.106818 96.828235 
L 237.493892 103.596869 
L 238.880966 107.894744 
L 240.26804 107.766735 
L 241.655114 106.041657 
L 243.042188 106.544661 
L 244.429261 110.062766 
L 245.816335 113.869083 
L 247.203409 115.071639 
L 248.590483 114.443975 
L 249.977557 116.766287 
L 251.364631 126.946239 
L 252.751705 145.292706 
L 254.138778 166.142504 
L 255.525852 181.596216 
L 256.912926 187.621061 
L 258.3 186.612743 
L 259.687074 184.335984 
L 261.074148 184.833618 
L 262.461222 187.82612 
L 263.848295 190.357609 
L 265.235369 190.804911 
L 266.622443 191.036272 
L 268.009517 194.363615 
L 269.396591 201.550928 
L 270.783665 208.929507 
L 272.170739 210.774528 
L 273.557813 204.455987 
L 274.944886 193.43142 
L 276.33196 184.765425 
L 277.719034 183.494917 
L 279.106108 188.884935 
L 280.493182 195.410789 
L 281.880256 197.439533 
L 283.26733 193.760756 
L 284.654403 188.210801 
L 286.041477 186.032928 
L 287.428551 189.191749 
L 288.815625 194.731149 
L 290.202699 197.649613 
L 291.589773 195.307062 
L 292.976847 189.185854 
L 294.36392 183.245813 
L 295.750994 180.756542 
L 297.138068 181.45901 
L 298.525142 181.475259 
L 299.912216 176.698468 
L 301.29929 166.28359 
L 302.686364 153.289828 
L 304.073438 142.723153 
L 305.460511 138.502404 
L 306.847585 141.467459 
L 308.234659 149.61402 
L 309.621733 159.488221 
L 311.008807 167.748475 
L 312.395881 172.487054 
L 313.782955 173.434948 
L 315.170028 171.318709 
L 316.557102 167.627614 
L 317.944176 164.417372 
L 319.33125 163.4419 
L 320.718324 165.507797 
L 322.105398 170.422908 
L 323.492472 176.908447 
L 324.879545 182.898462 
L 326.266619 186.607341 
L 327.653693 187.253007 
L 329.040767 184.922683 
L 330.427841 180.284043 
L 331.814915 174.39266 
L 333.201989 168.401152 
L 334.589063 163.26662 
L 335.976136 159.543151 
L 337.36321 157.130361 
L 338.750284 155.02489 
L 340.137358 151.518353 
L 341.524432 145.056577 
L 342.911506 135.089621 
L 344.29858 122.376096 
L 345.685653 109.110432 
L 347.072727 98.698658 
L 348.459801 94.277338 
L 349.846875 96.677634 
L 351.233949 103.702495 
L 352.621023 111.221879 
L 354.008097 115.515299 
L 355.39517 115.768584 
L 356.782244 114.777197 
L 358.169318 116.556481 
L 359.556392 122.777932 
L 360.943466 131.545719 
L 362.33054 139.202644 
L 363.717614 143.158625 
L 365.104688 143.821172 
L 366.491761 144.32729 
L 367.878835 147.661531 
L 369.265909 153.674632 
L 370.652983 159.166582 
L 372.040057 160.947501 
L 373.427131 158.687012 
L 374.814205 154.693076 
L 376.201278 151.270631 
L 377.588352 148.904031 
L 378.975426 146.853577 
L 380.3625 144.827337 
L 381.749574 143.715375 
L 383.136648 144.868069 
L 384.523722 148.543922 
L 385.910795 152.990208 
L 387.297869 155.706333 
L 388.684943 155.933706 
L 390.072017 155.490099 
L 391.459091 156.939669 
L 392.846165 161.053146 
L 394.233239 165.881568 
L 395.620313 168.297316 
L 397.007386 166.787032 
L 398.39446 162.898087 
L 399.781534 159.930557 
L 401.168608 160.153532 
L 402.555682 163.081861 
L 403.942756 166.360588 
L 405.32983 168.301452 
L 406.716903 169.152561 
L 408.103977 169.679593 
L 409.491051 169.035484 
L 410.878125 164.844673 
L 412.265199 155.756892 
L 413.652273 143.674456 
L 415.039347 133.057391 
L 416.42642 127.773007 
L 417.813494 128.255477 
L 419.200568 131.348248 
L 420.587642 132.954321 
L 421.974716 131.23176 
L 423.36179 127.734597 
L 424.748864 125.731615 
L 426.135938 127.334761 
L 427.523011 132.106808 
L 428.910085 137.864472 
L 430.297159 142.2071 
L 431.684233 143.832086 
L 433.071307 143.249312 
L 434.458381 141.827097 
L 435.845455 140.383043 
L 435.845455 107.042259 
L 435.845455 107.042259 
L 434.458381 107.833201 
L 433.071307 108.604717 
L 431.684233 107.390709 
L 430.297159 103.324612 
L 428.910085 96.678974 
L 427.523011 89.081398 
L 426.135938 83.506625 
L 424.748864 82.349628 
L 423.36179 85.165679 
L 421.974716 88.652215 
L 420.587642 89.097186 
L 419.200568 85.511684 
L 417.813494 80.963656 
L 416.42642 80.549471 
L 415.039347 87.378589 
L 413.652273 99.97871 
L 412.265199 113.380783 
L 410.878125 122.823435 
L 409.491051 126.650342 
L 408.103977 126.220468 
L 406.716903 123.727875 
L 405.32983 120.302441 
L 403.942756 115.873906 
L 402.555682 110.421029 
L 401.168608 105.036035 
L 399.781534 101.495504 
L 398.39446 100.502056 
L 397.007386 100.479751 
L 395.620313 98.755553 
L 394.233239 94.224369 
L 392.846165 88.652927 
L 391.459091 85.125722 
L 390.072017 85.046594 
L 388.684943 86.764901 
L 387.297869 87.40268 
L 385.910795 85.854588 
L 384.523722 83.729607 
L 383.136648 83.628 
L 381.749574 86.647507 
L 380.3625 91.403372 
L 378.975426 95.611913 
L 377.588352 98.68506 
L 376.201278 102.085097 
L 374.814205 106.893869 
L 373.427131 111.752564 
L 372.040057 113.717327 
L 370.652983 111.084925 
L 369.265909 105.261775 
L 367.878835 99.993898 
L 366.491761 98.468488 
L 365.104688 100.581856 
L 363.717614 102.765179 
L 362.33054 100.808795 
L 360.943466 93.654472 
L 359.556392 84.586303 
L 358.169318 78.096048 
L 356.782244 75.712178 
L 355.39517 75.045908 
L 354.008097 72.270453 
L 352.621023 65.318655 
L 351.233949 55.636676 
L 349.846875 47.402389 
L 348.459801 44.64 
L 347.072727 48.636638 
L 345.685653 57.730438 
L 344.29858 68.840653 
L 342.911506 78.927896 
L 341.524432 86.022002 
L 340.137358 89.782214 
L 338.750284 91.14207 
L 337.36321 91.515598 
L 335.976136 92.311603 
L 334.589063 94.547123 
L 333.201989 98.356384 
L 331.814915 102.923851 
L 330.427841 107.056739 
L 329.040767 109.805936 
L 327.653693 110.574864 
L 326.266619 108.974544 
L 324.879545 104.967862 
L 323.492472 99.138134 
L 322.105398 92.737574 
L 320.718324 87.602916 
L 319.33125 85.57811 
L 317.944176 87.312329 
L 316.557102 91.80133 
L 315.170028 97.220402 
L 313.782955 101.676702 
L 312.395881 103.480189 
L 311.008807 101.735853 
L 309.621733 96.901685 
L 308.234659 90.846959 
L 306.847585 86.740167 
L 305.460511 88.099884 
L 304.073438 96.590558 
L 302.686364 110.425865 
L 301.29929 125.028804 
L 299.912216 135.516784 
L 298.525142 139.645217 
L 297.138068 139.048857 
L 295.750994 137.601126 
L 294.36392 138.516369 
L 292.976847 142.06484 
L 291.589773 145.125278 
L 290.202699 143.822352 
L 288.815625 137.321725 
L 287.428551 128.748783 
L 286.041477 122.62919 
L 284.654403 121.420745 
L 283.26733 123.641244 
L 281.880256 125.022249 
L 280.493182 122.226574 
L 279.106108 116.15277 
L 277.719034 111.745734 
L 276.33196 114.089681 
L 274.944886 123.908697 
L 273.557813 136.542485 
L 272.170739 145.357842 
L 270.783665 146.511619 
L 269.396591 141.337097 
L 268.009517 134.805408 
L 266.622443 131.218817 
L 265.235369 130.849228 
L 263.848295 130.830077 
L 262.461222 129.004818 
L 261.074148 126.545229 
L 259.687074 126.686401 
L 258.3 130.594396 
L 256.912926 134.686261 
L 255.525852 132.812687 
L 254.138778 121.539295 
L 252.751705 103.589074 
L 251.364631 86.502154 
L 249.977557 77.271942 
L 248.590483 76.955898 
L 247.203409 80.400443 
L 245.816335 81.376876 
L 244.429261 77.983498 
L 243.042188 73.334463 
L 241.655114 71.272855 
L 240.26804 71.735393 
L 238.880966 70.670243 
L 237.493892 64.599507 
L 236.106818 55.162858 
L 234.719744 49.046922 
L 233.33267 52.922374 
L 231.945597 67.617151 
L 230.558523 87.035412 
L 229.171449 102.90529 
L 227.784375 110.588481 
L 226.397301 111.223839 
L 225.010227 109.647147 
L 223.623153 110.153214 
L 222.23608 113.361813 
L 220.849006 116.854134 
L 219.461932 118.244654 
L 218.074858 116.921364 
L 216.687784 113.601202 
L 215.30071 109.253659 
L 213.913636 104.346665 
L 212.526563 99.124124 
L 211.139489 94.753566 
L 209.752415 93.230552 
L 208.365341 95.214828 
L 206.978267 98.649184 
L 205.591193 100.304362 
L 204.204119 98.732395 
L 202.817045 95.51374 
L 201.429972 93.60485 
L 200.042898 94.572395 
L 198.655824 97.220455 
L 197.26875 98.543835 
L 195.881676 96.226269 
L 194.494602 90.915925 
L 193.107528 86.151572 
L 191.720455 85.357261 
L 190.333381 88.936686 
L 188.946307 94.4982 
L 187.559233 99.262688 
L 186.172159 101.774677 
L 184.785085 102.110023 
L 183.398011 101.350164 
L 182.010937 100.044276 
L 180.623864 97.505357 
L 179.23679 93.447299 
L 177.849716 89.296329 
L 176.462642 87.233844 
L 175.075568 88.489154 
L 173.688494 92.541809 
L 172.30142 97.552545 
L 170.914347 101.569262 
L 169.527273 103.439076 
L 168.140199 102.772027 
L 166.753125 99.510164 
L 165.366051 93.807416 
L 163.978977 86.375024 
L 162.591903 78.901461 
L 161.20483 73.71686 
L 159.817756 72.754087 
L 158.430682 76.740902 
L 157.043608 84.663246 
L 155.656534 93.580555 
L 154.26946 99.874003 
L 152.882386 101.482089 
L 151.495312 98.940794 
L 150.108239 94.819873 
L 148.721165 92.556257 
L 147.334091 94.677154 
L 145.947017 101.100748 
L 144.559943 109.037263 
L 143.172869 114.568034 
L 141.785795 115.106015 
L 140.398722 111.423796 
L 139.011648 107.198403 
L 137.624574 106.092157 
L 136.2375 109.167319 
L 134.850426 114.651836 
L 133.463352 119.318019 
L 132.076278 120.324891 
L 130.689205 117.097642 
L 129.302131 111.729569 
L 127.915057 107.122608 
L 126.527983 104.758005 
L 125.140909 103.965396 
L 123.753835 102.663733 
L 122.366761 99.044882 
L 120.979687 93.213032 
L 119.592614 87.144548 
L 118.20554 83.311797 
L 116.818466 83.361705 
L 115.431392 87.36939 
L 114.044318 93.891606 
L 112.657244 100.882971 
L 111.27017 106.76766 
L 109.883097 110.997873 
L 108.496023 113.944054 
L 107.108949 116.131257 
L 105.721875 117.692816 
L 104.334801 118.675455 
L 102.947727 119.292197 
L 101.560653 119.943189 
L 100.17358 121.200248 
L 98.786506 123.277688 
L 97.399432 125.542904 
L 96.012358 127.117969 
L 94.625284 127.612607 
L 93.23821 127.022612 
L 91.851136 125.450058 
L 90.464062 123.070222 
L 89.076989 120.354148 
L 87.689915 117.881596 
L 86.302841 115.867837 
L 84.915767 114.193735 
L 83.528693 112.525327 
L 82.141619 110.089405 
L 80.754545 105.654126 
z
" clip-path="url(#p2bfc53ed44)" style="fill: #1f77b4; fill-opacity: 0.2"/>
   </g>
   <g id="PolyCollection_2">
    <path d="M 80.754545 98.607492 
L 80.754545 125.258625 
L 82.141619 120.893113 
L 83.528693 116.047894 
L 84.915767 111.054465 
L 86.302841 105.986166 
L 87.689915 102.026781 
L 89.076989 101.404875 
L 90.464062 105.539999 
L 91.851136 113.30252 
L 93.23821 120.941784 
L 94.625284 124.139372 
L 96.012358 121.183137 
L 97.399432 114.570259 
L 98.786506 109.164093 
L 100.17358 108.4316 
L 101.560653 112.204253 
L 102.947727 117.561386 
L 104.334801 121.427374 
L 105.721875 122.710286 
L 107.108949 122.58408 
L 108.496023 122.531593 
L 109.883097 122.458653 
L 111.27017 121.28727 
L 112.657244 118.723562 
L 114.044318 115.983596 
L 115.431392 114.95172 
L 116.818466 116.237324 
L 118.20554 118.149379 
L 119.592614 118.390679 
L 120.979687 116.715274 
L 122.366761 115.470062 
L 123.753835 117.438954 
L 125.140909 122.942535 
L 126.527983 128.897211 
L 127.915057 131.206278 
L 129.302131 128.304304 
L 130.689205 122.947175 
L 132.076278 121.320229 
L 133.463352 128.960913 
L 134.850426 146.435498 
L 136.2375 168.543651 
L 137.624574 187.763774 
L 139.011648 199.24836 
L 140.398722 203.073452 
L 141.785795 202.29643 
L 143.172869 199.466409 
L 144.559943 195.215142 
L 145.947017 189.755253 
L 147.334091 184.610345 
L 148.721165 181.967887 
L 150.108239 182.377537 
L 151.495312 183.620966 
L 152.882386 182.213016 
L 154.26946 176.407532 
L 155.656534 168.21795 
L 157.043608 162.398642 
L 158.430682 162.609404 
L 159.817756 167.864584 
L 161.20483 172.928178 
L 162.591903 172.596795 
L 163.978977 165.440404 
L 165.366051 153.999062 
L 166.753125 142.535404 
L 168.140199 134.30574 
L 169.527273 129.496324 
L 170.914347 126.048936 
L 172.30142 122.885902 
L 173.688494 120.437061 
L 175.075568 119.075594 
L 176.462642 118.135421 
L 177.849716 116.371838 
L 179.23679 113.66103 
L 180.623864 111.991612 
L 182.010937 113.945797 
L 183.398011 120.296033 
L 184.785085 129.13757 
L 186.172159 137.091896 
L 187.559233 142.050701 
L 188.946307 144.828513 
L 190.333381 147.696715 
L 191.720455 151.888064 
L 193.107528 156.712747 
L 194.494602 160.511148 
L 195.881676 162.466701 
L 197.26875 163.66996 
L 198.655824 166.293414 
L 200.042898 171.807278 
L 201.429972 179.747488 
L 202.817045 187.887253 
L 204.204119 193.953087 
L 205.591193 197.380059 
L 206.978267 199.239072 
L 208.365341 200.983975 
L 209.752415 203.596242 
L 211.139489 207.36345 
L 212.526563 212.139262 
L 213.913636 217.943654 
L 215.30071 225.091912 
L 216.687784 233.339809 
L 218.074858 241.096504 
L 219.461932 245.978891 
L 220.849006 246.24 
L 222.23608 241.749234 
L 223.623153 234.282131 
L 225.010227 227.097934 
L 226.397301 223.340078 
L 227.784375 224.12417 
L 229.171449 227.991447 
L 230.558523 231.824945 
L 231.945597 232.44003 
L 233.33267 228.486967 
L 234.719744 221.582264 
L 236.106818 215.394021 
L 237.493892 213.171176 
L 238.880966 215.535366 
L 240.26804 220.125967 
L 241.655114 223.337681 
L 243.042188 222.727362 
L 244.429261 218.309761 
L 245.816335 212.043705 
L 247.203409 206.106329 
L 248.590483 201.389462 
L 249.977557 197.324248 
L 251.364631 192.703747 
L 252.751705 186.464383 
L 254.138778 178.14901 
L 255.525852 168.121981 
L 256.912926 157.291848 
L 258.3 146.579372 
L 259.687074 136.765726 
L 261.074148 128.671352 
L 262.461222 122.816196 
L 263.848295 118.608174 
L 265.235369 114.33282 
L 266.622443 108.47676 
L 268.009517 101.577016 
L 269.396591 96.921666 
L 270.783665 98.583227 
L 272.170739 108.078453 
L 273.557813 123.216809 
L 274.944886 139.413099 
L 276.33196 151.741483 
L 277.719034 157.253913 
L 279.106108 156.548173 
L 280.493182 153.203664 
L 281.880256 151.572529 
L 283.26733 154.49571 
L 284.654403 161.867936 
L 286.041477 170.738818 
L 287.428551 177.147744 
L 288.815625 178.588722 
L 290.202699 175.561719 
L 291.589773 171.180287 
L 292.976847 169.100941 
L 294.36392 171.439187 
L 295.750994 177.881065 
L 297.138068 186.104499 
L 298.525142 193.432564 
L 299.912216 198.734425 
L 301.29929 202.878099 
L 302.686364 207.593721 
L 304.073438 214.079097 
L 305.460511 222.169954 
L 306.847585 230.442272 
L 308.234659 237.22599 
L 309.621733 241.437861 
L 311.008807 242.645343 
L 312.395881 241.067335 
L 313.782955 237.594878 
L 315.170028 233.352556 
L 316.557102 229.280926 
L 317.944176 225.864334 
L 319.33125 222.656984 
L 320.718324 218.611561 
L 322.105398 213.606202 
L 323.492472 208.600529 
L 324.879545 203.66328 
L 326.266619 196.99673 
L 327.653693 186.567532 
L 329.040767 172.575747 
L 330.427841 158.582524 
L 331.814915 149.66499 
L 333.201989 148.104233 
L 334.589063 150.84874 
L 335.976136 152.070333 
L 337.36321 148.361816 
L 338.750284 141.815863 
L 340.137358 138.578777 
L 341.524432 143.405807 
L 342.911506 154.599908 
L 344.29858 164.820575 
L 345.685653 167.589706 
L 347.072727 163.144671 
L 348.459801 158.163115 
L 349.846875 159.727824 
L 351.233949 168.781488 
L 352.621023 178.963704 
L 354.008097 182.192335 
L 355.39517 175.787939 
L 356.782244 164.316511 
L 358.169318 154.822263 
L 359.556392 150.586006 
L 360.943466 149.367314 
L 362.33054 147.195818 
L 363.717614 143.407154 
L 365.104688 141.814923 
L 366.491761 146.975788 
L 367.878835 159.048249 
L 369.265909 172.299381 
L 370.652983 179.48602 
L 372.040057 178.106302 
L 373.427131 172.106695 
L 374.814205 167.705045 
L 376.201278 168.001528 
L 377.588352 171.262322 
L 378.975426 173.662445 
L 380.3625 173.333743 
L 381.749574 171.636837 
L 383.136648 170.850725 
L 384.523722 171.046675 
L 385.910795 169.249552 
L 387.297869 162.104786 
L 388.684943 149.789937 
L 390.072017 136.764977 
L 391.459091 128.368934 
L 392.846165 126.83322 
L 394.233239 130.074965 
L 395.620313 134.01524 
L 397.007386 136.267682 
L 398.39446 137.540656 
L 399.781534 139.828781 
L 401.168608 143.793696 
L 402.555682 148.097025 
L 403.942756 151.202101 
L 405.32983 152.961335 
L 406.716903 154.021669 
L 408.103977 154.777977 
L 409.491051 154.798238 
L 410.878125 152.305642 
L 412.265199 146.079667 
L 413.652273 138.318168 
L 415.039347 133.313621 
L 416.42642 133.56216 
L 417.813494 137.969646 
L 419.200568 142.757938 
L 420.587642 144.185018 
L 421.974716 141.394783 
L 423.36179 136.425233 
L 424.748864 132.170673 
L 426.135938 130.585194 
L 427.523011 131.424119 
L 428.910085 132.906707 
L 430.297159 134.372694 
L 431.684233 136.958564 
L 433.071307 141.559225 
L 434.458381 147.910701 
L 435.845455 155.392512 
L 435.845455 107.165305 
L 435.845455 107.165305 
L 434.458381 98.809848 
L 433.071307 92.367822 
L 431.684233 88.8267 
L 430.297159 87.263569 
L 428.910085 86.151726 
L 427.523011 85.074765 
L 426.135938 84.734882 
L 424.748864 86.495782 
L 423.36179 91.276984 
L 421.974716 97.464212 
L 420.587642 101.190698 
L 419.200568 99.767079 
L 417.813494 94.131432 
L 416.42642 88.303719 
L 415.039347 86.628812 
L 413.652273 90.411785 
L 412.265199 97.366637 
L 410.878125 103.987746 
L 409.491051 107.528007 
L 408.103977 107.192258 
L 406.716903 104.646624 
L 405.32983 101.782022 
L 403.942756 98.542766 
L 402.555682 94.312293 
L 401.168608 89.592015 
L 399.781534 85.43847 
L 398.39446 82.240279 
L 397.007386 79.26049 
L 395.620313 75.40025 
L 394.233239 70.79778 
L 392.846165 67.548208 
L 391.459091 68.482826 
L 390.072017 74.694852 
L 388.684943 83.865134 
L 387.297869 91.555215 
L 385.910795 94.52531 
L 384.523722 92.91716 
L 383.136648 89.723463 
L 381.749574 87.967069 
L 380.3625 87.934464 
L 378.975426 87.568316 
L 377.588352 85.675871 
L 376.201278 84.005296 
L 374.814205 85.68179 
L 373.427131 91.494858 
L 372.040057 97.971105 
L 370.652983 99.756415 
L 369.265909 94.1976 
L 367.878835 83.751796 
L 366.491761 74.22081 
L 365.104688 70.274337 
L 363.717614 71.816738 
L 362.33054 74.697167 
L 360.943466 75.513716 
L 359.556392 75.39652 
L 358.169318 78.519498 
L 356.782244 86.916108 
L 355.39517 97.130412 
L 354.008097 102.44797 
L 352.621023 98.822451 
L 351.233949 88.890388 
L 349.846875 80.19445 
L 348.459801 78.909875 
L 347.072727 84.438629 
L 345.685653 89.954692 
L 344.29858 88.790578 
L 342.911506 80.636463 
L 341.524432 71.652157 
L 340.137358 68.842799 
L 338.750284 74.051338 
L 337.36321 82.524234 
L 335.976136 87.291067 
L 334.589063 85.650218 
L 333.201989 81.391739 
L 331.814915 80.783518 
L 330.427841 87.14811 
L 329.040767 98.775643 
L 327.653693 110.808184 
L 326.266619 119.228188 
L 324.879545 123.570244 
L 323.492472 125.944535 
L 322.105398 128.243125 
L 320.718324 130.832219 
L 319.33125 132.983636 
L 317.944176 134.056195 
L 316.557102 134.793865 
L 315.170028 136.987917 
L 313.782955 141.193704 
L 312.395881 145.618874 
L 311.008807 147.641454 
L 309.621733 145.800247 
L 308.234659 140.466602 
L 306.847585 133.359262 
L 305.460511 126.380397 
L 304.073438 120.662322 
L 302.686364 116.547222 
L 301.29929 113.818907 
L 299.912216 111.643226 
L 298.525142 108.949019 
L 297.138068 105.348221 
L 295.750994 101.736368 
L 294.36392 100.09622 
L 292.976847 102.288144 
L 291.589773 108.267206 
L 290.202699 115.482156 
L 288.815625 120.416306 
L 287.428551 120.816835 
L 286.041477 116.89412 
L 284.654403 111.06199 
L 283.26733 106.530504 
L 281.880256 105.566217 
L 280.493182 108.207247 
L 279.106108 111.948773 
L 277.719034 112.899278 
L 276.33196 107.951773 
L 274.944886 96.621769 
L 273.557813 81.701797 
L 272.170739 68.156179 
L 270.783665 60.22397 
L 269.396591 58.939177 
L 268.009517 62.52128 
L 266.622443 68.315122 
L 265.235369 74.081759 
L 263.848295 78.848231 
L 262.461222 83.04606 
L 261.074148 87.656447 
L 259.687074 93.276945 
L 258.3 99.833709 
L 256.912926 106.870001 
L 255.525852 114.043584 
L 254.138778 121.118182 
L 252.751705 127.397278 
L 251.364631 131.731238 
L 249.977557 133.666092 
L 248.590483 134.459735 
L 247.203409 136.333704 
L 245.816335 140.492796 
L 244.429261 145.91773 
L 243.042188 150.012014 
L 241.655114 150.607176 
L 240.26804 147.808861 
L 238.880966 144.133328 
L 237.493892 142.741791 
L 236.106818 145.228099 
L 234.719744 150.577348 
L 233.33267 155.858592 
L 231.945597 158.060131 
L 230.558523 155.834628 
L 229.171449 150.304124 
L 227.784375 144.600737 
L 226.397301 142.091139 
L 225.010227 144.39694 
L 223.623153 150.703216 
L 222.23608 158.263037 
L 220.849006 163.550131 
L 219.461932 164.079321 
L 218.074858 159.86963 
L 216.687784 153.037887 
L 215.30071 146.081669 
L 213.913636 140.561834 
L 212.526563 136.77316 
L 211.139489 134.232466 
L 209.752415 132.660228 
L 208.365341 132.500517 
L 206.978267 134.058693 
L 205.591193 136.177996 
L 204.204119 136.509684 
L 202.817045 133.472912 
L 201.429972 127.777715 
L 200.042898 122.171081 
L 198.655824 119.574466 
L 197.26875 120.613619 
L 195.881676 122.844678 
L 194.494602 122.911731 
L 193.107528 119.545026 
L 191.720455 114.502396 
L 190.333381 110.710045 
L 188.946307 109.271332 
L 187.559233 108.438355 
L 186.172159 105.607769 
L 184.785085 99.863634 
L 183.398011 92.82029 
L 182.010937 87.541814 
L 180.623864 86.048731 
L 179.23679 87.67352 
L 177.849716 90.194557 
L 176.462642 92.01718 
L 175.075568 93.288368 
L 173.688494 95.393526 
L 172.30142 99.231796 
L 170.914347 104.290811 
L 169.527273 109.657277 
L 168.140199 115.088177 
L 166.753125 121.114703 
L 165.366051 128.497183 
L 163.978977 135.870437 
L 162.591903 139.30923 
L 161.20483 135.763867 
L 159.817756 126.267763 
L 158.430682 115.430327 
L 157.043608 108.159999 
L 155.656534 106.401827 
L 154.26946 108.01839 
L 152.882386 108.954363 
L 151.495312 107.055791 
L 150.108239 103.887351 
L 148.721165 102.830269 
L 147.334091 105.751646 
L 145.947017 111.776368 
L 144.559943 118.811919 
L 143.172869 125.50924 
L 141.785795 131.569553 
L 140.398722 136.455838 
L 139.011648 138.171996 
L 137.624574 133.862364 
L 136.2375 122.396901 
L 134.850426 106.763435 
L 133.463352 93.536283 
L 132.076278 88.818388 
L 130.689205 93.459476 
L 129.302131 102.037245 
L 127.915057 106.882742 
L 126.527983 104.099062 
L 125.140909 96.301045 
L 123.753835 89.206973 
L 122.366761 86.413978 
L 120.979687 87.201769 
L 119.592614 88.406615 
L 118.20554 88.047852 
L 116.818466 86.922588 
L 115.431392 87.106237 
L 114.044318 89.618555 
L 112.657244 93.4658 
L 111.27017 96.622799 
L 109.883097 98.118868 
L 108.496023 98.785361 
L 107.108949 99.616944 
L 105.721875 100.128377 
L 104.334801 98.602026 
L 102.947727 93.75466 
L 101.560653 86.69307 
L 100.17358 81.039855 
L 98.786506 80.124242 
L 97.399432 83.913015 
L 96.012358 88.753928 
L 94.625284 90.008142 
L 93.23821 85.359803 
L 91.851136 76.470458 
L 90.464062 67.848393 
L 89.076989 63.673678 
L 87.689915 65.175981 
L 86.302841 70.780248 
L 84.915767 78.157841 
L 83.528693 85.711779 
L 82.141619 92.706526 
L 80.754545 98.607492 
z
" clip-path="url(#p2bfc53ed44)" style="fill: #ff7f0e; fill-opacity: 0.2"/>
   </g>
   <g id="matplotlib.axis_1">
    <g id="xtick_1">
     <g id="line2d_1">
      <defs>
       <path id="m46a66c893a" d="M 0 0 
L 0 3.5 
" style="stroke: #000000; stroke-width: 0.8"/>
      </defs>
      <g>
       <use xlink:href="#m46a66c893a" x="116.541051" y="256.32" style="stroke: #000000; stroke-width: 0.8"/>
      </g>
     </g>
     <g id="text_1">
      <!-- −0.2 -->
      <g transform="translate(97.114801 275.4775)scale(0.16 -0.16)">
       <defs>
        <path id="DejaVuSans-2212" d="M 678 2272 
L 4684 2272 
L 4684 1741 
L 678 1741 
L 678 2272 
z
" transform="scale(0.015625)"/>
        <path id="DejaVuSans-30" d="M 2034 4250 
Q 1547 4250 1301 3770 
Q 1056 3291 1056 2328 
Q 1056 1369 1301 889 
Q 1547 409 2034 409 
Q 2525 409 2770 889 
Q 3016 1369 3016 2328 
Q 3016 3291 2770 3770 
Q 2525 4250 2034 4250 
z
M 2034 4750 
Q 2819 4750 3233 4129 
Q 3647 3509 3647 2328 
Q 3647 1150 3233 529 
Q 2819 -91 2034 -91 
Q 1250 -91 836 529 
Q 422 1150 422 2328 
Q 422 3509 836 4129 
Q 1250 4750 2034 4750 
z
" transform="scale(0.015625)"/>
        <path id="DejaVuSans-2e" d="M 684 794 
L 1344 794 
L 1344 0 
L 684 0 
L 684 794 
z
" transform="scale(0.015625)"/>
        <path id="DejaVuSans-32" d="M 1228 531 
L 3431 531 
L 3431 0 
L 469 0 
L 469 531 
Q 828 903 1448 1529 
Q 2069 2156 2228 2338 
Q 2531 2678 2651 2914 
Q 2772 3150 2772 3378 
Q 2772 3750 2511 3984 
Q 2250 4219 1831 4219 
Q 1534 4219 1204 4116 
Q 875 4013 500 3803 
L 500 4441 
Q 881 4594 1212 4672 
Q 1544 4750 1819 4750 
Q 2544 4750 2975 4387 
Q 3406 4025 3406 3419 
Q 3406 3131 3298 2873 
Q 3191 2616 2906 2266 
Q 2828 2175 2409 1742 
Q 1991 1309 1228 531 
z
" transform="scale(0.015625)"/>
       </defs>
       <use xlink:href="#DejaVuSans-2212"/>
       <use xlink:href="#DejaVuSans-30" x="83.789062"/>
       <use xlink:href="#DejaVuSans-2e" x="147.412109"/>
       <use xlink:href="#DejaVuSans-32" x="179.199219"/>
      </g>
     </g>
    </g>
    <g id="xtick_2">
     <g id="line2d_2">
      <g>
       <use xlink:href="#m46a66c893a" x="187.559233" y="256.32" style="stroke: #000000; stroke-width: 0.8"/>
      </g>
     </g>
     <g id="text_2">
      <!-- 0.0 -->
      <g transform="translate(174.836733 275.4775)scale(0.16 -0.16)">
       <use xlink:href="#DejaVuSans-30"/>
       <use xlink:href="#DejaVuSans-2e" x="63.623047"/>
       <use xlink:href="#DejaVuSans-30" x="95.410156"/>
      </g>
     </g>
    </g>
    <g id="xtick_3">
     <g id="line2d_3">
      <g>
       <use xlink:href="#m46a66c893a" x="258.577415" y="256.32" style="stroke: #000000; stroke-width: 0.8"/>
      </g>
     </g>
     <g id="text_3">
      <!-- 0.2 -->
      <g transform="translate(245.854915 275.4775)scale(0.16 -0.16)">
       <use xlink:href="#DejaVuSans-30"/>
       <use xlink:href="#DejaVuSans-2e" x="63.623047"/>
       <use xlink:href="#DejaVuSans-32" x="95.410156"/>
      </g>
     </g>
    </g>
    <g id="xtick_4">
     <g id="line2d_4">
      <g>
       <use xlink:href="#m46a66c893a" x="329.595597" y="256.32" style="stroke: #000000; stroke-width: 0.8"/>
      </g>
     </g>
     <g id="text_4">
      <!-- 0.4 -->
      <g transform="translate(316.873097 275.4775)scale(0.16 -0.16)">
       <defs>
        <path id="DejaVuSans-34" d="M 2419 4116 
L 825 1625 
L 2419 1625 
L 2419 4116 
z
M 2253 4666 
L 3047 4666 
L 3047 1625 
L 3713 1625 
L 3713 1100 
L 3047 1100 
L 3047 0 
L 2419 0 
L 2419 1100 
L 313 1100 
L 313 1709 
L 2253 4666 
z
" transform="scale(0.015625)"/>
       </defs>
       <use xlink:href="#DejaVuSans-30"/>
       <use xlink:href="#DejaVuSans-2e" x="63.623047"/>
       <use xlink:href="#DejaVuSans-34" x="95.410156"/>
      </g>
     </g>
    </g>
    <g id="xtick_5">
     <g id="line2d_5">
      <g>
       <use xlink:href="#m46a66c893a" x="400.613778" y="256.32" style="stroke: #000000; stroke-width: 0.8"/>
      </g>
     </g>
     <g id="text_5">
      <!-- 0.6 -->
      <g transform="translate(387.891278 275.4775)scale(0.16 -0.16)">
       <defs>
        <path id="DejaVuSans-36" d="M 2113 2584 
Q 1688 2584 1439 2293 
Q 1191 2003 1191 1497 
Q 1191 994 1439 701 
Q 1688 409 2113 409 
Q 2538 409 2786 701 
Q 3034 994 3034 1497 
Q 3034 2003 2786 2293 
Q 2538 2584 2113 2584 
z
M 3366 4563 
L 3366 3988 
Q 3128 4100 2886 4159 
Q 2644 4219 2406 4219 
Q 1781 4219 1451 3797 
Q 1122 3375 1075 2522 
Q 1259 2794 1537 2939 
Q 1816 3084 2150 3084 
Q 2853 3084 3261 2657 
Q 3669 2231 3669 1497 
Q 3669 778 3244 343 
Q 2819 -91 2113 -91 
Q 1303 -91 875 529 
Q 447 1150 447 2328 
Q 447 3434 972 4092 
Q 1497 4750 2381 4750 
Q 2619 4750 2861 4703 
Q 3103 4656 3366 4563 
z
" transform="scale(0.015625)"/>
       </defs>
       <use xlink:href="#DejaVuSans-30"/>
       <use xlink:href="#DejaVuSans-2e" x="63.623047"/>
       <use xlink:href="#DejaVuSans-36" x="95.410156"/>
      </g>
     </g>
    </g>
    <g id="text_6">
     <!-- Time from event (s) -->
     <g transform="translate(169.41375 296.482188)scale(0.18 -0.18)">
      <defs>
       <path id="DejaVuSans-54" d="M -19 4666 
L 3928 4666 
L 3928 4134 
L 2272 4134 
L 2272 0 
L 1638 0 
L 1638 4134 
L -19 4134 
L -19 4666 
z
" transform="scale(0.015625)"/>
       <path id="DejaVuSans-69" d="M 603 3500 
L 1178 3500 
L 1178 0 
L 603 0 
L 603 3500 
z
M 603 4863 
L 1178 4863 
L 1178 4134 
L 603 4134 
L 603 4863 
z
" transform="scale(0.015625)"/>
       <path id="DejaVuSans-6d" d="M 3328 2828 
Q 3544 3216 3844 3400 
Q 4144 3584 4550 3584 
Q 5097 3584 5394 3201 
Q 5691 2819 5691 2113 
L 5691 0 
L 5113 0 
L 5113 2094 
Q 5113 2597 4934 2840 
Q 4756 3084 4391 3084 
Q 3944 3084 3684 2787 
Q 3425 2491 3425 1978 
L 3425 0 
L 2847 0 
L 2847 2094 
Q 2847 2600 2669 2842 
Q 2491 3084 2119 3084 
Q 1678 3084 1418 2786 
Q 1159 2488 1159 1978 
L 1159 0 
L 581 0 
L 581 3500 
L 1159 3500 
L 1159 2956 
Q 1356 3278 1631 3431 
Q 1906 3584 2284 3584 
Q 2666 3584 2933 3390 
Q 3200 3197 3328 2828 
z
" transform="scale(0.015625)"/>
       <path id="DejaVuSans-65" d="M 3597 1894 
L 3597 1613 
L 953 1613 
Q 991 1019 1311 708 
Q 1631 397 2203 397 
Q 2534 397 2845 478 
Q 3156 559 3463 722 
L 3463 178 
Q 3153 47 2828 -22 
Q 2503 -91 2169 -91 
Q 1331 -91 842 396 
Q 353 884 353 1716 
Q 353 2575 817 3079 
Q 1281 3584 2069 3584 
Q 2775 3584 3186 3129 
Q 3597 2675 3597 1894 
z
M 3022 2063 
Q 3016 2534 2758 2815 
Q 2500 3097 2075 3097 
Q 1594 3097 1305 2825 
Q 1016 2553 972 2059 
L 3022 2063 
z
" transform="scale(0.015625)"/>
       <path id="DejaVuSans-20" transform="scale(0.015625)"/>
       <path id="DejaVuSans-66" d="M 2375 4863 
L 2375 4384 
L 1825 4384 
Q 1516 4384 1395 4259 
Q 1275 4134 1275 3809 
L 1275 3500 
L 2222 3500 
L 2222 3053 
L 1275 3053 
L 1275 0 
L 697 0 
L 697 3053 
L 147 3053 
L 147 3500 
L 697 3500 
L 697 3744 
Q 697 4328 969 4595 
Q 1241 4863 1831 4863 
L 2375 4863 
z
" transform="scale(0.015625)"/>
       <path id="DejaVuSans-72" d="M 2631 2963 
Q 2534 3019 2420 3045 
Q 2306 3072 2169 3072 
Q 1681 3072 1420 2755 
Q 1159 2438 1159 1844 
L 1159 0 
L 581 0 
L 581 3500 
L 1159 3500 
L 1159 2956 
Q 1341 3275 1631 3429 
Q 1922 3584 2338 3584 
Q 2397 3584 2469 3576 
Q 2541 3569 2628 3553 
L 2631 2963 
z
" transform="scale(0.015625)"/>
       <path id="DejaVuSans-6f" d="M 1959 3097 
Q 1497 3097 1228 2736 
Q 959 2375 959 1747 
Q 959 1119 1226 758 
Q 1494 397 1959 397 
Q 2419 397 2687 759 
Q 2956 1122 2956 1747 
Q 2956 2369 2687 2733 
Q 2419 3097 1959 3097 
z
M 1959 3584 
Q 2709 3584 3137 3096 
Q 3566 2609 3566 1747 
Q 3566 888 3137 398 
Q 2709 -91 1959 -91 
Q 1206 -91 779 398 
Q 353 888 353 1747 
Q 353 2609 779 3096 
Q 1206 3584 1959 3584 
z
" transform="scale(0.015625)"/>
       <path id="DejaVuSans-76" d="M 191 3500 
L 800 3500 
L 1894 563 
L 2988 3500 
L 3597 3500 
L 2284 0 
L 1503 0 
L 191 3500 
z
" transform="scale(0.015625)"/>
       <path id="DejaVuSans-6e" d="M 3513 2113 
L 3513 0 
L 2938 0 
L 2938 2094 
Q 2938 2591 2744 2837 
Q 2550 3084 2163 3084 
Q 1697 3084 1428 2787 
Q 1159 2491 1159 1978 
L 1159 0 
L 581 0 
L 581 3500 
L 1159 3500 
L 1159 2956 
Q 1366 3272 1645 3428 
Q 1925 3584 2291 3584 
Q 2894 3584 3203 3211 
Q 3513 2838 3513 2113 
z
" transform="scale(0.015625)"/>
       <path id="DejaVuSans-74" d="M 1172 4494 
L 1172 3500 
L 2356 3500 
L 2356 3053 
L 1172 3053 
L 1172 1153 
Q 1172 725 1289 603 
Q 1406 481 1766 481 
L 2356 481 
L 2356 0 
L 1766 0 
Q 1100 0 847 248 
Q 594 497 594 1153 
L 594 3053 
L 172 3053 
L 172 3500 
L 594 3500 
L 594 4494 
L 1172 4494 
z
" transform="scale(0.015625)"/>
       <path id="DejaVuSans-28" d="M 1984 4856 
Q 1566 4138 1362 3434 
Q 1159 2731 1159 2009 
Q 1159 1288 1364 580 
Q 1569 -128 1984 -844 
L 1484 -844 
Q 1016 -109 783 600 
Q 550 1309 550 2009 
Q 550 2706 781 3412 
Q 1013 4119 1484 4856 
L 1984 4856 
z
" transform="scale(0.015625)"/>
       <path id="DejaVuSans-73" d="M 2834 3397 
L 2834 2853 
Q 2591 2978 2328 3040 
Q 2066 3103 1784 3103 
Q 1356 3103 1142 2972 
Q 928 2841 928 2578 
Q 928 2378 1081 2264 
Q 1234 2150 1697 2047 
L 1894 2003 
Q 2506 1872 2764 1633 
Q 3022 1394 3022 966 
Q 3022 478 2636 193 
Q 2250 -91 1575 -91 
Q 1294 -91 989 -36 
Q 684 19 347 128 
L 347 722 
Q 666 556 975 473 
Q 1284 391 1588 391 
Q 1994 391 2212 530 
Q 2431 669 2431 922 
Q 2431 1156 2273 1281 
Q 2116 1406 1581 1522 
L 1381 1569 
Q 847 1681 609 1914 
Q 372 2147 372 2553 
Q 372 3047 722 3315 
Q 1072 3584 1716 3584 
Q 2034 3584 2315 3537 
Q 2597 3491 2834 3397 
z
" transform="scale(0.015625)"/>
       <path id="DejaVuSans-29" d="M 513 4856 
L 1013 4856 
Q 1481 4119 1714 3412 
Q 1947 2706 1947 2009 
Q 1947 1309 1714 600 
Q 1481 -109 1013 -844 
L 513 -844 
Q 928 -128 1133 580 
Q 1338 1288 1338 2009 
Q 1338 2731 1133 3434 
Q 928 4138 513 4856 
z
" transform="scale(0.015625)"/>
      </defs>
      <use xlink:href="#DejaVuSans-54"/>
      <use xlink:href="#DejaVuSans-69" x="57.958984"/>
      <use xlink:href="#DejaVuSans-6d" x="85.742188"/>
      <use xlink:href="#DejaVuSans-65" x="183.154297"/>
      <use xlink:href="#DejaVuSans-20" x="244.677734"/>
      <use xlink:href="#DejaVuSans-66" x="276.464844"/>
      <use xlink:href="#DejaVuSans-72" x="311.669922"/>
      <use xlink:href="#DejaVuSans-6f" x="350.533203"/>
      <use xlink:href="#DejaVuSans-6d" x="411.714844"/>
      <use xlink:href="#DejaVuSans-20" x="509.126953"/>
      <use xlink:href="#DejaVuSans-65" x="540.914062"/>
      <use xlink:href="#DejaVuSans-76" x="602.4375"/>
      <use xlink:href="#DejaVuSans-65" x="661.617188"/>
      <use xlink:href="#DejaVuSans-6e" x="723.140625"/>
      <use xlink:href="#DejaVuSans-74" x="786.519531"/>
      <use xlink:href="#DejaVuSans-20" x="825.728516"/>
      <use xlink:href="#DejaVuSans-28" x="857.515625"/>
      <use xlink:href="#DejaVuSans-73" x="896.529297"/>
      <use xlink:href="#DejaVuSans-29" x="948.628906"/>
     </g>
    </g>
   </g>
   <g id="matplotlib.axis_2">
    <g id="ytick_1">
     <g id="line2d_6">
      <defs>
       <path id="mfe9b06f3c9" d="M 0 0 
L -3.5 0 
" style="stroke: #000000; stroke-width: 0.8"/>
      </defs>
      <g>
       <use xlink:href="#mfe9b06f3c9" x="63" y="197.707437" style="stroke: #000000; stroke-width: 0.8"/>
      </g>
     </g>
     <g id="text_7">
      <!-- −5 -->
      <g transform="translate(32.4125 203.786187)scale(0.16 -0.16)">
       <defs>
        <path id="DejaVuSans-35" d="M 691 4666 
L 3169 4666 
L 3169 4134 
L 1269 4134 
L 1269 2991 
Q 1406 3038 1543 3061 
Q 1681 3084 1819 3084 
Q 2600 3084 3056 2656 
Q 3513 2228 3513 1497 
Q 3513 744 3044 326 
Q 2575 -91 1722 -91 
Q 1428 -91 1123 -41 
Q 819 9 494 109 
L 494 744 
Q 775 591 1075 516 
Q 1375 441 1709 441 
Q 2250 441 2565 725 
Q 2881 1009 2881 1497 
Q 2881 1984 2565 2268 
Q 2250 2553 1709 2553 
Q 1456 2553 1204 2497 
Q 953 2441 691 2322 
L 691 4666 
z
" transform="scale(0.015625)"/>
       </defs>
       <use xlink:href="#DejaVuSans-2212"/>
       <use xlink:href="#DejaVuSans-35" x="83.789062"/>
      </g>
     </g>
    </g>
    <g id="ytick_2">
     <g id="line2d_7">
      <g>
       <use xlink:href="#mfe9b06f3c9" x="63" y="127.420607" style="stroke: #000000; stroke-width: 0.8"/>
      </g>
     </g>
     <g id="text_8">
      <!-- 0 -->
      <g transform="translate(45.82 133.499357)scale(0.16 -0.16)">
       <use xlink:href="#DejaVuSans-30"/>
      </g>
     </g>
    </g>
    <g id="ytick_3">
     <g id="line2d_8">
      <g>
       <use xlink:href="#mfe9b06f3c9" x="63" y="57.133776" style="stroke: #000000; stroke-width: 0.8"/>
      </g>
     </g>
     <g id="text_9">
      <!-- 5 -->
      <g transform="translate(45.82 63.212526)scale(0.16 -0.16)">
       <use xlink:href="#DejaVuSans-35"/>
      </g>
     </g>
    </g>
    <g id="text_10">
     <!-- Amplitude (uV) -->
     <g transform="translate(24.669062 213.304219)rotate(-90)scale(0.18 -0.18)">
      <defs>
       <path id="DejaVuSans-41" d="M 2188 4044 
L 1331 1722 
L 3047 1722 
L 2188 4044 
z
M 1831 4666 
L 2547 4666 
L 4325 0 
L 3669 0 
L 3244 1197 
L 1141 1197 
L 716 0 
L 50 0 
L 1831 4666 
z
" transform="scale(0.015625)"/>
       <path id="DejaVuSans-70" d="M 1159 525 
L 1159 -1331 
L 581 -1331 
L 581 3500 
L 1159 3500 
L 1159 2969 
Q 1341 3281 1617 3432 
Q 1894 3584 2278 3584 
Q 2916 3584 3314 3078 
Q 3713 2572 3713 1747 
Q 3713 922 3314 415 
Q 2916 -91 2278 -91 
Q 1894 -91 1617 61 
Q 1341 213 1159 525 
z
M 3116 1747 
Q 3116 2381 2855 2742 
Q 2594 3103 2138 3103 
Q 1681 3103 1420 2742 
Q 1159 2381 1159 1747 
Q 1159 1113 1420 752 
Q 1681 391 2138 391 
Q 2594 391 2855 752 
Q 3116 1113 3116 1747 
z
" transform="scale(0.015625)"/>
       <path id="DejaVuSans-6c" d="M 603 4863 
L 1178 4863 
L 1178 0 
L 603 0 
L 603 4863 
z
" transform="scale(0.015625)"/>
       <path id="DejaVuSans-75" d="M 544 1381 
L 544 3500 
L 1119 3500 
L 1119 1403 
Q 1119 906 1312 657 
Q 1506 409 1894 409 
Q 2359 409 2629 706 
Q 2900 1003 2900 1516 
L 2900 3500 
L 3475 3500 
L 3475 0 
L 2900 0 
L 2900 538 
Q 2691 219 2414 64 
Q 2138 -91 1772 -91 
Q 1169 -91 856 284 
Q 544 659 544 1381 
z
M 1991 3584 
L 1991 3584 
z
" transform="scale(0.015625)"/>
       <path id="DejaVuSans-64" d="M 2906 2969 
L 2906 4863 
L 3481 4863 
L 3481 0 
L 2906 0 
L 2906 525 
Q 2725 213 2448 61 
Q 2172 -91 1784 -91 
Q 1150 -91 751 415 
Q 353 922 353 1747 
Q 353 2572 751 3078 
Q 1150 3584 1784 3584 
Q 2172 3584 2448 3432 
Q 2725 3281 2906 2969 
z
M 947 1747 
Q 947 1113 1208 752 
Q 1469 391 1925 391 
Q 2381 391 2643 752 
Q 2906 1113 2906 1747 
Q 2906 2381 2643 2742 
Q 2381 3103 1925 3103 
Q 1469 3103 1208 2742 
Q 947 2381 947 1747 
z
" transform="scale(0.015625)"/>
       <path id="DejaVuSans-56" d="M 1831 0 
L 50 4666 
L 709 4666 
L 2188 738 
L 3669 4666 
L 4325 4666 
L 2547 0 
L 1831 0 
z
" transform="scale(0.015625)"/>
      </defs>
      <use xlink:href="#DejaVuSans-41"/>
      <use xlink:href="#DejaVuSans-6d" x="68.408203"/>
      <use xlink:href="#DejaVuSans-70" x="165.820312"/>
      <use xlink:href="#DejaVuSans-6c" x="229.296875"/>
      <use xlink:href="#DejaVuSans-69" x="257.080078"/>
      <use xlink:href="#DejaVuSans-74" x="284.863281"/>
      <use xlink:href="#DejaVuSans-75" x="324.072266"/>
      <use xlink:href="#DejaVuSans-64" x="387.451172"/>
      <use xlink:href="#DejaVuSans-65" x="450.927734"/>
      <use xlink:href="#DejaVuSans-20" x="512.451172"/>
      <use xlink:href="#DejaVuSans-28" x="544.238281"/>
      <use xlink:href="#DejaVuSans-75" x="583.251953"/>
      <use xlink:href="#DejaVuSans-56" x="646.630859"/>
      <use xlink:href="#DejaVuSans-29" x="715.039062"/>
     </g>
    </g>
   </g>
   <g id="line2d_9">
    <path d="M 63 127.420607 
L 453.6 127.420607 
" clip-path="url(#p2bfc53ed44)" style="fill: none; stroke: #000000; stroke-width: 0.5; stroke-linecap: square"/>
   </g>
   <g id="line2d_10">
    <path d="M 187.559233 256.32 
L 187.559233 34.56 
" clip-path="url(#p2bfc53ed44)" style="fill: none; stroke-dasharray: 1.85,0.8; stroke-dashoffset: 0; stroke: #000000; stroke-width: 0.5"/>
   </g>
   <g id="line2d_11">
    <path d="M 80.754545 118.006798 
L 82.141619 123.101578 
L 83.528693 126.115351 
L 84.915767 128.16714 
L 89.076989 133.448836 
L 91.851136 137.489195 
L 93.23821 139.039747 
L 94.625284 139.358643 
L 96.012358 138.09136 
L 98.786506 132.985036 
L 100.17358 130.988868 
L 101.560653 129.857473 
L 102.947727 129.114545 
L 104.334801 128.126052 
L 105.721875 126.634436 
L 107.108949 124.805336 
L 108.496023 122.779073 
L 109.883097 120.223673 
L 111.27017 116.421597 
L 112.657244 110.940097 
L 114.044318 104.361185 
L 115.431392 98.396647 
L 116.818466 95.137635 
L 118.20554 95.856292 
L 119.592614 100.164895 
L 120.979687 106.149699 
L 122.366761 111.463982 
L 123.753835 114.718142 
L 126.527983 117.837904 
L 127.915057 121.161403 
L 130.689205 132.164967 
L 132.076278 135.402233 
L 133.463352 134.369701 
L 134.850426 129.637413 
L 136.2375 124.123161 
L 137.624574 121.26162 
L 139.011648 122.608972 
L 140.398722 126.634046 
L 141.785795 129.67449 
L 143.172869 128.451045 
L 144.559943 122.356239 
L 145.947017 113.898459 
L 147.334091 107.046101 
L 148.721165 104.693202 
L 150.108239 106.956784 
L 151.495312 111.281 
L 152.882386 114.065353 
L 154.26946 112.692347 
L 155.656534 106.827846 
L 157.043608 98.459936 
L 158.430682 90.827909 
L 159.817756 86.853257 
L 161.20483 87.843922 
L 162.591903 93.087732 
L 165.366051 107.716879 
L 166.753125 113.254211 
L 168.140199 116.476988 
L 169.527273 117.259819 
L 170.914347 115.600332 
L 172.30142 111.808109 
L 173.688494 106.973216 
L 175.075568 102.94815 
L 176.462642 101.467958 
L 177.849716 102.990406 
L 180.623864 109.616714 
L 182.010937 111.629559 
L 183.398011 112.49744 
L 184.785085 112.905895 
L 186.172159 112.883616 
L 187.559233 111.548685 
L 188.946307 108.261105 
L 190.333381 103.999655 
L 191.720455 101.289224 
L 193.107528 102.334159 
L 194.494602 106.940023 
L 195.881676 112.317221 
L 197.26875 115.238949 
L 198.655824 114.735683 
L 200.042898 112.836013 
L 201.429972 112.604028 
L 202.817045 115.272521 
L 204.204119 119.144909 
L 205.591193 121.252693 
L 206.978267 120.145713 
L 208.365341 117.200603 
L 209.752415 115.365714 
L 211.139489 116.715125 
L 212.526563 121.119508 
L 215.30071 132.756366 
L 216.687784 137.813491 
L 218.074858 141.681511 
L 219.461932 143.490421 
L 220.849006 142.523943 
L 222.23608 139.532648 
L 223.623153 136.952168 
L 225.010227 136.970614 
L 226.397301 138.817022 
L 227.784375 138.13929 
L 229.171449 129.931999 
L 230.558523 113.094189 
L 231.945597 92.58885 
L 233.33267 76.746513 
L 234.719744 71.455382 
L 236.106818 75.995547 
L 237.493892 84.098188 
L 238.880966 89.282493 
L 240.26804 89.751064 
L 241.655114 88.657256 
L 243.042188 89.939562 
L 244.429261 94.023132 
L 245.816335 97.622979 
L 247.203409 97.736041 
L 248.590483 95.699936 
L 249.977557 97.019114 
L 251.364631 106.724197 
L 252.751705 124.44089 
L 254.138778 143.840899 
L 255.525852 157.204451 
L 256.912926 161.153661 
L 258.3 158.603569 
L 259.687074 155.511193 
L 261.074148 155.689423 
L 262.461222 158.415469 
L 263.848295 160.593843 
L 266.622443 161.127545 
L 268.009517 164.584511 
L 269.396591 171.444013 
L 270.783665 177.720563 
L 272.170739 178.066185 
L 273.557813 170.499236 
L 274.944886 158.670058 
L 276.33196 149.427553 
L 277.719034 147.620326 
L 279.106108 152.518852 
L 280.493182 158.818682 
L 281.880256 161.230891 
L 283.26733 158.701 
L 284.654403 154.815773 
L 286.041477 154.331059 
L 287.428551 158.970266 
L 288.815625 166.026437 
L 290.202699 170.735982 
L 291.589773 170.21617 
L 294.36392 160.881091 
L 295.750994 159.178834 
L 297.138068 160.253933 
L 298.525142 160.560238 
L 299.912216 156.107626 
L 301.29929 145.656197 
L 302.686364 131.857847 
L 304.073438 119.656855 
L 305.460511 113.301144 
L 306.847585 114.103813 
L 308.234659 120.230489 
L 309.621733 128.194953 
L 311.008807 134.742164 
L 312.395881 137.983622 
L 313.782955 137.555825 
L 315.170028 134.269555 
L 316.557102 129.714472 
L 317.944176 125.864851 
L 319.33125 124.510005 
L 320.718324 126.555356 
L 322.105398 131.580241 
L 323.492472 138.023291 
L 324.879545 143.933162 
L 326.266619 147.790943 
L 327.653693 148.913935 
L 329.040767 147.36431 
L 330.427841 143.670391 
L 334.589063 128.906871 
L 335.976136 125.927377 
L 337.36321 124.322979 
L 338.750284 123.08348 
L 340.137358 120.650283 
L 341.524432 115.53929 
L 342.911506 107.008759 
L 347.072727 73.667648 
L 348.459801 69.458669 
L 349.846875 72.040011 
L 351.233949 79.669585 
L 352.621023 88.270267 
L 354.008097 93.892876 
L 355.39517 95.407246 
L 356.782244 95.244687 
L 358.169318 97.326264 
L 359.556392 103.682118 
L 360.943466 112.600096 
L 362.33054 120.00572 
L 363.717614 122.961902 
L 366.491761 121.397889 
L 367.878835 123.827714 
L 370.652983 135.125753 
L 372.040057 137.332414 
L 373.427131 135.219788 
L 376.201278 126.677864 
L 377.588352 123.794545 
L 378.975426 121.232745 
L 381.749574 115.181441 
L 383.136648 114.248034 
L 384.523722 116.136765 
L 385.910795 119.422398 
L 387.297869 121.554506 
L 388.684943 121.349303 
L 390.072017 120.268346 
L 391.459091 121.032696 
L 392.846165 124.853036 
L 394.233239 130.052969 
L 395.620313 133.526434 
L 397.007386 133.633391 
L 398.39446 131.700072 
L 399.781534 130.713031 
L 401.168608 132.594784 
L 403.942756 141.117247 
L 405.32983 144.301946 
L 406.716903 146.440218 
L 408.103977 147.95003 
L 409.491051 147.842913 
L 410.878125 143.834054 
L 412.265199 134.568838 
L 413.652273 121.826583 
L 415.039347 110.21799 
L 416.42642 104.161239 
L 417.813494 104.609566 
L 419.200568 108.429966 
L 420.587642 111.025754 
L 421.974716 109.941988 
L 423.36179 106.450138 
L 424.748864 104.040622 
L 426.135938 105.420693 
L 427.523011 110.594103 
L 428.910085 117.271723 
L 430.297159 122.765856 
L 431.684233 125.611398 
L 433.071307 125.927015 
L 435.845455 123.712651 
L 435.845455 123.712651 
" clip-path="url(#p2bfc53ed44)" style="fill: none; stroke: #1f77b4; stroke-width: 1.5; stroke-linecap: square"/>
   </g>
   <g id="line2d_12">
    <path d="M 80.754545 111.933058 
L 82.141619 106.79982 
L 84.915767 94.606153 
L 86.302841 88.383207 
L 87.689915 83.601381 
L 89.076989 82.539276 
L 90.464062 86.694196 
L 93.23821 103.150793 
L 94.625284 107.073757 
L 96.012358 104.968532 
L 97.399432 99.241637 
L 98.786506 94.644168 
L 100.17358 94.735728 
L 101.560653 99.448661 
L 102.947727 105.658023 
L 104.334801 110.0147 
L 105.721875 111.419332 
L 107.108949 111.100512 
L 109.883097 110.28876 
L 111.27017 108.955034 
L 112.657244 106.094681 
L 114.044318 102.801076 
L 115.431392 101.028979 
L 116.818466 101.579956 
L 118.20554 103.098615 
L 119.592614 103.398647 
L 120.979687 101.958522 
L 122.366761 100.94202 
L 123.753835 103.322963 
L 125.140909 109.62179 
L 126.527983 116.498136 
L 127.915057 119.04451 
L 129.302131 115.170775 
L 130.689205 108.203325 
L 132.076278 105.069309 
L 133.463352 111.248598 
L 134.850426 126.599466 
L 136.2375 145.470276 
L 137.624574 160.813069 
L 139.011648 168.710178 
L 140.398722 169.764645 
L 141.785795 166.932992 
L 143.172869 162.487825 
L 144.559943 157.01353 
L 145.947017 150.765811 
L 147.334091 145.180996 
L 148.721165 142.399078 
L 150.108239 143.132444 
L 151.495312 145.338379 
L 152.882386 145.58369 
L 154.26946 142.212961 
L 155.656534 137.309888 
L 157.043608 135.27932 
L 158.430682 139.019865 
L 159.817756 147.066174 
L 161.20483 154.346023 
L 162.591903 155.953012 
L 163.978977 150.65542 
L 166.753125 131.825054 
L 168.140199 124.696959 
L 169.527273 119.576801 
L 172.30142 111.058849 
L 173.688494 107.915293 
L 175.075568 106.181981 
L 176.462642 105.076301 
L 177.849716 103.283198 
L 179.23679 100.667275 
L 180.623864 99.020171 
L 182.010937 100.743805 
L 183.398011 106.558162 
L 184.785085 114.500602 
L 186.172159 121.349833 
L 187.559233 125.244528 
L 188.946307 127.049922 
L 190.333381 129.20338 
L 191.720455 133.19523 
L 193.107528 138.128887 
L 194.494602 141.711439 
L 195.881676 142.655689 
L 197.26875 142.141789 
L 198.655824 142.93394 
L 200.042898 146.989179 
L 202.817045 160.680083 
L 204.204119 165.231386 
L 205.591193 166.779027 
L 206.978267 166.648883 
L 208.365341 166.742246 
L 209.752415 168.128235 
L 211.139489 170.797958 
L 212.526563 174.456211 
L 213.913636 179.252744 
L 215.30071 185.58679 
L 218.074858 200.483067 
L 219.461932 205.029106 
L 220.849006 204.895065 
L 222.23608 200.006135 
L 223.623153 192.492674 
L 225.010227 185.747437 
L 226.397301 182.715608 
L 227.784375 184.362453 
L 230.558523 193.829787 
L 231.945597 195.250081 
L 233.33267 192.17278 
L 236.106818 180.31106 
L 237.493892 177.956483 
L 238.880966 179.834347 
L 240.26804 183.967414 
L 241.655114 186.972428 
L 243.042188 186.369688 
L 244.429261 182.113745 
L 245.816335 176.26825 
L 247.203409 171.220017 
L 248.590483 167.924598 
L 249.977557 165.49517 
L 251.364631 162.217493 
L 252.751705 156.930831 
L 254.138778 149.633596 
L 256.912926 132.080924 
L 259.687074 115.021335 
L 261.074148 108.163899 
L 262.461222 102.931128 
L 265.235369 94.207289 
L 266.622443 88.395941 
L 268.009517 82.049148 
L 269.396591 77.930421 
L 270.783665 79.403599 
L 272.170739 88.117316 
L 273.557813 102.459303 
L 274.944886 118.017434 
L 276.33196 129.846628 
L 277.719034 135.076595 
L 279.106108 134.248473 
L 280.493182 130.705456 
L 281.880256 128.569373 
L 283.26733 130.513107 
L 284.654403 136.464963 
L 286.041477 143.816469 
L 287.428551 148.982289 
L 288.815625 149.502514 
L 290.202699 145.521937 
L 291.589773 139.723746 
L 292.976847 135.694542 
L 294.36392 135.767704 
L 295.750994 139.808717 
L 298.525142 151.190791 
L 299.912216 155.188826 
L 301.29929 158.348503 
L 302.686364 162.070472 
L 304.073438 167.370709 
L 305.460511 174.275176 
L 306.847585 181.900767 
L 308.234659 188.846296 
L 309.621733 193.619054 
L 311.008807 195.143398 
L 312.395881 193.343105 
L 315.170028 185.170236 
L 316.557102 182.037396 
L 319.33125 177.82031 
L 320.718324 174.72189 
L 324.879545 163.616762 
L 326.266619 158.112459 
L 327.653693 148.687858 
L 330.427841 122.865317 
L 331.814915 115.224254 
L 333.201989 114.747986 
L 334.589063 118.249479 
L 335.976136 119.6807 
L 337.36321 115.443025 
L 338.750284 107.9336 
L 340.137358 103.710788 
L 341.524432 107.528982 
L 342.911506 117.618186 
L 344.29858 126.805576 
L 345.685653 128.772199 
L 348.459801 118.536495 
L 349.846875 119.961137 
L 351.233949 128.835938 
L 352.621023 138.893078 
L 354.008097 142.320153 
L 355.39517 136.459176 
L 356.782244 125.61631 
L 358.169318 116.670881 
L 359.556392 112.991263 
L 360.943466 112.440515 
L 362.33054 110.946492 
L 363.717614 107.611946 
L 365.104688 106.04463 
L 366.491761 110.598299 
L 367.878835 121.400022 
L 369.265909 133.248491 
L 370.652983 139.621218 
L 372.040057 138.038703 
L 373.427131 131.800777 
L 374.814205 126.693417 
L 376.201278 126.003412 
L 377.588352 128.469096 
L 378.975426 130.61538 
L 380.3625 130.634104 
L 381.749574 129.801953 
L 383.136648 130.287094 
L 384.523722 131.981917 
L 385.910795 131.887431 
L 387.297869 126.83 
L 388.684943 116.827535 
L 390.072017 105.729914 
L 391.459091 98.42588 
L 392.846165 97.190714 
L 394.233239 100.436373 
L 395.620313 104.707745 
L 397.007386 107.764086 
L 398.39446 109.890467 
L 399.781534 112.633626 
L 401.168608 116.692856 
L 402.555682 121.204659 
L 403.942756 124.872433 
L 405.32983 127.371679 
L 406.716903 129.334146 
L 408.103977 130.985117 
L 409.491051 131.163123 
L 410.878125 128.146694 
L 412.265199 121.723152 
L 413.652273 114.364977 
L 415.039347 109.971217 
L 416.42642 110.932939 
L 419.200568 121.262508 
L 420.587642 122.687858 
L 421.974716 119.429497 
L 423.36179 113.851108 
L 424.748864 109.333227 
L 426.135938 107.660038 
L 427.523011 108.249442 
L 430.297159 110.818132 
L 431.684233 112.892632 
L 433.071307 116.963524 
L 434.458381 123.360275 
L 435.845455 131.278909 
L 435.845455 131.278909 
" clip-path="url(#p2bfc53ed44)" style="fill: none; stroke: #ff7f0e; stroke-width: 1.5; stroke-linecap: square"/>
   </g>
   <g id="patch_3">
    <path d="M 63 256.32 
L 63 34.56 
" style="fill: none; stroke: #000000; stroke-width: 0.8; stroke-linejoin: miter; stroke-linecap: square"/>
   </g>
   <g id="patch_4">
    <path d="M 453.6 256.32 
L 453.6 34.56 
" style="fill: none; stroke: #000000; stroke-width: 0.8; stroke-linejoin: miter; stroke-linecap: square"/>
   </g>
   <g id="patch_5">
    <path d="M 63 256.32 
L 453.6 256.32 
" style="fill: none; stroke: #000000; stroke-width: 0.8; stroke-linejoin: miter; stroke-linecap: square"/>
   </g>
   <g id="patch_6">
    <path d="M 63 34.56 
L 453.6 34.56 
" style="fill: none; stroke: #000000; stroke-width: 0.8; stroke-linejoin: miter; stroke-linecap: square"/>
   </g>
   <g id="text_11">
    <!-- ERP response - Vibro trial 2  -->
    <g transform="translate(99.629687 28.56)scale(0.2 -0.2)">
     <defs>
      <path id="DejaVuSans-Bold-45" d="M 588 4666 
L 3834 4666 
L 3834 3756 
L 1791 3756 
L 1791 2888 
L 3713 2888 
L 3713 1978 
L 1791 1978 
L 1791 909 
L 3903 909 
L 3903 0 
L 588 0 
L 588 4666 
z
" transform="scale(0.015625)"/>
      <path id="DejaVuSans-Bold-52" d="M 2297 2597 
Q 2675 2597 2839 2737 
Q 3003 2878 3003 3200 
Q 3003 3519 2839 3656 
Q 2675 3794 2297 3794 
L 1791 3794 
L 1791 2597 
L 2297 2597 
z
M 1791 1766 
L 1791 0 
L 588 0 
L 588 4666 
L 2425 4666 
Q 3347 4666 3776 4356 
Q 4206 4047 4206 3378 
Q 4206 2916 3982 2619 
Q 3759 2322 3309 2181 
Q 3556 2125 3751 1926 
Q 3947 1728 4147 1325 
L 4800 0 
L 3519 0 
L 2950 1159 
Q 2778 1509 2601 1637 
Q 2425 1766 2131 1766 
L 1791 1766 
z
" transform="scale(0.015625)"/>
      <path id="DejaVuSans-Bold-50" d="M 588 4666 
L 2584 4666 
Q 3475 4666 3951 4270 
Q 4428 3875 4428 3144 
Q 4428 2409 3951 2014 
Q 3475 1619 2584 1619 
L 1791 1619 
L 1791 0 
L 588 0 
L 588 4666 
z
M 1791 3794 
L 1791 2491 
L 2456 2491 
Q 2806 2491 2997 2661 
Q 3188 2831 3188 3144 
Q 3188 3456 2997 3625 
Q 2806 3794 2456 3794 
L 1791 3794 
z
" transform="scale(0.015625)"/>
      <path id="DejaVuSans-Bold-20" transform="scale(0.015625)"/>
      <path id="DejaVuSans-Bold-72" d="M 3138 2547 
Q 2991 2616 2845 2648 
Q 2700 2681 2553 2681 
Q 2122 2681 1889 2404 
Q 1656 2128 1656 1613 
L 1656 0 
L 538 0 
L 538 3500 
L 1656 3500 
L 1656 2925 
Q 1872 3269 2151 3426 
Q 2431 3584 2822 3584 
Q 2878 3584 2943 3579 
Q 3009 3575 3134 3559 
L 3138 2547 
z
" transform="scale(0.015625)"/>
      <path id="DejaVuSans-Bold-65" d="M 4031 1759 
L 4031 1441 
L 1416 1441 
Q 1456 1047 1700 850 
Q 1944 653 2381 653 
Q 2734 653 3104 758 
Q 3475 863 3866 1075 
L 3866 213 
Q 3469 63 3072 -14 
Q 2675 -91 2278 -91 
Q 1328 -91 801 392 
Q 275 875 275 1747 
Q 275 2603 792 3093 
Q 1309 3584 2216 3584 
Q 3041 3584 3536 3087 
Q 4031 2591 4031 1759 
z
M 2881 2131 
Q 2881 2450 2695 2645 
Q 2509 2841 2209 2841 
Q 1884 2841 1681 2658 
Q 1478 2475 1428 2131 
L 2881 2131 
z
" transform="scale(0.015625)"/>
      <path id="DejaVuSans-Bold-73" d="M 3272 3391 
L 3272 2541 
Q 2913 2691 2578 2766 
Q 2244 2841 1947 2841 
Q 1628 2841 1473 2761 
Q 1319 2681 1319 2516 
Q 1319 2381 1436 2309 
Q 1553 2238 1856 2203 
L 2053 2175 
Q 2913 2066 3209 1816 
Q 3506 1566 3506 1031 
Q 3506 472 3093 190 
Q 2681 -91 1863 -91 
Q 1516 -91 1145 -36 
Q 775 19 384 128 
L 384 978 
Q 719 816 1070 734 
Q 1422 653 1784 653 
Q 2113 653 2278 743 
Q 2444 834 2444 1013 
Q 2444 1163 2330 1236 
Q 2216 1309 1875 1350 
L 1678 1375 
Q 931 1469 631 1722 
Q 331 1975 331 2491 
Q 331 3047 712 3315 
Q 1094 3584 1881 3584 
Q 2191 3584 2531 3537 
Q 2872 3491 3272 3391 
z
" transform="scale(0.015625)"/>
      <path id="DejaVuSans-Bold-70" d="M 1656 506 
L 1656 -1331 
L 538 -1331 
L 538 3500 
L 1656 3500 
L 1656 2988 
Q 1888 3294 2169 3439 
Q 2450 3584 2816 3584 
Q 3463 3584 3878 3070 
Q 4294 2556 4294 1747 
Q 4294 938 3878 423 
Q 3463 -91 2816 -91 
Q 2450 -91 2169 54 
Q 1888 200 1656 506 
z
M 2400 2772 
Q 2041 2772 1848 2508 
Q 1656 2244 1656 1747 
Q 1656 1250 1848 986 
Q 2041 722 2400 722 
Q 2759 722 2948 984 
Q 3138 1247 3138 1747 
Q 3138 2247 2948 2509 
Q 2759 2772 2400 2772 
z
" transform="scale(0.015625)"/>
      <path id="DejaVuSans-Bold-6f" d="M 2203 2784 
Q 1831 2784 1636 2517 
Q 1441 2250 1441 1747 
Q 1441 1244 1636 976 
Q 1831 709 2203 709 
Q 2569 709 2762 976 
Q 2956 1244 2956 1747 
Q 2956 2250 2762 2517 
Q 2569 2784 2203 2784 
z
M 2203 3584 
Q 3106 3584 3614 3096 
Q 4122 2609 4122 1747 
Q 4122 884 3614 396 
Q 3106 -91 2203 -91 
Q 1297 -91 786 396 
Q 275 884 275 1747 
Q 275 2609 786 3096 
Q 1297 3584 2203 3584 
z
" transform="scale(0.015625)"/>
      <path id="DejaVuSans-Bold-6e" d="M 4056 2131 
L 4056 0 
L 2931 0 
L 2931 347 
L 2931 1631 
Q 2931 2084 2911 2256 
Q 2891 2428 2841 2509 
Q 2775 2619 2662 2680 
Q 2550 2741 2406 2741 
Q 2056 2741 1856 2470 
Q 1656 2200 1656 1722 
L 1656 0 
L 538 0 
L 538 3500 
L 1656 3500 
L 1656 2988 
Q 1909 3294 2193 3439 
Q 2478 3584 2822 3584 
Q 3428 3584 3742 3212 
Q 4056 2841 4056 2131 
z
" transform="scale(0.015625)"/>
      <path id="DejaVuSans-Bold-2d" d="M 347 2297 
L 2309 2297 
L 2309 1388 
L 347 1388 
L 347 2297 
z
" transform="scale(0.015625)"/>
      <path id="DejaVuSans-Bold-56" d="M 31 4666 
L 1241 4666 
L 2478 1222 
L 3713 4666 
L 4922 4666 
L 3194 0 
L 1759 0 
L 31 4666 
z
" transform="scale(0.015625)"/>
      <path id="DejaVuSans-Bold-69" d="M 538 3500 
L 1656 3500 
L 1656 0 
L 538 0 
L 538 3500 
z
M 538 4863 
L 1656 4863 
L 1656 3950 
L 538 3950 
L 538 4863 
z
" transform="scale(0.015625)"/>
      <path id="DejaVuSans-Bold-62" d="M 2400 722 
Q 2759 722 2948 984 
Q 3138 1247 3138 1747 
Q 3138 2247 2948 2509 
Q 2759 2772 2400 2772 
Q 2041 2772 1848 2508 
Q 1656 2244 1656 1747 
Q 1656 1250 1848 986 
Q 2041 722 2400 722 
z
M 1656 2988 
Q 1888 3294 2169 3439 
Q 2450 3584 2816 3584 
Q 3463 3584 3878 3070 
Q 4294 2556 4294 1747 
Q 4294 938 3878 423 
Q 3463 -91 2816 -91 
Q 2450 -91 2169 54 
Q 1888 200 1656 506 
L 1656 0 
L 538 0 
L 538 4863 
L 1656 4863 
L 1656 2988 
z
" transform="scale(0.015625)"/>
      <path id="DejaVuSans-Bold-74" d="M 1759 4494 
L 1759 3500 
L 2913 3500 
L 2913 2700 
L 1759 2700 
L 1759 1216 
Q 1759 972 1856 886 
Q 1953 800 2241 800 
L 2816 800 
L 2816 0 
L 1856 0 
Q 1194 0 917 276 
Q 641 553 641 1216 
L 641 2700 
L 84 2700 
L 84 3500 
L 641 3500 
L 641 4494 
L 1759 4494 
z
" transform="scale(0.015625)"/>
      <path id="DejaVuSans-Bold-61" d="M 2106 1575 
Q 1756 1575 1579 1456 
Q 1403 1338 1403 1106 
Q 1403 894 1545 773 
Q 1688 653 1941 653 
Q 2256 653 2472 879 
Q 2688 1106 2688 1447 
L 2688 1575 
L 2106 1575 
z
M 3816 1997 
L 3816 0 
L 2688 0 
L 2688 519 
Q 2463 200 2181 54 
Q 1900 -91 1497 -91 
Q 953 -91 614 226 
Q 275 544 275 1050 
Q 275 1666 698 1953 
Q 1122 2241 2028 2241 
L 2688 2241 
L 2688 2328 
Q 2688 2594 2478 2717 
Q 2269 2841 1825 2841 
Q 1466 2841 1156 2769 
Q 847 2697 581 2553 
L 581 3406 
Q 941 3494 1303 3539 
Q 1666 3584 2028 3584 
Q 2975 3584 3395 3211 
Q 3816 2838 3816 1997 
z
" transform="scale(0.015625)"/>
      <path id="DejaVuSans-Bold-6c" d="M 538 4863 
L 1656 4863 
L 1656 0 
L 538 0 
L 538 4863 
z
" transform="scale(0.015625)"/>
      <path id="DejaVuSans-Bold-32" d="M 1844 884 
L 3897 884 
L 3897 0 
L 506 0 
L 506 884 
L 2209 2388 
Q 2438 2594 2547 2791 
Q 2656 2988 2656 3200 
Q 2656 3528 2436 3728 
Q 2216 3928 1850 3928 
Q 1569 3928 1234 3808 
Q 900 3688 519 3450 
L 519 4475 
Q 925 4609 1322 4679 
Q 1719 4750 2100 4750 
Q 2938 4750 3402 4381 
Q 3866 4013 3866 3353 
Q 3866 2972 3669 2642 
Q 3472 2313 2841 1759 
L 1844 884 
z
" transform="scale(0.015625)"/>
     </defs>
     <use xlink:href="#DejaVuSans-Bold-45"/>
     <use xlink:href="#DejaVuSans-Bold-52" x="68.310547"/>
     <use xlink:href="#DejaVuSans-Bold-50" x="145.3125"/>
     <use xlink:href="#DejaVuSans-Bold-20" x="218.603516"/>
     <use xlink:href="#DejaVuSans-Bold-72" x="253.417969"/>
     <use xlink:href="#DejaVuSans-Bold-65" x="302.734375"/>
     <use xlink:href="#DejaVuSans-Bold-73" x="370.556641"/>
     <use xlink:href="#DejaVuSans-Bold-70" x="430.078125"/>
     <use xlink:href="#DejaVuSans-Bold-6f" x="501.660156"/>
     <use xlink:href="#DejaVuSans-Bold-6e" x="570.361328"/>
     <use xlink:href="#DejaVuSans-Bold-73" x="641.552734"/>
     <use xlink:href="#DejaVuSans-Bold-65" x="701.074219"/>
     <use xlink:href="#DejaVuSans-Bold-20" x="768.896484"/>
     <use xlink:href="#DejaVuSans-Bold-2d" x="803.710938"/>
     <use xlink:href="#DejaVuSans-Bold-20" x="845.214844"/>
     <use xlink:href="#DejaVuSans-Bold-56" x="880.029297"/>
     <use xlink:href="#DejaVuSans-Bold-69" x="955.671875"/>
     <use xlink:href="#DejaVuSans-Bold-62" x="989.949219"/>
     <use xlink:href="#DejaVuSans-Bold-72" x="1061.53125"/>
     <use xlink:href="#DejaVuSans-Bold-6f" x="1110.847656"/>
     <use xlink:href="#DejaVuSans-Bold-20" x="1179.548828"/>
     <use xlink:href="#DejaVuSans-Bold-74" x="1214.363281"/>
     <use xlink:href="#DejaVuSans-Bold-72" x="1262.166016"/>
     <use xlink:href="#DejaVuSans-Bold-69" x="1311.482422"/>
     <use xlink:href="#DejaVuSans-Bold-61" x="1345.759766"/>
     <use xlink:href="#DejaVuSans-Bold-6c" x="1413.240234"/>
     <use xlink:href="#DejaVuSans-Bold-20" x="1447.517578"/>
     <use xlink:href="#DejaVuSans-Bold-32" x="1482.332031"/>
     <use xlink:href="#DejaVuSans-Bold-20" x="1551.912109"/>
    </g>
   </g>
   <g id="legend_1">
    <g id="patch_7">
     <path d="M 70 251.32 
L 168.203125 251.32 
Q 170.203125 251.32 170.203125 249.32 
L 170.203125 191.6075 
Q 170.203125 189.6075 168.203125 189.6075 
L 70 189.6075 
Q 68 189.6075 68 191.6075 
L 68 249.32 
Q 68 251.32 70 251.32 
z
" style="fill: #ffffff; opacity: 0.8; stroke: #cccccc; stroke-linejoin: miter"/>
    </g>
    <g id="line2d_13">
     <path d="M 72 197.705938 
L 82 197.705938 
L 92 197.705938 
" style="fill: none; stroke: #1f77b4; stroke-width: 1.5; stroke-linecap: square"/>
    </g>
    <g id="text_12">
     <!-- 'left' - Mean -->
     <g transform="translate(100 201.205938)scale(0.1 -0.1)">
      <defs>
       <path id="DejaVuSans-27" d="M 1147 4666 
L 1147 2931 
L 616 2931 
L 616 4666 
L 1147 4666 
z
" transform="scale(0.015625)"/>
       <path id="DejaVuSans-2d" d="M 313 2009 
L 1997 2009 
L 1997 1497 
L 313 1497 
L 313 2009 
z
" transform="scale(0.015625)"/>
       <path id="DejaVuSans-4d" d="M 628 4666 
L 1569 4666 
L 2759 1491 
L 3956 4666 
L 4897 4666 
L 4897 0 
L 4281 0 
L 4281 4097 
L 3078 897 
L 2444 897 
L 1241 4097 
L 1241 0 
L 628 0 
L 628 4666 
z
" transform="scale(0.015625)"/>
       <path id="DejaVuSans-61" d="M 2194 1759 
Q 1497 1759 1228 1600 
Q 959 1441 959 1056 
Q 959 750 1161 570 
Q 1363 391 1709 391 
Q 2188 391 2477 730 
Q 2766 1069 2766 1631 
L 2766 1759 
L 2194 1759 
z
M 3341 1997 
L 3341 0 
L 2766 0 
L 2766 531 
Q 2569 213 2275 61 
Q 1981 -91 1556 -91 
Q 1019 -91 701 211 
Q 384 513 384 1019 
Q 384 1609 779 1909 
Q 1175 2209 1959 2209 
L 2766 2209 
L 2766 2266 
Q 2766 2663 2505 2880 
Q 2244 3097 1772 3097 
Q 1472 3097 1187 3025 
Q 903 2953 641 2809 
L 641 3341 
Q 956 3463 1253 3523 
Q 1550 3584 1831 3584 
Q 2591 3584 2966 3190 
Q 3341 2797 3341 1997 
z
" transform="scale(0.015625)"/>
      </defs>
      <use xlink:href="#DejaVuSans-27"/>
      <use xlink:href="#DejaVuSans-6c" x="27.490234"/>
      <use xlink:href="#DejaVuSans-65" x="55.273438"/>
      <use xlink:href="#DejaVuSans-66" x="116.796875"/>
      <use xlink:href="#DejaVuSans-74" x="150.251953"/>
      <use xlink:href="#DejaVuSans-27" x="189.460938"/>
      <use xlink:href="#DejaVuSans-20" x="216.951172"/>
      <use xlink:href="#DejaVuSans-2d" x="248.738281"/>
      <use xlink:href="#DejaVuSans-20" x="284.822266"/>
      <use xlink:href="#DejaVuSans-4d" x="316.609375"/>
      <use xlink:href="#DejaVuSans-65" x="402.888672"/>
      <use xlink:href="#DejaVuSans-61" x="464.412109"/>
      <use xlink:href="#DejaVuSans-6e" x="525.691406"/>
     </g>
    </g>
    <g id="patch_8">
     <path d="M 72 215.884062 
L 92 215.884062 
L 92 208.884062 
L 72 208.884062 
z
" style="fill: #1f77b4; fill-opacity: 0.2"/>
    </g>
    <g id="text_13">
     <!-- 'left'- SEM -->
     <g transform="translate(100 215.884062)scale(0.1 -0.1)">
      <defs>
       <path id="DejaVuSans-53" d="M 3425 4513 
L 3425 3897 
Q 3066 4069 2747 4153 
Q 2428 4238 2131 4238 
Q 1616 4238 1336 4038 
Q 1056 3838 1056 3469 
Q 1056 3159 1242 3001 
Q 1428 2844 1947 2747 
L 2328 2669 
Q 3034 2534 3370 2195 
Q 3706 1856 3706 1288 
Q 3706 609 3251 259 
Q 2797 -91 1919 -91 
Q 1588 -91 1214 -16 
Q 841 59 441 206 
L 441 856 
Q 825 641 1194 531 
Q 1563 422 1919 422 
Q 2459 422 2753 634 
Q 3047 847 3047 1241 
Q 3047 1584 2836 1778 
Q 2625 1972 2144 2069 
L 1759 2144 
Q 1053 2284 737 2584 
Q 422 2884 422 3419 
Q 422 4038 858 4394 
Q 1294 4750 2059 4750 
Q 2388 4750 2728 4690 
Q 3069 4631 3425 4513 
z
" transform="scale(0.015625)"/>
       <path id="DejaVuSans-45" d="M 628 4666 
L 3578 4666 
L 3578 4134 
L 1259 4134 
L 1259 2753 
L 3481 2753 
L 3481 2222 
L 1259 2222 
L 1259 531 
L 3634 531 
L 3634 0 
L 628 0 
L 628 4666 
z
" transform="scale(0.015625)"/>
      </defs>
      <use xlink:href="#DejaVuSans-27"/>
      <use xlink:href="#DejaVuSans-6c" x="27.490234"/>
      <use xlink:href="#DejaVuSans-65" x="55.273438"/>
      <use xlink:href="#DejaVuSans-66" x="116.796875"/>
      <use xlink:href="#DejaVuSans-74" x="150.251953"/>
      <use xlink:href="#DejaVuSans-27" x="189.460938"/>
      <use xlink:href="#DejaVuSans-2d" x="216.951172"/>
      <use xlink:href="#DejaVuSans-20" x="253.035156"/>
      <use xlink:href="#DejaVuSans-53" x="284.822266"/>
      <use xlink:href="#DejaVuSans-45" x="348.298828"/>
      <use xlink:href="#DejaVuSans-4d" x="411.482422"/>
     </g>
    </g>
    <g id="line2d_14">
     <path d="M 72 227.062187 
L 82 227.062187 
L 92 227.062187 
" style="fill: none; stroke: #ff7f0e; stroke-width: 1.5; stroke-linecap: square"/>
    </g>
    <g id="text_14">
     <!-- 'right' - Mean -->
     <g transform="translate(100 230.562187)scale(0.1 -0.1)">
      <defs>
       <path id="DejaVuSans-67" d="M 2906 1791 
Q 2906 2416 2648 2759 
Q 2391 3103 1925 3103 
Q 1463 3103 1205 2759 
Q 947 2416 947 1791 
Q 947 1169 1205 825 
Q 1463 481 1925 481 
Q 2391 481 2648 825 
Q 2906 1169 2906 1791 
z
M 3481 434 
Q 3481 -459 3084 -895 
Q 2688 -1331 1869 -1331 
Q 1566 -1331 1297 -1286 
Q 1028 -1241 775 -1147 
L 775 -588 
Q 1028 -725 1275 -790 
Q 1522 -856 1778 -856 
Q 2344 -856 2625 -561 
Q 2906 -266 2906 331 
L 2906 616 
Q 2728 306 2450 153 
Q 2172 0 1784 0 
Q 1141 0 747 490 
Q 353 981 353 1791 
Q 353 2603 747 3093 
Q 1141 3584 1784 3584 
Q 2172 3584 2450 3431 
Q 2728 3278 2906 2969 
L 2906 3500 
L 3481 3500 
L 3481 434 
z
" transform="scale(0.015625)"/>
       <path id="DejaVuSans-68" d="M 3513 2113 
L 3513 0 
L 2938 0 
L 2938 2094 
Q 2938 2591 2744 2837 
Q 2550 3084 2163 3084 
Q 1697 3084 1428 2787 
Q 1159 2491 1159 1978 
L 1159 0 
L 581 0 
L 581 4863 
L 1159 4863 
L 1159 2956 
Q 1366 3272 1645 3428 
Q 1925 3584 2291 3584 
Q 2894 3584 3203 3211 
Q 3513 2838 3513 2113 
z
" transform="scale(0.015625)"/>
      </defs>
      <use xlink:href="#DejaVuSans-27"/>
      <use xlink:href="#DejaVuSans-72" x="27.490234"/>
      <use xlink:href="#DejaVuSans-69" x="68.603516"/>
      <use xlink:href="#DejaVuSans-67" x="96.386719"/>
      <use xlink:href="#DejaVuSans-68" x="159.863281"/>
      <use xlink:href="#DejaVuSans-74" x="223.242188"/>
      <use xlink:href="#DejaVuSans-27" x="262.451172"/>
      <use xlink:href="#DejaVuSans-20" x="289.941406"/>
      <use xlink:href="#DejaVuSans-2d" x="321.728516"/>
      <use xlink:href="#DejaVuSans-20" x="357.8125"/>
      <use xlink:href="#DejaVuSans-4d" x="389.599609"/>
      <use xlink:href="#DejaVuSans-65" x="475.878906"/>
      <use xlink:href="#DejaVuSans-61" x="537.402344"/>
      <use xlink:href="#DejaVuSans-6e" x="598.681641"/>
     </g>
    </g>
    <g id="patch_9">
     <path d="M 72 245.240313 
L 92 245.240313 
L 92 238.240313 
L 72 238.240313 
z
" style="fill: #ff7f0e; fill-opacity: 0.2"/>
    </g>
    <g id="text_15">
     <!-- 'right'- SEM -->
     <g transform="translate(100 245.240313)scale(0.1 -0.1)">
      <use xlink:href="#DejaVuSans-27"/>
      <use xlink:href="#DejaVuSans-72" x="27.490234"/>
      <use xlink:href="#DejaVuSans-69" x="68.603516"/>
      <use xlink:href="#DejaVuSans-67" x="96.386719"/>
      <use xlink:href="#DejaVuSans-68" x="159.863281"/>
      <use xlink:href="#DejaVuSans-74" x="223.242188"/>
      <use xlink:href="#DejaVuSans-27" x="262.451172"/>
      <use xlink:href="#DejaVuSans-2d" x="289.941406"/>
      <use xlink:href="#DejaVuSans-20" x="326.025391"/>
      <use xlink:href="#DejaVuSans-53" x="357.8125"/>
      <use xlink:href="#DejaVuSans-45" x="421.289062"/>
      <use xlink:href="#DejaVuSans-4d" x="484.472656"/>
     </g>
    </g>
   </g>
  </g>
 </g>
 <defs>
  <clipPath id="p2bfc53ed44">
   <rect x="63" y="34.56" width="390.6" height="221.76"/>
  </clipPath>
 </defs>
</svg>
