<?xml version="1.0" encoding="utf-8" standalone="no"?>
<!DOCTYPE svg PUBLIC "-//W3C//DTD SVG 1.1//EN"
  "http://www.w3.org/Graphics/SVG/1.1/DTD/svg11.dtd">
<svg xmlns:xlink="http://www.w3.org/1999/xlink" width="504pt" height="288pt" viewBox="0 0 504 288" xmlns="http://www.w3.org/2000/svg" version="1.1">
 <metadata>
  <rdf:RDF xmlns:dc="http://purl.org/dc/elements/1.1/" xmlns:cc="http://creativecommons.org/ns#" xmlns:rdf="http://www.w3.org/1999/02/22-rdf-syntax-ns#">
   <cc:Work>
    <dc:type rdf:resource="http://purl.org/dc/dcmitype/StillImage"/>
    <dc:date>2023-09-22T20:47:34.014633</dc:date>
    <dc:format>image/svg+xml</dc:format>
    <dc:creator>
     <cc:Agent>
      <dc:title>Matplotlib v3.5.3, https://matplotlib.org/</dc:title>
     </cc:Agent>
    </dc:creator>
   </cc:Work>
  </rdf:RDF>
 </metadata>
 <defs>
  <style type="text/css">*{stroke-linejoin: round; stroke-linecap: butt}</style>
 </defs>
 <g id="figure_1">
  <g id="patch_1">
   <path d="M 0 288 
L 504 288 
L 504 0 
L 0 0 
z
" style="fill: #ffffff"/>
  </g>
  <g id="axes_1">
   <g id="patch_2">
    <path d="M 63 256.32 
L 453.6 256.32 
L 453.6 34.56 
L 63 34.56 
z
" style="fill: #ffffff"/>
   </g>
   <g id="PolyCollection_1">
    <path d="M 80.754545 126.387591 
L 80.754545 166.780037 
L 82.141619 162.460793 
L 83.528693 155.833174 
L 84.915767 147.872527 
L 86.302841 139.683815 
L 87.689915 132.158019 
L 89.076989 125.674724 
L 90.464062 119.995405 
L 91.851136 114.40359 
L 93.23821 107.988176 
L 94.625284 100.245647 
L 96.012358 91.917716 
L 97.399432 85.069946 
L 98.786506 81.975561 
L 100.17358 83.638901 
L 101.560653 88.860114 
L 102.947727 94.661117 
L 104.334801 98.23784 
L 105.721875 98.860889 
L 107.108949 98.072094 
L 108.496023 98.290616 
L 109.883097 101.015303 
L 111.27017 105.798321 
L 112.657244 110.692158 
L 114.044318 113.740456 
L 115.431392 114.192571 
L 116.818466 112.595005 
L 118.20554 110.05718 
L 119.592614 107.485034 
L 120.979687 105.327097 
L 122.366761 103.826691 
L 123.753835 103.318304 
L 125.140909 104.191962 
L 126.527983 106.616543 
L 127.915057 110.368285 
L 129.302131 114.927999 
L 130.689205 119.667009 
L 132.076278 123.923305 
L 133.463352 127.067679 
L 134.850426 128.683997 
L 136.2375 128.762471 
L 137.624574 127.821955 
L 139.011648 126.849896 
L 140.398722 126.73075 
L 141.785795 127.333218 
L 143.172869 127.292394 
L 144.559943 124.918084 
L 145.947017 119.381265 
L 147.334091 111.414056 
L 148.721165 103.290972 
L 150.108239 97.84747 
L 151.495312 96.880866 
L 152.882386 100.186324 
L 154.26946 105.647403 
L 155.656534 110.011573 
L 157.043608 110.500934 
L 158.430682 106.577829 
L 159.817756 100.32676 
L 161.20483 95.209831 
L 162.591903 94.175975 
L 163.978977 98.023937 
L 165.366051 104.916206 
L 166.753125 111.612337 
L 168.140199 115.677571 
L 169.527273 116.957392 
L 170.914347 117.192859 
L 172.30142 118.307062 
L 173.688494 120.859685 
L 175.075568 123.681516 
L 176.462642 124.84128 
L 177.849716 123.231161 
L 179.23679 119.446241 
L 180.623864 115.365962 
L 182.010937 113.14776 
L 183.398011 114.194492 
L 184.785085 118.319617 
L 186.172159 123.768318 
L 187.559233 128.202521 
L 188.946307 129.922806 
L 190.333381 128.770387 
L 191.720455 126.36889 
L 193.107528 125.25715 
L 194.494602 127.088106 
L 195.881676 131.155781 
L 197.26875 134.604976 
L 198.655824 134.39249 
L 200.042898 129.564215 
L 201.429972 122.114853 
L 202.817045 115.717043 
L 204.204119 113.098672 
L 205.591193 114.058991 
L 206.978267 115.840328 
L 208.365341 115.489328 
L 209.752415 112.11028 
L 211.139489 107.389682 
L 212.526563 104.229928 
L 213.913636 104.403603 
L 215.30071 107.139707 
L 216.687784 109.881525 
L 218.074858 110.33685 
L 219.461932 108.125604 
L 220.849006 105.016405 
L 222.23608 103.478127 
L 223.623153 104.616247 
L 225.010227 107.435039 
L 226.397301 109.990806 
L 227.784375 111.090116 
L 229.171449 111.087744 
L 230.558523 111.371238 
L 231.945597 112.991432 
L 233.33267 115.62413 
L 234.719744 117.878936 
L 236.106818 118.619071 
L 237.493892 118.02085 
L 238.880966 117.490402 
L 240.26804 118.488998 
L 241.655114 121.196063 
L 243.042188 124.218515 
L 244.429261 125.711117 
L 245.816335 124.984291 
L 247.203409 123.234563 
L 248.590483 122.723604 
L 249.977557 124.91218 
L 251.364631 128.964554 
L 252.751705 132.025886 
L 254.138778 131.405523 
L 255.525852 126.949535 
L 256.912926 121.437905 
L 258.3 118.449205 
L 259.687074 119.428842 
L 261.074148 122.431133 
L 262.461222 123.486031 
L 263.848295 119.679 
L 265.235369 111.70842 
L 266.622443 103.688433 
L 268.009517 100.011532 
L 269.396591 101.786788 
L 270.783665 105.977454 
L 272.170739 107.949067 
L 273.557813 105.211354 
L 274.944886 99.244843 
L 276.33196 93.9732 
L 277.719034 92.259016 
L 279.106108 93.529775 
L 280.493182 94.727947 
L 281.880256 93.648373 
L 283.26733 91.352968 
L 284.654403 91.265447 
L 286.041477 95.776426 
L 287.428551 103.481661 
L 288.815625 109.68443 
L 290.202699 110.063162 
L 291.589773 104.374977 
L 292.976847 96.761202 
L 294.36392 92.483112 
L 295.750994 94.162275 
L 297.138068 100.364682 
L 298.525142 107.28614 
L 299.912216 112.113437 
L 301.29929 115.09254 
L 302.686364 118.523082 
L 304.073438 124.108837 
L 305.460511 131.361472 
L 306.847585 138.130936 
L 308.234659 142.443148 
L 309.621733 144.015138 
L 311.008807 144.221225 
L 312.395881 144.778182 
L 313.782955 146.569465 
L 315.170028 149.517304 
L 316.557102 153.189346 
L 317.944176 157.362174 
L 319.33125 162.069555 
L 320.718324 167.221424 
L 322.105398 172.363875 
L 323.492472 176.9599 
L 324.879545 180.827138 
L 326.266619 184.231014 
L 327.653693 187.67041 
L 329.040767 191.611819 
L 330.427841 196.290357 
L 331.814915 201.769577 
L 333.201989 208.201345 
L 334.589063 215.793271 
L 335.976136 224.388087 
L 337.36321 233.12143 
L 338.750284 240.533638 
L 340.137358 245.145822 
L 341.524432 246.24 
L 342.911506 244.359444 
L 344.29858 241.126678 
L 345.685653 238.443718 
L 347.072727 237.499807 
L 348.459801 238.065329 
L 349.846875 238.501912 
L 351.233949 236.665592 
L 352.621023 231.279899 
L 354.008097 222.861568 
L 355.39517 213.43922 
L 356.782244 205.138442 
L 358.169318 198.670529 
L 359.556392 192.93201 
L 360.943466 186.043882 
L 362.33054 177.067765 
L 363.717614 167.057436 
L 365.104688 158.432754 
L 366.491761 153.06852 
L 367.878835 150.807507 
L 369.265909 149.714157 
L 370.652983 147.79417 
L 372.040057 144.776194 
L 373.427131 142.509051 
L 374.814205 143.53165 
L 376.201278 148.809435 
L 377.588352 156.432678 
L 378.975426 162.492991 
L 380.3625 163.608161 
L 381.749574 159.147722 
L 383.136648 151.496707 
L 384.523722 144.254253 
L 385.910795 139.768367 
L 387.297869 137.866174 
L 388.684943 136.604423 
L 390.072017 134.165457 
L 391.459091 130.284978 
L 392.846165 126.226059 
L 394.233239 123.537063 
L 395.620313 122.795666 
L 397.007386 123.367262 
L 398.39446 124.076765 
L 399.781534 123.992824 
L 401.168608 122.757252 
L 402.555682 120.468207 
L 403.942756 117.540332 
L 405.32983 114.761268 
L 406.716903 113.217629 
L 408.103977 113.789492 
L 409.491051 116.440401 
L 410.878125 119.93211 
L 412.265199 122.479373 
L 413.652273 122.994596 
L 415.039347 121.837782 
L 416.42642 120.424613 
L 417.813494 120.026235 
L 419.200568 120.688535 
L 420.587642 121.240221 
L 421.974716 120.500733 
L 423.36179 118.470258 
L 424.748864 116.259863 
L 426.135938 114.977753 
L 427.523011 114.728092 
L 428.910085 114.52104 
L 430.297159 113.151225 
L 431.684233 110.35285 
L 433.071307 107.25694 
L 434.458381 105.840616 
L 435.845455 107.690416 
L 435.845455 63.297179 
L 435.845455 63.297179 
L 434.458381 61.447635 
L 433.071307 62.6782 
L 431.684233 65.433806 
L 430.297159 67.558922 
L 428.910085 67.942832 
L 427.523011 67.174433 
L 426.135938 66.772783 
L 424.748864 67.765459 
L 423.36179 69.787825 
L 421.974716 71.496387 
L 420.587642 71.867795 
L 419.200568 71.081739 
L 417.813494 70.289221 
L 416.42642 70.600059 
L 415.039347 72.075971 
L 413.652273 73.578604 
L 412.265199 73.756114 
L 410.878125 72.274213 
L 409.491051 70.091419 
L 408.103977 68.662716 
L 406.716903 68.915148 
L 405.32983 70.790218 
L 403.942756 73.551244 
L 402.555682 76.372308 
L 401.168608 78.593514 
L 399.781534 79.663773 
L 398.39446 79.21287 
L 397.007386 77.413048 
L 395.620313 75.27715 
L 394.233239 74.307792 
L 392.846165 75.458947 
L 391.459091 78.271843 
L 390.072017 81.09595 
L 388.684943 82.427711 
L 387.297869 82.38066 
L 385.910795 82.900703 
L 384.523722 86.243865 
L 383.136648 92.873218 
L 381.749574 100.57791 
L 380.3625 105.69676 
L 378.975426 105.670898 
L 377.588352 100.958902 
L 376.201278 94.756623 
L 374.814205 90.775334 
L 373.427131 90.821493 
L 372.040057 93.934699 
L 370.652983 97.622913 
L 369.265909 100.117472 
L 367.878835 101.769268 
L 366.491761 104.505654 
L 365.104688 109.971545 
L 363.717614 118.062246 
L 362.33054 127.027319 
L 360.943466 134.840112 
L 359.556392 140.682698 
L 358.169318 145.478592 
L 356.782244 151.028675 
L 355.39517 158.398465 
L 354.008097 166.905912 
L 352.621023 174.490956 
L 351.233949 179.090057 
L 349.846875 180.0006 
L 348.459801 178.330446 
L 347.072727 176.296666 
L 345.685653 175.906491 
L 344.29858 177.863998 
L 342.911506 181.311585 
L 341.524432 184.450173 
L 340.137358 185.536255 
L 338.750284 183.669705 
L 337.36321 179.104761 
L 335.976136 173.048119 
L 334.589063 167.021608 
L 333.201989 162.125537 
L 331.814915 158.643017 
L 330.427841 156.120963 
L 329.040767 153.781423 
L 327.653693 151.019331 
L 326.266619 147.61882 
L 324.879545 143.549065 
L 323.492472 138.798289 
L 322.105398 133.49392 
L 320.718324 127.945473 
L 319.33125 122.445273 
L 317.944176 117.099312 
L 316.557102 111.902143 
L 315.170028 107.025327 
L 313.782955 103.078017 
L 312.395881 100.875664 
L 311.008807 100.615921 
L 309.621733 101.23273 
L 308.234659 100.80262 
L 306.847585 97.898295 
L 305.460511 92.836375 
L 304.073438 87.642332 
L 302.686364 84.407175 
L 301.29929 83.320622 
L 299.912216 82.416623 
L 298.525142 79.494988 
L 297.138068 74.465961 
L 295.750994 70.03793 
L 294.36392 69.897122 
L 292.976847 75.412 
L 291.589773 83.746739 
L 290.202699 89.631119 
L 288.815625 89.38645 
L 287.428551 83.598587 
L 286.041477 76.404402 
L 284.654403 72.109565 
L 283.26733 71.89542 
L 281.880256 73.432894 
L 280.493182 73.665004 
L 279.106108 71.957807 
L 277.719034 70.624806 
L 276.33196 72.498682 
L 274.944886 77.918742 
L 273.557813 83.974072 
L 272.170739 86.855374 
L 270.783665 85.303316 
L 269.396591 81.941755 
L 268.009517 81.18048 
L 266.622443 85.550653 
L 265.235369 93.664501 
L 263.848295 101.371613 
L 262.461222 104.980307 
L 261.074148 103.998028 
L 259.687074 101.289965 
L 258.3 100.570919 
L 256.912926 103.364846 
L 255.525852 108.012601 
L 254.138778 111.284478 
L 252.751705 110.870954 
L 251.364631 106.876191 
L 249.977557 101.506697 
L 248.590483 97.377428 
L 247.203409 95.665542 
L 245.816335 95.416769 
L 244.429261 94.557546 
L 243.042188 91.753991 
L 241.655114 87.528386 
L 240.26804 83.752847 
L 238.880966 82.05662 
L 237.493892 82.498371 
L 236.106818 83.557017 
L 234.719744 83.452077 
L 233.33267 81.664023 
L 231.945597 79.263779 
L 230.558523 77.794086 
L 229.171449 77.802475 
L 227.784375 78.30754 
L 226.397301 77.709743 
L 225.010227 75.46839 
L 223.623153 72.911071 
L 222.23608 72.205992 
L 220.849006 74.45442 
L 219.461932 78.593218 
L 218.074858 81.959846 
L 216.687784 82.292778 
L 215.30071 79.796165 
L 213.913636 77.242889 
L 212.526563 77.686414 
L 211.139489 81.877135 
L 209.752415 87.564228 
L 208.365341 91.179082 
L 206.978267 90.743457 
L 205.591193 87.631557 
L 204.204119 85.456767 
L 202.817045 87.141432 
L 201.429972 92.665333 
L 200.042898 99.05711 
L 198.655824 102.528242 
L 197.26875 101.212074 
L 195.881676 96.423406 
L 194.494602 91.525687 
L 193.107528 89.495152 
L 191.720455 91.056947 
L 190.333381 94.498386 
L 188.946307 97.019707 
L 187.559233 96.629793 
L 186.172159 93.382717 
L 184.785085 89.175271 
L 183.398011 86.388973 
L 182.010937 86.529162 
L 180.623864 89.581357 
L 179.23679 94.006168 
L 177.849716 97.469578 
L 176.462642 98.271651 
L 175.075568 96.385927 
L 173.688494 93.298178 
L 172.30142 90.926707 
L 170.914347 90.210522 
L 169.527273 90.267314 
L 168.140199 89.015167 
L 166.753125 84.923345 
L 165.366051 78.451007 
L 163.978977 72.100065 
L 162.591903 69.024656 
L 161.20483 71.022064 
L 159.817756 77.196333 
L 158.430682 84.326648 
L 157.043608 88.848048 
L 155.656534 88.922787 
L 154.26946 85.134629 
L 152.882386 79.925299 
L 151.495312 76.38632 
L 150.108239 76.625756 
L 148.721165 80.64739 
L 147.334091 86.677752 
L 145.947017 92.291455 
L 144.559943 95.573847 
L 143.172869 96.05146 
L 141.785795 94.710524 
L 140.398722 93.002047 
L 139.011648 91.84801 
L 137.624574 91.345004 
L 136.2375 90.922801 
L 134.850426 89.785423 
L 133.463352 87.508563 
L 132.076278 84.260752 
L 130.689205 80.513604 
L 129.302131 76.768652 
L 127.915057 73.551995 
L 126.527983 71.381563 
L 125.140909 70.555629 
L 123.753835 70.992801 
L 122.366761 72.346215 
L 120.979687 74.328691 
L 119.592614 76.913879 
L 118.20554 80.118082 
L 116.818466 83.492221 
L 115.431392 85.86739 
L 114.044318 85.850679 
L 112.657244 82.910163 
L 111.27017 78.115545 
L 109.883097 73.714256 
L 108.496023 71.708858 
L 107.108949 72.405548 
L 105.721875 74.044298 
L 104.334801 74.030678 
L 102.947727 70.953489 
L 101.560653 65.678328 
L 100.17358 60.770451 
L 98.786506 58.940246 
L 97.399432 61.439479 
L 96.012358 67.320109 
L 94.625284 74.250499 
L 93.23821 80.11891 
L 91.851136 84.093939 
L 90.464062 86.817489 
L 89.076989 89.776474 
L 87.689915 94.19746 
L 86.302841 100.383423 
L 84.915767 107.797596 
L 83.528693 115.393633 
L 82.141619 121.934085 
L 80.754545 126.387591 
z
" clip-path="url(#pb3eae0c057)" style="fill: #1f77b4; fill-opacity: 0.2"/>
   </g>
   <g id="PolyCollection_2">
    <path d="M 80.754545 128.865123 
L 80.754545 155.813146 
L 82.141619 155.547248 
L 83.528693 155.063344 
L 84.915767 154.269967 
L 86.302841 153.199082 
L 87.689915 151.357392 
L 89.076989 147.963767 
L 90.464062 142.811569 
L 91.851136 136.784867 
L 93.23821 131.544382 
L 94.625284 128.418856 
L 96.012358 127.407256 
L 97.399432 127.360054 
L 98.786506 127.092158 
L 100.17358 126.361088 
L 101.560653 125.995567 
L 102.947727 127.088368 
L 104.334801 129.946912 
L 105.721875 133.798005 
L 107.108949 137.371134 
L 108.496023 139.60409 
L 109.883097 139.892883 
L 111.27017 137.958555 
L 112.657244 133.888455 
L 114.044318 128.528586 
L 115.431392 123.513032 
L 116.818466 120.494923 
L 118.20554 120.226423 
L 119.592614 122.16771 
L 120.979687 124.717158 
L 122.366761 126.093414 
L 123.753835 125.413255 
L 125.140909 122.980781 
L 126.527983 119.670626 
L 127.915057 116.285888 
L 129.302131 113.520504 
L 130.689205 112.285812 
L 132.076278 113.724281 
L 133.463352 118.541036 
L 134.850426 126.101045 
L 136.2375 134.226421 
L 137.624574 140.150866 
L 139.011648 142.132316 
L 140.398722 140.603841 
L 141.785795 137.897642 
L 143.172869 136.602361 
L 144.559943 137.7314 
L 145.947017 140.041352 
L 147.334091 141.017162 
L 148.721165 138.864159 
L 150.108239 134.00644 
L 151.495312 128.857232 
L 152.882386 126.006246 
L 154.26946 126.249315 
L 155.656534 127.987633 
L 157.043608 128.481856 
L 158.430682 126.005981 
L 159.817756 121.174845 
L 161.20483 116.356198 
L 162.591903 113.66217 
L 163.978977 113.196469 
L 165.366051 113.019392 
L 166.753125 110.865061 
L 168.140199 106.16351 
L 169.527273 100.627377 
L 170.914347 96.936776 
L 172.30142 96.756102 
L 173.688494 99.676284 
L 175.075568 103.624063 
L 176.462642 106.171482 
L 177.849716 105.76447 
L 179.23679 102.197894 
L 180.623864 96.433645 
L 182.010937 90.245296 
L 183.398011 85.678431 
L 184.785085 84.122854 
L 186.172159 85.581575 
L 187.559233 88.766063 
L 188.946307 91.823281 
L 190.333381 93.397657 
L 191.720455 93.576166 
L 193.107528 93.757317 
L 194.494602 95.266887 
L 195.881676 98.06756 
L 197.26875 100.732494 
L 198.655824 101.658609 
L 200.042898 100.609419 
L 201.429972 99.1012 
L 202.817045 99.004849 
L 204.204119 100.82998 
L 205.591193 103.464817 
L 206.978267 105.294403 
L 208.365341 105.528113 
L 209.752415 104.722766 
L 211.139489 104.106705 
L 212.526563 104.370003 
L 213.913636 105.14034 
L 215.30071 105.485022 
L 216.687784 104.795434 
L 218.074858 103.317157 
L 219.461932 101.824072 
L 220.849006 100.684131 
L 222.23608 99.523329 
L 223.623153 98.007148 
L 225.010227 96.570803 
L 226.397301 96.145093 
L 227.784375 97.288019 
L 229.171449 99.725708 
L 230.558523 102.715407 
L 231.945597 105.678323 
L 233.33267 108.46403 
L 234.719744 111.351071 
L 236.106818 114.947281 
L 237.493892 119.751819 
L 238.880966 125.645098 
L 240.26804 131.974232 
L 241.655114 137.958657 
L 243.042188 142.888725 
L 244.429261 146.468146 
L 245.816335 149.265501 
L 247.203409 152.530583 
L 248.590483 157.245399 
L 249.977557 163.108189 
L 251.364631 168.366802 
L 252.751705 170.917501 
L 254.138778 169.982169 
L 255.525852 167.006798 
L 256.912926 164.905691 
L 258.3 166.016773 
L 259.687074 170.313505 
L 261.074148 175.41534 
L 262.461222 178.38037 
L 263.848295 177.756283 
L 265.235369 174.405725 
L 266.622443 170.746293 
L 268.009517 169.070021 
L 269.396591 170.074875 
L 270.783665 172.506616 
L 272.170739 174.027848 
L 273.557813 172.684337 
L 274.944886 168.012096 
L 276.33196 161.175344 
L 277.719034 154.268153 
L 279.106108 149.298573 
L 280.493182 147.277966 
L 281.880256 147.784274 
L 283.26733 149.33787 
L 284.654403 150.402979 
L 286.041477 150.255094 
L 287.428551 149.102828 
L 288.815625 147.487033 
L 290.202699 145.560554 
L 291.589773 142.94069 
L 292.976847 139.189098 
L 294.36392 134.300231 
L 295.750994 128.701134 
L 297.138068 122.840627 
L 298.525142 116.836533 
L 299.912216 110.622353 
L 301.29929 104.475844 
L 302.686364 99.20503 
L 304.073438 95.528076 
L 305.460511 93.126644 
L 306.847585 90.47751 
L 308.234659 86.024361 
L 309.621733 79.720358 
L 311.008807 73.43835 
L 312.395881 69.801099 
L 313.782955 70.320154 
L 315.170028 74.303814 
L 316.557102 79.329792 
L 317.944176 82.855609 
L 319.33125 83.879461 
L 320.718324 83.531063 
L 322.105398 84.050445 
L 323.492472 86.933907 
L 324.879545 91.792151 
L 326.266619 96.571286 
L 327.653693 98.704098 
L 329.040767 96.601405 
L 330.427841 90.753174 
L 331.814915 83.684482 
L 333.201989 78.710509 
L 334.589063 78.160365 
L 335.976136 82.026279 
L 337.36321 87.984124 
L 338.750284 92.983606 
L 340.137358 95.315172 
L 341.524432 95.635388 
L 342.911506 96.223655 
L 344.29858 99.019959 
L 345.685653 104.0283 
L 347.072727 109.467087 
L 348.459801 113.445669 
L 349.846875 115.575878 
L 351.233949 117.055776 
L 352.621023 119.191859 
L 354.008097 121.906191 
L 355.39517 123.79918 
L 356.782244 123.654448 
L 358.169318 121.849046 
L 359.556392 120.259294 
L 360.943466 120.634954 
L 362.33054 122.852632 
L 363.717614 124.709844 
L 365.104688 123.633517 
L 366.491761 118.934878 
L 367.878835 112.683776 
L 369.265909 108.329088 
L 370.652983 108.060485 
L 372.040057 111.211825 
L 373.427131 115.153183 
L 374.814205 117.65581 
L 376.201278 118.567732 
L 377.588352 119.663018 
L 378.975426 122.901375 
L 380.3625 128.563879 
L 381.749574 135.094142 
L 383.136648 140.651443 
L 384.523722 144.613069 
L 385.910795 147.761726 
L 387.297869 151.233766 
L 388.684943 155.116485 
L 390.072017 158.07496 
L 391.459091 158.560081 
L 392.846165 156.393472 
L 394.233239 153.160952 
L 395.620313 151.117672 
L 397.007386 151.438961 
L 398.39446 153.16756 
L 399.781534 153.966035 
L 401.168608 152.191127 
L 402.555682 148.442197 
L 403.942756 145.264428 
L 405.32983 145.236759 
L 406.716903 148.898671 
L 408.103977 154.171328 
L 409.491051 157.742366 
L 410.878125 157.303724 
L 412.265199 152.998997 
L 413.652273 147.063971 
L 415.039347 141.990403 
L 416.42642 138.799865 
L 417.813494 136.746458 
L 419.200568 134.35301 
L 420.587642 130.841773 
L 421.974716 126.872293 
L 423.36179 123.940115 
L 424.748864 123.029607 
L 426.135938 123.740055 
L 427.523011 124.423477 
L 428.910085 123.243604 
L 430.297159 119.597317 
L 431.684233 114.721473 
L 433.071307 110.81612 
L 434.458381 109.403429 
L 435.845455 110.229098 
L 435.845455 65.801195 
L 435.845455 65.801195 
L 434.458381 64.623174 
L 433.071307 65.861505 
L 431.684233 69.820362 
L 430.297159 75.195218 
L 428.910085 79.896458 
L 427.523011 82.464525 
L 426.135938 83.049463 
L 424.748864 83.278467 
L 423.36179 84.954846 
L 421.974716 88.551642 
L 420.587642 92.941452 
L 419.200568 96.549474 
L 417.813494 98.768663 
L 416.42642 100.506109 
L 415.039347 103.371278 
L 413.652273 108.025036 
L 412.265199 113.189324 
L 410.878125 116.310966 
L 409.491051 115.370268 
L 408.103977 110.52925 
L 406.716903 104.364661 
L 405.32983 100.28202 
L 403.942756 100.21653 
L 402.555682 103.401764 
L 401.168608 107.119424 
L 399.781534 108.847856 
L 398.39446 108.123 
L 397.007386 106.61686 
L 395.620313 106.510698 
L 394.233239 108.592723 
L 392.846165 111.561839 
L 391.459091 113.155042 
L 390.072017 112.184969 
L 388.684943 109.501163 
L 387.297869 107.002851 
L 385.910795 105.816615 
L 384.523722 105.28411 
L 383.136648 103.618978 
L 381.749574 99.77844 
L 380.3625 94.757389 
L 378.975426 90.809468 
L 377.588352 89.383103 
L 376.201278 89.78623 
L 374.814205 89.675591 
L 373.427131 87.075052 
L 372.040057 82.374941 
L 370.652983 78.289836 
L 369.265909 77.628172 
L 367.878835 80.964647 
L 366.491761 86.126827 
L 365.104688 89.789439 
L 363.717614 89.967431 
L 362.33054 87.4064 
L 360.943466 84.683729 
L 359.556392 83.916107 
L 358.169318 85.161479 
L 356.782244 86.788436 
L 355.39517 87.230632 
L 354.008097 86.349198 
L 352.621023 85.177371 
L 351.233949 84.532091 
L 349.846875 84.044179 
L 348.459801 82.535956 
L 347.072727 79.266229 
L 345.685653 74.852391 
L 344.29858 70.958528 
L 342.911506 68.914743 
L 341.524432 68.485667 
L 340.137358 67.895462 
L 338.750284 65.171421 
L 337.36321 59.824306 
L 335.976136 53.496405 
L 334.589063 49.012767 
L 333.201989 48.590607 
L 331.814915 52.434349 
L 330.427841 58.539617 
L 329.040767 63.824582 
L 327.653693 65.839418 
L 326.266619 63.978431 
L 324.879545 59.635391 
L 323.492472 55.286858 
L 322.105398 52.918404 
L 320.718324 52.814843 
L 319.33125 53.596491 
L 317.944176 53.322414 
L 316.557102 50.929861 
L 315.170028 47.234341 
L 313.782955 44.64 
L 312.395881 45.477911 
L 311.008807 50.266579 
L 309.621733 57.364385 
L 308.234659 64.196096 
L 306.847585 68.975327 
L 305.460511 71.600394 
L 304.073438 73.249173 
L 302.686364 75.296527 
L 301.29929 78.405866 
L 299.912216 82.310721 
L 298.525142 86.334208 
L 297.138068 90.055361 
L 295.750994 93.498037 
L 294.36392 96.78961 
L 292.976847 99.78056 
L 291.589773 102.112137 
L 290.202699 103.590217 
L 288.815625 104.342437 
L 287.428551 104.612436 
L 286.041477 104.497146 
L 284.654403 103.937941 
L 283.26733 103.031065 
L 281.880256 102.371116 
L 280.493182 103.01182 
L 279.106108 105.976908 
L 277.719034 111.616262 
L 276.33196 119.171979 
L 274.944886 126.898016 
L 273.557813 132.797908 
L 272.170739 135.566649 
L 270.783665 135.229695 
L 269.396591 133.201248 
L 268.009517 131.619802 
L 266.622443 132.058175 
L 265.235369 134.32752 
L 263.848295 136.430763 
L 262.461222 136.015545 
L 261.074148 132.360396 
L 259.687074 127.196903 
L 258.3 123.53091 
L 256.912926 123.419189 
L 255.525852 126.501882 
L 254.138778 130.345122 
L 252.751705 132.256006 
L 251.364631 131.174928 
L 249.977557 128.166026 
L 248.590483 125.245213 
L 247.203409 123.712457 
L 245.816335 123.34253 
L 244.429261 122.845876 
L 243.042188 120.948386 
L 241.655114 117.128069 
L 240.26804 111.714838 
L 238.880966 105.590279 
L 237.493892 99.637921 
L 236.106818 94.375853 
L 234.719744 90.058208 
L 233.33267 86.659913 
L 231.945597 83.679649 
L 230.558523 80.514205 
L 229.171449 77.186113 
L 227.784375 74.400716 
L 226.397301 72.859315 
L 225.010227 72.69252 
L 223.623153 73.499286 
L 222.23608 74.762106 
L 220.849006 76.154568 
L 219.461932 77.529696 
L 218.074858 78.789744 
L 216.687784 79.75611 
L 215.30071 80.050623 
L 213.913636 79.404219 
L 212.526563 78.195084 
L 211.139489 77.2706 
L 209.752415 77.025632 
L 208.365341 76.857724 
L 206.978267 75.688047 
L 205.591193 73.121104 
L 204.204119 70.139147 
L 202.817045 68.412123 
L 201.429972 68.732586 
L 200.042898 70.2581 
L 198.655824 71.286527 
L 197.26875 70.643489 
L 195.881676 68.592487 
L 194.494602 66.584796 
L 193.107528 65.854953 
L 191.720455 66.164592 
L 190.333381 66.052317 
L 188.946307 64.224256 
L 187.559233 60.76823 
L 186.172159 57.312331 
L 184.785085 55.912393 
L 183.398011 57.573476 
L 182.010937 61.80208 
L 180.623864 67.234988 
L 179.23679 72.230227 
L 177.849716 75.1776 
L 176.462642 75.018736 
L 175.075568 71.908155 
L 173.688494 67.507783 
L 172.30142 64.446605 
L 170.914347 64.884352 
L 169.527273 69.003687 
L 168.140199 74.751225 
L 166.753125 79.270871 
L 165.366051 80.969377 
L 163.978977 80.607718 
L 162.591903 80.560888 
L 161.20483 82.772846 
L 159.817756 87.056608 
L 158.430682 91.205748 
L 157.043608 92.854895 
L 155.656534 91.51028 
L 154.26946 89.040364 
L 152.882386 88.2325 
L 151.495312 90.605631 
L 150.108239 95.240753 
L 148.721165 99.533662 
L 147.334091 101.202088 
L 145.947017 99.952845 
L 144.559943 97.619869 
L 143.172869 96.739921 
L 141.785795 98.596312 
L 140.398722 102.166913 
L 139.011648 104.766539 
L 137.624574 103.876961 
L 136.2375 98.844076 
L 134.850426 91.317359 
L 133.463352 84.198075 
L 132.076278 79.923581 
L 130.689205 79.334604 
L 129.302131 81.723144 
L 127.915057 85.686453 
L 126.527983 89.967751 
L 125.140909 93.722252 
L 123.753835 96.335281 
L 122.366761 97.326484 
L 120.979687 96.577172 
L 119.592614 94.673892 
L 118.20554 92.987189 
L 116.818466 93.093704 
L 115.431392 95.70068 
L 114.044318 100.147937 
L 112.657244 105.000037 
L 111.27017 108.878621 
L 109.883097 110.862762 
L 108.496023 110.616747 
L 107.108949 108.39188 
L 105.721875 104.895427 
L 104.334801 101.13414 
L 102.947727 98.160584 
L 101.560653 96.642279 
L 100.17358 96.528067 
L 98.786506 97.139568 
L 97.399432 97.808806 
L 96.012358 98.646979 
L 94.625284 100.569133 
L 93.23821 104.401218 
L 91.851136 110.007432 
L 90.464062 116.226437 
L 89.076989 121.59531 
L 87.689915 125.306519 
L 86.302841 127.482509 
L 84.915767 128.589825 
L 83.528693 128.965211 
L 82.141619 128.904922 
L 80.754545 128.865123 
z
" clip-path="url(#pb3eae0c057)" style="fill: #ff7f0e; fill-opacity: 0.2"/>
   </g>
   <g id="matplotlib.axis_1">
    <g id="xtick_1">
     <g id="line2d_1">
      <defs>
       <path id="m162f8d6ba7" d="M 0 0 
L 0 3.5 
" style="stroke: #000000; stroke-width: 0.8"/>
      </defs>
      <g>
       <use xlink:href="#m162f8d6ba7" x="116.541051" y="256.32" style="stroke: #000000; stroke-width: 0.8"/>
      </g>
     </g>
     <g id="text_1">
      <!-- −0.2 -->
      <g transform="translate(97.114801 275.4775)scale(0.16 -0.16)">
       <defs>
        <path id="DejaVuSans-2212" d="M 678 2272 
L 4684 2272 
L 4684 1741 
L 678 1741 
L 678 2272 
z
" transform="scale(0.015625)"/>
        <path id="DejaVuSans-30" d="M 2034 4250 
Q 1547 4250 1301 3770 
Q 1056 3291 1056 2328 
Q 1056 1369 1301 889 
Q 1547 409 2034 409 
Q 2525 409 2770 889 
Q 3016 1369 3016 2328 
Q 3016 3291 2770 3770 
Q 2525 4250 2034 4250 
z
M 2034 4750 
Q 2819 4750 3233 4129 
Q 3647 3509 3647 2328 
Q 3647 1150 3233 529 
Q 2819 -91 2034 -91 
Q 1250 -91 836 529 
Q 422 1150 422 2328 
Q 422 3509 836 4129 
Q 1250 4750 2034 4750 
z
" transform="scale(0.015625)"/>
        <path id="DejaVuSans-2e" d="M 684 794 
L 1344 794 
L 1344 0 
L 684 0 
L 684 794 
z
" transform="scale(0.015625)"/>
        <path id="DejaVuSans-32" d="M 1228 531 
L 3431 531 
L 3431 0 
L 469 0 
L 469 531 
Q 828 903 1448 1529 
Q 2069 2156 2228 2338 
Q 2531 2678 2651 2914 
Q 2772 3150 2772 3378 
Q 2772 3750 2511 3984 
Q 2250 4219 1831 4219 
Q 1534 4219 1204 4116 
Q 875 4013 500 3803 
L 500 4441 
Q 881 4594 1212 4672 
Q 1544 4750 1819 4750 
Q 2544 4750 2975 4387 
Q 3406 4025 3406 3419 
Q 3406 3131 3298 2873 
Q 3191 2616 2906 2266 
Q 2828 2175 2409 1742 
Q 1991 1309 1228 531 
z
" transform="scale(0.015625)"/>
       </defs>
       <use xlink:href="#DejaVuSans-2212"/>
       <use xlink:href="#DejaVuSans-30" x="83.789062"/>
       <use xlink:href="#DejaVuSans-2e" x="147.412109"/>
       <use xlink:href="#DejaVuSans-32" x="179.199219"/>
      </g>
     </g>
    </g>
    <g id="xtick_2">
     <g id="line2d_2">
      <g>
       <use xlink:href="#m162f8d6ba7" x="187.559233" y="256.32" style="stroke: #000000; stroke-width: 0.8"/>
      </g>
     </g>
     <g id="text_2">
      <!-- 0.0 -->
      <g transform="translate(174.836733 275.4775)scale(0.16 -0.16)">
       <use xlink:href="#DejaVuSans-30"/>
       <use xlink:href="#DejaVuSans-2e" x="63.623047"/>
       <use xlink:href="#DejaVuSans-30" x="95.410156"/>
      </g>
     </g>
    </g>
    <g id="xtick_3">
     <g id="line2d_3">
      <g>
       <use xlink:href="#m162f8d6ba7" x="258.577415" y="256.32" style="stroke: #000000; stroke-width: 0.8"/>
      </g>
     </g>
     <g id="text_3">
      <!-- 0.2 -->
      <g transform="translate(245.854915 275.4775)scale(0.16 -0.16)">
       <use xlink:href="#DejaVuSans-30"/>
       <use xlink:href="#DejaVuSans-2e" x="63.623047"/>
       <use xlink:href="#DejaVuSans-32" x="95.410156"/>
      </g>
     </g>
    </g>
    <g id="xtick_4">
     <g id="line2d_4">
      <g>
       <use xlink:href="#m162f8d6ba7" x="329.595597" y="256.32" style="stroke: #000000; stroke-width: 0.8"/>
      </g>
     </g>
     <g id="text_4">
      <!-- 0.4 -->
      <g transform="translate(316.873097 275.4775)scale(0.16 -0.16)">
       <defs>
        <path id="DejaVuSans-34" d="M 2419 4116 
L 825 1625 
L 2419 1625 
L 2419 4116 
z
M 2253 4666 
L 3047 4666 
L 3047 1625 
L 3713 1625 
L 3713 1100 
L 3047 1100 
L 3047 0 
L 2419 0 
L 2419 1100 
L 313 1100 
L 313 1709 
L 2253 4666 
z
" transform="scale(0.015625)"/>
       </defs>
       <use xlink:href="#DejaVuSans-30"/>
       <use xlink:href="#DejaVuSans-2e" x="63.623047"/>
       <use xlink:href="#DejaVuSans-34" x="95.410156"/>
      </g>
     </g>
    </g>
    <g id="xtick_5">
     <g id="line2d_5">
      <g>
       <use xlink:href="#m162f8d6ba7" x="400.613778" y="256.32" style="stroke: #000000; stroke-width: 0.8"/>
      </g>
     </g>
     <g id="text_5">
      <!-- 0.6 -->
      <g transform="translate(387.891278 275.4775)scale(0.16 -0.16)">
       <defs>
        <path id="DejaVuSans-36" d="M 2113 2584 
Q 1688 2584 1439 2293 
Q 1191 2003 1191 1497 
Q 1191 994 1439 701 
Q 1688 409 2113 409 
Q 2538 409 2786 701 
Q 3034 994 3034 1497 
Q 3034 2003 2786 2293 
Q 2538 2584 2113 2584 
z
M 3366 4563 
L 3366 3988 
Q 3128 4100 2886 4159 
Q 2644 4219 2406 4219 
Q 1781 4219 1451 3797 
Q 1122 3375 1075 2522 
Q 1259 2794 1537 2939 
Q 1816 3084 2150 3084 
Q 2853 3084 3261 2657 
Q 3669 2231 3669 1497 
Q 3669 778 3244 343 
Q 2819 -91 2113 -91 
Q 1303 -91 875 529 
Q 447 1150 447 2328 
Q 447 3434 972 4092 
Q 1497 4750 2381 4750 
Q 2619 4750 2861 4703 
Q 3103 4656 3366 4563 
z
" transform="scale(0.015625)"/>
       </defs>
       <use xlink:href="#DejaVuSans-30"/>
       <use xlink:href="#DejaVuSans-2e" x="63.623047"/>
       <use xlink:href="#DejaVuSans-36" x="95.410156"/>
      </g>
     </g>
    </g>
    <g id="text_6">
     <!-- Time from event (s) -->
     <g transform="translate(169.41375 296.482188)scale(0.18 -0.18)">
      <defs>
       <path id="DejaVuSans-54" d="M -19 4666 
L 3928 4666 
L 3928 4134 
L 2272 4134 
L 2272 0 
L 1638 0 
L 1638 4134 
L -19 4134 
L -19 4666 
z
" transform="scale(0.015625)"/>
       <path id="DejaVuSans-69" d="M 603 3500 
L 1178 3500 
L 1178 0 
L 603 0 
L 603 3500 
z
M 603 4863 
L 1178 4863 
L 1178 4134 
L 603 4134 
L 603 4863 
z
" transform="scale(0.015625)"/>
       <path id="DejaVuSans-6d" d="M 3328 2828 
Q 3544 3216 3844 3400 
Q 4144 3584 4550 3584 
Q 5097 3584 5394 3201 
Q 5691 2819 5691 2113 
L 5691 0 
L 5113 0 
L 5113 2094 
Q 5113 2597 4934 2840 
Q 4756 3084 4391 3084 
Q 3944 3084 3684 2787 
Q 3425 2491 3425 1978 
L 3425 0 
L 2847 0 
L 2847 2094 
Q 2847 2600 2669 2842 
Q 2491 3084 2119 3084 
Q 1678 3084 1418 2786 
Q 1159 2488 1159 1978 
L 1159 0 
L 581 0 
L 581 3500 
L 1159 3500 
L 1159 2956 
Q 1356 3278 1631 3431 
Q 1906 3584 2284 3584 
Q 2666 3584 2933 3390 
Q 3200 3197 3328 2828 
z
" transform="scale(0.015625)"/>
       <path id="DejaVuSans-65" d="M 3597 1894 
L 3597 1613 
L 953 1613 
Q 991 1019 1311 708 
Q 1631 397 2203 397 
Q 2534 397 2845 478 
Q 3156 559 3463 722 
L 3463 178 
Q 3153 47 2828 -22 
Q 2503 -91 2169 -91 
Q 1331 -91 842 396 
Q 353 884 353 1716 
Q 353 2575 817 3079 
Q 1281 3584 2069 3584 
Q 2775 3584 3186 3129 
Q 3597 2675 3597 1894 
z
M 3022 2063 
Q 3016 2534 2758 2815 
Q 2500 3097 2075 3097 
Q 1594 3097 1305 2825 
Q 1016 2553 972 2059 
L 3022 2063 
z
" transform="scale(0.015625)"/>
       <path id="DejaVuSans-20" transform="scale(0.015625)"/>
       <path id="DejaVuSans-66" d="M 2375 4863 
L 2375 4384 
L 1825 4384 
Q 1516 4384 1395 4259 
Q 1275 4134 1275 3809 
L 1275 3500 
L 2222 3500 
L 2222 3053 
L 1275 3053 
L 1275 0 
L 697 0 
L 697 3053 
L 147 3053 
L 147 3500 
L 697 3500 
L 697 3744 
Q 697 4328 969 4595 
Q 1241 4863 1831 4863 
L 2375 4863 
z
" transform="scale(0.015625)"/>
       <path id="DejaVuSans-72" d="M 2631 2963 
Q 2534 3019 2420 3045 
Q 2306 3072 2169 3072 
Q 1681 3072 1420 2755 
Q 1159 2438 1159 1844 
L 1159 0 
L 581 0 
L 581 3500 
L 1159 3500 
L 1159 2956 
Q 1341 3275 1631 3429 
Q 1922 3584 2338 3584 
Q 2397 3584 2469 3576 
Q 2541 3569 2628 3553 
L 2631 2963 
z
" transform="scale(0.015625)"/>
       <path id="DejaVuSans-6f" d="M 1959 3097 
Q 1497 3097 1228 2736 
Q 959 2375 959 1747 
Q 959 1119 1226 758 
Q 1494 397 1959 397 
Q 2419 397 2687 759 
Q 2956 1122 2956 1747 
Q 2956 2369 2687 2733 
Q 2419 3097 1959 3097 
z
M 1959 3584 
Q 2709 3584 3137 3096 
Q 3566 2609 3566 1747 
Q 3566 888 3137 398 
Q 2709 -91 1959 -91 
Q 1206 -91 779 398 
Q 353 888 353 1747 
Q 353 2609 779 3096 
Q 1206 3584 1959 3584 
z
" transform="scale(0.015625)"/>
       <path id="DejaVuSans-76" d="M 191 3500 
L 800 3500 
L 1894 563 
L 2988 3500 
L 3597 3500 
L 2284 0 
L 1503 0 
L 191 3500 
z
" transform="scale(0.015625)"/>
       <path id="DejaVuSans-6e" d="M 3513 2113 
L 3513 0 
L 2938 0 
L 2938 2094 
Q 2938 2591 2744 2837 
Q 2550 3084 2163 3084 
Q 1697 3084 1428 2787 
Q 1159 2491 1159 1978 
L 1159 0 
L 581 0 
L 581 3500 
L 1159 3500 
L 1159 2956 
Q 1366 3272 1645 3428 
Q 1925 3584 2291 3584 
Q 2894 3584 3203 3211 
Q 3513 2838 3513 2113 
z
" transform="scale(0.015625)"/>
       <path id="DejaVuSans-74" d="M 1172 4494 
L 1172 3500 
L 2356 3500 
L 2356 3053 
L 1172 3053 
L 1172 1153 
Q 1172 725 1289 603 
Q 1406 481 1766 481 
L 2356 481 
L 2356 0 
L 1766 0 
Q 1100 0 847 248 
Q 594 497 594 1153 
L 594 3053 
L 172 3053 
L 172 3500 
L 594 3500 
L 594 4494 
L 1172 4494 
z
" transform="scale(0.015625)"/>
       <path id="DejaVuSans-28" d="M 1984 4856 
Q 1566 4138 1362 3434 
Q 1159 2731 1159 2009 
Q 1159 1288 1364 580 
Q 1569 -128 1984 -844 
L 1484 -844 
Q 1016 -109 783 600 
Q 550 1309 550 2009 
Q 550 2706 781 3412 
Q 1013 4119 1484 4856 
L 1984 4856 
z
" transform="scale(0.015625)"/>
       <path id="DejaVuSans-73" d="M 2834 3397 
L 2834 2853 
Q 2591 2978 2328 3040 
Q 2066 3103 1784 3103 
Q 1356 3103 1142 2972 
Q 928 2841 928 2578 
Q 928 2378 1081 2264 
Q 1234 2150 1697 2047 
L 1894 2003 
Q 2506 1872 2764 1633 
Q 3022 1394 3022 966 
Q 3022 478 2636 193 
Q 2250 -91 1575 -91 
Q 1294 -91 989 -36 
Q 684 19 347 128 
L 347 722 
Q 666 556 975 473 
Q 1284 391 1588 391 
Q 1994 391 2212 530 
Q 2431 669 2431 922 
Q 2431 1156 2273 1281 
Q 2116 1406 1581 1522 
L 1381 1569 
Q 847 1681 609 1914 
Q 372 2147 372 2553 
Q 372 3047 722 3315 
Q 1072 3584 1716 3584 
Q 2034 3584 2315 3537 
Q 2597 3491 2834 3397 
z
" transform="scale(0.015625)"/>
       <path id="DejaVuSans-29" d="M 513 4856 
L 1013 4856 
Q 1481 4119 1714 3412 
Q 1947 2706 1947 2009 
Q 1947 1309 1714 600 
Q 1481 -109 1013 -844 
L 513 -844 
Q 928 -128 1133 580 
Q 1338 1288 1338 2009 
Q 1338 2731 1133 3434 
Q 928 4138 513 4856 
z
" transform="scale(0.015625)"/>
      </defs>
      <use xlink:href="#DejaVuSans-54"/>
      <use xlink:href="#DejaVuSans-69" x="57.958984"/>
      <use xlink:href="#DejaVuSans-6d" x="85.742188"/>
      <use xlink:href="#DejaVuSans-65" x="183.154297"/>
      <use xlink:href="#DejaVuSans-20" x="244.677734"/>
      <use xlink:href="#DejaVuSans-66" x="276.464844"/>
      <use xlink:href="#DejaVuSans-72" x="311.669922"/>
      <use xlink:href="#DejaVuSans-6f" x="350.533203"/>
      <use xlink:href="#DejaVuSans-6d" x="411.714844"/>
      <use xlink:href="#DejaVuSans-20" x="509.126953"/>
      <use xlink:href="#DejaVuSans-65" x="540.914062"/>
      <use xlink:href="#DejaVuSans-76" x="602.4375"/>
      <use xlink:href="#DejaVuSans-65" x="661.617188"/>
      <use xlink:href="#DejaVuSans-6e" x="723.140625"/>
      <use xlink:href="#DejaVuSans-74" x="786.519531"/>
      <use xlink:href="#DejaVuSans-20" x="825.728516"/>
      <use xlink:href="#DejaVuSans-28" x="857.515625"/>
      <use xlink:href="#DejaVuSans-73" x="896.529297"/>
      <use xlink:href="#DejaVuSans-29" x="948.628906"/>
     </g>
    </g>
   </g>
   <g id="matplotlib.axis_2">
    <g id="ytick_1">
     <g id="line2d_6">
      <defs>
       <path id="m5dfbd2d829" d="M 0 0 
L -3.5 0 
" style="stroke: #000000; stroke-width: 0.8"/>
      </defs>
      <g>
       <use xlink:href="#m5dfbd2d829" x="63" y="208.25515" style="stroke: #000000; stroke-width: 0.8"/>
      </g>
     </g>
     <g id="text_7">
      <!-- −10 -->
      <g transform="translate(22.2325 214.3339)scale(0.16 -0.16)">
       <defs>
        <path id="DejaVuSans-31" d="M 794 531 
L 1825 531 
L 1825 4091 
L 703 3866 
L 703 4441 
L 1819 4666 
L 2450 4666 
L 2450 531 
L 3481 531 
L 3481 0 
L 794 0 
L 794 531 
z
" transform="scale(0.015625)"/>
       </defs>
       <use xlink:href="#DejaVuSans-2212"/>
       <use xlink:href="#DejaVuSans-31" x="83.789062"/>
       <use xlink:href="#DejaVuSans-30" x="147.412109"/>
      </g>
     </g>
    </g>
    <g id="ytick_2">
     <g id="line2d_7">
      <g>
       <use xlink:href="#m5dfbd2d829" x="63" y="157.935215" style="stroke: #000000; stroke-width: 0.8"/>
      </g>
     </g>
     <g id="text_8">
      <!-- −5 -->
      <g transform="translate(32.4125 164.013965)scale(0.16 -0.16)">
       <defs>
        <path id="DejaVuSans-35" d="M 691 4666 
L 3169 4666 
L 3169 4134 
L 1269 4134 
L 1269 2991 
Q 1406 3038 1543 3061 
Q 1681 3084 1819 3084 
Q 2600 3084 3056 2656 
Q 3513 2228 3513 1497 
Q 3513 744 3044 326 
Q 2575 -91 1722 -91 
Q 1428 -91 1123 -41 
Q 819 9 494 109 
L 494 744 
Q 775 591 1075 516 
Q 1375 441 1709 441 
Q 2250 441 2565 725 
Q 2881 1009 2881 1497 
Q 2881 1984 2565 2268 
Q 2250 2553 1709 2553 
Q 1456 2553 1204 2497 
Q 953 2441 691 2322 
L 691 4666 
z
" transform="scale(0.015625)"/>
       </defs>
       <use xlink:href="#DejaVuSans-2212"/>
       <use xlink:href="#DejaVuSans-35" x="83.789062"/>
      </g>
     </g>
    </g>
    <g id="ytick_3">
     <g id="line2d_8">
      <g>
       <use xlink:href="#m5dfbd2d829" x="63" y="107.615279" style="stroke: #000000; stroke-width: 0.8"/>
      </g>
     </g>
     <g id="text_9">
      <!-- 0 -->
      <g transform="translate(45.82 113.694029)scale(0.16 -0.16)">
       <use xlink:href="#DejaVuSans-30"/>
      </g>
     </g>
    </g>
    <g id="ytick_4">
     <g id="line2d_9">
      <g>
       <use xlink:href="#m5dfbd2d829" x="63" y="57.295343" style="stroke: #000000; stroke-width: 0.8"/>
      </g>
     </g>
     <g id="text_10">
      <!-- 5 -->
      <g transform="translate(45.82 63.374093)scale(0.16 -0.16)">
       <use xlink:href="#DejaVuSans-35"/>
      </g>
     </g>
    </g>
    <g id="text_11">
     <!-- Amplitude (uV) -->
     <g transform="translate(14.489062 213.304219)rotate(-90)scale(0.18 -0.18)">
      <defs>
       <path id="DejaVuSans-41" d="M 2188 4044 
L 1331 1722 
L 3047 1722 
L 2188 4044 
z
M 1831 4666 
L 2547 4666 
L 4325 0 
L 3669 0 
L 3244 1197 
L 1141 1197 
L 716 0 
L 50 0 
L 1831 4666 
z
" transform="scale(0.015625)"/>
       <path id="DejaVuSans-70" d="M 1159 525 
L 1159 -1331 
L 581 -1331 
L 581 3500 
L 1159 3500 
L 1159 2969 
Q 1341 3281 1617 3432 
Q 1894 3584 2278 3584 
Q 2916 3584 3314 3078 
Q 3713 2572 3713 1747 
Q 3713 922 3314 415 
Q 2916 -91 2278 -91 
Q 1894 -91 1617 61 
Q 1341 213 1159 525 
z
M 3116 1747 
Q 3116 2381 2855 2742 
Q 2594 3103 2138 3103 
Q 1681 3103 1420 2742 
Q 1159 2381 1159 1747 
Q 1159 1113 1420 752 
Q 1681 391 2138 391 
Q 2594 391 2855 752 
Q 3116 1113 3116 1747 
z
" transform="scale(0.015625)"/>
       <path id="DejaVuSans-6c" d="M 603 4863 
L 1178 4863 
L 1178 0 
L 603 0 
L 603 4863 
z
" transform="scale(0.015625)"/>
       <path id="DejaVuSans-75" d="M 544 1381 
L 544 3500 
L 1119 3500 
L 1119 1403 
Q 1119 906 1312 657 
Q 1506 409 1894 409 
Q 2359 409 2629 706 
Q 2900 1003 2900 1516 
L 2900 3500 
L 3475 3500 
L 3475 0 
L 2900 0 
L 2900 538 
Q 2691 219 2414 64 
Q 2138 -91 1772 -91 
Q 1169 -91 856 284 
Q 544 659 544 1381 
z
M 1991 3584 
L 1991 3584 
z
" transform="scale(0.015625)"/>
       <path id="DejaVuSans-64" d="M 2906 2969 
L 2906 4863 
L 3481 4863 
L 3481 0 
L 2906 0 
L 2906 525 
Q 2725 213 2448 61 
Q 2172 -91 1784 -91 
Q 1150 -91 751 415 
Q 353 922 353 1747 
Q 353 2572 751 3078 
Q 1150 3584 1784 3584 
Q 2172 3584 2448 3432 
Q 2725 3281 2906 2969 
z
M 947 1747 
Q 947 1113 1208 752 
Q 1469 391 1925 391 
Q 2381 391 2643 752 
Q 2906 1113 2906 1747 
Q 2906 2381 2643 2742 
Q 2381 3103 1925 3103 
Q 1469 3103 1208 2742 
Q 947 2381 947 1747 
z
" transform="scale(0.015625)"/>
       <path id="DejaVuSans-56" d="M 1831 0 
L 50 4666 
L 709 4666 
L 2188 738 
L 3669 4666 
L 4325 4666 
L 2547 0 
L 1831 0 
z
" transform="scale(0.015625)"/>
      </defs>
      <use xlink:href="#DejaVuSans-41"/>
      <use xlink:href="#DejaVuSans-6d" x="68.408203"/>
      <use xlink:href="#DejaVuSans-70" x="165.820312"/>
      <use xlink:href="#DejaVuSans-6c" x="229.296875"/>
      <use xlink:href="#DejaVuSans-69" x="257.080078"/>
      <use xlink:href="#DejaVuSans-74" x="284.863281"/>
      <use xlink:href="#DejaVuSans-75" x="324.072266"/>
      <use xlink:href="#DejaVuSans-64" x="387.451172"/>
      <use xlink:href="#DejaVuSans-65" x="450.927734"/>
      <use xlink:href="#DejaVuSans-20" x="512.451172"/>
      <use xlink:href="#DejaVuSans-28" x="544.238281"/>
      <use xlink:href="#DejaVuSans-75" x="583.251953"/>
      <use xlink:href="#DejaVuSans-56" x="646.630859"/>
      <use xlink:href="#DejaVuSans-29" x="715.039062"/>
     </g>
    </g>
   </g>
   <g id="line2d_10">
    <path d="M 63 107.615279 
L 453.6 107.615279 
" clip-path="url(#pb3eae0c057)" style="fill: none; stroke: #000000; stroke-width: 0.5; stroke-linecap: square"/>
   </g>
   <g id="line2d_11">
    <path d="M 187.559233 256.32 
L 187.559233 34.56 
" clip-path="url(#pb3eae0c057)" style="fill: none; stroke-dasharray: 1.85,0.8; stroke-dashoffset: 0; stroke: #000000; stroke-width: 0.5"/>
   </g>
   <g id="line2d_12">
    <path d="M 80.754545 146.583814 
L 82.141619 142.197439 
L 83.528693 135.613404 
L 86.302841 120.033619 
L 87.689915 113.177739 
L 89.076989 107.725599 
L 91.851136 99.248765 
L 93.23821 94.053543 
L 94.625284 87.248073 
L 96.012358 79.618912 
L 97.399432 73.254713 
L 98.786506 70.457904 
L 100.17358 72.204676 
L 101.560653 77.269221 
L 102.947727 82.807303 
L 104.334801 86.134259 
L 105.721875 86.452594 
L 107.108949 85.238821 
L 108.496023 84.999737 
L 109.883097 87.364779 
L 112.657244 96.801161 
L 114.044318 99.795568 
L 115.431392 100.02998 
L 116.818466 98.043613 
L 119.592614 92.199456 
L 120.979687 89.827894 
L 122.366761 88.086453 
L 123.753835 87.155553 
L 125.140909 87.373795 
L 126.527983 88.999053 
L 127.915057 91.96014 
L 129.302131 95.848325 
L 132.076278 104.092029 
L 133.463352 107.288121 
L 134.850426 109.23471 
L 136.2375 109.842636 
L 139.011648 109.348953 
L 140.398722 109.866399 
L 141.785795 111.021871 
L 143.172869 111.671927 
L 144.559943 110.245965 
L 145.947017 105.83636 
L 148.721165 91.969181 
L 150.108239 87.236613 
L 151.495312 86.633593 
L 152.882386 90.055812 
L 154.26946 95.391016 
L 155.656534 99.46718 
L 157.043608 99.674491 
L 158.430682 95.452239 
L 159.817756 88.761546 
L 161.20483 83.115948 
L 162.591903 81.600316 
L 163.978977 85.062001 
L 166.753125 98.267841 
L 168.140199 102.346369 
L 169.527273 103.612353 
L 170.914347 103.701691 
L 172.30142 104.616884 
L 173.688494 107.078931 
L 175.075568 110.033721 
L 176.462642 111.556466 
L 177.849716 110.35037 
L 179.23679 106.726204 
L 180.623864 102.473659 
L 182.010937 99.838461 
L 183.398011 100.291732 
L 184.785085 103.747444 
L 186.172159 108.575517 
L 187.559233 112.416157 
L 188.946307 113.471257 
L 190.333381 111.634387 
L 191.720455 108.712919 
L 193.107528 107.376151 
L 194.494602 109.306897 
L 197.26875 117.908525 
L 198.655824 118.460366 
L 200.042898 114.310662 
L 201.429972 107.390093 
L 202.817045 101.429238 
L 204.204119 99.277719 
L 205.591193 100.845274 
L 206.978267 103.291892 
L 208.365341 103.334205 
L 209.752415 99.837254 
L 211.139489 94.633408 
L 212.526563 90.958171 
L 213.913636 90.823246 
L 216.687784 96.087152 
L 218.074858 96.148348 
L 219.461932 93.359411 
L 220.849006 89.735413 
L 222.23608 87.84206 
L 223.623153 88.763659 
L 225.010227 91.451714 
L 226.397301 93.850275 
L 227.784375 94.698828 
L 229.171449 94.445109 
L 230.558523 94.582662 
L 231.945597 96.127606 
L 233.33267 98.644076 
L 234.719744 100.665507 
L 236.106818 101.088044 
L 237.493892 100.259611 
L 238.880966 99.773511 
L 240.26804 101.120922 
L 241.655114 104.362225 
L 243.042188 107.986253 
L 244.429261 110.134331 
L 245.816335 110.20053 
L 247.203409 109.450052 
L 248.590483 110.050516 
L 249.977557 113.209439 
L 251.364631 117.920372 
L 252.751705 121.44842 
L 254.138778 121.345 
L 255.525852 117.481068 
L 256.912926 112.401376 
L 258.3 109.510062 
L 259.687074 110.359404 
L 261.074148 113.214581 
L 262.461222 114.233169 
L 263.848295 110.525307 
L 266.622443 94.619543 
L 268.009517 90.596006 
L 269.396591 91.864272 
L 270.783665 95.640385 
L 272.170739 97.40222 
L 273.557813 94.592713 
L 274.944886 88.581792 
L 276.33196 83.235941 
L 277.719034 81.441911 
L 280.493182 84.196475 
L 281.880256 83.540634 
L 283.26733 81.624194 
L 284.654403 81.687506 
L 286.041477 86.090414 
L 287.428551 93.540124 
L 288.815625 99.53544 
L 290.202699 99.84714 
L 291.589773 94.060858 
L 292.976847 86.086601 
L 294.36392 81.190117 
L 295.750994 82.100102 
L 297.138068 87.415322 
L 298.525142 93.390564 
L 299.912216 97.26503 
L 301.29929 99.206581 
L 302.686364 101.465129 
L 304.073438 105.875584 
L 306.847585 118.014615 
L 308.234659 121.622884 
L 309.621733 122.623934 
L 311.008807 122.418573 
L 312.395881 122.826923 
L 313.782955 124.823741 
L 315.170028 128.271315 
L 316.557102 132.545745 
L 319.33125 142.257414 
L 323.492472 157.879094 
L 324.879545 162.188102 
L 327.653693 169.344871 
L 330.427841 176.20566 
L 331.814915 180.206297 
L 333.201989 185.163441 
L 334.589063 191.40744 
L 337.36321 206.113095 
L 338.750284 212.101671 
L 340.137358 215.341039 
L 341.524432 215.345087 
L 342.911506 212.835515 
L 344.29858 209.495338 
L 345.685653 207.175105 
L 347.072727 206.898236 
L 348.459801 208.197888 
L 349.846875 209.251256 
L 351.233949 207.877824 
L 352.621023 202.885427 
L 354.008097 194.88374 
L 355.39517 185.918842 
L 356.782244 178.083558 
L 358.169318 172.07456 
L 359.556392 166.807354 
L 360.943466 160.441997 
L 362.33054 152.047542 
L 363.717614 142.559841 
L 365.104688 134.202149 
L 366.491761 128.787087 
L 367.878835 126.288388 
L 369.265909 124.915815 
L 370.652983 122.708541 
L 372.040057 119.355446 
L 373.427131 116.665272 
L 374.814205 117.153492 
L 376.201278 121.783029 
L 377.588352 128.69579 
L 378.975426 134.081944 
L 380.3625 134.65246 
L 381.749574 129.862816 
L 383.136648 122.184962 
L 384.523722 115.249059 
L 385.910795 111.334535 
L 387.297869 110.123417 
L 388.684943 109.516067 
L 390.072017 107.630704 
L 392.846165 100.842503 
L 394.233239 98.922428 
L 395.620313 99.036408 
L 398.39446 101.644818 
L 399.781534 101.828298 
L 401.168608 100.675383 
L 402.555682 98.420257 
L 405.32983 92.775743 
L 406.716903 91.066388 
L 408.103977 91.226104 
L 409.491051 93.26591 
L 410.878125 96.103162 
L 412.265199 98.117743 
L 413.652273 98.2866 
L 416.42642 95.512336 
L 417.813494 95.157728 
L 420.587642 96.554008 
L 421.974716 95.99856 
L 423.36179 94.129041 
L 424.748864 92.012661 
L 426.135938 90.875268 
L 427.523011 90.951262 
L 428.910085 91.231936 
L 430.297159 90.355073 
L 431.684233 87.893328 
L 433.071307 84.96757 
L 434.458381 83.644125 
L 435.845455 85.493797 
L 435.845455 85.493797 
" clip-path="url(#pb3eae0c057)" style="fill: none; stroke: #1f77b4; stroke-width: 1.5; stroke-linecap: square"/>
   </g>
   <g id="line2d_13">
    <path d="M 80.754545 142.339134 
L 83.528693 142.014277 
L 84.915767 141.429896 
L 86.302841 140.340796 
L 87.689915 138.331955 
L 89.076989 134.779539 
L 90.464062 129.519003 
L 91.851136 123.39615 
L 93.23821 117.9728 
L 94.625284 114.493995 
L 96.012358 113.027118 
L 98.786506 112.115863 
L 100.17358 111.444577 
L 101.560653 111.318923 
L 102.947727 112.624476 
L 104.334801 115.540526 
L 107.108949 122.881507 
L 108.496023 125.110418 
L 109.883097 125.377822 
L 111.27017 123.418588 
L 112.657244 119.444246 
L 115.431392 109.606856 
L 116.818466 106.794314 
L 118.20554 106.606806 
L 119.592614 108.420801 
L 120.979687 110.647165 
L 122.366761 111.709949 
L 123.753835 110.874268 
L 125.140909 108.351516 
L 129.302131 97.621824 
L 130.689205 95.810208 
L 132.076278 96.823931 
L 133.463352 101.369555 
L 136.2375 116.535248 
L 137.624574 122.013913 
L 139.011648 123.449428 
L 140.398722 121.385377 
L 141.785795 118.246977 
L 143.172869 116.671141 
L 144.559943 117.675634 
L 145.947017 119.997098 
L 147.334091 121.109625 
L 148.721165 119.19891 
L 151.495312 109.731431 
L 152.882386 107.119373 
L 154.26946 107.64484 
L 155.656534 109.748956 
L 157.043608 110.668375 
L 158.430682 108.605865 
L 161.20483 99.564522 
L 162.591903 97.111529 
L 163.978977 96.902093 
L 165.366051 96.994384 
L 166.753125 95.067966 
L 168.140199 90.457368 
L 169.527273 84.815532 
L 170.914347 80.910564 
L 172.30142 80.601353 
L 173.688494 83.592034 
L 175.075568 87.766109 
L 176.462642 90.595109 
L 177.849716 90.471035 
L 179.23679 87.21406 
L 182.010937 76.023688 
L 183.398011 71.625954 
L 184.785085 70.017624 
L 186.172159 71.446953 
L 188.946307 78.023768 
L 190.333381 79.724987 
L 191.720455 79.870379 
L 193.107528 79.806135 
L 194.494602 80.925842 
L 197.26875 85.687992 
L 198.655824 86.472568 
L 200.042898 85.433759 
L 201.429972 83.916893 
L 202.817045 83.708486 
L 204.204119 85.484564 
L 205.591193 88.29296 
L 206.978267 90.491225 
L 208.365341 91.192919 
L 209.752415 90.874199 
L 211.139489 90.688653 
L 212.526563 91.282544 
L 213.913636 92.27228 
L 215.30071 92.767822 
L 216.687784 92.275772 
L 218.074858 91.05345 
L 220.849006 88.41935 
L 225.010227 84.631661 
L 226.397301 84.502204 
L 227.784375 85.844367 
L 229.171449 88.45591 
L 231.945597 94.678986 
L 233.33267 97.561972 
L 234.719744 100.704639 
L 236.106818 104.661567 
L 237.493892 109.69487 
L 241.655114 127.543363 
L 243.042188 131.918555 
L 244.429261 134.657011 
L 247.203409 138.12152 
L 248.590483 141.245306 
L 251.364631 149.770865 
L 252.751705 151.586754 
L 254.138778 150.163645 
L 255.525852 146.75434 
L 256.912926 144.16244 
L 258.3 144.773841 
L 259.687074 148.755204 
L 261.074148 153.887868 
L 262.461222 157.197957 
L 263.848295 157.093523 
L 266.622443 151.402234 
L 268.009517 150.344912 
L 269.396591 151.638061 
L 270.783665 153.868156 
L 272.170739 154.797249 
L 273.557813 152.741123 
L 274.944886 147.455056 
L 277.719034 132.942208 
L 279.106108 127.637741 
L 280.493182 125.144893 
L 281.880256 125.077695 
L 284.654403 127.17046 
L 286.041477 127.37612 
L 287.428551 126.857632 
L 288.815625 125.914735 
L 290.202699 124.575386 
L 291.589773 122.526413 
L 292.976847 119.484829 
L 294.36392 115.54492 
L 297.138068 106.447994 
L 299.912216 96.466537 
L 301.29929 91.440855 
L 302.686364 87.250779 
L 304.073438 84.388625 
L 305.460511 82.363519 
L 306.847585 79.726418 
L 308.234659 75.110229 
L 311.008807 61.852464 
L 312.395881 57.639505 
L 313.782955 57.480077 
L 315.170028 60.769078 
L 316.557102 65.129826 
L 317.944176 68.089011 
L 319.33125 68.737976 
L 320.718324 68.172953 
L 322.105398 68.484424 
L 323.492472 71.110382 
L 326.266619 80.274859 
L 327.653693 82.271758 
L 329.040767 80.212994 
L 330.427841 74.646396 
L 331.814915 68.059415 
L 333.201989 63.650558 
L 334.589063 63.586566 
L 335.976136 67.761342 
L 337.36321 73.904215 
L 338.750284 79.077514 
L 340.137358 81.605317 
L 342.911506 82.569199 
L 344.29858 84.989244 
L 345.685653 89.440346 
L 347.072727 94.366658 
L 348.459801 97.990813 
L 349.846875 99.810029 
L 351.233949 100.793934 
L 352.621023 102.184615 
L 354.008097 104.127695 
L 355.39517 105.514906 
L 356.782244 105.221442 
L 358.169318 103.505262 
L 359.556392 102.087701 
L 360.943466 102.659342 
L 362.33054 105.129516 
L 363.717614 107.338638 
L 365.104688 106.711478 
L 366.491761 102.530852 
L 367.878835 96.824211 
L 369.265909 92.97863 
L 370.652983 93.17516 
L 372.040057 96.793383 
L 373.427131 101.114118 
L 374.814205 103.6657 
L 376.201278 104.176981 
L 377.588352 104.52306 
L 378.975426 106.855421 
L 380.3625 111.660634 
L 381.749574 117.436291 
L 383.136648 122.13521 
L 384.523722 124.948589 
L 385.910795 126.78917 
L 387.297869 129.118309 
L 388.684943 132.308824 
L 390.072017 135.129964 
L 391.459091 135.857562 
L 392.846165 133.977656 
L 394.233239 130.876838 
L 395.620313 128.814185 
L 397.007386 129.02791 
L 398.39446 130.64528 
L 399.781534 131.406945 
L 401.168608 129.655275 
L 402.555682 125.921981 
L 403.942756 122.740479 
L 405.32983 122.75939 
L 406.716903 126.631666 
L 408.103977 132.350289 
L 409.491051 136.556317 
L 410.878125 136.807345 
L 412.265199 133.09416 
L 413.652273 127.544504 
L 415.039347 122.68084 
L 416.42642 119.652987 
L 417.813494 117.757561 
L 419.200568 115.451242 
L 420.587642 111.891612 
L 421.974716 107.711968 
L 423.36179 104.44748 
L 424.748864 103.154037 
L 426.135938 103.394759 
L 427.523011 103.444001 
L 428.910085 101.570031 
L 430.297159 97.396268 
L 431.684233 92.270917 
L 433.071307 88.338813 
L 434.458381 87.013301 
L 435.845455 88.015146 
L 435.845455 88.015146 
" clip-path="url(#pb3eae0c057)" style="fill: none; stroke: #ff7f0e; stroke-width: 1.5; stroke-linecap: square"/>
   </g>
   <g id="patch_3">
    <path d="M 63 256.32 
L 63 34.56 
" style="fill: none; stroke: #000000; stroke-width: 0.8; stroke-linejoin: miter; stroke-linecap: square"/>
   </g>
   <g id="patch_4">
    <path d="M 453.6 256.32 
L 453.6 34.56 
" style="fill: none; stroke: #000000; stroke-width: 0.8; stroke-linejoin: miter; stroke-linecap: square"/>
   </g>
   <g id="patch_5">
    <path d="M 63 256.32 
L 453.6 256.32 
" style="fill: none; stroke: #000000; stroke-width: 0.8; stroke-linejoin: miter; stroke-linecap: square"/>
   </g>
   <g id="patch_6">
    <path d="M 63 34.56 
L 453.6 34.56 
" style="fill: none; stroke: #000000; stroke-width: 0.8; stroke-linejoin: miter; stroke-linecap: square"/>
   </g>
   <g id="text_12">
    <!-- ERP - Audio trial 1, participant 03 -->
    <g transform="translate(68.89375 28.56)scale(0.2 -0.2)">
     <defs>
      <path id="DejaVuSans-Bold-45" d="M 588 4666 
L 3834 4666 
L 3834 3756 
L 1791 3756 
L 1791 2888 
L 3713 2888 
L 3713 1978 
L 1791 1978 
L 1791 909 
L 3903 909 
L 3903 0 
L 588 0 
L 588 4666 
z
" transform="scale(0.015625)"/>
      <path id="DejaVuSans-Bold-52" d="M 2297 2597 
Q 2675 2597 2839 2737 
Q 3003 2878 3003 3200 
Q 3003 3519 2839 3656 
Q 2675 3794 2297 3794 
L 1791 3794 
L 1791 2597 
L 2297 2597 
z
M 1791 1766 
L 1791 0 
L 588 0 
L 588 4666 
L 2425 4666 
Q 3347 4666 3776 4356 
Q 4206 4047 4206 3378 
Q 4206 2916 3982 2619 
Q 3759 2322 3309 2181 
Q 3556 2125 3751 1926 
Q 3947 1728 4147 1325 
L 4800 0 
L 3519 0 
L 2950 1159 
Q 2778 1509 2601 1637 
Q 2425 1766 2131 1766 
L 1791 1766 
z
" transform="scale(0.015625)"/>
      <path id="DejaVuSans-Bold-50" d="M 588 4666 
L 2584 4666 
Q 3475 4666 3951 4270 
Q 4428 3875 4428 3144 
Q 4428 2409 3951 2014 
Q 3475 1619 2584 1619 
L 1791 1619 
L 1791 0 
L 588 0 
L 588 4666 
z
M 1791 3794 
L 1791 2491 
L 2456 2491 
Q 2806 2491 2997 2661 
Q 3188 2831 3188 3144 
Q 3188 3456 2997 3625 
Q 2806 3794 2456 3794 
L 1791 3794 
z
" transform="scale(0.015625)"/>
      <path id="DejaVuSans-Bold-20" transform="scale(0.015625)"/>
      <path id="DejaVuSans-Bold-2d" d="M 347 2297 
L 2309 2297 
L 2309 1388 
L 347 1388 
L 347 2297 
z
" transform="scale(0.015625)"/>
      <path id="DejaVuSans-Bold-41" d="M 3419 850 
L 1538 850 
L 1241 0 
L 31 0 
L 1759 4666 
L 3194 4666 
L 4922 0 
L 3713 0 
L 3419 850 
z
M 1838 1716 
L 3116 1716 
L 2478 3572 
L 1838 1716 
z
" transform="scale(0.015625)"/>
      <path id="DejaVuSans-Bold-75" d="M 500 1363 
L 500 3500 
L 1625 3500 
L 1625 3150 
Q 1625 2866 1622 2436 
Q 1619 2006 1619 1863 
Q 1619 1441 1641 1255 
Q 1663 1069 1716 984 
Q 1784 875 1895 815 
Q 2006 756 2150 756 
Q 2500 756 2700 1025 
Q 2900 1294 2900 1772 
L 2900 3500 
L 4019 3500 
L 4019 0 
L 2900 0 
L 2900 506 
Q 2647 200 2364 54 
Q 2081 -91 1741 -91 
Q 1134 -91 817 281 
Q 500 653 500 1363 
z
" transform="scale(0.015625)"/>
      <path id="DejaVuSans-Bold-64" d="M 2919 2988 
L 2919 4863 
L 4044 4863 
L 4044 0 
L 2919 0 
L 2919 506 
Q 2688 197 2409 53 
Q 2131 -91 1766 -91 
Q 1119 -91 703 423 
Q 288 938 288 1747 
Q 288 2556 703 3070 
Q 1119 3584 1766 3584 
Q 2128 3584 2408 3439 
Q 2688 3294 2919 2988 
z
M 2181 722 
Q 2541 722 2730 984 
Q 2919 1247 2919 1747 
Q 2919 2247 2730 2509 
Q 2541 2772 2181 2772 
Q 1825 2772 1636 2509 
Q 1447 2247 1447 1747 
Q 1447 1247 1636 984 
Q 1825 722 2181 722 
z
" transform="scale(0.015625)"/>
      <path id="DejaVuSans-Bold-69" d="M 538 3500 
L 1656 3500 
L 1656 0 
L 538 0 
L 538 3500 
z
M 538 4863 
L 1656 4863 
L 1656 3950 
L 538 3950 
L 538 4863 
z
" transform="scale(0.015625)"/>
      <path id="DejaVuSans-Bold-6f" d="M 2203 2784 
Q 1831 2784 1636 2517 
Q 1441 2250 1441 1747 
Q 1441 1244 1636 976 
Q 1831 709 2203 709 
Q 2569 709 2762 976 
Q 2956 1244 2956 1747 
Q 2956 2250 2762 2517 
Q 2569 2784 2203 2784 
z
M 2203 3584 
Q 3106 3584 3614 3096 
Q 4122 2609 4122 1747 
Q 4122 884 3614 396 
Q 3106 -91 2203 -91 
Q 1297 -91 786 396 
Q 275 884 275 1747 
Q 275 2609 786 3096 
Q 1297 3584 2203 3584 
z
" transform="scale(0.015625)"/>
      <path id="DejaVuSans-Bold-74" d="M 1759 4494 
L 1759 3500 
L 2913 3500 
L 2913 2700 
L 1759 2700 
L 1759 1216 
Q 1759 972 1856 886 
Q 1953 800 2241 800 
L 2816 800 
L 2816 0 
L 1856 0 
Q 1194 0 917 276 
Q 641 553 641 1216 
L 641 2700 
L 84 2700 
L 84 3500 
L 641 3500 
L 641 4494 
L 1759 4494 
z
" transform="scale(0.015625)"/>
      <path id="DejaVuSans-Bold-72" d="M 3138 2547 
Q 2991 2616 2845 2648 
Q 2700 2681 2553 2681 
Q 2122 2681 1889 2404 
Q 1656 2128 1656 1613 
L 1656 0 
L 538 0 
L 538 3500 
L 1656 3500 
L 1656 2925 
Q 1872 3269 2151 3426 
Q 2431 3584 2822 3584 
Q 2878 3584 2943 3579 
Q 3009 3575 3134 3559 
L 3138 2547 
z
" transform="scale(0.015625)"/>
      <path id="DejaVuSans-Bold-61" d="M 2106 1575 
Q 1756 1575 1579 1456 
Q 1403 1338 1403 1106 
Q 1403 894 1545 773 
Q 1688 653 1941 653 
Q 2256 653 2472 879 
Q 2688 1106 2688 1447 
L 2688 1575 
L 2106 1575 
z
M 3816 1997 
L 3816 0 
L 2688 0 
L 2688 519 
Q 2463 200 2181 54 
Q 1900 -91 1497 -91 
Q 953 -91 614 226 
Q 275 544 275 1050 
Q 275 1666 698 1953 
Q 1122 2241 2028 2241 
L 2688 2241 
L 2688 2328 
Q 2688 2594 2478 2717 
Q 2269 2841 1825 2841 
Q 1466 2841 1156 2769 
Q 847 2697 581 2553 
L 581 3406 
Q 941 3494 1303 3539 
Q 1666 3584 2028 3584 
Q 2975 3584 3395 3211 
Q 3816 2838 3816 1997 
z
" transform="scale(0.015625)"/>
      <path id="DejaVuSans-Bold-6c" d="M 538 4863 
L 1656 4863 
L 1656 0 
L 538 0 
L 538 4863 
z
" transform="scale(0.015625)"/>
      <path id="DejaVuSans-Bold-31" d="M 750 831 
L 1813 831 
L 1813 3847 
L 722 3622 
L 722 4441 
L 1806 4666 
L 2950 4666 
L 2950 831 
L 4013 831 
L 4013 0 
L 750 0 
L 750 831 
z
" transform="scale(0.015625)"/>
      <path id="DejaVuSans-Bold-2c" d="M 653 1209 
L 1778 1209 
L 1778 256 
L 1006 -909 
L 341 -909 
L 653 256 
L 653 1209 
z
" transform="scale(0.015625)"/>
      <path id="DejaVuSans-Bold-70" d="M 1656 506 
L 1656 -1331 
L 538 -1331 
L 538 3500 
L 1656 3500 
L 1656 2988 
Q 1888 3294 2169 3439 
Q 2450 3584 2816 3584 
Q 3463 3584 3878 3070 
Q 4294 2556 4294 1747 
Q 4294 938 3878 423 
Q 3463 -91 2816 -91 
Q 2450 -91 2169 54 
Q 1888 200 1656 506 
z
M 2400 2772 
Q 2041 2772 1848 2508 
Q 1656 2244 1656 1747 
Q 1656 1250 1848 986 
Q 2041 722 2400 722 
Q 2759 722 2948 984 
Q 3138 1247 3138 1747 
Q 3138 2247 2948 2509 
Q 2759 2772 2400 2772 
z
" transform="scale(0.015625)"/>
      <path id="DejaVuSans-Bold-63" d="M 3366 3391 
L 3366 2478 
Q 3138 2634 2908 2709 
Q 2678 2784 2431 2784 
Q 1963 2784 1702 2511 
Q 1441 2238 1441 1747 
Q 1441 1256 1702 982 
Q 1963 709 2431 709 
Q 2694 709 2930 787 
Q 3166 866 3366 1019 
L 3366 103 
Q 3103 6 2833 -42 
Q 2563 -91 2291 -91 
Q 1344 -91 809 395 
Q 275 881 275 1747 
Q 275 2613 809 3098 
Q 1344 3584 2291 3584 
Q 2566 3584 2833 3536 
Q 3100 3488 3366 3391 
z
" transform="scale(0.015625)"/>
      <path id="DejaVuSans-Bold-6e" d="M 4056 2131 
L 4056 0 
L 2931 0 
L 2931 347 
L 2931 1631 
Q 2931 2084 2911 2256 
Q 2891 2428 2841 2509 
Q 2775 2619 2662 2680 
Q 2550 2741 2406 2741 
Q 2056 2741 1856 2470 
Q 1656 2200 1656 1722 
L 1656 0 
L 538 0 
L 538 3500 
L 1656 3500 
L 1656 2988 
Q 1909 3294 2193 3439 
Q 2478 3584 2822 3584 
Q 3428 3584 3742 3212 
Q 4056 2841 4056 2131 
z
" transform="scale(0.015625)"/>
      <path id="DejaVuSans-Bold-30" d="M 2944 2338 
Q 2944 3213 2780 3570 
Q 2616 3928 2228 3928 
Q 1841 3928 1675 3570 
Q 1509 3213 1509 2338 
Q 1509 1453 1675 1090 
Q 1841 728 2228 728 
Q 2613 728 2778 1090 
Q 2944 1453 2944 2338 
z
M 4147 2328 
Q 4147 1169 3647 539 
Q 3147 -91 2228 -91 
Q 1306 -91 806 539 
Q 306 1169 306 2328 
Q 306 3491 806 4120 
Q 1306 4750 2228 4750 
Q 3147 4750 3647 4120 
Q 4147 3491 4147 2328 
z
" transform="scale(0.015625)"/>
      <path id="DejaVuSans-Bold-33" d="M 2981 2516 
Q 3453 2394 3698 2092 
Q 3944 1791 3944 1325 
Q 3944 631 3412 270 
Q 2881 -91 1863 -91 
Q 1503 -91 1142 -33 
Q 781 25 428 141 
L 428 1069 
Q 766 900 1098 814 
Q 1431 728 1753 728 
Q 2231 728 2486 893 
Q 2741 1059 2741 1369 
Q 2741 1688 2480 1852 
Q 2219 2016 1709 2016 
L 1228 2016 
L 1228 2791 
L 1734 2791 
Q 2188 2791 2409 2933 
Q 2631 3075 2631 3366 
Q 2631 3634 2415 3781 
Q 2200 3928 1806 3928 
Q 1516 3928 1219 3862 
Q 922 3797 628 3669 
L 628 4550 
Q 984 4650 1334 4700 
Q 1684 4750 2022 4750 
Q 2931 4750 3382 4451 
Q 3834 4153 3834 3553 
Q 3834 3144 3618 2883 
Q 3403 2622 2981 2516 
z
" transform="scale(0.015625)"/>
     </defs>
     <use xlink:href="#DejaVuSans-Bold-45"/>
     <use xlink:href="#DejaVuSans-Bold-52" x="68.310547"/>
     <use xlink:href="#DejaVuSans-Bold-50" x="145.3125"/>
     <use xlink:href="#DejaVuSans-Bold-20" x="218.603516"/>
     <use xlink:href="#DejaVuSans-Bold-2d" x="253.417969"/>
     <use xlink:href="#DejaVuSans-Bold-20" x="294.921875"/>
     <use xlink:href="#DejaVuSans-Bold-41" x="329.736328"/>
     <use xlink:href="#DejaVuSans-Bold-75" x="407.128906"/>
     <use xlink:href="#DejaVuSans-Bold-64" x="478.320312"/>
     <use xlink:href="#DejaVuSans-Bold-69" x="549.902344"/>
     <use xlink:href="#DejaVuSans-Bold-6f" x="584.179688"/>
     <use xlink:href="#DejaVuSans-Bold-20" x="652.880859"/>
     <use xlink:href="#DejaVuSans-Bold-74" x="687.695312"/>
     <use xlink:href="#DejaVuSans-Bold-72" x="735.498047"/>
     <use xlink:href="#DejaVuSans-Bold-69" x="784.814453"/>
     <use xlink:href="#DejaVuSans-Bold-61" x="819.091797"/>
     <use xlink:href="#DejaVuSans-Bold-6c" x="886.572266"/>
     <use xlink:href="#DejaVuSans-Bold-20" x="920.849609"/>
     <use xlink:href="#DejaVuSans-Bold-31" x="955.664062"/>
     <use xlink:href="#DejaVuSans-Bold-2c" x="1025.244141"/>
     <use xlink:href="#DejaVuSans-Bold-20" x="1063.232422"/>
     <use xlink:href="#DejaVuSans-Bold-70" x="1098.046875"/>
     <use xlink:href="#DejaVuSans-Bold-61" x="1169.628906"/>
     <use xlink:href="#DejaVuSans-Bold-72" x="1237.109375"/>
     <use xlink:href="#DejaVuSans-Bold-74" x="1286.425781"/>
     <use xlink:href="#DejaVuSans-Bold-69" x="1334.228516"/>
     <use xlink:href="#DejaVuSans-Bold-63" x="1368.505859"/>
     <use xlink:href="#DejaVuSans-Bold-69" x="1427.783203"/>
     <use xlink:href="#DejaVuSans-Bold-70" x="1462.060547"/>
     <use xlink:href="#DejaVuSans-Bold-61" x="1533.642578"/>
     <use xlink:href="#DejaVuSans-Bold-6e" x="1601.123047"/>
     <use xlink:href="#DejaVuSans-Bold-74" x="1672.314453"/>
     <use xlink:href="#DejaVuSans-Bold-20" x="1720.117188"/>
     <use xlink:href="#DejaVuSans-Bold-30" x="1754.931641"/>
     <use xlink:href="#DejaVuSans-Bold-33" x="1824.511719"/>
    </g>
   </g>
   <g id="legend_1">
    <g id="patch_7">
     <path d="M 70 251.32 
L 168.203125 251.32 
Q 170.203125 251.32 170.203125 249.32 
L 170.203125 191.6075 
Q 170.203125 189.6075 168.203125 189.6075 
L 70 189.6075 
Q 68 189.6075 68 191.6075 
L 68 249.32 
Q 68 251.32 70 251.32 
z
" style="fill: #ffffff; opacity: 0.8; stroke: #cccccc; stroke-linejoin: miter"/>
    </g>
    <g id="line2d_14">
     <path d="M 72 197.705938 
L 82 197.705938 
L 92 197.705938 
" style="fill: none; stroke: #1f77b4; stroke-width: 1.5; stroke-linecap: square"/>
    </g>
    <g id="text_13">
     <!-- 'left' - Mean -->
     <g transform="translate(100 201.205938)scale(0.1 -0.1)">
      <defs>
       <path id="DejaVuSans-27" d="M 1147 4666 
L 1147 2931 
L 616 2931 
L 616 4666 
L 1147 4666 
z
" transform="scale(0.015625)"/>
       <path id="DejaVuSans-2d" d="M 313 2009 
L 1997 2009 
L 1997 1497 
L 313 1497 
L 313 2009 
z
" transform="scale(0.015625)"/>
       <path id="DejaVuSans-4d" d="M 628 4666 
L 1569 4666 
L 2759 1491 
L 3956 4666 
L 4897 4666 
L 4897 0 
L 4281 0 
L 4281 4097 
L 3078 897 
L 2444 897 
L 1241 4097 
L 1241 0 
L 628 0 
L 628 4666 
z
" transform="scale(0.015625)"/>
       <path id="DejaVuSans-61" d="M 2194 1759 
Q 1497 1759 1228 1600 
Q 959 1441 959 1056 
Q 959 750 1161 570 
Q 1363 391 1709 391 
Q 2188 391 2477 730 
Q 2766 1069 2766 1631 
L 2766 1759 
L 2194 1759 
z
M 3341 1997 
L 3341 0 
L 2766 0 
L 2766 531 
Q 2569 213 2275 61 
Q 1981 -91 1556 -91 
Q 1019 -91 701 211 
Q 384 513 384 1019 
Q 384 1609 779 1909 
Q 1175 2209 1959 2209 
L 2766 2209 
L 2766 2266 
Q 2766 2663 2505 2880 
Q 2244 3097 1772 3097 
Q 1472 3097 1187 3025 
Q 903 2953 641 2809 
L 641 3341 
Q 956 3463 1253 3523 
Q 1550 3584 1831 3584 
Q 2591 3584 2966 3190 
Q 3341 2797 3341 1997 
z
" transform="scale(0.015625)"/>
      </defs>
      <use xlink:href="#DejaVuSans-27"/>
      <use xlink:href="#DejaVuSans-6c" x="27.490234"/>
      <use xlink:href="#DejaVuSans-65" x="55.273438"/>
      <use xlink:href="#DejaVuSans-66" x="116.796875"/>
      <use xlink:href="#DejaVuSans-74" x="150.251953"/>
      <use xlink:href="#DejaVuSans-27" x="189.460938"/>
      <use xlink:href="#DejaVuSans-20" x="216.951172"/>
      <use xlink:href="#DejaVuSans-2d" x="248.738281"/>
      <use xlink:href="#DejaVuSans-20" x="284.822266"/>
      <use xlink:href="#DejaVuSans-4d" x="316.609375"/>
      <use xlink:href="#DejaVuSans-65" x="402.888672"/>
      <use xlink:href="#DejaVuSans-61" x="464.412109"/>
      <use xlink:href="#DejaVuSans-6e" x="525.691406"/>
     </g>
    </g>
    <g id="patch_8">
     <path d="M 72 215.884062 
L 92 215.884062 
L 92 208.884062 
L 72 208.884062 
z
" style="fill: #1f77b4; fill-opacity: 0.2"/>
    </g>
    <g id="text_14">
     <!-- 'left'- SEM -->
     <g transform="translate(100 215.884062)scale(0.1 -0.1)">
      <defs>
       <path id="DejaVuSans-53" d="M 3425 4513 
L 3425 3897 
Q 3066 4069 2747 4153 
Q 2428 4238 2131 4238 
Q 1616 4238 1336 4038 
Q 1056 3838 1056 3469 
Q 1056 3159 1242 3001 
Q 1428 2844 1947 2747 
L 2328 2669 
Q 3034 2534 3370 2195 
Q 3706 1856 3706 1288 
Q 3706 609 3251 259 
Q 2797 -91 1919 -91 
Q 1588 -91 1214 -16 
Q 841 59 441 206 
L 441 856 
Q 825 641 1194 531 
Q 1563 422 1919 422 
Q 2459 422 2753 634 
Q 3047 847 3047 1241 
Q 3047 1584 2836 1778 
Q 2625 1972 2144 2069 
L 1759 2144 
Q 1053 2284 737 2584 
Q 422 2884 422 3419 
Q 422 4038 858 4394 
Q 1294 4750 2059 4750 
Q 2388 4750 2728 4690 
Q 3069 4631 3425 4513 
z
" transform="scale(0.015625)"/>
       <path id="DejaVuSans-45" d="M 628 4666 
L 3578 4666 
L 3578 4134 
L 1259 4134 
L 1259 2753 
L 3481 2753 
L 3481 2222 
L 1259 2222 
L 1259 531 
L 3634 531 
L 3634 0 
L 628 0 
L 628 4666 
z
" transform="scale(0.015625)"/>
      </defs>
      <use xlink:href="#DejaVuSans-27"/>
      <use xlink:href="#DejaVuSans-6c" x="27.490234"/>
      <use xlink:href="#DejaVuSans-65" x="55.273438"/>
      <use xlink:href="#DejaVuSans-66" x="116.796875"/>
      <use xlink:href="#DejaVuSans-74" x="150.251953"/>
      <use xlink:href="#DejaVuSans-27" x="189.460938"/>
      <use xlink:href="#DejaVuSans-2d" x="216.951172"/>
      <use xlink:href="#DejaVuSans-20" x="253.035156"/>
      <use xlink:href="#DejaVuSans-53" x="284.822266"/>
      <use xlink:href="#DejaVuSans-45" x="348.298828"/>
      <use xlink:href="#DejaVuSans-4d" x="411.482422"/>
     </g>
    </g>
    <g id="line2d_15">
     <path d="M 72 227.062187 
L 82 227.062187 
L 92 227.062187 
" style="fill: none; stroke: #ff7f0e; stroke-width: 1.5; stroke-linecap: square"/>
    </g>
    <g id="text_15">
     <!-- 'right' - Mean -->
     <g transform="translate(100 230.562187)scale(0.1 -0.1)">
      <defs>
       <path id="DejaVuSans-67" d="M 2906 1791 
Q 2906 2416 2648 2759 
Q 2391 3103 1925 3103 
Q 1463 3103 1205 2759 
Q 947 2416 947 1791 
Q 947 1169 1205 825 
Q 1463 481 1925 481 
Q 2391 481 2648 825 
Q 2906 1169 2906 1791 
z
M 3481 434 
Q 3481 -459 3084 -895 
Q 2688 -1331 1869 -1331 
Q 1566 -1331 1297 -1286 
Q 1028 -1241 775 -1147 
L 775 -588 
Q 1028 -725 1275 -790 
Q 1522 -856 1778 -856 
Q 2344 -856 2625 -561 
Q 2906 -266 2906 331 
L 2906 616 
Q 2728 306 2450 153 
Q 2172 0 1784 0 
Q 1141 0 747 490 
Q 353 981 353 1791 
Q 353 2603 747 3093 
Q 1141 3584 1784 3584 
Q 2172 3584 2450 3431 
Q 2728 3278 2906 2969 
L 2906 3500 
L 3481 3500 
L 3481 434 
z
" transform="scale(0.015625)"/>
       <path id="DejaVuSans-68" d="M 3513 2113 
L 3513 0 
L 2938 0 
L 2938 2094 
Q 2938 2591 2744 2837 
Q 2550 3084 2163 3084 
Q 1697 3084 1428 2787 
Q 1159 2491 1159 1978 
L 1159 0 
L 581 0 
L 581 4863 
L 1159 4863 
L 1159 2956 
Q 1366 3272 1645 3428 
Q 1925 3584 2291 3584 
Q 2894 3584 3203 3211 
Q 3513 2838 3513 2113 
z
" transform="scale(0.015625)"/>
      </defs>
      <use xlink:href="#DejaVuSans-27"/>
      <use xlink:href="#DejaVuSans-72" x="27.490234"/>
      <use xlink:href="#DejaVuSans-69" x="68.603516"/>
      <use xlink:href="#DejaVuSans-67" x="96.386719"/>
      <use xlink:href="#DejaVuSans-68" x="159.863281"/>
      <use xlink:href="#DejaVuSans-74" x="223.242188"/>
      <use xlink:href="#DejaVuSans-27" x="262.451172"/>
      <use xlink:href="#DejaVuSans-20" x="289.941406"/>
      <use xlink:href="#DejaVuSans-2d" x="321.728516"/>
      <use xlink:href="#DejaVuSans-20" x="357.8125"/>
      <use xlink:href="#DejaVuSans-4d" x="389.599609"/>
      <use xlink:href="#DejaVuSans-65" x="475.878906"/>
      <use xlink:href="#DejaVuSans-61" x="537.402344"/>
      <use xlink:href="#DejaVuSans-6e" x="598.681641"/>
     </g>
    </g>
    <g id="patch_9">
     <path d="M 72 245.240313 
L 92 245.240313 
L 92 238.240313 
L 72 238.240313 
z
" style="fill: #ff7f0e; fill-opacity: 0.2"/>
    </g>
    <g id="text_16">
     <!-- 'right'- SEM -->
     <g transform="translate(100 245.240313)scale(0.1 -0.1)">
      <use xlink:href="#DejaVuSans-27"/>
      <use xlink:href="#DejaVuSans-72" x="27.490234"/>
      <use xlink:href="#DejaVuSans-69" x="68.603516"/>
      <use xlink:href="#DejaVuSans-67" x="96.386719"/>
      <use xlink:href="#DejaVuSans-68" x="159.863281"/>
      <use xlink:href="#DejaVuSans-74" x="223.242188"/>
      <use xlink:href="#DejaVuSans-27" x="262.451172"/>
      <use xlink:href="#DejaVuSans-2d" x="289.941406"/>
      <use xlink:href="#DejaVuSans-20" x="326.025391"/>
      <use xlink:href="#DejaVuSans-53" x="357.8125"/>
      <use xlink:href="#DejaVuSans-45" x="421.289062"/>
      <use xlink:href="#DejaVuSans-4d" x="484.472656"/>
     </g>
    </g>
   </g>
  </g>
 </g>
 <defs>
  <clipPath id="pb3eae0c057">
   <rect x="63" y="34.56" width="390.6" height="221.76"/>
  </clipPath>
 </defs>
</svg>
