<?xml version="1.0" encoding="utf-8" standalone="no"?>
<!DOCTYPE svg PUBLIC "-//W3C//DTD SVG 1.1//EN"
  "http://www.w3.org/Graphics/SVG/1.1/DTD/svg11.dtd">
<svg xmlns:xlink="http://www.w3.org/1999/xlink" width="504pt" height="288pt" viewBox="0 0 504 288" xmlns="http://www.w3.org/2000/svg" version="1.1">
 <metadata>
  <rdf:RDF xmlns:dc="http://purl.org/dc/elements/1.1/" xmlns:cc="http://creativecommons.org/ns#" xmlns:rdf="http://www.w3.org/1999/02/22-rdf-syntax-ns#">
   <cc:Work>
    <dc:type rdf:resource="http://purl.org/dc/dcmitype/StillImage"/>
    <dc:date>2023-09-22T20:46:15.985885</dc:date>
    <dc:format>image/svg+xml</dc:format>
    <dc:creator>
     <cc:Agent>
      <dc:title>Matplotlib v3.5.3, https://matplotlib.org/</dc:title>
     </cc:Agent>
    </dc:creator>
   </cc:Work>
  </rdf:RDF>
 </metadata>
 <defs>
  <style type="text/css">*{stroke-linejoin: round; stroke-linecap: butt}</style>
 </defs>
 <g id="figure_1">
  <g id="patch_1">
   <path d="M 0 288 
L 504 288 
L 504 0 
L 0 0 
z
" style="fill: #ffffff"/>
  </g>
  <g id="axes_1">
   <g id="patch_2">
    <path d="M 63 256.32 
L 453.6 256.32 
L 453.6 34.56 
L 63 34.56 
z
" style="fill: #ffffff"/>
   </g>
   <g id="PolyCollection_1">
    <path d="M 80.754545 124.001599 
L 80.754545 146.511571 
L 82.141619 150.163914 
L 83.528693 150.328618 
L 84.915767 146.484575 
L 86.302841 141.742817 
L 87.689915 139.513184 
L 89.076989 140.391455 
L 90.464062 141.827632 
L 91.851136 140.298835 
L 93.23821 134.710809 
L 94.625284 128.061654 
L 96.012358 124.747766 
L 97.399432 126.383726 
L 98.786506 130.90688 
L 100.17358 134.773677 
L 101.560653 135.751014 
L 102.947727 134.391718 
L 104.334801 133.603741 
L 105.721875 135.945284 
L 107.108949 140.927185 
L 108.496023 145.231714 
L 109.883097 145.420111 
L 111.27017 140.548001 
L 112.657244 132.762271 
L 114.044318 125.620193 
L 115.431392 121.651335 
L 116.818466 121.303866 
L 118.20554 123.602208 
L 119.592614 126.941026 
L 120.979687 129.440798 
L 122.366761 129.73653 
L 123.753835 127.839556 
L 125.140909 124.925599 
L 126.527983 122.302684 
L 127.915057 120.949924 
L 129.302131 121.171152 
L 130.689205 122.210767 
L 132.076278 122.853238 
L 133.463352 122.596892 
L 134.850426 122.140155 
L 136.2375 122.908447 
L 137.624574 125.726397 
L 139.011648 129.494722 
L 140.398722 131.770755 
L 141.785795 130.860911 
L 143.172869 127.140743 
L 144.559943 122.51422 
L 145.947017 118.903255 
L 147.334091 117.391465 
L 148.721165 118.27492 
L 150.108239 121.183192 
L 151.495312 125.064229 
L 152.882386 128.503072 
L 154.26946 130.218516 
L 155.656534 129.564271 
L 157.043608 127.303104 
L 158.430682 125.573804 
L 159.817756 126.123561 
L 161.20483 128.752219 
L 162.591903 131.568365 
L 163.978977 132.270686 
L 165.366051 129.806355 
L 166.753125 125.64939 
L 168.140199 122.969316 
L 169.527273 123.981306 
L 170.914347 127.816928 
L 172.30142 130.921061 
L 173.688494 130.217169 
L 175.075568 125.995233 
L 176.462642 121.688344 
L 177.849716 120.719099 
L 179.23679 122.9655 
L 180.623864 124.562204 
L 182.010937 121.716306 
L 183.398011 114.496088 
L 184.785085 107.282133 
L 186.172159 105.613295 
L 187.559233 111.583178 
L 188.946307 121.884967 
L 190.333381 130.552473 
L 191.720455 133.418665 
L 193.107528 130.596762 
L 194.494602 125.755575 
L 195.881676 123.194902 
L 197.26875 124.518838 
L 198.655824 127.861102 
L 200.042898 130.518791 
L 201.429972 131.589868 
L 202.817045 132.098731 
L 204.204119 133.251948 
L 205.591193 134.874351 
L 206.978267 135.113221 
L 208.365341 132.005532 
L 209.752415 125.871161 
L 211.139489 119.748659 
L 212.526563 117.14358 
L 213.913636 119.339987 
L 215.30071 124.502723 
L 216.687784 128.584235 
L 218.074858 127.9602 
L 219.461932 123.148821 
L 220.849006 119.028693 
L 222.23608 120.260341 
L 223.623153 126.934491 
L 225.010227 134.995787 
L 226.397301 139.490143 
L 227.784375 137.799026 
L 229.171449 131.257353 
L 230.558523 124.090372 
L 231.945597 120.27997 
L 233.33267 121.044037 
L 234.719744 124.399457 
L 236.106818 127.172962 
L 237.493892 128.208371 
L 238.880966 128.740718 
L 240.26804 130.388949 
L 241.655114 134.185695 
L 243.042188 140.568419 
L 244.429261 148.749944 
L 245.816335 156.915936 
L 247.203409 163.407452 
L 248.590483 166.153849 
L 249.977557 163.131332 
L 251.364631 155.38296 
L 252.751705 147.869492 
L 254.138778 146.251431 
L 255.525852 152.516824 
L 256.912926 163.297203 
L 258.3 172.128971 
L 259.687074 174.181686 
L 261.074148 170.187413 
L 262.461222 166.006415 
L 263.848295 167.635173 
L 265.235369 176.292325 
L 266.622443 187.981449 
L 268.009517 196.874297 
L 269.396591 199.293792 
L 270.783665 196.341241 
L 272.170739 193.038335 
L 273.557813 194.334126 
L 274.944886 201.639625 
L 276.33196 212.024891 
L 277.719034 220.530274 
L 279.106108 223.711619 
L 280.493182 221.347267 
L 281.880256 216.33348 
L 283.26733 213.317441 
L 284.654403 215.09998 
L 286.041477 219.773066 
L 287.428551 222.04753 
L 288.815625 216.893527 
L 290.202699 203.70637 
L 291.589773 188.860418 
L 292.976847 181.620392 
L 294.36392 186.845987 
L 295.750994 201.707748 
L 297.138068 216.240128 
L 298.525142 221.157945 
L 299.912216 217.581618 
L 301.29929 213.338078 
L 302.686364 214.244877 
L 304.073438 222.439054 
L 305.460511 234.528878 
L 306.847585 241.339897 
L 308.234659 237.775693 
L 309.621733 228.706558 
L 311.008807 221.169439 
L 312.395881 217.443093 
L 313.782955 215.095359 
L 315.170028 209.791527 
L 316.557102 200.705779 
L 317.944176 192.654576 
L 319.33125 190.081914 
L 320.718324 192.087901 
L 322.105398 194.015108 
L 323.492472 191.43093 
L 324.879545 184.026164 
L 326.266619 176.151087 
L 327.653693 172.28932 
L 329.040767 173.074414 
L 330.427841 176.077089 
L 331.814915 178.916609 
L 333.201989 181.45924 
L 334.589063 184.98952 
L 335.976136 189.152726 
L 337.36321 190.548535 
L 338.750284 185.03821 
L 340.137358 171.94504 
L 341.524432 156.059191 
L 342.911506 144.763564 
L 344.29858 142.527339 
L 345.685653 147.733308 
L 347.072727 154.42 
L 348.459801 157.260144 
L 349.846875 155.219415 
L 351.233949 150.863359 
L 352.621023 147.02949 
L 354.008097 144.356234 
L 355.39517 141.482425 
L 356.782244 137.436497 
L 358.169318 133.323616 
L 359.556392 131.129554 
L 360.943466 131.230912 
L 362.33054 131.661529 
L 363.717614 129.895697 
L 365.104688 125.536928 
L 366.491761 121.310718 
L 367.878835 120.818096 
L 369.265909 124.834911 
L 370.652983 130.119825 
L 372.040057 132.200101 
L 373.427131 129.102746 
L 374.814205 122.724926 
L 376.201278 117.107756 
L 377.588352 114.995651 
L 378.975426 115.523341 
L 380.3625 115.792085 
L 381.749574 114.589607 
L 383.136648 112.892501 
L 384.523722 111.940833 
L 385.910795 112.571835 
L 387.297869 114.184864 
L 388.684943 114.221577 
L 390.072017 110.891304 
L 391.459091 105.646285 
L 392.846165 101.482645 
L 394.233239 100.146019 
L 395.620313 101.431572 
L 397.007386 103.386881 
L 398.39446 103.790838 
L 399.781534 102.781393 
L 401.168608 102.749241 
L 402.555682 105.78475 
L 403.942756 111.984413 
L 405.32983 119.401912 
L 406.716903 126.004942 
L 408.103977 131.888416 
L 409.491051 138.457945 
L 410.878125 146.557081 
L 412.265199 155.667927 
L 413.652273 163.390144 
L 415.039347 167.290471 
L 416.42642 168.315861 
L 417.813494 170.273508 
L 419.200568 176.082419 
L 420.587642 185.782168 
L 421.974716 196.10668 
L 423.36179 201.705002 
L 424.748864 199.413798 
L 426.135938 191.354916 
L 427.523011 182.566581 
L 428.910085 176.755785 
L 430.297159 174.244438 
L 431.684233 172.159759 
L 433.071307 167.455745 
L 434.458381 161.111723 
L 435.845455 157.519456 
L 435.845455 128.372969 
L 435.845455 128.372969 
L 434.458381 128.564252 
L 433.071307 131.114817 
L 431.684233 131.684839 
L 430.297159 128.961074 
L 428.910085 125.637401 
L 427.523011 126.068856 
L 426.135938 131.124489 
L 424.748864 136.488687 
L 423.36179 136.877136 
L 421.974716 130.515306 
L 420.587642 120.135973 
L 419.200568 111.27694 
L 417.813494 108.015077 
L 416.42642 109.233989 
L 415.039347 110.50632 
L 413.652273 108.901003 
L 412.265199 104.343651 
L 410.878125 98.57502 
L 409.491051 93.796119 
L 408.103977 90.350329 
L 406.716903 86.296332 
L 405.32983 80.336948 
L 403.942756 73.387327 
L 402.555682 67.5361 
L 401.168608 64.617225 
L 399.781534 64.601909 
L 398.39446 65.490948 
L 397.007386 65.240153 
L 395.620313 63.2304 
L 394.233239 60.853821 
L 392.846165 60.769188 
L 391.459091 63.974394 
L 390.072017 68.644813 
L 388.684943 72.443665 
L 387.297869 74.366633 
L 385.910795 74.971392 
L 384.523722 76.240349 
L 383.136648 79.669626 
L 381.749574 83.638463 
L 380.3625 84.963096 
L 378.975426 83.053712 
L 377.588352 80.178238 
L 376.201278 79.009475 
L 374.814205 80.77561 
L 373.427131 84.032428 
L 372.040057 85.378732 
L 370.652983 82.459033 
L 369.265909 76.245022 
L 367.878835 70.181299 
L 366.491761 67.396091 
L 365.104688 68.581021 
L 363.717614 71.807887 
L 362.33054 74.426854 
L 360.943466 75.511417 
L 359.556392 76.408399 
L 358.169318 78.90544 
L 356.782244 83.370635 
L 355.39517 88.843598 
L 354.008097 94.38741 
L 352.621023 100.009167 
L 351.233949 106.053674 
L 349.846875 111.483135 
L 348.459801 113.451497 
L 347.072727 109.762233 
L 345.685653 101.86014 
L 344.29858 95.038876 
L 342.911506 95.1484 
L 341.524432 104.010004 
L 340.137358 117.564136 
L 338.750284 128.802225 
L 337.36321 132.972805 
L 335.976136 130.664995 
L 334.589063 126.265419 
L 333.201989 123.405858 
L 331.814915 122.130471 
L 330.427841 120.342973 
L 329.040767 117.340633 
L 327.653693 115.3173 
L 326.266619 116.707719 
L 324.879545 120.714207 
L 323.492472 123.712904 
L 322.105398 122.578449 
L 320.718324 117.97547 
L 319.33125 114.696508 
L 317.944176 116.818026 
L 316.557102 123.065747 
L 315.170028 128.995565 
L 313.782955 131.521287 
L 312.395881 131.380028 
L 311.008807 133.372604 
L 309.621733 140.920218 
L 308.234659 150.431932 
L 306.847585 155.065525 
L 305.460511 151.145535 
L 304.073438 140.245745 
L 302.686364 130.785784 
L 301.29929 132.347019 
L 299.912216 143.064844 
L 298.525142 150.747499 
L 297.138068 147.339528 
L 295.750994 134.862003 
L 294.36392 121.567623 
L 292.976847 117.068705 
L 291.589773 124.315417 
L 290.202699 136.558935 
L 288.815625 144.586643 
L 287.428551 143.883239 
L 286.041477 136.939621 
L 284.654403 130.632091 
L 283.26733 129.91087 
L 281.880256 134.553123 
L 280.493182 141.108307 
L 279.106108 145.642701 
L 277.719034 145.849341 
L 276.33196 142.412218 
L 274.944886 138.159807 
L 273.557813 136.239767 
L 272.170739 138.633386 
L 270.783665 144.471733 
L 269.396591 149.546217 
L 268.009517 148.687126 
L 266.622443 139.791589 
L 265.235369 126.694748 
L 263.848295 117.1094 
L 262.461222 116.309124 
L 261.074148 122.907752 
L 259.687074 130.275423 
L 258.3 131.79212 
L 256.912926 125.901177 
L 255.525852 117.237065 
L 254.138778 112.691103 
L 252.751705 115.83547 
L 251.364631 124.804286 
L 249.977557 134.68066 
L 248.590483 141.023218 
L 247.203409 141.691895 
L 245.816335 137.151979 
L 244.429261 129.872268 
L 243.042188 122.120467 
L 241.655114 115.047344 
L 240.26804 110.119544 
L 238.880966 108.449393 
L 237.493892 108.975818 
L 236.106818 109.239901 
L 234.719744 107.732367 
L 233.33267 105.058753 
L 231.945597 103.757699 
L 230.558523 106.69454 
L 229.171449 113.829257 
L 227.784375 121.146552 
L 226.397301 123.519765 
L 225.010227 118.941851 
L 223.623153 110.561766 
L 222.23608 104.196369 
L 220.849006 103.382495 
L 219.461932 107.006884 
L 218.074858 111.190485 
L 216.687784 112.099067 
L 215.30071 108.271358 
L 213.913636 102.029216 
L 212.526563 98.122333 
L 211.139489 99.490848 
L 209.752415 105.011058 
L 208.365341 111.193194 
L 206.978267 115.11189 
L 205.591193 115.977538 
L 204.204119 114.851888 
L 202.817045 113.172679 
L 201.429972 111.240388 
L 200.042898 108.422187 
L 198.655824 104.832668 
L 197.26875 101.999067 
L 195.881676 101.679695 
L 194.494602 104.194243 
L 193.107528 107.701785 
L 191.720455 108.706083 
L 190.333381 104.449544 
L 188.946307 95.728603 
L 187.559233 86.840755 
L 186.172159 82.464128 
L 184.785085 84.372104 
L 183.398011 90.535653 
L 182.010937 96.687271 
L 180.623864 99.497368 
L 179.23679 98.993379 
L 177.849716 97.893346 
L 176.462642 98.931012 
L 175.075568 102.733807 
L 173.688494 107.33949 
L 172.30142 109.930973 
L 170.914347 109.486942 
L 169.527273 107.653229 
L 168.140199 107.24575 
L 166.753125 109.721303 
L 165.366051 113.684648 
L 163.978977 116.115808 
L 162.591903 115.060239 
L 161.20483 111.391937 
L 159.817756 108.013382 
L 158.430682 107.017875 
L 157.043608 108.04814 
L 155.656534 109.28431 
L 154.26946 109.01181 
L 152.882386 106.480793 
L 151.495312 102.272641 
L 150.108239 97.783469 
L 148.721165 94.324672 
L 147.334091 92.905716 
L 145.947017 94.121584 
L 144.559943 97.514006 
L 143.172869 101.359036 
L 141.785795 103.651154 
L 140.398722 103.471927 
L 139.011648 101.461697 
L 137.624574 99.152552 
L 136.2375 97.817581 
L 134.850426 97.709397 
L 133.463352 97.902561 
L 132.076278 97.002281 
L 130.689205 94.718699 
L 129.302131 92.477057 
L 127.915057 92.229859 
L 126.527983 94.824899 
L 125.140909 99.194785 
L 123.753835 102.993839 
L 122.366761 104.510885 
L 120.979687 103.762422 
L 119.592614 101.554677 
L 118.20554 98.66453 
L 116.818466 96.267037 
L 115.431392 96.202196 
L 114.044318 99.856248 
L 112.657244 106.763692 
L 111.27017 114.303778 
L 109.883097 118.850402 
L 108.496023 118.073632 
L 107.108949 112.95065 
L 105.721875 107.364145 
L 104.334801 105.091688 
L 102.947727 106.742112 
L 101.560653 109.281702 
L 100.17358 108.708991 
L 98.786506 104.137178 
L 97.399432 99.264292 
L 96.012358 98.834754 
L 94.625284 103.928339 
L 93.23821 111.117074 
L 91.851136 115.939904 
L 90.464062 116.538751 
L 89.076989 114.986879 
L 87.689915 115.480607 
L 86.302841 120.115907 
L 84.915767 126.491466 
L 83.528693 130.11983 
L 82.141619 128.720977 
L 80.754545 124.001599 
z
" clip-path="url(#pe74df29037)" style="fill: #1f77b4; fill-opacity: 0.2"/>
   </g>
   <g id="PolyCollection_2">
    <path d="M 80.754545 74.960069 
L 80.754545 114.338617 
L 82.141619 106.893419 
L 83.528693 103.17558 
L 84.915767 102.270113 
L 86.302841 103.590087 
L 87.689915 107.193635 
L 89.076989 113.038742 
L 90.464062 120.235893 
L 91.851136 127.077478 
L 93.23821 132.124673 
L 94.625284 135.447128 
L 96.012358 138.371488 
L 97.399432 141.876556 
L 98.786506 145.578517 
L 100.17358 148.165955 
L 101.560653 148.549493 
L 102.947727 146.878589 
L 104.334801 144.560855 
L 105.721875 142.802677 
L 107.108949 141.237853 
L 108.496023 138.566583 
L 109.883097 134.341564 
L 111.27017 129.761319 
L 112.657244 126.868288 
L 114.044318 126.799051 
L 115.431392 128.502545 
L 116.818466 129.269307 
L 118.20554 126.426525 
L 119.592614 119.036601 
L 120.979687 109.124623 
L 122.366761 100.697315 
L 123.753835 96.976287 
L 125.140909 99.365194 
L 126.527983 107.729907 
L 127.915057 119.845037 
L 129.302131 131.106543 
L 130.689205 136.83871 
L 132.076278 135.628288 
L 133.463352 130.462764 
L 134.850426 126.746287 
L 136.2375 128.139991 
L 137.624574 133.734594 
L 139.011648 139.33023 
L 140.398722 141.186013 
L 141.785795 138.960707 
L 143.172869 135.73258 
L 144.559943 135.522267 
L 145.947017 139.974945 
L 147.334091 146.570233 
L 148.721165 150.801224 
L 150.108239 150.608168 
L 151.495312 148.42041 
L 152.882386 148.781482 
L 154.26946 154.175719 
L 155.656534 163.033541 
L 157.043608 171.270915 
L 158.430682 175.898348 
L 159.817756 177.460223 
L 161.20483 179.160977 
L 162.591903 183.884841 
L 163.978977 191.90246 
L 165.366051 200.89933 
L 166.753125 208.251962 
L 168.140199 213.46059 
L 169.527273 218.001579 
L 170.914347 222.740812 
L 172.30142 226.168137 
L 173.688494 225.660606 
L 175.075568 220.339332 
L 176.462642 212.614503 
L 177.849716 206.788198 
L 179.23679 205.751299 
L 180.623864 208.75915 
L 182.010937 212.337277 
L 183.398011 213.547389 
L 184.785085 212.559533 
L 186.172159 211.814223 
L 187.559233 212.817714 
L 188.946307 214.492364 
L 190.333381 214.347328 
L 191.720455 210.507774 
L 193.107528 203.218525 
L 194.494602 194.864303 
L 195.881676 187.80754 
L 197.26875 182.123556 
L 198.655824 176.236573 
L 200.042898 169.357332 
L 201.429972 162.432525 
L 202.817045 157.008921 
L 204.204119 153.3635 
L 205.591193 149.64199 
L 206.978267 143.388523 
L 208.365341 134.281284 
L 209.752415 125.047677 
L 211.139489 119.527554 
L 212.526563 119.283386 
L 213.913636 121.581246 
L 215.30071 121.292809 
L 216.687784 115.519029 
L 218.074858 106.451339 
L 219.461932 99.649032 
L 220.849006 99.982583 
L 222.23608 108.357447 
L 223.623153 120.638444 
L 225.010227 129.78509 
L 226.397301 130.303554 
L 227.784375 121.689561 
L 229.171449 108.05725 
L 230.558523 95.191908 
L 231.945597 87.77649 
L 233.33267 87.481165 
L 234.719744 92.568323 
L 236.106818 99.294363 
L 237.493892 103.727448 
L 238.880966 103.400084 
L 240.26804 99.010252 
L 241.655114 93.973355 
L 243.042188 91.527333 
L 244.429261 92.62399 
L 245.816335 96.008091 
L 247.203409 99.637925 
L 248.590483 102.558219 
L 249.977557 105.352313 
L 251.364631 108.363842 
L 252.751705 110.383659 
L 254.138778 109.675484 
L 255.525852 106.033583 
L 256.912926 102.067385 
L 258.3 101.774046 
L 259.687074 106.501255 
L 261.074148 113.299868 
L 262.461222 117.85985 
L 263.848295 117.589508 
L 265.235369 112.609537 
L 266.622443 105.597287 
L 268.009517 99.53977 
L 269.396591 95.279582 
L 270.783665 92.140529 
L 272.170739 89.6841 
L 273.557813 88.308171 
L 274.944886 88.984447 
L 276.33196 92.062413 
L 277.719034 96.855224 
L 279.106108 102.760357 
L 280.493182 108.934215 
L 281.880256 113.778851 
L 283.26733 115.664103 
L 284.654403 113.262833 
L 286.041477 108.510427 
L 287.428551 107.364158 
L 288.815625 113.012129 
L 290.202699 124.379257 
L 291.589773 137.20605 
L 292.976847 141.945762 
L 294.36392 135.643701 
L 295.750994 127.38434 
L 297.138068 125.864976 
L 298.525142 133.356783 
L 299.912216 148.978548 
L 301.29929 157.659733 
L 302.686364 148.472146 
L 304.073438 129.263959 
L 305.460511 120.175852 
L 306.847585 122.032758 
L 308.234659 128.066719 
L 309.621733 134.708995 
L 311.008807 135.181297 
L 312.395881 127.42718 
L 313.782955 119.609651 
L 315.170028 115.31 
L 316.557102 114.414512 
L 317.944176 116.943248 
L 319.33125 119.826364 
L 320.718324 120.280531 
L 322.105398 120.141477 
L 323.492472 120.984505 
L 324.879545 121.921465 
L 326.266619 121.888724 
L 327.653693 121.690464 
L 329.040767 124.44099 
L 330.427841 131.589414 
L 331.814915 139.102336 
L 333.201989 140.827258 
L 334.589063 134.466294 
L 335.976136 124.002415 
L 337.36321 117.878816 
L 338.750284 122.44447 
L 340.137358 135.997198 
L 341.524432 150.028294 
L 342.911506 155.900432 
L 344.29858 150.883927 
L 345.685653 140.006709 
L 347.072727 132.377731 
L 348.459801 134.453288 
L 349.846875 145.730848 
L 351.233949 160.183714 
L 352.621023 171.148454 
L 354.008097 175.065219 
L 355.39517 172.634429 
L 356.782244 167.883339 
L 358.169318 165.34201 
L 359.556392 167.399153 
L 360.943466 174.126196 
L 362.33054 184.286248 
L 363.717614 195.727351 
L 365.104688 206.483674 
L 366.491761 216.273778 
L 367.878835 225.912138 
L 369.265909 235.329749 
L 370.652983 242.792929 
L 372.040057 246.24 
L 373.427131 245.340414 
L 374.814205 242.230968 
L 376.201278 239.972338 
L 377.588352 239.958746 
L 378.975426 240.904329 
L 380.3625 240.34986 
L 381.749574 236.792889 
L 383.136648 230.527327 
L 384.523722 222.927036 
L 385.910795 214.968848 
L 387.297869 206.632869 
L 388.684943 198.167998 
L 390.072017 191.126175 
L 391.459091 187.166679 
L 392.846165 186.166308 
L 394.233239 185.864448 
L 395.620313 183.720236 
L 397.007386 179.802465 
L 398.39446 177.280488 
L 399.781534 179.332108 
L 401.168608 185.807909 
L 402.555682 193.058311 
L 403.942756 196.877391 
L 405.32983 196.054343 
L 406.716903 193.310073 
L 408.103977 192.476434 
L 409.491051 194.810014 
L 410.878125 198.198387 
L 412.265199 199.680219 
L 413.652273 198.648296 
L 415.039347 197.554373 
L 416.42642 198.893344 
L 417.813494 201.445253 
L 419.200568 200.44914 
L 420.587642 192.24691 
L 421.974716 178.572593 
L 423.36179 166.150149 
L 424.748864 162.271519 
L 426.135938 169.320767 
L 427.523011 182.220994 
L 428.910085 192.130706 
L 430.297159 194.012828 
L 431.684233 190.599874 
L 433.071307 188.881259 
L 434.458381 193.196891 
L 435.845455 201.464511 
L 435.845455 124.196559 
L 435.845455 124.196559 
L 434.458381 115.825155 
L 433.071307 112.456469 
L 431.684233 115.88615 
L 430.297159 121.092241 
L 428.910085 121.053458 
L 427.523011 113.252041 
L 426.135938 102.18525 
L 424.748864 96.18265 
L 423.36179 100.732683 
L 421.974716 113.35828 
L 420.587642 125.261548 
L 419.200568 128.982276 
L 417.813494 124.321467 
L 416.42642 116.986533 
L 415.039347 112.765811 
L 413.652273 112.945831 
L 412.265199 114.279352 
L 410.878125 112.923888 
L 409.491051 108.564727 
L 408.103977 104.63228 
L 406.716903 104.459166 
L 405.32983 107.77657 
L 403.942756 111.117648 
L 402.555682 111.281378 
L 401.168608 108.4603 
L 399.781534 106.15596 
L 398.39446 107.897126 
L 397.007386 114.137521 
L 395.620313 122.249398 
L 394.233239 128.820696 
L 392.846165 132.031511 
L 391.459091 132.696288 
L 390.072017 133.175908 
L 388.684943 135.112872 
L 387.297869 138.43079 
L 385.910795 141.874386 
L 384.523722 144.126309 
L 383.136648 144.854361 
L 381.749574 144.595126 
L 380.3625 143.761409 
L 378.975426 142.5385 
L 377.588352 141.530372 
L 376.201278 141.790672 
L 374.814205 144.132788 
L 373.427131 148.398367 
L 372.040057 153.149985 
L 370.652983 156.312739 
L 369.265909 156.509528 
L 367.878835 153.836119 
L 366.491761 149.421119 
L 365.104688 144.35817 
L 363.717614 138.891206 
L 362.33054 132.567827 
L 360.943466 125.665097 
L 359.556392 120.455484 
L 358.169318 119.663681 
L 356.782244 123.567286 
L 355.39517 129.388705 
L 354.008097 132.665523 
L 352.621023 129.172986 
L 351.233949 117.638465 
L 349.846875 101.826789 
L 348.459801 89.07404 
L 347.072727 85.803604 
L 345.685653 93.293959 
L 344.29858 106.171661 
L 342.911506 115.160035 
L 341.524432 113.504777 
L 340.137358 102.630955 
L 338.750284 91.355315 
L 337.36321 88.571637 
L 335.976136 96.463395 
L 334.589063 109.344666 
L 333.201989 118.144218 
L 331.814915 117.792086 
L 330.427841 110.902432 
L 329.040767 103.602838 
L 327.653693 100.200425 
L 326.266619 101.165135 
L 324.879545 103.406165 
L 323.492472 103.821385 
L 322.105398 102.419311 
L 320.718324 100.609297 
L 319.33125 99.295641 
L 317.944176 97.922056 
L 316.557102 94.771613 
L 315.170028 93.135391 
L 313.782955 99.04774 
L 312.395881 109.913415 
L 311.008807 117.294036 
L 309.621733 117.323654 
L 308.234659 108.026531 
L 306.847585 97.073517 
L 305.460511 98.099651 
L 304.073438 108.584131 
L 302.686364 115.7482 
L 301.29929 119.610676 
L 299.912216 118.952171 
L 298.525142 112.467658 
L 297.138068 104.197236 
L 295.750994 104.661018 
L 294.36392 110.48903 
L 292.976847 114.021927 
L 291.589773 112.33624 
L 290.202699 104.543706 
L 288.815625 93.893825 
L 287.428551 88.003883 
L 286.041477 87.969373 
L 284.654403 90.09984 
L 283.26733 91.653235 
L 281.880256 90.236163 
L 280.493182 85.332853 
L 279.106108 78.365295 
L 277.719034 70.609981 
L 276.33196 63.599974 
L 274.944886 58.832264 
L 273.557813 56.699809 
L 272.170739 56.773431 
L 270.783665 58.211605 
L 269.396591 60.732208 
L 268.009517 65.237887 
L 266.622443 72.275638 
L 265.235369 80.480452 
L 263.848295 86.719495 
L 262.461222 87.660809 
L 261.074148 82.896965 
L 259.687074 76.22852 
L 258.3 72.176813 
L 256.912926 72.343877 
L 255.525852 75.350382 
L 254.138778 78.341912 
L 252.751705 78.9074 
L 251.364631 76.82368 
L 249.977557 73.456186 
L 248.590483 69.766504 
L 247.203409 65.693878 
L 245.816335 60.984209 
L 244.429261 56.36767 
L 243.042188 53.943373 
L 241.655114 55.472807 
L 240.26804 60.11266 
L 238.880966 64.527649 
L 237.493892 65.033235 
L 236.106818 59.939875 
L 234.719744 51.356203 
L 233.33267 44.64 
L 231.945597 44.923255 
L 230.558523 53.961533 
L 229.171449 69.184763 
L 227.784375 84.651782 
L 226.397301 93.896049 
L 225.010227 93.51972 
L 223.623153 84.966725 
L 222.23608 73.846945 
L 220.849006 67.173059 
L 219.461932 69.071844 
L 218.074858 77.699898 
L 216.687784 86.672341 
L 215.30071 90.473351 
L 213.913636 88.620242 
L 212.526563 85.213036 
L 211.139489 85.336654 
L 209.752415 91.151275 
L 208.365341 100.346961 
L 206.978267 108.196184 
L 205.591193 111.590837 
L 204.204119 111.220408 
L 202.817045 110.218801 
L 201.429972 111.183785 
L 200.042898 114.199794 
L 198.655824 117.525364 
L 197.26875 119.973048 
L 195.881676 121.989123 
L 194.494602 124.607044 
L 193.107528 128.110619 
L 191.720455 131.41713 
L 190.333381 132.668639 
L 188.946307 131.217761 
L 187.559233 128.762142 
L 186.172159 127.59245 
L 184.785085 128.136815 
L 183.398011 128.947349 
L 182.010937 128.492791 
L 180.623864 126.682128 
L 179.23679 125.24655 
L 177.849716 126.531216 
L 176.462642 131.373329 
L 175.075568 138.076286 
L 173.688494 143.558699 
L 172.30142 145.59721 
L 170.914347 144.1125 
L 169.527273 140.461902 
L 168.140199 135.848832 
L 166.753125 130.563289 
L 165.366051 124.406299 
L 163.978977 117.739989 
L 162.591903 112.093521 
L 161.20483 109.207483 
L 159.817756 109.090367 
L 158.430682 109.593469 
L 157.043608 108.491619 
L 155.656534 105.802573 
L 154.26946 103.888185 
L 152.882386 105.18014 
L 151.495312 109.551374 
L 150.108239 114.018276 
L 148.721165 115.308618 
L 147.334091 112.628591 
L 145.947017 108.199907 
L 144.559943 105.399221 
L 143.172869 105.983874 
L 141.785795 108.347936 
L 140.398722 108.680622 
L 139.011648 104.786903 
L 137.624574 98.509878 
L 136.2375 94.07832 
L 134.850426 94.317697 
L 133.463352 98.389469 
L 132.076278 102.654286 
L 130.689205 103.046464 
L 129.302131 97.430348 
L 127.915057 86.766993 
L 126.527983 74.530278 
L 125.140909 65.437385 
L 123.753835 63.398192 
L 122.366761 69.026355 
L 120.979687 79.270928 
L 119.592614 89.747371 
L 118.20554 96.979535 
L 116.818466 99.058657 
L 115.431392 96.499963 
L 114.044318 92.258041 
L 112.657244 89.558633 
L 111.27017 89.685043 
L 109.883097 91.536752 
L 108.496023 92.989567 
L 107.108949 92.940662 
L 105.721875 92.011242 
L 104.334801 91.379392 
L 102.947727 91.365771 
L 101.560653 91.0126 
L 100.17358 88.885058 
L 98.786506 84.697319 
L 97.399432 80.009013 
L 96.012358 76.683831 
L 94.625284 74.838964 
L 93.23821 72.78545 
L 91.851136 68.819555 
L 90.464062 62.912488 
L 89.076989 56.941839 
L 87.689915 53.247803 
L 86.302841 52.76661 
L 84.915767 54.832958 
L 83.528693 58.801089 
L 82.141619 65.201954 
L 80.754545 74.960069 
z
" clip-path="url(#pe74df29037)" style="fill: #ff7f0e; fill-opacity: 0.2"/>
   </g>
   <g id="matplotlib.axis_1">
    <g id="xtick_1">
     <g id="line2d_1">
      <defs>
       <path id="ma2c4bf5de2" d="M 0 0 
L 0 3.5 
" style="stroke: #000000; stroke-width: 0.8"/>
      </defs>
      <g>
       <use xlink:href="#ma2c4bf5de2" x="116.541051" y="256.32" style="stroke: #000000; stroke-width: 0.8"/>
      </g>
     </g>
     <g id="text_1">
      <!-- −0.2 -->
      <g transform="translate(97.114801 275.4775)scale(0.16 -0.16)">
       <defs>
        <path id="DejaVuSans-2212" d="M 678 2272 
L 4684 2272 
L 4684 1741 
L 678 1741 
L 678 2272 
z
" transform="scale(0.015625)"/>
        <path id="DejaVuSans-30" d="M 2034 4250 
Q 1547 4250 1301 3770 
Q 1056 3291 1056 2328 
Q 1056 1369 1301 889 
Q 1547 409 2034 409 
Q 2525 409 2770 889 
Q 3016 1369 3016 2328 
Q 3016 3291 2770 3770 
Q 2525 4250 2034 4250 
z
M 2034 4750 
Q 2819 4750 3233 4129 
Q 3647 3509 3647 2328 
Q 3647 1150 3233 529 
Q 2819 -91 2034 -91 
Q 1250 -91 836 529 
Q 422 1150 422 2328 
Q 422 3509 836 4129 
Q 1250 4750 2034 4750 
z
" transform="scale(0.015625)"/>
        <path id="DejaVuSans-2e" d="M 684 794 
L 1344 794 
L 1344 0 
L 684 0 
L 684 794 
z
" transform="scale(0.015625)"/>
        <path id="DejaVuSans-32" d="M 1228 531 
L 3431 531 
L 3431 0 
L 469 0 
L 469 531 
Q 828 903 1448 1529 
Q 2069 2156 2228 2338 
Q 2531 2678 2651 2914 
Q 2772 3150 2772 3378 
Q 2772 3750 2511 3984 
Q 2250 4219 1831 4219 
Q 1534 4219 1204 4116 
Q 875 4013 500 3803 
L 500 4441 
Q 881 4594 1212 4672 
Q 1544 4750 1819 4750 
Q 2544 4750 2975 4387 
Q 3406 4025 3406 3419 
Q 3406 3131 3298 2873 
Q 3191 2616 2906 2266 
Q 2828 2175 2409 1742 
Q 1991 1309 1228 531 
z
" transform="scale(0.015625)"/>
       </defs>
       <use xlink:href="#DejaVuSans-2212"/>
       <use xlink:href="#DejaVuSans-30" x="83.789062"/>
       <use xlink:href="#DejaVuSans-2e" x="147.412109"/>
       <use xlink:href="#DejaVuSans-32" x="179.199219"/>
      </g>
     </g>
    </g>
    <g id="xtick_2">
     <g id="line2d_2">
      <g>
       <use xlink:href="#ma2c4bf5de2" x="187.559233" y="256.32" style="stroke: #000000; stroke-width: 0.8"/>
      </g>
     </g>
     <g id="text_2">
      <!-- 0.0 -->
      <g transform="translate(174.836733 275.4775)scale(0.16 -0.16)">
       <use xlink:href="#DejaVuSans-30"/>
       <use xlink:href="#DejaVuSans-2e" x="63.623047"/>
       <use xlink:href="#DejaVuSans-30" x="95.410156"/>
      </g>
     </g>
    </g>
    <g id="xtick_3">
     <g id="line2d_3">
      <g>
       <use xlink:href="#ma2c4bf5de2" x="258.577415" y="256.32" style="stroke: #000000; stroke-width: 0.8"/>
      </g>
     </g>
     <g id="text_3">
      <!-- 0.2 -->
      <g transform="translate(245.854915 275.4775)scale(0.16 -0.16)">
       <use xlink:href="#DejaVuSans-30"/>
       <use xlink:href="#DejaVuSans-2e" x="63.623047"/>
       <use xlink:href="#DejaVuSans-32" x="95.410156"/>
      </g>
     </g>
    </g>
    <g id="xtick_4">
     <g id="line2d_4">
      <g>
       <use xlink:href="#ma2c4bf5de2" x="329.595597" y="256.32" style="stroke: #000000; stroke-width: 0.8"/>
      </g>
     </g>
     <g id="text_4">
      <!-- 0.4 -->
      <g transform="translate(316.873097 275.4775)scale(0.16 -0.16)">
       <defs>
        <path id="DejaVuSans-34" d="M 2419 4116 
L 825 1625 
L 2419 1625 
L 2419 4116 
z
M 2253 4666 
L 3047 4666 
L 3047 1625 
L 3713 1625 
L 3713 1100 
L 3047 1100 
L 3047 0 
L 2419 0 
L 2419 1100 
L 313 1100 
L 313 1709 
L 2253 4666 
z
" transform="scale(0.015625)"/>
       </defs>
       <use xlink:href="#DejaVuSans-30"/>
       <use xlink:href="#DejaVuSans-2e" x="63.623047"/>
       <use xlink:href="#DejaVuSans-34" x="95.410156"/>
      </g>
     </g>
    </g>
    <g id="xtick_5">
     <g id="line2d_5">
      <g>
       <use xlink:href="#ma2c4bf5de2" x="400.613778" y="256.32" style="stroke: #000000; stroke-width: 0.8"/>
      </g>
     </g>
     <g id="text_5">
      <!-- 0.6 -->
      <g transform="translate(387.891278 275.4775)scale(0.16 -0.16)">
       <defs>
        <path id="DejaVuSans-36" d="M 2113 2584 
Q 1688 2584 1439 2293 
Q 1191 2003 1191 1497 
Q 1191 994 1439 701 
Q 1688 409 2113 409 
Q 2538 409 2786 701 
Q 3034 994 3034 1497 
Q 3034 2003 2786 2293 
Q 2538 2584 2113 2584 
z
M 3366 4563 
L 3366 3988 
Q 3128 4100 2886 4159 
Q 2644 4219 2406 4219 
Q 1781 4219 1451 3797 
Q 1122 3375 1075 2522 
Q 1259 2794 1537 2939 
Q 1816 3084 2150 3084 
Q 2853 3084 3261 2657 
Q 3669 2231 3669 1497 
Q 3669 778 3244 343 
Q 2819 -91 2113 -91 
Q 1303 -91 875 529 
Q 447 1150 447 2328 
Q 447 3434 972 4092 
Q 1497 4750 2381 4750 
Q 2619 4750 2861 4703 
Q 3103 4656 3366 4563 
z
" transform="scale(0.015625)"/>
       </defs>
       <use xlink:href="#DejaVuSans-30"/>
       <use xlink:href="#DejaVuSans-2e" x="63.623047"/>
       <use xlink:href="#DejaVuSans-36" x="95.410156"/>
      </g>
     </g>
    </g>
    <g id="text_6">
     <!-- Time from event (s) -->
     <g transform="translate(169.41375 296.482188)scale(0.18 -0.18)">
      <defs>
       <path id="DejaVuSans-54" d="M -19 4666 
L 3928 4666 
L 3928 4134 
L 2272 4134 
L 2272 0 
L 1638 0 
L 1638 4134 
L -19 4134 
L -19 4666 
z
" transform="scale(0.015625)"/>
       <path id="DejaVuSans-69" d="M 603 3500 
L 1178 3500 
L 1178 0 
L 603 0 
L 603 3500 
z
M 603 4863 
L 1178 4863 
L 1178 4134 
L 603 4134 
L 603 4863 
z
" transform="scale(0.015625)"/>
       <path id="DejaVuSans-6d" d="M 3328 2828 
Q 3544 3216 3844 3400 
Q 4144 3584 4550 3584 
Q 5097 3584 5394 3201 
Q 5691 2819 5691 2113 
L 5691 0 
L 5113 0 
L 5113 2094 
Q 5113 2597 4934 2840 
Q 4756 3084 4391 3084 
Q 3944 3084 3684 2787 
Q 3425 2491 3425 1978 
L 3425 0 
L 2847 0 
L 2847 2094 
Q 2847 2600 2669 2842 
Q 2491 3084 2119 3084 
Q 1678 3084 1418 2786 
Q 1159 2488 1159 1978 
L 1159 0 
L 581 0 
L 581 3500 
L 1159 3500 
L 1159 2956 
Q 1356 3278 1631 3431 
Q 1906 3584 2284 3584 
Q 2666 3584 2933 3390 
Q 3200 3197 3328 2828 
z
" transform="scale(0.015625)"/>
       <path id="DejaVuSans-65" d="M 3597 1894 
L 3597 1613 
L 953 1613 
Q 991 1019 1311 708 
Q 1631 397 2203 397 
Q 2534 397 2845 478 
Q 3156 559 3463 722 
L 3463 178 
Q 3153 47 2828 -22 
Q 2503 -91 2169 -91 
Q 1331 -91 842 396 
Q 353 884 353 1716 
Q 353 2575 817 3079 
Q 1281 3584 2069 3584 
Q 2775 3584 3186 3129 
Q 3597 2675 3597 1894 
z
M 3022 2063 
Q 3016 2534 2758 2815 
Q 2500 3097 2075 3097 
Q 1594 3097 1305 2825 
Q 1016 2553 972 2059 
L 3022 2063 
z
" transform="scale(0.015625)"/>
       <path id="DejaVuSans-20" transform="scale(0.015625)"/>
       <path id="DejaVuSans-66" d="M 2375 4863 
L 2375 4384 
L 1825 4384 
Q 1516 4384 1395 4259 
Q 1275 4134 1275 3809 
L 1275 3500 
L 2222 3500 
L 2222 3053 
L 1275 3053 
L 1275 0 
L 697 0 
L 697 3053 
L 147 3053 
L 147 3500 
L 697 3500 
L 697 3744 
Q 697 4328 969 4595 
Q 1241 4863 1831 4863 
L 2375 4863 
z
" transform="scale(0.015625)"/>
       <path id="DejaVuSans-72" d="M 2631 2963 
Q 2534 3019 2420 3045 
Q 2306 3072 2169 3072 
Q 1681 3072 1420 2755 
Q 1159 2438 1159 1844 
L 1159 0 
L 581 0 
L 581 3500 
L 1159 3500 
L 1159 2956 
Q 1341 3275 1631 3429 
Q 1922 3584 2338 3584 
Q 2397 3584 2469 3576 
Q 2541 3569 2628 3553 
L 2631 2963 
z
" transform="scale(0.015625)"/>
       <path id="DejaVuSans-6f" d="M 1959 3097 
Q 1497 3097 1228 2736 
Q 959 2375 959 1747 
Q 959 1119 1226 758 
Q 1494 397 1959 397 
Q 2419 397 2687 759 
Q 2956 1122 2956 1747 
Q 2956 2369 2687 2733 
Q 2419 3097 1959 3097 
z
M 1959 3584 
Q 2709 3584 3137 3096 
Q 3566 2609 3566 1747 
Q 3566 888 3137 398 
Q 2709 -91 1959 -91 
Q 1206 -91 779 398 
Q 353 888 353 1747 
Q 353 2609 779 3096 
Q 1206 3584 1959 3584 
z
" transform="scale(0.015625)"/>
       <path id="DejaVuSans-76" d="M 191 3500 
L 800 3500 
L 1894 563 
L 2988 3500 
L 3597 3500 
L 2284 0 
L 1503 0 
L 191 3500 
z
" transform="scale(0.015625)"/>
       <path id="DejaVuSans-6e" d="M 3513 2113 
L 3513 0 
L 2938 0 
L 2938 2094 
Q 2938 2591 2744 2837 
Q 2550 3084 2163 3084 
Q 1697 3084 1428 2787 
Q 1159 2491 1159 1978 
L 1159 0 
L 581 0 
L 581 3500 
L 1159 3500 
L 1159 2956 
Q 1366 3272 1645 3428 
Q 1925 3584 2291 3584 
Q 2894 3584 3203 3211 
Q 3513 2838 3513 2113 
z
" transform="scale(0.015625)"/>
       <path id="DejaVuSans-74" d="M 1172 4494 
L 1172 3500 
L 2356 3500 
L 2356 3053 
L 1172 3053 
L 1172 1153 
Q 1172 725 1289 603 
Q 1406 481 1766 481 
L 2356 481 
L 2356 0 
L 1766 0 
Q 1100 0 847 248 
Q 594 497 594 1153 
L 594 3053 
L 172 3053 
L 172 3500 
L 594 3500 
L 594 4494 
L 1172 4494 
z
" transform="scale(0.015625)"/>
       <path id="DejaVuSans-28" d="M 1984 4856 
Q 1566 4138 1362 3434 
Q 1159 2731 1159 2009 
Q 1159 1288 1364 580 
Q 1569 -128 1984 -844 
L 1484 -844 
Q 1016 -109 783 600 
Q 550 1309 550 2009 
Q 550 2706 781 3412 
Q 1013 4119 1484 4856 
L 1984 4856 
z
" transform="scale(0.015625)"/>
       <path id="DejaVuSans-73" d="M 2834 3397 
L 2834 2853 
Q 2591 2978 2328 3040 
Q 2066 3103 1784 3103 
Q 1356 3103 1142 2972 
Q 928 2841 928 2578 
Q 928 2378 1081 2264 
Q 1234 2150 1697 2047 
L 1894 2003 
Q 2506 1872 2764 1633 
Q 3022 1394 3022 966 
Q 3022 478 2636 193 
Q 2250 -91 1575 -91 
Q 1294 -91 989 -36 
Q 684 19 347 128 
L 347 722 
Q 666 556 975 473 
Q 1284 391 1588 391 
Q 1994 391 2212 530 
Q 2431 669 2431 922 
Q 2431 1156 2273 1281 
Q 2116 1406 1581 1522 
L 1381 1569 
Q 847 1681 609 1914 
Q 372 2147 372 2553 
Q 372 3047 722 3315 
Q 1072 3584 1716 3584 
Q 2034 3584 2315 3537 
Q 2597 3491 2834 3397 
z
" transform="scale(0.015625)"/>
       <path id="DejaVuSans-29" d="M 513 4856 
L 1013 4856 
Q 1481 4119 1714 3412 
Q 1947 2706 1947 2009 
Q 1947 1309 1714 600 
Q 1481 -109 1013 -844 
L 513 -844 
Q 928 -128 1133 580 
Q 1338 1288 1338 2009 
Q 1338 2731 1133 3434 
Q 928 4138 513 4856 
z
" transform="scale(0.015625)"/>
      </defs>
      <use xlink:href="#DejaVuSans-54"/>
      <use xlink:href="#DejaVuSans-69" x="57.958984"/>
      <use xlink:href="#DejaVuSans-6d" x="85.742188"/>
      <use xlink:href="#DejaVuSans-65" x="183.154297"/>
      <use xlink:href="#DejaVuSans-20" x="244.677734"/>
      <use xlink:href="#DejaVuSans-66" x="276.464844"/>
      <use xlink:href="#DejaVuSans-72" x="311.669922"/>
      <use xlink:href="#DejaVuSans-6f" x="350.533203"/>
      <use xlink:href="#DejaVuSans-6d" x="411.714844"/>
      <use xlink:href="#DejaVuSans-20" x="509.126953"/>
      <use xlink:href="#DejaVuSans-65" x="540.914062"/>
      <use xlink:href="#DejaVuSans-76" x="602.4375"/>
      <use xlink:href="#DejaVuSans-65" x="661.617188"/>
      <use xlink:href="#DejaVuSans-6e" x="723.140625"/>
      <use xlink:href="#DejaVuSans-74" x="786.519531"/>
      <use xlink:href="#DejaVuSans-20" x="825.728516"/>
      <use xlink:href="#DejaVuSans-28" x="857.515625"/>
      <use xlink:href="#DejaVuSans-73" x="896.529297"/>
      <use xlink:href="#DejaVuSans-29" x="948.628906"/>
     </g>
    </g>
   </g>
   <g id="matplotlib.axis_2">
    <g id="ytick_1">
     <g id="line2d_6">
      <defs>
       <path id="mc6e900e45e" d="M 0 0 
L -3.5 0 
" style="stroke: #000000; stroke-width: 0.8"/>
      </defs>
      <g>
       <use xlink:href="#mc6e900e45e" x="63" y="250.474759" style="stroke: #000000; stroke-width: 0.8"/>
      </g>
     </g>
     <g id="text_7">
      <!-- −10 -->
      <g transform="translate(22.2325 256.553509)scale(0.16 -0.16)">
       <defs>
        <path id="DejaVuSans-31" d="M 794 531 
L 1825 531 
L 1825 4091 
L 703 3866 
L 703 4441 
L 1819 4666 
L 2450 4666 
L 2450 531 
L 3481 531 
L 3481 0 
L 794 0 
L 794 531 
z
" transform="scale(0.015625)"/>
       </defs>
       <use xlink:href="#DejaVuSans-2212"/>
       <use xlink:href="#DejaVuSans-31" x="83.789062"/>
       <use xlink:href="#DejaVuSans-30" x="147.412109"/>
      </g>
     </g>
    </g>
    <g id="ytick_2">
     <g id="line2d_7">
      <g>
       <use xlink:href="#mc6e900e45e" x="63" y="188.920864" style="stroke: #000000; stroke-width: 0.8"/>
      </g>
     </g>
     <g id="text_8">
      <!-- −5 -->
      <g transform="translate(32.4125 194.999614)scale(0.16 -0.16)">
       <defs>
        <path id="DejaVuSans-35" d="M 691 4666 
L 3169 4666 
L 3169 4134 
L 1269 4134 
L 1269 2991 
Q 1406 3038 1543 3061 
Q 1681 3084 1819 3084 
Q 2600 3084 3056 2656 
Q 3513 2228 3513 1497 
Q 3513 744 3044 326 
Q 2575 -91 1722 -91 
Q 1428 -91 1123 -41 
Q 819 9 494 109 
L 494 744 
Q 775 591 1075 516 
Q 1375 441 1709 441 
Q 2250 441 2565 725 
Q 2881 1009 2881 1497 
Q 2881 1984 2565 2268 
Q 2250 2553 1709 2553 
Q 1456 2553 1204 2497 
Q 953 2441 691 2322 
L 691 4666 
z
" transform="scale(0.015625)"/>
       </defs>
       <use xlink:href="#DejaVuSans-2212"/>
       <use xlink:href="#DejaVuSans-35" x="83.789062"/>
      </g>
     </g>
    </g>
    <g id="ytick_3">
     <g id="line2d_8">
      <g>
       <use xlink:href="#mc6e900e45e" x="63" y="127.366969" style="stroke: #000000; stroke-width: 0.8"/>
      </g>
     </g>
     <g id="text_9">
      <!-- 0 -->
      <g transform="translate(45.82 133.445719)scale(0.16 -0.16)">
       <use xlink:href="#DejaVuSans-30"/>
      </g>
     </g>
    </g>
    <g id="ytick_4">
     <g id="line2d_9">
      <g>
       <use xlink:href="#mc6e900e45e" x="63" y="65.813073" style="stroke: #000000; stroke-width: 0.8"/>
      </g>
     </g>
     <g id="text_10">
      <!-- 5 -->
      <g transform="translate(45.82 71.891823)scale(0.16 -0.16)">
       <use xlink:href="#DejaVuSans-35"/>
      </g>
     </g>
    </g>
    <g id="text_11">
     <!-- Amplitude (uV) -->
     <g transform="translate(14.489062 213.304219)rotate(-90)scale(0.18 -0.18)">
      <defs>
       <path id="DejaVuSans-41" d="M 2188 4044 
L 1331 1722 
L 3047 1722 
L 2188 4044 
z
M 1831 4666 
L 2547 4666 
L 4325 0 
L 3669 0 
L 3244 1197 
L 1141 1197 
L 716 0 
L 50 0 
L 1831 4666 
z
" transform="scale(0.015625)"/>
       <path id="DejaVuSans-70" d="M 1159 525 
L 1159 -1331 
L 581 -1331 
L 581 3500 
L 1159 3500 
L 1159 2969 
Q 1341 3281 1617 3432 
Q 1894 3584 2278 3584 
Q 2916 3584 3314 3078 
Q 3713 2572 3713 1747 
Q 3713 922 3314 415 
Q 2916 -91 2278 -91 
Q 1894 -91 1617 61 
Q 1341 213 1159 525 
z
M 3116 1747 
Q 3116 2381 2855 2742 
Q 2594 3103 2138 3103 
Q 1681 3103 1420 2742 
Q 1159 2381 1159 1747 
Q 1159 1113 1420 752 
Q 1681 391 2138 391 
Q 2594 391 2855 752 
Q 3116 1113 3116 1747 
z
" transform="scale(0.015625)"/>
       <path id="DejaVuSans-6c" d="M 603 4863 
L 1178 4863 
L 1178 0 
L 603 0 
L 603 4863 
z
" transform="scale(0.015625)"/>
       <path id="DejaVuSans-75" d="M 544 1381 
L 544 3500 
L 1119 3500 
L 1119 1403 
Q 1119 906 1312 657 
Q 1506 409 1894 409 
Q 2359 409 2629 706 
Q 2900 1003 2900 1516 
L 2900 3500 
L 3475 3500 
L 3475 0 
L 2900 0 
L 2900 538 
Q 2691 219 2414 64 
Q 2138 -91 1772 -91 
Q 1169 -91 856 284 
Q 544 659 544 1381 
z
M 1991 3584 
L 1991 3584 
z
" transform="scale(0.015625)"/>
       <path id="DejaVuSans-64" d="M 2906 2969 
L 2906 4863 
L 3481 4863 
L 3481 0 
L 2906 0 
L 2906 525 
Q 2725 213 2448 61 
Q 2172 -91 1784 -91 
Q 1150 -91 751 415 
Q 353 922 353 1747 
Q 353 2572 751 3078 
Q 1150 3584 1784 3584 
Q 2172 3584 2448 3432 
Q 2725 3281 2906 2969 
z
M 947 1747 
Q 947 1113 1208 752 
Q 1469 391 1925 391 
Q 2381 391 2643 752 
Q 2906 1113 2906 1747 
Q 2906 2381 2643 2742 
Q 2381 3103 1925 3103 
Q 1469 3103 1208 2742 
Q 947 2381 947 1747 
z
" transform="scale(0.015625)"/>
       <path id="DejaVuSans-56" d="M 1831 0 
L 50 4666 
L 709 4666 
L 2188 738 
L 3669 4666 
L 4325 4666 
L 2547 0 
L 1831 0 
z
" transform="scale(0.015625)"/>
      </defs>
      <use xlink:href="#DejaVuSans-41"/>
      <use xlink:href="#DejaVuSans-6d" x="68.408203"/>
      <use xlink:href="#DejaVuSans-70" x="165.820312"/>
      <use xlink:href="#DejaVuSans-6c" x="229.296875"/>
      <use xlink:href="#DejaVuSans-69" x="257.080078"/>
      <use xlink:href="#DejaVuSans-74" x="284.863281"/>
      <use xlink:href="#DejaVuSans-75" x="324.072266"/>
      <use xlink:href="#DejaVuSans-64" x="387.451172"/>
      <use xlink:href="#DejaVuSans-65" x="450.927734"/>
      <use xlink:href="#DejaVuSans-20" x="512.451172"/>
      <use xlink:href="#DejaVuSans-28" x="544.238281"/>
      <use xlink:href="#DejaVuSans-75" x="583.251953"/>
      <use xlink:href="#DejaVuSans-56" x="646.630859"/>
      <use xlink:href="#DejaVuSans-29" x="715.039062"/>
     </g>
    </g>
   </g>
   <g id="line2d_10">
    <path d="M 63 127.366969 
L 453.6 127.366969 
" clip-path="url(#pe74df29037)" style="fill: none; stroke: #000000; stroke-width: 0.5; stroke-linecap: square"/>
   </g>
   <g id="line2d_11">
    <path d="M 187.559233 256.32 
L 187.559233 34.56 
" clip-path="url(#pe74df29037)" style="fill: none; stroke-dasharray: 1.85,0.8; stroke-dashoffset: 0; stroke: #000000; stroke-width: 0.5"/>
   </g>
   <g id="line2d_12">
    <path d="M 80.754545 135.256585 
L 82.141619 139.442445 
L 83.528693 140.224224 
L 84.915767 136.488021 
L 86.302841 130.929362 
L 87.689915 127.496895 
L 89.076989 127.689167 
L 90.464062 129.183192 
L 91.851136 128.119369 
L 93.23821 122.913942 
L 94.625284 115.994997 
L 96.012358 111.79126 
L 97.399432 112.824009 
L 98.786506 117.522029 
L 100.17358 121.741334 
L 101.560653 122.516358 
L 102.947727 120.566915 
L 104.334801 119.347714 
L 105.721875 121.654715 
L 107.108949 126.938918 
L 108.496023 131.652673 
L 109.883097 132.135257 
L 111.27017 127.425889 
L 112.657244 119.762981 
L 114.044318 112.738221 
L 115.431392 108.926766 
L 116.818466 108.785452 
L 118.20554 111.133369 
L 119.592614 114.247852 
L 120.979687 116.60161 
L 122.366761 117.123708 
L 123.753835 115.416698 
L 126.527983 108.563791 
L 127.915057 106.589892 
L 129.302131 106.824105 
L 130.689205 108.464733 
L 132.076278 109.927759 
L 133.463352 110.249726 
L 134.850426 109.924776 
L 136.2375 110.363014 
L 137.624574 112.439475 
L 139.011648 115.47821 
L 140.398722 117.621341 
L 141.785795 117.256033 
L 143.172869 114.249889 
L 144.559943 110.014113 
L 145.947017 106.51242 
L 147.334091 105.14859 
L 148.721165 106.299796 
L 150.108239 109.48333 
L 151.495312 113.668435 
L 152.882386 117.491932 
L 154.26946 119.615163 
L 155.656534 119.42429 
L 157.043608 117.675622 
L 158.430682 116.29584 
L 159.817756 117.068471 
L 162.591903 123.314302 
L 163.978977 124.193247 
L 165.366051 121.745502 
L 166.753125 117.685347 
L 168.140199 115.107533 
L 169.527273 115.817267 
L 170.914347 118.651935 
L 172.30142 120.426017 
L 173.688494 118.778329 
L 176.462642 110.309678 
L 177.849716 109.306222 
L 179.23679 110.97944 
L 180.623864 112.029786 
L 182.010937 109.201789 
L 184.785085 95.827119 
L 186.172159 94.038711 
L 187.559233 99.211967 
L 188.946307 108.806785 
L 190.333381 117.501009 
L 191.720455 121.062374 
L 193.107528 119.149273 
L 194.494602 114.974909 
L 195.881676 112.437298 
L 197.26875 113.258952 
L 200.042898 119.470489 
L 201.429972 121.415128 
L 202.817045 122.635705 
L 205.591193 125.425945 
L 206.978267 125.112556 
L 208.365341 121.599363 
L 211.139489 109.619753 
L 212.526563 107.632956 
L 213.913636 110.684602 
L 215.30071 116.387041 
L 216.687784 120.341651 
L 218.074858 119.575342 
L 219.461932 115.077852 
L 220.849006 111.205594 
L 222.23608 112.228355 
L 223.623153 118.748129 
L 225.010227 126.968819 
L 226.397301 131.504954 
L 227.784375 129.472789 
L 230.558523 115.392456 
L 231.945597 112.018835 
L 233.33267 113.051395 
L 234.719744 116.065912 
L 236.106818 118.206431 
L 237.493892 118.592094 
L 238.880966 118.595056 
L 240.26804 120.254247 
L 241.655114 124.616519 
L 243.042188 131.344443 
L 245.816335 147.033958 
L 247.203409 152.549674 
L 248.590483 153.588534 
L 249.977557 148.905996 
L 252.751705 131.852481 
L 254.138778 129.471267 
L 255.525852 134.876944 
L 256.912926 144.59919 
L 258.3 151.960546 
L 259.687074 152.228554 
L 262.461222 141.157769 
L 263.848295 142.372286 
L 265.235369 151.493537 
L 266.622443 163.886519 
L 268.009517 172.780711 
L 269.396591 174.420005 
L 270.783665 170.406487 
L 272.170739 165.835861 
L 273.557813 165.286946 
L 274.944886 169.899716 
L 276.33196 177.218554 
L 277.719034 183.189807 
L 279.106108 184.67716 
L 280.493182 181.227787 
L 281.880256 175.443301 
L 283.26733 171.614156 
L 284.654403 172.866035 
L 286.041477 178.356343 
L 287.428551 182.965385 
L 288.815625 180.740085 
L 290.202699 170.132652 
L 291.589773 156.587917 
L 292.976847 149.344548 
L 294.36392 154.206805 
L 297.138068 181.789828 
L 298.525142 185.952722 
L 299.912216 180.323231 
L 301.29929 172.842549 
L 302.686364 172.51533 
L 304.073438 181.3424 
L 305.460511 192.837207 
L 306.847585 198.202711 
L 308.234659 194.103813 
L 309.621733 184.813388 
L 311.008807 177.271022 
L 312.395881 174.41156 
L 313.782955 173.308323 
L 315.170028 169.393546 
L 317.944176 154.736301 
L 319.33125 152.389211 
L 320.718324 155.031685 
L 322.105398 158.296779 
L 323.492472 157.571917 
L 324.879545 152.370185 
L 326.266619 146.429403 
L 327.653693 143.80331 
L 329.040767 145.207524 
L 330.427841 148.210031 
L 331.814915 150.52354 
L 333.201989 152.432549 
L 334.589063 155.62747 
L 335.976136 159.90886 
L 337.36321 161.76067 
L 338.750284 156.920217 
L 340.137358 144.754588 
L 341.524432 130.034597 
L 342.911506 119.955982 
L 344.29858 118.783108 
L 345.685653 124.796724 
L 347.072727 132.091117 
L 348.459801 135.35582 
L 349.846875 133.351275 
L 352.621023 123.519328 
L 355.39517 115.163012 
L 356.782244 110.403566 
L 358.169318 106.114528 
L 359.556392 103.768976 
L 362.33054 103.044191 
L 363.717614 100.851792 
L 365.104688 97.058975 
L 366.491761 94.353404 
L 367.878835 95.499698 
L 369.265909 100.539967 
L 370.652983 106.289429 
L 372.040057 108.789417 
L 373.427131 106.567587 
L 374.814205 101.750268 
L 376.201278 98.058616 
L 377.588352 97.586945 
L 378.975426 99.288527 
L 380.3625 100.37759 
L 381.749574 99.114035 
L 383.136648 96.281063 
L 384.523722 94.090591 
L 385.910795 93.771614 
L 387.297869 94.275748 
L 388.684943 93.332621 
L 390.072017 89.768058 
L 391.459091 84.810339 
L 392.846165 81.125917 
L 394.233239 80.49992 
L 397.007386 84.313517 
L 398.39446 84.640893 
L 399.781534 83.691651 
L 401.168608 83.683233 
L 402.555682 86.660425 
L 403.942756 92.68587 
L 405.32983 99.86943 
L 406.716903 106.150637 
L 409.491051 116.127032 
L 410.878125 122.56605 
L 412.265199 130.005789 
L 413.652273 136.145573 
L 415.039347 138.898395 
L 416.42642 138.774925 
L 417.813494 139.144292 
L 419.200568 143.67968 
L 420.587642 152.959071 
L 421.974716 163.310993 
L 423.36179 169.291069 
L 424.748864 167.951242 
L 427.523011 154.317719 
L 428.910085 151.196593 
L 431.684233 151.922299 
L 433.071307 149.285281 
L 434.458381 144.837988 
L 435.845455 142.946212 
L 435.845455 142.946212 
" clip-path="url(#pe74df29037)" style="fill: none; stroke: #1f77b4; stroke-width: 1.5; stroke-linecap: square"/>
   </g>
   <g id="line2d_13">
    <path d="M 80.754545 94.649343 
L 82.141619 86.047686 
L 83.528693 80.988335 
L 84.915767 78.551536 
L 86.302841 78.178348 
L 87.689915 80.220719 
L 89.076989 84.99029 
L 91.851136 97.948516 
L 93.23821 102.455062 
L 94.625284 105.143046 
L 96.012358 107.527659 
L 97.399432 110.942785 
L 98.786506 115.137918 
L 100.17358 118.525506 
L 101.560653 119.781047 
L 102.947727 119.12218 
L 104.334801 117.970124 
L 105.721875 117.406959 
L 107.108949 117.089257 
L 108.496023 115.778075 
L 109.883097 112.939158 
L 111.27017 109.723181 
L 112.657244 108.21346 
L 114.044318 109.528546 
L 115.431392 112.501254 
L 116.818466 114.163982 
L 118.20554 111.70303 
L 119.592614 104.391986 
L 120.979687 94.197776 
L 122.366761 84.861835 
L 123.753835 80.187239 
L 125.140909 82.40129 
L 126.527983 91.130093 
L 127.915057 103.306015 
L 129.302131 114.268445 
L 130.689205 119.942587 
L 132.076278 119.141287 
L 133.463352 114.426116 
L 134.850426 110.531992 
L 136.2375 111.109155 
L 137.624574 116.122236 
L 139.011648 122.058567 
L 140.398722 124.933318 
L 141.785795 123.654321 
L 143.172869 120.858227 
L 144.559943 120.460744 
L 145.947017 124.087426 
L 147.334091 129.599412 
L 148.721165 133.054921 
L 150.108239 132.313222 
L 151.495312 128.985892 
L 152.882386 126.980811 
L 154.26946 129.031952 
L 157.043608 139.881267 
L 158.430682 142.745908 
L 159.817756 143.275295 
L 161.20483 144.18423 
L 162.591903 147.989181 
L 163.978977 154.821224 
L 165.366051 162.652814 
L 166.753125 169.407626 
L 168.140199 174.654711 
L 170.914347 183.426656 
L 172.30142 185.882674 
L 173.688494 184.609653 
L 175.075568 179.207809 
L 176.462642 171.993916 
L 177.849716 166.659707 
L 179.23679 165.498925 
L 180.623864 167.720639 
L 182.010937 170.415034 
L 183.398011 171.247369 
L 184.785085 170.348174 
L 186.172159 169.703336 
L 187.559233 170.789928 
L 188.946307 172.855062 
L 190.333381 173.507983 
L 191.720455 170.962452 
L 193.107528 165.664572 
L 194.494602 159.735673 
L 195.881676 154.898332 
L 198.655824 146.880968 
L 201.429972 136.808155 
L 202.817045 133.613861 
L 204.204119 132.291954 
L 205.591193 130.616414 
L 206.978267 125.792354 
L 208.365341 117.314123 
L 209.752415 108.099476 
L 211.139489 102.432104 
L 212.526563 102.248211 
L 213.913636 105.100744 
L 215.30071 105.88308 
L 216.687784 101.095685 
L 218.074858 92.075618 
L 219.461932 84.360438 
L 220.849006 83.577821 
L 222.23608 91.102196 
L 223.623153 102.802584 
L 225.010227 111.652405 
L 226.397301 112.099802 
L 227.784375 103.170671 
L 230.558523 74.576721 
L 231.945597 66.349872 
L 233.33267 66.060583 
L 234.719744 71.962263 
L 236.106818 79.617119 
L 237.493892 84.380342 
L 238.880966 83.963867 
L 240.26804 79.561456 
L 241.655114 74.723081 
L 243.042188 72.735353 
L 244.429261 74.49583 
L 248.590483 86.162361 
L 251.364631 92.593761 
L 252.751705 94.64553 
L 254.138778 94.008698 
L 256.912926 87.205631 
L 258.3 86.975429 
L 259.687074 91.364888 
L 261.074148 98.098416 
L 262.461222 102.76033 
L 263.848295 102.154502 
L 265.235369 96.544995 
L 266.622443 88.936462 
L 268.009517 82.388828 
L 269.396591 78.005895 
L 270.783665 75.176067 
L 272.170739 73.228765 
L 273.557813 72.50399 
L 274.944886 73.908355 
L 276.33196 77.831193 
L 277.719034 83.732603 
L 280.493182 97.133534 
L 281.880256 102.007507 
L 283.26733 103.658669 
L 284.654403 101.681336 
L 286.041477 98.2399 
L 287.428551 97.684021 
L 288.815625 103.452977 
L 291.589773 124.771145 
L 292.976847 127.983844 
L 294.36392 123.066366 
L 295.750994 116.022679 
L 297.138068 115.031106 
L 298.525142 122.912221 
L 299.912216 133.965359 
L 301.29929 138.635204 
L 302.686364 132.110173 
L 304.073438 118.924045 
L 305.460511 109.137751 
L 306.847585 109.553138 
L 309.621733 126.016325 
L 311.008807 126.237667 
L 312.395881 118.670297 
L 313.782955 109.328695 
L 315.170028 104.222695 
L 316.557102 104.593062 
L 317.944176 107.432652 
L 319.33125 109.561003 
L 322.105398 111.280394 
L 323.492472 112.402945 
L 324.879545 112.663815 
L 326.266619 111.52693 
L 327.653693 110.945444 
L 329.040767 114.021914 
L 331.814915 128.447211 
L 333.201989 129.485738 
L 334.589063 121.90548 
L 335.976136 110.232905 
L 337.36321 103.225227 
L 338.750284 106.899893 
L 341.524432 131.766535 
L 342.911506 135.530233 
L 344.29858 128.527794 
L 345.685653 116.650334 
L 347.072727 109.090668 
L 348.459801 111.763664 
L 349.846875 123.778818 
L 351.233949 138.911089 
L 352.621023 150.16072 
L 354.008097 153.865371 
L 355.39517 151.011567 
L 356.782244 145.725312 
L 358.169318 142.502845 
L 359.556392 143.927318 
L 360.943466 149.895647 
L 365.104688 175.420922 
L 367.878835 189.874128 
L 369.265909 195.919639 
L 370.652983 199.552834 
L 372.040057 199.694993 
L 373.427131 196.869391 
L 374.814205 193.181878 
L 376.201278 190.881505 
L 377.588352 190.744559 
L 378.975426 191.721415 
L 380.3625 192.055635 
L 381.749574 190.694008 
L 383.136648 187.690844 
L 384.523722 183.526672 
L 385.910795 178.421617 
L 388.684943 166.640435 
L 390.072017 162.151042 
L 391.459091 159.931483 
L 392.846165 159.098909 
L 394.233239 157.342572 
L 395.620313 152.984817 
L 397.007386 146.969993 
L 398.39446 142.588807 
L 399.781534 142.744034 
L 401.168608 147.134104 
L 402.555682 152.169845 
L 403.942756 153.99752 
L 405.32983 151.915456 
L 406.716903 148.884619 
L 408.103977 148.554357 
L 409.491051 151.687371 
L 410.878125 155.561137 
L 412.265199 156.979786 
L 413.652273 155.797064 
L 415.039347 155.160092 
L 416.42642 157.939938 
L 417.813494 162.88336 
L 419.200568 164.715708 
L 420.587642 158.754229 
L 423.36179 133.441416 
L 424.748864 129.227085 
L 426.135938 135.753008 
L 427.523011 147.736518 
L 428.910085 156.592082 
L 430.297159 157.552535 
L 431.684233 153.243012 
L 433.071307 150.668864 
L 434.458381 154.511023 
L 435.845455 162.830535 
L 435.845455 162.830535 
" clip-path="url(#pe74df29037)" style="fill: none; stroke: #ff7f0e; stroke-width: 1.5; stroke-linecap: square"/>
   </g>
   <g id="patch_3">
    <path d="M 63 256.32 
L 63 34.56 
" style="fill: none; stroke: #000000; stroke-width: 0.8; stroke-linejoin: miter; stroke-linecap: square"/>
   </g>
   <g id="patch_4">
    <path d="M 453.6 256.32 
L 453.6 34.56 
" style="fill: none; stroke: #000000; stroke-width: 0.8; stroke-linejoin: miter; stroke-linecap: square"/>
   </g>
   <g id="patch_5">
    <path d="M 63 256.32 
L 453.6 256.32 
" style="fill: none; stroke: #000000; stroke-width: 0.8; stroke-linejoin: miter; stroke-linecap: square"/>
   </g>
   <g id="patch_6">
    <path d="M 63 34.56 
L 453.6 34.56 
" style="fill: none; stroke: #000000; stroke-width: 0.8; stroke-linejoin: miter; stroke-linecap: square"/>
   </g>
   <g id="text_12">
    <!-- ERP - Vibro trial 1, participant 04  -->
    <g transform="translate(67.775 28.56)scale(0.2 -0.2)">
     <defs>
      <path id="DejaVuSans-Bold-45" d="M 588 4666 
L 3834 4666 
L 3834 3756 
L 1791 3756 
L 1791 2888 
L 3713 2888 
L 3713 1978 
L 1791 1978 
L 1791 909 
L 3903 909 
L 3903 0 
L 588 0 
L 588 4666 
z
" transform="scale(0.015625)"/>
      <path id="DejaVuSans-Bold-52" d="M 2297 2597 
Q 2675 2597 2839 2737 
Q 3003 2878 3003 3200 
Q 3003 3519 2839 3656 
Q 2675 3794 2297 3794 
L 1791 3794 
L 1791 2597 
L 2297 2597 
z
M 1791 1766 
L 1791 0 
L 588 0 
L 588 4666 
L 2425 4666 
Q 3347 4666 3776 4356 
Q 4206 4047 4206 3378 
Q 4206 2916 3982 2619 
Q 3759 2322 3309 2181 
Q 3556 2125 3751 1926 
Q 3947 1728 4147 1325 
L 4800 0 
L 3519 0 
L 2950 1159 
Q 2778 1509 2601 1637 
Q 2425 1766 2131 1766 
L 1791 1766 
z
" transform="scale(0.015625)"/>
      <path id="DejaVuSans-Bold-50" d="M 588 4666 
L 2584 4666 
Q 3475 4666 3951 4270 
Q 4428 3875 4428 3144 
Q 4428 2409 3951 2014 
Q 3475 1619 2584 1619 
L 1791 1619 
L 1791 0 
L 588 0 
L 588 4666 
z
M 1791 3794 
L 1791 2491 
L 2456 2491 
Q 2806 2491 2997 2661 
Q 3188 2831 3188 3144 
Q 3188 3456 2997 3625 
Q 2806 3794 2456 3794 
L 1791 3794 
z
" transform="scale(0.015625)"/>
      <path id="DejaVuSans-Bold-20" transform="scale(0.015625)"/>
      <path id="DejaVuSans-Bold-2d" d="M 347 2297 
L 2309 2297 
L 2309 1388 
L 347 1388 
L 347 2297 
z
" transform="scale(0.015625)"/>
      <path id="DejaVuSans-Bold-56" d="M 31 4666 
L 1241 4666 
L 2478 1222 
L 3713 4666 
L 4922 4666 
L 3194 0 
L 1759 0 
L 31 4666 
z
" transform="scale(0.015625)"/>
      <path id="DejaVuSans-Bold-69" d="M 538 3500 
L 1656 3500 
L 1656 0 
L 538 0 
L 538 3500 
z
M 538 4863 
L 1656 4863 
L 1656 3950 
L 538 3950 
L 538 4863 
z
" transform="scale(0.015625)"/>
      <path id="DejaVuSans-Bold-62" d="M 2400 722 
Q 2759 722 2948 984 
Q 3138 1247 3138 1747 
Q 3138 2247 2948 2509 
Q 2759 2772 2400 2772 
Q 2041 2772 1848 2508 
Q 1656 2244 1656 1747 
Q 1656 1250 1848 986 
Q 2041 722 2400 722 
z
M 1656 2988 
Q 1888 3294 2169 3439 
Q 2450 3584 2816 3584 
Q 3463 3584 3878 3070 
Q 4294 2556 4294 1747 
Q 4294 938 3878 423 
Q 3463 -91 2816 -91 
Q 2450 -91 2169 54 
Q 1888 200 1656 506 
L 1656 0 
L 538 0 
L 538 4863 
L 1656 4863 
L 1656 2988 
z
" transform="scale(0.015625)"/>
      <path id="DejaVuSans-Bold-72" d="M 3138 2547 
Q 2991 2616 2845 2648 
Q 2700 2681 2553 2681 
Q 2122 2681 1889 2404 
Q 1656 2128 1656 1613 
L 1656 0 
L 538 0 
L 538 3500 
L 1656 3500 
L 1656 2925 
Q 1872 3269 2151 3426 
Q 2431 3584 2822 3584 
Q 2878 3584 2943 3579 
Q 3009 3575 3134 3559 
L 3138 2547 
z
" transform="scale(0.015625)"/>
      <path id="DejaVuSans-Bold-6f" d="M 2203 2784 
Q 1831 2784 1636 2517 
Q 1441 2250 1441 1747 
Q 1441 1244 1636 976 
Q 1831 709 2203 709 
Q 2569 709 2762 976 
Q 2956 1244 2956 1747 
Q 2956 2250 2762 2517 
Q 2569 2784 2203 2784 
z
M 2203 3584 
Q 3106 3584 3614 3096 
Q 4122 2609 4122 1747 
Q 4122 884 3614 396 
Q 3106 -91 2203 -91 
Q 1297 -91 786 396 
Q 275 884 275 1747 
Q 275 2609 786 3096 
Q 1297 3584 2203 3584 
z
" transform="scale(0.015625)"/>
      <path id="DejaVuSans-Bold-74" d="M 1759 4494 
L 1759 3500 
L 2913 3500 
L 2913 2700 
L 1759 2700 
L 1759 1216 
Q 1759 972 1856 886 
Q 1953 800 2241 800 
L 2816 800 
L 2816 0 
L 1856 0 
Q 1194 0 917 276 
Q 641 553 641 1216 
L 641 2700 
L 84 2700 
L 84 3500 
L 641 3500 
L 641 4494 
L 1759 4494 
z
" transform="scale(0.015625)"/>
      <path id="DejaVuSans-Bold-61" d="M 2106 1575 
Q 1756 1575 1579 1456 
Q 1403 1338 1403 1106 
Q 1403 894 1545 773 
Q 1688 653 1941 653 
Q 2256 653 2472 879 
Q 2688 1106 2688 1447 
L 2688 1575 
L 2106 1575 
z
M 3816 1997 
L 3816 0 
L 2688 0 
L 2688 519 
Q 2463 200 2181 54 
Q 1900 -91 1497 -91 
Q 953 -91 614 226 
Q 275 544 275 1050 
Q 275 1666 698 1953 
Q 1122 2241 2028 2241 
L 2688 2241 
L 2688 2328 
Q 2688 2594 2478 2717 
Q 2269 2841 1825 2841 
Q 1466 2841 1156 2769 
Q 847 2697 581 2553 
L 581 3406 
Q 941 3494 1303 3539 
Q 1666 3584 2028 3584 
Q 2975 3584 3395 3211 
Q 3816 2838 3816 1997 
z
" transform="scale(0.015625)"/>
      <path id="DejaVuSans-Bold-6c" d="M 538 4863 
L 1656 4863 
L 1656 0 
L 538 0 
L 538 4863 
z
" transform="scale(0.015625)"/>
      <path id="DejaVuSans-Bold-31" d="M 750 831 
L 1813 831 
L 1813 3847 
L 722 3622 
L 722 4441 
L 1806 4666 
L 2950 4666 
L 2950 831 
L 4013 831 
L 4013 0 
L 750 0 
L 750 831 
z
" transform="scale(0.015625)"/>
      <path id="DejaVuSans-Bold-2c" d="M 653 1209 
L 1778 1209 
L 1778 256 
L 1006 -909 
L 341 -909 
L 653 256 
L 653 1209 
z
" transform="scale(0.015625)"/>
      <path id="DejaVuSans-Bold-70" d="M 1656 506 
L 1656 -1331 
L 538 -1331 
L 538 3500 
L 1656 3500 
L 1656 2988 
Q 1888 3294 2169 3439 
Q 2450 3584 2816 3584 
Q 3463 3584 3878 3070 
Q 4294 2556 4294 1747 
Q 4294 938 3878 423 
Q 3463 -91 2816 -91 
Q 2450 -91 2169 54 
Q 1888 200 1656 506 
z
M 2400 2772 
Q 2041 2772 1848 2508 
Q 1656 2244 1656 1747 
Q 1656 1250 1848 986 
Q 2041 722 2400 722 
Q 2759 722 2948 984 
Q 3138 1247 3138 1747 
Q 3138 2247 2948 2509 
Q 2759 2772 2400 2772 
z
" transform="scale(0.015625)"/>
      <path id="DejaVuSans-Bold-63" d="M 3366 3391 
L 3366 2478 
Q 3138 2634 2908 2709 
Q 2678 2784 2431 2784 
Q 1963 2784 1702 2511 
Q 1441 2238 1441 1747 
Q 1441 1256 1702 982 
Q 1963 709 2431 709 
Q 2694 709 2930 787 
Q 3166 866 3366 1019 
L 3366 103 
Q 3103 6 2833 -42 
Q 2563 -91 2291 -91 
Q 1344 -91 809 395 
Q 275 881 275 1747 
Q 275 2613 809 3098 
Q 1344 3584 2291 3584 
Q 2566 3584 2833 3536 
Q 3100 3488 3366 3391 
z
" transform="scale(0.015625)"/>
      <path id="DejaVuSans-Bold-6e" d="M 4056 2131 
L 4056 0 
L 2931 0 
L 2931 347 
L 2931 1631 
Q 2931 2084 2911 2256 
Q 2891 2428 2841 2509 
Q 2775 2619 2662 2680 
Q 2550 2741 2406 2741 
Q 2056 2741 1856 2470 
Q 1656 2200 1656 1722 
L 1656 0 
L 538 0 
L 538 3500 
L 1656 3500 
L 1656 2988 
Q 1909 3294 2193 3439 
Q 2478 3584 2822 3584 
Q 3428 3584 3742 3212 
Q 4056 2841 4056 2131 
z
" transform="scale(0.015625)"/>
      <path id="DejaVuSans-Bold-30" d="M 2944 2338 
Q 2944 3213 2780 3570 
Q 2616 3928 2228 3928 
Q 1841 3928 1675 3570 
Q 1509 3213 1509 2338 
Q 1509 1453 1675 1090 
Q 1841 728 2228 728 
Q 2613 728 2778 1090 
Q 2944 1453 2944 2338 
z
M 4147 2328 
Q 4147 1169 3647 539 
Q 3147 -91 2228 -91 
Q 1306 -91 806 539 
Q 306 1169 306 2328 
Q 306 3491 806 4120 
Q 1306 4750 2228 4750 
Q 3147 4750 3647 4120 
Q 4147 3491 4147 2328 
z
" transform="scale(0.015625)"/>
      <path id="DejaVuSans-Bold-34" d="M 2356 3675 
L 1038 1722 
L 2356 1722 
L 2356 3675 
z
M 2156 4666 
L 3494 4666 
L 3494 1722 
L 4159 1722 
L 4159 850 
L 3494 850 
L 3494 0 
L 2356 0 
L 2356 850 
L 288 850 
L 288 1881 
L 2156 4666 
z
" transform="scale(0.015625)"/>
     </defs>
     <use xlink:href="#DejaVuSans-Bold-45"/>
     <use xlink:href="#DejaVuSans-Bold-52" x="68.310547"/>
     <use xlink:href="#DejaVuSans-Bold-50" x="145.3125"/>
     <use xlink:href="#DejaVuSans-Bold-20" x="218.603516"/>
     <use xlink:href="#DejaVuSans-Bold-2d" x="253.417969"/>
     <use xlink:href="#DejaVuSans-Bold-20" x="294.921875"/>
     <use xlink:href="#DejaVuSans-Bold-56" x="329.736328"/>
     <use xlink:href="#DejaVuSans-Bold-69" x="405.378906"/>
     <use xlink:href="#DejaVuSans-Bold-62" x="439.65625"/>
     <use xlink:href="#DejaVuSans-Bold-72" x="511.238281"/>
     <use xlink:href="#DejaVuSans-Bold-6f" x="560.554688"/>
     <use xlink:href="#DejaVuSans-Bold-20" x="629.255859"/>
     <use xlink:href="#DejaVuSans-Bold-74" x="664.070312"/>
     <use xlink:href="#DejaVuSans-Bold-72" x="711.873047"/>
     <use xlink:href="#DejaVuSans-Bold-69" x="761.189453"/>
     <use xlink:href="#DejaVuSans-Bold-61" x="795.466797"/>
     <use xlink:href="#DejaVuSans-Bold-6c" x="862.947266"/>
     <use xlink:href="#DejaVuSans-Bold-20" x="897.224609"/>
     <use xlink:href="#DejaVuSans-Bold-31" x="932.039062"/>
     <use xlink:href="#DejaVuSans-Bold-2c" x="1001.619141"/>
     <use xlink:href="#DejaVuSans-Bold-20" x="1039.607422"/>
     <use xlink:href="#DejaVuSans-Bold-70" x="1074.421875"/>
     <use xlink:href="#DejaVuSans-Bold-61" x="1146.003906"/>
     <use xlink:href="#DejaVuSans-Bold-72" x="1213.484375"/>
     <use xlink:href="#DejaVuSans-Bold-74" x="1262.800781"/>
     <use xlink:href="#DejaVuSans-Bold-69" x="1310.603516"/>
     <use xlink:href="#DejaVuSans-Bold-63" x="1344.880859"/>
     <use xlink:href="#DejaVuSans-Bold-69" x="1404.158203"/>
     <use xlink:href="#DejaVuSans-Bold-70" x="1438.435547"/>
     <use xlink:href="#DejaVuSans-Bold-61" x="1510.017578"/>
     <use xlink:href="#DejaVuSans-Bold-6e" x="1577.498047"/>
     <use xlink:href="#DejaVuSans-Bold-74" x="1648.689453"/>
     <use xlink:href="#DejaVuSans-Bold-20" x="1696.492188"/>
     <use xlink:href="#DejaVuSans-Bold-30" x="1731.306641"/>
     <use xlink:href="#DejaVuSans-Bold-34" x="1800.886719"/>
     <use xlink:href="#DejaVuSans-Bold-20" x="1870.466797"/>
    </g>
   </g>
   <g id="legend_1">
    <g id="patch_7">
     <path d="M 70 251.32 
L 168.203125 251.32 
Q 170.203125 251.32 170.203125 249.32 
L 170.203125 191.6075 
Q 170.203125 189.6075 168.203125 189.6075 
L 70 189.6075 
Q 68 189.6075 68 191.6075 
L 68 249.32 
Q 68 251.32 70 251.32 
z
" style="fill: #ffffff; opacity: 0.8; stroke: #cccccc; stroke-linejoin: miter"/>
    </g>
    <g id="line2d_14">
     <path d="M 72 197.705938 
L 82 197.705938 
L 92 197.705938 
" style="fill: none; stroke: #1f77b4; stroke-width: 1.5; stroke-linecap: square"/>
    </g>
    <g id="text_13">
     <!-- 'left' - Mean -->
     <g transform="translate(100 201.205938)scale(0.1 -0.1)">
      <defs>
       <path id="DejaVuSans-27" d="M 1147 4666 
L 1147 2931 
L 616 2931 
L 616 4666 
L 1147 4666 
z
" transform="scale(0.015625)"/>
       <path id="DejaVuSans-2d" d="M 313 2009 
L 1997 2009 
L 1997 1497 
L 313 1497 
L 313 2009 
z
" transform="scale(0.015625)"/>
       <path id="DejaVuSans-4d" d="M 628 4666 
L 1569 4666 
L 2759 1491 
L 3956 4666 
L 4897 4666 
L 4897 0 
L 4281 0 
L 4281 4097 
L 3078 897 
L 2444 897 
L 1241 4097 
L 1241 0 
L 628 0 
L 628 4666 
z
" transform="scale(0.015625)"/>
       <path id="DejaVuSans-61" d="M 2194 1759 
Q 1497 1759 1228 1600 
Q 959 1441 959 1056 
Q 959 750 1161 570 
Q 1363 391 1709 391 
Q 2188 391 2477 730 
Q 2766 1069 2766 1631 
L 2766 1759 
L 2194 1759 
z
M 3341 1997 
L 3341 0 
L 2766 0 
L 2766 531 
Q 2569 213 2275 61 
Q 1981 -91 1556 -91 
Q 1019 -91 701 211 
Q 384 513 384 1019 
Q 384 1609 779 1909 
Q 1175 2209 1959 2209 
L 2766 2209 
L 2766 2266 
Q 2766 2663 2505 2880 
Q 2244 3097 1772 3097 
Q 1472 3097 1187 3025 
Q 903 2953 641 2809 
L 641 3341 
Q 956 3463 1253 3523 
Q 1550 3584 1831 3584 
Q 2591 3584 2966 3190 
Q 3341 2797 3341 1997 
z
" transform="scale(0.015625)"/>
      </defs>
      <use xlink:href="#DejaVuSans-27"/>
      <use xlink:href="#DejaVuSans-6c" x="27.490234"/>
      <use xlink:href="#DejaVuSans-65" x="55.273438"/>
      <use xlink:href="#DejaVuSans-66" x="116.796875"/>
      <use xlink:href="#DejaVuSans-74" x="150.251953"/>
      <use xlink:href="#DejaVuSans-27" x="189.460938"/>
      <use xlink:href="#DejaVuSans-20" x="216.951172"/>
      <use xlink:href="#DejaVuSans-2d" x="248.738281"/>
      <use xlink:href="#DejaVuSans-20" x="284.822266"/>
      <use xlink:href="#DejaVuSans-4d" x="316.609375"/>
      <use xlink:href="#DejaVuSans-65" x="402.888672"/>
      <use xlink:href="#DejaVuSans-61" x="464.412109"/>
      <use xlink:href="#DejaVuSans-6e" x="525.691406"/>
     </g>
    </g>
    <g id="patch_8">
     <path d="M 72 215.884062 
L 92 215.884062 
L 92 208.884062 
L 72 208.884062 
z
" style="fill: #1f77b4; fill-opacity: 0.2"/>
    </g>
    <g id="text_14">
     <!-- 'left'- SEM -->
     <g transform="translate(100 215.884062)scale(0.1 -0.1)">
      <defs>
       <path id="DejaVuSans-53" d="M 3425 4513 
L 3425 3897 
Q 3066 4069 2747 4153 
Q 2428 4238 2131 4238 
Q 1616 4238 1336 4038 
Q 1056 3838 1056 3469 
Q 1056 3159 1242 3001 
Q 1428 2844 1947 2747 
L 2328 2669 
Q 3034 2534 3370 2195 
Q 3706 1856 3706 1288 
Q 3706 609 3251 259 
Q 2797 -91 1919 -91 
Q 1588 -91 1214 -16 
Q 841 59 441 206 
L 441 856 
Q 825 641 1194 531 
Q 1563 422 1919 422 
Q 2459 422 2753 634 
Q 3047 847 3047 1241 
Q 3047 1584 2836 1778 
Q 2625 1972 2144 2069 
L 1759 2144 
Q 1053 2284 737 2584 
Q 422 2884 422 3419 
Q 422 4038 858 4394 
Q 1294 4750 2059 4750 
Q 2388 4750 2728 4690 
Q 3069 4631 3425 4513 
z
" transform="scale(0.015625)"/>
       <path id="DejaVuSans-45" d="M 628 4666 
L 3578 4666 
L 3578 4134 
L 1259 4134 
L 1259 2753 
L 3481 2753 
L 3481 2222 
L 1259 2222 
L 1259 531 
L 3634 531 
L 3634 0 
L 628 0 
L 628 4666 
z
" transform="scale(0.015625)"/>
      </defs>
      <use xlink:href="#DejaVuSans-27"/>
      <use xlink:href="#DejaVuSans-6c" x="27.490234"/>
      <use xlink:href="#DejaVuSans-65" x="55.273438"/>
      <use xlink:href="#DejaVuSans-66" x="116.796875"/>
      <use xlink:href="#DejaVuSans-74" x="150.251953"/>
      <use xlink:href="#DejaVuSans-27" x="189.460938"/>
      <use xlink:href="#DejaVuSans-2d" x="216.951172"/>
      <use xlink:href="#DejaVuSans-20" x="253.035156"/>
      <use xlink:href="#DejaVuSans-53" x="284.822266"/>
      <use xlink:href="#DejaVuSans-45" x="348.298828"/>
      <use xlink:href="#DejaVuSans-4d" x="411.482422"/>
     </g>
    </g>
    <g id="line2d_15">
     <path d="M 72 227.062187 
L 82 227.062187 
L 92 227.062187 
" style="fill: none; stroke: #ff7f0e; stroke-width: 1.5; stroke-linecap: square"/>
    </g>
    <g id="text_15">
     <!-- 'right' - Mean -->
     <g transform="translate(100 230.562187)scale(0.1 -0.1)">
      <defs>
       <path id="DejaVuSans-67" d="M 2906 1791 
Q 2906 2416 2648 2759 
Q 2391 3103 1925 3103 
Q 1463 3103 1205 2759 
Q 947 2416 947 1791 
Q 947 1169 1205 825 
Q 1463 481 1925 481 
Q 2391 481 2648 825 
Q 2906 1169 2906 1791 
z
M 3481 434 
Q 3481 -459 3084 -895 
Q 2688 -1331 1869 -1331 
Q 1566 -1331 1297 -1286 
Q 1028 -1241 775 -1147 
L 775 -588 
Q 1028 -725 1275 -790 
Q 1522 -856 1778 -856 
Q 2344 -856 2625 -561 
Q 2906 -266 2906 331 
L 2906 616 
Q 2728 306 2450 153 
Q 2172 0 1784 0 
Q 1141 0 747 490 
Q 353 981 353 1791 
Q 353 2603 747 3093 
Q 1141 3584 1784 3584 
Q 2172 3584 2450 3431 
Q 2728 3278 2906 2969 
L 2906 3500 
L 3481 3500 
L 3481 434 
z
" transform="scale(0.015625)"/>
       <path id="DejaVuSans-68" d="M 3513 2113 
L 3513 0 
L 2938 0 
L 2938 2094 
Q 2938 2591 2744 2837 
Q 2550 3084 2163 3084 
Q 1697 3084 1428 2787 
Q 1159 2491 1159 1978 
L 1159 0 
L 581 0 
L 581 4863 
L 1159 4863 
L 1159 2956 
Q 1366 3272 1645 3428 
Q 1925 3584 2291 3584 
Q 2894 3584 3203 3211 
Q 3513 2838 3513 2113 
z
" transform="scale(0.015625)"/>
      </defs>
      <use xlink:href="#DejaVuSans-27"/>
      <use xlink:href="#DejaVuSans-72" x="27.490234"/>
      <use xlink:href="#DejaVuSans-69" x="68.603516"/>
      <use xlink:href="#DejaVuSans-67" x="96.386719"/>
      <use xlink:href="#DejaVuSans-68" x="159.863281"/>
      <use xlink:href="#DejaVuSans-74" x="223.242188"/>
      <use xlink:href="#DejaVuSans-27" x="262.451172"/>
      <use xlink:href="#DejaVuSans-20" x="289.941406"/>
      <use xlink:href="#DejaVuSans-2d" x="321.728516"/>
      <use xlink:href="#DejaVuSans-20" x="357.8125"/>
      <use xlink:href="#DejaVuSans-4d" x="389.599609"/>
      <use xlink:href="#DejaVuSans-65" x="475.878906"/>
      <use xlink:href="#DejaVuSans-61" x="537.402344"/>
      <use xlink:href="#DejaVuSans-6e" x="598.681641"/>
     </g>
    </g>
    <g id="patch_9">
     <path d="M 72 245.240313 
L 92 245.240313 
L 92 238.240313 
L 72 238.240313 
z
" style="fill: #ff7f0e; fill-opacity: 0.2"/>
    </g>
    <g id="text_16">
     <!-- 'right'- SEM -->
     <g transform="translate(100 245.240313)scale(0.1 -0.1)">
      <use xlink:href="#DejaVuSans-27"/>
      <use xlink:href="#DejaVuSans-72" x="27.490234"/>
      <use xlink:href="#DejaVuSans-69" x="68.603516"/>
      <use xlink:href="#DejaVuSans-67" x="96.386719"/>
      <use xlink:href="#DejaVuSans-68" x="159.863281"/>
      <use xlink:href="#DejaVuSans-74" x="223.242188"/>
      <use xlink:href="#DejaVuSans-27" x="262.451172"/>
      <use xlink:href="#DejaVuSans-2d" x="289.941406"/>
      <use xlink:href="#DejaVuSans-20" x="326.025391"/>
      <use xlink:href="#DejaVuSans-53" x="357.8125"/>
      <use xlink:href="#DejaVuSans-45" x="421.289062"/>
      <use xlink:href="#DejaVuSans-4d" x="484.472656"/>
     </g>
    </g>
   </g>
  </g>
 </g>
 <defs>
  <clipPath id="pe74df29037">
   <rect x="63" y="34.56" width="390.6" height="221.76"/>
  </clipPath>
 </defs>
</svg>
